solid OpenSCAD_Model
  facet normal 1 0 0
    outer loop
      vertex 28 46 -42
      vertex 28 33 -116
      vertex 28 46 -190
    endloop
  endfacet
  facet normal 1 0 0
    outer loop
      vertex 28 46 -42
      vertex 28 32.9293 -113.842
      vertex 28 33 -116
    endloop
  endfacet
  facet normal 1 0 0
    outer loop
      vertex 28 46 -42
      vertex 28 32.7177 -111.693
      vertex 28 32.9293 -113.842
    endloop
  endfacet
  facet normal 1 0 0
    outer loop
      vertex 28 46 -42
      vertex 28 32.3659 -109.562
      vertex 28 32.7177 -111.693
    endloop
  endfacet
  facet normal 1 0 0
    outer loop
      vertex 28 46 -42
      vertex 28 31.8756 -107.459
      vertex 28 32.3659 -109.562
    endloop
  endfacet
  facet normal 1 0 0
    outer loop
      vertex 28 46 -42
      vertex 28 31.2487 -105.392
      vertex 28 31.8756 -107.459
    endloop
  endfacet
  facet normal 1 0 0
    outer loop
      vertex 28 46 -42
      vertex 28 30.488 -103.371
      vertex 28 31.2487 -105.392
    endloop
  endfacet
  facet normal 1 0 0
    outer loop
      vertex 28 46 -42
      vertex 28 29.5968 -101.404
      vertex 28 30.488 -103.371
    endloop
  endfacet
  facet normal 1 0 0
    outer loop
      vertex 28 46 -42
      vertex 28 28.5788 -99.5
      vertex 28 29.5968 -101.404
    endloop
  endfacet
  facet normal 1 0 0
    outer loop
      vertex 28 46 -42
      vertex 28 27.4385 -97.6662
      vertex 28 28.5788 -99.5
    endloop
  endfacet
  facet normal 1 0 0
    outer loop
      vertex 28 46 -42
      vertex 28 26.1807 -95.9109
      vertex 28 27.4385 -97.6662
    endloop
  endfacet
  facet normal 1 0 0
    outer loop
      vertex 28 46 -42
      vertex 28 24.8107 -94.2416
      vertex 28 26.1807 -95.9109
    endloop
  endfacet
  facet normal 1 0 0
    outer loop
      vertex 28 46 -42
      vertex 28 23.3345 -92.6655
      vertex 28 24.8107 -94.2416
    endloop
  endfacet
  facet normal 1 0 0
    outer loop
      vertex 28 46 -42
      vertex 28 21.7584 -91.1893
      vertex 28 23.3345 -92.6655
    endloop
  endfacet
  facet normal 1 0 0
    outer loop
      vertex 28 46 -42
      vertex 28 20.0891 -89.8193
      vertex 28 21.7584 -91.1893
    endloop
  endfacet
  facet normal 1 0 0
    outer loop
      vertex 28 46 -42
      vertex 28 18.3338 -88.5615
      vertex 28 20.0891 -89.8193
    endloop
  endfacet
  facet normal 1 0 0
    outer loop
      vertex 28 46 -42
      vertex 28 16.5 -87.4212
      vertex 28 18.3338 -88.5615
    endloop
  endfacet
  facet normal 1 0 0
    outer loop
      vertex 28 46 -42
      vertex 28 14.5955 -86.4032
      vertex 28 16.5 -87.4212
    endloop
  endfacet
  facet normal 1 0 0
    outer loop
      vertex 28 46 -42
      vertex 28 12.6286 -85.512
      vertex 28 14.5955 -86.4032
    endloop
  endfacet
  facet normal 1 0 0
    outer loop
      vertex 28 46 -42
      vertex 28 10.6075 -84.7513
      vertex 28 12.6286 -85.512
    endloop
  endfacet
  facet normal 1 0 0
    outer loop
      vertex 28 46 -42
      vertex 28 8.54103 -84.1245
      vertex 28 10.6075 -84.7513
    endloop
  endfacet
  facet normal 1 0 0
    outer loop
      vertex 28 46 -42
      vertex 28 6.43798 -83.6341
      vertex 28 8.54103 -84.1245
    endloop
  endfacet
  facet normal 1 0 0
    outer loop
      vertex 28 46 -42
      vertex 28 4.30736 -83.2823
      vertex 28 6.43798 -83.6341
    endloop
  endfacet
  facet normal 1 0 0
    outer loop
      vertex 28 46 -42
      vertex 28 2.1583 -83.0707
      vertex 28 4.30736 -83.2823
    endloop
  endfacet
  facet normal 1 0 0
    outer loop
      vertex 28 46 -42
      vertex 28 0 -83
      vertex 28 2.1583 -83.0707
    endloop
  endfacet
  facet normal 1 -0 0
    outer loop
      vertex 28 -46 -42
      vertex 28 0 -83
      vertex 28 46 -42
    endloop
  endfacet
  facet normal 1 0 0
    outer loop
      vertex 28 0 -83
      vertex 28 -46 -42
      vertex 28 -2.1583 -83.0707
    endloop
  endfacet
  facet normal 1 0 0
    outer loop
      vertex 28 -2.1583 -83.0707
      vertex 28 -46 -42
      vertex 28 -4.30736 -83.2823
    endloop
  endfacet
  facet normal 1 0 0
    outer loop
      vertex 28 -4.30736 -83.2823
      vertex 28 -46 -42
      vertex 28 -6.43798 -83.6341
    endloop
  endfacet
  facet normal 1 0 0
    outer loop
      vertex 28 -6.43798 -83.6341
      vertex 28 -46 -42
      vertex 28 -8.54103 -84.1245
    endloop
  endfacet
  facet normal 1 0 0
    outer loop
      vertex 28 -8.54103 -84.1245
      vertex 28 -46 -42
      vertex 28 -10.6075 -84.7513
    endloop
  endfacet
  facet normal 1 0 0
    outer loop
      vertex 28 -10.6075 -84.7513
      vertex 28 -46 -42
      vertex 28 -12.6286 -85.512
    endloop
  endfacet
  facet normal 1 0 0
    outer loop
      vertex 28 -12.6286 -85.512
      vertex 28 -46 -42
      vertex 28 -14.5955 -86.4032
    endloop
  endfacet
  facet normal 1 0 0
    outer loop
      vertex 28 -14.5955 -86.4032
      vertex 28 -46 -42
      vertex 28 -16.5 -87.4212
    endloop
  endfacet
  facet normal 1 0 0
    outer loop
      vertex 28 -16.5 -87.4212
      vertex 28 -46 -42
      vertex 28 -18.3338 -88.5615
    endloop
  endfacet
  facet normal 1 0 0
    outer loop
      vertex 28 -32.9293 -113.842
      vertex 28 -46 -42
      vertex 28 -33 -116
    endloop
  endfacet
  facet normal 1 0 0
    outer loop
      vertex 28 -32.7177 -111.693
      vertex 28 -46 -42
      vertex 28 -32.9293 -113.842
    endloop
  endfacet
  facet normal 1 0 0
    outer loop
      vertex 28 -32.3659 -109.562
      vertex 28 -46 -42
      vertex 28 -32.7177 -111.693
    endloop
  endfacet
  facet normal 1 0 0
    outer loop
      vertex 28 -31.8756 -107.459
      vertex 28 -46 -42
      vertex 28 -32.3659 -109.562
    endloop
  endfacet
  facet normal 1 0 0
    outer loop
      vertex 28 -31.2487 -105.392
      vertex 28 -46 -42
      vertex 28 -31.8756 -107.459
    endloop
  endfacet
  facet normal 1 0 0
    outer loop
      vertex 28 -30.488 -103.371
      vertex 28 -46 -42
      vertex 28 -31.2487 -105.392
    endloop
  endfacet
  facet normal 1 0 0
    outer loop
      vertex 28 -29.5968 -101.404
      vertex 28 -46 -42
      vertex 28 -30.488 -103.371
    endloop
  endfacet
  facet normal 1 0 0
    outer loop
      vertex 28 -28.5788 -99.5
      vertex 28 -46 -42
      vertex 28 -29.5968 -101.404
    endloop
  endfacet
  facet normal 1 0 0
    outer loop
      vertex 28 -27.4385 -97.6662
      vertex 28 -46 -42
      vertex 28 -28.5788 -99.5
    endloop
  endfacet
  facet normal 1 0 0
    outer loop
      vertex 28 -26.1807 -95.9109
      vertex 28 -46 -42
      vertex 28 -27.4385 -97.6662
    endloop
  endfacet
  facet normal 1 0 0
    outer loop
      vertex 28 -24.8107 -94.2416
      vertex 28 -46 -42
      vertex 28 -26.1807 -95.9109
    endloop
  endfacet
  facet normal 1 0 0
    outer loop
      vertex 28 -23.3345 -92.6655
      vertex 28 -46 -42
      vertex 28 -24.8107 -94.2416
    endloop
  endfacet
  facet normal 1 0 0
    outer loop
      vertex 28 -21.7584 -91.1893
      vertex 28 -46 -42
      vertex 28 -23.3345 -92.6655
    endloop
  endfacet
  facet normal 1 0 0
    outer loop
      vertex 28 -20.0891 -89.8193
      vertex 28 -46 -42
      vertex 28 -21.7584 -91.1893
    endloop
  endfacet
  facet normal 1 0 0
    outer loop
      vertex 28 -18.3338 -88.5615
      vertex 28 -46 -42
      vertex 28 -20.0891 -89.8193
    endloop
  endfacet
  facet normal 1 -0 0
    outer loop
      vertex 28 32.9293 -118.158
      vertex 28 46 -190
      vertex 28 33 -116
    endloop
  endfacet
  facet normal 1 -0 0
    outer loop
      vertex 28 32.7177 -120.307
      vertex 28 46 -190
      vertex 28 32.9293 -118.158
    endloop
  endfacet
  facet normal 1 -0 0
    outer loop
      vertex 28 32.3659 -122.438
      vertex 28 46 -190
      vertex 28 32.7177 -120.307
    endloop
  endfacet
  facet normal 1 -0 0
    outer loop
      vertex 28 31.8756 -124.541
      vertex 28 46 -190
      vertex 28 32.3659 -122.438
    endloop
  endfacet
  facet normal 1 -0 0
    outer loop
      vertex 28 31.2487 -126.607
      vertex 28 46 -190
      vertex 28 31.8756 -124.541
    endloop
  endfacet
  facet normal 1 -0 0
    outer loop
      vertex 28 30.488 -128.629
      vertex 28 46 -190
      vertex 28 31.2487 -126.607
    endloop
  endfacet
  facet normal 1 -0 0
    outer loop
      vertex 28 29.5968 -130.596
      vertex 28 46 -190
      vertex 28 30.488 -128.629
    endloop
  endfacet
  facet normal 1 -0 0
    outer loop
      vertex 28 28.5788 -132.5
      vertex 28 46 -190
      vertex 28 29.5968 -130.596
    endloop
  endfacet
  facet normal 1 -0 0
    outer loop
      vertex 28 27.4385 -134.334
      vertex 28 46 -190
      vertex 28 28.5788 -132.5
    endloop
  endfacet
  facet normal 1 -0 0
    outer loop
      vertex 28 26.1807 -136.089
      vertex 28 46 -190
      vertex 28 27.4385 -134.334
    endloop
  endfacet
  facet normal 1 -0 0
    outer loop
      vertex 28 24.8107 -137.758
      vertex 28 46 -190
      vertex 28 26.1807 -136.089
    endloop
  endfacet
  facet normal 1 -0 0
    outer loop
      vertex 28 23.3345 -139.335
      vertex 28 46 -190
      vertex 28 24.8107 -137.758
    endloop
  endfacet
  facet normal 1 -0 0
    outer loop
      vertex 28 21.7584 -140.811
      vertex 28 46 -190
      vertex 28 23.3345 -139.335
    endloop
  endfacet
  facet normal 1 -0 0
    outer loop
      vertex 28 20.0891 -142.181
      vertex 28 46 -190
      vertex 28 21.7584 -140.811
    endloop
  endfacet
  facet normal 1 -0 0
    outer loop
      vertex 28 18.3338 -143.438
      vertex 28 46 -190
      vertex 28 20.0891 -142.181
    endloop
  endfacet
  facet normal 1 -0 0
    outer loop
      vertex 28 16.5 -144.579
      vertex 28 46 -190
      vertex 28 18.3338 -143.438
    endloop
  endfacet
  facet normal 1 -0 0
    outer loop
      vertex 28 14.5955 -145.597
      vertex 28 46 -190
      vertex 28 16.5 -144.579
    endloop
  endfacet
  facet normal 1 -0 0
    outer loop
      vertex 28 12.6286 -146.488
      vertex 28 46 -190
      vertex 28 14.5955 -145.597
    endloop
  endfacet
  facet normal 1 -0 0
    outer loop
      vertex 28 10.6075 -147.249
      vertex 28 46 -190
      vertex 28 12.6286 -146.488
    endloop
  endfacet
  facet normal 1 -0 0
    outer loop
      vertex 28 8.54103 -147.876
      vertex 28 46 -190
      vertex 28 10.6075 -147.249
    endloop
  endfacet
  facet normal 1 -0 0
    outer loop
      vertex 28 6.43798 -148.366
      vertex 28 46 -190
      vertex 28 8.54103 -147.876
    endloop
  endfacet
  facet normal 1 -0 0
    outer loop
      vertex 28 4.30736 -148.718
      vertex 28 46 -190
      vertex 28 6.43798 -148.366
    endloop
  endfacet
  facet normal 1 -0 0
    outer loop
      vertex 28 2.1583 -148.929
      vertex 28 46 -190
      vertex 28 4.30736 -148.718
    endloop
  endfacet
  facet normal 1 -0 0
    outer loop
      vertex 28 0 -149
      vertex 28 46 -190
      vertex 28 2.1583 -148.929
    endloop
  endfacet
  facet normal 1 0 0
    outer loop
      vertex 28 -46 -190
      vertex 28 0 -149
      vertex 28 -2.1583 -148.929
    endloop
  endfacet
  facet normal 1 0 0
    outer loop
      vertex 28 -46 -190
      vertex 28 -2.1583 -148.929
      vertex 28 -4.30736 -148.718
    endloop
  endfacet
  facet normal 1 0 0
    outer loop
      vertex 28 -46 -190
      vertex 28 -4.30736 -148.718
      vertex 28 -6.43798 -148.366
    endloop
  endfacet
  facet normal 1 0 0
    outer loop
      vertex 28 -46 -190
      vertex 28 -6.43798 -148.366
      vertex 28 -8.54103 -147.876
    endloop
  endfacet
  facet normal 1 0 0
    outer loop
      vertex 28 -46 -190
      vertex 28 -8.54103 -147.876
      vertex 28 -10.6075 -147.249
    endloop
  endfacet
  facet normal 1 0 0
    outer loop
      vertex 28 -46 -190
      vertex 28 -10.6075 -147.249
      vertex 28 -12.6286 -146.488
    endloop
  endfacet
  facet normal 1 0 0
    outer loop
      vertex 28 -46 -190
      vertex 28 -12.6286 -146.488
      vertex 28 -14.5955 -145.597
    endloop
  endfacet
  facet normal 1 0 0
    outer loop
      vertex 28 -46 -190
      vertex 28 -14.5955 -145.597
      vertex 28 -16.5 -144.579
    endloop
  endfacet
  facet normal 1 0 0
    outer loop
      vertex 28 -46 -190
      vertex 28 -16.5 -144.579
      vertex 28 -18.3338 -143.438
    endloop
  endfacet
  facet normal 1 0 0
    outer loop
      vertex 28 -46 -190
      vertex 28 -18.3338 -143.438
      vertex 28 -20.0891 -142.181
    endloop
  endfacet
  facet normal 1 0 0
    outer loop
      vertex 28 -46 -190
      vertex 28 -33 -116
      vertex 28 -46 -42
    endloop
  endfacet
  facet normal 1 0 0
    outer loop
      vertex 28 -33 -116
      vertex 28 -46 -190
      vertex 28 -32.9293 -118.158
    endloop
  endfacet
  facet normal 1 0 0
    outer loop
      vertex 28 -32.9293 -118.158
      vertex 28 -46 -190
      vertex 28 -32.7177 -120.307
    endloop
  endfacet
  facet normal 1 0 0
    outer loop
      vertex 28 0 -149
      vertex 28 -46 -190
      vertex 28 46 -190
    endloop
  endfacet
  facet normal 1 0 0
    outer loop
      vertex 28 -21.7584 -140.811
      vertex 28 -46 -190
      vertex 28 -20.0891 -142.181
    endloop
  endfacet
  facet normal 1 0 0
    outer loop
      vertex 28 -23.3345 -139.335
      vertex 28 -46 -190
      vertex 28 -21.7584 -140.811
    endloop
  endfacet
  facet normal 1 0 0
    outer loop
      vertex 28 -24.8107 -137.758
      vertex 28 -46 -190
      vertex 28 -23.3345 -139.335
    endloop
  endfacet
  facet normal 1 0 0
    outer loop
      vertex 28 -26.1807 -136.089
      vertex 28 -46 -190
      vertex 28 -24.8107 -137.758
    endloop
  endfacet
  facet normal 1 0 0
    outer loop
      vertex 28 -27.4385 -134.334
      vertex 28 -46 -190
      vertex 28 -26.1807 -136.089
    endloop
  endfacet
  facet normal 1 0 0
    outer loop
      vertex 28 -28.5788 -132.5
      vertex 28 -46 -190
      vertex 28 -27.4385 -134.334
    endloop
  endfacet
  facet normal 1 0 0
    outer loop
      vertex 28 -29.5968 -130.596
      vertex 28 -46 -190
      vertex 28 -28.5788 -132.5
    endloop
  endfacet
  facet normal 1 0 0
    outer loop
      vertex 28 -30.488 -128.629
      vertex 28 -46 -190
      vertex 28 -29.5968 -130.596
    endloop
  endfacet
  facet normal 1 0 0
    outer loop
      vertex 28 -31.2487 -126.607
      vertex 28 -46 -190
      vertex 28 -30.488 -128.629
    endloop
  endfacet
  facet normal 1 0 0
    outer loop
      vertex 28 -31.8756 -124.541
      vertex 28 -46 -190
      vertex 28 -31.2487 -126.607
    endloop
  endfacet
  facet normal 1 0 0
    outer loop
      vertex 28 -32.3659 -122.438
      vertex 28 -46 -190
      vertex 28 -31.8756 -124.541
    endloop
  endfacet
  facet normal 1 0 0
    outer loop
      vertex 28 -32.7177 -120.307
      vertex 28 -46 -190
      vertex 28 -32.3659 -122.438
    endloop
  endfacet
  facet normal -0 0 1
    outer loop
      vertex 26.01 46 -42
      vertex 28 -46 -42
      vertex 28 46 -42
    endloop
  endfacet
  facet normal 0 0 1
    outer loop
      vertex 28 -46 -42
      vertex 26.01 46 -42
      vertex 26.01 -46 -42
    endloop
  endfacet
  facet normal 0 0 -1
    outer loop
      vertex 26.01 -46 -190
      vertex 28 46 -190
      vertex 28 -46 -190
    endloop
  endfacet
  facet normal -0 0 -1
    outer loop
      vertex 28 46 -190
      vertex 26.01 -46 -190
      vertex 26.01 46 -190
    endloop
  endfacet
  facet normal 0 1 -0
    outer loop
      vertex 28 46 -190
      vertex 26.01 46 -42
      vertex 28 46 -42
    endloop
  endfacet
  facet normal 0 1 0
    outer loop
      vertex 26.01 46 -42
      vertex 28 46 -190
      vertex 26.01 46 -190
    endloop
  endfacet
  facet normal 0 -1 0
    outer loop
      vertex 26.01 -46 -190
      vertex 28 -46 -42
      vertex 26.01 -46 -42
    endloop
  endfacet
  facet normal 0 -1 -0
    outer loop
      vertex 28 -46 -42
      vertex 26.01 -46 -190
      vertex 28 -46 -190
    endloop
  endfacet
  facet normal 0 0.999464 -0.0327442
    outer loop
      vertex 28 -33 -116
      vertex 26.01 -32.9293 -113.842
      vertex 28 -32.9293 -113.842
    endloop
  endfacet
  facet normal 0 0.999464 -0.0327442
    outer loop
      vertex 26.01 -32.9293 -113.842
      vertex 28 -33 -116
      vertex 26.01 -33 -116
    endloop
  endfacet
  facet normal 0 0.352255 -0.935904
    outer loop
      vertex 26.01 -12.6286 -85.512
      vertex 28 -10.6075 -84.7513
      vertex 28 -12.6286 -85.512
    endloop
  endfacet
  facet normal 0 0.352255 -0.935904
    outer loop
      vertex 28 -10.6075 -84.7513
      vertex 26.01 -12.6286 -85.512
      vertex 26.01 -10.6075 -84.7513
    endloop
  endfacet
  facet normal 0 0.956916 0.290363
    outer loop
      vertex 28 -31.2487 -126.607
      vertex 26.01 -31.8756 -124.541
      vertex 28 -31.8756 -124.541
    endloop
  endfacet
  facet normal 0 0.956916 0.290363
    outer loop
      vertex 26.01 -31.8756 -124.541
      vertex 28 -31.2487 -126.607
      vertex 26.01 -31.2487 -126.607
    endloop
  endfacet
  facet normal 0 -0.773001 -0.634405
    outer loop
      vertex 26.01 26.1807 -95.9109
      vertex 28 24.8107 -94.2416
      vertex 26.01 24.8107 -94.2416
    endloop
  endfacet
  facet normal 0 -0.773001 -0.634405
    outer loop
      vertex 28 24.8107 -94.2416
      vertex 26.01 26.1807 -95.9109
      vertex 28 26.1807 -95.9109
    endloop
  endfacet
  facet normal 0 -0.471405 0.881917
    outer loop
      vertex 26.01 16.5 -144.579
      vertex 28 14.5955 -145.597
      vertex 28 16.5 -144.579
    endloop
  endfacet
  facet normal 0 -0.471405 0.881917
    outer loop
      vertex 28 14.5955 -145.597
      vertex 26.01 16.5 -144.579
      vertex 26.01 14.5955 -145.597
    endloop
  endfacet
  facet normal 0 0.91087 0.412693
    outer loop
      vertex 28 -29.5968 -130.596
      vertex 26.01 -30.488 -128.629
      vertex 28 -30.488 -128.629
    endloop
  endfacet
  facet normal 0 0.91087 0.412693
    outer loop
      vertex 26.01 -30.488 -128.629
      vertex 28 -29.5968 -130.596
      vertex 26.01 -29.5968 -130.596
    endloop
  endfacet
  facet normal 0 -0.986646 0.162882
    outer loop
      vertex 26.01 32.3659 -122.438
      vertex 28 32.7177 -120.307
      vertex 26.01 32.7177 -120.307
    endloop
  endfacet
  facet normal 0 -0.986646 0.162882
    outer loop
      vertex 28 32.7177 -120.307
      vertex 26.01 32.3659 -122.438
      vertex 28 32.3659 -122.438
    endloop
  endfacet
  facet normal 0 -0.91087 -0.412693
    outer loop
      vertex 26.01 30.488 -103.371
      vertex 28 29.5968 -101.404
      vertex 26.01 29.5968 -101.404
    endloop
  endfacet
  facet normal 0 -0.91087 -0.412693
    outer loop
      vertex 28 29.5968 -101.404
      vertex 26.01 30.488 -103.371
      vertex 28 30.488 -103.371
    endloop
  endfacet
  facet normal 0 -0.528292 0.849063
    outer loop
      vertex 26.01 18.3338 -143.438
      vertex 28 16.5 -144.579
      vertex 28 18.3338 -143.438
    endloop
  endfacet
  facet normal 0 -0.528292 0.849063
    outer loop
      vertex 28 16.5 -144.579
      vertex 26.01 18.3338 -143.438
      vertex 26.01 16.5 -144.579
    endloop
  endfacet
  facet normal 0 -0.935898 -0.35227
    outer loop
      vertex 26.01 31.2487 -105.392
      vertex 28 30.488 -103.371
      vertex 26.01 30.488 -103.371
    endloop
  endfacet
  facet normal 0 -0.935898 -0.35227
    outer loop
      vertex 28 30.488 -103.371
      vertex 26.01 31.2487 -105.392
      vertex 28 31.2487 -105.392
    endloop
  endfacet
  facet normal 0 -0.0328785 0.999459
    outer loop
      vertex 26.01 2.1583 -148.929
      vertex 28 0 -149
      vertex 28 2.1583 -148.929
    endloop
  endfacet
  facet normal 0 -0.0328785 0.999459
    outer loop
      vertex 28 0 -149
      vertex 26.01 2.1583 -148.929
      vertex 26.01 0 -149
    endloop
  endfacet
  facet normal 0 -0.956955 -0.290235
    outer loop
      vertex 26.01 31.8756 -107.459
      vertex 28 31.2487 -105.392
      vertex 26.01 31.2487 -105.392
    endloop
  endfacet
  facet normal 0 -0.956955 -0.290235
    outer loop
      vertex 28 31.2487 -105.392
      vertex 26.01 31.8756 -107.459
      vertex 28 31.8756 -107.459
    endloop
  endfacet
  facet normal -0 0.0328785 0.999459
    outer loop
      vertex 26.01 0 -149
      vertex 28 -2.1583 -148.929
      vertex 28 0 -149
    endloop
  endfacet
  facet normal 0 0.0328785 0.999459
    outer loop
      vertex 28 -2.1583 -148.929
      vertex 26.01 0 -149
      vertex 26.01 -2.1583 -148.929
    endloop
  endfacet
  facet normal -0 0.683548 0.729905
    outer loop
      vertex 26.01 -21.7584 -140.811
      vertex 28 -23.3345 -139.335
      vertex 28 -21.7584 -140.811
    endloop
  endfacet
  facet normal 0 0.683548 0.729905
    outer loop
      vertex 28 -23.3345 -139.335
      vertex 26.01 -21.7584 -140.811
      vertex 26.01 -23.3345 -139.335
    endloop
  endfacet
  facet normal 0 -0.290261 -0.956948
    outer loop
      vertex 26.01 8.54103 -84.1245
      vertex 28 10.6075 -84.7513
      vertex 28 8.54103 -84.1245
    endloop
  endfacet
  facet normal -0 -0.290261 -0.956948
    outer loop
      vertex 28 10.6075 -84.7513
      vertex 26.01 8.54103 -84.1245
      vertex 26.01 10.6075 -84.7513
    endloop
  endfacet
  facet normal 0 0.227093 -0.973873
    outer loop
      vertex 26.01 -8.54103 -84.1245
      vertex 28 -6.43798 -83.6341
      vertex 28 -8.54103 -84.1245
    endloop
  endfacet
  facet normal 0 0.227093 -0.973873
    outer loop
      vertex 28 -6.43798 -83.6341
      vertex 26.01 -8.54103 -84.1245
      vertex 26.01 -6.43798 -83.6341
    endloop
  endfacet
  facet normal -0 0.412634 0.910897
    outer loop
      vertex 26.01 -12.6286 -146.488
      vertex 28 -14.5955 -145.597
      vertex 28 -12.6286 -146.488
    endloop
  endfacet
  facet normal 0 0.412634 0.910897
    outer loop
      vertex 28 -14.5955 -145.597
      vertex 26.01 -12.6286 -146.488
      vertex 26.01 -14.5955 -145.597
    endloop
  endfacet
  facet normal 0 -0.772945 0.634473
    outer loop
      vertex 26.01 24.8107 -137.758
      vertex 28 26.1807 -136.089
      vertex 26.01 26.1807 -136.089
    endloop
  endfacet
  facet normal 0 -0.772945 0.634473
    outer loop
      vertex 28 26.1807 -136.089
      vertex 26.01 24.8107 -137.758
      vertex 28 24.8107 -137.758
    endloop
  endfacet
  facet normal 0 -0.812806 0.582534
    outer loop
      vertex 26.01 26.1807 -136.089
      vertex 28 27.4385 -134.334
      vertex 26.01 27.4385 -134.334
    endloop
  endfacet
  facet normal 0 -0.812806 0.582534
    outer loop
      vertex 28 27.4385 -134.334
      vertex 26.01 26.1807 -136.089
      vertex 28 26.1807 -136.089
    endloop
  endfacet
  facet normal 0 -0.849234 0.528016
    outer loop
      vertex 26.01 27.4385 -134.334
      vertex 28 28.5788 -132.5
      vertex 26.01 28.5788 -132.5
    endloop
  endfacet
  facet normal 0 -0.849234 0.528016
    outer loop
      vertex 28 28.5788 -132.5
      vertex 26.01 27.4385 -134.334
      vertex 28 27.4385 -134.334
    endloop
  endfacet
  facet normal 0 -0.226917 0.973914
    outer loop
      vertex 26.01 8.54103 -147.876
      vertex 28 6.43798 -148.366
      vertex 28 8.54103 -147.876
    endloop
  endfacet
  facet normal 0 -0.226917 0.973914
    outer loop
      vertex 28 6.43798 -148.366
      vertex 26.01 8.54103 -147.876
      vertex 26.01 6.43798 -148.366
    endloop
  endfacet
  facet normal 0 0.634405 -0.773001
    outer loop
      vertex 26.01 -21.7584 -91.1893
      vertex 28 -20.0891 -89.8193
      vertex 28 -21.7584 -91.1893
    endloop
  endfacet
  facet normal 0 0.634405 -0.773001
    outer loop
      vertex 28 -20.0891 -89.8193
      vertex 26.01 -21.7584 -91.1893
      vertex 26.01 -20.0891 -89.8193
    endloop
  endfacet
  facet normal 0 0.849208 -0.528058
    outer loop
      vertex 28 -28.5788 -99.5
      vertex 26.01 -27.4385 -97.6662
      vertex 28 -27.4385 -97.6662
    endloop
  endfacet
  facet normal 0 0.849208 -0.528058
    outer loop
      vertex 26.01 -27.4385 -97.6662
      vertex 28 -28.5788 -99.5
      vertex 26.01 -28.5788 -99.5
    endloop
  endfacet
  facet normal 0 -0.528058 -0.849208
    outer loop
      vertex 26.01 16.5 -87.4212
      vertex 28 18.3338 -88.5615
      vertex 28 16.5 -87.4212
    endloop
  endfacet
  facet normal -0 -0.528058 -0.849208
    outer loop
      vertex 28 18.3338 -88.5615
      vertex 26.01 16.5 -87.4212
      vertex 26.01 18.3338 -88.5615
    endloop
  endfacet
  facet normal 0 -0.730054 0.68339
    outer loop
      vertex 26.01 23.3345 -139.335
      vertex 28 24.8107 -137.758
      vertex 26.01 24.8107 -137.758
    endloop
  endfacet
  facet normal 0 -0.730054 0.68339
    outer loop
      vertex 28 24.8107 -137.758
      vertex 26.01 23.3345 -139.335
      vertex 28 23.3345 -139.335
    endloop
  endfacet
  facet normal 0 -0.582224 0.813029
    outer loop
      vertex 26.01 20.0891 -142.181
      vertex 28 18.3338 -143.438
      vertex 28 20.0891 -142.181
    endloop
  endfacet
  facet normal 0 -0.582224 0.813029
    outer loop
      vertex 28 18.3338 -143.438
      vertex 26.01 20.0891 -142.181
      vertex 26.01 18.3338 -143.438
    endloop
  endfacet
  facet normal 0 -0.683548 0.729905
    outer loop
      vertex 26.01 23.3345 -139.335
      vertex 28 21.7584 -140.811
      vertex 28 23.3345 -139.335
    endloop
  endfacet
  facet normal 0 -0.683548 0.729905
    outer loop
      vertex 28 21.7584 -140.811
      vertex 26.01 23.3345 -139.335
      vertex 26.01 21.7584 -140.811
    endloop
  endfacet
  facet normal 0 -0.634405 0.773001
    outer loop
      vertex 26.01 21.7584 -140.811
      vertex 28 20.0891 -142.181
      vertex 28 21.7584 -140.811
    endloop
  endfacet
  facet normal 0 -0.634405 0.773001
    outer loop
      vertex 28 20.0891 -142.181
      vertex 26.01 21.7584 -140.811
      vertex 26.01 20.0891 -142.181
    endloop
  endfacet
  facet normal 0 0.729859 -0.683598
    outer loop
      vertex 28 -24.8107 -94.2416
      vertex 26.01 -23.3345 -92.6655
      vertex 28 -23.3345 -92.6655
    endloop
  endfacet
  facet normal 0 0.729859 -0.683598
    outer loop
      vertex 26.01 -23.3345 -92.6655
      vertex 28 -24.8107 -94.2416
      vertex 26.01 -24.8107 -94.2416
    endloop
  endfacet
  facet normal 0 -0.0977126 0.995215
    outer loop
      vertex 26.01 4.30736 -148.718
      vertex 28 2.1583 -148.929
      vertex 28 4.30736 -148.718
    endloop
  endfacet
  facet normal 0 -0.0977126 0.995215
    outer loop
      vertex 28 2.1583 -148.929
      vertex 26.01 4.30736 -148.718
      vertex 26.01 2.1583 -148.929
    endloop
  endfacet
  facet normal 0 0.683598 -0.729859
    outer loop
      vertex 26.01 -23.3345 -92.6655
      vertex 28 -21.7584 -91.1893
      vertex 28 -23.3345 -92.6655
    endloop
  endfacet
  facet normal 0 0.683598 -0.729859
    outer loop
      vertex 28 -21.7584 -91.1893
      vertex 26.01 -23.3345 -92.6655
      vertex 26.01 -21.7584 -91.1893
    endloop
  endfacet
  facet normal 0 -0.999464 0.0327442
    outer loop
      vertex 26.01 32.9293 -118.158
      vertex 28 33 -116
      vertex 26.01 33 -116
    endloop
  endfacet
  facet normal 0 -0.999464 0.0327442
    outer loop
      vertex 28 33 -116
      vertex 26.01 32.9293 -118.158
      vertex 28 32.9293 -118.158
    endloop
  endfacet
  facet normal 0 -0.634405 -0.773001
    outer loop
      vertex 26.01 20.0891 -89.8193
      vertex 28 21.7584 -91.1893
      vertex 28 20.0891 -89.8193
    endloop
  endfacet
  facet normal -0 -0.634405 -0.773001
    outer loop
      vertex 28 21.7584 -91.1893
      vertex 26.01 20.0891 -89.8193
      vertex 26.01 21.7584 -91.1893
    endloop
  endfacet
  facet normal 0 -0.995187 -0.0979905
    outer loop
      vertex 26.01 32.9293 -113.842
      vertex 28 32.7177 -111.693
      vertex 26.01 32.7177 -111.693
    endloop
  endfacet
  facet normal 0 -0.995187 -0.0979905
    outer loop
      vertex 28 32.7177 -111.693
      vertex 26.01 32.9293 -113.842
      vertex 28 32.9293 -113.842
    endloop
  endfacet
  facet normal 0 -0.471405 -0.881917
    outer loop
      vertex 26.01 14.5955 -86.4032
      vertex 28 16.5 -87.4212
      vertex 28 14.5955 -86.4032
    endloop
  endfacet
  facet normal -0 -0.471405 -0.881917
    outer loop
      vertex 28 16.5 -87.4212
      vertex 26.01 14.5955 -86.4032
      vertex 26.01 16.5 -87.4212
    endloop
  endfacet
  facet normal 0 -0.956916 0.290363
    outer loop
      vertex 26.01 31.2487 -126.607
      vertex 28 31.8756 -124.541
      vertex 26.01 31.8756 -124.541
    endloop
  endfacet
  facet normal 0 -0.956916 0.290363
    outer loop
      vertex 28 31.8756 -124.541
      vertex 26.01 31.2487 -126.607
      vertex 28 31.2487 -126.607
    endloop
  endfacet
  facet normal 0 -0.986646 -0.162882
    outer loop
      vertex 26.01 32.7177 -111.693
      vertex 28 32.3659 -109.562
      vertex 26.01 32.3659 -109.562
    endloop
  endfacet
  facet normal 0 -0.986646 -0.162882
    outer loop
      vertex 28 32.3659 -109.562
      vertex 26.01 32.7177 -111.693
      vertex 28 32.7177 -111.693
    endloop
  endfacet
  facet normal 0 0.995187 0.0979905
    outer loop
      vertex 28 -32.7177 -120.307
      vertex 26.01 -32.9293 -118.158
      vertex 28 -32.9293 -118.158
    endloop
  endfacet
  facet normal 0 0.995187 0.0979905
    outer loop
      vertex 26.01 -32.9293 -118.158
      vertex 28 -32.7177 -120.307
      vertex 26.01 -32.7177 -120.307
    endloop
  endfacet
  facet normal 0 -0.881865 0.471501
    outer loop
      vertex 26.01 28.5788 -132.5
      vertex 28 29.5968 -130.596
      vertex 26.01 29.5968 -130.596
    endloop
  endfacet
  facet normal 0 -0.881865 0.471501
    outer loop
      vertex 28 29.5968 -130.596
      vertex 26.01 28.5788 -132.5
      vertex 28 28.5788 -132.5
    endloop
  endfacet
  facet normal 0 0.986646 0.162882
    outer loop
      vertex 28 -32.3659 -122.438
      vertex 26.01 -32.7177 -120.307
      vertex 28 -32.7177 -120.307
    endloop
  endfacet
  facet normal 0 0.986646 0.162882
    outer loop
      vertex 26.01 -32.7177 -120.307
      vertex 28 -32.3659 -122.438
      vertex 26.01 -32.3659 -122.438
    endloop
  endfacet
  facet normal 0 -0.812853 -0.582468
    outer loop
      vertex 26.01 27.4385 -97.6662
      vertex 28 26.1807 -95.9109
      vertex 26.01 26.1807 -95.9109
    endloop
  endfacet
  facet normal 0 -0.812853 -0.582468
    outer loop
      vertex 28 26.1807 -95.9109
      vertex 26.01 27.4385 -97.6662
      vertex 28 27.4385 -97.6662
    endloop
  endfacet
  facet normal -0 0.0977126 0.995215
    outer loop
      vertex 26.01 -2.1583 -148.929
      vertex 28 -4.30736 -148.718
      vertex 28 -2.1583 -148.929
    endloop
  endfacet
  facet normal 0 0.0977126 0.995215
    outer loop
      vertex 28 -4.30736 -148.718
      vertex 26.01 -2.1583 -148.929
      vertex 26.01 -4.30736 -148.718
    endloop
  endfacet
  facet normal -0 0.528292 0.849063
    outer loop
      vertex 26.01 -16.5 -144.579
      vertex 28 -18.3338 -143.438
      vertex 28 -16.5 -144.579
    endloop
  endfacet
  facet normal 0 0.528292 0.849063
    outer loop
      vertex 28 -18.3338 -143.438
      vertex 26.01 -16.5 -144.579
      vertex 26.01 -18.3338 -143.438
    endloop
  endfacet
  facet normal 0 -0.935956 0.352117
    outer loop
      vertex 26.01 30.488 -128.629
      vertex 28 31.2487 -126.607
      vertex 26.01 31.2487 -126.607
    endloop
  endfacet
  facet normal 0 -0.935956 0.352117
    outer loop
      vertex 28 31.2487 -126.607
      vertex 26.01 30.488 -128.629
      vertex 28 30.488 -128.629
    endloop
  endfacet
  facet normal 0 -0.412634 0.910897
    outer loop
      vertex 26.01 14.5955 -145.597
      vertex 28 12.6286 -146.488
      vertex 28 14.5955 -145.597
    endloop
  endfacet
  facet normal 0 -0.412634 0.910897
    outer loop
      vertex 28 12.6286 -146.488
      vertex 26.01 14.5955 -145.597
      vertex 26.01 12.6286 -146.488
    endloop
  endfacet
  facet normal 0 -0.973882 0.227054
    outer loop
      vertex 26.01 31.8756 -124.541
      vertex 28 32.3659 -122.438
      vertex 26.01 32.3659 -122.438
    endloop
  endfacet
  facet normal 0 -0.973882 0.227054
    outer loop
      vertex 28 32.3659 -122.438
      vertex 26.01 31.8756 -124.541
      vertex 28 31.8756 -124.541
    endloop
  endfacet
  facet normal 0 -0.0327397 -0.999464
    outer loop
      vertex 26.01 0 -83
      vertex 28 2.1583 -83.0707
      vertex 28 0 -83
    endloop
  endfacet
  facet normal -0 -0.0327397 -0.999464
    outer loop
      vertex 28 2.1583 -83.0707
      vertex 26.01 0 -83
      vertex 26.01 2.1583 -83.0707
    endloop
  endfacet
  facet normal 0 -0.290345 0.956922
    outer loop
      vertex 26.01 10.6075 -147.249
      vertex 28 8.54103 -147.876
      vertex 28 10.6075 -147.249
    endloop
  endfacet
  facet normal 0 -0.290345 0.956922
    outer loop
      vertex 28 8.54103 -147.876
      vertex 26.01 10.6075 -147.249
      vertex 26.01 8.54103 -147.876
    endloop
  endfacet
  facet normal -0 0.290345 0.956922
    outer loop
      vertex 26.01 -8.54103 -147.876
      vertex 28 -10.6075 -147.249
      vertex 28 -8.54103 -147.876
    endloop
  endfacet
  facet normal 0 0.290345 0.956922
    outer loop
      vertex 28 -10.6075 -147.249
      vertex 26.01 -8.54103 -147.876
      vertex 26.01 -10.6075 -147.249
    endloop
  endfacet
  facet normal 0 0.730054 0.68339
    outer loop
      vertex 28 -23.3345 -139.335
      vertex 26.01 -24.8107 -137.758
      vertex 28 -24.8107 -137.758
    endloop
  endfacet
  facet normal 0 0.730054 0.68339
    outer loop
      vertex 26.01 -24.8107 -137.758
      vertex 28 -23.3345 -139.335
      vertex 26.01 -23.3345 -139.335
    endloop
  endfacet
  facet normal 0 0.935956 0.352117
    outer loop
      vertex 28 -30.488 -128.629
      vertex 26.01 -31.2487 -126.607
      vertex 28 -31.2487 -126.607
    endloop
  endfacet
  facet normal 0 0.935956 0.352117
    outer loop
      vertex 26.01 -31.2487 -126.607
      vertex 28 -30.488 -128.629
      vertex 26.01 -30.488 -128.629
    endloop
  endfacet
  facet normal 0 -0.683598 -0.729859
    outer loop
      vertex 26.01 21.7584 -91.1893
      vertex 28 23.3345 -92.6655
      vertex 28 21.7584 -91.1893
    endloop
  endfacet
  facet normal -0 -0.683598 -0.729859
    outer loop
      vertex 28 23.3345 -92.6655
      vertex 26.01 21.7584 -91.1893
      vertex 26.01 23.3345 -92.6655
    endloop
  endfacet
  facet normal 0 -0.995187 0.0979905
    outer loop
      vertex 26.01 32.7177 -120.307
      vertex 28 32.9293 -118.158
      vertex 26.01 32.9293 -118.158
    endloop
  endfacet
  facet normal 0 -0.995187 0.0979905
    outer loop
      vertex 28 32.9293 -118.158
      vertex 26.01 32.7177 -120.307
      vertex 28 32.7177 -120.307
    endloop
  endfacet
  facet normal 0 -0.881865 -0.471501
    outer loop
      vertex 26.01 29.5968 -101.404
      vertex 28 28.5788 -99.5
      vertex 26.01 28.5788 -99.5
    endloop
  endfacet
  facet normal 0 -0.881865 -0.471501
    outer loop
      vertex 28 28.5788 -99.5
      vertex 26.01 29.5968 -101.404
      vertex 28 29.5968 -101.404
    endloop
  endfacet
  facet normal -0 0.634405 0.773001
    outer loop
      vertex 26.01 -20.0891 -142.181
      vertex 28 -21.7584 -140.811
      vertex 28 -20.0891 -142.181
    endloop
  endfacet
  facet normal 0 0.634405 0.773001
    outer loop
      vertex 28 -21.7584 -140.811
      vertex 26.01 -20.0891 -142.181
      vertex 26.01 -21.7584 -140.811
    endloop
  endfacet
  facet normal 0 0.881865 0.471501
    outer loop
      vertex 28 -28.5788 -132.5
      vertex 26.01 -29.5968 -130.596
      vertex 28 -29.5968 -130.596
    endloop
  endfacet
  facet normal 0 0.881865 0.471501
    outer loop
      vertex 26.01 -29.5968 -130.596
      vertex 28 -28.5788 -132.5
      vertex 26.01 -28.5788 -132.5
    endloop
  endfacet
  facet normal 0 0.999464 0.0327442
    outer loop
      vertex 28 -32.9293 -118.158
      vertex 26.01 -33 -116
      vertex 28 -33 -116
    endloop
  endfacet
  facet normal 0 0.999464 0.0327442
    outer loop
      vertex 26.01 -33 -116
      vertex 28 -32.9293 -118.158
      vertex 26.01 -32.9293 -118.158
    endloop
  endfacet
  facet normal -0 0.226917 0.973914
    outer loop
      vertex 26.01 -6.43798 -148.366
      vertex 28 -8.54103 -147.876
      vertex 28 -6.43798 -148.366
    endloop
  endfacet
  facet normal 0 0.226917 0.973914
    outer loop
      vertex 28 -8.54103 -147.876
      vertex 26.01 -6.43798 -148.366
      vertex 26.01 -8.54103 -147.876
    endloop
  endfacet
  facet normal 0 -0.352377 0.935858
    outer loop
      vertex 26.01 12.6286 -146.488
      vertex 28 10.6075 -147.249
      vertex 28 12.6286 -146.488
    endloop
  endfacet
  facet normal 0 -0.352377 0.935858
    outer loop
      vertex 28 10.6075 -147.249
      vertex 26.01 12.6286 -146.488
      vertex 26.01 10.6075 -147.249
    endloop
  endfacet
  facet normal 0 0.0327397 -0.999464
    outer loop
      vertex 26.01 -2.1583 -83.0707
      vertex 28 0 -83
      vertex 28 -2.1583 -83.0707
    endloop
  endfacet
  facet normal 0 0.0327397 -0.999464
    outer loop
      vertex 28 0 -83
      vertex 26.01 -2.1583 -83.0707
      vertex 26.01 0 -83
    endloop
  endfacet
  facet normal 0 0.956955 -0.290235
    outer loop
      vertex 28 -31.8756 -107.459
      vertex 26.01 -31.2487 -105.392
      vertex 28 -31.2487 -105.392
    endloop
  endfacet
  facet normal 0 0.956955 -0.290235
    outer loop
      vertex 26.01 -31.2487 -105.392
      vertex 28 -31.8756 -107.459
      vertex 26.01 -31.8756 -107.459
    endloop
  endfacet
  facet normal -0 0.582224 0.813029
    outer loop
      vertex 26.01 -18.3338 -143.438
      vertex 28 -20.0891 -142.181
      vertex 28 -18.3338 -143.438
    endloop
  endfacet
  facet normal 0 0.582224 0.813029
    outer loop
      vertex 28 -20.0891 -142.181
      vertex 26.01 -18.3338 -143.438
      vertex 26.01 -20.0891 -142.181
    endloop
  endfacet
  facet normal 0 0.0979878 -0.995188
    outer loop
      vertex 26.01 -4.30736 -83.2823
      vertex 28 -2.1583 -83.0707
      vertex 28 -4.30736 -83.2823
    endloop
  endfacet
  facet normal 0 0.0979878 -0.995188
    outer loop
      vertex 28 -2.1583 -83.0707
      vertex 26.01 -4.30736 -83.2823
      vertex 26.01 -2.1583 -83.0707
    endloop
  endfacet
  facet normal 0 -0.412711 -0.910862
    outer loop
      vertex 26.01 12.6286 -85.512
      vertex 28 14.5955 -86.4032
      vertex 28 12.6286 -85.512
    endloop
  endfacet
  facet normal -0 -0.412711 -0.910862
    outer loop
      vertex 28 14.5955 -86.4032
      vertex 26.01 12.6286 -85.512
      vertex 26.01 14.5955 -86.4032
    endloop
  endfacet
  facet normal 0 0.849234 0.528016
    outer loop
      vertex 28 -27.4385 -134.334
      vertex 26.01 -28.5788 -132.5
      vertex 28 -28.5788 -132.5
    endloop
  endfacet
  facet normal 0 0.849234 0.528016
    outer loop
      vertex 26.01 -28.5788 -132.5
      vertex 28 -27.4385 -134.334
      vertex 26.01 -27.4385 -134.334
    endloop
  endfacet
  facet normal 0 -0.973882 -0.227054
    outer loop
      vertex 26.01 32.3659 -109.562
      vertex 28 31.8756 -107.459
      vertex 26.01 31.8756 -107.459
    endloop
  endfacet
  facet normal 0 -0.973882 -0.227054
    outer loop
      vertex 28 31.8756 -107.459
      vertex 26.01 32.3659 -109.562
      vertex 28 32.3659 -109.562
    endloop
  endfacet
  facet normal 0 -0.91087 0.412693
    outer loop
      vertex 26.01 29.5968 -130.596
      vertex 28 30.488 -128.629
      vertex 26.01 30.488 -128.629
    endloop
  endfacet
  facet normal 0 -0.91087 0.412693
    outer loop
      vertex 28 30.488 -128.629
      vertex 26.01 29.5968 -130.596
      vertex 28 29.5968 -130.596
    endloop
  endfacet
  facet normal 0 0.91087 -0.412693
    outer loop
      vertex 28 -30.488 -103.371
      vertex 26.01 -29.5968 -101.404
      vertex 28 -29.5968 -101.404
    endloop
  endfacet
  facet normal 0 0.91087 -0.412693
    outer loop
      vertex 26.01 -29.5968 -101.404
      vertex 28 -30.488 -103.371
      vertex 26.01 -30.488 -103.371
    endloop
  endfacet
  facet normal 0 0.582468 -0.812853
    outer loop
      vertex 26.01 -20.0891 -89.8193
      vertex 28 -18.3338 -88.5615
      vertex 28 -20.0891 -89.8193
    endloop
  endfacet
  facet normal 0 0.582468 -0.812853
    outer loop
      vertex 28 -18.3338 -88.5615
      vertex 26.01 -20.0891 -89.8193
      vertex 26.01 -18.3338 -88.5615
    endloop
  endfacet
  facet normal 0 -0.999464 -0.0327442
    outer loop
      vertex 26.01 33 -116
      vertex 28 32.9293 -113.842
      vertex 26.01 32.9293 -113.842
    endloop
  endfacet
  facet normal 0 -0.999464 -0.0327442
    outer loop
      vertex 28 32.9293 -113.842
      vertex 26.01 33 -116
      vertex 28 33 -116
    endloop
  endfacet
  facet normal 0 0.471405 -0.881917
    outer loop
      vertex 26.01 -16.5 -87.4212
      vertex 28 -14.5955 -86.4032
      vertex 28 -16.5 -87.4212
    endloop
  endfacet
  facet normal 0 0.471405 -0.881917
    outer loop
      vertex 28 -14.5955 -86.4032
      vertex 26.01 -16.5 -87.4212
      vertex 26.01 -14.5955 -86.4032
    endloop
  endfacet
  facet normal 0 -0.163001 0.986626
    outer loop
      vertex 26.01 6.43798 -148.366
      vertex 28 4.30736 -148.718
      vertex 28 6.43798 -148.366
    endloop
  endfacet
  facet normal 0 -0.163001 0.986626
    outer loop
      vertex 28 4.30736 -148.718
      vertex 26.01 6.43798 -148.366
      vertex 26.01 4.30736 -148.718
    endloop
  endfacet
  facet normal -0 0.163001 0.986626
    outer loop
      vertex 26.01 -4.30736 -148.718
      vertex 28 -6.43798 -148.366
      vertex 28 -4.30736 -148.718
    endloop
  endfacet
  facet normal 0 0.163001 0.986626
    outer loop
      vertex 28 -6.43798 -148.366
      vertex 26.01 -4.30736 -148.718
      vertex 26.01 -6.43798 -148.366
    endloop
  endfacet
  facet normal -0 0.471405 0.881917
    outer loop
      vertex 26.01 -14.5955 -145.597
      vertex 28 -16.5 -144.579
      vertex 28 -14.5955 -145.597
    endloop
  endfacet
  facet normal 0 0.471405 0.881917
    outer loop
      vertex 28 -16.5 -144.579
      vertex 26.01 -14.5955 -145.597
      vertex 26.01 -16.5 -144.579
    endloop
  endfacet
  facet normal 0 -0.582468 -0.812853
    outer loop
      vertex 26.01 18.3338 -88.5615
      vertex 28 20.0891 -89.8193
      vertex 28 18.3338 -88.5615
    endloop
  endfacet
  facet normal -0 -0.582468 -0.812853
    outer loop
      vertex 28 20.0891 -89.8193
      vertex 26.01 18.3338 -88.5615
      vertex 26.01 20.0891 -89.8193
    endloop
  endfacet
  facet normal 0 0.290261 -0.956948
    outer loop
      vertex 26.01 -10.6075 -84.7513
      vertex 28 -8.54103 -84.1245
      vertex 28 -10.6075 -84.7513
    endloop
  endfacet
  facet normal 0 0.290261 -0.956948
    outer loop
      vertex 28 -8.54103 -84.1245
      vertex 26.01 -10.6075 -84.7513
      vertex 26.01 -8.54103 -84.1245
    endloop
  endfacet
  facet normal 0 0.528058 -0.849208
    outer loop
      vertex 26.01 -18.3338 -88.5615
      vertex 28 -16.5 -87.4212
      vertex 28 -18.3338 -88.5615
    endloop
  endfacet
  facet normal 0 0.528058 -0.849208
    outer loop
      vertex 28 -16.5 -87.4212
      vertex 26.01 -18.3338 -88.5615
      vertex 26.01 -16.5 -87.4212
    endloop
  endfacet
  facet normal 0 -0.16291 -0.986641
    outer loop
      vertex 26.01 4.30736 -83.2823
      vertex 28 6.43798 -83.6341
      vertex 28 4.30736 -83.2823
    endloop
  endfacet
  facet normal -0 -0.16291 -0.986641
    outer loop
      vertex 28 6.43798 -83.6341
      vertex 26.01 4.30736 -83.2823
      vertex 26.01 6.43798 -83.6341
    endloop
  endfacet
  facet normal 0 -0.0979878 -0.995188
    outer loop
      vertex 26.01 2.1583 -83.0707
      vertex 28 4.30736 -83.2823
      vertex 28 2.1583 -83.0707
    endloop
  endfacet
  facet normal -0 -0.0979878 -0.995188
    outer loop
      vertex 28 4.30736 -83.2823
      vertex 26.01 2.1583 -83.0707
      vertex 26.01 4.30736 -83.2823
    endloop
  endfacet
  facet normal -0 0.352377 0.935858
    outer loop
      vertex 26.01 -10.6075 -147.249
      vertex 28 -12.6286 -146.488
      vertex 28 -10.6075 -147.249
    endloop
  endfacet
  facet normal 0 0.352377 0.935858
    outer loop
      vertex 28 -12.6286 -146.488
      vertex 26.01 -10.6075 -147.249
      vertex 26.01 -12.6286 -146.488
    endloop
  endfacet
  facet normal 0 0.772945 0.634473
    outer loop
      vertex 28 -24.8107 -137.758
      vertex 26.01 -26.1807 -136.089
      vertex 28 -26.1807 -136.089
    endloop
  endfacet
  facet normal 0 0.772945 0.634473
    outer loop
      vertex 26.01 -26.1807 -136.089
      vertex 28 -24.8107 -137.758
      vertex 26.01 -24.8107 -137.758
    endloop
  endfacet
  facet normal 0 0.812806 0.582534
    outer loop
      vertex 28 -26.1807 -136.089
      vertex 26.01 -27.4385 -134.334
      vertex 28 -27.4385 -134.334
    endloop
  endfacet
  facet normal 0 0.812806 0.582534
    outer loop
      vertex 26.01 -27.4385 -134.334
      vertex 28 -26.1807 -136.089
      vertex 26.01 -26.1807 -136.089
    endloop
  endfacet
  facet normal 0 0.986646 -0.162882
    outer loop
      vertex 28 -32.7177 -111.693
      vertex 26.01 -32.3659 -109.562
      vertex 28 -32.3659 -109.562
    endloop
  endfacet
  facet normal 0 0.986646 -0.162882
    outer loop
      vertex 26.01 -32.3659 -109.562
      vertex 28 -32.7177 -111.693
      vertex 26.01 -32.7177 -111.693
    endloop
  endfacet
  facet normal 0 0.773001 -0.634405
    outer loop
      vertex 28 -26.1807 -95.9109
      vertex 26.01 -24.8107 -94.2416
      vertex 28 -24.8107 -94.2416
    endloop
  endfacet
  facet normal 0 0.773001 -0.634405
    outer loop
      vertex 26.01 -24.8107 -94.2416
      vertex 28 -26.1807 -95.9109
      vertex 26.01 -26.1807 -95.9109
    endloop
  endfacet
  facet normal 0 0.16291 -0.986641
    outer loop
      vertex 26.01 -6.43798 -83.6341
      vertex 28 -4.30736 -83.2823
      vertex 28 -6.43798 -83.6341
    endloop
  endfacet
  facet normal 0 0.16291 -0.986641
    outer loop
      vertex 28 -4.30736 -83.2823
      vertex 26.01 -6.43798 -83.6341
      vertex 26.01 -4.30736 -83.2823
    endloop
  endfacet
  facet normal 0 0.973882 -0.227054
    outer loop
      vertex 28 -32.3659 -109.562
      vertex 26.01 -31.8756 -107.459
      vertex 28 -31.8756 -107.459
    endloop
  endfacet
  facet normal 0 0.973882 -0.227054
    outer loop
      vertex 26.01 -31.8756 -107.459
      vertex 28 -32.3659 -109.562
      vertex 26.01 -32.3659 -109.562
    endloop
  endfacet
  facet normal 0 -0.227093 -0.973873
    outer loop
      vertex 26.01 6.43798 -83.6341
      vertex 28 8.54103 -84.1245
      vertex 28 6.43798 -83.6341
    endloop
  endfacet
  facet normal -0 -0.227093 -0.973873
    outer loop
      vertex 28 8.54103 -84.1245
      vertex 26.01 6.43798 -83.6341
      vertex 26.01 8.54103 -84.1245
    endloop
  endfacet
  facet normal 0 0.995187 -0.0979905
    outer loop
      vertex 28 -32.9293 -113.842
      vertex 26.01 -32.7177 -111.693
      vertex 28 -32.7177 -111.693
    endloop
  endfacet
  facet normal 0 0.995187 -0.0979905
    outer loop
      vertex 26.01 -32.7177 -111.693
      vertex 28 -32.9293 -113.842
      vertex 26.01 -32.9293 -113.842
    endloop
  endfacet
  facet normal 0 -0.729859 -0.683598
    outer loop
      vertex 26.01 24.8107 -94.2416
      vertex 28 23.3345 -92.6655
      vertex 26.01 23.3345 -92.6655
    endloop
  endfacet
  facet normal 0 -0.729859 -0.683598
    outer loop
      vertex 28 23.3345 -92.6655
      vertex 26.01 24.8107 -94.2416
      vertex 28 24.8107 -94.2416
    endloop
  endfacet
  facet normal 0 0.412711 -0.910862
    outer loop
      vertex 26.01 -14.5955 -86.4032
      vertex 28 -12.6286 -85.512
      vertex 28 -14.5955 -86.4032
    endloop
  endfacet
  facet normal 0 0.412711 -0.910862
    outer loop
      vertex 28 -12.6286 -85.512
      vertex 26.01 -14.5955 -86.4032
      vertex 26.01 -12.6286 -85.512
    endloop
  endfacet
  facet normal 0 0.973882 0.227054
    outer loop
      vertex 28 -31.8756 -124.541
      vertex 26.01 -32.3659 -122.438
      vertex 28 -32.3659 -122.438
    endloop
  endfacet
  facet normal 0 0.973882 0.227054
    outer loop
      vertex 26.01 -32.3659 -122.438
      vertex 28 -31.8756 -124.541
      vertex 26.01 -31.8756 -124.541
    endloop
  endfacet
  facet normal 0 -0.352255 -0.935904
    outer loop
      vertex 26.01 10.6075 -84.7513
      vertex 28 12.6286 -85.512
      vertex 28 10.6075 -84.7513
    endloop
  endfacet
  facet normal -0 -0.352255 -0.935904
    outer loop
      vertex 28 12.6286 -85.512
      vertex 26.01 10.6075 -84.7513
      vertex 26.01 12.6286 -85.512
    endloop
  endfacet
  facet normal 0 -0.849208 -0.528058
    outer loop
      vertex 26.01 28.5788 -99.5
      vertex 28 27.4385 -97.6662
      vertex 26.01 27.4385 -97.6662
    endloop
  endfacet
  facet normal 0 -0.849208 -0.528058
    outer loop
      vertex 28 27.4385 -97.6662
      vertex 26.01 28.5788 -99.5
      vertex 28 28.5788 -99.5
    endloop
  endfacet
  facet normal 0 0.935898 -0.35227
    outer loop
      vertex 28 -31.2487 -105.392
      vertex 26.01 -30.488 -103.371
      vertex 28 -30.488 -103.371
    endloop
  endfacet
  facet normal 0 0.935898 -0.35227
    outer loop
      vertex 26.01 -30.488 -103.371
      vertex 28 -31.2487 -105.392
      vertex 26.01 -31.2487 -105.392
    endloop
  endfacet
  facet normal 0 0.812853 -0.582468
    outer loop
      vertex 28 -27.4385 -97.6662
      vertex 26.01 -26.1807 -95.9109
      vertex 28 -26.1807 -95.9109
    endloop
  endfacet
  facet normal 0 0.812853 -0.582468
    outer loop
      vertex 26.01 -26.1807 -95.9109
      vertex 28 -27.4385 -97.6662
      vertex 26.01 -27.4385 -97.6662
    endloop
  endfacet
  facet normal 0 0.881865 -0.471501
    outer loop
      vertex 28 -29.5968 -101.404
      vertex 26.01 -28.5788 -99.5
      vertex 28 -28.5788 -99.5
    endloop
  endfacet
  facet normal 0 0.881865 -0.471501
    outer loop
      vertex 26.01 -28.5788 -99.5
      vertex 28 -29.5968 -101.404
      vertex 26.01 -29.5968 -101.404
    endloop
  endfacet
  facet normal -1 0 0
    outer loop
      vertex 26.01 46 -190
      vertex 26.01 33 -116
      vertex 26.01 46 -42
    endloop
  endfacet
  facet normal -1 0 0
    outer loop
      vertex 26.01 46 -190
      vertex 26.01 32.9293 -118.158
      vertex 26.01 33 -116
    endloop
  endfacet
  facet normal -1 0 0
    outer loop
      vertex 26.01 46 -190
      vertex 26.01 32.7177 -120.307
      vertex 26.01 32.9293 -118.158
    endloop
  endfacet
  facet normal -1 0 0
    outer loop
      vertex 26.01 46 -190
      vertex 26.01 32.3659 -122.438
      vertex 26.01 32.7177 -120.307
    endloop
  endfacet
  facet normal -1 0 0
    outer loop
      vertex 26.01 46 -190
      vertex 26.01 31.8756 -124.541
      vertex 26.01 32.3659 -122.438
    endloop
  endfacet
  facet normal -1 0 0
    outer loop
      vertex 26.01 46 -190
      vertex 26.01 31.2487 -126.607
      vertex 26.01 31.8756 -124.541
    endloop
  endfacet
  facet normal -1 0 0
    outer loop
      vertex 26.01 46 -190
      vertex 26.01 30.488 -128.629
      vertex 26.01 31.2487 -126.607
    endloop
  endfacet
  facet normal -1 0 0
    outer loop
      vertex 26.01 46 -190
      vertex 26.01 29.5968 -130.596
      vertex 26.01 30.488 -128.629
    endloop
  endfacet
  facet normal -1 0 0
    outer loop
      vertex 26.01 46 -190
      vertex 26.01 28.5788 -132.5
      vertex 26.01 29.5968 -130.596
    endloop
  endfacet
  facet normal -1 0 0
    outer loop
      vertex 26.01 46 -190
      vertex 26.01 27.4385 -134.334
      vertex 26.01 28.5788 -132.5
    endloop
  endfacet
  facet normal -1 0 0
    outer loop
      vertex 26.01 46 -190
      vertex 26.01 26.1807 -136.089
      vertex 26.01 27.4385 -134.334
    endloop
  endfacet
  facet normal -1 0 0
    outer loop
      vertex 26.01 46 -190
      vertex 26.01 24.8107 -137.758
      vertex 26.01 26.1807 -136.089
    endloop
  endfacet
  facet normal -1 0 0
    outer loop
      vertex 26.01 46 -190
      vertex 26.01 23.3345 -139.335
      vertex 26.01 24.8107 -137.758
    endloop
  endfacet
  facet normal -1 0 0
    outer loop
      vertex 26.01 46 -190
      vertex 26.01 21.7584 -140.811
      vertex 26.01 23.3345 -139.335
    endloop
  endfacet
  facet normal -1 0 0
    outer loop
      vertex 26.01 46 -190
      vertex 26.01 20.0891 -142.181
      vertex 26.01 21.7584 -140.811
    endloop
  endfacet
  facet normal -1 0 0
    outer loop
      vertex 26.01 46 -190
      vertex 26.01 18.3338 -143.438
      vertex 26.01 20.0891 -142.181
    endloop
  endfacet
  facet normal -1 0 0
    outer loop
      vertex 26.01 46 -190
      vertex 26.01 16.5 -144.579
      vertex 26.01 18.3338 -143.438
    endloop
  endfacet
  facet normal -1 0 0
    outer loop
      vertex 26.01 46 -190
      vertex 26.01 14.5955 -145.597
      vertex 26.01 16.5 -144.579
    endloop
  endfacet
  facet normal -1 0 0
    outer loop
      vertex 26.01 46 -190
      vertex 26.01 12.6286 -146.488
      vertex 26.01 14.5955 -145.597
    endloop
  endfacet
  facet normal -1 0 0
    outer loop
      vertex 26.01 46 -190
      vertex 26.01 10.6075 -147.249
      vertex 26.01 12.6286 -146.488
    endloop
  endfacet
  facet normal -1 0 0
    outer loop
      vertex 26.01 46 -190
      vertex 26.01 8.54103 -147.876
      vertex 26.01 10.6075 -147.249
    endloop
  endfacet
  facet normal -1 0 0
    outer loop
      vertex 26.01 46 -190
      vertex 26.01 6.43798 -148.366
      vertex 26.01 8.54103 -147.876
    endloop
  endfacet
  facet normal -1 0 0
    outer loop
      vertex 26.01 46 -190
      vertex 26.01 4.30736 -148.718
      vertex 26.01 6.43798 -148.366
    endloop
  endfacet
  facet normal -1 0 0
    outer loop
      vertex 26.01 46 -190
      vertex 26.01 2.1583 -148.929
      vertex 26.01 4.30736 -148.718
    endloop
  endfacet
  facet normal -1 0 0
    outer loop
      vertex 26.01 46 -190
      vertex 26.01 0 -149
      vertex 26.01 2.1583 -148.929
    endloop
  endfacet
  facet normal -1 0 0
    outer loop
      vertex 26.01 -46 -190
      vertex 26.01 0 -149
      vertex 26.01 46 -190
    endloop
  endfacet
  facet normal -1 -0 0
    outer loop
      vertex 26.01 0 -149
      vertex 26.01 -46 -190
      vertex 26.01 -2.1583 -148.929
    endloop
  endfacet
  facet normal -1 -0 0
    outer loop
      vertex 26.01 -2.1583 -148.929
      vertex 26.01 -46 -190
      vertex 26.01 -4.30736 -148.718
    endloop
  endfacet
  facet normal -1 -0 0
    outer loop
      vertex 26.01 -4.30736 -148.718
      vertex 26.01 -46 -190
      vertex 26.01 -6.43798 -148.366
    endloop
  endfacet
  facet normal -1 -0 0
    outer loop
      vertex 26.01 -6.43798 -148.366
      vertex 26.01 -46 -190
      vertex 26.01 -8.54103 -147.876
    endloop
  endfacet
  facet normal -1 -0 0
    outer loop
      vertex 26.01 -8.54103 -147.876
      vertex 26.01 -46 -190
      vertex 26.01 -10.6075 -147.249
    endloop
  endfacet
  facet normal -1 -0 0
    outer loop
      vertex 26.01 -10.6075 -147.249
      vertex 26.01 -46 -190
      vertex 26.01 -12.6286 -146.488
    endloop
  endfacet
  facet normal -1 -0 0
    outer loop
      vertex 26.01 -12.6286 -146.488
      vertex 26.01 -46 -190
      vertex 26.01 -14.5955 -145.597
    endloop
  endfacet
  facet normal -1 -0 0
    outer loop
      vertex 26.01 -14.5955 -145.597
      vertex 26.01 -46 -190
      vertex 26.01 -16.5 -144.579
    endloop
  endfacet
  facet normal -1 -0 0
    outer loop
      vertex 26.01 -16.5 -144.579
      vertex 26.01 -46 -190
      vertex 26.01 -18.3338 -143.438
    endloop
  endfacet
  facet normal -1 -0 0
    outer loop
      vertex 26.01 -32.9293 -118.158
      vertex 26.01 -46 -190
      vertex 26.01 -33 -116
    endloop
  endfacet
  facet normal -1 -0 0
    outer loop
      vertex 26.01 -32.7177 -120.307
      vertex 26.01 -46 -190
      vertex 26.01 -32.9293 -118.158
    endloop
  endfacet
  facet normal -1 -0 0
    outer loop
      vertex 26.01 -32.3659 -122.438
      vertex 26.01 -46 -190
      vertex 26.01 -32.7177 -120.307
    endloop
  endfacet
  facet normal -1 -0 0
    outer loop
      vertex 26.01 -31.8756 -124.541
      vertex 26.01 -46 -190
      vertex 26.01 -32.3659 -122.438
    endloop
  endfacet
  facet normal -1 -0 0
    outer loop
      vertex 26.01 -31.2487 -126.607
      vertex 26.01 -46 -190
      vertex 26.01 -31.8756 -124.541
    endloop
  endfacet
  facet normal -1 -0 0
    outer loop
      vertex 26.01 -30.488 -128.629
      vertex 26.01 -46 -190
      vertex 26.01 -31.2487 -126.607
    endloop
  endfacet
  facet normal -1 -0 0
    outer loop
      vertex 26.01 -29.5968 -130.596
      vertex 26.01 -46 -190
      vertex 26.01 -30.488 -128.629
    endloop
  endfacet
  facet normal -1 -0 0
    outer loop
      vertex 26.01 -28.5788 -132.5
      vertex 26.01 -46 -190
      vertex 26.01 -29.5968 -130.596
    endloop
  endfacet
  facet normal -1 -0 0
    outer loop
      vertex 26.01 -27.4385 -134.334
      vertex 26.01 -46 -190
      vertex 26.01 -28.5788 -132.5
    endloop
  endfacet
  facet normal -1 -0 0
    outer loop
      vertex 26.01 -26.1807 -136.089
      vertex 26.01 -46 -190
      vertex 26.01 -27.4385 -134.334
    endloop
  endfacet
  facet normal -1 -0 0
    outer loop
      vertex 26.01 -24.8107 -137.758
      vertex 26.01 -46 -190
      vertex 26.01 -26.1807 -136.089
    endloop
  endfacet
  facet normal -1 -0 0
    outer loop
      vertex 26.01 -23.3345 -139.335
      vertex 26.01 -46 -190
      vertex 26.01 -24.8107 -137.758
    endloop
  endfacet
  facet normal -1 -0 0
    outer loop
      vertex 26.01 -21.7584 -140.811
      vertex 26.01 -46 -190
      vertex 26.01 -23.3345 -139.335
    endloop
  endfacet
  facet normal -1 -0 0
    outer loop
      vertex 26.01 -20.0891 -142.181
      vertex 26.01 -46 -190
      vertex 26.01 -21.7584 -140.811
    endloop
  endfacet
  facet normal -1 -0 0
    outer loop
      vertex 26.01 -18.3338 -143.438
      vertex 26.01 -46 -190
      vertex 26.01 -20.0891 -142.181
    endloop
  endfacet
  facet normal -1 0 0
    outer loop
      vertex 26.01 32.9293 -113.842
      vertex 26.01 46 -42
      vertex 26.01 33 -116
    endloop
  endfacet
  facet normal -1 0 0
    outer loop
      vertex 26.01 32.7177 -111.693
      vertex 26.01 46 -42
      vertex 26.01 32.9293 -113.842
    endloop
  endfacet
  facet normal -1 0 0
    outer loop
      vertex 26.01 32.3659 -109.562
      vertex 26.01 46 -42
      vertex 26.01 32.7177 -111.693
    endloop
  endfacet
  facet normal -1 0 0
    outer loop
      vertex 26.01 31.8756 -107.459
      vertex 26.01 46 -42
      vertex 26.01 32.3659 -109.562
    endloop
  endfacet
  facet normal -1 0 0
    outer loop
      vertex 26.01 31.2487 -105.392
      vertex 26.01 46 -42
      vertex 26.01 31.8756 -107.459
    endloop
  endfacet
  facet normal -1 0 0
    outer loop
      vertex 26.01 30.488 -103.371
      vertex 26.01 46 -42
      vertex 26.01 31.2487 -105.392
    endloop
  endfacet
  facet normal -1 0 0
    outer loop
      vertex 26.01 29.5968 -101.404
      vertex 26.01 46 -42
      vertex 26.01 30.488 -103.371
    endloop
  endfacet
  facet normal -1 0 0
    outer loop
      vertex 26.01 28.5788 -99.5
      vertex 26.01 46 -42
      vertex 26.01 29.5968 -101.404
    endloop
  endfacet
  facet normal -1 0 0
    outer loop
      vertex 26.01 27.4385 -97.6662
      vertex 26.01 46 -42
      vertex 26.01 28.5788 -99.5
    endloop
  endfacet
  facet normal -1 0 0
    outer loop
      vertex 26.01 26.1807 -95.9109
      vertex 26.01 46 -42
      vertex 26.01 27.4385 -97.6662
    endloop
  endfacet
  facet normal -1 0 0
    outer loop
      vertex 26.01 24.8107 -94.2416
      vertex 26.01 46 -42
      vertex 26.01 26.1807 -95.9109
    endloop
  endfacet
  facet normal -1 0 0
    outer loop
      vertex 26.01 23.3345 -92.6655
      vertex 26.01 46 -42
      vertex 26.01 24.8107 -94.2416
    endloop
  endfacet
  facet normal -1 0 0
    outer loop
      vertex 26.01 21.7584 -91.1893
      vertex 26.01 46 -42
      vertex 26.01 23.3345 -92.6655
    endloop
  endfacet
  facet normal -1 0 0
    outer loop
      vertex 26.01 20.0891 -89.8193
      vertex 26.01 46 -42
      vertex 26.01 21.7584 -91.1893
    endloop
  endfacet
  facet normal -1 0 0
    outer loop
      vertex 26.01 18.3338 -88.5615
      vertex 26.01 46 -42
      vertex 26.01 20.0891 -89.8193
    endloop
  endfacet
  facet normal -1 0 0
    outer loop
      vertex 26.01 16.5 -87.4212
      vertex 26.01 46 -42
      vertex 26.01 18.3338 -88.5615
    endloop
  endfacet
  facet normal -1 0 0
    outer loop
      vertex 26.01 14.5955 -86.4032
      vertex 26.01 46 -42
      vertex 26.01 16.5 -87.4212
    endloop
  endfacet
  facet normal -1 0 0
    outer loop
      vertex 26.01 12.6286 -85.512
      vertex 26.01 46 -42
      vertex 26.01 14.5955 -86.4032
    endloop
  endfacet
  facet normal -1 0 0
    outer loop
      vertex 26.01 10.6075 -84.7513
      vertex 26.01 46 -42
      vertex 26.01 12.6286 -85.512
    endloop
  endfacet
  facet normal -1 0 0
    outer loop
      vertex 26.01 8.54103 -84.1245
      vertex 26.01 46 -42
      vertex 26.01 10.6075 -84.7513
    endloop
  endfacet
  facet normal -1 0 0
    outer loop
      vertex 26.01 6.43798 -83.6341
      vertex 26.01 46 -42
      vertex 26.01 8.54103 -84.1245
    endloop
  endfacet
  facet normal -1 0 0
    outer loop
      vertex 26.01 4.30736 -83.2823
      vertex 26.01 46 -42
      vertex 26.01 6.43798 -83.6341
    endloop
  endfacet
  facet normal -1 0 0
    outer loop
      vertex 26.01 2.1583 -83.0707
      vertex 26.01 46 -42
      vertex 26.01 4.30736 -83.2823
    endloop
  endfacet
  facet normal -1 0 0
    outer loop
      vertex 26.01 0 -83
      vertex 26.01 46 -42
      vertex 26.01 2.1583 -83.0707
    endloop
  endfacet
  facet normal -1 0 0
    outer loop
      vertex 26.01 -46 -42
      vertex 26.01 0 -83
      vertex 26.01 -2.1583 -83.0707
    endloop
  endfacet
  facet normal -1 0 0
    outer loop
      vertex 26.01 -46 -42
      vertex 26.01 -2.1583 -83.0707
      vertex 26.01 -4.30736 -83.2823
    endloop
  endfacet
  facet normal -1 0 0
    outer loop
      vertex 26.01 -46 -42
      vertex 26.01 -4.30736 -83.2823
      vertex 26.01 -6.43798 -83.6341
    endloop
  endfacet
  facet normal -1 0 0
    outer loop
      vertex 26.01 -46 -42
      vertex 26.01 -6.43798 -83.6341
      vertex 26.01 -8.54103 -84.1245
    endloop
  endfacet
  facet normal -1 0 0
    outer loop
      vertex 26.01 -46 -42
      vertex 26.01 -8.54103 -84.1245
      vertex 26.01 -10.6075 -84.7513
    endloop
  endfacet
  facet normal -1 0 0
    outer loop
      vertex 26.01 -46 -42
      vertex 26.01 -10.6075 -84.7513
      vertex 26.01 -12.6286 -85.512
    endloop
  endfacet
  facet normal -1 0 0
    outer loop
      vertex 26.01 -46 -42
      vertex 26.01 -12.6286 -85.512
      vertex 26.01 -14.5955 -86.4032
    endloop
  endfacet
  facet normal -1 0 0
    outer loop
      vertex 26.01 -46 -42
      vertex 26.01 -14.5955 -86.4032
      vertex 26.01 -16.5 -87.4212
    endloop
  endfacet
  facet normal -1 0 0
    outer loop
      vertex 26.01 -46 -42
      vertex 26.01 -16.5 -87.4212
      vertex 26.01 -18.3338 -88.5615
    endloop
  endfacet
  facet normal -1 0 0
    outer loop
      vertex 26.01 -46 -42
      vertex 26.01 -18.3338 -88.5615
      vertex 26.01 -20.0891 -89.8193
    endloop
  endfacet
  facet normal -1 0 0
    outer loop
      vertex 26.01 -46 -42
      vertex 26.01 -33 -116
      vertex 26.01 -46 -190
    endloop
  endfacet
  facet normal -1 0 0
    outer loop
      vertex 26.01 -33 -116
      vertex 26.01 -46 -42
      vertex 26.01 -32.9293 -113.842
    endloop
  endfacet
  facet normal -1 0 0
    outer loop
      vertex 26.01 -32.9293 -113.842
      vertex 26.01 -46 -42
      vertex 26.01 -32.7177 -111.693
    endloop
  endfacet
  facet normal -1 0 0
    outer loop
      vertex 26.01 0 -83
      vertex 26.01 -46 -42
      vertex 26.01 46 -42
    endloop
  endfacet
  facet normal -1 0 0
    outer loop
      vertex 26.01 -21.7584 -91.1893
      vertex 26.01 -46 -42
      vertex 26.01 -20.0891 -89.8193
    endloop
  endfacet
  facet normal -1 0 0
    outer loop
      vertex 26.01 -23.3345 -92.6655
      vertex 26.01 -46 -42
      vertex 26.01 -21.7584 -91.1893
    endloop
  endfacet
  facet normal -1 0 0
    outer loop
      vertex 26.01 -24.8107 -94.2416
      vertex 26.01 -46 -42
      vertex 26.01 -23.3345 -92.6655
    endloop
  endfacet
  facet normal -1 0 0
    outer loop
      vertex 26.01 -26.1807 -95.9109
      vertex 26.01 -46 -42
      vertex 26.01 -24.8107 -94.2416
    endloop
  endfacet
  facet normal -1 0 0
    outer loop
      vertex 26.01 -27.4385 -97.6662
      vertex 26.01 -46 -42
      vertex 26.01 -26.1807 -95.9109
    endloop
  endfacet
  facet normal -1 0 0
    outer loop
      vertex 26.01 -28.5788 -99.5
      vertex 26.01 -46 -42
      vertex 26.01 -27.4385 -97.6662
    endloop
  endfacet
  facet normal -1 0 0
    outer loop
      vertex 26.01 -29.5968 -101.404
      vertex 26.01 -46 -42
      vertex 26.01 -28.5788 -99.5
    endloop
  endfacet
  facet normal -1 0 0
    outer loop
      vertex 26.01 -30.488 -103.371
      vertex 26.01 -46 -42
      vertex 26.01 -29.5968 -101.404
    endloop
  endfacet
  facet normal -1 0 0
    outer loop
      vertex 26.01 -31.2487 -105.392
      vertex 26.01 -46 -42
      vertex 26.01 -30.488 -103.371
    endloop
  endfacet
  facet normal -1 0 0
    outer loop
      vertex 26.01 -31.8756 -107.459
      vertex 26.01 -46 -42
      vertex 26.01 -31.2487 -105.392
    endloop
  endfacet
  facet normal -1 0 0
    outer loop
      vertex 26.01 -32.3659 -109.562
      vertex 26.01 -46 -42
      vertex 26.01 -31.8756 -107.459
    endloop
  endfacet
  facet normal -1 0 0
    outer loop
      vertex 26.01 -32.7177 -111.693
      vertex 26.01 -46 -42
      vertex 26.01 -32.3659 -109.562
    endloop
  endfacet
endsolid OpenSCAD_Model
