solid OpenSCAD_Model
  facet normal -0.980777 0.19513 0
    outer loop
      vertex 13 -30 -190
      vertex 13.1142 -29.426 -42
      vertex 13.1142 -29.426 -190
    endloop
  endfacet
  facet normal -0.980777 0.19513 0
    outer loop
      vertex 13.1142 -29.426 -42
      vertex 13 -30 -190
      vertex 13 -30 -42
    endloop
  endfacet
  facet normal 0.831551 0.555449 0
    outer loop
      vertex 15.8858 -29.426 -42
      vertex 15.5607 -28.9393 -190
      vertex 15.5607 -28.9393 -42
    endloop
  endfacet
  facet normal 0.831551 0.555449 0
    outer loop
      vertex 15.5607 -28.9393 -190
      vertex 15.8858 -29.426 -42
      vertex 15.8858 -29.426 -190
    endloop
  endfacet
  facet normal 0.980777 0.19513 0
    outer loop
      vertex 16 -30 -42
      vertex 15.8858 -29.426 -190
      vertex 15.8858 -29.426 -42
    endloop
  endfacet
  facet normal 0.980777 0.19513 0
    outer loop
      vertex 15.8858 -29.426 -190
      vertex 16 -30 -42
      vertex 16 -30 -190
    endloop
  endfacet
  facet normal -0.831551 0.555449 0
    outer loop
      vertex 13.1142 -29.426 -190
      vertex 13.4393 -28.9393 -42
      vertex 13.4393 -28.9393 -190
    endloop
  endfacet
  facet normal -0.831551 0.555449 0
    outer loop
      vertex 13.4393 -28.9393 -42
      vertex 13.1142 -29.426 -190
      vertex 13.1142 -29.426 -42
    endloop
  endfacet
  facet normal -0.19513 -0.980777 0
    outer loop
      vertex 13.926 -31.3858 -190
      vertex 14.5 -31.5 -42
      vertex 13.926 -31.3858 -42
    endloop
  endfacet
  facet normal -0.19513 -0.980777 -0
    outer loop
      vertex 14.5 -31.5 -42
      vertex 13.926 -31.3858 -190
      vertex 14.5 -31.5 -190
    endloop
  endfacet
  facet normal 0.980777 -0.19513 0
    outer loop
      vertex 15.8858 -30.574 -42
      vertex 16 -30 -190
      vertex 16 -30 -42
    endloop
  endfacet
  facet normal 0.980777 -0.19513 0
    outer loop
      vertex 16 -30 -190
      vertex 15.8858 -30.574 -42
      vertex 15.8858 -30.574 -190
    endloop
  endfacet
  facet normal 0.19513 0.980777 -0
    outer loop
      vertex 15.074 -28.6142 -190
      vertex 14.5 -28.5 -42
      vertex 15.074 -28.6142 -42
    endloop
  endfacet
  facet normal 0.19513 0.980777 0
    outer loop
      vertex 14.5 -28.5 -42
      vertex 15.074 -28.6142 -190
      vertex 14.5 -28.5 -190
    endloop
  endfacet
  facet normal 0.555449 -0.831551 0
    outer loop
      vertex 15.074 -31.3858 -190
      vertex 15.5607 -31.0607 -42
      vertex 15.074 -31.3858 -42
    endloop
  endfacet
  facet normal 0.555449 -0.831551 0
    outer loop
      vertex 15.5607 -31.0607 -42
      vertex 15.074 -31.3858 -190
      vertex 15.5607 -31.0607 -190
    endloop
  endfacet
  facet normal 0.19513 -0.980777 0
    outer loop
      vertex 14.5 -31.5 -190
      vertex 15.074 -31.3858 -42
      vertex 14.5 -31.5 -42
    endloop
  endfacet
  facet normal 0.19513 -0.980777 0
    outer loop
      vertex 15.074 -31.3858 -42
      vertex 14.5 -31.5 -190
      vertex 15.074 -31.3858 -190
    endloop
  endfacet
  facet normal -0.555449 0.831551 0
    outer loop
      vertex 13.926 -28.6142 -190
      vertex 13.4393 -28.9393 -42
      vertex 13.926 -28.6142 -42
    endloop
  endfacet
  facet normal -0.555449 0.831551 0
    outer loop
      vertex 13.4393 -28.9393 -42
      vertex 13.926 -28.6142 -190
      vertex 13.4393 -28.9393 -190
    endloop
  endfacet
  facet normal -0.19513 0.980777 0
    outer loop
      vertex 14.5 -28.5 -190
      vertex 13.926 -28.6142 -42
      vertex 14.5 -28.5 -42
    endloop
  endfacet
  facet normal -0.19513 0.980777 0
    outer loop
      vertex 13.926 -28.6142 -42
      vertex 14.5 -28.5 -190
      vertex 13.926 -28.6142 -190
    endloop
  endfacet
  facet normal 0.831551 -0.555449 0
    outer loop
      vertex 15.5607 -31.0607 -42
      vertex 15.8858 -30.574 -190
      vertex 15.8858 -30.574 -42
    endloop
  endfacet
  facet normal 0.831551 -0.555449 0
    outer loop
      vertex 15.8858 -30.574 -190
      vertex 15.5607 -31.0607 -42
      vertex 15.5607 -31.0607 -190
    endloop
  endfacet
  facet normal 0 0 1
    outer loop
      vertex 15.8858 -29.426 -42
      vertex 15.8858 -30.574 -42
      vertex 16 -30 -42
    endloop
  endfacet
  facet normal 0 0 1
    outer loop
      vertex 15.5607 -28.9393 -42
      vertex 15.8858 -30.574 -42
      vertex 15.8858 -29.426 -42
    endloop
  endfacet
  facet normal 0 0 1
    outer loop
      vertex 15.5607 -28.9393 -42
      vertex 15.5607 -31.0607 -42
      vertex 15.8858 -30.574 -42
    endloop
  endfacet
  facet normal 0 0 1
    outer loop
      vertex 15.074 -28.6142 -42
      vertex 15.5607 -31.0607 -42
      vertex 15.5607 -28.9393 -42
    endloop
  endfacet
  facet normal 0 0 1
    outer loop
      vertex 15.074 -28.6142 -42
      vertex 15.074 -31.3858 -42
      vertex 15.5607 -31.0607 -42
    endloop
  endfacet
  facet normal 0 0 1
    outer loop
      vertex 14.5 -28.5 -42
      vertex 15.074 -31.3858 -42
      vertex 15.074 -28.6142 -42
    endloop
  endfacet
  facet normal 0 0 1
    outer loop
      vertex 14.5 -28.5 -42
      vertex 14.5 -31.5 -42
      vertex 15.074 -31.3858 -42
    endloop
  endfacet
  facet normal -0 0 1
    outer loop
      vertex 13.926 -28.6142 -42
      vertex 14.5 -31.5 -42
      vertex 14.5 -28.5 -42
    endloop
  endfacet
  facet normal 0 0 1
    outer loop
      vertex 13.926 -28.6142 -42
      vertex 13.926 -31.3858 -42
      vertex 14.5 -31.5 -42
    endloop
  endfacet
  facet normal -0 0 1
    outer loop
      vertex 13.4393 -28.9393 -42
      vertex 13.926 -31.3858 -42
      vertex 13.926 -28.6142 -42
    endloop
  endfacet
  facet normal 0 0 1
    outer loop
      vertex 13.4393 -28.9393 -42
      vertex 13.4393 -31.0607 -42
      vertex 13.926 -31.3858 -42
    endloop
  endfacet
  facet normal -0 0 1
    outer loop
      vertex 13.1142 -29.426 -42
      vertex 13.4393 -31.0607 -42
      vertex 13.4393 -28.9393 -42
    endloop
  endfacet
  facet normal 0 0 1
    outer loop
      vertex 13.1142 -29.426 -42
      vertex 13.1142 -30.574 -42
      vertex 13.4393 -31.0607 -42
    endloop
  endfacet
  facet normal 0 -0 1
    outer loop
      vertex 13.1142 -30.574 -42
      vertex 13.1142 -29.426 -42
      vertex 13 -30 -42
    endloop
  endfacet
  facet normal 0.555449 0.831551 -0
    outer loop
      vertex 15.5607 -28.9393 -190
      vertex 15.074 -28.6142 -42
      vertex 15.5607 -28.9393 -42
    endloop
  endfacet
  facet normal 0.555449 0.831551 0
    outer loop
      vertex 15.074 -28.6142 -42
      vertex 15.5607 -28.9393 -190
      vertex 15.074 -28.6142 -190
    endloop
  endfacet
  facet normal -0.831551 -0.555449 0
    outer loop
      vertex 13.4393 -31.0607 -190
      vertex 13.1142 -30.574 -42
      vertex 13.1142 -30.574 -190
    endloop
  endfacet
  facet normal -0.831551 -0.555449 0
    outer loop
      vertex 13.1142 -30.574 -42
      vertex 13.4393 -31.0607 -190
      vertex 13.4393 -31.0607 -42
    endloop
  endfacet
  facet normal -0.980777 -0.19513 0
    outer loop
      vertex 13.1142 -30.574 -190
      vertex 13 -30 -42
      vertex 13 -30 -190
    endloop
  endfacet
  facet normal -0.980777 -0.19513 0
    outer loop
      vertex 13 -30 -42
      vertex 13.1142 -30.574 -190
      vertex 13.1142 -30.574 -42
    endloop
  endfacet
  facet normal 0 0 -1
    outer loop
      vertex 15.8858 -30.574 -190
      vertex 15.8858 -29.426 -190
      vertex 16 -30 -190
    endloop
  endfacet
  facet normal 0 0 -1
    outer loop
      vertex 15.5607 -31.0607 -190
      vertex 15.8858 -29.426 -190
      vertex 15.8858 -30.574 -190
    endloop
  endfacet
  facet normal 0 0 -1
    outer loop
      vertex 15.5607 -31.0607 -190
      vertex 15.5607 -28.9393 -190
      vertex 15.8858 -29.426 -190
    endloop
  endfacet
  facet normal 0 0 -1
    outer loop
      vertex 15.074 -31.3858 -190
      vertex 15.5607 -28.9393 -190
      vertex 15.5607 -31.0607 -190
    endloop
  endfacet
  facet normal 0 0 -1
    outer loop
      vertex 15.074 -31.3858 -190
      vertex 15.074 -28.6142 -190
      vertex 15.5607 -28.9393 -190
    endloop
  endfacet
  facet normal 0 0 -1
    outer loop
      vertex 14.5 -31.5 -190
      vertex 15.074 -28.6142 -190
      vertex 15.074 -31.3858 -190
    endloop
  endfacet
  facet normal 0 0 -1
    outer loop
      vertex 14.5 -31.5 -190
      vertex 14.5 -28.5 -190
      vertex 15.074 -28.6142 -190
    endloop
  endfacet
  facet normal 0 0 -1
    outer loop
      vertex 13.926 -31.3858 -190
      vertex 14.5 -28.5 -190
      vertex 14.5 -31.5 -190
    endloop
  endfacet
  facet normal 0 0 -1
    outer loop
      vertex 13.926 -31.3858 -190
      vertex 13.926 -28.6142 -190
      vertex 14.5 -28.5 -190
    endloop
  endfacet
  facet normal 0 0 -1
    outer loop
      vertex 13.4393 -31.0607 -190
      vertex 13.926 -28.6142 -190
      vertex 13.926 -31.3858 -190
    endloop
  endfacet
  facet normal 0 0 -1
    outer loop
      vertex 13.4393 -31.0607 -190
      vertex 13.4393 -28.9393 -190
      vertex 13.926 -28.6142 -190
    endloop
  endfacet
  facet normal 0 0 -1
    outer loop
      vertex 13.1142 -30.574 -190
      vertex 13.4393 -28.9393 -190
      vertex 13.4393 -31.0607 -190
    endloop
  endfacet
  facet normal 0 0 -1
    outer loop
      vertex 13.1142 -30.574 -190
      vertex 13.1142 -29.426 -190
      vertex 13.4393 -28.9393 -190
    endloop
  endfacet
  facet normal 0 -0 -1
    outer loop
      vertex 13.1142 -29.426 -190
      vertex 13.1142 -30.574 -190
      vertex 13 -30 -190
    endloop
  endfacet
  facet normal -0.555449 -0.831551 0
    outer loop
      vertex 13.4393 -31.0607 -190
      vertex 13.926 -31.3858 -42
      vertex 13.4393 -31.0607 -42
    endloop
  endfacet
  facet normal -0.555449 -0.831551 -0
    outer loop
      vertex 13.926 -31.3858 -42
      vertex 13.4393 -31.0607 -190
      vertex 13.926 -31.3858 -190
    endloop
  endfacet
  facet normal -0.19513 -0.980777 0
    outer loop
      vertex 13.926 28.6142 -190
      vertex 14.5 28.5 -42
      vertex 13.926 28.6142 -42
    endloop
  endfacet
  facet normal -0.19513 -0.980777 -0
    outer loop
      vertex 14.5 28.5 -42
      vertex 13.926 28.6142 -190
      vertex 14.5 28.5 -190
    endloop
  endfacet
  facet normal 0.831551 -0.555449 0
    outer loop
      vertex 15.5607 28.9393 -42
      vertex 15.8858 29.426 -190
      vertex 15.8858 29.426 -42
    endloop
  endfacet
  facet normal 0.831551 -0.555449 0
    outer loop
      vertex 15.8858 29.426 -190
      vertex 15.5607 28.9393 -42
      vertex 15.5607 28.9393 -190
    endloop
  endfacet
  facet normal 0.831551 0.555449 0
    outer loop
      vertex 15.8858 30.574 -42
      vertex 15.5607 31.0607 -190
      vertex 15.5607 31.0607 -42
    endloop
  endfacet
  facet normal 0.831551 0.555449 0
    outer loop
      vertex 15.5607 31.0607 -190
      vertex 15.8858 30.574 -42
      vertex 15.8858 30.574 -190
    endloop
  endfacet
  facet normal 0.980777 0.19513 0
    outer loop
      vertex 16 30 -42
      vertex 15.8858 30.574 -190
      vertex 15.8858 30.574 -42
    endloop
  endfacet
  facet normal 0.980777 0.19513 0
    outer loop
      vertex 15.8858 30.574 -190
      vertex 16 30 -42
      vertex 16 30 -190
    endloop
  endfacet
  facet normal 0.555449 0.831551 -0
    outer loop
      vertex 15.5607 31.0607 -190
      vertex 15.074 31.3858 -42
      vertex 15.5607 31.0607 -42
    endloop
  endfacet
  facet normal 0.555449 0.831551 0
    outer loop
      vertex 15.074 31.3858 -42
      vertex 15.5607 31.0607 -190
      vertex 15.074 31.3858 -190
    endloop
  endfacet
  facet normal 0.19513 0.980777 -0
    outer loop
      vertex 15.074 31.3858 -190
      vertex 14.5 31.5 -42
      vertex 15.074 31.3858 -42
    endloop
  endfacet
  facet normal 0.19513 0.980777 0
    outer loop
      vertex 14.5 31.5 -42
      vertex 15.074 31.3858 -190
      vertex 14.5 31.5 -190
    endloop
  endfacet
  facet normal -0.980777 -0.19513 0
    outer loop
      vertex 13.1142 29.426 -190
      vertex 13 30 -42
      vertex 13 30 -190
    endloop
  endfacet
  facet normal -0.980777 -0.19513 0
    outer loop
      vertex 13 30 -42
      vertex 13.1142 29.426 -190
      vertex 13.1142 29.426 -42
    endloop
  endfacet
  facet normal 0.555449 -0.831551 0
    outer loop
      vertex 15.074 28.6142 -190
      vertex 15.5607 28.9393 -42
      vertex 15.074 28.6142 -42
    endloop
  endfacet
  facet normal 0.555449 -0.831551 0
    outer loop
      vertex 15.5607 28.9393 -42
      vertex 15.074 28.6142 -190
      vertex 15.5607 28.9393 -190
    endloop
  endfacet
  facet normal -0.831551 0.555449 0
    outer loop
      vertex 13.1142 30.574 -190
      vertex 13.4393 31.0607 -42
      vertex 13.4393 31.0607 -190
    endloop
  endfacet
  facet normal -0.831551 0.555449 0
    outer loop
      vertex 13.4393 31.0607 -42
      vertex 13.1142 30.574 -190
      vertex 13.1142 30.574 -42
    endloop
  endfacet
  facet normal 0.19513 -0.980777 0
    outer loop
      vertex 14.5 28.5 -190
      vertex 15.074 28.6142 -42
      vertex 14.5 28.5 -42
    endloop
  endfacet
  facet normal 0.19513 -0.980777 0
    outer loop
      vertex 15.074 28.6142 -42
      vertex 14.5 28.5 -190
      vertex 15.074 28.6142 -190
    endloop
  endfacet
  facet normal -0.19513 0.980777 0
    outer loop
      vertex 14.5 31.5 -190
      vertex 13.926 31.3858 -42
      vertex 14.5 31.5 -42
    endloop
  endfacet
  facet normal -0.19513 0.980777 0
    outer loop
      vertex 13.926 31.3858 -42
      vertex 14.5 31.5 -190
      vertex 13.926 31.3858 -190
    endloop
  endfacet
  facet normal -0.555449 0.831551 0
    outer loop
      vertex 13.926 31.3858 -190
      vertex 13.4393 31.0607 -42
      vertex 13.926 31.3858 -42
    endloop
  endfacet
  facet normal -0.555449 0.831551 0
    outer loop
      vertex 13.4393 31.0607 -42
      vertex 13.926 31.3858 -190
      vertex 13.4393 31.0607 -190
    endloop
  endfacet
  facet normal 0.980777 -0.19513 0
    outer loop
      vertex 15.8858 29.426 -42
      vertex 16 30 -190
      vertex 16 30 -42
    endloop
  endfacet
  facet normal 0.980777 -0.19513 0
    outer loop
      vertex 16 30 -190
      vertex 15.8858 29.426 -42
      vertex 15.8858 29.426 -190
    endloop
  endfacet
  facet normal -0.980777 0.19513 0
    outer loop
      vertex 13 30 -190
      vertex 13.1142 30.574 -42
      vertex 13.1142 30.574 -190
    endloop
  endfacet
  facet normal -0.980777 0.19513 0
    outer loop
      vertex 13.1142 30.574 -42
      vertex 13 30 -190
      vertex 13 30 -42
    endloop
  endfacet
  facet normal -0.831551 -0.555449 0
    outer loop
      vertex 13.4393 28.9393 -190
      vertex 13.1142 29.426 -42
      vertex 13.1142 29.426 -190
    endloop
  endfacet
  facet normal -0.831551 -0.555449 0
    outer loop
      vertex 13.1142 29.426 -42
      vertex 13.4393 28.9393 -190
      vertex 13.4393 28.9393 -42
    endloop
  endfacet
  facet normal 0 0 1
    outer loop
      vertex 15.8858 30.574 -42
      vertex 15.8858 29.426 -42
      vertex 16 30 -42
    endloop
  endfacet
  facet normal 0 0 1
    outer loop
      vertex 15.5607 31.0607 -42
      vertex 15.8858 29.426 -42
      vertex 15.8858 30.574 -42
    endloop
  endfacet
  facet normal 0 0 1
    outer loop
      vertex 15.5607 31.0607 -42
      vertex 15.5607 28.9393 -42
      vertex 15.8858 29.426 -42
    endloop
  endfacet
  facet normal 0 0 1
    outer loop
      vertex 15.074 31.3858 -42
      vertex 15.5607 28.9393 -42
      vertex 15.5607 31.0607 -42
    endloop
  endfacet
  facet normal 0 0 1
    outer loop
      vertex 15.074 31.3858 -42
      vertex 15.074 28.6142 -42
      vertex 15.5607 28.9393 -42
    endloop
  endfacet
  facet normal 0 0 1
    outer loop
      vertex 14.5 31.5 -42
      vertex 15.074 28.6142 -42
      vertex 15.074 31.3858 -42
    endloop
  endfacet
  facet normal 0 0 1
    outer loop
      vertex 14.5 31.5 -42
      vertex 14.5 28.5 -42
      vertex 15.074 28.6142 -42
    endloop
  endfacet
  facet normal -0 0 1
    outer loop
      vertex 13.926 31.3858 -42
      vertex 14.5 28.5 -42
      vertex 14.5 31.5 -42
    endloop
  endfacet
  facet normal 0 0 1
    outer loop
      vertex 13.926 31.3858 -42
      vertex 13.926 28.6142 -42
      vertex 14.5 28.5 -42
    endloop
  endfacet
  facet normal -0 0 1
    outer loop
      vertex 13.4393 31.0607 -42
      vertex 13.926 28.6142 -42
      vertex 13.926 31.3858 -42
    endloop
  endfacet
  facet normal 0 0 1
    outer loop
      vertex 13.4393 31.0607 -42
      vertex 13.4393 28.9393 -42
      vertex 13.926 28.6142 -42
    endloop
  endfacet
  facet normal -0 0 1
    outer loop
      vertex 13.1142 30.574 -42
      vertex 13.4393 28.9393 -42
      vertex 13.4393 31.0607 -42
    endloop
  endfacet
  facet normal 0 0 1
    outer loop
      vertex 13.1142 30.574 -42
      vertex 13.1142 29.426 -42
      vertex 13.4393 28.9393 -42
    endloop
  endfacet
  facet normal 0 -0 1
    outer loop
      vertex 13.1142 29.426 -42
      vertex 13.1142 30.574 -42
      vertex 13 30 -42
    endloop
  endfacet
  facet normal -0.555449 -0.831551 0
    outer loop
      vertex 13.4393 28.9393 -190
      vertex 13.926 28.6142 -42
      vertex 13.4393 28.9393 -42
    endloop
  endfacet
  facet normal -0.555449 -0.831551 -0
    outer loop
      vertex 13.926 28.6142 -42
      vertex 13.4393 28.9393 -190
      vertex 13.926 28.6142 -190
    endloop
  endfacet
  facet normal 0 0 -1
    outer loop
      vertex 15.8858 29.426 -190
      vertex 15.8858 30.574 -190
      vertex 16 30 -190
    endloop
  endfacet
  facet normal 0 0 -1
    outer loop
      vertex 15.5607 28.9393 -190
      vertex 15.8858 30.574 -190
      vertex 15.8858 29.426 -190
    endloop
  endfacet
  facet normal 0 0 -1
    outer loop
      vertex 15.5607 28.9393 -190
      vertex 15.5607 31.0607 -190
      vertex 15.8858 30.574 -190
    endloop
  endfacet
  facet normal 0 0 -1
    outer loop
      vertex 15.074 28.6142 -190
      vertex 15.5607 31.0607 -190
      vertex 15.5607 28.9393 -190
    endloop
  endfacet
  facet normal 0 0 -1
    outer loop
      vertex 15.074 28.6142 -190
      vertex 15.074 31.3858 -190
      vertex 15.5607 31.0607 -190
    endloop
  endfacet
  facet normal 0 0 -1
    outer loop
      vertex 14.5 28.5 -190
      vertex 15.074 31.3858 -190
      vertex 15.074 28.6142 -190
    endloop
  endfacet
  facet normal 0 0 -1
    outer loop
      vertex 14.5 28.5 -190
      vertex 14.5 31.5 -190
      vertex 15.074 31.3858 -190
    endloop
  endfacet
  facet normal 0 0 -1
    outer loop
      vertex 13.926 28.6142 -190
      vertex 14.5 31.5 -190
      vertex 14.5 28.5 -190
    endloop
  endfacet
  facet normal 0 0 -1
    outer loop
      vertex 13.926 28.6142 -190
      vertex 13.926 31.3858 -190
      vertex 14.5 31.5 -190
    endloop
  endfacet
  facet normal 0 0 -1
    outer loop
      vertex 13.4393 28.9393 -190
      vertex 13.926 31.3858 -190
      vertex 13.926 28.6142 -190
    endloop
  endfacet
  facet normal 0 0 -1
    outer loop
      vertex 13.4393 28.9393 -190
      vertex 13.4393 31.0607 -190
      vertex 13.926 31.3858 -190
    endloop
  endfacet
  facet normal 0 0 -1
    outer loop
      vertex 13.1142 29.426 -190
      vertex 13.4393 31.0607 -190
      vertex 13.4393 28.9393 -190
    endloop
  endfacet
  facet normal 0 0 -1
    outer loop
      vertex 13.1142 29.426 -190
      vertex 13.1142 30.574 -190
      vertex 13.4393 31.0607 -190
    endloop
  endfacet
  facet normal 0 -0 -1
    outer loop
      vertex 13.1142 30.574 -190
      vertex 13.1142 29.426 -190
      vertex 13 30 -190
    endloop
  endfacet
  facet normal 1 -0 0
    outer loop
      vertex 17 -61 -42
      vertex 17 61 -48
      vertex 17 61 -42
    endloop
  endfacet
  facet normal 1 0 0
    outer loop
      vertex 17 61 -48
      vertex 17 -61 -42
      vertex 17 -61 -48
    endloop
  endfacet
  facet normal -0 0 1
    outer loop
      vertex 15.932 29.4068 -42
      vertex 16.05 -30 -42
      vertex 16.05 30 -42
    endloop
  endfacet
  facet normal 0 0 1
    outer loop
      vertex 15.932 29.4068 -42
      vertex 15.932 -29.4068 -42
      vertex 16.05 -30 -42
    endloop
  endfacet
  facet normal -0 0 1
    outer loop
      vertex 15.596 28.904 -42
      vertex 15.932 -29.4068 -42
      vertex 15.932 29.4068 -42
    endloop
  endfacet
  facet normal 0 0 1
    outer loop
      vertex 15.596 28.904 -42
      vertex 15.596 -28.904 -42
      vertex 15.932 -29.4068 -42
    endloop
  endfacet
  facet normal -0 0 1
    outer loop
      vertex 15.0932 28.568 -42
      vertex 15.596 -28.904 -42
      vertex 15.596 28.904 -42
    endloop
  endfacet
  facet normal 0 0 1
    outer loop
      vertex 15.0932 28.568 -42
      vertex 15.0932 -28.568 -42
      vertex 15.596 -28.904 -42
    endloop
  endfacet
  facet normal -0 0 1
    outer loop
      vertex 14.5 28.45 -42
      vertex 15.0932 -28.568 -42
      vertex 15.0932 28.568 -42
    endloop
  endfacet
  facet normal 0 0 1
    outer loop
      vertex 14.5 28.45 -42
      vertex 14.5 -28.45 -42
      vertex 15.0932 -28.568 -42
    endloop
  endfacet
  facet normal 0 0 1
    outer loop
      vertex 13.9068 28.568 -42
      vertex 14.5 -28.45 -42
      vertex 14.5 28.45 -42
    endloop
  endfacet
  facet normal 0 0 1
    outer loop
      vertex 13.9068 28.568 -42
      vertex 13.9068 -28.568 -42
      vertex 14.5 -28.45 -42
    endloop
  endfacet
  facet normal 0 0 1
    outer loop
      vertex 13.404 28.904 -42
      vertex 13.9068 -28.568 -42
      vertex 13.9068 28.568 -42
    endloop
  endfacet
  facet normal 0 0 1
    outer loop
      vertex 13.404 28.904 -42
      vertex 13.404 -28.904 -42
      vertex 13.9068 -28.568 -42
    endloop
  endfacet
  facet normal 0 0 1
    outer loop
      vertex 13.068 29.4068 -42
      vertex 13.404 -28.904 -42
      vertex 13.404 28.904 -42
    endloop
  endfacet
  facet normal 0 0 1
    outer loop
      vertex 13.068 29.4068 -42
      vertex 13.068 -29.4068 -42
      vertex 13.404 -28.904 -42
    endloop
  endfacet
  facet normal 0 0 1
    outer loop
      vertex 12.95 30 -42
      vertex 13.068 -29.4068 -42
      vertex 13.068 29.4068 -42
    endloop
  endfacet
  facet normal 0 0 1
    outer loop
      vertex 13.068 -29.4068 -42
      vertex 12.95 30 -42
      vertex 12.95 -30 -42
    endloop
  endfacet
  facet normal 0 0 1
    outer loop
      vertex 17 61 -42
      vertex 16.05 30 -42
      vertex 17 -61 -42
    endloop
  endfacet
  facet normal 0 0 1
    outer loop
      vertex 17 61 -42
      vertex 15.932 30.5932 -42
      vertex 16.05 30 -42
    endloop
  endfacet
  facet normal 0 0 1
    outer loop
      vertex 17 61 -42
      vertex 15.596 31.096 -42
      vertex 15.932 30.5932 -42
    endloop
  endfacet
  facet normal 0 0 1
    outer loop
      vertex 17 61 -42
      vertex 15.0932 31.432 -42
      vertex 15.596 31.096 -42
    endloop
  endfacet
  facet normal 0 0 1
    outer loop
      vertex 17 61 -42
      vertex 14.5 31.55 -42
      vertex 15.0932 31.432 -42
    endloop
  endfacet
  facet normal -0 0 1
    outer loop
      vertex 7 61 -42
      vertex 14.5 31.55 -42
      vertex 17 61 -42
    endloop
  endfacet
  facet normal 0 0 1
    outer loop
      vertex 14.5 31.55 -42
      vertex 7 61 -42
      vertex 13.9068 31.432 -42
    endloop
  endfacet
  facet normal 0 0 1
    outer loop
      vertex 13.9068 31.432 -42
      vertex 7 61 -42
      vertex 13.404 31.096 -42
    endloop
  endfacet
  facet normal 0 0 1
    outer loop
      vertex 13.404 31.096 -42
      vertex 7 61 -42
      vertex 13.068 30.5932 -42
    endloop
  endfacet
  facet normal 0 0 1
    outer loop
      vertex 12.95 30 -42
      vertex 7 61 -42
      vertex 12.95 -30 -42
    endloop
  endfacet
  facet normal 0 0 1
    outer loop
      vertex 13.068 30.5932 -42
      vertex 7 61 -42
      vertex 12.95 30 -42
    endloop
  endfacet
  facet normal -0 0 1
    outer loop
      vertex 16.05 -30 -42
      vertex 17 -61 -42
      vertex 16.05 30 -42
    endloop
  endfacet
  facet normal -0 0 1
    outer loop
      vertex 15.932 -30.5932 -42
      vertex 17 -61 -42
      vertex 16.05 -30 -42
    endloop
  endfacet
  facet normal -0 0 1
    outer loop
      vertex 15.596 -31.096 -42
      vertex 17 -61 -42
      vertex 15.932 -30.5932 -42
    endloop
  endfacet
  facet normal -0 0 1
    outer loop
      vertex 15.0932 -31.432 -42
      vertex 17 -61 -42
      vertex 15.596 -31.096 -42
    endloop
  endfacet
  facet normal -0 0 1
    outer loop
      vertex 14.5 -31.55 -42
      vertex 17 -61 -42
      vertex 15.0932 -31.432 -42
    endloop
  endfacet
  facet normal 0 0 1
    outer loop
      vertex 7 -61 -42
      vertex 14.5 -31.55 -42
      vertex 13.9068 -31.432 -42
    endloop
  endfacet
  facet normal 0 0 1
    outer loop
      vertex 7 -61 -42
      vertex 13.9068 -31.432 -42
      vertex 13.404 -31.096 -42
    endloop
  endfacet
  facet normal 0 0 1
    outer loop
      vertex 7 -61 -42
      vertex 13.404 -31.096 -42
      vertex 13.068 -30.5932 -42
    endloop
  endfacet
  facet normal 0 0 1
    outer loop
      vertex 7 -61 -42
      vertex 13.068 -30.5932 -42
      vertex 12.95 -30 -42
    endloop
  endfacet
  facet normal 0 0 1
    outer loop
      vertex 14.5 -31.55 -42
      vertex 7 -61 -42
      vertex 17 -61 -42
    endloop
  endfacet
  facet normal 0 0 1
    outer loop
      vertex 7 -61 -42
      vertex 12.95 -30 -42
      vertex 7 61 -42
    endloop
  endfacet
  facet normal 0 0 -1
    outer loop
      vertex 15.932 -29.4068 -48
      vertex 16.05 30 -48
      vertex 16.05 -30 -48
    endloop
  endfacet
  facet normal 0 0 -1
    outer loop
      vertex 15.932 -29.4068 -48
      vertex 15.932 29.4068 -48
      vertex 16.05 30 -48
    endloop
  endfacet
  facet normal 0 0 -1
    outer loop
      vertex 15.596 -28.904 -48
      vertex 15.932 29.4068 -48
      vertex 15.932 -29.4068 -48
    endloop
  endfacet
  facet normal 0 0 -1
    outer loop
      vertex 15.596 -28.904 -48
      vertex 15.596 28.904 -48
      vertex 15.932 29.4068 -48
    endloop
  endfacet
  facet normal 0 0 -1
    outer loop
      vertex 15.0932 -28.568 -48
      vertex 15.596 28.904 -48
      vertex 15.596 -28.904 -48
    endloop
  endfacet
  facet normal 0 0 -1
    outer loop
      vertex 15.0932 -28.568 -48
      vertex 15.0932 28.568 -48
      vertex 15.596 28.904 -48
    endloop
  endfacet
  facet normal 0 0 -1
    outer loop
      vertex 14.5 -28.45 -48
      vertex 15.0932 28.568 -48
      vertex 15.0932 -28.568 -48
    endloop
  endfacet
  facet normal 0 0 -1
    outer loop
      vertex 14.5 -28.45 -48
      vertex 14.5 28.45 -48
      vertex 15.0932 28.568 -48
    endloop
  endfacet
  facet normal 0 0 -1
    outer loop
      vertex 13.9068 -28.568 -48
      vertex 14.5 28.45 -48
      vertex 14.5 -28.45 -48
    endloop
  endfacet
  facet normal 0 0 -1
    outer loop
      vertex 13.9068 -28.568 -48
      vertex 13.9068 28.568 -48
      vertex 14.5 28.45 -48
    endloop
  endfacet
  facet normal 0 0 -1
    outer loop
      vertex 13.404 -28.904 -48
      vertex 13.9068 28.568 -48
      vertex 13.9068 -28.568 -48
    endloop
  endfacet
  facet normal 0 0 -1
    outer loop
      vertex 13.404 -28.904 -48
      vertex 13.404 28.904 -48
      vertex 13.9068 28.568 -48
    endloop
  endfacet
  facet normal 0 0 -1
    outer loop
      vertex 13.068 -29.4068 -48
      vertex 13.404 28.904 -48
      vertex 13.404 -28.904 -48
    endloop
  endfacet
  facet normal 0 0 -1
    outer loop
      vertex 13.068 -29.4068 -48
      vertex 13.068 29.4068 -48
      vertex 13.404 28.904 -48
    endloop
  endfacet
  facet normal 0 0 -1
    outer loop
      vertex 12.95 -30 -48
      vertex 13.068 29.4068 -48
      vertex 13.068 -29.4068 -48
    endloop
  endfacet
  facet normal -0 0 -1
    outer loop
      vertex 13.068 29.4068 -48
      vertex 12.95 -30 -48
      vertex 12.95 30 -48
    endloop
  endfacet
  facet normal 0 0 -1
    outer loop
      vertex 17 -61 -48
      vertex 16.05 -30 -48
      vertex 17 61 -48
    endloop
  endfacet
  facet normal 0 0 -1
    outer loop
      vertex 17 -61 -48
      vertex 15.932 -30.5932 -48
      vertex 16.05 -30 -48
    endloop
  endfacet
  facet normal 0 0 -1
    outer loop
      vertex 17 -61 -48
      vertex 15.596 -31.096 -48
      vertex 15.932 -30.5932 -48
    endloop
  endfacet
  facet normal 0 0 -1
    outer loop
      vertex 17 -61 -48
      vertex 15.0932 -31.432 -48
      vertex 15.596 -31.096 -48
    endloop
  endfacet
  facet normal 0 0 -1
    outer loop
      vertex 17 -61 -48
      vertex 14.5 -31.55 -48
      vertex 15.0932 -31.432 -48
    endloop
  endfacet
  facet normal 0 0 -1
    outer loop
      vertex 7 -61 -48
      vertex 14.5 -31.55 -48
      vertex 17 -61 -48
    endloop
  endfacet
  facet normal -0 0 -1
    outer loop
      vertex 14.5 -31.55 -48
      vertex 7 -61 -48
      vertex 13.9068 -31.432 -48
    endloop
  endfacet
  facet normal -0 0 -1
    outer loop
      vertex 13.9068 -31.432 -48
      vertex 7 -61 -48
      vertex 13.404 -31.096 -48
    endloop
  endfacet
  facet normal -0 0 -1
    outer loop
      vertex 13.404 -31.096 -48
      vertex 7 -61 -48
      vertex 13.068 -30.5932 -48
    endloop
  endfacet
  facet normal -0 0 -1
    outer loop
      vertex 12.95 -30 -48
      vertex 7 -61 -48
      vertex 12.95 30 -48
    endloop
  endfacet
  facet normal -0 0 -1
    outer loop
      vertex 13.068 -30.5932 -48
      vertex 7 -61 -48
      vertex 12.95 -30 -48
    endloop
  endfacet
  facet normal 0 0 -1
    outer loop
      vertex 16.05 30 -48
      vertex 17 61 -48
      vertex 16.05 -30 -48
    endloop
  endfacet
  facet normal 0 0 -1
    outer loop
      vertex 15.932 30.5932 -48
      vertex 17 61 -48
      vertex 16.05 30 -48
    endloop
  endfacet
  facet normal 0 0 -1
    outer loop
      vertex 15.596 31.096 -48
      vertex 17 61 -48
      vertex 15.932 30.5932 -48
    endloop
  endfacet
  facet normal 0 0 -1
    outer loop
      vertex 15.0932 31.432 -48
      vertex 17 61 -48
      vertex 15.596 31.096 -48
    endloop
  endfacet
  facet normal 0 0 -1
    outer loop
      vertex 14.5 31.55 -48
      vertex 17 61 -48
      vertex 15.0932 31.432 -48
    endloop
  endfacet
  facet normal 0 0 -1
    outer loop
      vertex 7 61 -48
      vertex 14.5 31.55 -48
      vertex 13.9068 31.432 -48
    endloop
  endfacet
  facet normal 0 0 -1
    outer loop
      vertex 7 61 -48
      vertex 13.9068 31.432 -48
      vertex 13.404 31.096 -48
    endloop
  endfacet
  facet normal 0 0 -1
    outer loop
      vertex 7 61 -48
      vertex 13.404 31.096 -48
      vertex 13.068 30.5932 -48
    endloop
  endfacet
  facet normal 0 0 -1
    outer loop
      vertex 7 61 -48
      vertex 13.068 30.5932 -48
      vertex 12.95 30 -48
    endloop
  endfacet
  facet normal 0 0 -1
    outer loop
      vertex 14.5 31.55 -48
      vertex 7 61 -48
      vertex 17 61 -48
    endloop
  endfacet
  facet normal 0 0 -1
    outer loop
      vertex 7 61 -48
      vertex 12.95 30 -48
      vertex 7 -61 -48
    endloop
  endfacet
  facet normal -1 0 0
    outer loop
      vertex 7 -61 -48
      vertex 7 61 -42
      vertex 7 61 -48
    endloop
  endfacet
  facet normal -1 -0 0
    outer loop
      vertex 7 61 -42
      vertex 7 -61 -48
      vertex 7 -61 -42
    endloop
  endfacet
  facet normal 0 1 -0
    outer loop
      vertex 17 61 -48
      vertex 7 61 -42
      vertex 17 61 -42
    endloop
  endfacet
  facet normal 0 1 0
    outer loop
      vertex 7 61 -42
      vertex 17 61 -48
      vertex 7 61 -48
    endloop
  endfacet
  facet normal 0 -1 0
    outer loop
      vertex 7 -61 -48
      vertex 17 -61 -42
      vertex 7 -61 -42
    endloop
  endfacet
  facet normal 0 -1 -0
    outer loop
      vertex 17 -61 -42
      vertex 7 -61 -48
      vertex 17 -61 -48
    endloop
  endfacet
  facet normal 1 -0 0
    outer loop
      vertex 17 -61 -184
      vertex 17 61 -190
      vertex 17 61 -184
    endloop
  endfacet
  facet normal 1 0 0
    outer loop
      vertex 17 61 -190
      vertex 17 -61 -184
      vertex 17 -61 -190
    endloop
  endfacet
  facet normal -0 0 1
    outer loop
      vertex 15.932 29.4068 -184
      vertex 16.05 -30 -184
      vertex 16.05 30 -184
    endloop
  endfacet
  facet normal 0 0 1
    outer loop
      vertex 15.932 29.4068 -184
      vertex 15.932 -29.4068 -184
      vertex 16.05 -30 -184
    endloop
  endfacet
  facet normal -0 0 1
    outer loop
      vertex 15.596 28.904 -184
      vertex 15.932 -29.4068 -184
      vertex 15.932 29.4068 -184
    endloop
  endfacet
  facet normal 0 0 1
    outer loop
      vertex 15.596 28.904 -184
      vertex 15.596 -28.904 -184
      vertex 15.932 -29.4068 -184
    endloop
  endfacet
  facet normal -0 0 1
    outer loop
      vertex 15.0932 28.568 -184
      vertex 15.596 -28.904 -184
      vertex 15.596 28.904 -184
    endloop
  endfacet
  facet normal 0 0 1
    outer loop
      vertex 15.0932 28.568 -184
      vertex 15.0932 -28.568 -184
      vertex 15.596 -28.904 -184
    endloop
  endfacet
  facet normal -0 0 1
    outer loop
      vertex 14.5 28.45 -184
      vertex 15.0932 -28.568 -184
      vertex 15.0932 28.568 -184
    endloop
  endfacet
  facet normal 0 0 1
    outer loop
      vertex 14.5 28.45 -184
      vertex 14.5 -28.45 -184
      vertex 15.0932 -28.568 -184
    endloop
  endfacet
  facet normal 0 0 1
    outer loop
      vertex 13.9068 28.568 -184
      vertex 14.5 -28.45 -184
      vertex 14.5 28.45 -184
    endloop
  endfacet
  facet normal 0 0 1
    outer loop
      vertex 13.9068 28.568 -184
      vertex 13.9068 -28.568 -184
      vertex 14.5 -28.45 -184
    endloop
  endfacet
  facet normal 0 0 1
    outer loop
      vertex -7 -30 -184
      vertex 13.9068 28.568 -184
      vertex 13.404 28.904 -184
    endloop
  endfacet
  facet normal 0 0 1
    outer loop
      vertex 13.9068 28.568 -184
      vertex -7 -30 -184
      vertex 13.9068 -28.568 -184
    endloop
  endfacet
  facet normal 0 0 1
    outer loop
      vertex -15 -30 -184
      vertex 13.404 28.904 -184
      vertex 13.068 29.4068 -184
    endloop
  endfacet
  facet normal 0 0 1
    outer loop
      vertex 13.9068 -28.568 -184
      vertex -7 -30 -184
      vertex 13.404 -28.904 -184
    endloop
  endfacet
  facet normal 0 0 1
    outer loop
      vertex -17 61 -184
      vertex 13.068 29.4068 -184
      vertex 12.95 30 -184
    endloop
  endfacet
  facet normal 0 0 1
    outer loop
      vertex 13.404 -28.904 -184
      vertex -7 -30 -184
      vertex 13.068 -29.4068 -184
    endloop
  endfacet
  facet normal 0 0 1
    outer loop
      vertex 17 61 -184
      vertex 16.05 30 -184
      vertex 17 -61 -184
    endloop
  endfacet
  facet normal 0 0 1
    outer loop
      vertex 17 61 -184
      vertex 15.932 30.5932 -184
      vertex 16.05 30 -184
    endloop
  endfacet
  facet normal 0 0 1
    outer loop
      vertex 17 61 -184
      vertex 15.596 31.096 -184
      vertex 15.932 30.5932 -184
    endloop
  endfacet
  facet normal 0 0 1
    outer loop
      vertex 17 61 -184
      vertex 15.0932 31.432 -184
      vertex 15.596 31.096 -184
    endloop
  endfacet
  facet normal 0 0 1
    outer loop
      vertex 17 61 -184
      vertex 14.5 31.55 -184
      vertex 15.0932 31.432 -184
    endloop
  endfacet
  facet normal 0 0 1
    outer loop
      vertex 17 61 -184
      vertex 13.9068 31.432 -184
      vertex 14.5 31.55 -184
    endloop
  endfacet
  facet normal 0 0 1
    outer loop
      vertex 17 61 -184
      vertex 13.404 31.096 -184
      vertex 13.9068 31.432 -184
    endloop
  endfacet
  facet normal -0 0 1
    outer loop
      vertex -17 61 -184
      vertex 13.404 31.096 -184
      vertex 17 61 -184
    endloop
  endfacet
  facet normal 0 0 1
    outer loop
      vertex 13.404 31.096 -184
      vertex -17 61 -184
      vertex 13.068 30.5932 -184
    endloop
  endfacet
  facet normal 0 0 1
    outer loop
      vertex 13.068 -29.4068 -184
      vertex -7 -30 -184
      vertex 12.95 -30 -184
    endloop
  endfacet
  facet normal 0 0 1
    outer loop
      vertex 13.068 30.5932 -184
      vertex -17 61 -184
      vertex 12.95 30 -184
    endloop
  endfacet
  facet normal 0 0 1
    outer loop
      vertex 13.068 29.4068 -184
      vertex -17 61 -184
      vertex -15 -30 -184
    endloop
  endfacet
  facet normal 0 0 1
    outer loop
      vertex -17 -61 -184
      vertex -15 -30 -184
      vertex -17 61 -184
    endloop
  endfacet
  facet normal 0 0 1
    outer loop
      vertex 13.404 28.904 -184
      vertex -15 -30 -184
      vertex -7 -30 -184
    endloop
  endfacet
  facet normal -0 0 1
    outer loop
      vertex 16.05 -30 -184
      vertex 17 -61 -184
      vertex 16.05 30 -184
    endloop
  endfacet
  facet normal -0 0 1
    outer loop
      vertex 15.932 -30.5932 -184
      vertex 17 -61 -184
      vertex 16.05 -30 -184
    endloop
  endfacet
  facet normal -0 0 1
    outer loop
      vertex 15.596 -31.096 -184
      vertex 17 -61 -184
      vertex 15.932 -30.5932 -184
    endloop
  endfacet
  facet normal -0 0 1
    outer loop
      vertex 15.0932 -31.432 -184
      vertex 17 -61 -184
      vertex 15.596 -31.096 -184
    endloop
  endfacet
  facet normal -0 0 1
    outer loop
      vertex 14.5 -31.55 -184
      vertex 17 -61 -184
      vertex 15.0932 -31.432 -184
    endloop
  endfacet
  facet normal 0 0 1
    outer loop
      vertex 13.9068 -31.432 -184
      vertex 17 -61 -184
      vertex 14.5 -31.55 -184
    endloop
  endfacet
  facet normal 0 0 1
    outer loop
      vertex -7 -36 -184
      vertex 13.9068 -31.432 -184
      vertex 13.404 -31.096 -184
    endloop
  endfacet
  facet normal 0 0 1
    outer loop
      vertex -7 -36 -184
      vertex 13.404 -31.096 -184
      vertex 13.068 -30.5932 -184
    endloop
  endfacet
  facet normal -0 0 1
    outer loop
      vertex -7 -30 -184
      vertex 13.068 -30.5932 -184
      vertex 12.95 -30 -184
    endloop
  endfacet
  facet normal 0 0 1
    outer loop
      vertex 13.068 -30.5932 -184
      vertex -7 -30 -184
      vertex -7 -36 -184
    endloop
  endfacet
  facet normal 0 0 1
    outer loop
      vertex 13.9068 -31.432 -184
      vertex -7 -36 -184
      vertex 17 -61 -184
    endloop
  endfacet
  facet normal 0 0 1
    outer loop
      vertex -17 -61 -184
      vertex -7 -36 -184
      vertex -15 -36 -184
    endloop
  endfacet
  facet normal 0 0 1
    outer loop
      vertex -7 -36 -184
      vertex -17 -61 -184
      vertex 17 -61 -184
    endloop
  endfacet
  facet normal 0 0 1
    outer loop
      vertex -15 -30 -184
      vertex -17 -61 -184
      vertex -15 -36 -184
    endloop
  endfacet
  facet normal 0 0 -1
    outer loop
      vertex 15.932 -29.4068 -190
      vertex 16.05 30 -190
      vertex 16.05 -30 -190
    endloop
  endfacet
  facet normal 0 0 -1
    outer loop
      vertex 15.932 -29.4068 -190
      vertex 15.932 29.4068 -190
      vertex 16.05 30 -190
    endloop
  endfacet
  facet normal 0 0 -1
    outer loop
      vertex 15.596 -28.904 -190
      vertex 15.932 29.4068 -190
      vertex 15.932 -29.4068 -190
    endloop
  endfacet
  facet normal 0 0 -1
    outer loop
      vertex 15.596 -28.904 -190
      vertex 15.596 28.904 -190
      vertex 15.932 29.4068 -190
    endloop
  endfacet
  facet normal 0 0 -1
    outer loop
      vertex 15.0932 -28.568 -190
      vertex 15.596 28.904 -190
      vertex 15.596 -28.904 -190
    endloop
  endfacet
  facet normal 0 0 -1
    outer loop
      vertex 15.0932 -28.568 -190
      vertex 15.0932 28.568 -190
      vertex 15.596 28.904 -190
    endloop
  endfacet
  facet normal 0 0 -1
    outer loop
      vertex 14.5 -28.45 -190
      vertex 15.0932 28.568 -190
      vertex 15.0932 -28.568 -190
    endloop
  endfacet
  facet normal 0 0 -1
    outer loop
      vertex 14.5 -28.45 -190
      vertex 14.5 28.45 -190
      vertex 15.0932 28.568 -190
    endloop
  endfacet
  facet normal 0 0 -1
    outer loop
      vertex 13.9068 -28.568 -190
      vertex 14.5 28.45 -190
      vertex 14.5 -28.45 -190
    endloop
  endfacet
  facet normal 0 0 -1
    outer loop
      vertex 13.9068 -28.568 -190
      vertex 13.9068 28.568 -190
      vertex 14.5 28.45 -190
    endloop
  endfacet
  facet normal 0 0 -1
    outer loop
      vertex 13.404 -28.904 -190
      vertex 13.9068 28.568 -190
      vertex 13.9068 -28.568 -190
    endloop
  endfacet
  facet normal 0 0 -1
    outer loop
      vertex 13.404 -28.904 -190
      vertex 13.404 28.904 -190
      vertex 13.9068 28.568 -190
    endloop
  endfacet
  facet normal 0 0 -1
    outer loop
      vertex 13.068 -29.4068 -190
      vertex 13.404 28.904 -190
      vertex 13.404 -28.904 -190
    endloop
  endfacet
  facet normal 0 0 -1
    outer loop
      vertex 13.068 -29.4068 -190
      vertex 13.068 29.4068 -190
      vertex 13.404 28.904 -190
    endloop
  endfacet
  facet normal 0 0 -1
    outer loop
      vertex -17 -61 -190
      vertex 13.068 -29.4068 -190
      vertex 12.95 -30 -190
    endloop
  endfacet
  facet normal -0 0 -1
    outer loop
      vertex 13.068 -29.4068 -190
      vertex -17 -61 -190
      vertex 13.068 29.4068 -190
    endloop
  endfacet
  facet normal 0 0 -1
    outer loop
      vertex 17 -61 -190
      vertex 16.05 -30 -190
      vertex 17 61 -190
    endloop
  endfacet
  facet normal 0 0 -1
    outer loop
      vertex 17 -61 -190
      vertex 15.932 -30.5932 -190
      vertex 16.05 -30 -190
    endloop
  endfacet
  facet normal 0 0 -1
    outer loop
      vertex 17 -61 -190
      vertex 15.596 -31.096 -190
      vertex 15.932 -30.5932 -190
    endloop
  endfacet
  facet normal 0 0 -1
    outer loop
      vertex 17 -61 -190
      vertex 15.0932 -31.432 -190
      vertex 15.596 -31.096 -190
    endloop
  endfacet
  facet normal 0 0 -1
    outer loop
      vertex 17 -61 -190
      vertex 14.5 -31.55 -190
      vertex 15.0932 -31.432 -190
    endloop
  endfacet
  facet normal 0 0 -1
    outer loop
      vertex 17 -61 -190
      vertex 13.9068 -31.432 -190
      vertex 14.5 -31.55 -190
    endloop
  endfacet
  facet normal 0 0 -1
    outer loop
      vertex 17 -61 -190
      vertex 13.404 -31.096 -190
      vertex 13.9068 -31.432 -190
    endloop
  endfacet
  facet normal 0 0 -1
    outer loop
      vertex -17 -61 -190
      vertex 13.404 -31.096 -190
      vertex 17 -61 -190
    endloop
  endfacet
  facet normal -0 0 -1
    outer loop
      vertex 13.404 -31.096 -190
      vertex -17 -61 -190
      vertex 13.068 -30.5932 -190
    endloop
  endfacet
  facet normal 0 0 -1
    outer loop
      vertex -17 61 -190
      vertex 13.068 29.4068 -190
      vertex -17 -61 -190
    endloop
  endfacet
  facet normal -0 0 -1
    outer loop
      vertex 13.068 -30.5932 -190
      vertex -17 -61 -190
      vertex 12.95 -30 -190
    endloop
  endfacet
  facet normal 0 0 -1
    outer loop
      vertex 16.05 30 -190
      vertex 17 61 -190
      vertex 16.05 -30 -190
    endloop
  endfacet
  facet normal 0 0 -1
    outer loop
      vertex 15.932 30.5932 -190
      vertex 17 61 -190
      vertex 16.05 30 -190
    endloop
  endfacet
  facet normal 0 0 -1
    outer loop
      vertex 15.596 31.096 -190
      vertex 17 61 -190
      vertex 15.932 30.5932 -190
    endloop
  endfacet
  facet normal 0 0 -1
    outer loop
      vertex 15.0932 31.432 -190
      vertex 17 61 -190
      vertex 15.596 31.096 -190
    endloop
  endfacet
  facet normal 0 0 -1
    outer loop
      vertex 14.5 31.55 -190
      vertex 17 61 -190
      vertex 15.0932 31.432 -190
    endloop
  endfacet
  facet normal 0 0 -1
    outer loop
      vertex 13.9068 31.432 -190
      vertex 17 61 -190
      vertex 14.5 31.55 -190
    endloop
  endfacet
  facet normal 0 0 -1
    outer loop
      vertex 13.404 31.096 -190
      vertex 17 61 -190
      vertex 13.9068 31.432 -190
    endloop
  endfacet
  facet normal 0 0 -1
    outer loop
      vertex -17 61 -190
      vertex 13.404 31.096 -190
      vertex 13.068 30.5932 -190
    endloop
  endfacet
  facet normal 0 0 -1
    outer loop
      vertex -17 61 -190
      vertex 13.068 30.5932 -190
      vertex 12.95 30 -190
    endloop
  endfacet
  facet normal 0 0 -1
    outer loop
      vertex 13.068 29.4068 -190
      vertex -17 61 -190
      vertex 12.95 30 -190
    endloop
  endfacet
  facet normal 0 0 -1
    outer loop
      vertex 13.404 31.096 -190
      vertex -17 61 -190
      vertex 17 61 -190
    endloop
  endfacet
  facet normal -1 0 0
    outer loop
      vertex -17 -61 -190
      vertex -17 61 -184
      vertex -17 61 -190
    endloop
  endfacet
  facet normal -1 -0 0
    outer loop
      vertex -17 61 -184
      vertex -17 -61 -190
      vertex -17 -61 -184
    endloop
  endfacet
  facet normal 0 1 -0
    outer loop
      vertex 17 61 -190
      vertex -17 61 -184
      vertex 17 61 -184
    endloop
  endfacet
  facet normal 0 1 0
    outer loop
      vertex -17 61 -184
      vertex 17 61 -190
      vertex -17 61 -190
    endloop
  endfacet
  facet normal 0 -1 0
    outer loop
      vertex -17 -61 -190
      vertex 17 -61 -184
      vertex -17 -61 -184
    endloop
  endfacet
  facet normal 0 -1 -0
    outer loop
      vertex 17 -61 -184
      vertex -17 -61 -190
      vertex 17 -61 -190
    endloop
  endfacet
  facet normal 1 0 0
    outer loop
      vertex -7 -35.3 -127.99
      vertex -7 -36 -127.99
      vertex -7 -35.3 -128
    endloop
  endfacet
  facet normal 1 0 0
    outer loop
      vertex -7 -32.8 -128
      vertex -7 -30 -127.99
      vertex -7 -32.8 -127.99
    endloop
  endfacet
  facet normal 1 0 0
    outer loop
      vertex -7 -30 -127.99
      vertex -7 -32.8 -128
      vertex -7 -30 -184
    endloop
  endfacet
  facet normal 1 0 0
    outer loop
      vertex -7 -36 -184
      vertex -7 -32.8 -128
      vertex -7 -35.3 -128
    endloop
  endfacet
  facet normal 1 0 0
    outer loop
      vertex -7 -36 -184
      vertex -7 -35.3 -128
      vertex -7 -36 -127.99
    endloop
  endfacet
  facet normal 1 0 0
    outer loop
      vertex -7 -32.8 -128
      vertex -7 -36 -184
      vertex -7 -30 -184
    endloop
  endfacet
  facet normal -0 0 1
    outer loop
      vertex -15 -30 -127.99
      vertex -7 -32.8 -127.99
      vertex -7 -30 -127.99
    endloop
  endfacet
  facet normal 0 0 1
    outer loop
      vertex -7 -32.8 -127.99
      vertex -15 -30 -127.99
      vertex -15 -32.8 -127.99
    endloop
  endfacet
  facet normal -0 0 1
    outer loop
      vertex -15 -35.3 -127.99
      vertex -7 -36 -127.99
      vertex -7 -35.3 -127.99
    endloop
  endfacet
  facet normal 0 0 1
    outer loop
      vertex -7 -36 -127.99
      vertex -15 -35.3 -127.99
      vertex -15 -36 -127.99
    endloop
  endfacet
  facet normal -1 0 0
    outer loop
      vertex -15 -30 -184
      vertex -15 -32.8 -128
      vertex -15 -30 -127.99
    endloop
  endfacet
  facet normal -1 0 0
    outer loop
      vertex -15 -36 -184
      vertex -15 -32.8 -128
      vertex -15 -30 -184
    endloop
  endfacet
  facet normal -1 -0 0
    outer loop
      vertex -15 -32.8 -128
      vertex -15 -36 -184
      vertex -15 -35.3 -128
    endloop
  endfacet
  facet normal -1 0 0
    outer loop
      vertex -15 -36 -127.99
      vertex -15 -35.3 -128
      vertex -15 -36 -184
    endloop
  endfacet
  facet normal -1 0 0
    outer loop
      vertex -15 -35.3 -128
      vertex -15 -36 -127.99
      vertex -15 -35.3 -127.99
    endloop
  endfacet
  facet normal -1 -0 0
    outer loop
      vertex -15 -30 -127.99
      vertex -15 -32.8 -128
      vertex -15 -32.8 -127.99
    endloop
  endfacet
  facet normal 0 1 -0
    outer loop
      vertex -7 -30 -184
      vertex -15 -30 -127.99
      vertex -7 -30 -127.99
    endloop
  endfacet
  facet normal 0 1 0
    outer loop
      vertex -15 -30 -127.99
      vertex -7 -30 -184
      vertex -15 -30 -184
    endloop
  endfacet
  facet normal 0 -1 0
    outer loop
      vertex -15 -36 -184
      vertex -7 -36 -127.99
      vertex -15 -36 -127.99
    endloop
  endfacet
  facet normal 0 -1 -0
    outer loop
      vertex -7 -36 -127.99
      vertex -15 -36 -184
      vertex -7 -36 -184
    endloop
  endfacet
  facet normal 1 -0 0
    outer loop
      vertex 7 -35.3 -104
      vertex 7 -32.8 -128
      vertex 7 -32.8 -104
    endloop
  endfacet
  facet normal 1 0 0
    outer loop
      vertex 7 -32.8 -128
      vertex 7 -35.3 -104
      vertex 7 -35.3 -128
    endloop
  endfacet
  facet normal -0 0 1
    outer loop
      vertex -25 -32.8 -104
      vertex 7 -35.3 -104
      vertex 7 -32.8 -104
    endloop
  endfacet
  facet normal 0 0 1
    outer loop
      vertex 7 -35.3 -104
      vertex -25 -32.8 -104
      vertex -25 -35.3 -104
    endloop
  endfacet
  facet normal 0 0 -1
    outer loop
      vertex -7 -35.3 -128
      vertex 7 -32.8 -128
      vertex 7 -35.3 -128
    endloop
  endfacet
  facet normal -0 0 -1
    outer loop
      vertex 7 -32.8 -128
      vertex -7 -35.3 -128
      vertex -7 -32.8 -128
    endloop
  endfacet
  facet normal 0 0 -1
    outer loop
      vertex -25 -35.3 -128
      vertex -15 -32.8 -128
      vertex -15 -35.3 -128
    endloop
  endfacet
  facet normal -0 0 -1
    outer loop
      vertex -15 -32.8 -128
      vertex -25 -35.3 -128
      vertex -25 -32.8 -128
    endloop
  endfacet
  facet normal -1 0 0
    outer loop
      vertex -25 -35.3 -128
      vertex -25 -32.8 -104
      vertex -25 -32.8 -128
    endloop
  endfacet
  facet normal -1 -0 0
    outer loop
      vertex -25 -32.8 -104
      vertex -25 -35.3 -128
      vertex -25 -35.3 -104
    endloop
  endfacet
  facet normal 0 1 0
    outer loop
      vertex -21 -32.8 -109.5
      vertex -22.7525 -32.8 -114.799
      vertex -23.25 -32.8 -114.7
    endloop
  endfacet
  facet normal 0 1 0
    outer loop
      vertex -21 -32.8 -109.5
      vertex -22.3308 -32.8 -115.081
      vertex -22.7525 -32.8 -114.799
    endloop
  endfacet
  facet normal 0 1 0
    outer loop
      vertex -21 -32.8 -109.5
      vertex -22.049 -32.8 -115.503
      vertex -22.3308 -32.8 -115.081
    endloop
  endfacet
  facet normal 0 1 0
    outer loop
      vertex -21 -32.8 -109.5
      vertex -21.95 -32.8 -116
      vertex -22.049 -32.8 -115.503
    endloop
  endfacet
  facet normal 0 1 0
    outer loop
      vertex -22.7525 -32.8 -117.201
      vertex -21 -32.8 -122.5
      vertex -23.25 -32.8 -117.3
    endloop
  endfacet
  facet normal 0 1 0
    outer loop
      vertex -22.3308 -32.8 -116.919
      vertex -21 -32.8 -122.5
      vertex -22.7525 -32.8 -117.201
    endloop
  endfacet
  facet normal 0 1 0
    outer loop
      vertex -22.049 -32.8 -116.497
      vertex -21 -32.8 -122.5
      vertex -22.3308 -32.8 -116.919
    endloop
  endfacet
  facet normal 0 1 0
    outer loop
      vertex -21.95 -32.8 -116
      vertex -21 -32.8 -122.5
      vertex -22.049 -32.8 -116.497
    endloop
  endfacet
  facet normal 0 1 -0
    outer loop
      vertex -21 -32.8 -122.5
      vertex -21.95 -32.8 -116
      vertex -21 -32.8 -109.5
    endloop
  endfacet
  facet normal 0 1 0
    outer loop
      vertex 7 -32.8 -104
      vertex 2.3 -32.8 -109.5
      vertex -25 -32.8 -104
    endloop
  endfacet
  facet normal 0 1 -0
    outer loop
      vertex 5.04749 -32.8 -114.799
      vertex 2.3 -32.8 -109.5
      vertex 7 -32.8 -104
    endloop
  endfacet
  facet normal 0 1 0
    outer loop
      vertex 2.3 -32.8 -109.5
      vertex 5.04749 -32.8 -114.799
      vertex 4.55 -32.8 -114.7
    endloop
  endfacet
  facet normal 0 1 0
    outer loop
      vertex 7 -32.8 -104
      vertex 5.46924 -32.8 -115.081
      vertex 5.04749 -32.8 -114.799
    endloop
  endfacet
  facet normal 0 1 0
    outer loop
      vertex 7 -32.8 -104
      vertex 5.75104 -32.8 -115.503
      vertex 5.46924 -32.8 -115.081
    endloop
  endfacet
  facet normal 0 1 0
    outer loop
      vertex 7 -32.8 -104
      vertex 5.85 -32.8 -116
      vertex 5.75104 -32.8 -115.503
    endloop
  endfacet
  facet normal 0 1 0
    outer loop
      vertex 5.04749 -32.8 -117.201
      vertex 2.3 -32.8 -122.5
      vertex 4.55 -32.8 -117.3
    endloop
  endfacet
  facet normal 0 1 0
    outer loop
      vertex 7 -32.8 -128
      vertex 5.04749 -32.8 -117.201
      vertex 5.46924 -32.8 -116.919
    endloop
  endfacet
  facet normal 0 1 0
    outer loop
      vertex 7 -32.8 -128
      vertex 5.46924 -32.8 -116.919
      vertex 5.75104 -32.8 -116.497
    endloop
  endfacet
  facet normal 0 1 0
    outer loop
      vertex 2.3 -32.8 -122.5
      vertex -7 -32.8 -127.99
      vertex -21 -32.8 -122.5
    endloop
  endfacet
  facet normal 0 1 -0
    outer loop
      vertex 7 -32.8 -128
      vertex 5.85 -32.8 -116
      vertex 7 -32.8 -104
    endloop
  endfacet
  facet normal 0 1 0
    outer loop
      vertex 7 -32.8 -128
      vertex 5.75104 -32.8 -116.497
      vertex 5.85 -32.8 -116
    endloop
  endfacet
  facet normal 0 1 0
    outer loop
      vertex 5.04749 -32.8 -117.201
      vertex 7 -32.8 -128
      vertex 2.3 -32.8 -122.5
    endloop
  endfacet
  facet normal 0 1 0
    outer loop
      vertex -7 -32.8 -128
      vertex 2.3 -32.8 -122.5
      vertex 7 -32.8 -128
    endloop
  endfacet
  facet normal 0 1 0
    outer loop
      vertex 2.3 -32.8 -122.5
      vertex -7 -32.8 -128
      vertex -7 -32.8 -127.99
    endloop
  endfacet
  facet normal 0 1 -0
    outer loop
      vertex -21 -32.8 -109.5
      vertex -25 -32.8 -104
      vertex 2.3 -32.8 -109.5
    endloop
  endfacet
  facet normal 0 1 0
    outer loop
      vertex -23.7475 -32.8 -114.799
      vertex -21 -32.8 -109.5
      vertex -23.25 -32.8 -114.7
    endloop
  endfacet
  facet normal 0 1 0
    outer loop
      vertex -21 -32.8 -109.5
      vertex -23.7475 -32.8 -114.799
      vertex -25 -32.8 -104
    endloop
  endfacet
  facet normal 0 1 -0
    outer loop
      vertex -24.1692 -32.8 -115.081
      vertex -25 -32.8 -104
      vertex -23.7475 -32.8 -114.799
    endloop
  endfacet
  facet normal 0 1 -0
    outer loop
      vertex -24.451 -32.8 -115.503
      vertex -25 -32.8 -104
      vertex -24.1692 -32.8 -115.081
    endloop
  endfacet
  facet normal 0 1 -0
    outer loop
      vertex -24.55 -32.8 -116
      vertex -25 -32.8 -104
      vertex -24.451 -32.8 -115.503
    endloop
  endfacet
  facet normal 0 1 0
    outer loop
      vertex -21 -32.8 -122.5
      vertex -23.7475 -32.8 -117.201
      vertex -23.25 -32.8 -117.3
    endloop
  endfacet
  facet normal 0 1 0
    outer loop
      vertex -25 -32.8 -128
      vertex -23.7475 -32.8 -117.201
      vertex -21 -32.8 -122.5
    endloop
  endfacet
  facet normal 0 1 0
    outer loop
      vertex -23.7475 -32.8 -117.201
      vertex -25 -32.8 -128
      vertex -24.1692 -32.8 -116.919
    endloop
  endfacet
  facet normal 0 1 -0
    outer loop
      vertex -15 -32.8 -127.99
      vertex -21 -32.8 -122.5
      vertex -7 -32.8 -127.99
    endloop
  endfacet
  facet normal 0 1 0
    outer loop
      vertex -25 -32.8 -128
      vertex -15 -32.8 -127.99
      vertex -15 -32.8 -128
    endloop
  endfacet
  facet normal 0 1 0
    outer loop
      vertex -24.55 -32.8 -116
      vertex -25 -32.8 -128
      vertex -25 -32.8 -104
    endloop
  endfacet
  facet normal 0 1 0
    outer loop
      vertex -24.451 -32.8 -116.497
      vertex -25 -32.8 -128
      vertex -24.55 -32.8 -116
    endloop
  endfacet
  facet normal 0 1 0
    outer loop
      vertex -24.1692 -32.8 -116.919
      vertex -25 -32.8 -128
      vertex -24.451 -32.8 -116.497
    endloop
  endfacet
  facet normal 0 1 0
    outer loop
      vertex -15 -32.8 -127.99
      vertex -25 -32.8 -128
      vertex -21 -32.8 -122.5
    endloop
  endfacet
  facet normal 0 1 -0
    outer loop
      vertex 4.05251 -32.8 -114.799
      vertex 2.3 -32.8 -109.5
      vertex 4.55 -32.8 -114.7
    endloop
  endfacet
  facet normal 0 1 -0
    outer loop
      vertex 3.63076 -32.8 -115.081
      vertex 2.3 -32.8 -109.5
      vertex 4.05251 -32.8 -114.799
    endloop
  endfacet
  facet normal 0 1 -0
    outer loop
      vertex 3.34896 -32.8 -115.503
      vertex 2.3 -32.8 -109.5
      vertex 3.63076 -32.8 -115.081
    endloop
  endfacet
  facet normal 0 1 -0
    outer loop
      vertex 3.25 -32.8 -116
      vertex 2.3 -32.8 -109.5
      vertex 3.34896 -32.8 -115.503
    endloop
  endfacet
  facet normal 0 1 0
    outer loop
      vertex 3.25 -32.8 -116
      vertex 2.3 -32.8 -122.5
      vertex 2.3 -32.8 -109.5
    endloop
  endfacet
  facet normal 0 1 0
    outer loop
      vertex 3.34896 -32.8 -116.497
      vertex 2.3 -32.8 -122.5
      vertex 3.25 -32.8 -116
    endloop
  endfacet
  facet normal 0 1 0
    outer loop
      vertex 3.63076 -32.8 -116.919
      vertex 2.3 -32.8 -122.5
      vertex 3.34896 -32.8 -116.497
    endloop
  endfacet
  facet normal 0 1 0
    outer loop
      vertex 4.05251 -32.8 -117.201
      vertex 2.3 -32.8 -122.5
      vertex 3.63076 -32.8 -116.919
    endloop
  endfacet
  facet normal 0 1 0
    outer loop
      vertex 2.3 -32.8 -122.5
      vertex 4.05251 -32.8 -117.201
      vertex 4.55 -32.8 -117.3
    endloop
  endfacet
  facet normal 0 -1 0
    outer loop
      vertex 2.3 -35.3 -109.5
      vertex 4.05251 -35.3 -114.799
      vertex 4.55 -35.3 -114.7
    endloop
  endfacet
  facet normal 0 -1 0
    outer loop
      vertex 2.3 -35.3 -109.5
      vertex 3.63076 -35.3 -115.081
      vertex 4.05251 -35.3 -114.799
    endloop
  endfacet
  facet normal 0 -1 0
    outer loop
      vertex 2.3 -35.3 -109.5
      vertex 3.34896 -35.3 -115.503
      vertex 3.63076 -35.3 -115.081
    endloop
  endfacet
  facet normal 0 -1 0
    outer loop
      vertex 2.3 -35.3 -109.5
      vertex 3.25 -35.3 -116
      vertex 3.34896 -35.3 -115.503
    endloop
  endfacet
  facet normal 0 -1 -0
    outer loop
      vertex 4.05251 -35.3 -117.201
      vertex 2.3 -35.3 -122.5
      vertex 4.55 -35.3 -117.3
    endloop
  endfacet
  facet normal 0 -1 -0
    outer loop
      vertex 3.63076 -35.3 -116.919
      vertex 2.3 -35.3 -122.5
      vertex 4.05251 -35.3 -117.201
    endloop
  endfacet
  facet normal 0 -1 -0
    outer loop
      vertex 3.34896 -35.3 -116.497
      vertex 2.3 -35.3 -122.5
      vertex 3.63076 -35.3 -116.919
    endloop
  endfacet
  facet normal 0 -1 -0
    outer loop
      vertex 3.25 -35.3 -116
      vertex 2.3 -35.3 -122.5
      vertex 3.34896 -35.3 -116.497
    endloop
  endfacet
  facet normal 0 -1 0
    outer loop
      vertex 2.3 -35.3 -122.5
      vertex 3.25 -35.3 -116
      vertex 2.3 -35.3 -109.5
    endloop
  endfacet
  facet normal 0 -1 0
    outer loop
      vertex 2.3 -35.3 -109.5
      vertex -25 -35.3 -104
      vertex -21 -35.3 -109.5
    endloop
  endfacet
  facet normal 0 -1 0
    outer loop
      vertex -23.7475 -35.3 -114.799
      vertex -21 -35.3 -109.5
      vertex -25 -35.3 -104
    endloop
  endfacet
  facet normal 0 -1 0
    outer loop
      vertex -21 -35.3 -109.5
      vertex -23.7475 -35.3 -114.799
      vertex -23.25 -35.3 -114.7
    endloop
  endfacet
  facet normal 0 -1 0
    outer loop
      vertex -25 -35.3 -104
      vertex -24.1692 -35.3 -115.081
      vertex -23.7475 -35.3 -114.799
    endloop
  endfacet
  facet normal 0 -1 0
    outer loop
      vertex -25 -35.3 -104
      vertex -24.451 -35.3 -115.503
      vertex -24.1692 -35.3 -115.081
    endloop
  endfacet
  facet normal 0 -1 0
    outer loop
      vertex -25 -35.3 -104
      vertex -24.55 -35.3 -116
      vertex -24.451 -35.3 -115.503
    endloop
  endfacet
  facet normal 0 -1 0
    outer loop
      vertex -23.7475 -35.3 -117.201
      vertex -21 -35.3 -122.5
      vertex -23.25 -35.3 -117.3
    endloop
  endfacet
  facet normal 0 -1 0
    outer loop
      vertex -25 -35.3 -128
      vertex -23.7475 -35.3 -117.201
      vertex -24.1692 -35.3 -116.919
    endloop
  endfacet
  facet normal 0 -1 0
    outer loop
      vertex -25 -35.3 -128
      vertex -24.1692 -35.3 -116.919
      vertex -24.451 -35.3 -116.497
    endloop
  endfacet
  facet normal 0 -1 0
    outer loop
      vertex -7 -35.3 -127.99
      vertex -21 -35.3 -122.5
      vertex -15 -35.3 -127.99
    endloop
  endfacet
  facet normal 0 -1 0
    outer loop
      vertex -25 -35.3 -128
      vertex -24.55 -35.3 -116
      vertex -25 -35.3 -104
    endloop
  endfacet
  facet normal 0 -1 0
    outer loop
      vertex -25 -35.3 -128
      vertex -24.451 -35.3 -116.497
      vertex -24.55 -35.3 -116
    endloop
  endfacet
  facet normal 0 -1 -0
    outer loop
      vertex -23.7475 -35.3 -117.201
      vertex -25 -35.3 -128
      vertex -21 -35.3 -122.5
    endloop
  endfacet
  facet normal 0 -1 0
    outer loop
      vertex -25 -35.3 -128
      vertex -15 -35.3 -127.99
      vertex -21 -35.3 -122.5
    endloop
  endfacet
  facet normal 0 -1 -0
    outer loop
      vertex -15 -35.3 -127.99
      vertex -25 -35.3 -128
      vertex -15 -35.3 -128
    endloop
  endfacet
  facet normal 0 -1 0
    outer loop
      vertex -25 -35.3 -104
      vertex 2.3 -35.3 -109.5
      vertex 7 -35.3 -104
    endloop
  endfacet
  facet normal 0 -1 0
    outer loop
      vertex 5.04749 -35.3 -114.799
      vertex 2.3 -35.3 -109.5
      vertex 4.55 -35.3 -114.7
    endloop
  endfacet
  facet normal 0 -1 0
    outer loop
      vertex 2.3 -35.3 -109.5
      vertex 5.04749 -35.3 -114.799
      vertex 7 -35.3 -104
    endloop
  endfacet
  facet normal 0 -1 0
    outer loop
      vertex 5.46924 -35.3 -115.081
      vertex 7 -35.3 -104
      vertex 5.04749 -35.3 -114.799
    endloop
  endfacet
  facet normal 0 -1 0
    outer loop
      vertex 5.75104 -35.3 -115.503
      vertex 7 -35.3 -104
      vertex 5.46924 -35.3 -115.081
    endloop
  endfacet
  facet normal 0 -1 0
    outer loop
      vertex 5.85 -35.3 -116
      vertex 7 -35.3 -104
      vertex 5.75104 -35.3 -115.503
    endloop
  endfacet
  facet normal 0 -1 0
    outer loop
      vertex 2.3 -35.3 -122.5
      vertex 5.04749 -35.3 -117.201
      vertex 4.55 -35.3 -117.3
    endloop
  endfacet
  facet normal 0 -1 0
    outer loop
      vertex 7 -35.3 -128
      vertex 5.04749 -35.3 -117.201
      vertex 2.3 -35.3 -122.5
    endloop
  endfacet
  facet normal 0 -1 0
    outer loop
      vertex 5.04749 -35.3 -117.201
      vertex 7 -35.3 -128
      vertex 5.46924 -35.3 -116.919
    endloop
  endfacet
  facet normal 0 -1 0
    outer loop
      vertex -21 -35.3 -122.5
      vertex -7 -35.3 -127.99
      vertex 2.3 -35.3 -122.5
    endloop
  endfacet
  facet normal 0 -1 0
    outer loop
      vertex -7 -35.3 -128
      vertex 2.3 -35.3 -122.5
      vertex -7 -35.3 -127.99
    endloop
  endfacet
  facet normal 0 -1 0
    outer loop
      vertex 5.85 -35.3 -116
      vertex 7 -35.3 -128
      vertex 7 -35.3 -104
    endloop
  endfacet
  facet normal 0 -1 0
    outer loop
      vertex 5.75104 -35.3 -116.497
      vertex 7 -35.3 -128
      vertex 5.85 -35.3 -116
    endloop
  endfacet
  facet normal 0 -1 0
    outer loop
      vertex 5.46924 -35.3 -116.919
      vertex 7 -35.3 -128
      vertex 5.75104 -35.3 -116.497
    endloop
  endfacet
  facet normal 0 -1 0
    outer loop
      vertex 7 -35.3 -128
      vertex 2.3 -35.3 -122.5
      vertex -7 -35.3 -128
    endloop
  endfacet
  facet normal 0 -1 0
    outer loop
      vertex -22.7525 -35.3 -114.799
      vertex -21 -35.3 -109.5
      vertex -23.25 -35.3 -114.7
    endloop
  endfacet
  facet normal 0 -1 0
    outer loop
      vertex -22.3308 -35.3 -115.081
      vertex -21 -35.3 -109.5
      vertex -22.7525 -35.3 -114.799
    endloop
  endfacet
  facet normal 0 -1 0
    outer loop
      vertex -22.049 -35.3 -115.503
      vertex -21 -35.3 -109.5
      vertex -22.3308 -35.3 -115.081
    endloop
  endfacet
  facet normal 0 -1 0
    outer loop
      vertex -21.95 -35.3 -116
      vertex -21 -35.3 -109.5
      vertex -22.049 -35.3 -115.503
    endloop
  endfacet
  facet normal 0 -1 0
    outer loop
      vertex -21.95 -35.3 -116
      vertex -21 -35.3 -122.5
      vertex -21 -35.3 -109.5
    endloop
  endfacet
  facet normal 0 -1 0
    outer loop
      vertex -22.049 -35.3 -116.497
      vertex -21 -35.3 -122.5
      vertex -21.95 -35.3 -116
    endloop
  endfacet
  facet normal 0 -1 0
    outer loop
      vertex -22.3308 -35.3 -116.919
      vertex -21 -35.3 -122.5
      vertex -22.049 -35.3 -116.497
    endloop
  endfacet
  facet normal 0 -1 0
    outer loop
      vertex -22.7525 -35.3 -117.201
      vertex -21 -35.3 -122.5
      vertex -22.3308 -35.3 -116.919
    endloop
  endfacet
  facet normal 0 -1 0
    outer loop
      vertex -21 -35.3 -122.5
      vertex -22.7525 -35.3 -117.201
      vertex -23.25 -35.3 -117.3
    endloop
  endfacet
  facet normal 0.980784 -0.195099 0
    outer loop
      vertex 12.95 -30 -184
      vertex 13.068 -29.4068 -190
      vertex 13.068 -29.4068 -184
    endloop
  endfacet
  facet normal 0.980784 -0.195099 0
    outer loop
      vertex 13.068 -29.4068 -190
      vertex 12.95 -30 -184
      vertex 12.95 -30 -190
    endloop
  endfacet
  facet normal 0.980784 -0.195099 0
    outer loop
      vertex 12.95 -30 -42
      vertex 13.068 -29.4068 -48
      vertex 13.068 -29.4068 -42
    endloop
  endfacet
  facet normal 0.980784 -0.195099 0
    outer loop
      vertex 13.068 -29.4068 -48
      vertex 12.95 -30 -42
      vertex 12.95 -30 -48
    endloop
  endfacet
  facet normal -0.831439 -0.555616 0
    outer loop
      vertex 15.932 -29.4068 -190
      vertex 15.596 -28.904 -184
      vertex 15.596 -28.904 -190
    endloop
  endfacet
  facet normal -0.831439 -0.555616 0
    outer loop
      vertex 15.596 -28.904 -184
      vertex 15.932 -29.4068 -190
      vertex 15.932 -29.4068 -184
    endloop
  endfacet
  facet normal -0.831439 -0.555616 0
    outer loop
      vertex 15.932 -29.4068 -48
      vertex 15.596 -28.904 -42
      vertex 15.596 -28.904 -48
    endloop
  endfacet
  facet normal -0.831439 -0.555616 0
    outer loop
      vertex 15.596 -28.904 -42
      vertex 15.932 -29.4068 -48
      vertex 15.932 -29.4068 -42
    endloop
  endfacet
  facet normal -0.980784 -0.195099 0
    outer loop
      vertex 16.05 -30 -190
      vertex 15.932 -29.4068 -184
      vertex 15.932 -29.4068 -190
    endloop
  endfacet
  facet normal -0.980784 -0.195099 0
    outer loop
      vertex 15.932 -29.4068 -184
      vertex 16.05 -30 -190
      vertex 16.05 -30 -184
    endloop
  endfacet
  facet normal -0.980784 -0.195099 0
    outer loop
      vertex 16.05 -30 -48
      vertex 15.932 -29.4068 -42
      vertex 15.932 -29.4068 -48
    endloop
  endfacet
  facet normal -0.980784 -0.195099 0
    outer loop
      vertex 15.932 -29.4068 -42
      vertex 16.05 -30 -48
      vertex 16.05 -30 -42
    endloop
  endfacet
  facet normal -0.555616 -0.831439 0
    outer loop
      vertex 15.0932 -28.568 -190
      vertex 15.596 -28.904 -184
      vertex 15.0932 -28.568 -184
    endloop
  endfacet
  facet normal -0.555616 -0.831439 -0
    outer loop
      vertex 15.596 -28.904 -184
      vertex 15.0932 -28.568 -190
      vertex 15.596 -28.904 -190
    endloop
  endfacet
  facet normal -0.555616 -0.831439 0
    outer loop
      vertex 15.0932 -28.568 -48
      vertex 15.596 -28.904 -42
      vertex 15.0932 -28.568 -42
    endloop
  endfacet
  facet normal -0.555616 -0.831439 -0
    outer loop
      vertex 15.596 -28.904 -42
      vertex 15.0932 -28.568 -48
      vertex 15.596 -28.904 -48
    endloop
  endfacet
  facet normal -0.831439 0.555616 0
    outer loop
      vertex 15.596 -31.096 -190
      vertex 15.932 -30.5932 -184
      vertex 15.932 -30.5932 -190
    endloop
  endfacet
  facet normal -0.831439 0.555616 0
    outer loop
      vertex 15.932 -30.5932 -184
      vertex 15.596 -31.096 -190
      vertex 15.596 -31.096 -184
    endloop
  endfacet
  facet normal -0.831439 0.555616 0
    outer loop
      vertex 15.596 -31.096 -48
      vertex 15.932 -30.5932 -42
      vertex 15.932 -30.5932 -48
    endloop
  endfacet
  facet normal -0.831439 0.555616 0
    outer loop
      vertex 15.932 -30.5932 -42
      vertex 15.596 -31.096 -48
      vertex 15.596 -31.096 -42
    endloop
  endfacet
  facet normal -0.555616 0.831439 0
    outer loop
      vertex 15.596 -31.096 -190
      vertex 15.0932 -31.432 -184
      vertex 15.596 -31.096 -184
    endloop
  endfacet
  facet normal -0.555616 0.831439 0
    outer loop
      vertex 15.0932 -31.432 -184
      vertex 15.596 -31.096 -190
      vertex 15.0932 -31.432 -190
    endloop
  endfacet
  facet normal -0.555616 0.831439 0
    outer loop
      vertex 15.596 -31.096 -48
      vertex 15.0932 -31.432 -42
      vertex 15.596 -31.096 -42
    endloop
  endfacet
  facet normal -0.555616 0.831439 0
    outer loop
      vertex 15.0932 -31.432 -42
      vertex 15.596 -31.096 -48
      vertex 15.0932 -31.432 -48
    endloop
  endfacet
  facet normal 0.555616 -0.831439 0
    outer loop
      vertex 13.404 -28.904 -190
      vertex 13.9068 -28.568 -184
      vertex 13.404 -28.904 -184
    endloop
  endfacet
  facet normal 0.555616 -0.831439 0
    outer loop
      vertex 13.9068 -28.568 -184
      vertex 13.404 -28.904 -190
      vertex 13.9068 -28.568 -190
    endloop
  endfacet
  facet normal 0.555616 -0.831439 0
    outer loop
      vertex 13.404 -28.904 -48
      vertex 13.9068 -28.568 -42
      vertex 13.404 -28.904 -42
    endloop
  endfacet
  facet normal 0.555616 -0.831439 0
    outer loop
      vertex 13.9068 -28.568 -42
      vertex 13.404 -28.904 -48
      vertex 13.9068 -28.568 -48
    endloop
  endfacet
  facet normal 0.195099 0.980784 -0
    outer loop
      vertex 14.5 -31.55 -190
      vertex 13.9068 -31.432 -184
      vertex 14.5 -31.55 -184
    endloop
  endfacet
  facet normal 0.195099 0.980784 0
    outer loop
      vertex 13.9068 -31.432 -184
      vertex 14.5 -31.55 -190
      vertex 13.9068 -31.432 -190
    endloop
  endfacet
  facet normal 0.195099 0.980784 -0
    outer loop
      vertex 14.5 -31.55 -48
      vertex 13.9068 -31.432 -42
      vertex 14.5 -31.55 -42
    endloop
  endfacet
  facet normal 0.195099 0.980784 0
    outer loop
      vertex 13.9068 -31.432 -42
      vertex 14.5 -31.55 -48
      vertex 13.9068 -31.432 -48
    endloop
  endfacet
  facet normal 0.195099 -0.980784 0
    outer loop
      vertex 13.9068 -28.568 -190
      vertex 14.5 -28.45 -184
      vertex 13.9068 -28.568 -184
    endloop
  endfacet
  facet normal 0.195099 -0.980784 0
    outer loop
      vertex 14.5 -28.45 -184
      vertex 13.9068 -28.568 -190
      vertex 14.5 -28.45 -190
    endloop
  endfacet
  facet normal 0.195099 -0.980784 0
    outer loop
      vertex 13.9068 -28.568 -48
      vertex 14.5 -28.45 -42
      vertex 13.9068 -28.568 -42
    endloop
  endfacet
  facet normal 0.195099 -0.980784 0
    outer loop
      vertex 14.5 -28.45 -42
      vertex 13.9068 -28.568 -48
      vertex 14.5 -28.45 -48
    endloop
  endfacet
  facet normal -0.195099 0.980784 0
    outer loop
      vertex 15.0932 -31.432 -190
      vertex 14.5 -31.55 -184
      vertex 15.0932 -31.432 -184
    endloop
  endfacet
  facet normal -0.195099 0.980784 0
    outer loop
      vertex 14.5 -31.55 -184
      vertex 15.0932 -31.432 -190
      vertex 14.5 -31.55 -190
    endloop
  endfacet
  facet normal -0.195099 0.980784 0
    outer loop
      vertex 15.0932 -31.432 -48
      vertex 14.5 -31.55 -42
      vertex 15.0932 -31.432 -42
    endloop
  endfacet
  facet normal -0.195099 0.980784 0
    outer loop
      vertex 14.5 -31.55 -42
      vertex 15.0932 -31.432 -48
      vertex 14.5 -31.55 -48
    endloop
  endfacet
  facet normal -0.195099 -0.980784 0
    outer loop
      vertex 14.5 -28.45 -190
      vertex 15.0932 -28.568 -184
      vertex 14.5 -28.45 -184
    endloop
  endfacet
  facet normal -0.195099 -0.980784 -0
    outer loop
      vertex 15.0932 -28.568 -184
      vertex 14.5 -28.45 -190
      vertex 15.0932 -28.568 -190
    endloop
  endfacet
  facet normal -0.195099 -0.980784 0
    outer loop
      vertex 14.5 -28.45 -48
      vertex 15.0932 -28.568 -42
      vertex 14.5 -28.45 -42
    endloop
  endfacet
  facet normal -0.195099 -0.980784 -0
    outer loop
      vertex 15.0932 -28.568 -42
      vertex 14.5 -28.45 -48
      vertex 15.0932 -28.568 -48
    endloop
  endfacet
  facet normal -0.980784 0.195099 0
    outer loop
      vertex 15.932 -30.5932 -190
      vertex 16.05 -30 -184
      vertex 16.05 -30 -190
    endloop
  endfacet
  facet normal -0.980784 0.195099 0
    outer loop
      vertex 16.05 -30 -184
      vertex 15.932 -30.5932 -190
      vertex 15.932 -30.5932 -184
    endloop
  endfacet
  facet normal -0.980784 0.195099 0
    outer loop
      vertex 15.932 -30.5932 -48
      vertex 16.05 -30 -42
      vertex 16.05 -30 -48
    endloop
  endfacet
  facet normal -0.980784 0.195099 0
    outer loop
      vertex 16.05 -30 -42
      vertex 15.932 -30.5932 -48
      vertex 15.932 -30.5932 -42
    endloop
  endfacet
  facet normal 0.831439 -0.555616 0
    outer loop
      vertex 13.068 -29.4068 -184
      vertex 13.404 -28.904 -190
      vertex 13.404 -28.904 -184
    endloop
  endfacet
  facet normal 0.831439 -0.555616 0
    outer loop
      vertex 13.404 -28.904 -190
      vertex 13.068 -29.4068 -184
      vertex 13.068 -29.4068 -190
    endloop
  endfacet
  facet normal 0.831439 -0.555616 0
    outer loop
      vertex 13.068 -29.4068 -42
      vertex 13.404 -28.904 -48
      vertex 13.404 -28.904 -42
    endloop
  endfacet
  facet normal 0.831439 -0.555616 0
    outer loop
      vertex 13.404 -28.904 -48
      vertex 13.068 -29.4068 -42
      vertex 13.068 -29.4068 -48
    endloop
  endfacet
  facet normal 0.831439 0.555616 0
    outer loop
      vertex 13.404 -31.096 -184
      vertex 13.068 -30.5932 -190
      vertex 13.068 -30.5932 -184
    endloop
  endfacet
  facet normal 0.831439 0.555616 0
    outer loop
      vertex 13.068 -30.5932 -190
      vertex 13.404 -31.096 -184
      vertex 13.404 -31.096 -190
    endloop
  endfacet
  facet normal 0.831439 0.555616 0
    outer loop
      vertex 13.404 -31.096 -42
      vertex 13.068 -30.5932 -48
      vertex 13.068 -30.5932 -42
    endloop
  endfacet
  facet normal 0.831439 0.555616 0
    outer loop
      vertex 13.068 -30.5932 -48
      vertex 13.404 -31.096 -42
      vertex 13.404 -31.096 -48
    endloop
  endfacet
  facet normal 0.980784 0.195099 0
    outer loop
      vertex 13.068 -30.5932 -184
      vertex 12.95 -30 -190
      vertex 12.95 -30 -184
    endloop
  endfacet
  facet normal 0.980784 0.195099 0
    outer loop
      vertex 12.95 -30 -190
      vertex 13.068 -30.5932 -184
      vertex 13.068 -30.5932 -190
    endloop
  endfacet
  facet normal 0.980784 0.195099 0
    outer loop
      vertex 13.068 -30.5932 -42
      vertex 12.95 -30 -48
      vertex 12.95 -30 -42
    endloop
  endfacet
  facet normal 0.980784 0.195099 0
    outer loop
      vertex 12.95 -30 -48
      vertex 13.068 -30.5932 -42
      vertex 13.068 -30.5932 -48
    endloop
  endfacet
  facet normal 0.555616 0.831439 -0
    outer loop
      vertex 13.9068 -31.432 -190
      vertex 13.404 -31.096 -184
      vertex 13.9068 -31.432 -184
    endloop
  endfacet
  facet normal 0.555616 0.831439 0
    outer loop
      vertex 13.404 -31.096 -184
      vertex 13.9068 -31.432 -190
      vertex 13.404 -31.096 -190
    endloop
  endfacet
  facet normal 0.555616 0.831439 -0
    outer loop
      vertex 13.9068 -31.432 -48
      vertex 13.404 -31.096 -42
      vertex 13.9068 -31.432 -42
    endloop
  endfacet
  facet normal 0.555616 0.831439 0
    outer loop
      vertex 13.404 -31.096 -42
      vertex 13.9068 -31.432 -48
      vertex 13.404 -31.096 -48
    endloop
  endfacet
  facet normal -0.831439 -0.555616 0
    outer loop
      vertex 15.932 30.5932 -190
      vertex 15.596 31.096 -184
      vertex 15.596 31.096 -190
    endloop
  endfacet
  facet normal -0.831439 -0.555616 0
    outer loop
      vertex 15.596 31.096 -184
      vertex 15.932 30.5932 -190
      vertex 15.932 30.5932 -184
    endloop
  endfacet
  facet normal -0.831439 -0.555616 0
    outer loop
      vertex 15.932 30.5932 -48
      vertex 15.596 31.096 -42
      vertex 15.596 31.096 -48
    endloop
  endfacet
  facet normal -0.831439 -0.555616 0
    outer loop
      vertex 15.596 31.096 -42
      vertex 15.932 30.5932 -48
      vertex 15.932 30.5932 -42
    endloop
  endfacet
  facet normal -0.980784 -0.195099 0
    outer loop
      vertex 16.05 30 -190
      vertex 15.932 30.5932 -184
      vertex 15.932 30.5932 -190
    endloop
  endfacet
  facet normal -0.980784 -0.195099 0
    outer loop
      vertex 15.932 30.5932 -184
      vertex 16.05 30 -190
      vertex 16.05 30 -184
    endloop
  endfacet
  facet normal -0.980784 -0.195099 0
    outer loop
      vertex 16.05 30 -48
      vertex 15.932 30.5932 -42
      vertex 15.932 30.5932 -48
    endloop
  endfacet
  facet normal -0.980784 -0.195099 0
    outer loop
      vertex 15.932 30.5932 -42
      vertex 16.05 30 -48
      vertex 16.05 30 -42
    endloop
  endfacet
  facet normal -0.555616 -0.831439 0
    outer loop
      vertex 15.0932 31.432 -190
      vertex 15.596 31.096 -184
      vertex 15.0932 31.432 -184
    endloop
  endfacet
  facet normal -0.555616 -0.831439 -0
    outer loop
      vertex 15.596 31.096 -184
      vertex 15.0932 31.432 -190
      vertex 15.596 31.096 -190
    endloop
  endfacet
  facet normal -0.555616 -0.831439 0
    outer loop
      vertex 15.0932 31.432 -48
      vertex 15.596 31.096 -42
      vertex 15.0932 31.432 -42
    endloop
  endfacet
  facet normal -0.555616 -0.831439 -0
    outer loop
      vertex 15.596 31.096 -42
      vertex 15.0932 31.432 -48
      vertex 15.596 31.096 -48
    endloop
  endfacet
  facet normal -0.831439 0.555616 0
    outer loop
      vertex 15.596 28.904 -190
      vertex 15.932 29.4068 -184
      vertex 15.932 29.4068 -190
    endloop
  endfacet
  facet normal -0.831439 0.555616 0
    outer loop
      vertex 15.932 29.4068 -184
      vertex 15.596 28.904 -190
      vertex 15.596 28.904 -184
    endloop
  endfacet
  facet normal -0.831439 0.555616 0
    outer loop
      vertex 15.596 28.904 -48
      vertex 15.932 29.4068 -42
      vertex 15.932 29.4068 -48
    endloop
  endfacet
  facet normal -0.831439 0.555616 0
    outer loop
      vertex 15.932 29.4068 -42
      vertex 15.596 28.904 -48
      vertex 15.596 28.904 -42
    endloop
  endfacet
  facet normal 0.195099 -0.980784 0
    outer loop
      vertex 13.9068 31.432 -190
      vertex 14.5 31.55 -184
      vertex 13.9068 31.432 -184
    endloop
  endfacet
  facet normal 0.195099 -0.980784 0
    outer loop
      vertex 14.5 31.55 -184
      vertex 13.9068 31.432 -190
      vertex 14.5 31.55 -190
    endloop
  endfacet
  facet normal 0.195099 -0.980784 0
    outer loop
      vertex 13.9068 31.432 -48
      vertex 14.5 31.55 -42
      vertex 13.9068 31.432 -42
    endloop
  endfacet
  facet normal 0.195099 -0.980784 0
    outer loop
      vertex 14.5 31.55 -42
      vertex 13.9068 31.432 -48
      vertex 14.5 31.55 -48
    endloop
  endfacet
  facet normal 0.831439 -0.555616 0
    outer loop
      vertex 13.068 30.5932 -184
      vertex 13.404 31.096 -190
      vertex 13.404 31.096 -184
    endloop
  endfacet
  facet normal 0.831439 -0.555616 0
    outer loop
      vertex 13.404 31.096 -190
      vertex 13.068 30.5932 -184
      vertex 13.068 30.5932 -190
    endloop
  endfacet
  facet normal 0.831439 -0.555616 0
    outer loop
      vertex 13.068 30.5932 -42
      vertex 13.404 31.096 -48
      vertex 13.404 31.096 -42
    endloop
  endfacet
  facet normal 0.831439 -0.555616 0
    outer loop
      vertex 13.404 31.096 -48
      vertex 13.068 30.5932 -42
      vertex 13.068 30.5932 -48
    endloop
  endfacet
  facet normal 0.980784 -0.195099 0
    outer loop
      vertex 12.95 30 -184
      vertex 13.068 30.5932 -190
      vertex 13.068 30.5932 -184
    endloop
  endfacet
  facet normal 0.980784 -0.195099 0
    outer loop
      vertex 13.068 30.5932 -190
      vertex 12.95 30 -184
      vertex 12.95 30 -190
    endloop
  endfacet
  facet normal 0.980784 -0.195099 0
    outer loop
      vertex 12.95 30 -42
      vertex 13.068 30.5932 -48
      vertex 13.068 30.5932 -42
    endloop
  endfacet
  facet normal 0.980784 -0.195099 0
    outer loop
      vertex 13.068 30.5932 -48
      vertex 12.95 30 -42
      vertex 12.95 30 -48
    endloop
  endfacet
  facet normal -0.195099 0.980784 0
    outer loop
      vertex 15.0932 28.568 -190
      vertex 14.5 28.45 -184
      vertex 15.0932 28.568 -184
    endloop
  endfacet
  facet normal -0.195099 0.980784 0
    outer loop
      vertex 14.5 28.45 -184
      vertex 15.0932 28.568 -190
      vertex 14.5 28.45 -190
    endloop
  endfacet
  facet normal -0.195099 0.980784 0
    outer loop
      vertex 15.0932 28.568 -48
      vertex 14.5 28.45 -42
      vertex 15.0932 28.568 -42
    endloop
  endfacet
  facet normal -0.195099 0.980784 0
    outer loop
      vertex 14.5 28.45 -42
      vertex 15.0932 28.568 -48
      vertex 14.5 28.45 -48
    endloop
  endfacet
  facet normal 0.195099 0.980784 -0
    outer loop
      vertex 14.5 28.45 -190
      vertex 13.9068 28.568 -184
      vertex 14.5 28.45 -184
    endloop
  endfacet
  facet normal 0.195099 0.980784 0
    outer loop
      vertex 13.9068 28.568 -184
      vertex 14.5 28.45 -190
      vertex 13.9068 28.568 -190
    endloop
  endfacet
  facet normal 0.195099 0.980784 -0
    outer loop
      vertex 14.5 28.45 -48
      vertex 13.9068 28.568 -42
      vertex 14.5 28.45 -42
    endloop
  endfacet
  facet normal 0.195099 0.980784 0
    outer loop
      vertex 13.9068 28.568 -42
      vertex 14.5 28.45 -48
      vertex 13.9068 28.568 -48
    endloop
  endfacet
  facet normal 0.980784 0.195099 0
    outer loop
      vertex 13.068 29.4068 -184
      vertex 12.95 30 -190
      vertex 12.95 30 -184
    endloop
  endfacet
  facet normal 0.980784 0.195099 0
    outer loop
      vertex 12.95 30 -190
      vertex 13.068 29.4068 -184
      vertex 13.068 29.4068 -190
    endloop
  endfacet
  facet normal 0.980784 0.195099 0
    outer loop
      vertex 13.068 29.4068 -42
      vertex 12.95 30 -48
      vertex 12.95 30 -42
    endloop
  endfacet
  facet normal 0.980784 0.195099 0
    outer loop
      vertex 12.95 30 -48
      vertex 13.068 29.4068 -42
      vertex 13.068 29.4068 -48
    endloop
  endfacet
  facet normal -0.195099 -0.980784 0
    outer loop
      vertex 14.5 31.55 -190
      vertex 15.0932 31.432 -184
      vertex 14.5 31.55 -184
    endloop
  endfacet
  facet normal -0.195099 -0.980784 -0
    outer loop
      vertex 15.0932 31.432 -184
      vertex 14.5 31.55 -190
      vertex 15.0932 31.432 -190
    endloop
  endfacet
  facet normal -0.195099 -0.980784 0
    outer loop
      vertex 14.5 31.55 -48
      vertex 15.0932 31.432 -42
      vertex 14.5 31.55 -42
    endloop
  endfacet
  facet normal -0.195099 -0.980784 -0
    outer loop
      vertex 15.0932 31.432 -42
      vertex 14.5 31.55 -48
      vertex 15.0932 31.432 -48
    endloop
  endfacet
  facet normal -0.980784 0.195099 0
    outer loop
      vertex 15.932 29.4068 -190
      vertex 16.05 30 -184
      vertex 16.05 30 -190
    endloop
  endfacet
  facet normal -0.980784 0.195099 0
    outer loop
      vertex 16.05 30 -184
      vertex 15.932 29.4068 -190
      vertex 15.932 29.4068 -184
    endloop
  endfacet
  facet normal -0.980784 0.195099 0
    outer loop
      vertex 15.932 29.4068 -48
      vertex 16.05 30 -42
      vertex 16.05 30 -48
    endloop
  endfacet
  facet normal -0.980784 0.195099 0
    outer loop
      vertex 16.05 30 -42
      vertex 15.932 29.4068 -48
      vertex 15.932 29.4068 -42
    endloop
  endfacet
  facet normal -0.555616 0.831439 0
    outer loop
      vertex 15.596 28.904 -190
      vertex 15.0932 28.568 -184
      vertex 15.596 28.904 -184
    endloop
  endfacet
  facet normal -0.555616 0.831439 0
    outer loop
      vertex 15.0932 28.568 -184
      vertex 15.596 28.904 -190
      vertex 15.0932 28.568 -190
    endloop
  endfacet
  facet normal -0.555616 0.831439 0
    outer loop
      vertex 15.596 28.904 -48
      vertex 15.0932 28.568 -42
      vertex 15.596 28.904 -42
    endloop
  endfacet
  facet normal -0.555616 0.831439 0
    outer loop
      vertex 15.0932 28.568 -42
      vertex 15.596 28.904 -48
      vertex 15.0932 28.568 -48
    endloop
  endfacet
  facet normal 0.831439 0.555616 0
    outer loop
      vertex 13.404 28.904 -184
      vertex 13.068 29.4068 -190
      vertex 13.068 29.4068 -184
    endloop
  endfacet
  facet normal 0.831439 0.555616 0
    outer loop
      vertex 13.068 29.4068 -190
      vertex 13.404 28.904 -184
      vertex 13.404 28.904 -190
    endloop
  endfacet
  facet normal 0.831439 0.555616 0
    outer loop
      vertex 13.404 28.904 -42
      vertex 13.068 29.4068 -48
      vertex 13.068 29.4068 -42
    endloop
  endfacet
  facet normal 0.831439 0.555616 0
    outer loop
      vertex 13.068 29.4068 -48
      vertex 13.404 28.904 -42
      vertex 13.404 28.904 -48
    endloop
  endfacet
  facet normal 0.555616 -0.831439 0
    outer loop
      vertex 13.404 31.096 -190
      vertex 13.9068 31.432 -184
      vertex 13.404 31.096 -184
    endloop
  endfacet
  facet normal 0.555616 -0.831439 0
    outer loop
      vertex 13.9068 31.432 -184
      vertex 13.404 31.096 -190
      vertex 13.9068 31.432 -190
    endloop
  endfacet
  facet normal 0.555616 -0.831439 0
    outer loop
      vertex 13.404 31.096 -48
      vertex 13.9068 31.432 -42
      vertex 13.404 31.096 -42
    endloop
  endfacet
  facet normal 0.555616 -0.831439 0
    outer loop
      vertex 13.9068 31.432 -42
      vertex 13.404 31.096 -48
      vertex 13.9068 31.432 -48
    endloop
  endfacet
  facet normal 0.555616 0.831439 -0
    outer loop
      vertex 13.9068 28.568 -190
      vertex 13.404 28.904 -184
      vertex 13.9068 28.568 -184
    endloop
  endfacet
  facet normal 0.555616 0.831439 0
    outer loop
      vertex 13.404 28.904 -184
      vertex 13.9068 28.568 -190
      vertex 13.404 28.904 -190
    endloop
  endfacet
  facet normal 0.555616 0.831439 -0
    outer loop
      vertex 13.9068 28.568 -48
      vertex 13.404 28.904 -42
      vertex 13.9068 28.568 -42
    endloop
  endfacet
  facet normal 0.555616 0.831439 0
    outer loop
      vertex 13.404 28.904 -42
      vertex 13.9068 28.568 -48
      vertex 13.404 28.904 -48
    endloop
  endfacet
  facet normal -0.831626 0 0.555337
    outer loop
      vertex -22.3308 -35.3 -116.919
      vertex -22.049 -32.8 -116.497
      vertex -22.3308 -32.8 -116.919
    endloop
  endfacet
  facet normal -0.831626 0 0.555337
    outer loop
      vertex -22.049 -32.8 -116.497
      vertex -22.3308 -35.3 -116.919
      vertex -22.049 -35.3 -116.497
    endloop
  endfacet
  facet normal -0.980732 0 0.195357
    outer loop
      vertex -22.049 -35.3 -116.497
      vertex -21.95 -32.8 -116
      vertex -22.049 -32.8 -116.497
    endloop
  endfacet
  facet normal -0.980732 0 0.195357
    outer loop
      vertex -21.95 -32.8 -116
      vertex -22.049 -35.3 -116.497
      vertex -21.95 -35.3 -116
    endloop
  endfacet
  facet normal -0.555882 0 0.831261
    outer loop
      vertex -22.7525 -32.8 -117.201
      vertex -22.3308 -35.3 -116.919
      vertex -22.3308 -32.8 -116.919
    endloop
  endfacet
  facet normal -0.555882 0 0.831261
    outer loop
      vertex -22.3308 -35.3 -116.919
      vertex -22.7525 -32.8 -117.201
      vertex -22.7525 -35.3 -117.201
    endloop
  endfacet
  facet normal -0.195168 0 0.98077
    outer loop
      vertex -23.25 -32.8 -117.3
      vertex -22.7525 -35.3 -117.201
      vertex -22.7525 -32.8 -117.201
    endloop
  endfacet
  facet normal -0.195168 0 0.98077
    outer loop
      vertex -22.7525 -35.3 -117.201
      vertex -23.25 -32.8 -117.3
      vertex -23.25 -35.3 -117.3
    endloop
  endfacet
  facet normal 0.831626 0 -0.555337
    outer loop
      vertex -24.1692 -35.3 -115.081
      vertex -24.451 -32.8 -115.503
      vertex -24.1692 -32.8 -115.081
    endloop
  endfacet
  facet normal 0.831626 0 -0.555337
    outer loop
      vertex -24.451 -32.8 -115.503
      vertex -24.1692 -35.3 -115.081
      vertex -24.451 -35.3 -115.503
    endloop
  endfacet
  facet normal 0.980732 -0 0.195357
    outer loop
      vertex -24.55 -35.3 -116
      vertex -24.451 -32.8 -116.497
      vertex -24.55 -32.8 -116
    endloop
  endfacet
  facet normal 0.980732 0 0.195357
    outer loop
      vertex -24.451 -32.8 -116.497
      vertex -24.55 -35.3 -116
      vertex -24.451 -35.3 -116.497
    endloop
  endfacet
  facet normal -0.980732 0 -0.195357
    outer loop
      vertex -21.95 -35.3 -116
      vertex -22.049 -32.8 -115.503
      vertex -21.95 -32.8 -116
    endloop
  endfacet
  facet normal -0.980732 -0 -0.195357
    outer loop
      vertex -22.049 -32.8 -115.503
      vertex -21.95 -35.3 -116
      vertex -22.049 -35.3 -115.503
    endloop
  endfacet
  facet normal 0.555882 0 0.831261
    outer loop
      vertex -24.1692 -32.8 -116.919
      vertex -23.7475 -35.3 -117.201
      vertex -23.7475 -32.8 -117.201
    endloop
  endfacet
  facet normal 0.555882 0 0.831261
    outer loop
      vertex -23.7475 -35.3 -117.201
      vertex -24.1692 -32.8 -116.919
      vertex -24.1692 -35.3 -116.919
    endloop
  endfacet
  facet normal -0.555882 0 -0.831261
    outer loop
      vertex -22.7525 -35.3 -114.799
      vertex -22.3308 -32.8 -115.081
      vertex -22.3308 -35.3 -115.081
    endloop
  endfacet
  facet normal -0.555882 0 -0.831261
    outer loop
      vertex -22.3308 -32.8 -115.081
      vertex -22.7525 -35.3 -114.799
      vertex -22.7525 -32.8 -114.799
    endloop
  endfacet
  facet normal -0.195168 0 -0.98077
    outer loop
      vertex -23.25 -35.3 -114.7
      vertex -22.7525 -32.8 -114.799
      vertex -22.7525 -35.3 -114.799
    endloop
  endfacet
  facet normal -0.195168 0 -0.98077
    outer loop
      vertex -22.7525 -32.8 -114.799
      vertex -23.25 -35.3 -114.7
      vertex -23.25 -32.8 -114.7
    endloop
  endfacet
  facet normal 0.831626 -0 0.555337
    outer loop
      vertex -24.451 -35.3 -116.497
      vertex -24.1692 -32.8 -116.919
      vertex -24.451 -32.8 -116.497
    endloop
  endfacet
  facet normal 0.831626 0 0.555337
    outer loop
      vertex -24.1692 -32.8 -116.919
      vertex -24.451 -35.3 -116.497
      vertex -24.1692 -35.3 -116.919
    endloop
  endfacet
  facet normal 0.195168 0 0.98077
    outer loop
      vertex -23.7475 -32.8 -117.201
      vertex -23.25 -35.3 -117.3
      vertex -23.25 -32.8 -117.3
    endloop
  endfacet
  facet normal 0.195168 0 0.98077
    outer loop
      vertex -23.25 -35.3 -117.3
      vertex -23.7475 -32.8 -117.201
      vertex -23.7475 -35.3 -117.201
    endloop
  endfacet
  facet normal 0.195168 0 -0.98077
    outer loop
      vertex -23.7475 -35.3 -114.799
      vertex -23.25 -32.8 -114.7
      vertex -23.25 -35.3 -114.7
    endloop
  endfacet
  facet normal 0.195168 0 -0.98077
    outer loop
      vertex -23.25 -32.8 -114.7
      vertex -23.7475 -35.3 -114.799
      vertex -23.7475 -32.8 -114.799
    endloop
  endfacet
  facet normal -0.831626 0 -0.555337
    outer loop
      vertex -22.049 -35.3 -115.503
      vertex -22.3308 -32.8 -115.081
      vertex -22.049 -32.8 -115.503
    endloop
  endfacet
  facet normal -0.831626 -0 -0.555337
    outer loop
      vertex -22.3308 -32.8 -115.081
      vertex -22.049 -35.3 -115.503
      vertex -22.3308 -35.3 -115.081
    endloop
  endfacet
  facet normal 0.555882 0 -0.831261
    outer loop
      vertex -24.1692 -35.3 -115.081
      vertex -23.7475 -32.8 -114.799
      vertex -23.7475 -35.3 -114.799
    endloop
  endfacet
  facet normal 0.555882 0 -0.831261
    outer loop
      vertex -23.7475 -32.8 -114.799
      vertex -24.1692 -35.3 -115.081
      vertex -24.1692 -32.8 -115.081
    endloop
  endfacet
  facet normal 0.980732 0 -0.195357
    outer loop
      vertex -24.451 -35.3 -115.503
      vertex -24.55 -32.8 -116
      vertex -24.451 -32.8 -115.503
    endloop
  endfacet
  facet normal 0.980732 0 -0.195357
    outer loop
      vertex -24.55 -32.8 -116
      vertex -24.451 -35.3 -115.503
      vertex -24.55 -35.3 -116
    endloop
  endfacet
  facet normal -0.831626 0 0.555337
    outer loop
      vertex 5.46924 -35.3 -116.919
      vertex 5.75104 -32.8 -116.497
      vertex 5.46924 -32.8 -116.919
    endloop
  endfacet
  facet normal -0.831626 0 0.555337
    outer loop
      vertex 5.75104 -32.8 -116.497
      vertex 5.46924 -35.3 -116.919
      vertex 5.75104 -35.3 -116.497
    endloop
  endfacet
  facet normal -0.980747 0 0.195281
    outer loop
      vertex 5.75104 -35.3 -116.497
      vertex 5.85 -32.8 -116
      vertex 5.75104 -32.8 -116.497
    endloop
  endfacet
  facet normal -0.980747 0 0.195281
    outer loop
      vertex 5.85 -32.8 -116
      vertex 5.75104 -35.3 -116.497
      vertex 5.85 -35.3 -116
    endloop
  endfacet
  facet normal -0.555837 0 0.831291
    outer loop
      vertex 5.04749 -32.8 -117.201
      vertex 5.46924 -35.3 -116.919
      vertex 5.46924 -32.8 -116.919
    endloop
  endfacet
  facet normal -0.555837 0 0.831291
    outer loop
      vertex 5.46924 -35.3 -116.919
      vertex 5.04749 -32.8 -117.201
      vertex 5.04749 -35.3 -117.201
    endloop
  endfacet
  facet normal -0.195172 0 0.980769
    outer loop
      vertex 4.55 -32.8 -117.3
      vertex 5.04749 -35.3 -117.201
      vertex 5.04749 -32.8 -117.201
    endloop
  endfacet
  facet normal -0.195172 0 0.980769
    outer loop
      vertex 5.04749 -35.3 -117.201
      vertex 4.55 -32.8 -117.3
      vertex 4.55 -35.3 -117.3
    endloop
  endfacet
  facet normal 0.831626 0 -0.555337
    outer loop
      vertex 3.63076 -35.3 -115.081
      vertex 3.34896 -32.8 -115.503
      vertex 3.63076 -32.8 -115.081
    endloop
  endfacet
  facet normal 0.831626 0 -0.555337
    outer loop
      vertex 3.34896 -32.8 -115.503
      vertex 3.63076 -35.3 -115.081
      vertex 3.34896 -35.3 -115.503
    endloop
  endfacet
  facet normal 0.980747 -0 0.195281
    outer loop
      vertex 3.25 -35.3 -116
      vertex 3.34896 -32.8 -116.497
      vertex 3.25 -32.8 -116
    endloop
  endfacet
  facet normal 0.980747 0 0.195281
    outer loop
      vertex 3.34896 -32.8 -116.497
      vertex 3.25 -35.3 -116
      vertex 3.34896 -35.3 -116.497
    endloop
  endfacet
  facet normal -0.980747 0 -0.195281
    outer loop
      vertex 5.85 -35.3 -116
      vertex 5.75104 -32.8 -115.503
      vertex 5.85 -32.8 -116
    endloop
  endfacet
  facet normal -0.980747 -0 -0.195281
    outer loop
      vertex 5.75104 -32.8 -115.503
      vertex 5.85 -35.3 -116
      vertex 5.75104 -35.3 -115.503
    endloop
  endfacet
  facet normal 0.555837 0 0.831291
    outer loop
      vertex 3.63076 -32.8 -116.919
      vertex 4.05251 -35.3 -117.201
      vertex 4.05251 -32.8 -117.201
    endloop
  endfacet
  facet normal 0.555837 0 0.831291
    outer loop
      vertex 4.05251 -35.3 -117.201
      vertex 3.63076 -32.8 -116.919
      vertex 3.63076 -35.3 -116.919
    endloop
  endfacet
  facet normal -0.555837 0 -0.831291
    outer loop
      vertex 5.04749 -35.3 -114.799
      vertex 5.46924 -32.8 -115.081
      vertex 5.46924 -35.3 -115.081
    endloop
  endfacet
  facet normal -0.555837 0 -0.831291
    outer loop
      vertex 5.46924 -32.8 -115.081
      vertex 5.04749 -35.3 -114.799
      vertex 5.04749 -32.8 -114.799
    endloop
  endfacet
  facet normal -0.195172 0 -0.980769
    outer loop
      vertex 4.55 -35.3 -114.7
      vertex 5.04749 -32.8 -114.799
      vertex 5.04749 -35.3 -114.799
    endloop
  endfacet
  facet normal -0.195172 0 -0.980769
    outer loop
      vertex 5.04749 -32.8 -114.799
      vertex 4.55 -35.3 -114.7
      vertex 4.55 -32.8 -114.7
    endloop
  endfacet
  facet normal 0.831626 -0 0.555337
    outer loop
      vertex 3.34896 -35.3 -116.497
      vertex 3.63076 -32.8 -116.919
      vertex 3.34896 -32.8 -116.497
    endloop
  endfacet
  facet normal 0.831626 0 0.555337
    outer loop
      vertex 3.63076 -32.8 -116.919
      vertex 3.34896 -35.3 -116.497
      vertex 3.63076 -35.3 -116.919
    endloop
  endfacet
  facet normal 0.195172 0 0.980769
    outer loop
      vertex 4.05251 -32.8 -117.201
      vertex 4.55 -35.3 -117.3
      vertex 4.55 -32.8 -117.3
    endloop
  endfacet
  facet normal 0.195172 0 0.980769
    outer loop
      vertex 4.55 -35.3 -117.3
      vertex 4.05251 -32.8 -117.201
      vertex 4.05251 -35.3 -117.201
    endloop
  endfacet
  facet normal 0.195172 0 -0.980769
    outer loop
      vertex 4.05251 -35.3 -114.799
      vertex 4.55 -32.8 -114.7
      vertex 4.55 -35.3 -114.7
    endloop
  endfacet
  facet normal 0.195172 0 -0.980769
    outer loop
      vertex 4.55 -32.8 -114.7
      vertex 4.05251 -35.3 -114.799
      vertex 4.05251 -32.8 -114.799
    endloop
  endfacet
  facet normal -0.831626 0 -0.555337
    outer loop
      vertex 5.75104 -35.3 -115.503
      vertex 5.46924 -32.8 -115.081
      vertex 5.75104 -32.8 -115.503
    endloop
  endfacet
  facet normal -0.831626 -0 -0.555337
    outer loop
      vertex 5.46924 -32.8 -115.081
      vertex 5.75104 -35.3 -115.503
      vertex 5.46924 -35.3 -115.081
    endloop
  endfacet
  facet normal 0.555837 0 -0.831291
    outer loop
      vertex 3.63076 -35.3 -115.081
      vertex 4.05251 -32.8 -114.799
      vertex 4.05251 -35.3 -114.799
    endloop
  endfacet
  facet normal 0.555837 0 -0.831291
    outer loop
      vertex 4.05251 -32.8 -114.799
      vertex 3.63076 -35.3 -115.081
      vertex 3.63076 -32.8 -115.081
    endloop
  endfacet
  facet normal 0.980747 0 -0.195281
    outer loop
      vertex 3.34896 -35.3 -115.503
      vertex 3.25 -32.8 -116
      vertex 3.34896 -32.8 -115.503
    endloop
  endfacet
  facet normal 0.980747 0 -0.195281
    outer loop
      vertex 3.25 -32.8 -116
      vertex 3.34896 -35.3 -115.503
      vertex 3.25 -35.3 -116
    endloop
  endfacet
  facet normal -1 0 0
    outer loop
      vertex 2.3 -35.3 -122.5
      vertex 2.3 -32.8 -109.5
      vertex 2.3 -32.8 -122.5
    endloop
  endfacet
  facet normal -1 -0 0
    outer loop
      vertex 2.3 -32.8 -109.5
      vertex 2.3 -35.3 -122.5
      vertex 2.3 -35.3 -109.5
    endloop
  endfacet
  facet normal 1 -0 0
    outer loop
      vertex -21 -35.3 -109.5
      vertex -21 -32.8 -122.5
      vertex -21 -32.8 -109.5
    endloop
  endfacet
  facet normal 1 0 0
    outer loop
      vertex -21 -32.8 -122.5
      vertex -21 -35.3 -109.5
      vertex -21 -35.3 -122.5
    endloop
  endfacet
  facet normal -0 0 1
    outer loop
      vertex -21 -32.8 -122.5
      vertex 2.3 -35.3 -122.5
      vertex 2.3 -32.8 -122.5
    endloop
  endfacet
  facet normal 0 0 1
    outer loop
      vertex 2.3 -35.3 -122.5
      vertex -21 -32.8 -122.5
      vertex -21 -35.3 -122.5
    endloop
  endfacet
  facet normal 0 0 -1
    outer loop
      vertex -21 -35.3 -109.5
      vertex 2.3 -32.8 -109.5
      vertex 2.3 -35.3 -109.5
    endloop
  endfacet
  facet normal -0 0 -1
    outer loop
      vertex 2.3 -32.8 -109.5
      vertex -21 -35.3 -109.5
      vertex -21 -32.8 -109.5
    endloop
  endfacet
endsolid OpenSCAD_Model
