solid OpenSCAD_Model
  facet normal 0.997859 0.0654054 0
    outer loop
      vertex 4 0 -269.5
      vertex 3.90589 1.43579 -278
      vertex 3.90589 1.43579 -269.5
    endloop
  endfacet
  facet normal 0.997859 0.0654054 0
    outer loop
      vertex 3.90589 1.43579 -278
      vertex 4 0 -269.5
      vertex 4 0 -278
    endloop
  endfacet
  facet normal 0.980785 0.195091 0
    outer loop
      vertex 3.90589 1.43579 -269.5
      vertex 3.62518 2.84701 -278
      vertex 3.62518 2.84701 -269.5
    endloop
  endfacet
  facet normal 0.980785 0.195091 0
    outer loop
      vertex 3.62518 2.84701 -278
      vertex 3.90589 1.43579 -269.5
      vertex 3.90589 1.43579 -278
    endloop
  endfacet
  facet normal 0.94693 0.32144 0
    outer loop
      vertex 3.62518 2.84701 -269.5
      vertex 3.16267 4.20952 -278
      vertex 3.16267 4.20952 -269.5
    endloop
  endfacet
  facet normal 0.94693 0.32144 0
    outer loop
      vertex 3.16267 4.20952 -278
      vertex 3.62518 2.84701 -269.5
      vertex 3.62518 2.84701 -278
    endloop
  endfacet
  facet normal 0.896874 0.442286 0
    outer loop
      vertex 3.16267 4.20952 -269.5
      vertex 2.52628 5.5 -278
      vertex 2.52628 5.5 -269.5
    endloop
  endfacet
  facet normal 0.896874 0.442286 0
    outer loop
      vertex 2.52628 5.5 -278
      vertex 3.16267 4.20952 -269.5
      vertex 3.16267 4.20952 -278
    endloop
  endfacet
  facet normal 0.831471 0.555568 0
    outer loop
      vertex 2.52628 5.5 -269.5
      vertex 1.72689 6.69638 -278
      vertex 1.72689 6.69638 -269.5
    endloop
  endfacet
  facet normal 0.831471 0.555568 0
    outer loop
      vertex 1.72689 6.69638 -278
      vertex 2.52628 5.5 -269.5
      vertex 2.52628 5.5 -278
    endloop
  endfacet
  facet normal 0.751836 0.65935 0
    outer loop
      vertex 1.72689 6.69638 -269.5
      vertex 0.778175 7.77817 -278
      vertex 0.778175 7.77817 -269.5
    endloop
  endfacet
  facet normal 0.751836 0.65935 0
    outer loop
      vertex 0.778175 7.77817 -278
      vertex 1.72689 6.69638 -269.5
      vertex 1.72689 6.69638 -278
    endloop
  endfacet
  facet normal 0.659349 0.751837 -0
    outer loop
      vertex 0.778175 7.77817 -278
      vertex -0.303624 8.72689 -269.5
      vertex 0.778175 7.77817 -269.5
    endloop
  endfacet
  facet normal 0.659349 0.751837 0
    outer loop
      vertex -0.303624 8.72689 -269.5
      vertex 0.778175 7.77817 -278
      vertex -0.303624 8.72689 -278
    endloop
  endfacet
  facet normal 0.555569 0.831471 -0
    outer loop
      vertex -0.303624 8.72689 -278
      vertex -1.5 9.52628 -269.5
      vertex -0.303624 8.72689 -269.5
    endloop
  endfacet
  facet normal 0.555569 0.831471 0
    outer loop
      vertex -1.5 9.52628 -269.5
      vertex -0.303624 8.72689 -278
      vertex -1.5 9.52628 -278
    endloop
  endfacet
  facet normal 0.442303 0.896866 -0
    outer loop
      vertex -1.5 9.52628 -278
      vertex -2.79048 10.1627 -269.5
      vertex -1.5 9.52628 -269.5
    endloop
  endfacet
  facet normal 0.442303 0.896866 0
    outer loop
      vertex -2.79048 10.1627 -269.5
      vertex -1.5 9.52628 -278
      vertex -2.79048 10.1627 -278
    endloop
  endfacet
  facet normal 0.321433 0.946932 -0
    outer loop
      vertex -2.79048 10.1627 -278
      vertex -4.15299 10.6252 -269.5
      vertex -2.79048 10.1627 -269.5
    endloop
  endfacet
  facet normal 0.321433 0.946932 0
    outer loop
      vertex -4.15299 10.6252 -269.5
      vertex -2.79048 10.1627 -278
      vertex -4.15299 10.6252 -278
    endloop
  endfacet
  facet normal 0.195084 0.980786 -0
    outer loop
      vertex -4.15299 10.6252 -278
      vertex -5.56421 10.9059 -269.5
      vertex -4.15299 10.6252 -269.5
    endloop
  endfacet
  facet normal 0.195084 0.980786 0
    outer loop
      vertex -5.56421 10.9059 -269.5
      vertex -4.15299 10.6252 -278
      vertex -5.56421 10.9059 -278
    endloop
  endfacet
  facet normal 0.0653985 0.997859 -0
    outer loop
      vertex -5.56421 10.9059 -278
      vertex -7 11 -269.5
      vertex -5.56421 10.9059 -269.5
    endloop
  endfacet
  facet normal 0.0653985 0.997859 0
    outer loop
      vertex -7 11 -269.5
      vertex -5.56421 10.9059 -278
      vertex -7 11 -278
    endloop
  endfacet
  facet normal -0.0653985 0.997859 0
    outer loop
      vertex -7 11 -278
      vertex -8.43579 10.9059 -269.5
      vertex -7 11 -269.5
    endloop
  endfacet
  facet normal -0.0653985 0.997859 0
    outer loop
      vertex -8.43579 10.9059 -269.5
      vertex -7 11 -278
      vertex -8.43579 10.9059 -278
    endloop
  endfacet
  facet normal -0.195084 0.980786 0
    outer loop
      vertex -8.43579 10.9059 -278
      vertex -9.84701 10.6252 -269.5
      vertex -8.43579 10.9059 -269.5
    endloop
  endfacet
  facet normal -0.195084 0.980786 0
    outer loop
      vertex -9.84701 10.6252 -269.5
      vertex -8.43579 10.9059 -278
      vertex -9.84701 10.6252 -278
    endloop
  endfacet
  facet normal -0.321438 0.946931 0
    outer loop
      vertex -9.84701 10.6252 -278
      vertex -11.2095 10.1627 -269.5
      vertex -9.84701 10.6252 -269.5
    endloop
  endfacet
  facet normal -0.321438 0.946931 0
    outer loop
      vertex -11.2095 10.1627 -269.5
      vertex -9.84701 10.6252 -278
      vertex -11.2095 10.1627 -278
    endloop
  endfacet
  facet normal -0.442298 0.896868 0
    outer loop
      vertex -11.2095 10.1627 -278
      vertex -12.5 9.52628 -269.5
      vertex -11.2095 10.1627 -269.5
    endloop
  endfacet
  facet normal -0.442298 0.896868 0
    outer loop
      vertex -12.5 9.52628 -269.5
      vertex -11.2095 10.1627 -278
      vertex -12.5 9.52628 -278
    endloop
  endfacet
  facet normal -0.555561 0.831476 0
    outer loop
      vertex -12.5 9.52628 -278
      vertex -13.6964 8.72689 -269.5
      vertex -12.5 9.52628 -269.5
    endloop
  endfacet
  facet normal -0.555561 0.831476 0
    outer loop
      vertex -13.6964 8.72689 -269.5
      vertex -12.5 9.52628 -278
      vertex -13.6964 8.72689 -278
    endloop
  endfacet
  facet normal -0.659349 0.751837 0
    outer loop
      vertex -13.6964 8.72689 -278
      vertex -14.7782 7.77817 -269.5
      vertex -13.6964 8.72689 -269.5
    endloop
  endfacet
  facet normal -0.659349 0.751837 0
    outer loop
      vertex -14.7782 7.77817 -269.5
      vertex -13.6964 8.72689 -278
      vertex -14.7782 7.77817 -278
    endloop
  endfacet
  facet normal -0.751841 0.659344 0
    outer loop
      vertex -15.7269 6.69638 -278
      vertex -14.7782 7.77817 -269.5
      vertex -14.7782 7.77817 -278
    endloop
  endfacet
  facet normal -0.751841 0.659344 0
    outer loop
      vertex -14.7782 7.77817 -269.5
      vertex -15.7269 6.69638 -278
      vertex -15.7269 6.69638 -269.5
    endloop
  endfacet
  facet normal -0.831468 0.555572 0
    outer loop
      vertex -16.5263 5.5 -278
      vertex -15.7269 6.69638 -269.5
      vertex -15.7269 6.69638 -278
    endloop
  endfacet
  facet normal -0.831468 0.555572 0
    outer loop
      vertex -15.7269 6.69638 -269.5
      vertex -16.5263 5.5 -278
      vertex -16.5263 5.5 -269.5
    endloop
  endfacet
  facet normal -0.896871 0.442292 0
    outer loop
      vertex -17.1627 4.20952 -278
      vertex -16.5263 5.5 -269.5
      vertex -16.5263 5.5 -278
    endloop
  endfacet
  facet normal -0.896871 0.442292 0
    outer loop
      vertex -16.5263 5.5 -269.5
      vertex -17.1627 4.20952 -278
      vertex -17.1627 4.20952 -269.5
    endloop
  endfacet
  facet normal -0.946932 0.321433 0
    outer loop
      vertex -17.6252 2.84701 -278
      vertex -17.1627 4.20952 -269.5
      vertex -17.1627 4.20952 -278
    endloop
  endfacet
  facet normal -0.946932 0.321433 0
    outer loop
      vertex -17.1627 4.20952 -269.5
      vertex -17.6252 2.84701 -278
      vertex -17.6252 2.84701 -269.5
    endloop
  endfacet
  facet normal -0.980786 0.195084 0
    outer loop
      vertex -17.9059 1.43579 -278
      vertex -17.6252 2.84701 -269.5
      vertex -17.6252 2.84701 -278
    endloop
  endfacet
  facet normal -0.980786 0.195084 0
    outer loop
      vertex -17.6252 2.84701 -269.5
      vertex -17.9059 1.43579 -278
      vertex -17.9059 1.43579 -269.5
    endloop
  endfacet
  facet normal -0.997859 0.0653985 0
    outer loop
      vertex -18 0 -278
      vertex -17.9059 1.43579 -269.5
      vertex -17.9059 1.43579 -278
    endloop
  endfacet
  facet normal -0.997859 0.0653985 0
    outer loop
      vertex -17.9059 1.43579 -269.5
      vertex -18 0 -278
      vertex -18 0 -269.5
    endloop
  endfacet
  facet normal -0.997859 -0.0653985 0
    outer loop
      vertex -17.9059 -1.43579 -278
      vertex -18 0 -269.5
      vertex -18 0 -278
    endloop
  endfacet
  facet normal -0.997859 -0.0653985 0
    outer loop
      vertex -18 0 -269.5
      vertex -17.9059 -1.43579 -278
      vertex -17.9059 -1.43579 -269.5
    endloop
  endfacet
  facet normal -0.980786 -0.195084 0
    outer loop
      vertex -17.6252 -2.84701 -278
      vertex -17.9059 -1.43579 -269.5
      vertex -17.9059 -1.43579 -278
    endloop
  endfacet
  facet normal -0.980786 -0.195084 0
    outer loop
      vertex -17.9059 -1.43579 -269.5
      vertex -17.6252 -2.84701 -278
      vertex -17.6252 -2.84701 -269.5
    endloop
  endfacet
  facet normal -0.946932 -0.321433 0
    outer loop
      vertex -17.1627 -4.20952 -278
      vertex -17.6252 -2.84701 -269.5
      vertex -17.6252 -2.84701 -278
    endloop
  endfacet
  facet normal -0.946932 -0.321433 0
    outer loop
      vertex -17.6252 -2.84701 -269.5
      vertex -17.1627 -4.20952 -278
      vertex -17.1627 -4.20952 -269.5
    endloop
  endfacet
  facet normal -0.896871 -0.442292 0
    outer loop
      vertex -16.5263 -5.5 -278
      vertex -17.1627 -4.20952 -269.5
      vertex -17.1627 -4.20952 -278
    endloop
  endfacet
  facet normal -0.896871 -0.442292 0
    outer loop
      vertex -17.1627 -4.20952 -269.5
      vertex -16.5263 -5.5 -278
      vertex -16.5263 -5.5 -269.5
    endloop
  endfacet
  facet normal -0.831468 -0.555572 0
    outer loop
      vertex -15.7269 -6.69638 -278
      vertex -16.5263 -5.5 -269.5
      vertex -16.5263 -5.5 -278
    endloop
  endfacet
  facet normal -0.831468 -0.555572 0
    outer loop
      vertex -16.5263 -5.5 -269.5
      vertex -15.7269 -6.69638 -278
      vertex -15.7269 -6.69638 -269.5
    endloop
  endfacet
  facet normal -0.751841 -0.659344 0
    outer loop
      vertex -14.7782 -7.77817 -278
      vertex -15.7269 -6.69638 -269.5
      vertex -15.7269 -6.69638 -278
    endloop
  endfacet
  facet normal -0.751841 -0.659344 0
    outer loop
      vertex -15.7269 -6.69638 -269.5
      vertex -14.7782 -7.77817 -278
      vertex -14.7782 -7.77817 -269.5
    endloop
  endfacet
  facet normal -0.659349 -0.751837 0
    outer loop
      vertex -14.7782 -7.77817 -278
      vertex -13.6964 -8.72689 -269.5
      vertex -14.7782 -7.77817 -269.5
    endloop
  endfacet
  facet normal -0.659349 -0.751837 -0
    outer loop
      vertex -13.6964 -8.72689 -269.5
      vertex -14.7782 -7.77817 -278
      vertex -13.6964 -8.72689 -278
    endloop
  endfacet
  facet normal -0.555561 -0.831476 0
    outer loop
      vertex -13.6964 -8.72689 -278
      vertex -12.5 -9.52628 -269.5
      vertex -13.6964 -8.72689 -269.5
    endloop
  endfacet
  facet normal -0.555561 -0.831476 -0
    outer loop
      vertex -12.5 -9.52628 -269.5
      vertex -13.6964 -8.72689 -278
      vertex -12.5 -9.52628 -278
    endloop
  endfacet
  facet normal -0.442298 -0.896868 0
    outer loop
      vertex -12.5 -9.52628 -278
      vertex -11.2095 -10.1627 -269.5
      vertex -12.5 -9.52628 -269.5
    endloop
  endfacet
  facet normal -0.442298 -0.896868 -0
    outer loop
      vertex -11.2095 -10.1627 -269.5
      vertex -12.5 -9.52628 -278
      vertex -11.2095 -10.1627 -278
    endloop
  endfacet
  facet normal -0.321438 -0.946931 0
    outer loop
      vertex -11.2095 -10.1627 -278
      vertex -9.84701 -10.6252 -269.5
      vertex -11.2095 -10.1627 -269.5
    endloop
  endfacet
  facet normal -0.321438 -0.946931 -0
    outer loop
      vertex -9.84701 -10.6252 -269.5
      vertex -11.2095 -10.1627 -278
      vertex -9.84701 -10.6252 -278
    endloop
  endfacet
  facet normal -0.195084 -0.980786 0
    outer loop
      vertex -9.84701 -10.6252 -278
      vertex -8.43579 -10.9059 -269.5
      vertex -9.84701 -10.6252 -269.5
    endloop
  endfacet
  facet normal -0.195084 -0.980786 -0
    outer loop
      vertex -8.43579 -10.9059 -269.5
      vertex -9.84701 -10.6252 -278
      vertex -8.43579 -10.9059 -278
    endloop
  endfacet
  facet normal -0.0653985 -0.997859 0
    outer loop
      vertex -8.43579 -10.9059 -278
      vertex -7 -11 -269.5
      vertex -8.43579 -10.9059 -269.5
    endloop
  endfacet
  facet normal -0.0653985 -0.997859 -0
    outer loop
      vertex -7 -11 -269.5
      vertex -8.43579 -10.9059 -278
      vertex -7 -11 -278
    endloop
  endfacet
  facet normal 0.0653985 -0.997859 0
    outer loop
      vertex -7 -11 -278
      vertex -5.56421 -10.9059 -269.5
      vertex -7 -11 -269.5
    endloop
  endfacet
  facet normal 0.0653985 -0.997859 0
    outer loop
      vertex -5.56421 -10.9059 -269.5
      vertex -7 -11 -278
      vertex -5.56421 -10.9059 -278
    endloop
  endfacet
  facet normal 0.195084 -0.980786 0
    outer loop
      vertex -5.56421 -10.9059 -278
      vertex -4.15299 -10.6252 -269.5
      vertex -5.56421 -10.9059 -269.5
    endloop
  endfacet
  facet normal 0.195084 -0.980786 0
    outer loop
      vertex -4.15299 -10.6252 -269.5
      vertex -5.56421 -10.9059 -278
      vertex -4.15299 -10.6252 -278
    endloop
  endfacet
  facet normal 0.321433 -0.946932 0
    outer loop
      vertex -4.15299 -10.6252 -278
      vertex -2.79048 -10.1627 -269.5
      vertex -4.15299 -10.6252 -269.5
    endloop
  endfacet
  facet normal 0.321433 -0.946932 0
    outer loop
      vertex -2.79048 -10.1627 -269.5
      vertex -4.15299 -10.6252 -278
      vertex -2.79048 -10.1627 -278
    endloop
  endfacet
  facet normal 0.442303 -0.896866 0
    outer loop
      vertex -2.79048 -10.1627 -278
      vertex -1.5 -9.52628 -269.5
      vertex -2.79048 -10.1627 -269.5
    endloop
  endfacet
  facet normal 0.442303 -0.896866 0
    outer loop
      vertex -1.5 -9.52628 -269.5
      vertex -2.79048 -10.1627 -278
      vertex -1.5 -9.52628 -278
    endloop
  endfacet
  facet normal 0.555569 -0.831471 0
    outer loop
      vertex -1.5 -9.52628 -278
      vertex -0.303624 -8.72689 -269.5
      vertex -1.5 -9.52628 -269.5
    endloop
  endfacet
  facet normal 0.555569 -0.831471 0
    outer loop
      vertex -0.303624 -8.72689 -269.5
      vertex -1.5 -9.52628 -278
      vertex -0.303624 -8.72689 -278
    endloop
  endfacet
  facet normal 0.659349 -0.751837 0
    outer loop
      vertex -0.303624 -8.72689 -278
      vertex 0.778175 -7.77817 -269.5
      vertex -0.303624 -8.72689 -269.5
    endloop
  endfacet
  facet normal 0.659349 -0.751837 0
    outer loop
      vertex 0.778175 -7.77817 -269.5
      vertex -0.303624 -8.72689 -278
      vertex 0.778175 -7.77817 -278
    endloop
  endfacet
  facet normal 0.751836 -0.65935 0
    outer loop
      vertex 0.778175 -7.77817 -269.5
      vertex 1.72689 -6.69638 -278
      vertex 1.72689 -6.69638 -269.5
    endloop
  endfacet
  facet normal 0.751836 -0.65935 0
    outer loop
      vertex 1.72689 -6.69638 -278
      vertex 0.778175 -7.77817 -269.5
      vertex 0.778175 -7.77817 -278
    endloop
  endfacet
  facet normal 0.831471 -0.555568 0
    outer loop
      vertex 1.72689 -6.69638 -269.5
      vertex 2.52628 -5.5 -278
      vertex 2.52628 -5.5 -269.5
    endloop
  endfacet
  facet normal 0.831471 -0.555568 0
    outer loop
      vertex 2.52628 -5.5 -278
      vertex 1.72689 -6.69638 -269.5
      vertex 1.72689 -6.69638 -278
    endloop
  endfacet
  facet normal 0.896874 -0.442286 0
    outer loop
      vertex 2.52628 -5.5 -269.5
      vertex 3.16267 -4.20952 -278
      vertex 3.16267 -4.20952 -269.5
    endloop
  endfacet
  facet normal 0.896874 -0.442286 0
    outer loop
      vertex 3.16267 -4.20952 -278
      vertex 2.52628 -5.5 -269.5
      vertex 2.52628 -5.5 -278
    endloop
  endfacet
  facet normal 0.94693 -0.32144 0
    outer loop
      vertex 3.16267 -4.20952 -269.5
      vertex 3.62518 -2.84701 -278
      vertex 3.62518 -2.84701 -269.5
    endloop
  endfacet
  facet normal 0.94693 -0.32144 0
    outer loop
      vertex 3.62518 -2.84701 -278
      vertex 3.16267 -4.20952 -269.5
      vertex 3.16267 -4.20952 -278
    endloop
  endfacet
  facet normal 0.980785 -0.195091 0
    outer loop
      vertex 3.62518 -2.84701 -269.5
      vertex 3.90589 -1.43579 -278
      vertex 3.90589 -1.43579 -269.5
    endloop
  endfacet
  facet normal 0.980785 -0.195091 0
    outer loop
      vertex 3.90589 -1.43579 -278
      vertex 3.62518 -2.84701 -269.5
      vertex 3.62518 -2.84701 -278
    endloop
  endfacet
  facet normal 0.997859 -0.0654054 0
    outer loop
      vertex 3.90589 -1.43579 -269.5
      vertex 4 0 -278
      vertex 4 0 -269.5
    endloop
  endfacet
  facet normal 0.997859 -0.0654054 0
    outer loop
      vertex 4 0 -278
      vertex 3.90589 -1.43579 -269.5
      vertex 3.90589 -1.43579 -278
    endloop
  endfacet
  facet normal 0 0 -1
    outer loop
      vertex 3.90589 -1.43579 -278
      vertex 3.90589 1.43579 -278
      vertex 4 0 -278
    endloop
  endfacet
  facet normal 0 0 -1
    outer loop
      vertex 3.62518 -2.84701 -278
      vertex 3.90589 1.43579 -278
      vertex 3.90589 -1.43579 -278
    endloop
  endfacet
  facet normal 0 0 -1
    outer loop
      vertex 3.62518 -2.84701 -278
      vertex 3.62518 2.84701 -278
      vertex 3.90589 1.43579 -278
    endloop
  endfacet
  facet normal 0 0 -1
    outer loop
      vertex 3.16267 -4.20952 -278
      vertex 3.62518 2.84701 -278
      vertex 3.62518 -2.84701 -278
    endloop
  endfacet
  facet normal 0 0 -1
    outer loop
      vertex 3.16267 -4.20952 -278
      vertex 3.16267 4.20952 -278
      vertex 3.62518 2.84701 -278
    endloop
  endfacet
  facet normal 0 0 -1
    outer loop
      vertex 2.52628 -5.5 -278
      vertex 3.16267 4.20952 -278
      vertex 3.16267 -4.20952 -278
    endloop
  endfacet
  facet normal 0 0 -1
    outer loop
      vertex 2.52628 -5.5 -278
      vertex 2.52628 5.5 -278
      vertex 3.16267 4.20952 -278
    endloop
  endfacet
  facet normal 0 0 -1
    outer loop
      vertex 1.72689 -6.69638 -278
      vertex 2.52628 5.5 -278
      vertex 2.52628 -5.5 -278
    endloop
  endfacet
  facet normal 0 0 -1
    outer loop
      vertex 1.72689 -6.69638 -278
      vertex 1.72689 6.69638 -278
      vertex 2.52628 5.5 -278
    endloop
  endfacet
  facet normal 0 0 -1
    outer loop
      vertex 0.778175 -7.77817 -278
      vertex 1.72689 6.69638 -278
      vertex 1.72689 -6.69638 -278
    endloop
  endfacet
  facet normal 0 0 -1
    outer loop
      vertex 0.778175 -7.77817 -278
      vertex 0.778175 7.77817 -278
      vertex 1.72689 6.69638 -278
    endloop
  endfacet
  facet normal 0 0 -1
    outer loop
      vertex -0.303624 -8.72689 -278
      vertex 0.778175 7.77817 -278
      vertex 0.778175 -7.77817 -278
    endloop
  endfacet
  facet normal 0 0 -1
    outer loop
      vertex -0.303624 -8.72689 -278
      vertex -0.303624 8.72689 -278
      vertex 0.778175 7.77817 -278
    endloop
  endfacet
  facet normal 0 0 -1
    outer loop
      vertex -1.5 -9.52628 -278
      vertex -0.303624 8.72689 -278
      vertex -0.303624 -8.72689 -278
    endloop
  endfacet
  facet normal 0 0 -1
    outer loop
      vertex -1.5 -9.52628 -278
      vertex -1.5 9.52628 -278
      vertex -0.303624 8.72689 -278
    endloop
  endfacet
  facet normal 0 0 -1
    outer loop
      vertex -2.79048 -10.1627 -278
      vertex -1.5 9.52628 -278
      vertex -1.5 -9.52628 -278
    endloop
  endfacet
  facet normal 0 0 -1
    outer loop
      vertex -2.79048 -10.1627 -278
      vertex -2.79048 10.1627 -278
      vertex -1.5 9.52628 -278
    endloop
  endfacet
  facet normal 0 0 -1
    outer loop
      vertex -4.15299 -10.6252 -278
      vertex -2.79048 10.1627 -278
      vertex -2.79048 -10.1627 -278
    endloop
  endfacet
  facet normal 0 0 -1
    outer loop
      vertex -4.15299 -10.6252 -278
      vertex -4.15299 10.6252 -278
      vertex -2.79048 10.1627 -278
    endloop
  endfacet
  facet normal 0 0 -1
    outer loop
      vertex -5.56421 -10.9059 -278
      vertex -4.15299 10.6252 -278
      vertex -4.15299 -10.6252 -278
    endloop
  endfacet
  facet normal 0 0 -1
    outer loop
      vertex -5.56421 -10.9059 -278
      vertex -5.56421 10.9059 -278
      vertex -4.15299 10.6252 -278
    endloop
  endfacet
  facet normal 0 0 -1
    outer loop
      vertex -7 -11 -278
      vertex -5.56421 10.9059 -278
      vertex -5.56421 -10.9059 -278
    endloop
  endfacet
  facet normal 0 0 -1
    outer loop
      vertex -7 -11 -278
      vertex -7 11 -278
      vertex -5.56421 10.9059 -278
    endloop
  endfacet
  facet normal 0 0 -1
    outer loop
      vertex -8.43579 -10.9059 -278
      vertex -7 11 -278
      vertex -7 -11 -278
    endloop
  endfacet
  facet normal 0 0 -1
    outer loop
      vertex -8.43579 -10.9059 -278
      vertex -8.43579 10.9059 -278
      vertex -7 11 -278
    endloop
  endfacet
  facet normal 0 0 -1
    outer loop
      vertex -9.84701 -10.6252 -278
      vertex -8.43579 10.9059 -278
      vertex -8.43579 -10.9059 -278
    endloop
  endfacet
  facet normal 0 0 -1
    outer loop
      vertex -9.84701 -10.6252 -278
      vertex -9.84701 10.6252 -278
      vertex -8.43579 10.9059 -278
    endloop
  endfacet
  facet normal 0 0 -1
    outer loop
      vertex -11.2095 -10.1627 -278
      vertex -9.84701 10.6252 -278
      vertex -9.84701 -10.6252 -278
    endloop
  endfacet
  facet normal 0 0 -1
    outer loop
      vertex -11.2095 -10.1627 -278
      vertex -11.2095 10.1627 -278
      vertex -9.84701 10.6252 -278
    endloop
  endfacet
  facet normal 0 0 -1
    outer loop
      vertex -12.5 -9.52628 -278
      vertex -11.2095 10.1627 -278
      vertex -11.2095 -10.1627 -278
    endloop
  endfacet
  facet normal 0 0 -1
    outer loop
      vertex -12.5 -9.52628 -278
      vertex -12.5 9.52628 -278
      vertex -11.2095 10.1627 -278
    endloop
  endfacet
  facet normal 0 0 -1
    outer loop
      vertex -13.6964 -8.72689 -278
      vertex -12.5 9.52628 -278
      vertex -12.5 -9.52628 -278
    endloop
  endfacet
  facet normal 0 0 -1
    outer loop
      vertex -13.6964 -8.72689 -278
      vertex -13.6964 8.72689 -278
      vertex -12.5 9.52628 -278
    endloop
  endfacet
  facet normal 0 0 -1
    outer loop
      vertex -14.7782 -7.77817 -278
      vertex -13.6964 8.72689 -278
      vertex -13.6964 -8.72689 -278
    endloop
  endfacet
  facet normal 0 0 -1
    outer loop
      vertex -14.7782 -7.77817 -278
      vertex -14.7782 7.77817 -278
      vertex -13.6964 8.72689 -278
    endloop
  endfacet
  facet normal 0 0 -1
    outer loop
      vertex -15.7269 -6.69638 -278
      vertex -14.7782 7.77817 -278
      vertex -14.7782 -7.77817 -278
    endloop
  endfacet
  facet normal 0 0 -1
    outer loop
      vertex -15.7269 -6.69638 -278
      vertex -15.7269 6.69638 -278
      vertex -14.7782 7.77817 -278
    endloop
  endfacet
  facet normal 0 0 -1
    outer loop
      vertex -16.5263 -5.5 -278
      vertex -15.7269 6.69638 -278
      vertex -15.7269 -6.69638 -278
    endloop
  endfacet
  facet normal 0 0 -1
    outer loop
      vertex -16.5263 -5.5 -278
      vertex -16.5263 5.5 -278
      vertex -15.7269 6.69638 -278
    endloop
  endfacet
  facet normal 0 0 -1
    outer loop
      vertex -17.1627 -4.20952 -278
      vertex -16.5263 5.5 -278
      vertex -16.5263 -5.5 -278
    endloop
  endfacet
  facet normal 0 0 -1
    outer loop
      vertex -17.1627 -4.20952 -278
      vertex -17.1627 4.20952 -278
      vertex -16.5263 5.5 -278
    endloop
  endfacet
  facet normal 0 0 -1
    outer loop
      vertex -17.6252 -2.84701 -278
      vertex -17.1627 4.20952 -278
      vertex -17.1627 -4.20952 -278
    endloop
  endfacet
  facet normal 0 0 -1
    outer loop
      vertex -17.6252 -2.84701 -278
      vertex -17.6252 2.84701 -278
      vertex -17.1627 4.20952 -278
    endloop
  endfacet
  facet normal 0 0 -1
    outer loop
      vertex -17.9059 -1.43579 -278
      vertex -17.6252 2.84701 -278
      vertex -17.6252 -2.84701 -278
    endloop
  endfacet
  facet normal 0 0 -1
    outer loop
      vertex -17.9059 -1.43579 -278
      vertex -17.9059 1.43579 -278
      vertex -17.6252 2.84701 -278
    endloop
  endfacet
  facet normal 0 -0 -1
    outer loop
      vertex -17.9059 1.43579 -278
      vertex -17.9059 -1.43579 -278
      vertex -18 0 -278
    endloop
  endfacet
  facet normal 0 0 1
    outer loop
      vertex 3.90589 1.43579 -269.5
      vertex 3.90589 -1.43579 -269.5
      vertex 4 0 -269.5
    endloop
  endfacet
  facet normal 0 0 1
    outer loop
      vertex 3.62518 2.84701 -269.5
      vertex 3.90589 -1.43579 -269.5
      vertex 3.90589 1.43579 -269.5
    endloop
  endfacet
  facet normal 0 0 1
    outer loop
      vertex 3.62518 2.84701 -269.5
      vertex 3.62518 -2.84701 -269.5
      vertex 3.90589 -1.43579 -269.5
    endloop
  endfacet
  facet normal 0 0 1
    outer loop
      vertex 3.16267 4.20952 -269.5
      vertex 3.62518 -2.84701 -269.5
      vertex 3.62518 2.84701 -269.5
    endloop
  endfacet
  facet normal 0 0 1
    outer loop
      vertex 3.16267 4.20952 -269.5
      vertex 3.16267 -4.20952 -269.5
      vertex 3.62518 -2.84701 -269.5
    endloop
  endfacet
  facet normal 0 0 1
    outer loop
      vertex 2.52628 5.5 -269.5
      vertex 3.16267 -4.20952 -269.5
      vertex 3.16267 4.20952 -269.5
    endloop
  endfacet
  facet normal 0 0 1
    outer loop
      vertex 2.52628 5.5 -269.5
      vertex 2.52628 -5.5 -269.5
      vertex 3.16267 -4.20952 -269.5
    endloop
  endfacet
  facet normal 0 0 1
    outer loop
      vertex 1.72689 6.69638 -269.5
      vertex 2.52628 -5.5 -269.5
      vertex 2.52628 5.5 -269.5
    endloop
  endfacet
  facet normal 0 0 1
    outer loop
      vertex 1.72689 6.69638 -269.5
      vertex 1.72689 -6.69638 -269.5
      vertex 2.52628 -5.5 -269.5
    endloop
  endfacet
  facet normal 0 0 1
    outer loop
      vertex 0.778175 7.77817 -269.5
      vertex 1.72689 -6.69638 -269.5
      vertex 1.72689 6.69638 -269.5
    endloop
  endfacet
  facet normal 0 0 1
    outer loop
      vertex 0.778175 7.77817 -269.5
      vertex 0.778175 -7.77817 -269.5
      vertex 1.72689 -6.69638 -269.5
    endloop
  endfacet
  facet normal 0 0 1
    outer loop
      vertex -0.303624 8.72689 -269.5
      vertex 0.778175 -7.77817 -269.5
      vertex 0.778175 7.77817 -269.5
    endloop
  endfacet
  facet normal 0 0 1
    outer loop
      vertex -0.303624 8.72689 -269.5
      vertex -0.303624 -8.72689 -269.5
      vertex 0.778175 -7.77817 -269.5
    endloop
  endfacet
  facet normal 0 0 1
    outer loop
      vertex -1.5 9.52628 -269.5
      vertex -0.303624 -8.72689 -269.5
      vertex -0.303624 8.72689 -269.5
    endloop
  endfacet
  facet normal 0 0 1
    outer loop
      vertex -1.5 9.52628 -269.5
      vertex -1.5 -9.52628 -269.5
      vertex -0.303624 -8.72689 -269.5
    endloop
  endfacet
  facet normal 0 0 1
    outer loop
      vertex -2.79048 10.1627 -269.5
      vertex -1.5 -9.52628 -269.5
      vertex -1.5 9.52628 -269.5
    endloop
  endfacet
  facet normal 0 0 1
    outer loop
      vertex -2.79048 10.1627 -269.5
      vertex -2.79048 -10.1627 -269.5
      vertex -1.5 -9.52628 -269.5
    endloop
  endfacet
  facet normal 0 0 1
    outer loop
      vertex -4.15299 10.6252 -269.5
      vertex -2.79048 -10.1627 -269.5
      vertex -2.79048 10.1627 -269.5
    endloop
  endfacet
  facet normal 0 0 1
    outer loop
      vertex -4.15299 10.6252 -269.5
      vertex -4.15299 -10.6252 -269.5
      vertex -2.79048 -10.1627 -269.5
    endloop
  endfacet
  facet normal 0 0 1
    outer loop
      vertex -5.56421 10.9059 -269.5
      vertex -4.15299 -10.6252 -269.5
      vertex -4.15299 10.6252 -269.5
    endloop
  endfacet
  facet normal 0 0 1
    outer loop
      vertex -5.56421 10.9059 -269.5
      vertex -5.56421 -10.9059 -269.5
      vertex -4.15299 -10.6252 -269.5
    endloop
  endfacet
  facet normal 0 0 1
    outer loop
      vertex -7 11 -269.5
      vertex -5.56421 -10.9059 -269.5
      vertex -5.56421 10.9059 -269.5
    endloop
  endfacet
  facet normal 0 0 1
    outer loop
      vertex -7 11 -269.5
      vertex -7 -11 -269.5
      vertex -5.56421 -10.9059 -269.5
    endloop
  endfacet
  facet normal -0 0 1
    outer loop
      vertex -8.43579 10.9059 -269.5
      vertex -7 -11 -269.5
      vertex -7 11 -269.5
    endloop
  endfacet
  facet normal 0 0 1
    outer loop
      vertex -8.43579 10.9059 -269.5
      vertex -8.43579 -10.9059 -269.5
      vertex -7 -11 -269.5
    endloop
  endfacet
  facet normal -0 0 1
    outer loop
      vertex -9.84701 10.6252 -269.5
      vertex -8.43579 -10.9059 -269.5
      vertex -8.43579 10.9059 -269.5
    endloop
  endfacet
  facet normal 0 0 1
    outer loop
      vertex -9.84701 10.6252 -269.5
      vertex -9.84701 -10.6252 -269.5
      vertex -8.43579 -10.9059 -269.5
    endloop
  endfacet
  facet normal -0 0 1
    outer loop
      vertex -11.2095 10.1627 -269.5
      vertex -9.84701 -10.6252 -269.5
      vertex -9.84701 10.6252 -269.5
    endloop
  endfacet
  facet normal 0 0 1
    outer loop
      vertex -11.2095 10.1627 -269.5
      vertex -11.2095 -10.1627 -269.5
      vertex -9.84701 -10.6252 -269.5
    endloop
  endfacet
  facet normal -0 0 1
    outer loop
      vertex -12.5 9.52628 -269.5
      vertex -11.2095 -10.1627 -269.5
      vertex -11.2095 10.1627 -269.5
    endloop
  endfacet
  facet normal 0 0 1
    outer loop
      vertex -12.5 9.52628 -269.5
      vertex -12.5 -9.52628 -269.5
      vertex -11.2095 -10.1627 -269.5
    endloop
  endfacet
  facet normal -0 0 1
    outer loop
      vertex -13.6964 8.72689 -269.5
      vertex -12.5 -9.52628 -269.5
      vertex -12.5 9.52628 -269.5
    endloop
  endfacet
  facet normal 0 0 1
    outer loop
      vertex -13.6964 8.72689 -269.5
      vertex -13.6964 -8.72689 -269.5
      vertex -12.5 -9.52628 -269.5
    endloop
  endfacet
  facet normal -0 0 1
    outer loop
      vertex -14.7782 7.77817 -269.5
      vertex -13.6964 -8.72689 -269.5
      vertex -13.6964 8.72689 -269.5
    endloop
  endfacet
  facet normal 0 0 1
    outer loop
      vertex -14.7782 7.77817 -269.5
      vertex -14.7782 -7.77817 -269.5
      vertex -13.6964 -8.72689 -269.5
    endloop
  endfacet
  facet normal -0 0 1
    outer loop
      vertex -15.7269 6.69638 -269.5
      vertex -14.7782 -7.77817 -269.5
      vertex -14.7782 7.77817 -269.5
    endloop
  endfacet
  facet normal 0 0 1
    outer loop
      vertex -15.7269 6.69638 -269.5
      vertex -15.7269 -6.69638 -269.5
      vertex -14.7782 -7.77817 -269.5
    endloop
  endfacet
  facet normal -0 0 1
    outer loop
      vertex -16.5263 5.5 -269.5
      vertex -15.7269 -6.69638 -269.5
      vertex -15.7269 6.69638 -269.5
    endloop
  endfacet
  facet normal 0 0 1
    outer loop
      vertex -16.5263 5.5 -269.5
      vertex -16.5263 -5.5 -269.5
      vertex -15.7269 -6.69638 -269.5
    endloop
  endfacet
  facet normal -0 0 1
    outer loop
      vertex -17.1627 4.20952 -269.5
      vertex -16.5263 -5.5 -269.5
      vertex -16.5263 5.5 -269.5
    endloop
  endfacet
  facet normal 0 0 1
    outer loop
      vertex -17.1627 4.20952 -269.5
      vertex -17.1627 -4.20952 -269.5
      vertex -16.5263 -5.5 -269.5
    endloop
  endfacet
  facet normal -0 0 1
    outer loop
      vertex -17.6252 2.84701 -269.5
      vertex -17.1627 -4.20952 -269.5
      vertex -17.1627 4.20952 -269.5
    endloop
  endfacet
  facet normal 0 0 1
    outer loop
      vertex -17.6252 2.84701 -269.5
      vertex -17.6252 -2.84701 -269.5
      vertex -17.1627 -4.20952 -269.5
    endloop
  endfacet
  facet normal -0 0 1
    outer loop
      vertex -17.9059 1.43579 -269.5
      vertex -17.6252 -2.84701 -269.5
      vertex -17.6252 2.84701 -269.5
    endloop
  endfacet
  facet normal 0 0 1
    outer loop
      vertex -17.9059 1.43579 -269.5
      vertex -17.9059 -1.43579 -269.5
      vertex -17.6252 -2.84701 -269.5
    endloop
  endfacet
  facet normal 0 -0 1
    outer loop
      vertex -17.9059 -1.43579 -269.5
      vertex -17.9059 1.43579 -269.5
      vertex -18 0 -269.5
    endloop
  endfacet
endsolid OpenSCAD_Model
