solid OpenSCAD_Model
  facet normal -1 -0 0
    outer loop
      vertex 34 46.0584 -93.4107
      vertex 34 40.9231 -95.1473
      vertex 34 45.7175 -92.7416
    endloop
  endfacet
  facet normal -1 -0 0
    outer loop
      vertex 34 40.5557 -94.1379
      vertex 34 38.2301 -94.1796
      vertex 34 38.0738 -93.2933
    endloop
  endfacet
  facet normal -1 0 -0
    outer loop
      vertex 34 46.0584 -93.4107
      vertex 34 46.5893 -93.9416
      vertex 34 42.4264 -97.378
    endloop
  endfacet
  facet normal -1 -0 0
    outer loop
      vertex 34 55.4443 -94.1379
      vertex 34 55.2826 -94.6507
      vertex 34 50.2825 -92.7416
    endloop
  endfacet
  facet normal -1 0 0
    outer loop
      vertex 34 47.1872 -99.7024
      vertex 34 46.6542 -99.6322
      vertex 34 48 -94.4
    endloop
  endfacet
  facet normal -1 0 0
    outer loop
      vertex 34 40.9231 -95.1473
      vertex 34 39.5648 -97.3897
      vertex 34 39.1148 -96.6103
    endloop
  endfacet
  facet normal -1 0 -0
    outer loop
      vertex 34 40.9231 -95.1473
      vertex 34 41.7359 -96.5551
      vertex 34 39.5648 -97.3897
    endloop
  endfacet
  facet normal -1 0 0
    outer loop
      vertex 34 49.4107 -93.9416
      vertex 34 51.875 -98.7117
      vertex 34 51.3981 -98.9599
    endloop
  endfacet
  facet normal -1 0 0
    outer loop
      vertex 34 42.4264 -97.378
      vertex 34 46.5893 -93.9416
      vertex 34 43.6716 -98.4228
    endloop
  endfacet
  facet normal -1 0 0
    outer loop
      vertex 34 46.5893 -93.9416
      vertex 34 44.6019 -98.9599
      vertex 34 44.125 -98.7117
    endloop
  endfacet
  facet normal -1 0 0
    outer loop
      vertex 34 43.6716 -98.4228
      vertex 34 41.9169 -99.9497
      vertex 34 41.2274 -99.3712
    endloop
  endfacet
  facet normal -1 0 -0
    outer loop
      vertex 34 42.4264 -97.378
      vertex 34 43.6716 -98.4228
      vertex 34 41.2274 -99.3712
    endloop
  endfacet
  facet normal -1 0 0
    outer loop
      vertex 34 52.3284 -98.4228
      vertex 34 49.4107 -93.9416
      vertex 34 53.5736 -97.378
    endloop
  endfacet
  facet normal -1 0 0
    outer loop
      vertex 34 47.2584 -94.2825
      vertex 34 46.6542 -99.6322
      vertex 34 46.1294 -99.5159
    endloop
  endfacet
  facet normal -1 0 0
    outer loop
      vertex 34 48.8128 -99.7024
      vertex 34 48 -94.4
      vertex 34 49.3458 -99.6322
    endloop
  endfacet
  facet normal -1 0 0
    outer loop
      vertex 34 46.1294 -99.5159
      vertex 34 45.0027 -101.551
      vertex 34 44.157 -101.243
    endloop
  endfacet
  facet normal -1 0 -0
    outer loop
      vertex 34 44.6019 -98.9599
      vertex 34 46.1294 -99.5159
      vertex 34 44.157 -101.243
    endloop
  endfacet
  facet normal -1 0 0
    outer loop
      vertex 34 49.4107 -90.0584
      vertex 34 53.5736 -86.622
      vertex 34 49.9416 -90.5893
    endloop
  endfacet
  facet normal -1 0 -0
    outer loop
      vertex 34 48.7416 -94.2825
      vertex 34 49.3458 -99.6322
      vertex 34 48 -94.4
    endloop
  endfacet
  facet normal -1 0 0
    outer loop
      vertex 34 49.9416 -93.4107
      vertex 34 53.9368 -96.9816
      vertex 34 53.5736 -97.378
    endloop
  endfacet
  facet normal -1 0 0
    outer loop
      vertex 34 48.8128 -99.7024
      vertex 34 48.45 -102
      vertex 34 47.55 -102
    endloop
  endfacet
  facet normal -1 0 0
    outer loop
      vertex 34 47.1872 -99.7024
      vertex 34 48.8128 -99.7024
      vertex 34 47.55 -102
    endloop
  endfacet
  facet normal -1 0 0
    outer loop
      vertex 34 55.0769 -95.1473
      vertex 34 50.2825 -92.7416
      vertex 34 55.2826 -94.6507
    endloop
  endfacet
  facet normal -1 -0 0
    outer loop
      vertex 34 52.3284 -98.4228
      vertex 34 51.875 -98.7117
      vertex 34 49.4107 -93.9416
    endloop
  endfacet
  facet normal -1 0 0
    outer loop
      vertex 34 49.8706 -99.5159
      vertex 34 48.7416 -94.2825
      vertex 34 51.3981 -98.9599
    endloop
  endfacet
  facet normal -1 0 0
    outer loop
      vertex 34 49.8706 -99.5159
      vertex 34 51.843 -101.243
      vertex 34 50.9973 -101.551
    endloop
  endfacet
  facet normal -1 0 0
    outer loop
      vertex 34 49.8706 -99.5159
      vertex 34 51.3981 -98.9599
      vertex 34 51.843 -101.243
    endloop
  endfacet
  facet normal -1 0 -0
    outer loop
      vertex 34 55.0769 -95.1473
      vertex 34 56.4352 -97.3897
      vertex 34 54.2641 -96.5551
    endloop
  endfacet
  facet normal -1 -0 0
    outer loop
      vertex 34 54.2641 -96.5551
      vertex 34 53.9368 -96.9816
      vertex 34 49.9416 -93.4107
    endloop
  endfacet
  facet normal -1 0 -0
    outer loop
      vertex 34 50.4 -92
      vertex 34 55.7265 -92.5371
      vertex 34 50.2825 -92.7416
    endloop
  endfacet
  facet normal -1 0 0
    outer loop
      vertex 34 52.3284 -98.4228
      vertex 34 54.7726 -99.3712
      vertex 34 54.0831 -99.9497
    endloop
  endfacet
  facet normal -1 0 0
    outer loop
      vertex 34 52.3284 -98.4228
      vertex 34 53.5736 -97.378
      vertex 34 54.7726 -99.3712
    endloop
  endfacet
  facet normal -1 0 0
    outer loop
      vertex 34 57.9262 -93.2933
      vertex 34 57.7699 -94.1796
      vertex 34 55.4443 -94.1379
    endloop
  endfacet
  facet normal -1 -0 0
    outer loop
      vertex 34 55.75 -92
      vertex 34 55.7265 -92.5371
      vertex 34 50.4 -92
    endloop
  endfacet
  facet normal -1 0 0
    outer loop
      vertex 34 55.0769 -95.1473
      vertex 34 56.8852 -96.6103
      vertex 34 56.4352 -97.3897
    endloop
  endfacet
  facet normal -1 0 0
    outer loop
      vertex 34 55.75 -92
      vertex 34 50.4 -92
      vertex 34 55.7265 -91.4629
    endloop
  endfacet
  facet normal -1 0 -0
    outer loop
      vertex 34 55.2826 -89.3493
      vertex 34 55.4443 -89.8621
      vertex 34 50.2825 -91.2584
    endloop
  endfacet
  facet normal -1 -0 0
    outer loop
      vertex 34 57.9262 -93.2933
      vertex 34 55.4443 -94.1379
      vertex 34 55.7265 -92.5371
    endloop
  endfacet
  facet normal -1 0 -0
    outer loop
      vertex 34 53.9368 -87.0184
      vertex 34 54.2641 -87.4449
      vertex 34 49.9416 -90.5893
    endloop
  endfacet
  facet normal -1 -0 0
    outer loop
      vertex 34 55.2826 -89.3493
      vertex 34 50.2825 -91.2584
      vertex 34 55.0769 -88.8527
    endloop
  endfacet
  facet normal -1 0 0
    outer loop
      vertex 34 50.2825 -91.2584
      vertex 34 55.4443 -89.8621
      vertex 34 55.7265 -91.4629
    endloop
  endfacet
  facet normal -1 -0 0
    outer loop
      vertex 34 57.9262 -90.7067
      vertex 34 55.7265 -91.4629
      vertex 34 55.4443 -89.8621
    endloop
  endfacet
  facet normal -1 0 -0
    outer loop
      vertex 34 57.7699 -89.8204
      vertex 34 57.9262 -90.7067
      vertex 34 55.4443 -89.8621
    endloop
  endfacet
  facet normal -1 0 -0
    outer loop
      vertex 34 50.2825 -92.7416
      vertex 34 55.0769 -95.1473
      vertex 34 49.9416 -93.4107
    endloop
  endfacet
  facet normal -1 -0 0
    outer loop
      vertex 34 53.9368 -87.0184
      vertex 34 49.9416 -90.5893
      vertex 34 53.5736 -86.622
    endloop
  endfacet
  facet normal -1 0 0
    outer loop
      vertex 34 49.4107 -90.0584
      vertex 34 51.875 -85.2883
      vertex 34 52.3284 -85.5772
    endloop
  endfacet
  facet normal -1 0 0
    outer loop
      vertex 34 56.4352 -86.6103
      vertex 34 55.0769 -88.8527
      vertex 34 54.2641 -87.4449
    endloop
  endfacet
  facet normal -1 0 -0
    outer loop
      vertex 34 56.4352 -86.6103
      vertex 34 56.8852 -87.3897
      vertex 34 55.0769 -88.8527
    endloop
  endfacet
  facet normal -1 -0 0
    outer loop
      vertex 34 51.875 -85.2883
      vertex 34 49.4107 -90.0584
      vertex 34 51.3981 -85.0401
    endloop
  endfacet
  facet normal -1 0 0
    outer loop
      vertex 34 48.7416 -89.7175
      vertex 34 49.8706 -84.4841
      vertex 34 51.3981 -85.0401
    endloop
  endfacet
  facet normal -1 0 0
    outer loop
      vertex 34 46.0584 -90.5893
      vertex 34 41.7359 -87.4449
      vertex 34 42.0632 -87.0184
    endloop
  endfacet
  facet normal -1 0 0
    outer loop
      vertex 34 54.7726 -84.6288
      vertex 34 53.5736 -86.622
      vertex 34 52.3284 -85.5772
    endloop
  endfacet
  facet normal -1 0 -0
    outer loop
      vertex 34 54.0831 -84.0503
      vertex 34 54.7726 -84.6288
      vertex 34 52.3284 -85.5772
    endloop
  endfacet
  facet normal -1 0 0
    outer loop
      vertex 34 46.6542 -84.3678
      vertex 34 47.1872 -84.2976
      vertex 34 48 -89.6
    endloop
  endfacet
  facet normal -1 0 0
    outer loop
      vertex 34 48 -89.6
      vertex 34 47.1872 -84.2976
      vertex 34 48.8128 -84.2976
    endloop
  endfacet
  facet normal -1 0 0
    outer loop
      vertex 34 51.843 -82.757
      vertex 34 51.3981 -85.0401
      vertex 34 49.8706 -84.4841
    endloop
  endfacet
  facet normal -1 0 -0
    outer loop
      vertex 34 50.9973 -82.4492
      vertex 34 51.843 -82.757
      vertex 34 49.8706 -84.4841
    endloop
  endfacet
  facet normal -1 0 0
    outer loop
      vertex 34 46.5893 -90.0584
      vertex 34 44.6019 -85.0401
      vertex 34 47.2584 -89.7175
    endloop
  endfacet
  facet normal -1 0 0
    outer loop
      vertex 34 42.4264 -86.622
      vertex 34 46.5893 -90.0584
      vertex 34 46.0584 -90.5893
    endloop
  endfacet
  facet normal -1 0 0
    outer loop
      vertex 34 42.4264 -86.622
      vertex 34 43.6716 -85.5772
      vertex 34 46.5893 -90.0584
    endloop
  endfacet
  facet normal -1 0 -0
    outer loop
      vertex 34 47.55 -82
      vertex 34 48.45 -82
      vertex 34 47.1872 -84.2976
    endloop
  endfacet
  facet normal -1 0 -0
    outer loop
      vertex 34 44.125 -85.2883
      vertex 34 46.5893 -90.0584
      vertex 34 43.6716 -85.5772
    endloop
  endfacet
  facet normal -1 0 0
    outer loop
      vertex 34 48.8128 -84.2976
      vertex 34 47.1872 -84.2976
      vertex 34 48.45 -82
    endloop
  endfacet
  facet normal -1 0 -0
    outer loop
      vertex 34 46.1294 -84.4841
      vertex 34 47.2584 -89.7175
      vertex 34 44.6019 -85.0401
    endloop
  endfacet
  facet normal -1 0 0
    outer loop
      vertex 34 44.157 -82.757
      vertex 34 45.0027 -82.4492
      vertex 34 46.1294 -84.4841
    endloop
  endfacet
  facet normal -1 0 0
    outer loop
      vertex 34 42.0632 -87.0184
      vertex 34 42.4264 -86.622
      vertex 34 46.0584 -90.5893
    endloop
  endfacet
  facet normal -1 0 0
    outer loop
      vertex 34 42.0632 -96.9816
      vertex 34 41.7359 -96.5551
      vertex 34 46.0584 -93.4107
    endloop
  endfacet
  facet normal -1 0 0
    outer loop
      vertex 34 44.6019 -85.0401
      vertex 34 44.157 -82.757
      vertex 34 46.1294 -84.4841
    endloop
  endfacet
  facet normal -1 0 -0
    outer loop
      vertex 34 40.9231 -88.8527
      vertex 34 45.7175 -91.2584
      vertex 34 40.7174 -89.3493
    endloop
  endfacet
  facet normal -1 0 0
    outer loop
      vertex 34 41.2274 -84.6288
      vertex 34 43.6716 -85.5772
      vertex 34 42.4264 -86.622
    endloop
  endfacet
  facet normal -1 0 0
    outer loop
      vertex 34 41.2274 -84.6288
      vertex 34 41.9169 -84.0503
      vertex 34 43.6716 -85.5772
    endloop
  endfacet
  facet normal -1 0 0
    outer loop
      vertex 34 45.7175 -91.2584
      vertex 34 40.9231 -88.8527
      vertex 34 46.0584 -90.5893
    endloop
  endfacet
  facet normal -1 0 -0
    outer loop
      vertex 34 41.7359 -87.4449
      vertex 34 46.0584 -90.5893
      vertex 34 40.9231 -88.8527
    endloop
  endfacet
  facet normal -1 0 -0
    outer loop
      vertex 34 40.7174 -89.3493
      vertex 34 45.7175 -91.2584
      vertex 34 40.5557 -89.8621
    endloop
  endfacet
  facet normal -1 0 0
    outer loop
      vertex 34 40.7174 -94.6507
      vertex 34 45.7175 -92.7416
      vertex 34 40.9231 -95.1473
    endloop
  endfacet
  facet normal -1 0 0
    outer loop
      vertex 34 39.1148 -87.3897
      vertex 34 39.5648 -86.6103
      vertex 34 40.9231 -88.8527
    endloop
  endfacet
  facet normal -1 -0 0
    outer loop
      vertex 34 41.7359 -87.4449
      vertex 34 40.9231 -88.8527
      vertex 34 39.5648 -86.6103
    endloop
  endfacet
  facet normal -1 0 0
    outer loop
      vertex 34 40.2735 -91.4629
      vertex 34 40.5557 -89.8621
      vertex 34 45.7175 -91.2584
    endloop
  endfacet
  facet normal -1 0 0
    outer loop
      vertex 34 45.6 -92
      vertex 34 40.2735 -91.4629
      vertex 34 45.7175 -91.2584
    endloop
  endfacet
  facet normal -1 0 0
    outer loop
      vertex 34 45.6 -92
      vertex 34 40.25 -92
      vertex 34 40.2735 -91.4629
    endloop
  endfacet
  facet normal -1 0 0
    outer loop
      vertex 34 38.0738 -90.7067
      vertex 34 38.2301 -89.8204
      vertex 34 40.5557 -89.8621
    endloop
  endfacet
  facet normal -1 0 0
    outer loop
      vertex 34 40.5557 -89.8621
      vertex 34 40.2735 -91.4629
      vertex 34 38.0738 -90.7067
    endloop
  endfacet
  facet normal -1 -0 0
    outer loop
      vertex 34 45.6 -92
      vertex 34 40.2735 -92.5371
      vertex 34 40.25 -92
    endloop
  endfacet
  facet normal -1 -0 0
    outer loop
      vertex 34 45.7175 -92.7416
      vertex 34 40.5557 -94.1379
      vertex 34 40.2735 -92.5371
    endloop
  endfacet
  facet normal -1 0 -0
    outer loop
      vertex 34 40.2735 -92.5371
      vertex 34 40.5557 -94.1379
      vertex 34 38.0738 -93.2933
    endloop
  endfacet
  facet normal -1 0 0
    outer loop
      vertex 34 46.1294 -99.5159
      vertex 34 44.6019 -98.9599
      vertex 34 47.2584 -94.2825
    endloop
  endfacet
  facet normal -1 0 0
    outer loop
      vertex 34 48.7416 -89.7175
      vertex 34 49.3458 -84.3678
      vertex 34 49.8706 -84.4841
    endloop
  endfacet
  facet normal -1 0 0
    outer loop
      vertex 34 44.125 -85.2883
      vertex 34 44.6019 -85.0401
      vertex 34 46.5893 -90.0584
    endloop
  endfacet
  facet normal -1 0 -0
    outer loop
      vertex 34 48 -94.4
      vertex 34 48.8128 -99.7024
      vertex 34 47.1872 -99.7024
    endloop
  endfacet
  facet normal -1 0 0
    outer loop
      vertex 34 46.6542 -84.3678
      vertex 34 48 -89.6
      vertex 34 47.2584 -89.7175
    endloop
  endfacet
  facet normal -1 0 -0
    outer loop
      vertex 34 46.6542 -84.3678
      vertex 34 47.2584 -89.7175
      vertex 34 46.1294 -84.4841
    endloop
  endfacet
  facet normal -1 0 0
    outer loop
      vertex 34 49.3458 -84.3678
      vertex 34 48.7416 -89.7175
      vertex 34 48 -89.6
    endloop
  endfacet
  facet normal -1 -0 0
    outer loop
      vertex 34 49.3458 -84.3678
      vertex 34 48 -89.6
      vertex 34 48.8128 -84.2976
    endloop
  endfacet
  facet normal -1 0 0
    outer loop
      vertex 34 49.4107 -90.0584
      vertex 34 48.7416 -89.7175
      vertex 34 51.3981 -85.0401
    endloop
  endfacet
  facet normal -1 0 -0
    outer loop
      vertex 34 52.3284 -85.5772
      vertex 34 53.5736 -86.622
      vertex 34 49.4107 -90.0584
    endloop
  endfacet
  facet normal -1 0 0
    outer loop
      vertex 34 55.0769 -88.8527
      vertex 34 50.2825 -91.2584
      vertex 34 49.9416 -90.5893
    endloop
  endfacet
  facet normal -1 -0 0
    outer loop
      vertex 34 55.0769 -88.8527
      vertex 34 49.9416 -90.5893
      vertex 34 54.2641 -87.4449
    endloop
  endfacet
  facet normal -1 0 0
    outer loop
      vertex 34 50.4 -92
      vertex 34 50.2825 -91.2584
      vertex 34 55.7265 -91.4629
    endloop
  endfacet
  facet normal -1 0 0
    outer loop
      vertex 34 50.2825 -92.7416
      vertex 34 55.7265 -92.5371
      vertex 34 55.4443 -94.1379
    endloop
  endfacet
  facet normal -1 0 0
    outer loop
      vertex 34 49.9416 -93.4107
      vertex 34 55.0769 -95.1473
      vertex 34 54.2641 -96.5551
    endloop
  endfacet
  facet normal -1 0 0
    outer loop
      vertex 34 49.4107 -93.9416
      vertex 34 49.9416 -93.4107
      vertex 34 53.5736 -97.378
    endloop
  endfacet
  facet normal -1 0 0
    outer loop
      vertex 34 48.7416 -94.2825
      vertex 34 49.4107 -93.9416
      vertex 34 51.3981 -98.9599
    endloop
  endfacet
  facet normal -1 -0 0
    outer loop
      vertex 34 49.8706 -99.5159
      vertex 34 49.3458 -99.6322
      vertex 34 48.7416 -94.2825
    endloop
  endfacet
  facet normal -1 0 -0
    outer loop
      vertex 34 47.2584 -94.2825
      vertex 34 48 -94.4
      vertex 34 46.6542 -99.6322
    endloop
  endfacet
  facet normal -1 0 -0
    outer loop
      vertex 34 46.5893 -93.9416
      vertex 34 47.2584 -94.2825
      vertex 34 44.6019 -98.9599
    endloop
  endfacet
  facet normal -1 0 0
    outer loop
      vertex 34 43.6716 -98.4228
      vertex 34 46.5893 -93.9416
      vertex 34 44.125 -98.7117
    endloop
  endfacet
  facet normal -1 0 0
    outer loop
      vertex 34 42.0632 -96.9816
      vertex 34 46.0584 -93.4107
      vertex 34 42.4264 -97.378
    endloop
  endfacet
  facet normal -1 0 0
    outer loop
      vertex 34 41.7359 -96.5551
      vertex 34 40.9231 -95.1473
      vertex 34 46.0584 -93.4107
    endloop
  endfacet
  facet normal -1 0 0
    outer loop
      vertex 34 40.7174 -94.6507
      vertex 34 40.5557 -94.1379
      vertex 34 45.7175 -92.7416
    endloop
  endfacet
  facet normal -1 0 0
    outer loop
      vertex 34 45.7175 -92.7416
      vertex 34 40.2735 -92.5371
      vertex 34 45.6 -92
    endloop
  endfacet
  facet normal 1 0 0
    outer loop
      vertex 37.2 45.7175 -92.7416
      vertex 37.2 40.9231 -95.1473
      vertex 37.2 46.0584 -93.4107
    endloop
  endfacet
  facet normal 1 0 0
    outer loop
      vertex 37.2 38.0738 -93.2933
      vertex 37.2 38.2301 -94.1796
      vertex 37.2 40.5557 -94.1379
    endloop
  endfacet
  facet normal 1 0 0
    outer loop
      vertex 37.2 42.4264 -97.378
      vertex 37.2 46.5893 -93.9416
      vertex 37.2 46.0584 -93.4107
    endloop
  endfacet
  facet normal 1 0 0
    outer loop
      vertex 37.2 50.2825 -92.7416
      vertex 37.2 55.2826 -94.6507
      vertex 37.2 55.4443 -94.1379
    endloop
  endfacet
  facet normal 1 0 0
    outer loop
      vertex 37.2 48 -94.4
      vertex 37.2 46.6542 -99.6322
      vertex 37.2 47.1872 -99.7024
    endloop
  endfacet
  facet normal 1 -0 0
    outer loop
      vertex 37.2 39.1148 -96.6103
      vertex 37.2 39.5648 -97.3897
      vertex 37.2 40.9231 -95.1473
    endloop
  endfacet
  facet normal 1 0 0
    outer loop
      vertex 37.2 39.5648 -97.3897
      vertex 37.2 41.7359 -96.5551
      vertex 37.2 40.9231 -95.1473
    endloop
  endfacet
  facet normal 1 0 -0
    outer loop
      vertex 37.2 51.3981 -98.9599
      vertex 37.2 51.875 -98.7117
      vertex 37.2 49.4107 -93.9416
    endloop
  endfacet
  facet normal 1 0 -0
    outer loop
      vertex 37.2 43.6716 -98.4228
      vertex 37.2 46.5893 -93.9416
      vertex 37.2 42.4264 -97.378
    endloop
  endfacet
  facet normal 1 -0 0
    outer loop
      vertex 37.2 44.125 -98.7117
      vertex 37.2 44.6019 -98.9599
      vertex 37.2 46.5893 -93.9416
    endloop
  endfacet
  facet normal 1 -0 0
    outer loop
      vertex 37.2 41.2274 -99.3712
      vertex 37.2 41.9169 -99.9497
      vertex 37.2 43.6716 -98.4228
    endloop
  endfacet
  facet normal 1 0 0
    outer loop
      vertex 37.2 41.2274 -99.3712
      vertex 37.2 43.6716 -98.4228
      vertex 37.2 42.4264 -97.378
    endloop
  endfacet
  facet normal 1 0 0
    outer loop
      vertex 37.2 53.5736 -97.378
      vertex 37.2 49.4107 -93.9416
      vertex 37.2 52.3284 -98.4228
    endloop
  endfacet
  facet normal 1 -0 0
    outer loop
      vertex 37.2 46.1294 -99.5159
      vertex 37.2 46.6542 -99.6322
      vertex 37.2 47.2584 -94.2825
    endloop
  endfacet
  facet normal 1 0 0
    outer loop
      vertex 37.2 49.3458 -99.6322
      vertex 37.2 48 -94.4
      vertex 37.2 48.8128 -99.7024
    endloop
  endfacet
  facet normal 1 -0 0
    outer loop
      vertex 37.2 44.157 -101.243
      vertex 37.2 45.0027 -101.551
      vertex 37.2 46.1294 -99.5159
    endloop
  endfacet
  facet normal 1 0 0
    outer loop
      vertex 37.2 44.157 -101.243
      vertex 37.2 46.1294 -99.5159
      vertex 37.2 44.6019 -98.9599
    endloop
  endfacet
  facet normal 1 0 -0
    outer loop
      vertex 37.2 49.9416 -90.5893
      vertex 37.2 53.5736 -86.622
      vertex 37.2 49.4107 -90.0584
    endloop
  endfacet
  facet normal 1 -0 0
    outer loop
      vertex 37.2 48 -94.4
      vertex 37.2 49.3458 -99.6322
      vertex 37.2 48.7416 -94.2825
    endloop
  endfacet
  facet normal 1 0 -0
    outer loop
      vertex 37.2 53.5736 -97.378
      vertex 37.2 53.9368 -96.9816
      vertex 37.2 49.9416 -93.4107
    endloop
  endfacet
  facet normal 1 0 0
    outer loop
      vertex 37.2 47.55 -102
      vertex 37.2 48.45 -102
      vertex 37.2 48.8128 -99.7024
    endloop
  endfacet
  facet normal 1 0 -0
    outer loop
      vertex 37.2 47.55 -102
      vertex 37.2 48.8128 -99.7024
      vertex 37.2 47.1872 -99.7024
    endloop
  endfacet
  facet normal 1 0 0
    outer loop
      vertex 37.2 55.2826 -94.6507
      vertex 37.2 50.2825 -92.7416
      vertex 37.2 55.0769 -95.1473
    endloop
  endfacet
  facet normal 1 0 0
    outer loop
      vertex 37.2 49.4107 -93.9416
      vertex 37.2 51.875 -98.7117
      vertex 37.2 52.3284 -98.4228
    endloop
  endfacet
  facet normal 1 0 0
    outer loop
      vertex 37.2 51.3981 -98.9599
      vertex 37.2 48.7416 -94.2825
      vertex 37.2 49.8706 -99.5159
    endloop
  endfacet
  facet normal 1 0 -0
    outer loop
      vertex 37.2 50.9973 -101.551
      vertex 37.2 51.843 -101.243
      vertex 37.2 49.8706 -99.5159
    endloop
  endfacet
  facet normal 1 0 0
    outer loop
      vertex 37.2 51.843 -101.243
      vertex 37.2 51.3981 -98.9599
      vertex 37.2 49.8706 -99.5159
    endloop
  endfacet
  facet normal 1 -0 0
    outer loop
      vertex 37.2 54.2641 -96.5551
      vertex 37.2 56.4352 -97.3897
      vertex 37.2 55.0769 -95.1473
    endloop
  endfacet
  facet normal 1 0 0
    outer loop
      vertex 37.2 49.9416 -93.4107
      vertex 37.2 53.9368 -96.9816
      vertex 37.2 54.2641 -96.5551
    endloop
  endfacet
  facet normal 1 0 0
    outer loop
      vertex 37.2 50.2825 -92.7416
      vertex 37.2 55.7265 -92.5371
      vertex 37.2 50.4 -92
    endloop
  endfacet
  facet normal 1 0 -0
    outer loop
      vertex 37.2 54.0831 -99.9497
      vertex 37.2 54.7726 -99.3712
      vertex 37.2 52.3284 -98.4228
    endloop
  endfacet
  facet normal 1 0 0
    outer loop
      vertex 37.2 54.7726 -99.3712
      vertex 37.2 53.5736 -97.378
      vertex 37.2 52.3284 -98.4228
    endloop
  endfacet
  facet normal 1 -0 0
    outer loop
      vertex 37.2 55.4443 -94.1379
      vertex 37.2 57.7699 -94.1796
      vertex 37.2 57.9262 -93.2933
    endloop
  endfacet
  facet normal 1 -0 0
    outer loop
      vertex 37.2 50.4 -92
      vertex 37.2 55.7265 -92.5371
      vertex 37.2 55.75 -92
    endloop
  endfacet
  facet normal 1 0 -0
    outer loop
      vertex 37.2 56.4352 -97.3897
      vertex 37.2 56.8852 -96.6103
      vertex 37.2 55.0769 -95.1473
    endloop
  endfacet
  facet normal 1 0 0
    outer loop
      vertex 37.2 55.7265 -91.4629
      vertex 37.2 50.4 -92
      vertex 37.2 55.75 -92
    endloop
  endfacet
  facet normal 1 0 0
    outer loop
      vertex 37.2 50.2825 -91.2584
      vertex 37.2 55.4443 -89.8621
      vertex 37.2 55.2826 -89.3493
    endloop
  endfacet
  facet normal 1 0 0
    outer loop
      vertex 37.2 55.7265 -92.5371
      vertex 37.2 55.4443 -94.1379
      vertex 37.2 57.9262 -93.2933
    endloop
  endfacet
  facet normal 1 0 0
    outer loop
      vertex 37.2 49.9416 -90.5893
      vertex 37.2 54.2641 -87.4449
      vertex 37.2 53.9368 -87.0184
    endloop
  endfacet
  facet normal 1 0 0
    outer loop
      vertex 37.2 55.0769 -88.8527
      vertex 37.2 50.2825 -91.2584
      vertex 37.2 55.2826 -89.3493
    endloop
  endfacet
  facet normal 1 0 0
    outer loop
      vertex 37.2 55.7265 -91.4629
      vertex 37.2 55.4443 -89.8621
      vertex 37.2 50.2825 -91.2584
    endloop
  endfacet
  facet normal 1 0 0
    outer loop
      vertex 37.2 55.4443 -89.8621
      vertex 37.2 55.7265 -91.4629
      vertex 37.2 57.9262 -90.7067
    endloop
  endfacet
  facet normal 1 -0 0
    outer loop
      vertex 37.2 55.4443 -89.8621
      vertex 37.2 57.9262 -90.7067
      vertex 37.2 57.7699 -89.8204
    endloop
  endfacet
  facet normal 1 -0 0
    outer loop
      vertex 37.2 49.9416 -93.4107
      vertex 37.2 55.0769 -95.1473
      vertex 37.2 50.2825 -92.7416
    endloop
  endfacet
  facet normal 1 0 0
    outer loop
      vertex 37.2 53.5736 -86.622
      vertex 37.2 49.9416 -90.5893
      vertex 37.2 53.9368 -87.0184
    endloop
  endfacet
  facet normal 1 0 0
    outer loop
      vertex 37.2 52.3284 -85.5772
      vertex 37.2 51.875 -85.2883
      vertex 37.2 49.4107 -90.0584
    endloop
  endfacet
  facet normal 1 -0 0
    outer loop
      vertex 37.2 54.2641 -87.4449
      vertex 37.2 55.0769 -88.8527
      vertex 37.2 56.4352 -86.6103
    endloop
  endfacet
  facet normal 1 0 0
    outer loop
      vertex 37.2 55.0769 -88.8527
      vertex 37.2 56.8852 -87.3897
      vertex 37.2 56.4352 -86.6103
    endloop
  endfacet
  facet normal 1 0 0
    outer loop
      vertex 37.2 51.3981 -85.0401
      vertex 37.2 49.4107 -90.0584
      vertex 37.2 51.875 -85.2883
    endloop
  endfacet
  facet normal 1 0 0
    outer loop
      vertex 37.2 51.3981 -85.0401
      vertex 37.2 49.8706 -84.4841
      vertex 37.2 48.7416 -89.7175
    endloop
  endfacet
  facet normal 1 0 0
    outer loop
      vertex 37.2 42.0632 -87.0184
      vertex 37.2 41.7359 -87.4449
      vertex 37.2 46.0584 -90.5893
    endloop
  endfacet
  facet normal 1 -0 0
    outer loop
      vertex 37.2 52.3284 -85.5772
      vertex 37.2 53.5736 -86.622
      vertex 37.2 54.7726 -84.6288
    endloop
  endfacet
  facet normal 1 0 0
    outer loop
      vertex 37.2 52.3284 -85.5772
      vertex 37.2 54.7726 -84.6288
      vertex 37.2 54.0831 -84.0503
    endloop
  endfacet
  facet normal 1 0 0
    outer loop
      vertex 37.2 48 -89.6
      vertex 37.2 47.1872 -84.2976
      vertex 37.2 46.6542 -84.3678
    endloop
  endfacet
  facet normal 1 0 0
    outer loop
      vertex 37.2 48.8128 -84.2976
      vertex 37.2 47.1872 -84.2976
      vertex 37.2 48 -89.6
    endloop
  endfacet
  facet normal 1 -0 0
    outer loop
      vertex 37.2 49.8706 -84.4841
      vertex 37.2 51.3981 -85.0401
      vertex 37.2 51.843 -82.757
    endloop
  endfacet
  facet normal 1 0 0
    outer loop
      vertex 37.2 49.8706 -84.4841
      vertex 37.2 51.843 -82.757
      vertex 37.2 50.9973 -82.4492
    endloop
  endfacet
  facet normal 1 0 0
    outer loop
      vertex 37.2 47.2584 -89.7175
      vertex 37.2 44.6019 -85.0401
      vertex 37.2 46.5893 -90.0584
    endloop
  endfacet
  facet normal 1 0 -0
    outer loop
      vertex 37.2 46.0584 -90.5893
      vertex 37.2 46.5893 -90.0584
      vertex 37.2 42.4264 -86.622
    endloop
  endfacet
  facet normal 1 0 0
    outer loop
      vertex 37.2 46.5893 -90.0584
      vertex 37.2 43.6716 -85.5772
      vertex 37.2 42.4264 -86.622
    endloop
  endfacet
  facet normal 1 0 0
    outer loop
      vertex 37.2 47.1872 -84.2976
      vertex 37.2 48.45 -82
      vertex 37.2 47.55 -82
    endloop
  endfacet
  facet normal 1 -0 0
    outer loop
      vertex 37.2 43.6716 -85.5772
      vertex 37.2 46.5893 -90.0584
      vertex 37.2 44.125 -85.2883
    endloop
  endfacet
  facet normal 1 0 0
    outer loop
      vertex 37.2 48.45 -82
      vertex 37.2 47.1872 -84.2976
      vertex 37.2 48.8128 -84.2976
    endloop
  endfacet
  facet normal 1 -0 0
    outer loop
      vertex 37.2 44.6019 -85.0401
      vertex 37.2 47.2584 -89.7175
      vertex 37.2 46.1294 -84.4841
    endloop
  endfacet
  facet normal 1 0 0
    outer loop
      vertex 37.2 46.1294 -84.4841
      vertex 37.2 45.0027 -82.4492
      vertex 37.2 44.157 -82.757
    endloop
  endfacet
  facet normal 1 0 0
    outer loop
      vertex 37.2 46.0584 -90.5893
      vertex 37.2 42.4264 -86.622
      vertex 37.2 42.0632 -87.0184
    endloop
  endfacet
  facet normal 1 0 0
    outer loop
      vertex 37.2 46.0584 -93.4107
      vertex 37.2 41.7359 -96.5551
      vertex 37.2 42.0632 -96.9816
    endloop
  endfacet
  facet normal 1 0 0
    outer loop
      vertex 37.2 46.1294 -84.4841
      vertex 37.2 44.157 -82.757
      vertex 37.2 44.6019 -85.0401
    endloop
  endfacet
  facet normal 1 -0 0
    outer loop
      vertex 37.2 40.7174 -89.3493
      vertex 37.2 45.7175 -91.2584
      vertex 37.2 40.9231 -88.8527
    endloop
  endfacet
  facet normal 1 0 -0
    outer loop
      vertex 37.2 42.4264 -86.622
      vertex 37.2 43.6716 -85.5772
      vertex 37.2 41.2274 -84.6288
    endloop
  endfacet
  facet normal 1 0 0
    outer loop
      vertex 37.2 43.6716 -85.5772
      vertex 37.2 41.9169 -84.0503
      vertex 37.2 41.2274 -84.6288
    endloop
  endfacet
  facet normal 1 0 0
    outer loop
      vertex 37.2 46.0584 -90.5893
      vertex 37.2 40.9231 -88.8527
      vertex 37.2 45.7175 -91.2584
    endloop
  endfacet
  facet normal 1 -0 0
    outer loop
      vertex 37.2 40.9231 -88.8527
      vertex 37.2 46.0584 -90.5893
      vertex 37.2 41.7359 -87.4449
    endloop
  endfacet
  facet normal 1 -0 0
    outer loop
      vertex 37.2 40.5557 -89.8621
      vertex 37.2 45.7175 -91.2584
      vertex 37.2 40.7174 -89.3493
    endloop
  endfacet
  facet normal 1 0 -0
    outer loop
      vertex 37.2 40.9231 -95.1473
      vertex 37.2 45.7175 -92.7416
      vertex 37.2 40.7174 -94.6507
    endloop
  endfacet
  facet normal 1 0 0
    outer loop
      vertex 37.2 40.9231 -88.8527
      vertex 37.2 39.5648 -86.6103
      vertex 37.2 39.1148 -87.3897
    endloop
  endfacet
  facet normal 1 0 0
    outer loop
      vertex 37.2 39.5648 -86.6103
      vertex 37.2 40.9231 -88.8527
      vertex 37.2 41.7359 -87.4449
    endloop
  endfacet
  facet normal 1 0 0
    outer loop
      vertex 37.2 45.7175 -91.2584
      vertex 37.2 40.5557 -89.8621
      vertex 37.2 40.2735 -91.4629
    endloop
  endfacet
  facet normal 1 0 0
    outer loop
      vertex 37.2 45.7175 -91.2584
      vertex 37.2 40.2735 -91.4629
      vertex 37.2 45.6 -92
    endloop
  endfacet
  facet normal 1 0 0
    outer loop
      vertex 37.2 40.2735 -91.4629
      vertex 37.2 40.25 -92
      vertex 37.2 45.6 -92
    endloop
  endfacet
  facet normal 1 0 0
    outer loop
      vertex 37.2 40.5557 -89.8621
      vertex 37.2 38.2301 -89.8204
      vertex 37.2 38.0738 -90.7067
    endloop
  endfacet
  facet normal 1 -0 0
    outer loop
      vertex 37.2 38.0738 -90.7067
      vertex 37.2 40.2735 -91.4629
      vertex 37.2 40.5557 -89.8621
    endloop
  endfacet
  facet normal 1 -0 0
    outer loop
      vertex 37.2 40.25 -92
      vertex 37.2 40.2735 -92.5371
      vertex 37.2 45.6 -92
    endloop
  endfacet
  facet normal 1 0 0
    outer loop
      vertex 37.2 40.2735 -92.5371
      vertex 37.2 40.5557 -94.1379
      vertex 37.2 45.7175 -92.7416
    endloop
  endfacet
  facet normal 1 -0 0
    outer loop
      vertex 37.2 38.0738 -93.2933
      vertex 37.2 40.5557 -94.1379
      vertex 37.2 40.2735 -92.5371
    endloop
  endfacet
  facet normal 1 0 0
    outer loop
      vertex 37.2 47.2584 -94.2825
      vertex 37.2 44.6019 -98.9599
      vertex 37.2 46.1294 -99.5159
    endloop
  endfacet
  facet normal 1 0 0
    outer loop
      vertex 37.2 49.8706 -84.4841
      vertex 37.2 49.3458 -84.3678
      vertex 37.2 48.7416 -89.7175
    endloop
  endfacet
  facet normal 1 0 0
    outer loop
      vertex 37.2 46.5893 -90.0584
      vertex 37.2 44.6019 -85.0401
      vertex 37.2 44.125 -85.2883
    endloop
  endfacet
  facet normal 1 0 0
    outer loop
      vertex 37.2 47.1872 -99.7024
      vertex 37.2 48.8128 -99.7024
      vertex 37.2 48 -94.4
    endloop
  endfacet
  facet normal 1 0 -0
    outer loop
      vertex 37.2 47.2584 -89.7175
      vertex 37.2 48 -89.6
      vertex 37.2 46.6542 -84.3678
    endloop
  endfacet
  facet normal 1 -0 0
    outer loop
      vertex 37.2 46.1294 -84.4841
      vertex 37.2 47.2584 -89.7175
      vertex 37.2 46.6542 -84.3678
    endloop
  endfacet
  facet normal 1 -0 0
    outer loop
      vertex 37.2 48 -89.6
      vertex 37.2 48.7416 -89.7175
      vertex 37.2 49.3458 -84.3678
    endloop
  endfacet
  facet normal 1 0 0
    outer loop
      vertex 37.2 48.8128 -84.2976
      vertex 37.2 48 -89.6
      vertex 37.2 49.3458 -84.3678
    endloop
  endfacet
  facet normal 1 0 0
    outer loop
      vertex 37.2 51.3981 -85.0401
      vertex 37.2 48.7416 -89.7175
      vertex 37.2 49.4107 -90.0584
    endloop
  endfacet
  facet normal 1 0 0
    outer loop
      vertex 37.2 49.4107 -90.0584
      vertex 37.2 53.5736 -86.622
      vertex 37.2 52.3284 -85.5772
    endloop
  endfacet
  facet normal 1 -0 0
    outer loop
      vertex 37.2 49.9416 -90.5893
      vertex 37.2 50.2825 -91.2584
      vertex 37.2 55.0769 -88.8527
    endloop
  endfacet
  facet normal 1 0 0
    outer loop
      vertex 37.2 54.2641 -87.4449
      vertex 37.2 49.9416 -90.5893
      vertex 37.2 55.0769 -88.8527
    endloop
  endfacet
  facet normal 1 0 0
    outer loop
      vertex 37.2 55.7265 -91.4629
      vertex 37.2 50.2825 -91.2584
      vertex 37.2 50.4 -92
    endloop
  endfacet
  facet normal 1 0 -0
    outer loop
      vertex 37.2 55.4443 -94.1379
      vertex 37.2 55.7265 -92.5371
      vertex 37.2 50.2825 -92.7416
    endloop
  endfacet
  facet normal 1 0 -0
    outer loop
      vertex 37.2 54.2641 -96.5551
      vertex 37.2 55.0769 -95.1473
      vertex 37.2 49.9416 -93.4107
    endloop
  endfacet
  facet normal 1 0 0
    outer loop
      vertex 37.2 53.5736 -97.378
      vertex 37.2 49.9416 -93.4107
      vertex 37.2 49.4107 -93.9416
    endloop
  endfacet
  facet normal 1 0 0
    outer loop
      vertex 37.2 51.3981 -98.9599
      vertex 37.2 49.4107 -93.9416
      vertex 37.2 48.7416 -94.2825
    endloop
  endfacet
  facet normal 1 0 0
    outer loop
      vertex 37.2 48.7416 -94.2825
      vertex 37.2 49.3458 -99.6322
      vertex 37.2 49.8706 -99.5159
    endloop
  endfacet
  facet normal 1 0 0
    outer loop
      vertex 37.2 46.6542 -99.6322
      vertex 37.2 48 -94.4
      vertex 37.2 47.2584 -94.2825
    endloop
  endfacet
  facet normal 1 0 0
    outer loop
      vertex 37.2 44.6019 -98.9599
      vertex 37.2 47.2584 -94.2825
      vertex 37.2 46.5893 -93.9416
    endloop
  endfacet
  facet normal 1 0 -0
    outer loop
      vertex 37.2 44.125 -98.7117
      vertex 37.2 46.5893 -93.9416
      vertex 37.2 43.6716 -98.4228
    endloop
  endfacet
  facet normal 1 0 -0
    outer loop
      vertex 37.2 42.4264 -97.378
      vertex 37.2 46.0584 -93.4107
      vertex 37.2 42.0632 -96.9816
    endloop
  endfacet
  facet normal 1 0 0
    outer loop
      vertex 37.2 46.0584 -93.4107
      vertex 37.2 40.9231 -95.1473
      vertex 37.2 41.7359 -96.5551
    endloop
  endfacet
  facet normal 1 0 0
    outer loop
      vertex 37.2 45.7175 -92.7416
      vertex 37.2 40.5557 -94.1379
      vertex 37.2 40.7174 -94.6507
    endloop
  endfacet
  facet normal 1 0 0
    outer loop
      vertex 37.2 45.6 -92
      vertex 37.2 40.2735 -92.5371
      vertex 37.2 45.7175 -92.7416
    endloop
  endfacet
  facet normal 0 0.017928 -0.999839
    outer loop
      vertex 34 40.5557 -94.1379
      vertex 37.2 38.2301 -94.1796
      vertex 34 38.2301 -94.1796
    endloop
  endfacet
  facet normal 0 0.017928 -0.999839
    outer loop
      vertex 34 40.5557 -94.1379
      vertex 37.2 40.5557 -94.1379
      vertex 37.2 38.2301 -94.1796
    endloop
  endfacet
  facet normal 0 -0.953709 -0.300731
    outer loop
      vertex 34 40.7174 -94.6507
      vertex 37.2 40.5557 -94.1379
      vertex 34 40.5557 -94.1379
    endloop
  endfacet
  facet normal 0 -0.953709 -0.300731
    outer loop
      vertex 34 40.7174 -94.6507
      vertex 37.2 40.7174 -94.6507
      vertex 37.2 40.5557 -94.1379
    endloop
  endfacet
  facet normal 0 -0.923879 -0.382686
    outer loop
      vertex 34 40.9231 -95.1473
      vertex 37.2 40.7174 -94.6507
      vertex 34 40.7174 -94.6507
    endloop
  endfacet
  facet normal 0 -0.923879 -0.382686
    outer loop
      vertex 34 40.9231 -95.1473
      vertex 37.2 40.9231 -95.1473
      vertex 37.2 40.7174 -94.6507
    endloop
  endfacet
  facet normal 0 -0.628974 0.777426
    outer loop
      vertex 34 39.1148 -96.6103
      vertex 37.2 40.9231 -95.1473
      vertex 34 40.9231 -95.1473
    endloop
  endfacet
  facet normal 0 -0.628974 0.777426
    outer loop
      vertex 34 39.1148 -96.6103
      vertex 37.2 39.1148 -96.6103
      vertex 37.2 40.9231 -95.1473
    endloop
  endfacet
  facet normal 0 -0.866019 -0.500011
    outer loop
      vertex 34 39.5648 -97.3897
      vertex 37.2 39.1148 -96.6103
      vertex 34 39.1148 -96.6103
    endloop
  endfacet
  facet normal 0 -0.866019 -0.500011
    outer loop
      vertex 34 39.5648 -97.3897
      vertex 37.2 39.5648 -97.3897
      vertex 37.2 39.1148 -96.6103
    endloop
  endfacet
  facet normal 0 0.358815 -0.933409
    outer loop
      vertex 34 41.7359 -96.5551
      vertex 37.2 39.5648 -97.3897
      vertex 34 39.5648 -97.3897
    endloop
  endfacet
  facet normal 0 0.358815 -0.933409
    outer loop
      vertex 34 41.7359 -96.5551
      vertex 37.2 41.7359 -96.5551
      vertex 37.2 39.5648 -97.3897
    endloop
  endfacet
  facet normal 0 -0.793322 -0.608802
    outer loop
      vertex 34 42.0632 -96.9816
      vertex 37.2 41.7359 -96.5551
      vertex 34 41.7359 -96.5551
    endloop
  endfacet
  facet normal 0 -0.793322 -0.608802
    outer loop
      vertex 34 42.0632 -96.9816
      vertex 37.2 42.0632 -96.9816
      vertex 37.2 41.7359 -96.5551
    endloop
  endfacet
  facet normal 0 -0.737309 -0.675556
    outer loop
      vertex 34 42.4264 -97.378
      vertex 37.2 42.0632 -96.9816
      vertex 34 42.0632 -96.9816
    endloop
  endfacet
  facet normal 0 -0.737309 -0.675556
    outer loop
      vertex 34 42.4264 -97.378
      vertex 37.2 42.4264 -97.378
      vertex 37.2 42.0632 -96.9816
    endloop
  endfacet
  facet normal 0 -0.856908 0.515469
    outer loop
      vertex 34 41.2274 -99.3712
      vertex 37.2 42.4264 -97.378
      vertex 34 42.4264 -97.378
    endloop
  endfacet
  facet normal 0 -0.856908 0.515469
    outer loop
      vertex 34 41.2274 -99.3712
      vertex 37.2 41.2274 -99.3712
      vertex 37.2 42.4264 -97.378
    endloop
  endfacet
  facet normal 0 -0.642749 -0.766077
    outer loop
      vertex 34 41.9169 -99.9497
      vertex 37.2 41.2274 -99.3712
      vertex 34 41.2274 -99.3712
    endloop
  endfacet
  facet normal 0 -0.642749 -0.766077
    outer loop
      vertex 34 41.9169 -99.9497
      vertex 37.2 41.9169 -99.9497
      vertex 37.2 41.2274 -99.3712
    endloop
  endfacet
  facet normal 0 0.656442 -0.754377
    outer loop
      vertex 34 43.6716 -98.4228
      vertex 37.2 41.9169 -99.9497
      vertex 34 41.9169 -99.9497
    endloop
  endfacet
  facet normal 0 0.656442 -0.754377
    outer loop
      vertex 34 43.6716 -98.4228
      vertex 37.2 43.6716 -98.4228
      vertex 37.2 41.9169 -99.9497
    endloop
  endfacet
  facet normal 0 -0.537369 -0.843347
    outer loop
      vertex 34 44.125 -98.7117
      vertex 37.2 43.6716 -98.4228
      vertex 34 43.6716 -98.4228
    endloop
  endfacet
  facet normal 0 -0.537369 -0.843347
    outer loop
      vertex 34 44.125 -98.7117
      vertex 37.2 44.125 -98.7117
      vertex 37.2 43.6716 -98.4228
    endloop
  endfacet
  facet normal 0 -0.461663 -0.887055
    outer loop
      vertex 34 44.6019 -98.9599
      vertex 37.2 44.125 -98.7117
      vertex 34 44.125 -98.7117
    endloop
  endfacet
  facet normal 0 -0.461663 -0.887055
    outer loop
      vertex 34 44.6019 -98.9599
      vertex 37.2 44.6019 -98.9599
      vertex 37.2 44.125 -98.7117
    endloop
  endfacet
  facet normal 0 -0.981538 0.191269
    outer loop
      vertex 34 44.157 -101.243
      vertex 37.2 44.6019 -98.9599
      vertex 34 44.6019 -98.9599
    endloop
  endfacet
  facet normal 0 -0.981538 0.191269
    outer loop
      vertex 34 44.157 -101.243
      vertex 37.2 44.157 -101.243
      vertex 37.2 44.6019 -98.9599
    endloop
  endfacet
  facet normal 0 -0.342207 -0.939625
    outer loop
      vertex 34 45.0027 -101.551
      vertex 37.2 44.157 -101.243
      vertex 34 44.157 -101.243
    endloop
  endfacet
  facet normal 0 -0.342207 -0.939625
    outer loop
      vertex 34 45.0027 -101.551
      vertex 37.2 45.0027 -101.551
      vertex 37.2 44.157 -101.243
    endloop
  endfacet
  facet normal 0 0.87487 -0.484358
    outer loop
      vertex 34 46.1294 -99.5159
      vertex 37.2 45.0027 -101.551
      vertex 34 45.0027 -101.551
    endloop
  endfacet
  facet normal 0 0.87487 -0.484358
    outer loop
      vertex 34 46.1294 -99.5159
      vertex 37.2 46.1294 -99.5159
      vertex 37.2 45.0027 -101.551
    endloop
  endfacet
  facet normal 0 -0.216359 -0.976314
    outer loop
      vertex 34 46.6542 -99.6322
      vertex 37.2 46.1294 -99.5159
      vertex 34 46.1294 -99.5159
    endloop
  endfacet
  facet normal 0 -0.216359 -0.976314
    outer loop
      vertex 34 46.6542 -99.6322
      vertex 37.2 46.6542 -99.6322
      vertex 37.2 46.1294 -99.5159
    endloop
  endfacet
  facet normal 0 -0.13058 -0.991438
    outer loop
      vertex 34 47.1872 -99.7024
      vertex 37.2 46.6542 -99.6322
      vertex 34 46.6542 -99.6322
    endloop
  endfacet
  facet normal 0 -0.13058 -0.991438
    outer loop
      vertex 34 47.1872 -99.7024
      vertex 37.2 47.1872 -99.7024
      vertex 37.2 46.6542 -99.6322
    endloop
  endfacet
  facet normal 0 -0.987762 -0.155971
    outer loop
      vertex 34 47.55 -102
      vertex 37.2 47.1872 -99.7024
      vertex 34 47.1872 -99.7024
    endloop
  endfacet
  facet normal 0 -0.987762 -0.155971
    outer loop
      vertex 34 47.55 -102
      vertex 37.2 47.55 -102
      vertex 37.2 47.1872 -99.7024
    endloop
  endfacet
  facet normal 0 0 -1
    outer loop
      vertex 34 48.45 -102
      vertex 37.2 47.55 -102
      vertex 34 47.55 -102
    endloop
  endfacet
  facet normal 0 0 -1
    outer loop
      vertex 34 48.45 -102
      vertex 37.2 48.45 -102
      vertex 37.2 47.55 -102
    endloop
  endfacet
  facet normal 0 0.987762 -0.155971
    outer loop
      vertex 34 48.8128 -99.7024
      vertex 37.2 48.45 -102
      vertex 34 48.45 -102
    endloop
  endfacet
  facet normal 0 0.987762 -0.155971
    outer loop
      vertex 34 48.8128 -99.7024
      vertex 37.2 48.8128 -99.7024
      vertex 37.2 48.45 -102
    endloop
  endfacet
  facet normal 0 0.13058 -0.991438
    outer loop
      vertex 34 49.3458 -99.6322
      vertex 37.2 48.8128 -99.7024
      vertex 34 48.8128 -99.7024
    endloop
  endfacet
  facet normal 0 0.13058 -0.991438
    outer loop
      vertex 34 49.3458 -99.6322
      vertex 37.2 49.3458 -99.6322
      vertex 37.2 48.8128 -99.7024
    endloop
  endfacet
  facet normal 0 0.216359 -0.976314
    outer loop
      vertex 34 49.8706 -99.5159
      vertex 37.2 49.3458 -99.6322
      vertex 34 49.3458 -99.6322
    endloop
  endfacet
  facet normal 0 0.216359 -0.976314
    outer loop
      vertex 34 49.8706 -99.5159
      vertex 37.2 49.8706 -99.5159
      vertex 37.2 49.3458 -99.6322
    endloop
  endfacet
  facet normal 0 -0.87487 -0.484358
    outer loop
      vertex 34 50.9973 -101.551
      vertex 37.2 49.8706 -99.5159
      vertex 34 49.8706 -99.5159
    endloop
  endfacet
  facet normal 0 -0.87487 -0.484358
    outer loop
      vertex 34 50.9973 -101.551
      vertex 37.2 50.9973 -101.551
      vertex 37.2 49.8706 -99.5159
    endloop
  endfacet
  facet normal 0 0.342207 -0.939625
    outer loop
      vertex 34 51.843 -101.243
      vertex 37.2 50.9973 -101.551
      vertex 34 50.9973 -101.551
    endloop
  endfacet
  facet normal 0 0.342207 -0.939625
    outer loop
      vertex 34 51.843 -101.243
      vertex 37.2 51.843 -101.243
      vertex 37.2 50.9973 -101.551
    endloop
  endfacet
  facet normal 0 0.981538 0.191269
    outer loop
      vertex 34 51.3981 -98.9599
      vertex 37.2 51.843 -101.243
      vertex 34 51.843 -101.243
    endloop
  endfacet
  facet normal -0 0.981538 0.191269
    outer loop
      vertex 34 51.3981 -98.9599
      vertex 37.2 51.3981 -98.9599
      vertex 37.2 51.843 -101.243
    endloop
  endfacet
  facet normal 0 0.461663 -0.887055
    outer loop
      vertex 34 51.875 -98.7117
      vertex 37.2 51.3981 -98.9599
      vertex 34 51.3981 -98.9599
    endloop
  endfacet
  facet normal 0 0.461663 -0.887055
    outer loop
      vertex 34 51.875 -98.7117
      vertex 37.2 51.875 -98.7117
      vertex 37.2 51.3981 -98.9599
    endloop
  endfacet
  facet normal 0 0.537369 -0.843347
    outer loop
      vertex 34 52.3284 -98.4228
      vertex 37.2 51.875 -98.7117
      vertex 34 51.875 -98.7117
    endloop
  endfacet
  facet normal 0 0.537369 -0.843347
    outer loop
      vertex 34 52.3284 -98.4228
      vertex 37.2 52.3284 -98.4228
      vertex 37.2 51.875 -98.7117
    endloop
  endfacet
  facet normal 0 -0.656442 -0.754377
    outer loop
      vertex 34 54.0831 -99.9497
      vertex 37.2 52.3284 -98.4228
      vertex 34 52.3284 -98.4228
    endloop
  endfacet
  facet normal 0 -0.656442 -0.754377
    outer loop
      vertex 34 54.0831 -99.9497
      vertex 37.2 54.0831 -99.9497
      vertex 37.2 52.3284 -98.4228
    endloop
  endfacet
  facet normal 0 0.642749 -0.766077
    outer loop
      vertex 34 54.7726 -99.3712
      vertex 37.2 54.0831 -99.9497
      vertex 34 54.0831 -99.9497
    endloop
  endfacet
  facet normal 0 0.642749 -0.766077
    outer loop
      vertex 34 54.7726 -99.3712
      vertex 37.2 54.7726 -99.3712
      vertex 37.2 54.0831 -99.9497
    endloop
  endfacet
  facet normal 0 0.856908 0.515469
    outer loop
      vertex 34 53.5736 -97.378
      vertex 37.2 54.7726 -99.3712
      vertex 34 54.7726 -99.3712
    endloop
  endfacet
  facet normal -0 0.856908 0.515469
    outer loop
      vertex 34 53.5736 -97.378
      vertex 37.2 53.5736 -97.378
      vertex 37.2 54.7726 -99.3712
    endloop
  endfacet
  facet normal 0 0.737309 -0.675556
    outer loop
      vertex 34 53.9368 -96.9816
      vertex 37.2 53.5736 -97.378
      vertex 34 53.5736 -97.378
    endloop
  endfacet
  facet normal 0 0.737309 -0.675556
    outer loop
      vertex 34 53.9368 -96.9816
      vertex 37.2 53.9368 -96.9816
      vertex 37.2 53.5736 -97.378
    endloop
  endfacet
  facet normal 0 0.793322 -0.608802
    outer loop
      vertex 34 54.2641 -96.5551
      vertex 37.2 53.9368 -96.9816
      vertex 34 53.9368 -96.9816
    endloop
  endfacet
  facet normal 0 0.793322 -0.608802
    outer loop
      vertex 34 54.2641 -96.5551
      vertex 37.2 54.2641 -96.5551
      vertex 37.2 53.9368 -96.9816
    endloop
  endfacet
  facet normal 0 -0.358815 -0.933409
    outer loop
      vertex 34 56.4352 -97.3897
      vertex 37.2 54.2641 -96.5551
      vertex 34 54.2641 -96.5551
    endloop
  endfacet
  facet normal 0 -0.358815 -0.933409
    outer loop
      vertex 34 56.4352 -97.3897
      vertex 37.2 56.4352 -97.3897
      vertex 37.2 54.2641 -96.5551
    endloop
  endfacet
  facet normal 0 0.866019 -0.500011
    outer loop
      vertex 34 56.8852 -96.6103
      vertex 37.2 56.4352 -97.3897
      vertex 34 56.4352 -97.3897
    endloop
  endfacet
  facet normal 0 0.866019 -0.500011
    outer loop
      vertex 34 56.8852 -96.6103
      vertex 37.2 56.8852 -96.6103
      vertex 37.2 56.4352 -97.3897
    endloop
  endfacet
  facet normal 0 0.628974 0.777426
    outer loop
      vertex 34 55.0769 -95.1473
      vertex 37.2 56.8852 -96.6103
      vertex 34 56.8852 -96.6103
    endloop
  endfacet
  facet normal -0 0.628974 0.777426
    outer loop
      vertex 34 55.0769 -95.1473
      vertex 37.2 55.0769 -95.1473
      vertex 37.2 56.8852 -96.6103
    endloop
  endfacet
  facet normal 0 0.923879 -0.382686
    outer loop
      vertex 34 55.2826 -94.6507
      vertex 37.2 55.0769 -95.1473
      vertex 34 55.0769 -95.1473
    endloop
  endfacet
  facet normal 0 0.923879 -0.382686
    outer loop
      vertex 34 55.2826 -94.6507
      vertex 37.2 55.2826 -94.6507
      vertex 37.2 55.0769 -95.1473
    endloop
  endfacet
  facet normal 0 0.953709 -0.300731
    outer loop
      vertex 34 55.4443 -94.1379
      vertex 37.2 55.2826 -94.6507
      vertex 34 55.2826 -94.6507
    endloop
  endfacet
  facet normal 0 0.953709 -0.300731
    outer loop
      vertex 34 55.4443 -94.1379
      vertex 37.2 55.4443 -94.1379
      vertex 37.2 55.2826 -94.6507
    endloop
  endfacet
  facet normal 0 -0.017928 -0.999839
    outer loop
      vertex 34 57.7699 -94.1796
      vertex 37.2 55.4443 -94.1379
      vertex 34 55.4443 -94.1379
    endloop
  endfacet
  facet normal 0 -0.017928 -0.999839
    outer loop
      vertex 34 57.7699 -94.1796
      vertex 37.2 57.7699 -94.1796
      vertex 37.2 55.4443 -94.1379
    endloop
  endfacet
  facet normal 0 0.984804 -0.173671
    outer loop
      vertex 34 57.9262 -93.2933
      vertex 37.2 57.7699 -94.1796
      vertex 34 57.7699 -94.1796
    endloop
  endfacet
  facet normal 0 0.984804 -0.173671
    outer loop
      vertex 34 57.9262 -93.2933
      vertex 37.2 57.9262 -93.2933
      vertex 37.2 57.7699 -94.1796
    endloop
  endfacet
  facet normal 0 0.3251 0.94568
    outer loop
      vertex 34 55.7265 -92.5371
      vertex 37.2 57.9262 -93.2933
      vertex 34 57.9262 -93.2933
    endloop
  endfacet
  facet normal -0 0.3251 0.94568
    outer loop
      vertex 34 55.7265 -92.5371
      vertex 37.2 55.7265 -92.5371
      vertex 37.2 57.9262 -93.2933
    endloop
  endfacet
  facet normal 0 0.999044 -0.0437117
    outer loop
      vertex 34 55.75 -92
      vertex 37.2 55.7265 -92.5371
      vertex 34 55.7265 -92.5371
    endloop
  endfacet
  facet normal 0 0.999044 -0.0437117
    outer loop
      vertex 34 55.75 -92
      vertex 37.2 55.75 -92
      vertex 37.2 55.7265 -92.5371
    endloop
  endfacet
  facet normal 0 0.999044 0.0437117
    outer loop
      vertex 34 55.7265 -91.4629
      vertex 37.2 55.75 -92
      vertex 34 55.75 -92
    endloop
  endfacet
  facet normal -0 0.999044 0.0437117
    outer loop
      vertex 34 55.7265 -91.4629
      vertex 37.2 55.7265 -91.4629
      vertex 37.2 55.75 -92
    endloop
  endfacet
  facet normal 0 0.3251 -0.94568
    outer loop
      vertex 34 57.9262 -90.7067
      vertex 37.2 55.7265 -91.4629
      vertex 34 55.7265 -91.4629
    endloop
  endfacet
  facet normal 0 0.3251 -0.94568
    outer loop
      vertex 34 57.9262 -90.7067
      vertex 37.2 57.9262 -90.7067
      vertex 37.2 55.7265 -91.4629
    endloop
  endfacet
  facet normal 0 0.984804 0.173671
    outer loop
      vertex 34 57.7699 -89.8204
      vertex 37.2 57.9262 -90.7067
      vertex 34 57.9262 -90.7067
    endloop
  endfacet
  facet normal -0 0.984804 0.173671
    outer loop
      vertex 34 57.7699 -89.8204
      vertex 37.2 57.7699 -89.8204
      vertex 37.2 57.9262 -90.7067
    endloop
  endfacet
  facet normal 0 -0.017928 0.999839
    outer loop
      vertex 34 55.4443 -89.8621
      vertex 37.2 57.7699 -89.8204
      vertex 34 57.7699 -89.8204
    endloop
  endfacet
  facet normal 0 -0.017928 0.999839
    outer loop
      vertex 34 55.4443 -89.8621
      vertex 37.2 55.4443 -89.8621
      vertex 37.2 57.7699 -89.8204
    endloop
  endfacet
  facet normal 0 0.953709 0.300731
    outer loop
      vertex 34 55.2826 -89.3493
      vertex 37.2 55.4443 -89.8621
      vertex 34 55.4443 -89.8621
    endloop
  endfacet
  facet normal -0 0.953709 0.300731
    outer loop
      vertex 34 55.2826 -89.3493
      vertex 37.2 55.2826 -89.3493
      vertex 37.2 55.4443 -89.8621
    endloop
  endfacet
  facet normal 0 0.923879 0.382686
    outer loop
      vertex 34 55.0769 -88.8527
      vertex 37.2 55.2826 -89.3493
      vertex 34 55.2826 -89.3493
    endloop
  endfacet
  facet normal -0 0.923879 0.382686
    outer loop
      vertex 34 55.0769 -88.8527
      vertex 37.2 55.0769 -88.8527
      vertex 37.2 55.2826 -89.3493
    endloop
  endfacet
  facet normal 0 0.628974 -0.777426
    outer loop
      vertex 34 56.8852 -87.3897
      vertex 37.2 55.0769 -88.8527
      vertex 34 55.0769 -88.8527
    endloop
  endfacet
  facet normal 0 0.628974 -0.777426
    outer loop
      vertex 34 56.8852 -87.3897
      vertex 37.2 56.8852 -87.3897
      vertex 37.2 55.0769 -88.8527
    endloop
  endfacet
  facet normal 0 0.866019 0.500011
    outer loop
      vertex 34 56.4352 -86.6103
      vertex 37.2 56.8852 -87.3897
      vertex 34 56.8852 -87.3897
    endloop
  endfacet
  facet normal -0 0.866019 0.500011
    outer loop
      vertex 34 56.4352 -86.6103
      vertex 37.2 56.4352 -86.6103
      vertex 37.2 56.8852 -87.3897
    endloop
  endfacet
  facet normal 0 -0.358815 0.933409
    outer loop
      vertex 34 54.2641 -87.4449
      vertex 37.2 56.4352 -86.6103
      vertex 34 56.4352 -86.6103
    endloop
  endfacet
  facet normal 0 -0.358815 0.933409
    outer loop
      vertex 34 54.2641 -87.4449
      vertex 37.2 54.2641 -87.4449
      vertex 37.2 56.4352 -86.6103
    endloop
  endfacet
  facet normal 0 0.793322 0.608802
    outer loop
      vertex 34 53.9368 -87.0184
      vertex 37.2 54.2641 -87.4449
      vertex 34 54.2641 -87.4449
    endloop
  endfacet
  facet normal -0 0.793322 0.608802
    outer loop
      vertex 34 53.9368 -87.0184
      vertex 37.2 53.9368 -87.0184
      vertex 37.2 54.2641 -87.4449
    endloop
  endfacet
  facet normal 0 0.737309 0.675556
    outer loop
      vertex 34 53.5736 -86.622
      vertex 37.2 53.9368 -87.0184
      vertex 34 53.9368 -87.0184
    endloop
  endfacet
  facet normal -0 0.737309 0.675556
    outer loop
      vertex 34 53.5736 -86.622
      vertex 37.2 53.5736 -86.622
      vertex 37.2 53.9368 -87.0184
    endloop
  endfacet
  facet normal 0 0.856908 -0.515469
    outer loop
      vertex 34 54.7726 -84.6288
      vertex 37.2 53.5736 -86.622
      vertex 34 53.5736 -86.622
    endloop
  endfacet
  facet normal 0 0.856908 -0.515469
    outer loop
      vertex 34 54.7726 -84.6288
      vertex 37.2 54.7726 -84.6288
      vertex 37.2 53.5736 -86.622
    endloop
  endfacet
  facet normal 0 0.642749 0.766077
    outer loop
      vertex 34 54.0831 -84.0503
      vertex 37.2 54.7726 -84.6288
      vertex 34 54.7726 -84.6288
    endloop
  endfacet
  facet normal -0 0.642749 0.766077
    outer loop
      vertex 34 54.0831 -84.0503
      vertex 37.2 54.0831 -84.0503
      vertex 37.2 54.7726 -84.6288
    endloop
  endfacet
  facet normal 0 -0.656442 0.754377
    outer loop
      vertex 34 52.3284 -85.5772
      vertex 37.2 54.0831 -84.0503
      vertex 34 54.0831 -84.0503
    endloop
  endfacet
  facet normal 0 -0.656442 0.754377
    outer loop
      vertex 34 52.3284 -85.5772
      vertex 37.2 52.3284 -85.5772
      vertex 37.2 54.0831 -84.0503
    endloop
  endfacet
  facet normal 0 0.537369 0.843347
    outer loop
      vertex 34 51.875 -85.2883
      vertex 37.2 52.3284 -85.5772
      vertex 34 52.3284 -85.5772
    endloop
  endfacet
  facet normal -0 0.537369 0.843347
    outer loop
      vertex 34 51.875 -85.2883
      vertex 37.2 51.875 -85.2883
      vertex 37.2 52.3284 -85.5772
    endloop
  endfacet
  facet normal 0 0.461663 0.887055
    outer loop
      vertex 34 51.3981 -85.0401
      vertex 37.2 51.875 -85.2883
      vertex 34 51.875 -85.2883
    endloop
  endfacet
  facet normal -0 0.461663 0.887055
    outer loop
      vertex 34 51.3981 -85.0401
      vertex 37.2 51.3981 -85.0401
      vertex 37.2 51.875 -85.2883
    endloop
  endfacet
  facet normal 0 0.981538 -0.191269
    outer loop
      vertex 34 51.843 -82.757
      vertex 37.2 51.3981 -85.0401
      vertex 34 51.3981 -85.0401
    endloop
  endfacet
  facet normal 0 0.981538 -0.191269
    outer loop
      vertex 34 51.843 -82.757
      vertex 37.2 51.843 -82.757
      vertex 37.2 51.3981 -85.0401
    endloop
  endfacet
  facet normal 0 0.342011 0.939696
    outer loop
      vertex 34 50.9973 -82.4492
      vertex 37.2 51.843 -82.757
      vertex 34 51.843 -82.757
    endloop
  endfacet
  facet normal -0 0.342011 0.939696
    outer loop
      vertex 34 50.9973 -82.4492
      vertex 37.2 50.9973 -82.4492
      vertex 37.2 51.843 -82.757
    endloop
  endfacet
  facet normal 0 -0.87485 0.484394
    outer loop
      vertex 34 49.8706 -84.4841
      vertex 37.2 50.9973 -82.4492
      vertex 34 50.9973 -82.4492
    endloop
  endfacet
  facet normal 0 -0.87485 0.484394
    outer loop
      vertex 34 49.8706 -84.4841
      vertex 37.2 49.8706 -84.4841
      vertex 37.2 50.9973 -82.4492
    endloop
  endfacet
  facet normal 0 0.216359 0.976314
    outer loop
      vertex 34 49.3458 -84.3678
      vertex 37.2 49.8706 -84.4841
      vertex 34 49.8706 -84.4841
    endloop
  endfacet
  facet normal -0 0.216359 0.976314
    outer loop
      vertex 34 49.3458 -84.3678
      vertex 37.2 49.3458 -84.3678
      vertex 37.2 49.8706 -84.4841
    endloop
  endfacet
  facet normal 0 0.13058 0.991438
    outer loop
      vertex 34 48.8128 -84.2976
      vertex 37.2 49.3458 -84.3678
      vertex 34 49.3458 -84.3678
    endloop
  endfacet
  facet normal -0 0.13058 0.991438
    outer loop
      vertex 34 48.8128 -84.2976
      vertex 37.2 48.8128 -84.2976
      vertex 37.2 49.3458 -84.3678
    endloop
  endfacet
  facet normal 0 0.987762 0.155971
    outer loop
      vertex 34 48.45 -82
      vertex 37.2 48.8128 -84.2976
      vertex 34 48.8128 -84.2976
    endloop
  endfacet
  facet normal -0 0.987762 0.155971
    outer loop
      vertex 34 48.45 -82
      vertex 37.2 48.45 -82
      vertex 37.2 48.8128 -84.2976
    endloop
  endfacet
  facet normal 0 0 1
    outer loop
      vertex 34 47.55 -82
      vertex 37.2 48.45 -82
      vertex 34 48.45 -82
    endloop
  endfacet
  facet normal 0 0 1
    outer loop
      vertex 34 47.55 -82
      vertex 37.2 47.55 -82
      vertex 37.2 48.45 -82
    endloop
  endfacet
  facet normal 0 -0.987762 0.155971
    outer loop
      vertex 34 47.1872 -84.2976
      vertex 37.2 47.55 -82
      vertex 34 47.55 -82
    endloop
  endfacet
  facet normal 0 -0.987762 0.155971
    outer loop
      vertex 34 47.1872 -84.2976
      vertex 37.2 47.1872 -84.2976
      vertex 37.2 47.55 -82
    endloop
  endfacet
  facet normal 0 -0.13058 0.991438
    outer loop
      vertex 34 46.6542 -84.3678
      vertex 37.2 47.1872 -84.2976
      vertex 34 47.1872 -84.2976
    endloop
  endfacet
  facet normal 0 -0.13058 0.991438
    outer loop
      vertex 34 46.6542 -84.3678
      vertex 37.2 46.6542 -84.3678
      vertex 37.2 47.1872 -84.2976
    endloop
  endfacet
  facet normal 0 -0.216359 0.976314
    outer loop
      vertex 34 46.1294 -84.4841
      vertex 37.2 46.6542 -84.3678
      vertex 34 46.6542 -84.3678
    endloop
  endfacet
  facet normal 0 -0.216359 0.976314
    outer loop
      vertex 34 46.1294 -84.4841
      vertex 37.2 46.1294 -84.4841
      vertex 37.2 46.6542 -84.3678
    endloop
  endfacet
  facet normal 0 0.87485 0.484394
    outer loop
      vertex 34 45.0027 -82.4492
      vertex 37.2 46.1294 -84.4841
      vertex 34 46.1294 -84.4841
    endloop
  endfacet
  facet normal -0 0.87485 0.484394
    outer loop
      vertex 34 45.0027 -82.4492
      vertex 37.2 45.0027 -82.4492
      vertex 37.2 46.1294 -84.4841
    endloop
  endfacet
  facet normal 0 -0.342011 0.939696
    outer loop
      vertex 34 44.157 -82.757
      vertex 37.2 45.0027 -82.4492
      vertex 34 45.0027 -82.4492
    endloop
  endfacet
  facet normal 0 -0.342011 0.939696
    outer loop
      vertex 34 44.157 -82.757
      vertex 37.2 44.157 -82.757
      vertex 37.2 45.0027 -82.4492
    endloop
  endfacet
  facet normal 0 -0.981538 -0.191269
    outer loop
      vertex 34 44.6019 -85.0401
      vertex 37.2 44.157 -82.757
      vertex 34 44.157 -82.757
    endloop
  endfacet
  facet normal 0 -0.981538 -0.191269
    outer loop
      vertex 34 44.6019 -85.0401
      vertex 37.2 44.6019 -85.0401
      vertex 37.2 44.157 -82.757
    endloop
  endfacet
  facet normal 0 -0.461663 0.887055
    outer loop
      vertex 34 44.125 -85.2883
      vertex 37.2 44.6019 -85.0401
      vertex 34 44.6019 -85.0401
    endloop
  endfacet
  facet normal 0 -0.461663 0.887055
    outer loop
      vertex 34 44.125 -85.2883
      vertex 37.2 44.125 -85.2883
      vertex 37.2 44.6019 -85.0401
    endloop
  endfacet
  facet normal 0 -0.537369 0.843347
    outer loop
      vertex 34 43.6716 -85.5772
      vertex 37.2 44.125 -85.2883
      vertex 34 44.125 -85.2883
    endloop
  endfacet
  facet normal 0 -0.537369 0.843347
    outer loop
      vertex 34 43.6716 -85.5772
      vertex 37.2 43.6716 -85.5772
      vertex 37.2 44.125 -85.2883
    endloop
  endfacet
  facet normal 0 0.656442 0.754377
    outer loop
      vertex 34 41.9169 -84.0503
      vertex 37.2 43.6716 -85.5772
      vertex 34 43.6716 -85.5772
    endloop
  endfacet
  facet normal -0 0.656442 0.754377
    outer loop
      vertex 34 41.9169 -84.0503
      vertex 37.2 41.9169 -84.0503
      vertex 37.2 43.6716 -85.5772
    endloop
  endfacet
  facet normal 0 -0.642749 0.766077
    outer loop
      vertex 34 41.2274 -84.6288
      vertex 37.2 41.9169 -84.0503
      vertex 34 41.9169 -84.0503
    endloop
  endfacet
  facet normal 0 -0.642749 0.766077
    outer loop
      vertex 34 41.2274 -84.6288
      vertex 37.2 41.2274 -84.6288
      vertex 37.2 41.9169 -84.0503
    endloop
  endfacet
  facet normal 0 -0.856908 -0.515469
    outer loop
      vertex 34 42.4264 -86.622
      vertex 37.2 41.2274 -84.6288
      vertex 34 41.2274 -84.6288
    endloop
  endfacet
  facet normal 0 -0.856908 -0.515469
    outer loop
      vertex 34 42.4264 -86.622
      vertex 37.2 42.4264 -86.622
      vertex 37.2 41.2274 -84.6288
    endloop
  endfacet
  facet normal 0 -0.737309 0.675556
    outer loop
      vertex 34 42.0632 -87.0184
      vertex 37.2 42.4264 -86.622
      vertex 34 42.4264 -86.622
    endloop
  endfacet
  facet normal 0 -0.737309 0.675556
    outer loop
      vertex 34 42.0632 -87.0184
      vertex 37.2 42.0632 -87.0184
      vertex 37.2 42.4264 -86.622
    endloop
  endfacet
  facet normal 0 -0.793322 0.608802
    outer loop
      vertex 34 41.7359 -87.4449
      vertex 37.2 42.0632 -87.0184
      vertex 34 42.0632 -87.0184
    endloop
  endfacet
  facet normal 0 -0.793322 0.608802
    outer loop
      vertex 34 41.7359 -87.4449
      vertex 37.2 41.7359 -87.4449
      vertex 37.2 42.0632 -87.0184
    endloop
  endfacet
  facet normal 0 0.358815 0.933409
    outer loop
      vertex 34 39.5648 -86.6103
      vertex 37.2 41.7359 -87.4449
      vertex 34 41.7359 -87.4449
    endloop
  endfacet
  facet normal -0 0.358815 0.933409
    outer loop
      vertex 34 39.5648 -86.6103
      vertex 37.2 39.5648 -86.6103
      vertex 37.2 41.7359 -87.4449
    endloop
  endfacet
  facet normal 0 -0.866019 0.500011
    outer loop
      vertex 34 39.1148 -87.3897
      vertex 37.2 39.5648 -86.6103
      vertex 34 39.5648 -86.6103
    endloop
  endfacet
  facet normal 0 -0.866019 0.500011
    outer loop
      vertex 34 39.1148 -87.3897
      vertex 37.2 39.1148 -87.3897
      vertex 37.2 39.5648 -86.6103
    endloop
  endfacet
  facet normal 0 -0.628974 -0.777426
    outer loop
      vertex 34 40.9231 -88.8527
      vertex 37.2 39.1148 -87.3897
      vertex 34 39.1148 -87.3897
    endloop
  endfacet
  facet normal 0 -0.628974 -0.777426
    outer loop
      vertex 34 40.9231 -88.8527
      vertex 37.2 40.9231 -88.8527
      vertex 37.2 39.1148 -87.3897
    endloop
  endfacet
  facet normal 0 -0.923879 0.382686
    outer loop
      vertex 34 40.7174 -89.3493
      vertex 37.2 40.9231 -88.8527
      vertex 34 40.9231 -88.8527
    endloop
  endfacet
  facet normal 0 -0.923879 0.382686
    outer loop
      vertex 34 40.7174 -89.3493
      vertex 37.2 40.7174 -89.3493
      vertex 37.2 40.9231 -88.8527
    endloop
  endfacet
  facet normal 0 -0.953709 0.300731
    outer loop
      vertex 34 40.5557 -89.8621
      vertex 37.2 40.7174 -89.3493
      vertex 34 40.7174 -89.3493
    endloop
  endfacet
  facet normal 0 -0.953709 0.300731
    outer loop
      vertex 34 40.5557 -89.8621
      vertex 37.2 40.5557 -89.8621
      vertex 37.2 40.7174 -89.3493
    endloop
  endfacet
  facet normal 0 0.017928 0.999839
    outer loop
      vertex 34 38.2301 -89.8204
      vertex 37.2 40.5557 -89.8621
      vertex 34 40.5557 -89.8621
    endloop
  endfacet
  facet normal -0 0.017928 0.999839
    outer loop
      vertex 34 38.2301 -89.8204
      vertex 37.2 38.2301 -89.8204
      vertex 37.2 40.5557 -89.8621
    endloop
  endfacet
  facet normal 0 -0.984804 0.173671
    outer loop
      vertex 34 38.0738 -90.7067
      vertex 37.2 38.2301 -89.8204
      vertex 34 38.2301 -89.8204
    endloop
  endfacet
  facet normal 0 -0.984804 0.173671
    outer loop
      vertex 34 38.0738 -90.7067
      vertex 37.2 38.0738 -90.7067
      vertex 37.2 38.2301 -89.8204
    endloop
  endfacet
  facet normal 0 -0.3251 -0.94568
    outer loop
      vertex 34 40.2735 -91.4629
      vertex 37.2 38.0738 -90.7067
      vertex 34 38.0738 -90.7067
    endloop
  endfacet
  facet normal 0 -0.3251 -0.94568
    outer loop
      vertex 34 40.2735 -91.4629
      vertex 37.2 40.2735 -91.4629
      vertex 37.2 38.0738 -90.7067
    endloop
  endfacet
  facet normal 0 -0.999044 0.0437117
    outer loop
      vertex 34 40.25 -92
      vertex 37.2 40.2735 -91.4629
      vertex 34 40.2735 -91.4629
    endloop
  endfacet
  facet normal 0 -0.999044 0.0437117
    outer loop
      vertex 34 40.25 -92
      vertex 37.2 40.25 -92
      vertex 37.2 40.2735 -91.4629
    endloop
  endfacet
  facet normal 0 -0.999044 -0.0437117
    outer loop
      vertex 34 40.2735 -92.5371
      vertex 37.2 40.25 -92
      vertex 34 40.25 -92
    endloop
  endfacet
  facet normal 0 -0.999044 -0.0437117
    outer loop
      vertex 34 40.2735 -92.5371
      vertex 37.2 40.2735 -92.5371
      vertex 37.2 40.25 -92
    endloop
  endfacet
  facet normal 0 -0.3251 0.94568
    outer loop
      vertex 34 38.0738 -93.2933
      vertex 37.2 40.2735 -92.5371
      vertex 34 40.2735 -92.5371
    endloop
  endfacet
  facet normal 0 -0.3251 0.94568
    outer loop
      vertex 34 38.0738 -93.2933
      vertex 37.2 38.0738 -93.2933
      vertex 37.2 40.2735 -92.5371
    endloop
  endfacet
  facet normal 0 -0.984804 -0.173671
    outer loop
      vertex 34 38.2301 -94.1796
      vertex 37.2 38.0738 -93.2933
      vertex 34 38.0738 -93.2933
    endloop
  endfacet
  facet normal 0 -0.984804 -0.173671
    outer loop
      vertex 34 38.2301 -94.1796
      vertex 37.2 38.2301 -94.1796
      vertex 37.2 38.0738 -93.2933
    endloop
  endfacet
  facet normal 0 0.891019 -0.453966
    outer loop
      vertex 34 46.0584 -90.5893
      vertex 37.2 46.0584 -90.5893
      vertex 34 45.7175 -91.2584
    endloop
  endfacet
  facet normal 0 0.891019 -0.453966
    outer loop
      vertex 37.2 45.7175 -91.2584
      vertex 34 45.7175 -91.2584
      vertex 37.2 46.0584 -90.5893
    endloop
  endfacet
  facet normal 0 0.707107 -0.707107
    outer loop
      vertex 34 46.5893 -90.0584
      vertex 37.2 46.5893 -90.0584
      vertex 34 46.0584 -90.5893
    endloop
  endfacet
  facet normal 0 0.707107 -0.707107
    outer loop
      vertex 37.2 46.0584 -90.5893
      vertex 34 46.0584 -90.5893
      vertex 37.2 46.5893 -90.0584
    endloop
  endfacet
  facet normal 0 0.453966 -0.891019
    outer loop
      vertex 34 47.2584 -89.7175
      vertex 37.2 47.2584 -89.7175
      vertex 34 46.5893 -90.0584
    endloop
  endfacet
  facet normal 0 0.453966 -0.891019
    outer loop
      vertex 37.2 46.5893 -90.0584
      vertex 34 46.5893 -90.0584
      vertex 37.2 47.2584 -89.7175
    endloop
  endfacet
  facet normal 0 0.156489 -0.98768
    outer loop
      vertex 34 48 -89.6
      vertex 37.2 48 -89.6
      vertex 34 47.2584 -89.7175
    endloop
  endfacet
  facet normal 0 0.156489 -0.98768
    outer loop
      vertex 37.2 47.2584 -89.7175
      vertex 34 47.2584 -89.7175
      vertex 37.2 48 -89.6
    endloop
  endfacet
  facet normal 0 -0.156489 -0.98768
    outer loop
      vertex 34 48.7416 -89.7175
      vertex 37.2 48.7416 -89.7175
      vertex 34 48 -89.6
    endloop
  endfacet
  facet normal -0 -0.156489 -0.98768
    outer loop
      vertex 37.2 48 -89.6
      vertex 34 48 -89.6
      vertex 37.2 48.7416 -89.7175
    endloop
  endfacet
  facet normal 0 -0.453966 -0.891019
    outer loop
      vertex 34 49.4107 -90.0584
      vertex 37.2 49.4107 -90.0584
      vertex 34 48.7416 -89.7175
    endloop
  endfacet
  facet normal -0 -0.453966 -0.891019
    outer loop
      vertex 37.2 48.7416 -89.7175
      vertex 34 48.7416 -89.7175
      vertex 37.2 49.4107 -90.0584
    endloop
  endfacet
  facet normal 0 -0.707107 -0.707107
    outer loop
      vertex 34 49.9416 -90.5893
      vertex 37.2 49.9416 -90.5893
      vertex 34 49.4107 -90.0584
    endloop
  endfacet
  facet normal -0 -0.707107 -0.707107
    outer loop
      vertex 37.2 49.4107 -90.0584
      vertex 34 49.4107 -90.0584
      vertex 37.2 49.9416 -90.5893
    endloop
  endfacet
  facet normal 0 -0.891019 -0.453966
    outer loop
      vertex 34 50.2825 -91.2584
      vertex 37.2 50.2825 -91.2584
      vertex 34 49.9416 -90.5893
    endloop
  endfacet
  facet normal -0 -0.891019 -0.453966
    outer loop
      vertex 37.2 49.9416 -90.5893
      vertex 34 49.9416 -90.5893
      vertex 37.2 50.2825 -91.2584
    endloop
  endfacet
  facet normal 0 -0.98768 -0.156489
    outer loop
      vertex 34 50.4 -92
      vertex 37.2 50.4 -92
      vertex 34 50.2825 -91.2584
    endloop
  endfacet
  facet normal -0 -0.98768 -0.156489
    outer loop
      vertex 37.2 50.2825 -91.2584
      vertex 34 50.2825 -91.2584
      vertex 37.2 50.4 -92
    endloop
  endfacet
  facet normal 0 -0.98768 0.156489
    outer loop
      vertex 34 50.2825 -92.7416
      vertex 37.2 50.2825 -92.7416
      vertex 34 50.4 -92
    endloop
  endfacet
  facet normal 0 -0.98768 0.156489
    outer loop
      vertex 37.2 50.4 -92
      vertex 34 50.4 -92
      vertex 37.2 50.2825 -92.7416
    endloop
  endfacet
  facet normal 0 -0.891019 0.453966
    outer loop
      vertex 34 49.9416 -93.4107
      vertex 37.2 49.9416 -93.4107
      vertex 34 50.2825 -92.7416
    endloop
  endfacet
  facet normal 0 -0.891019 0.453966
    outer loop
      vertex 37.2 50.2825 -92.7416
      vertex 34 50.2825 -92.7416
      vertex 37.2 49.9416 -93.4107
    endloop
  endfacet
  facet normal 0 -0.707107 0.707107
    outer loop
      vertex 34 49.4107 -93.9416
      vertex 37.2 49.4107 -93.9416
      vertex 34 49.9416 -93.4107
    endloop
  endfacet
  facet normal 0 -0.707107 0.707107
    outer loop
      vertex 37.2 49.9416 -93.4107
      vertex 34 49.9416 -93.4107
      vertex 37.2 49.4107 -93.9416
    endloop
  endfacet
  facet normal 0 -0.453966 0.891019
    outer loop
      vertex 34 48.7416 -94.2825
      vertex 37.2 48.7416 -94.2825
      vertex 34 49.4107 -93.9416
    endloop
  endfacet
  facet normal 0 -0.453966 0.891019
    outer loop
      vertex 37.2 49.4107 -93.9416
      vertex 34 49.4107 -93.9416
      vertex 37.2 48.7416 -94.2825
    endloop
  endfacet
  facet normal 0 -0.156489 0.98768
    outer loop
      vertex 34 48 -94.4
      vertex 37.2 48 -94.4
      vertex 34 48.7416 -94.2825
    endloop
  endfacet
  facet normal 0 -0.156489 0.98768
    outer loop
      vertex 37.2 48.7416 -94.2825
      vertex 34 48.7416 -94.2825
      vertex 37.2 48 -94.4
    endloop
  endfacet
  facet normal -0 0.156489 0.98768
    outer loop
      vertex 34 47.2584 -94.2825
      vertex 37.2 47.2584 -94.2825
      vertex 34 48 -94.4
    endloop
  endfacet
  facet normal 0 0.156489 0.98768
    outer loop
      vertex 37.2 48 -94.4
      vertex 34 48 -94.4
      vertex 37.2 47.2584 -94.2825
    endloop
  endfacet
  facet normal -0 0.453966 0.891019
    outer loop
      vertex 34 46.5893 -93.9416
      vertex 37.2 46.5893 -93.9416
      vertex 34 47.2584 -94.2825
    endloop
  endfacet
  facet normal 0 0.453966 0.891019
    outer loop
      vertex 37.2 47.2584 -94.2825
      vertex 34 47.2584 -94.2825
      vertex 37.2 46.5893 -93.9416
    endloop
  endfacet
  facet normal -0 0.707107 0.707107
    outer loop
      vertex 34 46.0584 -93.4107
      vertex 37.2 46.0584 -93.4107
      vertex 34 46.5893 -93.9416
    endloop
  endfacet
  facet normal 0 0.707107 0.707107
    outer loop
      vertex 37.2 46.5893 -93.9416
      vertex 34 46.5893 -93.9416
      vertex 37.2 46.0584 -93.4107
    endloop
  endfacet
  facet normal -0 0.891019 0.453966
    outer loop
      vertex 34 45.7175 -92.7416
      vertex 37.2 45.7175 -92.7416
      vertex 34 46.0584 -93.4107
    endloop
  endfacet
  facet normal 0 0.891019 0.453966
    outer loop
      vertex 37.2 46.0584 -93.4107
      vertex 34 46.0584 -93.4107
      vertex 37.2 45.7175 -92.7416
    endloop
  endfacet
  facet normal -0 0.98768 0.156489
    outer loop
      vertex 34 45.6 -92
      vertex 37.2 45.6 -92
      vertex 34 45.7175 -92.7416
    endloop
  endfacet
  facet normal 0 0.98768 0.156489
    outer loop
      vertex 37.2 45.7175 -92.7416
      vertex 34 45.7175 -92.7416
      vertex 37.2 45.6 -92
    endloop
  endfacet
  facet normal 0 0.98768 -0.156489
    outer loop
      vertex 34 45.7175 -91.2584
      vertex 37.2 45.7175 -91.2584
      vertex 34 45.6 -92
    endloop
  endfacet
  facet normal 0 0.98768 -0.156489
    outer loop
      vertex 37.2 45.6 -92
      vertex 34 45.6 -92
      vertex 37.2 45.7175 -91.2584
    endloop
  endfacet
endsolid OpenSCAD_Model
