solid OpenSCAD_Model
  facet normal -1 -0 0
    outer loop
      vertex 20 46.0584 -117.411
      vertex 20 40.9231 -119.147
      vertex 20 45.7175 -116.742
    endloop
  endfacet
  facet normal -1 -0 0
    outer loop
      vertex 20 40.5557 -118.138
      vertex 20 38.2301 -118.18
      vertex 20 38.0738 -117.293
    endloop
  endfacet
  facet normal -1 0 -0
    outer loop
      vertex 20 46.0584 -117.411
      vertex 20 46.5893 -117.942
      vertex 20 42.4264 -121.378
    endloop
  endfacet
  facet normal -1 -0 0
    outer loop
      vertex 20 55.4443 -118.138
      vertex 20 55.2826 -118.651
      vertex 20 50.2825 -116.742
    endloop
  endfacet
  facet normal -1 0 0
    outer loop
      vertex 20 47.1872 -123.702
      vertex 20 46.6542 -123.632
      vertex 20 48 -118.4
    endloop
  endfacet
  facet normal -1 0 0
    outer loop
      vertex 20 40.9231 -119.147
      vertex 20 39.5648 -121.39
      vertex 20 39.1148 -120.61
    endloop
  endfacet
  facet normal -1 0 -0
    outer loop
      vertex 20 40.9231 -119.147
      vertex 20 41.7359 -120.555
      vertex 20 39.5648 -121.39
    endloop
  endfacet
  facet normal -1 0 0
    outer loop
      vertex 20 49.4107 -117.942
      vertex 20 51.875 -122.712
      vertex 20 51.3981 -122.96
    endloop
  endfacet
  facet normal -1 0 0
    outer loop
      vertex 20 42.4264 -121.378
      vertex 20 46.5893 -117.942
      vertex 20 43.6716 -122.423
    endloop
  endfacet
  facet normal -1 0 0
    outer loop
      vertex 20 46.5893 -117.942
      vertex 20 44.6019 -122.96
      vertex 20 44.125 -122.712
    endloop
  endfacet
  facet normal -1 0 0
    outer loop
      vertex 20 43.6716 -122.423
      vertex 20 41.9169 -123.95
      vertex 20 41.2274 -123.371
    endloop
  endfacet
  facet normal -1 0 -0
    outer loop
      vertex 20 42.4264 -121.378
      vertex 20 43.6716 -122.423
      vertex 20 41.2274 -123.371
    endloop
  endfacet
  facet normal -1 0 0
    outer loop
      vertex 20 52.3284 -122.423
      vertex 20 49.4107 -117.942
      vertex 20 53.5736 -121.378
    endloop
  endfacet
  facet normal -1 0 0
    outer loop
      vertex 20 47.2584 -118.283
      vertex 20 46.6542 -123.632
      vertex 20 46.1294 -123.516
    endloop
  endfacet
  facet normal -1 0 0
    outer loop
      vertex 20 48.8128 -123.702
      vertex 20 48 -118.4
      vertex 20 49.3458 -123.632
    endloop
  endfacet
  facet normal -1 0 0
    outer loop
      vertex 20 46.1294 -123.516
      vertex 20 45.0027 -125.551
      vertex 20 44.157 -125.243
    endloop
  endfacet
  facet normal -1 0 -0
    outer loop
      vertex 20 44.6019 -122.96
      vertex 20 46.1294 -123.516
      vertex 20 44.157 -125.243
    endloop
  endfacet
  facet normal -1 0 0
    outer loop
      vertex 20 49.4107 -114.058
      vertex 20 53.5736 -110.622
      vertex 20 49.9416 -114.589
    endloop
  endfacet
  facet normal -1 0 -0
    outer loop
      vertex 20 48.7416 -118.283
      vertex 20 49.3458 -123.632
      vertex 20 48 -118.4
    endloop
  endfacet
  facet normal -1 0 0
    outer loop
      vertex 20 49.9416 -117.411
      vertex 20 53.9368 -120.982
      vertex 20 53.5736 -121.378
    endloop
  endfacet
  facet normal -1 0 0
    outer loop
      vertex 20 48.8128 -123.702
      vertex 20 48.45 -126
      vertex 20 47.55 -126
    endloop
  endfacet
  facet normal -1 0 0
    outer loop
      vertex 20 47.1872 -123.702
      vertex 20 48.8128 -123.702
      vertex 20 47.55 -126
    endloop
  endfacet
  facet normal -1 0 0
    outer loop
      vertex 20 55.0769 -119.147
      vertex 20 50.2825 -116.742
      vertex 20 55.2826 -118.651
    endloop
  endfacet
  facet normal -1 -0 0
    outer loop
      vertex 20 52.3284 -122.423
      vertex 20 51.875 -122.712
      vertex 20 49.4107 -117.942
    endloop
  endfacet
  facet normal -1 0 0
    outer loop
      vertex 20 49.8706 -123.516
      vertex 20 48.7416 -118.283
      vertex 20 51.3981 -122.96
    endloop
  endfacet
  facet normal -1 0 0
    outer loop
      vertex 20 49.8706 -123.516
      vertex 20 51.843 -125.243
      vertex 20 50.9973 -125.551
    endloop
  endfacet
  facet normal -1 0 0
    outer loop
      vertex 20 49.8706 -123.516
      vertex 20 51.3981 -122.96
      vertex 20 51.843 -125.243
    endloop
  endfacet
  facet normal -1 0 -0
    outer loop
      vertex 20 55.0769 -119.147
      vertex 20 56.4352 -121.39
      vertex 20 54.2641 -120.555
    endloop
  endfacet
  facet normal -1 -0 0
    outer loop
      vertex 20 54.2641 -120.555
      vertex 20 53.9368 -120.982
      vertex 20 49.9416 -117.411
    endloop
  endfacet
  facet normal -1 0 -0
    outer loop
      vertex 20 50.4 -116
      vertex 20 55.7265 -116.537
      vertex 20 50.2825 -116.742
    endloop
  endfacet
  facet normal -1 0 0
    outer loop
      vertex 20 52.3284 -122.423
      vertex 20 54.7726 -123.371
      vertex 20 54.0831 -123.95
    endloop
  endfacet
  facet normal -1 0 0
    outer loop
      vertex 20 52.3284 -122.423
      vertex 20 53.5736 -121.378
      vertex 20 54.7726 -123.371
    endloop
  endfacet
  facet normal -1 0 0
    outer loop
      vertex 20 57.9262 -117.293
      vertex 20 57.7699 -118.18
      vertex 20 55.4443 -118.138
    endloop
  endfacet
  facet normal -1 -0 0
    outer loop
      vertex 20 55.75 -116
      vertex 20 55.7265 -116.537
      vertex 20 50.4 -116
    endloop
  endfacet
  facet normal -1 0 0
    outer loop
      vertex 20 55.0769 -119.147
      vertex 20 56.8852 -120.61
      vertex 20 56.4352 -121.39
    endloop
  endfacet
  facet normal -1 0 0
    outer loop
      vertex 20 55.75 -116
      vertex 20 50.4 -116
      vertex 20 55.7265 -115.463
    endloop
  endfacet
  facet normal -1 0 -0
    outer loop
      vertex 20 55.2826 -113.349
      vertex 20 55.4443 -113.862
      vertex 20 50.2825 -115.258
    endloop
  endfacet
  facet normal -1 -0 0
    outer loop
      vertex 20 57.9262 -117.293
      vertex 20 55.4443 -118.138
      vertex 20 55.7265 -116.537
    endloop
  endfacet
  facet normal -1 0 -0
    outer loop
      vertex 20 53.9368 -111.018
      vertex 20 54.2641 -111.445
      vertex 20 49.9416 -114.589
    endloop
  endfacet
  facet normal -1 -0 0
    outer loop
      vertex 20 55.2826 -113.349
      vertex 20 50.2825 -115.258
      vertex 20 55.0769 -112.853
    endloop
  endfacet
  facet normal -1 0 0
    outer loop
      vertex 20 50.2825 -115.258
      vertex 20 55.4443 -113.862
      vertex 20 55.7265 -115.463
    endloop
  endfacet
  facet normal -1 -0 0
    outer loop
      vertex 20 57.9262 -114.707
      vertex 20 55.7265 -115.463
      vertex 20 55.4443 -113.862
    endloop
  endfacet
  facet normal -1 0 -0
    outer loop
      vertex 20 57.7699 -113.82
      vertex 20 57.9262 -114.707
      vertex 20 55.4443 -113.862
    endloop
  endfacet
  facet normal -1 0 -0
    outer loop
      vertex 20 50.2825 -116.742
      vertex 20 55.0769 -119.147
      vertex 20 49.9416 -117.411
    endloop
  endfacet
  facet normal -1 -0 0
    outer loop
      vertex 20 53.9368 -111.018
      vertex 20 49.9416 -114.589
      vertex 20 53.5736 -110.622
    endloop
  endfacet
  facet normal -1 0 0
    outer loop
      vertex 20 49.4107 -114.058
      vertex 20 51.875 -109.288
      vertex 20 52.3284 -109.577
    endloop
  endfacet
  facet normal -1 0 0
    outer loop
      vertex 20 56.4352 -110.61
      vertex 20 55.0769 -112.853
      vertex 20 54.2641 -111.445
    endloop
  endfacet
  facet normal -1 0 -0
    outer loop
      vertex 20 56.4352 -110.61
      vertex 20 56.8852 -111.39
      vertex 20 55.0769 -112.853
    endloop
  endfacet
  facet normal -1 -0 0
    outer loop
      vertex 20 51.875 -109.288
      vertex 20 49.4107 -114.058
      vertex 20 51.3981 -109.04
    endloop
  endfacet
  facet normal -1 0 0
    outer loop
      vertex 20 48.7416 -113.717
      vertex 20 49.8706 -108.484
      vertex 20 51.3981 -109.04
    endloop
  endfacet
  facet normal -1 0 0
    outer loop
      vertex 20 46.0584 -114.589
      vertex 20 41.7359 -111.445
      vertex 20 42.0632 -111.018
    endloop
  endfacet
  facet normal -1 0 0
    outer loop
      vertex 20 54.7726 -108.629
      vertex 20 53.5736 -110.622
      vertex 20 52.3284 -109.577
    endloop
  endfacet
  facet normal -1 0 -0
    outer loop
      vertex 20 54.0831 -108.05
      vertex 20 54.7726 -108.629
      vertex 20 52.3284 -109.577
    endloop
  endfacet
  facet normal -1 0 0
    outer loop
      vertex 20 46.6542 -108.368
      vertex 20 47.1872 -108.298
      vertex 20 48 -113.6
    endloop
  endfacet
  facet normal -1 0 0
    outer loop
      vertex 20 48 -113.6
      vertex 20 47.1872 -108.298
      vertex 20 48.8128 -108.298
    endloop
  endfacet
  facet normal -1 0 0
    outer loop
      vertex 20 51.843 -106.757
      vertex 20 51.3981 -109.04
      vertex 20 49.8706 -108.484
    endloop
  endfacet
  facet normal -1 0 -0
    outer loop
      vertex 20 50.9973 -106.449
      vertex 20 51.843 -106.757
      vertex 20 49.8706 -108.484
    endloop
  endfacet
  facet normal -1 0 0
    outer loop
      vertex 20 46.5893 -114.058
      vertex 20 44.6019 -109.04
      vertex 20 47.2584 -113.717
    endloop
  endfacet
  facet normal -1 0 0
    outer loop
      vertex 20 42.4264 -110.622
      vertex 20 46.5893 -114.058
      vertex 20 46.0584 -114.589
    endloop
  endfacet
  facet normal -1 0 0
    outer loop
      vertex 20 42.4264 -110.622
      vertex 20 43.6716 -109.577
      vertex 20 46.5893 -114.058
    endloop
  endfacet
  facet normal -1 0 -0
    outer loop
      vertex 20 47.55 -106
      vertex 20 48.45 -106
      vertex 20 47.1872 -108.298
    endloop
  endfacet
  facet normal -1 0 -0
    outer loop
      vertex 20 44.125 -109.288
      vertex 20 46.5893 -114.058
      vertex 20 43.6716 -109.577
    endloop
  endfacet
  facet normal -1 0 0
    outer loop
      vertex 20 48.8128 -108.298
      vertex 20 47.1872 -108.298
      vertex 20 48.45 -106
    endloop
  endfacet
  facet normal -1 0 -0
    outer loop
      vertex 20 46.1294 -108.484
      vertex 20 47.2584 -113.717
      vertex 20 44.6019 -109.04
    endloop
  endfacet
  facet normal -1 0 0
    outer loop
      vertex 20 44.157 -106.757
      vertex 20 45.0027 -106.449
      vertex 20 46.1294 -108.484
    endloop
  endfacet
  facet normal -1 0 0
    outer loop
      vertex 20 42.0632 -111.018
      vertex 20 42.4264 -110.622
      vertex 20 46.0584 -114.589
    endloop
  endfacet
  facet normal -1 0 0
    outer loop
      vertex 20 42.0632 -120.982
      vertex 20 41.7359 -120.555
      vertex 20 46.0584 -117.411
    endloop
  endfacet
  facet normal -1 0 0
    outer loop
      vertex 20 44.6019 -109.04
      vertex 20 44.157 -106.757
      vertex 20 46.1294 -108.484
    endloop
  endfacet
  facet normal -1 0 -0
    outer loop
      vertex 20 40.9231 -112.853
      vertex 20 45.7175 -115.258
      vertex 20 40.7174 -113.349
    endloop
  endfacet
  facet normal -1 0 0
    outer loop
      vertex 20 41.2274 -108.629
      vertex 20 43.6716 -109.577
      vertex 20 42.4264 -110.622
    endloop
  endfacet
  facet normal -1 0 0
    outer loop
      vertex 20 41.2274 -108.629
      vertex 20 41.9169 -108.05
      vertex 20 43.6716 -109.577
    endloop
  endfacet
  facet normal -1 0 0
    outer loop
      vertex 20 45.7175 -115.258
      vertex 20 40.9231 -112.853
      vertex 20 46.0584 -114.589
    endloop
  endfacet
  facet normal -1 0 -0
    outer loop
      vertex 20 41.7359 -111.445
      vertex 20 46.0584 -114.589
      vertex 20 40.9231 -112.853
    endloop
  endfacet
  facet normal -1 0 -0
    outer loop
      vertex 20 40.7174 -113.349
      vertex 20 45.7175 -115.258
      vertex 20 40.5557 -113.862
    endloop
  endfacet
  facet normal -1 0 0
    outer loop
      vertex 20 40.7174 -118.651
      vertex 20 45.7175 -116.742
      vertex 20 40.9231 -119.147
    endloop
  endfacet
  facet normal -1 0 0
    outer loop
      vertex 20 39.1148 -111.39
      vertex 20 39.5648 -110.61
      vertex 20 40.9231 -112.853
    endloop
  endfacet
  facet normal -1 -0 0
    outer loop
      vertex 20 41.7359 -111.445
      vertex 20 40.9231 -112.853
      vertex 20 39.5648 -110.61
    endloop
  endfacet
  facet normal -1 0 0
    outer loop
      vertex 20 40.2735 -115.463
      vertex 20 40.5557 -113.862
      vertex 20 45.7175 -115.258
    endloop
  endfacet
  facet normal -1 0 0
    outer loop
      vertex 20 45.6 -116
      vertex 20 40.2735 -115.463
      vertex 20 45.7175 -115.258
    endloop
  endfacet
  facet normal -1 0 0
    outer loop
      vertex 20 45.6 -116
      vertex 20 40.25 -116
      vertex 20 40.2735 -115.463
    endloop
  endfacet
  facet normal -1 0 0
    outer loop
      vertex 20 38.0738 -114.707
      vertex 20 38.2301 -113.82
      vertex 20 40.5557 -113.862
    endloop
  endfacet
  facet normal -1 0 0
    outer loop
      vertex 20 40.5557 -113.862
      vertex 20 40.2735 -115.463
      vertex 20 38.0738 -114.707
    endloop
  endfacet
  facet normal -1 -0 0
    outer loop
      vertex 20 45.6 -116
      vertex 20 40.2735 -116.537
      vertex 20 40.25 -116
    endloop
  endfacet
  facet normal -1 -0 0
    outer loop
      vertex 20 45.7175 -116.742
      vertex 20 40.5557 -118.138
      vertex 20 40.2735 -116.537
    endloop
  endfacet
  facet normal -1 0 -0
    outer loop
      vertex 20 40.2735 -116.537
      vertex 20 40.5557 -118.138
      vertex 20 38.0738 -117.293
    endloop
  endfacet
  facet normal -1 0 0
    outer loop
      vertex 20 46.1294 -123.516
      vertex 20 44.6019 -122.96
      vertex 20 47.2584 -118.283
    endloop
  endfacet
  facet normal -1 0 0
    outer loop
      vertex 20 48.7416 -113.717
      vertex 20 49.3458 -108.368
      vertex 20 49.8706 -108.484
    endloop
  endfacet
  facet normal -1 0 0
    outer loop
      vertex 20 44.125 -109.288
      vertex 20 44.6019 -109.04
      vertex 20 46.5893 -114.058
    endloop
  endfacet
  facet normal -1 0 -0
    outer loop
      vertex 20 48 -118.4
      vertex 20 48.8128 -123.702
      vertex 20 47.1872 -123.702
    endloop
  endfacet
  facet normal -1 0 0
    outer loop
      vertex 20 46.6542 -108.368
      vertex 20 48 -113.6
      vertex 20 47.2584 -113.717
    endloop
  endfacet
  facet normal -1 0 -0
    outer loop
      vertex 20 46.6542 -108.368
      vertex 20 47.2584 -113.717
      vertex 20 46.1294 -108.484
    endloop
  endfacet
  facet normal -1 0 0
    outer loop
      vertex 20 49.3458 -108.368
      vertex 20 48.7416 -113.717
      vertex 20 48 -113.6
    endloop
  endfacet
  facet normal -1 -0 0
    outer loop
      vertex 20 49.3458 -108.368
      vertex 20 48 -113.6
      vertex 20 48.8128 -108.298
    endloop
  endfacet
  facet normal -1 0 0
    outer loop
      vertex 20 49.4107 -114.058
      vertex 20 48.7416 -113.717
      vertex 20 51.3981 -109.04
    endloop
  endfacet
  facet normal -1 0 -0
    outer loop
      vertex 20 52.3284 -109.577
      vertex 20 53.5736 -110.622
      vertex 20 49.4107 -114.058
    endloop
  endfacet
  facet normal -1 0 0
    outer loop
      vertex 20 55.0769 -112.853
      vertex 20 50.2825 -115.258
      vertex 20 49.9416 -114.589
    endloop
  endfacet
  facet normal -1 -0 0
    outer loop
      vertex 20 55.0769 -112.853
      vertex 20 49.9416 -114.589
      vertex 20 54.2641 -111.445
    endloop
  endfacet
  facet normal -1 0 0
    outer loop
      vertex 20 50.4 -116
      vertex 20 50.2825 -115.258
      vertex 20 55.7265 -115.463
    endloop
  endfacet
  facet normal -1 0 0
    outer loop
      vertex 20 50.2825 -116.742
      vertex 20 55.7265 -116.537
      vertex 20 55.4443 -118.138
    endloop
  endfacet
  facet normal -1 0 0
    outer loop
      vertex 20 49.9416 -117.411
      vertex 20 55.0769 -119.147
      vertex 20 54.2641 -120.555
    endloop
  endfacet
  facet normal -1 0 0
    outer loop
      vertex 20 49.4107 -117.942
      vertex 20 49.9416 -117.411
      vertex 20 53.5736 -121.378
    endloop
  endfacet
  facet normal -1 0 0
    outer loop
      vertex 20 48.7416 -118.283
      vertex 20 49.4107 -117.942
      vertex 20 51.3981 -122.96
    endloop
  endfacet
  facet normal -1 -0 0
    outer loop
      vertex 20 49.8706 -123.516
      vertex 20 49.3458 -123.632
      vertex 20 48.7416 -118.283
    endloop
  endfacet
  facet normal -1 0 -0
    outer loop
      vertex 20 47.2584 -118.283
      vertex 20 48 -118.4
      vertex 20 46.6542 -123.632
    endloop
  endfacet
  facet normal -1 0 -0
    outer loop
      vertex 20 46.5893 -117.942
      vertex 20 47.2584 -118.283
      vertex 20 44.6019 -122.96
    endloop
  endfacet
  facet normal -1 0 0
    outer loop
      vertex 20 43.6716 -122.423
      vertex 20 46.5893 -117.942
      vertex 20 44.125 -122.712
    endloop
  endfacet
  facet normal -1 0 0
    outer loop
      vertex 20 42.0632 -120.982
      vertex 20 46.0584 -117.411
      vertex 20 42.4264 -121.378
    endloop
  endfacet
  facet normal -1 0 0
    outer loop
      vertex 20 41.7359 -120.555
      vertex 20 40.9231 -119.147
      vertex 20 46.0584 -117.411
    endloop
  endfacet
  facet normal -1 0 0
    outer loop
      vertex 20 40.7174 -118.651
      vertex 20 40.5557 -118.138
      vertex 20 45.7175 -116.742
    endloop
  endfacet
  facet normal -1 0 0
    outer loop
      vertex 20 45.7175 -116.742
      vertex 20 40.2735 -116.537
      vertex 20 45.6 -116
    endloop
  endfacet
  facet normal 1 0 0
    outer loop
      vertex 23.2 45.7175 -116.742
      vertex 23.2 40.9231 -119.147
      vertex 23.2 46.0584 -117.411
    endloop
  endfacet
  facet normal 1 0 0
    outer loop
      vertex 23.2 38.0738 -117.293
      vertex 23.2 38.2301 -118.18
      vertex 23.2 40.5557 -118.138
    endloop
  endfacet
  facet normal 1 0 0
    outer loop
      vertex 23.2 42.4264 -121.378
      vertex 23.2 46.5893 -117.942
      vertex 23.2 46.0584 -117.411
    endloop
  endfacet
  facet normal 1 0 0
    outer loop
      vertex 23.2 50.2825 -116.742
      vertex 23.2 55.2826 -118.651
      vertex 23.2 55.4443 -118.138
    endloop
  endfacet
  facet normal 1 0 0
    outer loop
      vertex 23.2 48 -118.4
      vertex 23.2 46.6542 -123.632
      vertex 23.2 47.1872 -123.702
    endloop
  endfacet
  facet normal 1 -0 0
    outer loop
      vertex 23.2 39.1148 -120.61
      vertex 23.2 39.5648 -121.39
      vertex 23.2 40.9231 -119.147
    endloop
  endfacet
  facet normal 1 0 0
    outer loop
      vertex 23.2 39.5648 -121.39
      vertex 23.2 41.7359 -120.555
      vertex 23.2 40.9231 -119.147
    endloop
  endfacet
  facet normal 1 0 -0
    outer loop
      vertex 23.2 51.3981 -122.96
      vertex 23.2 51.875 -122.712
      vertex 23.2 49.4107 -117.942
    endloop
  endfacet
  facet normal 1 0 -0
    outer loop
      vertex 23.2 43.6716 -122.423
      vertex 23.2 46.5893 -117.942
      vertex 23.2 42.4264 -121.378
    endloop
  endfacet
  facet normal 1 -0 0
    outer loop
      vertex 23.2 44.125 -122.712
      vertex 23.2 44.6019 -122.96
      vertex 23.2 46.5893 -117.942
    endloop
  endfacet
  facet normal 1 -0 0
    outer loop
      vertex 23.2 41.2274 -123.371
      vertex 23.2 41.9169 -123.95
      vertex 23.2 43.6716 -122.423
    endloop
  endfacet
  facet normal 1 0 0
    outer loop
      vertex 23.2 41.2274 -123.371
      vertex 23.2 43.6716 -122.423
      vertex 23.2 42.4264 -121.378
    endloop
  endfacet
  facet normal 1 0 0
    outer loop
      vertex 23.2 53.5736 -121.378
      vertex 23.2 49.4107 -117.942
      vertex 23.2 52.3284 -122.423
    endloop
  endfacet
  facet normal 1 -0 0
    outer loop
      vertex 23.2 46.1294 -123.516
      vertex 23.2 46.6542 -123.632
      vertex 23.2 47.2584 -118.283
    endloop
  endfacet
  facet normal 1 0 0
    outer loop
      vertex 23.2 49.3458 -123.632
      vertex 23.2 48 -118.4
      vertex 23.2 48.8128 -123.702
    endloop
  endfacet
  facet normal 1 -0 0
    outer loop
      vertex 23.2 44.157 -125.243
      vertex 23.2 45.0027 -125.551
      vertex 23.2 46.1294 -123.516
    endloop
  endfacet
  facet normal 1 0 0
    outer loop
      vertex 23.2 44.157 -125.243
      vertex 23.2 46.1294 -123.516
      vertex 23.2 44.6019 -122.96
    endloop
  endfacet
  facet normal 1 0 -0
    outer loop
      vertex 23.2 49.9416 -114.589
      vertex 23.2 53.5736 -110.622
      vertex 23.2 49.4107 -114.058
    endloop
  endfacet
  facet normal 1 -0 0
    outer loop
      vertex 23.2 48 -118.4
      vertex 23.2 49.3458 -123.632
      vertex 23.2 48.7416 -118.283
    endloop
  endfacet
  facet normal 1 0 -0
    outer loop
      vertex 23.2 53.5736 -121.378
      vertex 23.2 53.9368 -120.982
      vertex 23.2 49.9416 -117.411
    endloop
  endfacet
  facet normal 1 0 0
    outer loop
      vertex 23.2 47.55 -126
      vertex 23.2 48.45 -126
      vertex 23.2 48.8128 -123.702
    endloop
  endfacet
  facet normal 1 0 -0
    outer loop
      vertex 23.2 47.55 -126
      vertex 23.2 48.8128 -123.702
      vertex 23.2 47.1872 -123.702
    endloop
  endfacet
  facet normal 1 0 0
    outer loop
      vertex 23.2 55.2826 -118.651
      vertex 23.2 50.2825 -116.742
      vertex 23.2 55.0769 -119.147
    endloop
  endfacet
  facet normal 1 0 0
    outer loop
      vertex 23.2 49.4107 -117.942
      vertex 23.2 51.875 -122.712
      vertex 23.2 52.3284 -122.423
    endloop
  endfacet
  facet normal 1 0 0
    outer loop
      vertex 23.2 51.3981 -122.96
      vertex 23.2 48.7416 -118.283
      vertex 23.2 49.8706 -123.516
    endloop
  endfacet
  facet normal 1 0 -0
    outer loop
      vertex 23.2 50.9973 -125.551
      vertex 23.2 51.843 -125.243
      vertex 23.2 49.8706 -123.516
    endloop
  endfacet
  facet normal 1 0 0
    outer loop
      vertex 23.2 51.843 -125.243
      vertex 23.2 51.3981 -122.96
      vertex 23.2 49.8706 -123.516
    endloop
  endfacet
  facet normal 1 -0 0
    outer loop
      vertex 23.2 54.2641 -120.555
      vertex 23.2 56.4352 -121.39
      vertex 23.2 55.0769 -119.147
    endloop
  endfacet
  facet normal 1 0 0
    outer loop
      vertex 23.2 49.9416 -117.411
      vertex 23.2 53.9368 -120.982
      vertex 23.2 54.2641 -120.555
    endloop
  endfacet
  facet normal 1 0 0
    outer loop
      vertex 23.2 50.2825 -116.742
      vertex 23.2 55.7265 -116.537
      vertex 23.2 50.4 -116
    endloop
  endfacet
  facet normal 1 0 -0
    outer loop
      vertex 23.2 54.0831 -123.95
      vertex 23.2 54.7726 -123.371
      vertex 23.2 52.3284 -122.423
    endloop
  endfacet
  facet normal 1 0 0
    outer loop
      vertex 23.2 54.7726 -123.371
      vertex 23.2 53.5736 -121.378
      vertex 23.2 52.3284 -122.423
    endloop
  endfacet
  facet normal 1 -0 0
    outer loop
      vertex 23.2 55.4443 -118.138
      vertex 23.2 57.7699 -118.18
      vertex 23.2 57.9262 -117.293
    endloop
  endfacet
  facet normal 1 -0 0
    outer loop
      vertex 23.2 50.4 -116
      vertex 23.2 55.7265 -116.537
      vertex 23.2 55.75 -116
    endloop
  endfacet
  facet normal 1 0 -0
    outer loop
      vertex 23.2 56.4352 -121.39
      vertex 23.2 56.8852 -120.61
      vertex 23.2 55.0769 -119.147
    endloop
  endfacet
  facet normal 1 0 0
    outer loop
      vertex 23.2 55.7265 -115.463
      vertex 23.2 50.4 -116
      vertex 23.2 55.75 -116
    endloop
  endfacet
  facet normal 1 0 0
    outer loop
      vertex 23.2 50.2825 -115.258
      vertex 23.2 55.4443 -113.862
      vertex 23.2 55.2826 -113.349
    endloop
  endfacet
  facet normal 1 0 0
    outer loop
      vertex 23.2 55.7265 -116.537
      vertex 23.2 55.4443 -118.138
      vertex 23.2 57.9262 -117.293
    endloop
  endfacet
  facet normal 1 0 0
    outer loop
      vertex 23.2 49.9416 -114.589
      vertex 23.2 54.2641 -111.445
      vertex 23.2 53.9368 -111.018
    endloop
  endfacet
  facet normal 1 0 0
    outer loop
      vertex 23.2 55.0769 -112.853
      vertex 23.2 50.2825 -115.258
      vertex 23.2 55.2826 -113.349
    endloop
  endfacet
  facet normal 1 0 0
    outer loop
      vertex 23.2 55.7265 -115.463
      vertex 23.2 55.4443 -113.862
      vertex 23.2 50.2825 -115.258
    endloop
  endfacet
  facet normal 1 0 0
    outer loop
      vertex 23.2 55.4443 -113.862
      vertex 23.2 55.7265 -115.463
      vertex 23.2 57.9262 -114.707
    endloop
  endfacet
  facet normal 1 -0 0
    outer loop
      vertex 23.2 55.4443 -113.862
      vertex 23.2 57.9262 -114.707
      vertex 23.2 57.7699 -113.82
    endloop
  endfacet
  facet normal 1 -0 0
    outer loop
      vertex 23.2 49.9416 -117.411
      vertex 23.2 55.0769 -119.147
      vertex 23.2 50.2825 -116.742
    endloop
  endfacet
  facet normal 1 0 0
    outer loop
      vertex 23.2 53.5736 -110.622
      vertex 23.2 49.9416 -114.589
      vertex 23.2 53.9368 -111.018
    endloop
  endfacet
  facet normal 1 0 0
    outer loop
      vertex 23.2 52.3284 -109.577
      vertex 23.2 51.875 -109.288
      vertex 23.2 49.4107 -114.058
    endloop
  endfacet
  facet normal 1 -0 0
    outer loop
      vertex 23.2 54.2641 -111.445
      vertex 23.2 55.0769 -112.853
      vertex 23.2 56.4352 -110.61
    endloop
  endfacet
  facet normal 1 0 0
    outer loop
      vertex 23.2 55.0769 -112.853
      vertex 23.2 56.8852 -111.39
      vertex 23.2 56.4352 -110.61
    endloop
  endfacet
  facet normal 1 0 0
    outer loop
      vertex 23.2 51.3981 -109.04
      vertex 23.2 49.4107 -114.058
      vertex 23.2 51.875 -109.288
    endloop
  endfacet
  facet normal 1 0 0
    outer loop
      vertex 23.2 51.3981 -109.04
      vertex 23.2 49.8706 -108.484
      vertex 23.2 48.7416 -113.717
    endloop
  endfacet
  facet normal 1 0 0
    outer loop
      vertex 23.2 42.0632 -111.018
      vertex 23.2 41.7359 -111.445
      vertex 23.2 46.0584 -114.589
    endloop
  endfacet
  facet normal 1 -0 0
    outer loop
      vertex 23.2 52.3284 -109.577
      vertex 23.2 53.5736 -110.622
      vertex 23.2 54.7726 -108.629
    endloop
  endfacet
  facet normal 1 0 0
    outer loop
      vertex 23.2 52.3284 -109.577
      vertex 23.2 54.7726 -108.629
      vertex 23.2 54.0831 -108.05
    endloop
  endfacet
  facet normal 1 0 0
    outer loop
      vertex 23.2 48 -113.6
      vertex 23.2 47.1872 -108.298
      vertex 23.2 46.6542 -108.368
    endloop
  endfacet
  facet normal 1 0 0
    outer loop
      vertex 23.2 48.8128 -108.298
      vertex 23.2 47.1872 -108.298
      vertex 23.2 48 -113.6
    endloop
  endfacet
  facet normal 1 -0 0
    outer loop
      vertex 23.2 49.8706 -108.484
      vertex 23.2 51.3981 -109.04
      vertex 23.2 51.843 -106.757
    endloop
  endfacet
  facet normal 1 0 0
    outer loop
      vertex 23.2 49.8706 -108.484
      vertex 23.2 51.843 -106.757
      vertex 23.2 50.9973 -106.449
    endloop
  endfacet
  facet normal 1 0 0
    outer loop
      vertex 23.2 47.2584 -113.717
      vertex 23.2 44.6019 -109.04
      vertex 23.2 46.5893 -114.058
    endloop
  endfacet
  facet normal 1 0 -0
    outer loop
      vertex 23.2 46.0584 -114.589
      vertex 23.2 46.5893 -114.058
      vertex 23.2 42.4264 -110.622
    endloop
  endfacet
  facet normal 1 0 0
    outer loop
      vertex 23.2 46.5893 -114.058
      vertex 23.2 43.6716 -109.577
      vertex 23.2 42.4264 -110.622
    endloop
  endfacet
  facet normal 1 0 0
    outer loop
      vertex 23.2 47.1872 -108.298
      vertex 23.2 48.45 -106
      vertex 23.2 47.55 -106
    endloop
  endfacet
  facet normal 1 -0 0
    outer loop
      vertex 23.2 43.6716 -109.577
      vertex 23.2 46.5893 -114.058
      vertex 23.2 44.125 -109.288
    endloop
  endfacet
  facet normal 1 0 0
    outer loop
      vertex 23.2 48.45 -106
      vertex 23.2 47.1872 -108.298
      vertex 23.2 48.8128 -108.298
    endloop
  endfacet
  facet normal 1 -0 0
    outer loop
      vertex 23.2 44.6019 -109.04
      vertex 23.2 47.2584 -113.717
      vertex 23.2 46.1294 -108.484
    endloop
  endfacet
  facet normal 1 0 0
    outer loop
      vertex 23.2 46.1294 -108.484
      vertex 23.2 45.0027 -106.449
      vertex 23.2 44.157 -106.757
    endloop
  endfacet
  facet normal 1 0 0
    outer loop
      vertex 23.2 46.0584 -114.589
      vertex 23.2 42.4264 -110.622
      vertex 23.2 42.0632 -111.018
    endloop
  endfacet
  facet normal 1 0 0
    outer loop
      vertex 23.2 46.0584 -117.411
      vertex 23.2 41.7359 -120.555
      vertex 23.2 42.0632 -120.982
    endloop
  endfacet
  facet normal 1 0 0
    outer loop
      vertex 23.2 46.1294 -108.484
      vertex 23.2 44.157 -106.757
      vertex 23.2 44.6019 -109.04
    endloop
  endfacet
  facet normal 1 -0 0
    outer loop
      vertex 23.2 40.7174 -113.349
      vertex 23.2 45.7175 -115.258
      vertex 23.2 40.9231 -112.853
    endloop
  endfacet
  facet normal 1 0 -0
    outer loop
      vertex 23.2 42.4264 -110.622
      vertex 23.2 43.6716 -109.577
      vertex 23.2 41.2274 -108.629
    endloop
  endfacet
  facet normal 1 0 0
    outer loop
      vertex 23.2 43.6716 -109.577
      vertex 23.2 41.9169 -108.05
      vertex 23.2 41.2274 -108.629
    endloop
  endfacet
  facet normal 1 0 0
    outer loop
      vertex 23.2 46.0584 -114.589
      vertex 23.2 40.9231 -112.853
      vertex 23.2 45.7175 -115.258
    endloop
  endfacet
  facet normal 1 -0 0
    outer loop
      vertex 23.2 40.9231 -112.853
      vertex 23.2 46.0584 -114.589
      vertex 23.2 41.7359 -111.445
    endloop
  endfacet
  facet normal 1 -0 0
    outer loop
      vertex 23.2 40.5557 -113.862
      vertex 23.2 45.7175 -115.258
      vertex 23.2 40.7174 -113.349
    endloop
  endfacet
  facet normal 1 0 -0
    outer loop
      vertex 23.2 40.9231 -119.147
      vertex 23.2 45.7175 -116.742
      vertex 23.2 40.7174 -118.651
    endloop
  endfacet
  facet normal 1 0 0
    outer loop
      vertex 23.2 40.9231 -112.853
      vertex 23.2 39.5648 -110.61
      vertex 23.2 39.1148 -111.39
    endloop
  endfacet
  facet normal 1 0 0
    outer loop
      vertex 23.2 39.5648 -110.61
      vertex 23.2 40.9231 -112.853
      vertex 23.2 41.7359 -111.445
    endloop
  endfacet
  facet normal 1 0 0
    outer loop
      vertex 23.2 45.7175 -115.258
      vertex 23.2 40.5557 -113.862
      vertex 23.2 40.2735 -115.463
    endloop
  endfacet
  facet normal 1 0 0
    outer loop
      vertex 23.2 45.7175 -115.258
      vertex 23.2 40.2735 -115.463
      vertex 23.2 45.6 -116
    endloop
  endfacet
  facet normal 1 0 0
    outer loop
      vertex 23.2 40.2735 -115.463
      vertex 23.2 40.25 -116
      vertex 23.2 45.6 -116
    endloop
  endfacet
  facet normal 1 0 0
    outer loop
      vertex 23.2 40.5557 -113.862
      vertex 23.2 38.2301 -113.82
      vertex 23.2 38.0738 -114.707
    endloop
  endfacet
  facet normal 1 -0 0
    outer loop
      vertex 23.2 38.0738 -114.707
      vertex 23.2 40.2735 -115.463
      vertex 23.2 40.5557 -113.862
    endloop
  endfacet
  facet normal 1 -0 0
    outer loop
      vertex 23.2 40.25 -116
      vertex 23.2 40.2735 -116.537
      vertex 23.2 45.6 -116
    endloop
  endfacet
  facet normal 1 0 0
    outer loop
      vertex 23.2 40.2735 -116.537
      vertex 23.2 40.5557 -118.138
      vertex 23.2 45.7175 -116.742
    endloop
  endfacet
  facet normal 1 -0 0
    outer loop
      vertex 23.2 38.0738 -117.293
      vertex 23.2 40.5557 -118.138
      vertex 23.2 40.2735 -116.537
    endloop
  endfacet
  facet normal 1 0 0
    outer loop
      vertex 23.2 47.2584 -118.283
      vertex 23.2 44.6019 -122.96
      vertex 23.2 46.1294 -123.516
    endloop
  endfacet
  facet normal 1 0 0
    outer loop
      vertex 23.2 49.8706 -108.484
      vertex 23.2 49.3458 -108.368
      vertex 23.2 48.7416 -113.717
    endloop
  endfacet
  facet normal 1 0 0
    outer loop
      vertex 23.2 46.5893 -114.058
      vertex 23.2 44.6019 -109.04
      vertex 23.2 44.125 -109.288
    endloop
  endfacet
  facet normal 1 0 0
    outer loop
      vertex 23.2 47.1872 -123.702
      vertex 23.2 48.8128 -123.702
      vertex 23.2 48 -118.4
    endloop
  endfacet
  facet normal 1 0 -0
    outer loop
      vertex 23.2 47.2584 -113.717
      vertex 23.2 48 -113.6
      vertex 23.2 46.6542 -108.368
    endloop
  endfacet
  facet normal 1 -0 0
    outer loop
      vertex 23.2 46.1294 -108.484
      vertex 23.2 47.2584 -113.717
      vertex 23.2 46.6542 -108.368
    endloop
  endfacet
  facet normal 1 -0 0
    outer loop
      vertex 23.2 48 -113.6
      vertex 23.2 48.7416 -113.717
      vertex 23.2 49.3458 -108.368
    endloop
  endfacet
  facet normal 1 0 0
    outer loop
      vertex 23.2 48.8128 -108.298
      vertex 23.2 48 -113.6
      vertex 23.2 49.3458 -108.368
    endloop
  endfacet
  facet normal 1 0 0
    outer loop
      vertex 23.2 51.3981 -109.04
      vertex 23.2 48.7416 -113.717
      vertex 23.2 49.4107 -114.058
    endloop
  endfacet
  facet normal 1 0 0
    outer loop
      vertex 23.2 49.4107 -114.058
      vertex 23.2 53.5736 -110.622
      vertex 23.2 52.3284 -109.577
    endloop
  endfacet
  facet normal 1 -0 0
    outer loop
      vertex 23.2 49.9416 -114.589
      vertex 23.2 50.2825 -115.258
      vertex 23.2 55.0769 -112.853
    endloop
  endfacet
  facet normal 1 0 0
    outer loop
      vertex 23.2 54.2641 -111.445
      vertex 23.2 49.9416 -114.589
      vertex 23.2 55.0769 -112.853
    endloop
  endfacet
  facet normal 1 0 0
    outer loop
      vertex 23.2 55.7265 -115.463
      vertex 23.2 50.2825 -115.258
      vertex 23.2 50.4 -116
    endloop
  endfacet
  facet normal 1 0 -0
    outer loop
      vertex 23.2 55.4443 -118.138
      vertex 23.2 55.7265 -116.537
      vertex 23.2 50.2825 -116.742
    endloop
  endfacet
  facet normal 1 0 -0
    outer loop
      vertex 23.2 54.2641 -120.555
      vertex 23.2 55.0769 -119.147
      vertex 23.2 49.9416 -117.411
    endloop
  endfacet
  facet normal 1 0 0
    outer loop
      vertex 23.2 53.5736 -121.378
      vertex 23.2 49.9416 -117.411
      vertex 23.2 49.4107 -117.942
    endloop
  endfacet
  facet normal 1 0 0
    outer loop
      vertex 23.2 51.3981 -122.96
      vertex 23.2 49.4107 -117.942
      vertex 23.2 48.7416 -118.283
    endloop
  endfacet
  facet normal 1 0 0
    outer loop
      vertex 23.2 48.7416 -118.283
      vertex 23.2 49.3458 -123.632
      vertex 23.2 49.8706 -123.516
    endloop
  endfacet
  facet normal 1 0 0
    outer loop
      vertex 23.2 46.6542 -123.632
      vertex 23.2 48 -118.4
      vertex 23.2 47.2584 -118.283
    endloop
  endfacet
  facet normal 1 0 0
    outer loop
      vertex 23.2 44.6019 -122.96
      vertex 23.2 47.2584 -118.283
      vertex 23.2 46.5893 -117.942
    endloop
  endfacet
  facet normal 1 0 -0
    outer loop
      vertex 23.2 44.125 -122.712
      vertex 23.2 46.5893 -117.942
      vertex 23.2 43.6716 -122.423
    endloop
  endfacet
  facet normal 1 0 -0
    outer loop
      vertex 23.2 42.4264 -121.378
      vertex 23.2 46.0584 -117.411
      vertex 23.2 42.0632 -120.982
    endloop
  endfacet
  facet normal 1 0 0
    outer loop
      vertex 23.2 46.0584 -117.411
      vertex 23.2 40.9231 -119.147
      vertex 23.2 41.7359 -120.555
    endloop
  endfacet
  facet normal 1 0 0
    outer loop
      vertex 23.2 45.7175 -116.742
      vertex 23.2 40.5557 -118.138
      vertex 23.2 40.7174 -118.651
    endloop
  endfacet
  facet normal 1 0 0
    outer loop
      vertex 23.2 45.6 -116
      vertex 23.2 40.2735 -116.537
      vertex 23.2 45.7175 -116.742
    endloop
  endfacet
  facet normal 0 0.0180569 -0.999837
    outer loop
      vertex 20 40.5557 -118.138
      vertex 23.2 38.2301 -118.18
      vertex 20 38.2301 -118.18
    endloop
  endfacet
  facet normal 0 0.0180569 -0.999837
    outer loop
      vertex 20 40.5557 -118.138
      vertex 23.2 40.5557 -118.138
      vertex 23.2 38.2301 -118.18
    endloop
  endfacet
  facet normal 0 -0.953743 -0.300624
    outer loop
      vertex 20 40.7174 -118.651
      vertex 23.2 40.5557 -118.138
      vertex 20 40.5557 -118.138
    endloop
  endfacet
  facet normal 0 -0.953743 -0.300624
    outer loop
      vertex 20 40.7174 -118.651
      vertex 23.2 40.7174 -118.651
      vertex 23.2 40.5557 -118.138
    endloop
  endfacet
  facet normal 0 -0.923715 -0.383081
    outer loop
      vertex 20 40.9231 -119.147
      vertex 23.2 40.7174 -118.651
      vertex 20 40.7174 -118.651
    endloop
  endfacet
  facet normal 0 -0.923715 -0.383081
    outer loop
      vertex 20 40.9231 -119.147
      vertex 23.2 40.9231 -119.147
      vertex 23.2 40.7174 -118.651
    endloop
  endfacet
  facet normal 0 -0.628974 0.777426
    outer loop
      vertex 20 39.1148 -120.61
      vertex 23.2 40.9231 -119.147
      vertex 20 40.9231 -119.147
    endloop
  endfacet
  facet normal 0 -0.628974 0.777426
    outer loop
      vertex 20 39.1148 -120.61
      vertex 23.2 39.1148 -120.61
      vertex 23.2 40.9231 -119.147
    endloop
  endfacet
  facet normal 0 -0.866186 -0.499722
    outer loop
      vertex 20 39.5648 -121.39
      vertex 23.2 39.1148 -120.61
      vertex 20 39.1148 -120.61
    endloop
  endfacet
  facet normal 0 -0.866186 -0.499722
    outer loop
      vertex 20 39.5648 -121.39
      vertex 23.2 39.5648 -121.39
      vertex 23.2 39.1148 -120.61
    endloop
  endfacet
  facet normal 0 0.358965 -0.933351
    outer loop
      vertex 20 41.7359 -120.555
      vertex 23.2 39.5648 -121.39
      vertex 20 39.5648 -121.39
    endloop
  endfacet
  facet normal 0 0.358965 -0.933351
    outer loop
      vertex 20 41.7359 -120.555
      vertex 23.2 41.7359 -120.555
      vertex 23.2 39.5648 -121.39
    endloop
  endfacet
  facet normal 0 -0.793666 -0.608353
    outer loop
      vertex 20 42.0632 -120.982
      vertex 23.2 41.7359 -120.555
      vertex 20 41.7359 -120.555
    endloop
  endfacet
  facet normal 0 -0.793666 -0.608353
    outer loop
      vertex 20 42.0632 -120.982
      vertex 23.2 42.0632 -120.982
      vertex 23.2 41.7359 -120.555
    endloop
  endfacet
  facet normal 0 -0.736969 -0.675927
    outer loop
      vertex 20 42.4264 -121.378
      vertex 23.2 42.0632 -120.982
      vertex 20 42.0632 -120.982
    endloop
  endfacet
  facet normal 0 -0.736969 -0.675927
    outer loop
      vertex 20 42.4264 -121.378
      vertex 23.2 42.4264 -121.378
      vertex 23.2 42.0632 -120.982
    endloop
  endfacet
  facet normal 0 -0.856885 0.515507
    outer loop
      vertex 20 41.2274 -123.371
      vertex 23.2 42.4264 -121.378
      vertex 20 42.4264 -121.378
    endloop
  endfacet
  facet normal 0 -0.856885 0.515507
    outer loop
      vertex 20 41.2274 -123.371
      vertex 23.2 41.2274 -123.371
      vertex 23.2 42.4264 -121.378
    endloop
  endfacet
  facet normal 0 -0.643075 -0.765803
    outer loop
      vertex 20 41.9169 -123.95
      vertex 23.2 41.2274 -123.371
      vertex 20 41.2274 -123.371
    endloop
  endfacet
  facet normal 0 -0.643075 -0.765803
    outer loop
      vertex 20 41.9169 -123.95
      vertex 23.2 41.9169 -123.95
      vertex 23.2 41.2274 -123.371
    endloop
  endfacet
  facet normal 0 0.656466 -0.754356
    outer loop
      vertex 20 43.6716 -122.423
      vertex 23.2 41.9169 -123.95
      vertex 20 41.9169 -123.95
    endloop
  endfacet
  facet normal 0 0.656466 -0.754356
    outer loop
      vertex 20 43.6716 -122.423
      vertex 23.2 43.6716 -122.423
      vertex 23.2 41.9169 -123.95
    endloop
  endfacet
  facet normal 0 -0.537501 -0.843263
    outer loop
      vertex 20 44.125 -122.712
      vertex 23.2 43.6716 -122.423
      vertex 20 43.6716 -122.423
    endloop
  endfacet
  facet normal 0 -0.537501 -0.843263
    outer loop
      vertex 20 44.125 -122.712
      vertex 23.2 44.125 -122.712
      vertex 23.2 43.6716 -122.423
    endloop
  endfacet
  facet normal 0 -0.46137 -0.887208
    outer loop
      vertex 20 44.6019 -122.96
      vertex 23.2 44.125 -122.712
      vertex 20 44.125 -122.712
    endloop
  endfacet
  facet normal 0 -0.46137 -0.887208
    outer loop
      vertex 20 44.6019 -122.96
      vertex 23.2 44.6019 -122.96
      vertex 23.2 44.125 -122.712
    endloop
  endfacet
  facet normal 0 -0.981536 0.191277
    outer loop
      vertex 20 44.157 -125.243
      vertex 23.2 44.6019 -122.96
      vertex 20 44.6019 -122.96
    endloop
  endfacet
  facet normal 0 -0.981536 0.191277
    outer loop
      vertex 20 44.157 -125.243
      vertex 23.2 44.157 -125.243
      vertex 23.2 44.6019 -122.96
    endloop
  endfacet
  facet normal 0 -0.342207 -0.939625
    outer loop
      vertex 20 45.0027 -125.551
      vertex 23.2 44.157 -125.243
      vertex 20 44.157 -125.243
    endloop
  endfacet
  facet normal 0 -0.342207 -0.939625
    outer loop
      vertex 20 45.0027 -125.551
      vertex 23.2 45.0027 -125.551
      vertex 23.2 44.157 -125.243
    endloop
  endfacet
  facet normal 0 0.87486 -0.484376
    outer loop
      vertex 20 46.1294 -123.516
      vertex 23.2 45.0027 -125.551
      vertex 20 45.0027 -125.551
    endloop
  endfacet
  facet normal 0 0.87486 -0.484376
    outer loop
      vertex 20 46.1294 -123.516
      vertex 23.2 46.1294 -123.516
      vertex 23.2 45.0027 -125.551
    endloop
  endfacet
  facet normal 0 -0.215827 -0.976432
    outer loop
      vertex 20 46.6542 -123.632
      vertex 23.2 46.1294 -123.516
      vertex 20 46.1294 -123.516
    endloop
  endfacet
  facet normal 0 -0.215827 -0.976432
    outer loop
      vertex 20 46.6542 -123.632
      vertex 23.2 46.6542 -123.632
      vertex 23.2 46.1294 -123.516
    endloop
  endfacet
  facet normal 0 -0.130214 -0.991486
    outer loop
      vertex 20 47.1872 -123.702
      vertex 23.2 46.6542 -123.632
      vertex 20 46.6542 -123.632
    endloop
  endfacet
  facet normal 0 -0.130214 -0.991486
    outer loop
      vertex 20 47.1872 -123.702
      vertex 23.2 47.1872 -123.702
      vertex 23.2 46.6542 -123.632
    endloop
  endfacet
  facet normal 0 -0.987766 -0.155945
    outer loop
      vertex 20 47.55 -126
      vertex 23.2 47.1872 -123.702
      vertex 20 47.1872 -123.702
    endloop
  endfacet
  facet normal 0 -0.987766 -0.155945
    outer loop
      vertex 20 47.55 -126
      vertex 23.2 47.55 -126
      vertex 23.2 47.1872 -123.702
    endloop
  endfacet
  facet normal 0 0 -1
    outer loop
      vertex 20 48.45 -126
      vertex 23.2 47.55 -126
      vertex 20 47.55 -126
    endloop
  endfacet
  facet normal 0 0 -1
    outer loop
      vertex 20 48.45 -126
      vertex 23.2 48.45 -126
      vertex 23.2 47.55 -126
    endloop
  endfacet
  facet normal 0 0.987766 -0.155945
    outer loop
      vertex 20 48.8128 -123.702
      vertex 23.2 48.45 -126
      vertex 20 48.45 -126
    endloop
  endfacet
  facet normal 0 0.987766 -0.155945
    outer loop
      vertex 20 48.8128 -123.702
      vertex 23.2 48.8128 -123.702
      vertex 23.2 48.45 -126
    endloop
  endfacet
  facet normal 0 0.130214 -0.991486
    outer loop
      vertex 20 49.3458 -123.632
      vertex 23.2 48.8128 -123.702
      vertex 20 48.8128 -123.702
    endloop
  endfacet
  facet normal 0 0.130214 -0.991486
    outer loop
      vertex 20 49.3458 -123.632
      vertex 23.2 49.3458 -123.632
      vertex 23.2 48.8128 -123.702
    endloop
  endfacet
  facet normal 0 0.215827 -0.976432
    outer loop
      vertex 20 49.8706 -123.516
      vertex 23.2 49.3458 -123.632
      vertex 20 49.3458 -123.632
    endloop
  endfacet
  facet normal 0 0.215827 -0.976432
    outer loop
      vertex 20 49.8706 -123.516
      vertex 23.2 49.8706 -123.516
      vertex 23.2 49.3458 -123.632
    endloop
  endfacet
  facet normal 0 -0.87486 -0.484376
    outer loop
      vertex 20 50.9973 -125.551
      vertex 23.2 49.8706 -123.516
      vertex 20 49.8706 -123.516
    endloop
  endfacet
  facet normal 0 -0.87486 -0.484376
    outer loop
      vertex 20 50.9973 -125.551
      vertex 23.2 50.9973 -125.551
      vertex 23.2 49.8706 -123.516
    endloop
  endfacet
  facet normal 0 0.342207 -0.939625
    outer loop
      vertex 20 51.843 -125.243
      vertex 23.2 50.9973 -125.551
      vertex 20 50.9973 -125.551
    endloop
  endfacet
  facet normal 0 0.342207 -0.939625
    outer loop
      vertex 20 51.843 -125.243
      vertex 23.2 51.843 -125.243
      vertex 23.2 50.9973 -125.551
    endloop
  endfacet
  facet normal 0 0.981536 0.191277
    outer loop
      vertex 20 51.3981 -122.96
      vertex 23.2 51.843 -125.243
      vertex 20 51.843 -125.243
    endloop
  endfacet
  facet normal -0 0.981536 0.191277
    outer loop
      vertex 20 51.3981 -122.96
      vertex 23.2 51.3981 -122.96
      vertex 23.2 51.843 -125.243
    endloop
  endfacet
  facet normal 0 0.46137 -0.887208
    outer loop
      vertex 20 51.875 -122.712
      vertex 23.2 51.3981 -122.96
      vertex 20 51.3981 -122.96
    endloop
  endfacet
  facet normal 0 0.46137 -0.887208
    outer loop
      vertex 20 51.875 -122.712
      vertex 23.2 51.875 -122.712
      vertex 23.2 51.3981 -122.96
    endloop
  endfacet
  facet normal 0 0.537501 -0.843263
    outer loop
      vertex 20 52.3284 -122.423
      vertex 23.2 51.875 -122.712
      vertex 20 51.875 -122.712
    endloop
  endfacet
  facet normal 0 0.537501 -0.843263
    outer loop
      vertex 20 52.3284 -122.423
      vertex 23.2 52.3284 -122.423
      vertex 23.2 51.875 -122.712
    endloop
  endfacet
  facet normal 0 -0.656466 -0.754356
    outer loop
      vertex 20 54.0831 -123.95
      vertex 23.2 52.3284 -122.423
      vertex 20 52.3284 -122.423
    endloop
  endfacet
  facet normal 0 -0.656466 -0.754356
    outer loop
      vertex 20 54.0831 -123.95
      vertex 23.2 54.0831 -123.95
      vertex 23.2 52.3284 -122.423
    endloop
  endfacet
  facet normal 0 0.643075 -0.765803
    outer loop
      vertex 20 54.7726 -123.371
      vertex 23.2 54.0831 -123.95
      vertex 20 54.0831 -123.95
    endloop
  endfacet
  facet normal 0 0.643075 -0.765803
    outer loop
      vertex 20 54.7726 -123.371
      vertex 23.2 54.7726 -123.371
      vertex 23.2 54.0831 -123.95
    endloop
  endfacet
  facet normal 0 0.856885 0.515507
    outer loop
      vertex 20 53.5736 -121.378
      vertex 23.2 54.7726 -123.371
      vertex 20 54.7726 -123.371
    endloop
  endfacet
  facet normal -0 0.856885 0.515507
    outer loop
      vertex 20 53.5736 -121.378
      vertex 23.2 53.5736 -121.378
      vertex 23.2 54.7726 -123.371
    endloop
  endfacet
  facet normal 0 0.736969 -0.675927
    outer loop
      vertex 20 53.9368 -120.982
      vertex 23.2 53.5736 -121.378
      vertex 20 53.5736 -121.378
    endloop
  endfacet
  facet normal 0 0.736969 -0.675927
    outer loop
      vertex 20 53.9368 -120.982
      vertex 23.2 53.9368 -120.982
      vertex 23.2 53.5736 -121.378
    endloop
  endfacet
  facet normal 0 0.793666 -0.608353
    outer loop
      vertex 20 54.2641 -120.555
      vertex 23.2 53.9368 -120.982
      vertex 20 53.9368 -120.982
    endloop
  endfacet
  facet normal 0 0.793666 -0.608353
    outer loop
      vertex 20 54.2641 -120.555
      vertex 23.2 54.2641 -120.555
      vertex 23.2 53.9368 -120.982
    endloop
  endfacet
  facet normal 0 -0.358965 -0.933351
    outer loop
      vertex 20 56.4352 -121.39
      vertex 23.2 54.2641 -120.555
      vertex 20 54.2641 -120.555
    endloop
  endfacet
  facet normal 0 -0.358965 -0.933351
    outer loop
      vertex 20 56.4352 -121.39
      vertex 23.2 56.4352 -121.39
      vertex 23.2 54.2641 -120.555
    endloop
  endfacet
  facet normal 0 0.866186 -0.499722
    outer loop
      vertex 20 56.8852 -120.61
      vertex 23.2 56.4352 -121.39
      vertex 20 56.4352 -121.39
    endloop
  endfacet
  facet normal 0 0.866186 -0.499722
    outer loop
      vertex 20 56.8852 -120.61
      vertex 23.2 56.8852 -120.61
      vertex 23.2 56.4352 -121.39
    endloop
  endfacet
  facet normal 0 0.628974 0.777426
    outer loop
      vertex 20 55.0769 -119.147
      vertex 23.2 56.8852 -120.61
      vertex 20 56.8852 -120.61
    endloop
  endfacet
  facet normal -0 0.628974 0.777426
    outer loop
      vertex 20 55.0769 -119.147
      vertex 23.2 55.0769 -119.147
      vertex 23.2 56.8852 -120.61
    endloop
  endfacet
  facet normal 0 0.923715 -0.383081
    outer loop
      vertex 20 55.2826 -118.651
      vertex 23.2 55.0769 -119.147
      vertex 20 55.0769 -119.147
    endloop
  endfacet
  facet normal 0 0.923715 -0.383081
    outer loop
      vertex 20 55.2826 -118.651
      vertex 23.2 55.2826 -118.651
      vertex 23.2 55.0769 -119.147
    endloop
  endfacet
  facet normal 0 0.953743 -0.300624
    outer loop
      vertex 20 55.4443 -118.138
      vertex 23.2 55.2826 -118.651
      vertex 20 55.2826 -118.651
    endloop
  endfacet
  facet normal 0 0.953743 -0.300624
    outer loop
      vertex 20 55.4443 -118.138
      vertex 23.2 55.4443 -118.138
      vertex 23.2 55.2826 -118.651
    endloop
  endfacet
  facet normal 0 -0.0180569 -0.999837
    outer loop
      vertex 20 57.7699 -118.18
      vertex 23.2 55.4443 -118.138
      vertex 20 55.4443 -118.138
    endloop
  endfacet
  facet normal 0 -0.0180569 -0.999837
    outer loop
      vertex 20 57.7699 -118.18
      vertex 23.2 57.7699 -118.18
      vertex 23.2 55.4443 -118.138
    endloop
  endfacet
  facet normal 0 0.984827 -0.173538
    outer loop
      vertex 20 57.9262 -117.293
      vertex 23.2 57.7699 -118.18
      vertex 20 57.7699 -118.18
    endloop
  endfacet
  facet normal 0 0.984827 -0.173538
    outer loop
      vertex 20 57.9262 -117.293
      vertex 23.2 57.9262 -117.293
      vertex 23.2 57.7699 -118.18
    endloop
  endfacet
  facet normal 0 0.325023 0.945706
    outer loop
      vertex 20 55.7265 -116.537
      vertex 23.2 57.9262 -117.293
      vertex 20 57.9262 -117.293
    endloop
  endfacet
  facet normal -0 0.325023 0.945706
    outer loop
      vertex 20 55.7265 -116.537
      vertex 23.2 55.7265 -116.537
      vertex 23.2 57.9262 -117.293
    endloop
  endfacet
  facet normal 0 0.999044 -0.0437198
    outer loop
      vertex 20 55.75 -116
      vertex 23.2 55.7265 -116.537
      vertex 20 55.7265 -116.537
    endloop
  endfacet
  facet normal 0 0.999044 -0.0437198
    outer loop
      vertex 20 55.75 -116
      vertex 23.2 55.75 -116
      vertex 23.2 55.7265 -116.537
    endloop
  endfacet
  facet normal 0 0.999044 0.0437198
    outer loop
      vertex 20 55.7265 -115.463
      vertex 23.2 55.75 -116
      vertex 20 55.75 -116
    endloop
  endfacet
  facet normal -0 0.999044 0.0437198
    outer loop
      vertex 20 55.7265 -115.463
      vertex 23.2 55.7265 -115.463
      vertex 23.2 55.75 -116
    endloop
  endfacet
  facet normal 0 0.325023 -0.945706
    outer loop
      vertex 20 57.9262 -114.707
      vertex 23.2 55.7265 -115.463
      vertex 20 55.7265 -115.463
    endloop
  endfacet
  facet normal 0 0.325023 -0.945706
    outer loop
      vertex 20 57.9262 -114.707
      vertex 23.2 57.9262 -114.707
      vertex 23.2 55.7265 -115.463
    endloop
  endfacet
  facet normal 0 0.984827 0.173538
    outer loop
      vertex 20 57.7699 -113.82
      vertex 23.2 57.9262 -114.707
      vertex 20 57.9262 -114.707
    endloop
  endfacet
  facet normal -0 0.984827 0.173538
    outer loop
      vertex 20 57.7699 -113.82
      vertex 23.2 57.7699 -113.82
      vertex 23.2 57.9262 -114.707
    endloop
  endfacet
  facet normal 0 -0.0180569 0.999837
    outer loop
      vertex 20 55.4443 -113.862
      vertex 23.2 57.7699 -113.82
      vertex 20 57.7699 -113.82
    endloop
  endfacet
  facet normal 0 -0.0180569 0.999837
    outer loop
      vertex 20 55.4443 -113.862
      vertex 23.2 55.4443 -113.862
      vertex 23.2 57.7699 -113.82
    endloop
  endfacet
  facet normal 0 0.953743 0.300624
    outer loop
      vertex 20 55.2826 -113.349
      vertex 23.2 55.4443 -113.862
      vertex 20 55.4443 -113.862
    endloop
  endfacet
  facet normal -0 0.953743 0.300624
    outer loop
      vertex 20 55.2826 -113.349
      vertex 23.2 55.2826 -113.349
      vertex 23.2 55.4443 -113.862
    endloop
  endfacet
  facet normal 0 0.923715 0.383081
    outer loop
      vertex 20 55.0769 -112.853
      vertex 23.2 55.2826 -113.349
      vertex 20 55.2826 -113.349
    endloop
  endfacet
  facet normal -0 0.923715 0.383081
    outer loop
      vertex 20 55.0769 -112.853
      vertex 23.2 55.0769 -112.853
      vertex 23.2 55.2826 -113.349
    endloop
  endfacet
  facet normal 0 0.628974 -0.777426
    outer loop
      vertex 20 56.8852 -111.39
      vertex 23.2 55.0769 -112.853
      vertex 20 55.0769 -112.853
    endloop
  endfacet
  facet normal 0 0.628974 -0.777426
    outer loop
      vertex 20 56.8852 -111.39
      vertex 23.2 56.8852 -111.39
      vertex 23.2 55.0769 -112.853
    endloop
  endfacet
  facet normal 0 0.866186 0.499722
    outer loop
      vertex 20 56.4352 -110.61
      vertex 23.2 56.8852 -111.39
      vertex 20 56.8852 -111.39
    endloop
  endfacet
  facet normal -0 0.866186 0.499722
    outer loop
      vertex 20 56.4352 -110.61
      vertex 23.2 56.4352 -110.61
      vertex 23.2 56.8852 -111.39
    endloop
  endfacet
  facet normal 0 -0.358965 0.933351
    outer loop
      vertex 20 54.2641 -111.445
      vertex 23.2 56.4352 -110.61
      vertex 20 56.4352 -110.61
    endloop
  endfacet
  facet normal 0 -0.358965 0.933351
    outer loop
      vertex 20 54.2641 -111.445
      vertex 23.2 54.2641 -111.445
      vertex 23.2 56.4352 -110.61
    endloop
  endfacet
  facet normal 0 0.793666 0.608353
    outer loop
      vertex 20 53.9368 -111.018
      vertex 23.2 54.2641 -111.445
      vertex 20 54.2641 -111.445
    endloop
  endfacet
  facet normal -0 0.793666 0.608353
    outer loop
      vertex 20 53.9368 -111.018
      vertex 23.2 53.9368 -111.018
      vertex 23.2 54.2641 -111.445
    endloop
  endfacet
  facet normal 0 0.736969 0.675927
    outer loop
      vertex 20 53.5736 -110.622
      vertex 23.2 53.9368 -111.018
      vertex 20 53.9368 -111.018
    endloop
  endfacet
  facet normal -0 0.736969 0.675927
    outer loop
      vertex 20 53.5736 -110.622
      vertex 23.2 53.5736 -110.622
      vertex 23.2 53.9368 -111.018
    endloop
  endfacet
  facet normal 0 0.856885 -0.515507
    outer loop
      vertex 20 54.7726 -108.629
      vertex 23.2 53.5736 -110.622
      vertex 20 53.5736 -110.622
    endloop
  endfacet
  facet normal 0 0.856885 -0.515507
    outer loop
      vertex 20 54.7726 -108.629
      vertex 23.2 54.7726 -108.629
      vertex 23.2 53.5736 -110.622
    endloop
  endfacet
  facet normal 0 0.643075 0.765803
    outer loop
      vertex 20 54.0831 -108.05
      vertex 23.2 54.7726 -108.629
      vertex 20 54.7726 -108.629
    endloop
  endfacet
  facet normal -0 0.643075 0.765803
    outer loop
      vertex 20 54.0831 -108.05
      vertex 23.2 54.0831 -108.05
      vertex 23.2 54.7726 -108.629
    endloop
  endfacet
  facet normal 0 -0.656466 0.754356
    outer loop
      vertex 20 52.3284 -109.577
      vertex 23.2 54.0831 -108.05
      vertex 20 54.0831 -108.05
    endloop
  endfacet
  facet normal 0 -0.656466 0.754356
    outer loop
      vertex 20 52.3284 -109.577
      vertex 23.2 52.3284 -109.577
      vertex 23.2 54.0831 -108.05
    endloop
  endfacet
  facet normal 0 0.537501 0.843263
    outer loop
      vertex 20 51.875 -109.288
      vertex 23.2 52.3284 -109.577
      vertex 20 52.3284 -109.577
    endloop
  endfacet
  facet normal -0 0.537501 0.843263
    outer loop
      vertex 20 51.875 -109.288
      vertex 23.2 51.875 -109.288
      vertex 23.2 52.3284 -109.577
    endloop
  endfacet
  facet normal 0 0.46137 0.887208
    outer loop
      vertex 20 51.3981 -109.04
      vertex 23.2 51.875 -109.288
      vertex 20 51.875 -109.288
    endloop
  endfacet
  facet normal -0 0.46137 0.887208
    outer loop
      vertex 20 51.3981 -109.04
      vertex 23.2 51.3981 -109.04
      vertex 23.2 51.875 -109.288
    endloop
  endfacet
  facet normal 0 0.981536 -0.191277
    outer loop
      vertex 20 51.843 -106.757
      vertex 23.2 51.3981 -109.04
      vertex 20 51.3981 -109.04
    endloop
  endfacet
  facet normal 0 0.981536 -0.191277
    outer loop
      vertex 20 51.843 -106.757
      vertex 23.2 51.843 -106.757
      vertex 23.2 51.3981 -109.04
    endloop
  endfacet
  facet normal 0 0.342207 0.939625
    outer loop
      vertex 20 50.9973 -106.449
      vertex 23.2 51.843 -106.757
      vertex 20 51.843 -106.757
    endloop
  endfacet
  facet normal -0 0.342207 0.939625
    outer loop
      vertex 20 50.9973 -106.449
      vertex 23.2 50.9973 -106.449
      vertex 23.2 51.843 -106.757
    endloop
  endfacet
  facet normal 0 -0.87486 0.484376
    outer loop
      vertex 20 49.8706 -108.484
      vertex 23.2 50.9973 -106.449
      vertex 20 50.9973 -106.449
    endloop
  endfacet
  facet normal 0 -0.87486 0.484376
    outer loop
      vertex 20 49.8706 -108.484
      vertex 23.2 49.8706 -108.484
      vertex 23.2 50.9973 -106.449
    endloop
  endfacet
  facet normal 0 0.215827 0.976432
    outer loop
      vertex 20 49.3458 -108.368
      vertex 23.2 49.8706 -108.484
      vertex 20 49.8706 -108.484
    endloop
  endfacet
  facet normal -0 0.215827 0.976432
    outer loop
      vertex 20 49.3458 -108.368
      vertex 23.2 49.3458 -108.368
      vertex 23.2 49.8706 -108.484
    endloop
  endfacet
  facet normal 0 0.130214 0.991486
    outer loop
      vertex 20 48.8128 -108.298
      vertex 23.2 49.3458 -108.368
      vertex 20 49.3458 -108.368
    endloop
  endfacet
  facet normal -0 0.130214 0.991486
    outer loop
      vertex 20 48.8128 -108.298
      vertex 23.2 48.8128 -108.298
      vertex 23.2 49.3458 -108.368
    endloop
  endfacet
  facet normal 0 0.987766 0.155945
    outer loop
      vertex 20 48.45 -106
      vertex 23.2 48.8128 -108.298
      vertex 20 48.8128 -108.298
    endloop
  endfacet
  facet normal -0 0.987766 0.155945
    outer loop
      vertex 20 48.45 -106
      vertex 23.2 48.45 -106
      vertex 23.2 48.8128 -108.298
    endloop
  endfacet
  facet normal 0 0 1
    outer loop
      vertex 20 47.55 -106
      vertex 23.2 48.45 -106
      vertex 20 48.45 -106
    endloop
  endfacet
  facet normal 0 0 1
    outer loop
      vertex 20 47.55 -106
      vertex 23.2 47.55 -106
      vertex 23.2 48.45 -106
    endloop
  endfacet
  facet normal 0 -0.987766 0.155945
    outer loop
      vertex 20 47.1872 -108.298
      vertex 23.2 47.55 -106
      vertex 20 47.55 -106
    endloop
  endfacet
  facet normal 0 -0.987766 0.155945
    outer loop
      vertex 20 47.1872 -108.298
      vertex 23.2 47.1872 -108.298
      vertex 23.2 47.55 -106
    endloop
  endfacet
  facet normal 0 -0.130214 0.991486
    outer loop
      vertex 20 46.6542 -108.368
      vertex 23.2 47.1872 -108.298
      vertex 20 47.1872 -108.298
    endloop
  endfacet
  facet normal 0 -0.130214 0.991486
    outer loop
      vertex 20 46.6542 -108.368
      vertex 23.2 46.6542 -108.368
      vertex 23.2 47.1872 -108.298
    endloop
  endfacet
  facet normal 0 -0.215827 0.976432
    outer loop
      vertex 20 46.1294 -108.484
      vertex 23.2 46.6542 -108.368
      vertex 20 46.6542 -108.368
    endloop
  endfacet
  facet normal 0 -0.215827 0.976432
    outer loop
      vertex 20 46.1294 -108.484
      vertex 23.2 46.1294 -108.484
      vertex 23.2 46.6542 -108.368
    endloop
  endfacet
  facet normal 0 0.87486 0.484376
    outer loop
      vertex 20 45.0027 -106.449
      vertex 23.2 46.1294 -108.484
      vertex 20 46.1294 -108.484
    endloop
  endfacet
  facet normal -0 0.87486 0.484376
    outer loop
      vertex 20 45.0027 -106.449
      vertex 23.2 45.0027 -106.449
      vertex 23.2 46.1294 -108.484
    endloop
  endfacet
  facet normal 0 -0.342207 0.939625
    outer loop
      vertex 20 44.157 -106.757
      vertex 23.2 45.0027 -106.449
      vertex 20 45.0027 -106.449
    endloop
  endfacet
  facet normal 0 -0.342207 0.939625
    outer loop
      vertex 20 44.157 -106.757
      vertex 23.2 44.157 -106.757
      vertex 23.2 45.0027 -106.449
    endloop
  endfacet
  facet normal 0 -0.981536 -0.191277
    outer loop
      vertex 20 44.6019 -109.04
      vertex 23.2 44.157 -106.757
      vertex 20 44.157 -106.757
    endloop
  endfacet
  facet normal 0 -0.981536 -0.191277
    outer loop
      vertex 20 44.6019 -109.04
      vertex 23.2 44.6019 -109.04
      vertex 23.2 44.157 -106.757
    endloop
  endfacet
  facet normal 0 -0.46137 0.887208
    outer loop
      vertex 20 44.125 -109.288
      vertex 23.2 44.6019 -109.04
      vertex 20 44.6019 -109.04
    endloop
  endfacet
  facet normal 0 -0.46137 0.887208
    outer loop
      vertex 20 44.125 -109.288
      vertex 23.2 44.125 -109.288
      vertex 23.2 44.6019 -109.04
    endloop
  endfacet
  facet normal 0 -0.537501 0.843263
    outer loop
      vertex 20 43.6716 -109.577
      vertex 23.2 44.125 -109.288
      vertex 20 44.125 -109.288
    endloop
  endfacet
  facet normal 0 -0.537501 0.843263
    outer loop
      vertex 20 43.6716 -109.577
      vertex 23.2 43.6716 -109.577
      vertex 23.2 44.125 -109.288
    endloop
  endfacet
  facet normal 0 0.656466 0.754356
    outer loop
      vertex 20 41.9169 -108.05
      vertex 23.2 43.6716 -109.577
      vertex 20 43.6716 -109.577
    endloop
  endfacet
  facet normal -0 0.656466 0.754356
    outer loop
      vertex 20 41.9169 -108.05
      vertex 23.2 41.9169 -108.05
      vertex 23.2 43.6716 -109.577
    endloop
  endfacet
  facet normal 0 -0.643075 0.765803
    outer loop
      vertex 20 41.2274 -108.629
      vertex 23.2 41.9169 -108.05
      vertex 20 41.9169 -108.05
    endloop
  endfacet
  facet normal 0 -0.643075 0.765803
    outer loop
      vertex 20 41.2274 -108.629
      vertex 23.2 41.2274 -108.629
      vertex 23.2 41.9169 -108.05
    endloop
  endfacet
  facet normal 0 -0.856885 -0.515507
    outer loop
      vertex 20 42.4264 -110.622
      vertex 23.2 41.2274 -108.629
      vertex 20 41.2274 -108.629
    endloop
  endfacet
  facet normal 0 -0.856885 -0.515507
    outer loop
      vertex 20 42.4264 -110.622
      vertex 23.2 42.4264 -110.622
      vertex 23.2 41.2274 -108.629
    endloop
  endfacet
  facet normal 0 -0.736969 0.675927
    outer loop
      vertex 20 42.0632 -111.018
      vertex 23.2 42.4264 -110.622
      vertex 20 42.4264 -110.622
    endloop
  endfacet
  facet normal 0 -0.736969 0.675927
    outer loop
      vertex 20 42.0632 -111.018
      vertex 23.2 42.0632 -111.018
      vertex 23.2 42.4264 -110.622
    endloop
  endfacet
  facet normal 0 -0.793666 0.608353
    outer loop
      vertex 20 41.7359 -111.445
      vertex 23.2 42.0632 -111.018
      vertex 20 42.0632 -111.018
    endloop
  endfacet
  facet normal 0 -0.793666 0.608353
    outer loop
      vertex 20 41.7359 -111.445
      vertex 23.2 41.7359 -111.445
      vertex 23.2 42.0632 -111.018
    endloop
  endfacet
  facet normal 0 0.358965 0.933351
    outer loop
      vertex 20 39.5648 -110.61
      vertex 23.2 41.7359 -111.445
      vertex 20 41.7359 -111.445
    endloop
  endfacet
  facet normal -0 0.358965 0.933351
    outer loop
      vertex 20 39.5648 -110.61
      vertex 23.2 39.5648 -110.61
      vertex 23.2 41.7359 -111.445
    endloop
  endfacet
  facet normal 0 -0.866186 0.499722
    outer loop
      vertex 20 39.1148 -111.39
      vertex 23.2 39.5648 -110.61
      vertex 20 39.5648 -110.61
    endloop
  endfacet
  facet normal 0 -0.866186 0.499722
    outer loop
      vertex 20 39.1148 -111.39
      vertex 23.2 39.1148 -111.39
      vertex 23.2 39.5648 -110.61
    endloop
  endfacet
  facet normal 0 -0.628974 -0.777426
    outer loop
      vertex 20 40.9231 -112.853
      vertex 23.2 39.1148 -111.39
      vertex 20 39.1148 -111.39
    endloop
  endfacet
  facet normal 0 -0.628974 -0.777426
    outer loop
      vertex 20 40.9231 -112.853
      vertex 23.2 40.9231 -112.853
      vertex 23.2 39.1148 -111.39
    endloop
  endfacet
  facet normal 0 -0.923715 0.383081
    outer loop
      vertex 20 40.7174 -113.349
      vertex 23.2 40.9231 -112.853
      vertex 20 40.9231 -112.853
    endloop
  endfacet
  facet normal 0 -0.923715 0.383081
    outer loop
      vertex 20 40.7174 -113.349
      vertex 23.2 40.7174 -113.349
      vertex 23.2 40.9231 -112.853
    endloop
  endfacet
  facet normal 0 -0.953743 0.300624
    outer loop
      vertex 20 40.5557 -113.862
      vertex 23.2 40.7174 -113.349
      vertex 20 40.7174 -113.349
    endloop
  endfacet
  facet normal 0 -0.953743 0.300624
    outer loop
      vertex 20 40.5557 -113.862
      vertex 23.2 40.5557 -113.862
      vertex 23.2 40.7174 -113.349
    endloop
  endfacet
  facet normal 0 0.0180569 0.999837
    outer loop
      vertex 20 38.2301 -113.82
      vertex 23.2 40.5557 -113.862
      vertex 20 40.5557 -113.862
    endloop
  endfacet
  facet normal -0 0.0180569 0.999837
    outer loop
      vertex 20 38.2301 -113.82
      vertex 23.2 38.2301 -113.82
      vertex 23.2 40.5557 -113.862
    endloop
  endfacet
  facet normal 0 -0.984827 0.173538
    outer loop
      vertex 20 38.0738 -114.707
      vertex 23.2 38.2301 -113.82
      vertex 20 38.2301 -113.82
    endloop
  endfacet
  facet normal 0 -0.984827 0.173538
    outer loop
      vertex 20 38.0738 -114.707
      vertex 23.2 38.0738 -114.707
      vertex 23.2 38.2301 -113.82
    endloop
  endfacet
  facet normal 0 -0.325023 -0.945706
    outer loop
      vertex 20 40.2735 -115.463
      vertex 23.2 38.0738 -114.707
      vertex 20 38.0738 -114.707
    endloop
  endfacet
  facet normal 0 -0.325023 -0.945706
    outer loop
      vertex 20 40.2735 -115.463
      vertex 23.2 40.2735 -115.463
      vertex 23.2 38.0738 -114.707
    endloop
  endfacet
  facet normal 0 -0.999044 0.0437198
    outer loop
      vertex 20 40.25 -116
      vertex 23.2 40.2735 -115.463
      vertex 20 40.2735 -115.463
    endloop
  endfacet
  facet normal 0 -0.999044 0.0437198
    outer loop
      vertex 20 40.25 -116
      vertex 23.2 40.25 -116
      vertex 23.2 40.2735 -115.463
    endloop
  endfacet
  facet normal 0 -0.999044 -0.0437198
    outer loop
      vertex 20 40.2735 -116.537
      vertex 23.2 40.25 -116
      vertex 20 40.25 -116
    endloop
  endfacet
  facet normal 0 -0.999044 -0.0437198
    outer loop
      vertex 20 40.2735 -116.537
      vertex 23.2 40.2735 -116.537
      vertex 23.2 40.25 -116
    endloop
  endfacet
  facet normal 0 -0.325023 0.945706
    outer loop
      vertex 20 38.0738 -117.293
      vertex 23.2 40.2735 -116.537
      vertex 20 40.2735 -116.537
    endloop
  endfacet
  facet normal 0 -0.325023 0.945706
    outer loop
      vertex 20 38.0738 -117.293
      vertex 23.2 38.0738 -117.293
      vertex 23.2 40.2735 -116.537
    endloop
  endfacet
  facet normal 0 -0.984827 -0.173538
    outer loop
      vertex 20 38.2301 -118.18
      vertex 23.2 38.0738 -117.293
      vertex 20 38.0738 -117.293
    endloop
  endfacet
  facet normal 0 -0.984827 -0.173538
    outer loop
      vertex 20 38.2301 -118.18
      vertex 23.2 38.2301 -118.18
      vertex 23.2 38.0738 -117.293
    endloop
  endfacet
  facet normal 0 0.890992 -0.45402
    outer loop
      vertex 20 46.0584 -114.589
      vertex 23.2 46.0584 -114.589
      vertex 20 45.7175 -115.258
    endloop
  endfacet
  facet normal 0 0.890992 -0.45402
    outer loop
      vertex 23.2 45.7175 -115.258
      vertex 20 45.7175 -115.258
      vertex 23.2 46.0584 -114.589
    endloop
  endfacet
  facet normal 0 0.707173 -0.70704
    outer loop
      vertex 20 46.5893 -114.058
      vertex 23.2 46.5893 -114.058
      vertex 20 46.0584 -114.589
    endloop
  endfacet
  facet normal 0 0.707173 -0.70704
    outer loop
      vertex 23.2 46.0584 -114.589
      vertex 20 46.0584 -114.589
      vertex 23.2 46.5893 -114.058
    endloop
  endfacet
  facet normal 0 0.454071 -0.890965
    outer loop
      vertex 20 47.2584 -113.717
      vertex 23.2 47.2584 -113.717
      vertex 20 46.5893 -114.058
    endloop
  endfacet
  facet normal 0 0.454071 -0.890965
    outer loop
      vertex 23.2 46.5893 -114.058
      vertex 20 46.5893 -114.058
      vertex 23.2 47.2584 -113.717
    endloop
  endfacet
  facet normal 0 0.155839 -0.987782
    outer loop
      vertex 20 48 -113.6
      vertex 23.2 48 -113.6
      vertex 20 47.2584 -113.717
    endloop
  endfacet
  facet normal 0 0.155839 -0.987782
    outer loop
      vertex 23.2 47.2584 -113.717
      vertex 20 47.2584 -113.717
      vertex 23.2 48 -113.6
    endloop
  endfacet
  facet normal 0 -0.155839 -0.987782
    outer loop
      vertex 20 48.7416 -113.717
      vertex 23.2 48.7416 -113.717
      vertex 20 48 -113.6
    endloop
  endfacet
  facet normal -0 -0.155839 -0.987782
    outer loop
      vertex 23.2 48 -113.6
      vertex 20 48 -113.6
      vertex 23.2 48.7416 -113.717
    endloop
  endfacet
  facet normal 0 -0.454071 -0.890965
    outer loop
      vertex 20 49.4107 -114.058
      vertex 23.2 49.4107 -114.058
      vertex 20 48.7416 -113.717
    endloop
  endfacet
  facet normal -0 -0.454071 -0.890965
    outer loop
      vertex 23.2 48.7416 -113.717
      vertex 20 48.7416 -113.717
      vertex 23.2 49.4107 -114.058
    endloop
  endfacet
  facet normal 0 -0.707173 -0.70704
    outer loop
      vertex 20 49.9416 -114.589
      vertex 23.2 49.9416 -114.589
      vertex 20 49.4107 -114.058
    endloop
  endfacet
  facet normal -0 -0.707173 -0.70704
    outer loop
      vertex 23.2 49.4107 -114.058
      vertex 20 49.4107 -114.058
      vertex 23.2 49.9416 -114.589
    endloop
  endfacet
  facet normal 0 -0.890992 -0.45402
    outer loop
      vertex 20 50.2825 -115.258
      vertex 23.2 50.2825 -115.258
      vertex 20 49.9416 -114.589
    endloop
  endfacet
  facet normal -0 -0.890992 -0.45402
    outer loop
      vertex 23.2 49.9416 -114.589
      vertex 20 49.9416 -114.589
      vertex 23.2 50.2825 -115.258
    endloop
  endfacet
  facet normal 0 -0.987693 -0.156407
    outer loop
      vertex 20 50.4 -116
      vertex 23.2 50.4 -116
      vertex 20 50.2825 -115.258
    endloop
  endfacet
  facet normal -0 -0.987693 -0.156407
    outer loop
      vertex 23.2 50.2825 -115.258
      vertex 20 50.2825 -115.258
      vertex 23.2 50.4 -116
    endloop
  endfacet
  facet normal 0 -0.987693 0.156407
    outer loop
      vertex 20 50.2825 -116.742
      vertex 23.2 50.2825 -116.742
      vertex 20 50.4 -116
    endloop
  endfacet
  facet normal 0 -0.987693 0.156407
    outer loop
      vertex 23.2 50.4 -116
      vertex 20 50.4 -116
      vertex 23.2 50.2825 -116.742
    endloop
  endfacet
  facet normal 0 -0.890992 0.45402
    outer loop
      vertex 20 49.9416 -117.411
      vertex 23.2 49.9416 -117.411
      vertex 20 50.2825 -116.742
    endloop
  endfacet
  facet normal 0 -0.890992 0.45402
    outer loop
      vertex 23.2 50.2825 -116.742
      vertex 20 50.2825 -116.742
      vertex 23.2 49.9416 -117.411
    endloop
  endfacet
  facet normal 0 -0.707173 0.70704
    outer loop
      vertex 20 49.4107 -117.942
      vertex 23.2 49.4107 -117.942
      vertex 20 49.9416 -117.411
    endloop
  endfacet
  facet normal 0 -0.707173 0.70704
    outer loop
      vertex 23.2 49.9416 -117.411
      vertex 20 49.9416 -117.411
      vertex 23.2 49.4107 -117.942
    endloop
  endfacet
  facet normal 0 -0.454071 0.890965
    outer loop
      vertex 20 48.7416 -118.283
      vertex 23.2 48.7416 -118.283
      vertex 20 49.4107 -117.942
    endloop
  endfacet
  facet normal 0 -0.454071 0.890965
    outer loop
      vertex 23.2 49.4107 -117.942
      vertex 20 49.4107 -117.942
      vertex 23.2 48.7416 -118.283
    endloop
  endfacet
  facet normal 0 -0.155839 0.987782
    outer loop
      vertex 20 48 -118.4
      vertex 23.2 48 -118.4
      vertex 20 48.7416 -118.283
    endloop
  endfacet
  facet normal 0 -0.155839 0.987782
    outer loop
      vertex 23.2 48.7416 -118.283
      vertex 20 48.7416 -118.283
      vertex 23.2 48 -118.4
    endloop
  endfacet
  facet normal -0 0.155839 0.987782
    outer loop
      vertex 20 47.2584 -118.283
      vertex 23.2 47.2584 -118.283
      vertex 20 48 -118.4
    endloop
  endfacet
  facet normal 0 0.155839 0.987782
    outer loop
      vertex 23.2 48 -118.4
      vertex 20 48 -118.4
      vertex 23.2 47.2584 -118.283
    endloop
  endfacet
  facet normal -0 0.454071 0.890965
    outer loop
      vertex 20 46.5893 -117.942
      vertex 23.2 46.5893 -117.942
      vertex 20 47.2584 -118.283
    endloop
  endfacet
  facet normal 0 0.454071 0.890965
    outer loop
      vertex 23.2 47.2584 -118.283
      vertex 20 47.2584 -118.283
      vertex 23.2 46.5893 -117.942
    endloop
  endfacet
  facet normal -0 0.707173 0.70704
    outer loop
      vertex 20 46.0584 -117.411
      vertex 23.2 46.0584 -117.411
      vertex 20 46.5893 -117.942
    endloop
  endfacet
  facet normal 0 0.707173 0.70704
    outer loop
      vertex 23.2 46.5893 -117.942
      vertex 20 46.5893 -117.942
      vertex 23.2 46.0584 -117.411
    endloop
  endfacet
  facet normal -0 0.890992 0.45402
    outer loop
      vertex 20 45.7175 -116.742
      vertex 23.2 45.7175 -116.742
      vertex 20 46.0584 -117.411
    endloop
  endfacet
  facet normal 0 0.890992 0.45402
    outer loop
      vertex 23.2 46.0584 -117.411
      vertex 20 46.0584 -117.411
      vertex 23.2 45.7175 -116.742
    endloop
  endfacet
  facet normal -0 0.987693 0.156407
    outer loop
      vertex 20 45.6 -116
      vertex 23.2 45.6 -116
      vertex 20 45.7175 -116.742
    endloop
  endfacet
  facet normal 0 0.987693 0.156407
    outer loop
      vertex 23.2 45.7175 -116.742
      vertex 20 45.7175 -116.742
      vertex 23.2 45.6 -116
    endloop
  endfacet
  facet normal 0 0.987693 -0.156407
    outer loop
      vertex 20 45.7175 -115.258
      vertex 23.2 45.7175 -115.258
      vertex 20 45.6 -116
    endloop
  endfacet
  facet normal 0 0.987693 -0.156407
    outer loop
      vertex 23.2 45.6 -116
      vertex 20 45.6 -116
      vertex 23.2 45.7175 -115.258
    endloop
  endfacet
endsolid OpenSCAD_Model
