solid OpenSCAD_Model
  facet normal -1 -0 0
    outer loop
      vertex 34 46.0584 -141.411
      vertex 34 40.9231 -143.147
      vertex 34 45.7175 -140.742
    endloop
  endfacet
  facet normal -1 -0 0
    outer loop
      vertex 34 40.5557 -142.138
      vertex 34 38.2301 -142.18
      vertex 34 38.0738 -141.293
    endloop
  endfacet
  facet normal -1 0 -0
    outer loop
      vertex 34 46.0584 -141.411
      vertex 34 46.5893 -141.942
      vertex 34 42.4264 -145.378
    endloop
  endfacet
  facet normal -1 -0 0
    outer loop
      vertex 34 55.4443 -142.138
      vertex 34 55.2826 -142.651
      vertex 34 50.2825 -140.742
    endloop
  endfacet
  facet normal -1 0 0
    outer loop
      vertex 34 47.1872 -147.702
      vertex 34 46.6542 -147.632
      vertex 34 48 -142.4
    endloop
  endfacet
  facet normal -1 0 0
    outer loop
      vertex 34 40.9231 -143.147
      vertex 34 39.5648 -145.39
      vertex 34 39.1148 -144.61
    endloop
  endfacet
  facet normal -1 0 -0
    outer loop
      vertex 34 40.9231 -143.147
      vertex 34 41.7359 -144.555
      vertex 34 39.5648 -145.39
    endloop
  endfacet
  facet normal -1 0 0
    outer loop
      vertex 34 49.4107 -141.942
      vertex 34 51.875 -146.712
      vertex 34 51.3981 -146.96
    endloop
  endfacet
  facet normal -1 0 0
    outer loop
      vertex 34 42.4264 -145.378
      vertex 34 46.5893 -141.942
      vertex 34 43.6716 -146.423
    endloop
  endfacet
  facet normal -1 0 0
    outer loop
      vertex 34 46.5893 -141.942
      vertex 34 44.6019 -146.96
      vertex 34 44.125 -146.712
    endloop
  endfacet
  facet normal -1 0 0
    outer loop
      vertex 34 43.6716 -146.423
      vertex 34 41.9169 -147.95
      vertex 34 41.2274 -147.371
    endloop
  endfacet
  facet normal -1 0 -0
    outer loop
      vertex 34 42.4264 -145.378
      vertex 34 43.6716 -146.423
      vertex 34 41.2274 -147.371
    endloop
  endfacet
  facet normal -1 0 0
    outer loop
      vertex 34 52.3284 -146.423
      vertex 34 49.4107 -141.942
      vertex 34 53.5736 -145.378
    endloop
  endfacet
  facet normal -1 0 0
    outer loop
      vertex 34 47.2584 -142.283
      vertex 34 46.6542 -147.632
      vertex 34 46.1294 -147.516
    endloop
  endfacet
  facet normal -1 0 0
    outer loop
      vertex 34 48.8128 -147.702
      vertex 34 48 -142.4
      vertex 34 49.3458 -147.632
    endloop
  endfacet
  facet normal -1 0 0
    outer loop
      vertex 34 46.1294 -147.516
      vertex 34 45.0027 -149.551
      vertex 34 44.157 -149.243
    endloop
  endfacet
  facet normal -1 0 -0
    outer loop
      vertex 34 44.6019 -146.96
      vertex 34 46.1294 -147.516
      vertex 34 44.157 -149.243
    endloop
  endfacet
  facet normal -1 0 0
    outer loop
      vertex 34 49.4107 -138.058
      vertex 34 53.5736 -134.622
      vertex 34 49.9416 -138.589
    endloop
  endfacet
  facet normal -1 0 -0
    outer loop
      vertex 34 48.7416 -142.283
      vertex 34 49.3458 -147.632
      vertex 34 48 -142.4
    endloop
  endfacet
  facet normal -1 0 0
    outer loop
      vertex 34 49.9416 -141.411
      vertex 34 53.9368 -144.982
      vertex 34 53.5736 -145.378
    endloop
  endfacet
  facet normal -1 0 0
    outer loop
      vertex 34 48.8128 -147.702
      vertex 34 48.45 -150
      vertex 34 47.55 -150
    endloop
  endfacet
  facet normal -1 0 0
    outer loop
      vertex 34 47.1872 -147.702
      vertex 34 48.8128 -147.702
      vertex 34 47.55 -150
    endloop
  endfacet
  facet normal -1 0 0
    outer loop
      vertex 34 55.0769 -143.147
      vertex 34 50.2825 -140.742
      vertex 34 55.2826 -142.651
    endloop
  endfacet
  facet normal -1 -0 0
    outer loop
      vertex 34 52.3284 -146.423
      vertex 34 51.875 -146.712
      vertex 34 49.4107 -141.942
    endloop
  endfacet
  facet normal -1 0 0
    outer loop
      vertex 34 49.8706 -147.516
      vertex 34 48.7416 -142.283
      vertex 34 51.3981 -146.96
    endloop
  endfacet
  facet normal -1 0 0
    outer loop
      vertex 34 49.8706 -147.516
      vertex 34 51.843 -149.243
      vertex 34 50.9973 -149.551
    endloop
  endfacet
  facet normal -1 0 0
    outer loop
      vertex 34 49.8706 -147.516
      vertex 34 51.3981 -146.96
      vertex 34 51.843 -149.243
    endloop
  endfacet
  facet normal -1 0 -0
    outer loop
      vertex 34 55.0769 -143.147
      vertex 34 56.4352 -145.39
      vertex 34 54.2641 -144.555
    endloop
  endfacet
  facet normal -1 -0 0
    outer loop
      vertex 34 54.2641 -144.555
      vertex 34 53.9368 -144.982
      vertex 34 49.9416 -141.411
    endloop
  endfacet
  facet normal -1 0 -0
    outer loop
      vertex 34 50.4 -140
      vertex 34 55.7265 -140.537
      vertex 34 50.2825 -140.742
    endloop
  endfacet
  facet normal -1 0 0
    outer loop
      vertex 34 52.3284 -146.423
      vertex 34 54.7726 -147.371
      vertex 34 54.0831 -147.95
    endloop
  endfacet
  facet normal -1 0 0
    outer loop
      vertex 34 52.3284 -146.423
      vertex 34 53.5736 -145.378
      vertex 34 54.7726 -147.371
    endloop
  endfacet
  facet normal -1 0 0
    outer loop
      vertex 34 57.9262 -141.293
      vertex 34 57.7699 -142.18
      vertex 34 55.4443 -142.138
    endloop
  endfacet
  facet normal -1 -0 0
    outer loop
      vertex 34 55.75 -140
      vertex 34 55.7265 -140.537
      vertex 34 50.4 -140
    endloop
  endfacet
  facet normal -1 0 0
    outer loop
      vertex 34 55.0769 -143.147
      vertex 34 56.8852 -144.61
      vertex 34 56.4352 -145.39
    endloop
  endfacet
  facet normal -1 0 0
    outer loop
      vertex 34 55.75 -140
      vertex 34 50.4 -140
      vertex 34 55.7265 -139.463
    endloop
  endfacet
  facet normal -1 0 -0
    outer loop
      vertex 34 55.2826 -137.349
      vertex 34 55.4443 -137.862
      vertex 34 50.2825 -139.258
    endloop
  endfacet
  facet normal -1 -0 0
    outer loop
      vertex 34 57.9262 -141.293
      vertex 34 55.4443 -142.138
      vertex 34 55.7265 -140.537
    endloop
  endfacet
  facet normal -1 0 -0
    outer loop
      vertex 34 53.9368 -135.018
      vertex 34 54.2641 -135.445
      vertex 34 49.9416 -138.589
    endloop
  endfacet
  facet normal -1 -0 0
    outer loop
      vertex 34 55.2826 -137.349
      vertex 34 50.2825 -139.258
      vertex 34 55.0769 -136.853
    endloop
  endfacet
  facet normal -1 0 0
    outer loop
      vertex 34 50.2825 -139.258
      vertex 34 55.4443 -137.862
      vertex 34 55.7265 -139.463
    endloop
  endfacet
  facet normal -1 -0 0
    outer loop
      vertex 34 57.9262 -138.707
      vertex 34 55.7265 -139.463
      vertex 34 55.4443 -137.862
    endloop
  endfacet
  facet normal -1 0 -0
    outer loop
      vertex 34 57.7699 -137.82
      vertex 34 57.9262 -138.707
      vertex 34 55.4443 -137.862
    endloop
  endfacet
  facet normal -1 0 -0
    outer loop
      vertex 34 50.2825 -140.742
      vertex 34 55.0769 -143.147
      vertex 34 49.9416 -141.411
    endloop
  endfacet
  facet normal -1 -0 0
    outer loop
      vertex 34 53.9368 -135.018
      vertex 34 49.9416 -138.589
      vertex 34 53.5736 -134.622
    endloop
  endfacet
  facet normal -1 0 0
    outer loop
      vertex 34 49.4107 -138.058
      vertex 34 51.875 -133.288
      vertex 34 52.3284 -133.577
    endloop
  endfacet
  facet normal -1 0 0
    outer loop
      vertex 34 56.4352 -134.61
      vertex 34 55.0769 -136.853
      vertex 34 54.2641 -135.445
    endloop
  endfacet
  facet normal -1 0 -0
    outer loop
      vertex 34 56.4352 -134.61
      vertex 34 56.8852 -135.39
      vertex 34 55.0769 -136.853
    endloop
  endfacet
  facet normal -1 -0 0
    outer loop
      vertex 34 51.875 -133.288
      vertex 34 49.4107 -138.058
      vertex 34 51.3981 -133.04
    endloop
  endfacet
  facet normal -1 0 0
    outer loop
      vertex 34 48.7416 -137.717
      vertex 34 49.8706 -132.484
      vertex 34 51.3981 -133.04
    endloop
  endfacet
  facet normal -1 0 0
    outer loop
      vertex 34 46.0584 -138.589
      vertex 34 41.7359 -135.445
      vertex 34 42.0632 -135.018
    endloop
  endfacet
  facet normal -1 0 0
    outer loop
      vertex 34 54.7726 -132.629
      vertex 34 53.5736 -134.622
      vertex 34 52.3284 -133.577
    endloop
  endfacet
  facet normal -1 0 -0
    outer loop
      vertex 34 54.0831 -132.05
      vertex 34 54.7726 -132.629
      vertex 34 52.3284 -133.577
    endloop
  endfacet
  facet normal -1 0 0
    outer loop
      vertex 34 46.6542 -132.368
      vertex 34 47.1872 -132.298
      vertex 34 48 -137.6
    endloop
  endfacet
  facet normal -1 0 0
    outer loop
      vertex 34 48 -137.6
      vertex 34 47.1872 -132.298
      vertex 34 48.8128 -132.298
    endloop
  endfacet
  facet normal -1 0 0
    outer loop
      vertex 34 51.843 -130.757
      vertex 34 51.3981 -133.04
      vertex 34 49.8706 -132.484
    endloop
  endfacet
  facet normal -1 0 -0
    outer loop
      vertex 34 50.9973 -130.449
      vertex 34 51.843 -130.757
      vertex 34 49.8706 -132.484
    endloop
  endfacet
  facet normal -1 0 0
    outer loop
      vertex 34 46.5893 -138.058
      vertex 34 44.6019 -133.04
      vertex 34 47.2584 -137.717
    endloop
  endfacet
  facet normal -1 0 0
    outer loop
      vertex 34 42.4264 -134.622
      vertex 34 46.5893 -138.058
      vertex 34 46.0584 -138.589
    endloop
  endfacet
  facet normal -1 0 0
    outer loop
      vertex 34 42.4264 -134.622
      vertex 34 43.6716 -133.577
      vertex 34 46.5893 -138.058
    endloop
  endfacet
  facet normal -1 0 -0
    outer loop
      vertex 34 47.55 -130
      vertex 34 48.45 -130
      vertex 34 47.1872 -132.298
    endloop
  endfacet
  facet normal -1 0 -0
    outer loop
      vertex 34 44.125 -133.288
      vertex 34 46.5893 -138.058
      vertex 34 43.6716 -133.577
    endloop
  endfacet
  facet normal -1 0 0
    outer loop
      vertex 34 48.8128 -132.298
      vertex 34 47.1872 -132.298
      vertex 34 48.45 -130
    endloop
  endfacet
  facet normal -1 0 -0
    outer loop
      vertex 34 46.1294 -132.484
      vertex 34 47.2584 -137.717
      vertex 34 44.6019 -133.04
    endloop
  endfacet
  facet normal -1 0 0
    outer loop
      vertex 34 44.157 -130.757
      vertex 34 45.0027 -130.449
      vertex 34 46.1294 -132.484
    endloop
  endfacet
  facet normal -1 0 0
    outer loop
      vertex 34 42.0632 -135.018
      vertex 34 42.4264 -134.622
      vertex 34 46.0584 -138.589
    endloop
  endfacet
  facet normal -1 0 0
    outer loop
      vertex 34 42.0632 -144.982
      vertex 34 41.7359 -144.555
      vertex 34 46.0584 -141.411
    endloop
  endfacet
  facet normal -1 0 0
    outer loop
      vertex 34 44.6019 -133.04
      vertex 34 44.157 -130.757
      vertex 34 46.1294 -132.484
    endloop
  endfacet
  facet normal -1 0 -0
    outer loop
      vertex 34 40.9231 -136.853
      vertex 34 45.7175 -139.258
      vertex 34 40.7174 -137.349
    endloop
  endfacet
  facet normal -1 0 0
    outer loop
      vertex 34 41.2274 -132.629
      vertex 34 43.6716 -133.577
      vertex 34 42.4264 -134.622
    endloop
  endfacet
  facet normal -1 0 0
    outer loop
      vertex 34 41.2274 -132.629
      vertex 34 41.9169 -132.05
      vertex 34 43.6716 -133.577
    endloop
  endfacet
  facet normal -1 0 0
    outer loop
      vertex 34 45.7175 -139.258
      vertex 34 40.9231 -136.853
      vertex 34 46.0584 -138.589
    endloop
  endfacet
  facet normal -1 0 -0
    outer loop
      vertex 34 41.7359 -135.445
      vertex 34 46.0584 -138.589
      vertex 34 40.9231 -136.853
    endloop
  endfacet
  facet normal -1 0 -0
    outer loop
      vertex 34 40.7174 -137.349
      vertex 34 45.7175 -139.258
      vertex 34 40.5557 -137.862
    endloop
  endfacet
  facet normal -1 0 0
    outer loop
      vertex 34 40.7174 -142.651
      vertex 34 45.7175 -140.742
      vertex 34 40.9231 -143.147
    endloop
  endfacet
  facet normal -1 0 0
    outer loop
      vertex 34 39.1148 -135.39
      vertex 34 39.5648 -134.61
      vertex 34 40.9231 -136.853
    endloop
  endfacet
  facet normal -1 -0 0
    outer loop
      vertex 34 41.7359 -135.445
      vertex 34 40.9231 -136.853
      vertex 34 39.5648 -134.61
    endloop
  endfacet
  facet normal -1 0 0
    outer loop
      vertex 34 40.2735 -139.463
      vertex 34 40.5557 -137.862
      vertex 34 45.7175 -139.258
    endloop
  endfacet
  facet normal -1 0 0
    outer loop
      vertex 34 45.6 -140
      vertex 34 40.2735 -139.463
      vertex 34 45.7175 -139.258
    endloop
  endfacet
  facet normal -1 0 0
    outer loop
      vertex 34 45.6 -140
      vertex 34 40.25 -140
      vertex 34 40.2735 -139.463
    endloop
  endfacet
  facet normal -1 0 0
    outer loop
      vertex 34 38.0738 -138.707
      vertex 34 38.2301 -137.82
      vertex 34 40.5557 -137.862
    endloop
  endfacet
  facet normal -1 0 0
    outer loop
      vertex 34 40.5557 -137.862
      vertex 34 40.2735 -139.463
      vertex 34 38.0738 -138.707
    endloop
  endfacet
  facet normal -1 -0 0
    outer loop
      vertex 34 45.6 -140
      vertex 34 40.2735 -140.537
      vertex 34 40.25 -140
    endloop
  endfacet
  facet normal -1 -0 0
    outer loop
      vertex 34 45.7175 -140.742
      vertex 34 40.5557 -142.138
      vertex 34 40.2735 -140.537
    endloop
  endfacet
  facet normal -1 0 -0
    outer loop
      vertex 34 40.2735 -140.537
      vertex 34 40.5557 -142.138
      vertex 34 38.0738 -141.293
    endloop
  endfacet
  facet normal -1 0 0
    outer loop
      vertex 34 46.1294 -147.516
      vertex 34 44.6019 -146.96
      vertex 34 47.2584 -142.283
    endloop
  endfacet
  facet normal -1 0 0
    outer loop
      vertex 34 48.7416 -137.717
      vertex 34 49.3458 -132.368
      vertex 34 49.8706 -132.484
    endloop
  endfacet
  facet normal -1 0 0
    outer loop
      vertex 34 44.125 -133.288
      vertex 34 44.6019 -133.04
      vertex 34 46.5893 -138.058
    endloop
  endfacet
  facet normal -1 0 -0
    outer loop
      vertex 34 48 -142.4
      vertex 34 48.8128 -147.702
      vertex 34 47.1872 -147.702
    endloop
  endfacet
  facet normal -1 0 0
    outer loop
      vertex 34 46.6542 -132.368
      vertex 34 48 -137.6
      vertex 34 47.2584 -137.717
    endloop
  endfacet
  facet normal -1 0 -0
    outer loop
      vertex 34 46.6542 -132.368
      vertex 34 47.2584 -137.717
      vertex 34 46.1294 -132.484
    endloop
  endfacet
  facet normal -1 0 0
    outer loop
      vertex 34 49.3458 -132.368
      vertex 34 48.7416 -137.717
      vertex 34 48 -137.6
    endloop
  endfacet
  facet normal -1 -0 0
    outer loop
      vertex 34 49.3458 -132.368
      vertex 34 48 -137.6
      vertex 34 48.8128 -132.298
    endloop
  endfacet
  facet normal -1 0 0
    outer loop
      vertex 34 49.4107 -138.058
      vertex 34 48.7416 -137.717
      vertex 34 51.3981 -133.04
    endloop
  endfacet
  facet normal -1 0 -0
    outer loop
      vertex 34 52.3284 -133.577
      vertex 34 53.5736 -134.622
      vertex 34 49.4107 -138.058
    endloop
  endfacet
  facet normal -1 0 0
    outer loop
      vertex 34 55.0769 -136.853
      vertex 34 50.2825 -139.258
      vertex 34 49.9416 -138.589
    endloop
  endfacet
  facet normal -1 -0 0
    outer loop
      vertex 34 55.0769 -136.853
      vertex 34 49.9416 -138.589
      vertex 34 54.2641 -135.445
    endloop
  endfacet
  facet normal -1 0 0
    outer loop
      vertex 34 50.4 -140
      vertex 34 50.2825 -139.258
      vertex 34 55.7265 -139.463
    endloop
  endfacet
  facet normal -1 0 0
    outer loop
      vertex 34 50.2825 -140.742
      vertex 34 55.7265 -140.537
      vertex 34 55.4443 -142.138
    endloop
  endfacet
  facet normal -1 0 0
    outer loop
      vertex 34 49.9416 -141.411
      vertex 34 55.0769 -143.147
      vertex 34 54.2641 -144.555
    endloop
  endfacet
  facet normal -1 0 0
    outer loop
      vertex 34 49.4107 -141.942
      vertex 34 49.9416 -141.411
      vertex 34 53.5736 -145.378
    endloop
  endfacet
  facet normal -1 0 0
    outer loop
      vertex 34 48.7416 -142.283
      vertex 34 49.4107 -141.942
      vertex 34 51.3981 -146.96
    endloop
  endfacet
  facet normal -1 -0 0
    outer loop
      vertex 34 49.8706 -147.516
      vertex 34 49.3458 -147.632
      vertex 34 48.7416 -142.283
    endloop
  endfacet
  facet normal -1 0 -0
    outer loop
      vertex 34 47.2584 -142.283
      vertex 34 48 -142.4
      vertex 34 46.6542 -147.632
    endloop
  endfacet
  facet normal -1 0 -0
    outer loop
      vertex 34 46.5893 -141.942
      vertex 34 47.2584 -142.283
      vertex 34 44.6019 -146.96
    endloop
  endfacet
  facet normal -1 0 0
    outer loop
      vertex 34 43.6716 -146.423
      vertex 34 46.5893 -141.942
      vertex 34 44.125 -146.712
    endloop
  endfacet
  facet normal -1 0 0
    outer loop
      vertex 34 42.0632 -144.982
      vertex 34 46.0584 -141.411
      vertex 34 42.4264 -145.378
    endloop
  endfacet
  facet normal -1 0 0
    outer loop
      vertex 34 41.7359 -144.555
      vertex 34 40.9231 -143.147
      vertex 34 46.0584 -141.411
    endloop
  endfacet
  facet normal -1 0 0
    outer loop
      vertex 34 40.7174 -142.651
      vertex 34 40.5557 -142.138
      vertex 34 45.7175 -140.742
    endloop
  endfacet
  facet normal -1 0 0
    outer loop
      vertex 34 45.7175 -140.742
      vertex 34 40.2735 -140.537
      vertex 34 45.6 -140
    endloop
  endfacet
  facet normal 1 0 0
    outer loop
      vertex 37.2 45.7175 -140.742
      vertex 37.2 40.9231 -143.147
      vertex 37.2 46.0584 -141.411
    endloop
  endfacet
  facet normal 1 0 0
    outer loop
      vertex 37.2 38.0738 -141.293
      vertex 37.2 38.2301 -142.18
      vertex 37.2 40.5557 -142.138
    endloop
  endfacet
  facet normal 1 0 0
    outer loop
      vertex 37.2 42.4264 -145.378
      vertex 37.2 46.5893 -141.942
      vertex 37.2 46.0584 -141.411
    endloop
  endfacet
  facet normal 1 0 0
    outer loop
      vertex 37.2 50.2825 -140.742
      vertex 37.2 55.2826 -142.651
      vertex 37.2 55.4443 -142.138
    endloop
  endfacet
  facet normal 1 0 0
    outer loop
      vertex 37.2 48 -142.4
      vertex 37.2 46.6542 -147.632
      vertex 37.2 47.1872 -147.702
    endloop
  endfacet
  facet normal 1 -0 0
    outer loop
      vertex 37.2 39.1148 -144.61
      vertex 37.2 39.5648 -145.39
      vertex 37.2 40.9231 -143.147
    endloop
  endfacet
  facet normal 1 0 0
    outer loop
      vertex 37.2 39.5648 -145.39
      vertex 37.2 41.7359 -144.555
      vertex 37.2 40.9231 -143.147
    endloop
  endfacet
  facet normal 1 0 -0
    outer loop
      vertex 37.2 51.3981 -146.96
      vertex 37.2 51.875 -146.712
      vertex 37.2 49.4107 -141.942
    endloop
  endfacet
  facet normal 1 0 -0
    outer loop
      vertex 37.2 43.6716 -146.423
      vertex 37.2 46.5893 -141.942
      vertex 37.2 42.4264 -145.378
    endloop
  endfacet
  facet normal 1 -0 0
    outer loop
      vertex 37.2 44.125 -146.712
      vertex 37.2 44.6019 -146.96
      vertex 37.2 46.5893 -141.942
    endloop
  endfacet
  facet normal 1 -0 0
    outer loop
      vertex 37.2 41.2274 -147.371
      vertex 37.2 41.9169 -147.95
      vertex 37.2 43.6716 -146.423
    endloop
  endfacet
  facet normal 1 0 0
    outer loop
      vertex 37.2 41.2274 -147.371
      vertex 37.2 43.6716 -146.423
      vertex 37.2 42.4264 -145.378
    endloop
  endfacet
  facet normal 1 0 0
    outer loop
      vertex 37.2 53.5736 -145.378
      vertex 37.2 49.4107 -141.942
      vertex 37.2 52.3284 -146.423
    endloop
  endfacet
  facet normal 1 -0 0
    outer loop
      vertex 37.2 46.1294 -147.516
      vertex 37.2 46.6542 -147.632
      vertex 37.2 47.2584 -142.283
    endloop
  endfacet
  facet normal 1 0 0
    outer loop
      vertex 37.2 49.3458 -147.632
      vertex 37.2 48 -142.4
      vertex 37.2 48.8128 -147.702
    endloop
  endfacet
  facet normal 1 -0 0
    outer loop
      vertex 37.2 44.157 -149.243
      vertex 37.2 45.0027 -149.551
      vertex 37.2 46.1294 -147.516
    endloop
  endfacet
  facet normal 1 0 0
    outer loop
      vertex 37.2 44.157 -149.243
      vertex 37.2 46.1294 -147.516
      vertex 37.2 44.6019 -146.96
    endloop
  endfacet
  facet normal 1 0 -0
    outer loop
      vertex 37.2 49.9416 -138.589
      vertex 37.2 53.5736 -134.622
      vertex 37.2 49.4107 -138.058
    endloop
  endfacet
  facet normal 1 -0 0
    outer loop
      vertex 37.2 48 -142.4
      vertex 37.2 49.3458 -147.632
      vertex 37.2 48.7416 -142.283
    endloop
  endfacet
  facet normal 1 0 -0
    outer loop
      vertex 37.2 53.5736 -145.378
      vertex 37.2 53.9368 -144.982
      vertex 37.2 49.9416 -141.411
    endloop
  endfacet
  facet normal 1 0 0
    outer loop
      vertex 37.2 47.55 -150
      vertex 37.2 48.45 -150
      vertex 37.2 48.8128 -147.702
    endloop
  endfacet
  facet normal 1 0 -0
    outer loop
      vertex 37.2 47.55 -150
      vertex 37.2 48.8128 -147.702
      vertex 37.2 47.1872 -147.702
    endloop
  endfacet
  facet normal 1 0 0
    outer loop
      vertex 37.2 55.2826 -142.651
      vertex 37.2 50.2825 -140.742
      vertex 37.2 55.0769 -143.147
    endloop
  endfacet
  facet normal 1 0 0
    outer loop
      vertex 37.2 49.4107 -141.942
      vertex 37.2 51.875 -146.712
      vertex 37.2 52.3284 -146.423
    endloop
  endfacet
  facet normal 1 0 0
    outer loop
      vertex 37.2 51.3981 -146.96
      vertex 37.2 48.7416 -142.283
      vertex 37.2 49.8706 -147.516
    endloop
  endfacet
  facet normal 1 0 -0
    outer loop
      vertex 37.2 50.9973 -149.551
      vertex 37.2 51.843 -149.243
      vertex 37.2 49.8706 -147.516
    endloop
  endfacet
  facet normal 1 0 0
    outer loop
      vertex 37.2 51.843 -149.243
      vertex 37.2 51.3981 -146.96
      vertex 37.2 49.8706 -147.516
    endloop
  endfacet
  facet normal 1 -0 0
    outer loop
      vertex 37.2 54.2641 -144.555
      vertex 37.2 56.4352 -145.39
      vertex 37.2 55.0769 -143.147
    endloop
  endfacet
  facet normal 1 0 0
    outer loop
      vertex 37.2 49.9416 -141.411
      vertex 37.2 53.9368 -144.982
      vertex 37.2 54.2641 -144.555
    endloop
  endfacet
  facet normal 1 0 0
    outer loop
      vertex 37.2 50.2825 -140.742
      vertex 37.2 55.7265 -140.537
      vertex 37.2 50.4 -140
    endloop
  endfacet
  facet normal 1 0 -0
    outer loop
      vertex 37.2 54.0831 -147.95
      vertex 37.2 54.7726 -147.371
      vertex 37.2 52.3284 -146.423
    endloop
  endfacet
  facet normal 1 0 0
    outer loop
      vertex 37.2 54.7726 -147.371
      vertex 37.2 53.5736 -145.378
      vertex 37.2 52.3284 -146.423
    endloop
  endfacet
  facet normal 1 -0 0
    outer loop
      vertex 37.2 55.4443 -142.138
      vertex 37.2 57.7699 -142.18
      vertex 37.2 57.9262 -141.293
    endloop
  endfacet
  facet normal 1 -0 0
    outer loop
      vertex 37.2 50.4 -140
      vertex 37.2 55.7265 -140.537
      vertex 37.2 55.75 -140
    endloop
  endfacet
  facet normal 1 0 -0
    outer loop
      vertex 37.2 56.4352 -145.39
      vertex 37.2 56.8852 -144.61
      vertex 37.2 55.0769 -143.147
    endloop
  endfacet
  facet normal 1 0 0
    outer loop
      vertex 37.2 55.7265 -139.463
      vertex 37.2 50.4 -140
      vertex 37.2 55.75 -140
    endloop
  endfacet
  facet normal 1 0 0
    outer loop
      vertex 37.2 50.2825 -139.258
      vertex 37.2 55.4443 -137.862
      vertex 37.2 55.2826 -137.349
    endloop
  endfacet
  facet normal 1 0 0
    outer loop
      vertex 37.2 55.7265 -140.537
      vertex 37.2 55.4443 -142.138
      vertex 37.2 57.9262 -141.293
    endloop
  endfacet
  facet normal 1 0 0
    outer loop
      vertex 37.2 49.9416 -138.589
      vertex 37.2 54.2641 -135.445
      vertex 37.2 53.9368 -135.018
    endloop
  endfacet
  facet normal 1 0 0
    outer loop
      vertex 37.2 55.0769 -136.853
      vertex 37.2 50.2825 -139.258
      vertex 37.2 55.2826 -137.349
    endloop
  endfacet
  facet normal 1 0 0
    outer loop
      vertex 37.2 55.7265 -139.463
      vertex 37.2 55.4443 -137.862
      vertex 37.2 50.2825 -139.258
    endloop
  endfacet
  facet normal 1 0 0
    outer loop
      vertex 37.2 55.4443 -137.862
      vertex 37.2 55.7265 -139.463
      vertex 37.2 57.9262 -138.707
    endloop
  endfacet
  facet normal 1 -0 0
    outer loop
      vertex 37.2 55.4443 -137.862
      vertex 37.2 57.9262 -138.707
      vertex 37.2 57.7699 -137.82
    endloop
  endfacet
  facet normal 1 -0 0
    outer loop
      vertex 37.2 49.9416 -141.411
      vertex 37.2 55.0769 -143.147
      vertex 37.2 50.2825 -140.742
    endloop
  endfacet
  facet normal 1 0 0
    outer loop
      vertex 37.2 53.5736 -134.622
      vertex 37.2 49.9416 -138.589
      vertex 37.2 53.9368 -135.018
    endloop
  endfacet
  facet normal 1 0 0
    outer loop
      vertex 37.2 52.3284 -133.577
      vertex 37.2 51.875 -133.288
      vertex 37.2 49.4107 -138.058
    endloop
  endfacet
  facet normal 1 -0 0
    outer loop
      vertex 37.2 54.2641 -135.445
      vertex 37.2 55.0769 -136.853
      vertex 37.2 56.4352 -134.61
    endloop
  endfacet
  facet normal 1 0 0
    outer loop
      vertex 37.2 55.0769 -136.853
      vertex 37.2 56.8852 -135.39
      vertex 37.2 56.4352 -134.61
    endloop
  endfacet
  facet normal 1 0 0
    outer loop
      vertex 37.2 51.3981 -133.04
      vertex 37.2 49.4107 -138.058
      vertex 37.2 51.875 -133.288
    endloop
  endfacet
  facet normal 1 0 0
    outer loop
      vertex 37.2 51.3981 -133.04
      vertex 37.2 49.8706 -132.484
      vertex 37.2 48.7416 -137.717
    endloop
  endfacet
  facet normal 1 0 0
    outer loop
      vertex 37.2 42.0632 -135.018
      vertex 37.2 41.7359 -135.445
      vertex 37.2 46.0584 -138.589
    endloop
  endfacet
  facet normal 1 -0 0
    outer loop
      vertex 37.2 52.3284 -133.577
      vertex 37.2 53.5736 -134.622
      vertex 37.2 54.7726 -132.629
    endloop
  endfacet
  facet normal 1 0 0
    outer loop
      vertex 37.2 52.3284 -133.577
      vertex 37.2 54.7726 -132.629
      vertex 37.2 54.0831 -132.05
    endloop
  endfacet
  facet normal 1 0 0
    outer loop
      vertex 37.2 48 -137.6
      vertex 37.2 47.1872 -132.298
      vertex 37.2 46.6542 -132.368
    endloop
  endfacet
  facet normal 1 0 0
    outer loop
      vertex 37.2 48.8128 -132.298
      vertex 37.2 47.1872 -132.298
      vertex 37.2 48 -137.6
    endloop
  endfacet
  facet normal 1 -0 0
    outer loop
      vertex 37.2 49.8706 -132.484
      vertex 37.2 51.3981 -133.04
      vertex 37.2 51.843 -130.757
    endloop
  endfacet
  facet normal 1 0 0
    outer loop
      vertex 37.2 49.8706 -132.484
      vertex 37.2 51.843 -130.757
      vertex 37.2 50.9973 -130.449
    endloop
  endfacet
  facet normal 1 0 0
    outer loop
      vertex 37.2 47.2584 -137.717
      vertex 37.2 44.6019 -133.04
      vertex 37.2 46.5893 -138.058
    endloop
  endfacet
  facet normal 1 0 -0
    outer loop
      vertex 37.2 46.0584 -138.589
      vertex 37.2 46.5893 -138.058
      vertex 37.2 42.4264 -134.622
    endloop
  endfacet
  facet normal 1 0 0
    outer loop
      vertex 37.2 46.5893 -138.058
      vertex 37.2 43.6716 -133.577
      vertex 37.2 42.4264 -134.622
    endloop
  endfacet
  facet normal 1 0 0
    outer loop
      vertex 37.2 47.1872 -132.298
      vertex 37.2 48.45 -130
      vertex 37.2 47.55 -130
    endloop
  endfacet
  facet normal 1 -0 0
    outer loop
      vertex 37.2 43.6716 -133.577
      vertex 37.2 46.5893 -138.058
      vertex 37.2 44.125 -133.288
    endloop
  endfacet
  facet normal 1 0 0
    outer loop
      vertex 37.2 48.45 -130
      vertex 37.2 47.1872 -132.298
      vertex 37.2 48.8128 -132.298
    endloop
  endfacet
  facet normal 1 -0 0
    outer loop
      vertex 37.2 44.6019 -133.04
      vertex 37.2 47.2584 -137.717
      vertex 37.2 46.1294 -132.484
    endloop
  endfacet
  facet normal 1 0 0
    outer loop
      vertex 37.2 46.1294 -132.484
      vertex 37.2 45.0027 -130.449
      vertex 37.2 44.157 -130.757
    endloop
  endfacet
  facet normal 1 0 0
    outer loop
      vertex 37.2 46.0584 -138.589
      vertex 37.2 42.4264 -134.622
      vertex 37.2 42.0632 -135.018
    endloop
  endfacet
  facet normal 1 0 0
    outer loop
      vertex 37.2 46.0584 -141.411
      vertex 37.2 41.7359 -144.555
      vertex 37.2 42.0632 -144.982
    endloop
  endfacet
  facet normal 1 0 0
    outer loop
      vertex 37.2 46.1294 -132.484
      vertex 37.2 44.157 -130.757
      vertex 37.2 44.6019 -133.04
    endloop
  endfacet
  facet normal 1 -0 0
    outer loop
      vertex 37.2 40.7174 -137.349
      vertex 37.2 45.7175 -139.258
      vertex 37.2 40.9231 -136.853
    endloop
  endfacet
  facet normal 1 0 -0
    outer loop
      vertex 37.2 42.4264 -134.622
      vertex 37.2 43.6716 -133.577
      vertex 37.2 41.2274 -132.629
    endloop
  endfacet
  facet normal 1 0 0
    outer loop
      vertex 37.2 43.6716 -133.577
      vertex 37.2 41.9169 -132.05
      vertex 37.2 41.2274 -132.629
    endloop
  endfacet
  facet normal 1 0 0
    outer loop
      vertex 37.2 46.0584 -138.589
      vertex 37.2 40.9231 -136.853
      vertex 37.2 45.7175 -139.258
    endloop
  endfacet
  facet normal 1 -0 0
    outer loop
      vertex 37.2 40.9231 -136.853
      vertex 37.2 46.0584 -138.589
      vertex 37.2 41.7359 -135.445
    endloop
  endfacet
  facet normal 1 -0 0
    outer loop
      vertex 37.2 40.5557 -137.862
      vertex 37.2 45.7175 -139.258
      vertex 37.2 40.7174 -137.349
    endloop
  endfacet
  facet normal 1 0 -0
    outer loop
      vertex 37.2 40.9231 -143.147
      vertex 37.2 45.7175 -140.742
      vertex 37.2 40.7174 -142.651
    endloop
  endfacet
  facet normal 1 0 0
    outer loop
      vertex 37.2 40.9231 -136.853
      vertex 37.2 39.5648 -134.61
      vertex 37.2 39.1148 -135.39
    endloop
  endfacet
  facet normal 1 0 0
    outer loop
      vertex 37.2 39.5648 -134.61
      vertex 37.2 40.9231 -136.853
      vertex 37.2 41.7359 -135.445
    endloop
  endfacet
  facet normal 1 0 0
    outer loop
      vertex 37.2 45.7175 -139.258
      vertex 37.2 40.5557 -137.862
      vertex 37.2 40.2735 -139.463
    endloop
  endfacet
  facet normal 1 0 0
    outer loop
      vertex 37.2 45.7175 -139.258
      vertex 37.2 40.2735 -139.463
      vertex 37.2 45.6 -140
    endloop
  endfacet
  facet normal 1 0 0
    outer loop
      vertex 37.2 40.2735 -139.463
      vertex 37.2 40.25 -140
      vertex 37.2 45.6 -140
    endloop
  endfacet
  facet normal 1 0 0
    outer loop
      vertex 37.2 40.5557 -137.862
      vertex 37.2 38.2301 -137.82
      vertex 37.2 38.0738 -138.707
    endloop
  endfacet
  facet normal 1 -0 0
    outer loop
      vertex 37.2 38.0738 -138.707
      vertex 37.2 40.2735 -139.463
      vertex 37.2 40.5557 -137.862
    endloop
  endfacet
  facet normal 1 -0 0
    outer loop
      vertex 37.2 40.25 -140
      vertex 37.2 40.2735 -140.537
      vertex 37.2 45.6 -140
    endloop
  endfacet
  facet normal 1 0 0
    outer loop
      vertex 37.2 40.2735 -140.537
      vertex 37.2 40.5557 -142.138
      vertex 37.2 45.7175 -140.742
    endloop
  endfacet
  facet normal 1 -0 0
    outer loop
      vertex 37.2 38.0738 -141.293
      vertex 37.2 40.5557 -142.138
      vertex 37.2 40.2735 -140.537
    endloop
  endfacet
  facet normal 1 0 0
    outer loop
      vertex 37.2 47.2584 -142.283
      vertex 37.2 44.6019 -146.96
      vertex 37.2 46.1294 -147.516
    endloop
  endfacet
  facet normal 1 0 0
    outer loop
      vertex 37.2 49.8706 -132.484
      vertex 37.2 49.3458 -132.368
      vertex 37.2 48.7416 -137.717
    endloop
  endfacet
  facet normal 1 0 0
    outer loop
      vertex 37.2 46.5893 -138.058
      vertex 37.2 44.6019 -133.04
      vertex 37.2 44.125 -133.288
    endloop
  endfacet
  facet normal 1 0 0
    outer loop
      vertex 37.2 47.1872 -147.702
      vertex 37.2 48.8128 -147.702
      vertex 37.2 48 -142.4
    endloop
  endfacet
  facet normal 1 0 -0
    outer loop
      vertex 37.2 47.2584 -137.717
      vertex 37.2 48 -137.6
      vertex 37.2 46.6542 -132.368
    endloop
  endfacet
  facet normal 1 -0 0
    outer loop
      vertex 37.2 46.1294 -132.484
      vertex 37.2 47.2584 -137.717
      vertex 37.2 46.6542 -132.368
    endloop
  endfacet
  facet normal 1 -0 0
    outer loop
      vertex 37.2 48 -137.6
      vertex 37.2 48.7416 -137.717
      vertex 37.2 49.3458 -132.368
    endloop
  endfacet
  facet normal 1 0 0
    outer loop
      vertex 37.2 48.8128 -132.298
      vertex 37.2 48 -137.6
      vertex 37.2 49.3458 -132.368
    endloop
  endfacet
  facet normal 1 0 0
    outer loop
      vertex 37.2 51.3981 -133.04
      vertex 37.2 48.7416 -137.717
      vertex 37.2 49.4107 -138.058
    endloop
  endfacet
  facet normal 1 0 0
    outer loop
      vertex 37.2 49.4107 -138.058
      vertex 37.2 53.5736 -134.622
      vertex 37.2 52.3284 -133.577
    endloop
  endfacet
  facet normal 1 -0 0
    outer loop
      vertex 37.2 49.9416 -138.589
      vertex 37.2 50.2825 -139.258
      vertex 37.2 55.0769 -136.853
    endloop
  endfacet
  facet normal 1 0 0
    outer loop
      vertex 37.2 54.2641 -135.445
      vertex 37.2 49.9416 -138.589
      vertex 37.2 55.0769 -136.853
    endloop
  endfacet
  facet normal 1 0 0
    outer loop
      vertex 37.2 55.7265 -139.463
      vertex 37.2 50.2825 -139.258
      vertex 37.2 50.4 -140
    endloop
  endfacet
  facet normal 1 0 -0
    outer loop
      vertex 37.2 55.4443 -142.138
      vertex 37.2 55.7265 -140.537
      vertex 37.2 50.2825 -140.742
    endloop
  endfacet
  facet normal 1 0 -0
    outer loop
      vertex 37.2 54.2641 -144.555
      vertex 37.2 55.0769 -143.147
      vertex 37.2 49.9416 -141.411
    endloop
  endfacet
  facet normal 1 0 0
    outer loop
      vertex 37.2 53.5736 -145.378
      vertex 37.2 49.9416 -141.411
      vertex 37.2 49.4107 -141.942
    endloop
  endfacet
  facet normal 1 0 0
    outer loop
      vertex 37.2 51.3981 -146.96
      vertex 37.2 49.4107 -141.942
      vertex 37.2 48.7416 -142.283
    endloop
  endfacet
  facet normal 1 0 0
    outer loop
      vertex 37.2 48.7416 -142.283
      vertex 37.2 49.3458 -147.632
      vertex 37.2 49.8706 -147.516
    endloop
  endfacet
  facet normal 1 0 0
    outer loop
      vertex 37.2 46.6542 -147.632
      vertex 37.2 48 -142.4
      vertex 37.2 47.2584 -142.283
    endloop
  endfacet
  facet normal 1 0 0
    outer loop
      vertex 37.2 44.6019 -146.96
      vertex 37.2 47.2584 -142.283
      vertex 37.2 46.5893 -141.942
    endloop
  endfacet
  facet normal 1 0 -0
    outer loop
      vertex 37.2 44.125 -146.712
      vertex 37.2 46.5893 -141.942
      vertex 37.2 43.6716 -146.423
    endloop
  endfacet
  facet normal 1 0 -0
    outer loop
      vertex 37.2 42.4264 -145.378
      vertex 37.2 46.0584 -141.411
      vertex 37.2 42.0632 -144.982
    endloop
  endfacet
  facet normal 1 0 0
    outer loop
      vertex 37.2 46.0584 -141.411
      vertex 37.2 40.9231 -143.147
      vertex 37.2 41.7359 -144.555
    endloop
  endfacet
  facet normal 1 0 0
    outer loop
      vertex 37.2 45.7175 -140.742
      vertex 37.2 40.5557 -142.138
      vertex 37.2 40.7174 -142.651
    endloop
  endfacet
  facet normal 1 0 0
    outer loop
      vertex 37.2 45.6 -140
      vertex 37.2 40.2735 -140.537
      vertex 37.2 45.7175 -140.742
    endloop
  endfacet
  facet normal 0 0.0180569 -0.999837
    outer loop
      vertex 34 40.5557 -142.138
      vertex 37.2 38.2301 -142.18
      vertex 34 38.2301 -142.18
    endloop
  endfacet
  facet normal 0 0.0180569 -0.999837
    outer loop
      vertex 34 40.5557 -142.138
      vertex 37.2 40.5557 -142.138
      vertex 37.2 38.2301 -142.18
    endloop
  endfacet
  facet normal 0 -0.953743 -0.300624
    outer loop
      vertex 34 40.7174 -142.651
      vertex 37.2 40.5557 -142.138
      vertex 34 40.5557 -142.138
    endloop
  endfacet
  facet normal 0 -0.953743 -0.300624
    outer loop
      vertex 34 40.7174 -142.651
      vertex 37.2 40.7174 -142.651
      vertex 37.2 40.5557 -142.138
    endloop
  endfacet
  facet normal 0 -0.923715 -0.383081
    outer loop
      vertex 34 40.9231 -143.147
      vertex 37.2 40.7174 -142.651
      vertex 34 40.7174 -142.651
    endloop
  endfacet
  facet normal 0 -0.923715 -0.383081
    outer loop
      vertex 34 40.9231 -143.147
      vertex 37.2 40.9231 -143.147
      vertex 37.2 40.7174 -142.651
    endloop
  endfacet
  facet normal 0 -0.628974 0.777426
    outer loop
      vertex 34 39.1148 -144.61
      vertex 37.2 40.9231 -143.147
      vertex 34 40.9231 -143.147
    endloop
  endfacet
  facet normal 0 -0.628974 0.777426
    outer loop
      vertex 34 39.1148 -144.61
      vertex 37.2 39.1148 -144.61
      vertex 37.2 40.9231 -143.147
    endloop
  endfacet
  facet normal 0 -0.866186 -0.499722
    outer loop
      vertex 34 39.5648 -145.39
      vertex 37.2 39.1148 -144.61
      vertex 34 39.1148 -144.61
    endloop
  endfacet
  facet normal 0 -0.866186 -0.499722
    outer loop
      vertex 34 39.5648 -145.39
      vertex 37.2 39.5648 -145.39
      vertex 37.2 39.1148 -144.61
    endloop
  endfacet
  facet normal 0 0.358965 -0.933351
    outer loop
      vertex 34 41.7359 -144.555
      vertex 37.2 39.5648 -145.39
      vertex 34 39.5648 -145.39
    endloop
  endfacet
  facet normal 0 0.358965 -0.933351
    outer loop
      vertex 34 41.7359 -144.555
      vertex 37.2 41.7359 -144.555
      vertex 37.2 39.5648 -145.39
    endloop
  endfacet
  facet normal 0 -0.793666 -0.608353
    outer loop
      vertex 34 42.0632 -144.982
      vertex 37.2 41.7359 -144.555
      vertex 34 41.7359 -144.555
    endloop
  endfacet
  facet normal 0 -0.793666 -0.608353
    outer loop
      vertex 34 42.0632 -144.982
      vertex 37.2 42.0632 -144.982
      vertex 37.2 41.7359 -144.555
    endloop
  endfacet
  facet normal 0 -0.736969 -0.675927
    outer loop
      vertex 34 42.4264 -145.378
      vertex 37.2 42.0632 -144.982
      vertex 34 42.0632 -144.982
    endloop
  endfacet
  facet normal 0 -0.736969 -0.675927
    outer loop
      vertex 34 42.4264 -145.378
      vertex 37.2 42.4264 -145.378
      vertex 37.2 42.0632 -144.982
    endloop
  endfacet
  facet normal 0 -0.856885 0.515507
    outer loop
      vertex 34 41.2274 -147.371
      vertex 37.2 42.4264 -145.378
      vertex 34 42.4264 -145.378
    endloop
  endfacet
  facet normal 0 -0.856885 0.515507
    outer loop
      vertex 34 41.2274 -147.371
      vertex 37.2 41.2274 -147.371
      vertex 37.2 42.4264 -145.378
    endloop
  endfacet
  facet normal 0 -0.643075 -0.765803
    outer loop
      vertex 34 41.9169 -147.95
      vertex 37.2 41.2274 -147.371
      vertex 34 41.2274 -147.371
    endloop
  endfacet
  facet normal 0 -0.643075 -0.765803
    outer loop
      vertex 34 41.9169 -147.95
      vertex 37.2 41.9169 -147.95
      vertex 37.2 41.2274 -147.371
    endloop
  endfacet
  facet normal 0 0.656466 -0.754356
    outer loop
      vertex 34 43.6716 -146.423
      vertex 37.2 41.9169 -147.95
      vertex 34 41.9169 -147.95
    endloop
  endfacet
  facet normal 0 0.656466 -0.754356
    outer loop
      vertex 34 43.6716 -146.423
      vertex 37.2 43.6716 -146.423
      vertex 37.2 41.9169 -147.95
    endloop
  endfacet
  facet normal 0 -0.537501 -0.843263
    outer loop
      vertex 34 44.125 -146.712
      vertex 37.2 43.6716 -146.423
      vertex 34 43.6716 -146.423
    endloop
  endfacet
  facet normal 0 -0.537501 -0.843263
    outer loop
      vertex 34 44.125 -146.712
      vertex 37.2 44.125 -146.712
      vertex 37.2 43.6716 -146.423
    endloop
  endfacet
  facet normal 0 -0.46137 -0.887208
    outer loop
      vertex 34 44.6019 -146.96
      vertex 37.2 44.125 -146.712
      vertex 34 44.125 -146.712
    endloop
  endfacet
  facet normal 0 -0.46137 -0.887208
    outer loop
      vertex 34 44.6019 -146.96
      vertex 37.2 44.6019 -146.96
      vertex 37.2 44.125 -146.712
    endloop
  endfacet
  facet normal 0 -0.981536 0.191277
    outer loop
      vertex 34 44.157 -149.243
      vertex 37.2 44.6019 -146.96
      vertex 34 44.6019 -146.96
    endloop
  endfacet
  facet normal 0 -0.981536 0.191277
    outer loop
      vertex 34 44.157 -149.243
      vertex 37.2 44.157 -149.243
      vertex 37.2 44.6019 -146.96
    endloop
  endfacet
  facet normal 0 -0.342207 -0.939625
    outer loop
      vertex 34 45.0027 -149.551
      vertex 37.2 44.157 -149.243
      vertex 34 44.157 -149.243
    endloop
  endfacet
  facet normal 0 -0.342207 -0.939625
    outer loop
      vertex 34 45.0027 -149.551
      vertex 37.2 45.0027 -149.551
      vertex 37.2 44.157 -149.243
    endloop
  endfacet
  facet normal 0 0.87486 -0.484376
    outer loop
      vertex 34 46.1294 -147.516
      vertex 37.2 45.0027 -149.551
      vertex 34 45.0027 -149.551
    endloop
  endfacet
  facet normal 0 0.87486 -0.484376
    outer loop
      vertex 34 46.1294 -147.516
      vertex 37.2 46.1294 -147.516
      vertex 37.2 45.0027 -149.551
    endloop
  endfacet
  facet normal 0 -0.215827 -0.976432
    outer loop
      vertex 34 46.6542 -147.632
      vertex 37.2 46.1294 -147.516
      vertex 34 46.1294 -147.516
    endloop
  endfacet
  facet normal 0 -0.215827 -0.976432
    outer loop
      vertex 34 46.6542 -147.632
      vertex 37.2 46.6542 -147.632
      vertex 37.2 46.1294 -147.516
    endloop
  endfacet
  facet normal 0 -0.130214 -0.991486
    outer loop
      vertex 34 47.1872 -147.702
      vertex 37.2 46.6542 -147.632
      vertex 34 46.6542 -147.632
    endloop
  endfacet
  facet normal 0 -0.130214 -0.991486
    outer loop
      vertex 34 47.1872 -147.702
      vertex 37.2 47.1872 -147.702
      vertex 37.2 46.6542 -147.632
    endloop
  endfacet
  facet normal 0 -0.987766 -0.155945
    outer loop
      vertex 34 47.55 -150
      vertex 37.2 47.1872 -147.702
      vertex 34 47.1872 -147.702
    endloop
  endfacet
  facet normal 0 -0.987766 -0.155945
    outer loop
      vertex 34 47.55 -150
      vertex 37.2 47.55 -150
      vertex 37.2 47.1872 -147.702
    endloop
  endfacet
  facet normal 0 0 -1
    outer loop
      vertex 34 48.45 -150
      vertex 37.2 47.55 -150
      vertex 34 47.55 -150
    endloop
  endfacet
  facet normal 0 0 -1
    outer loop
      vertex 34 48.45 -150
      vertex 37.2 48.45 -150
      vertex 37.2 47.55 -150
    endloop
  endfacet
  facet normal 0 0.987766 -0.155945
    outer loop
      vertex 34 48.8128 -147.702
      vertex 37.2 48.45 -150
      vertex 34 48.45 -150
    endloop
  endfacet
  facet normal 0 0.987766 -0.155945
    outer loop
      vertex 34 48.8128 -147.702
      vertex 37.2 48.8128 -147.702
      vertex 37.2 48.45 -150
    endloop
  endfacet
  facet normal 0 0.130214 -0.991486
    outer loop
      vertex 34 49.3458 -147.632
      vertex 37.2 48.8128 -147.702
      vertex 34 48.8128 -147.702
    endloop
  endfacet
  facet normal 0 0.130214 -0.991486
    outer loop
      vertex 34 49.3458 -147.632
      vertex 37.2 49.3458 -147.632
      vertex 37.2 48.8128 -147.702
    endloop
  endfacet
  facet normal 0 0.215827 -0.976432
    outer loop
      vertex 34 49.8706 -147.516
      vertex 37.2 49.3458 -147.632
      vertex 34 49.3458 -147.632
    endloop
  endfacet
  facet normal 0 0.215827 -0.976432
    outer loop
      vertex 34 49.8706 -147.516
      vertex 37.2 49.8706 -147.516
      vertex 37.2 49.3458 -147.632
    endloop
  endfacet
  facet normal 0 -0.87486 -0.484376
    outer loop
      vertex 34 50.9973 -149.551
      vertex 37.2 49.8706 -147.516
      vertex 34 49.8706 -147.516
    endloop
  endfacet
  facet normal 0 -0.87486 -0.484376
    outer loop
      vertex 34 50.9973 -149.551
      vertex 37.2 50.9973 -149.551
      vertex 37.2 49.8706 -147.516
    endloop
  endfacet
  facet normal 0 0.342207 -0.939625
    outer loop
      vertex 34 51.843 -149.243
      vertex 37.2 50.9973 -149.551
      vertex 34 50.9973 -149.551
    endloop
  endfacet
  facet normal 0 0.342207 -0.939625
    outer loop
      vertex 34 51.843 -149.243
      vertex 37.2 51.843 -149.243
      vertex 37.2 50.9973 -149.551
    endloop
  endfacet
  facet normal 0 0.981536 0.191277
    outer loop
      vertex 34 51.3981 -146.96
      vertex 37.2 51.843 -149.243
      vertex 34 51.843 -149.243
    endloop
  endfacet
  facet normal -0 0.981536 0.191277
    outer loop
      vertex 34 51.3981 -146.96
      vertex 37.2 51.3981 -146.96
      vertex 37.2 51.843 -149.243
    endloop
  endfacet
  facet normal 0 0.46137 -0.887208
    outer loop
      vertex 34 51.875 -146.712
      vertex 37.2 51.3981 -146.96
      vertex 34 51.3981 -146.96
    endloop
  endfacet
  facet normal 0 0.46137 -0.887208
    outer loop
      vertex 34 51.875 -146.712
      vertex 37.2 51.875 -146.712
      vertex 37.2 51.3981 -146.96
    endloop
  endfacet
  facet normal 0 0.537501 -0.843263
    outer loop
      vertex 34 52.3284 -146.423
      vertex 37.2 51.875 -146.712
      vertex 34 51.875 -146.712
    endloop
  endfacet
  facet normal 0 0.537501 -0.843263
    outer loop
      vertex 34 52.3284 -146.423
      vertex 37.2 52.3284 -146.423
      vertex 37.2 51.875 -146.712
    endloop
  endfacet
  facet normal 0 -0.656466 -0.754356
    outer loop
      vertex 34 54.0831 -147.95
      vertex 37.2 52.3284 -146.423
      vertex 34 52.3284 -146.423
    endloop
  endfacet
  facet normal 0 -0.656466 -0.754356
    outer loop
      vertex 34 54.0831 -147.95
      vertex 37.2 54.0831 -147.95
      vertex 37.2 52.3284 -146.423
    endloop
  endfacet
  facet normal 0 0.643075 -0.765803
    outer loop
      vertex 34 54.7726 -147.371
      vertex 37.2 54.0831 -147.95
      vertex 34 54.0831 -147.95
    endloop
  endfacet
  facet normal 0 0.643075 -0.765803
    outer loop
      vertex 34 54.7726 -147.371
      vertex 37.2 54.7726 -147.371
      vertex 37.2 54.0831 -147.95
    endloop
  endfacet
  facet normal 0 0.856885 0.515507
    outer loop
      vertex 34 53.5736 -145.378
      vertex 37.2 54.7726 -147.371
      vertex 34 54.7726 -147.371
    endloop
  endfacet
  facet normal -0 0.856885 0.515507
    outer loop
      vertex 34 53.5736 -145.378
      vertex 37.2 53.5736 -145.378
      vertex 37.2 54.7726 -147.371
    endloop
  endfacet
  facet normal 0 0.736969 -0.675927
    outer loop
      vertex 34 53.9368 -144.982
      vertex 37.2 53.5736 -145.378
      vertex 34 53.5736 -145.378
    endloop
  endfacet
  facet normal 0 0.736969 -0.675927
    outer loop
      vertex 34 53.9368 -144.982
      vertex 37.2 53.9368 -144.982
      vertex 37.2 53.5736 -145.378
    endloop
  endfacet
  facet normal 0 0.793666 -0.608353
    outer loop
      vertex 34 54.2641 -144.555
      vertex 37.2 53.9368 -144.982
      vertex 34 53.9368 -144.982
    endloop
  endfacet
  facet normal 0 0.793666 -0.608353
    outer loop
      vertex 34 54.2641 -144.555
      vertex 37.2 54.2641 -144.555
      vertex 37.2 53.9368 -144.982
    endloop
  endfacet
  facet normal 0 -0.358965 -0.933351
    outer loop
      vertex 34 56.4352 -145.39
      vertex 37.2 54.2641 -144.555
      vertex 34 54.2641 -144.555
    endloop
  endfacet
  facet normal 0 -0.358965 -0.933351
    outer loop
      vertex 34 56.4352 -145.39
      vertex 37.2 56.4352 -145.39
      vertex 37.2 54.2641 -144.555
    endloop
  endfacet
  facet normal 0 0.866186 -0.499722
    outer loop
      vertex 34 56.8852 -144.61
      vertex 37.2 56.4352 -145.39
      vertex 34 56.4352 -145.39
    endloop
  endfacet
  facet normal 0 0.866186 -0.499722
    outer loop
      vertex 34 56.8852 -144.61
      vertex 37.2 56.8852 -144.61
      vertex 37.2 56.4352 -145.39
    endloop
  endfacet
  facet normal 0 0.628974 0.777426
    outer loop
      vertex 34 55.0769 -143.147
      vertex 37.2 56.8852 -144.61
      vertex 34 56.8852 -144.61
    endloop
  endfacet
  facet normal -0 0.628974 0.777426
    outer loop
      vertex 34 55.0769 -143.147
      vertex 37.2 55.0769 -143.147
      vertex 37.2 56.8852 -144.61
    endloop
  endfacet
  facet normal 0 0.923715 -0.383081
    outer loop
      vertex 34 55.2826 -142.651
      vertex 37.2 55.0769 -143.147
      vertex 34 55.0769 -143.147
    endloop
  endfacet
  facet normal 0 0.923715 -0.383081
    outer loop
      vertex 34 55.2826 -142.651
      vertex 37.2 55.2826 -142.651
      vertex 37.2 55.0769 -143.147
    endloop
  endfacet
  facet normal 0 0.953743 -0.300624
    outer loop
      vertex 34 55.4443 -142.138
      vertex 37.2 55.2826 -142.651
      vertex 34 55.2826 -142.651
    endloop
  endfacet
  facet normal 0 0.953743 -0.300624
    outer loop
      vertex 34 55.4443 -142.138
      vertex 37.2 55.4443 -142.138
      vertex 37.2 55.2826 -142.651
    endloop
  endfacet
  facet normal 0 -0.0180569 -0.999837
    outer loop
      vertex 34 57.7699 -142.18
      vertex 37.2 55.4443 -142.138
      vertex 34 55.4443 -142.138
    endloop
  endfacet
  facet normal 0 -0.0180569 -0.999837
    outer loop
      vertex 34 57.7699 -142.18
      vertex 37.2 57.7699 -142.18
      vertex 37.2 55.4443 -142.138
    endloop
  endfacet
  facet normal 0 0.984827 -0.173538
    outer loop
      vertex 34 57.9262 -141.293
      vertex 37.2 57.7699 -142.18
      vertex 34 57.7699 -142.18
    endloop
  endfacet
  facet normal 0 0.984827 -0.173538
    outer loop
      vertex 34 57.9262 -141.293
      vertex 37.2 57.9262 -141.293
      vertex 37.2 57.7699 -142.18
    endloop
  endfacet
  facet normal 0 0.325023 0.945706
    outer loop
      vertex 34 55.7265 -140.537
      vertex 37.2 57.9262 -141.293
      vertex 34 57.9262 -141.293
    endloop
  endfacet
  facet normal -0 0.325023 0.945706
    outer loop
      vertex 34 55.7265 -140.537
      vertex 37.2 55.7265 -140.537
      vertex 37.2 57.9262 -141.293
    endloop
  endfacet
  facet normal 0 0.999044 -0.0437198
    outer loop
      vertex 34 55.75 -140
      vertex 37.2 55.7265 -140.537
      vertex 34 55.7265 -140.537
    endloop
  endfacet
  facet normal 0 0.999044 -0.0437198
    outer loop
      vertex 34 55.75 -140
      vertex 37.2 55.75 -140
      vertex 37.2 55.7265 -140.537
    endloop
  endfacet
  facet normal 0 0.999044 0.0437198
    outer loop
      vertex 34 55.7265 -139.463
      vertex 37.2 55.75 -140
      vertex 34 55.75 -140
    endloop
  endfacet
  facet normal -0 0.999044 0.0437198
    outer loop
      vertex 34 55.7265 -139.463
      vertex 37.2 55.7265 -139.463
      vertex 37.2 55.75 -140
    endloop
  endfacet
  facet normal 0 0.325023 -0.945706
    outer loop
      vertex 34 57.9262 -138.707
      vertex 37.2 55.7265 -139.463
      vertex 34 55.7265 -139.463
    endloop
  endfacet
  facet normal 0 0.325023 -0.945706
    outer loop
      vertex 34 57.9262 -138.707
      vertex 37.2 57.9262 -138.707
      vertex 37.2 55.7265 -139.463
    endloop
  endfacet
  facet normal 0 0.984827 0.173538
    outer loop
      vertex 34 57.7699 -137.82
      vertex 37.2 57.9262 -138.707
      vertex 34 57.9262 -138.707
    endloop
  endfacet
  facet normal -0 0.984827 0.173538
    outer loop
      vertex 34 57.7699 -137.82
      vertex 37.2 57.7699 -137.82
      vertex 37.2 57.9262 -138.707
    endloop
  endfacet
  facet normal 0 -0.0180569 0.999837
    outer loop
      vertex 34 55.4443 -137.862
      vertex 37.2 57.7699 -137.82
      vertex 34 57.7699 -137.82
    endloop
  endfacet
  facet normal 0 -0.0180569 0.999837
    outer loop
      vertex 34 55.4443 -137.862
      vertex 37.2 55.4443 -137.862
      vertex 37.2 57.7699 -137.82
    endloop
  endfacet
  facet normal 0 0.953743 0.300624
    outer loop
      vertex 34 55.2826 -137.349
      vertex 37.2 55.4443 -137.862
      vertex 34 55.4443 -137.862
    endloop
  endfacet
  facet normal -0 0.953743 0.300624
    outer loop
      vertex 34 55.2826 -137.349
      vertex 37.2 55.2826 -137.349
      vertex 37.2 55.4443 -137.862
    endloop
  endfacet
  facet normal 0 0.923715 0.383081
    outer loop
      vertex 34 55.0769 -136.853
      vertex 37.2 55.2826 -137.349
      vertex 34 55.2826 -137.349
    endloop
  endfacet
  facet normal -0 0.923715 0.383081
    outer loop
      vertex 34 55.0769 -136.853
      vertex 37.2 55.0769 -136.853
      vertex 37.2 55.2826 -137.349
    endloop
  endfacet
  facet normal 0 0.628974 -0.777426
    outer loop
      vertex 34 56.8852 -135.39
      vertex 37.2 55.0769 -136.853
      vertex 34 55.0769 -136.853
    endloop
  endfacet
  facet normal 0 0.628974 -0.777426
    outer loop
      vertex 34 56.8852 -135.39
      vertex 37.2 56.8852 -135.39
      vertex 37.2 55.0769 -136.853
    endloop
  endfacet
  facet normal 0 0.866186 0.499722
    outer loop
      vertex 34 56.4352 -134.61
      vertex 37.2 56.8852 -135.39
      vertex 34 56.8852 -135.39
    endloop
  endfacet
  facet normal -0 0.866186 0.499722
    outer loop
      vertex 34 56.4352 -134.61
      vertex 37.2 56.4352 -134.61
      vertex 37.2 56.8852 -135.39
    endloop
  endfacet
  facet normal 0 -0.358965 0.933351
    outer loop
      vertex 34 54.2641 -135.445
      vertex 37.2 56.4352 -134.61
      vertex 34 56.4352 -134.61
    endloop
  endfacet
  facet normal 0 -0.358965 0.933351
    outer loop
      vertex 34 54.2641 -135.445
      vertex 37.2 54.2641 -135.445
      vertex 37.2 56.4352 -134.61
    endloop
  endfacet
  facet normal 0 0.793666 0.608353
    outer loop
      vertex 34 53.9368 -135.018
      vertex 37.2 54.2641 -135.445
      vertex 34 54.2641 -135.445
    endloop
  endfacet
  facet normal -0 0.793666 0.608353
    outer loop
      vertex 34 53.9368 -135.018
      vertex 37.2 53.9368 -135.018
      vertex 37.2 54.2641 -135.445
    endloop
  endfacet
  facet normal 0 0.736969 0.675927
    outer loop
      vertex 34 53.5736 -134.622
      vertex 37.2 53.9368 -135.018
      vertex 34 53.9368 -135.018
    endloop
  endfacet
  facet normal -0 0.736969 0.675927
    outer loop
      vertex 34 53.5736 -134.622
      vertex 37.2 53.5736 -134.622
      vertex 37.2 53.9368 -135.018
    endloop
  endfacet
  facet normal 0 0.856885 -0.515507
    outer loop
      vertex 34 54.7726 -132.629
      vertex 37.2 53.5736 -134.622
      vertex 34 53.5736 -134.622
    endloop
  endfacet
  facet normal 0 0.856885 -0.515507
    outer loop
      vertex 34 54.7726 -132.629
      vertex 37.2 54.7726 -132.629
      vertex 37.2 53.5736 -134.622
    endloop
  endfacet
  facet normal 0 0.643075 0.765803
    outer loop
      vertex 34 54.0831 -132.05
      vertex 37.2 54.7726 -132.629
      vertex 34 54.7726 -132.629
    endloop
  endfacet
  facet normal -0 0.643075 0.765803
    outer loop
      vertex 34 54.0831 -132.05
      vertex 37.2 54.0831 -132.05
      vertex 37.2 54.7726 -132.629
    endloop
  endfacet
  facet normal 0 -0.656466 0.754356
    outer loop
      vertex 34 52.3284 -133.577
      vertex 37.2 54.0831 -132.05
      vertex 34 54.0831 -132.05
    endloop
  endfacet
  facet normal 0 -0.656466 0.754356
    outer loop
      vertex 34 52.3284 -133.577
      vertex 37.2 52.3284 -133.577
      vertex 37.2 54.0831 -132.05
    endloop
  endfacet
  facet normal 0 0.537501 0.843263
    outer loop
      vertex 34 51.875 -133.288
      vertex 37.2 52.3284 -133.577
      vertex 34 52.3284 -133.577
    endloop
  endfacet
  facet normal -0 0.537501 0.843263
    outer loop
      vertex 34 51.875 -133.288
      vertex 37.2 51.875 -133.288
      vertex 37.2 52.3284 -133.577
    endloop
  endfacet
  facet normal 0 0.46137 0.887208
    outer loop
      vertex 34 51.3981 -133.04
      vertex 37.2 51.875 -133.288
      vertex 34 51.875 -133.288
    endloop
  endfacet
  facet normal -0 0.46137 0.887208
    outer loop
      vertex 34 51.3981 -133.04
      vertex 37.2 51.3981 -133.04
      vertex 37.2 51.875 -133.288
    endloop
  endfacet
  facet normal 0 0.981536 -0.191277
    outer loop
      vertex 34 51.843 -130.757
      vertex 37.2 51.3981 -133.04
      vertex 34 51.3981 -133.04
    endloop
  endfacet
  facet normal 0 0.981536 -0.191277
    outer loop
      vertex 34 51.843 -130.757
      vertex 37.2 51.843 -130.757
      vertex 37.2 51.3981 -133.04
    endloop
  endfacet
  facet normal 0 0.342207 0.939625
    outer loop
      vertex 34 50.9973 -130.449
      vertex 37.2 51.843 -130.757
      vertex 34 51.843 -130.757
    endloop
  endfacet
  facet normal -0 0.342207 0.939625
    outer loop
      vertex 34 50.9973 -130.449
      vertex 37.2 50.9973 -130.449
      vertex 37.2 51.843 -130.757
    endloop
  endfacet
  facet normal 0 -0.87486 0.484376
    outer loop
      vertex 34 49.8706 -132.484
      vertex 37.2 50.9973 -130.449
      vertex 34 50.9973 -130.449
    endloop
  endfacet
  facet normal 0 -0.87486 0.484376
    outer loop
      vertex 34 49.8706 -132.484
      vertex 37.2 49.8706 -132.484
      vertex 37.2 50.9973 -130.449
    endloop
  endfacet
  facet normal 0 0.215827 0.976432
    outer loop
      vertex 34 49.3458 -132.368
      vertex 37.2 49.8706 -132.484
      vertex 34 49.8706 -132.484
    endloop
  endfacet
  facet normal -0 0.215827 0.976432
    outer loop
      vertex 34 49.3458 -132.368
      vertex 37.2 49.3458 -132.368
      vertex 37.2 49.8706 -132.484
    endloop
  endfacet
  facet normal 0 0.130214 0.991486
    outer loop
      vertex 34 48.8128 -132.298
      vertex 37.2 49.3458 -132.368
      vertex 34 49.3458 -132.368
    endloop
  endfacet
  facet normal -0 0.130214 0.991486
    outer loop
      vertex 34 48.8128 -132.298
      vertex 37.2 48.8128 -132.298
      vertex 37.2 49.3458 -132.368
    endloop
  endfacet
  facet normal 0 0.987766 0.155945
    outer loop
      vertex 34 48.45 -130
      vertex 37.2 48.8128 -132.298
      vertex 34 48.8128 -132.298
    endloop
  endfacet
  facet normal -0 0.987766 0.155945
    outer loop
      vertex 34 48.45 -130
      vertex 37.2 48.45 -130
      vertex 37.2 48.8128 -132.298
    endloop
  endfacet
  facet normal 0 0 1
    outer loop
      vertex 34 47.55 -130
      vertex 37.2 48.45 -130
      vertex 34 48.45 -130
    endloop
  endfacet
  facet normal 0 0 1
    outer loop
      vertex 34 47.55 -130
      vertex 37.2 47.55 -130
      vertex 37.2 48.45 -130
    endloop
  endfacet
  facet normal 0 -0.987766 0.155945
    outer loop
      vertex 34 47.1872 -132.298
      vertex 37.2 47.55 -130
      vertex 34 47.55 -130
    endloop
  endfacet
  facet normal 0 -0.987766 0.155945
    outer loop
      vertex 34 47.1872 -132.298
      vertex 37.2 47.1872 -132.298
      vertex 37.2 47.55 -130
    endloop
  endfacet
  facet normal 0 -0.130214 0.991486
    outer loop
      vertex 34 46.6542 -132.368
      vertex 37.2 47.1872 -132.298
      vertex 34 47.1872 -132.298
    endloop
  endfacet
  facet normal 0 -0.130214 0.991486
    outer loop
      vertex 34 46.6542 -132.368
      vertex 37.2 46.6542 -132.368
      vertex 37.2 47.1872 -132.298
    endloop
  endfacet
  facet normal 0 -0.215827 0.976432
    outer loop
      vertex 34 46.1294 -132.484
      vertex 37.2 46.6542 -132.368
      vertex 34 46.6542 -132.368
    endloop
  endfacet
  facet normal 0 -0.215827 0.976432
    outer loop
      vertex 34 46.1294 -132.484
      vertex 37.2 46.1294 -132.484
      vertex 37.2 46.6542 -132.368
    endloop
  endfacet
  facet normal 0 0.87486 0.484376
    outer loop
      vertex 34 45.0027 -130.449
      vertex 37.2 46.1294 -132.484
      vertex 34 46.1294 -132.484
    endloop
  endfacet
  facet normal -0 0.87486 0.484376
    outer loop
      vertex 34 45.0027 -130.449
      vertex 37.2 45.0027 -130.449
      vertex 37.2 46.1294 -132.484
    endloop
  endfacet
  facet normal 0 -0.342207 0.939625
    outer loop
      vertex 34 44.157 -130.757
      vertex 37.2 45.0027 -130.449
      vertex 34 45.0027 -130.449
    endloop
  endfacet
  facet normal 0 -0.342207 0.939625
    outer loop
      vertex 34 44.157 -130.757
      vertex 37.2 44.157 -130.757
      vertex 37.2 45.0027 -130.449
    endloop
  endfacet
  facet normal 0 -0.981536 -0.191277
    outer loop
      vertex 34 44.6019 -133.04
      vertex 37.2 44.157 -130.757
      vertex 34 44.157 -130.757
    endloop
  endfacet
  facet normal 0 -0.981536 -0.191277
    outer loop
      vertex 34 44.6019 -133.04
      vertex 37.2 44.6019 -133.04
      vertex 37.2 44.157 -130.757
    endloop
  endfacet
  facet normal 0 -0.46137 0.887208
    outer loop
      vertex 34 44.125 -133.288
      vertex 37.2 44.6019 -133.04
      vertex 34 44.6019 -133.04
    endloop
  endfacet
  facet normal 0 -0.46137 0.887208
    outer loop
      vertex 34 44.125 -133.288
      vertex 37.2 44.125 -133.288
      vertex 37.2 44.6019 -133.04
    endloop
  endfacet
  facet normal 0 -0.537501 0.843263
    outer loop
      vertex 34 43.6716 -133.577
      vertex 37.2 44.125 -133.288
      vertex 34 44.125 -133.288
    endloop
  endfacet
  facet normal 0 -0.537501 0.843263
    outer loop
      vertex 34 43.6716 -133.577
      vertex 37.2 43.6716 -133.577
      vertex 37.2 44.125 -133.288
    endloop
  endfacet
  facet normal 0 0.656466 0.754356
    outer loop
      vertex 34 41.9169 -132.05
      vertex 37.2 43.6716 -133.577
      vertex 34 43.6716 -133.577
    endloop
  endfacet
  facet normal -0 0.656466 0.754356
    outer loop
      vertex 34 41.9169 -132.05
      vertex 37.2 41.9169 -132.05
      vertex 37.2 43.6716 -133.577
    endloop
  endfacet
  facet normal 0 -0.643075 0.765803
    outer loop
      vertex 34 41.2274 -132.629
      vertex 37.2 41.9169 -132.05
      vertex 34 41.9169 -132.05
    endloop
  endfacet
  facet normal 0 -0.643075 0.765803
    outer loop
      vertex 34 41.2274 -132.629
      vertex 37.2 41.2274 -132.629
      vertex 37.2 41.9169 -132.05
    endloop
  endfacet
  facet normal 0 -0.856885 -0.515507
    outer loop
      vertex 34 42.4264 -134.622
      vertex 37.2 41.2274 -132.629
      vertex 34 41.2274 -132.629
    endloop
  endfacet
  facet normal 0 -0.856885 -0.515507
    outer loop
      vertex 34 42.4264 -134.622
      vertex 37.2 42.4264 -134.622
      vertex 37.2 41.2274 -132.629
    endloop
  endfacet
  facet normal 0 -0.736969 0.675927
    outer loop
      vertex 34 42.0632 -135.018
      vertex 37.2 42.4264 -134.622
      vertex 34 42.4264 -134.622
    endloop
  endfacet
  facet normal 0 -0.736969 0.675927
    outer loop
      vertex 34 42.0632 -135.018
      vertex 37.2 42.0632 -135.018
      vertex 37.2 42.4264 -134.622
    endloop
  endfacet
  facet normal 0 -0.793666 0.608353
    outer loop
      vertex 34 41.7359 -135.445
      vertex 37.2 42.0632 -135.018
      vertex 34 42.0632 -135.018
    endloop
  endfacet
  facet normal 0 -0.793666 0.608353
    outer loop
      vertex 34 41.7359 -135.445
      vertex 37.2 41.7359 -135.445
      vertex 37.2 42.0632 -135.018
    endloop
  endfacet
  facet normal 0 0.358965 0.933351
    outer loop
      vertex 34 39.5648 -134.61
      vertex 37.2 41.7359 -135.445
      vertex 34 41.7359 -135.445
    endloop
  endfacet
  facet normal -0 0.358965 0.933351
    outer loop
      vertex 34 39.5648 -134.61
      vertex 37.2 39.5648 -134.61
      vertex 37.2 41.7359 -135.445
    endloop
  endfacet
  facet normal 0 -0.866186 0.499722
    outer loop
      vertex 34 39.1148 -135.39
      vertex 37.2 39.5648 -134.61
      vertex 34 39.5648 -134.61
    endloop
  endfacet
  facet normal 0 -0.866186 0.499722
    outer loop
      vertex 34 39.1148 -135.39
      vertex 37.2 39.1148 -135.39
      vertex 37.2 39.5648 -134.61
    endloop
  endfacet
  facet normal 0 -0.628974 -0.777426
    outer loop
      vertex 34 40.9231 -136.853
      vertex 37.2 39.1148 -135.39
      vertex 34 39.1148 -135.39
    endloop
  endfacet
  facet normal 0 -0.628974 -0.777426
    outer loop
      vertex 34 40.9231 -136.853
      vertex 37.2 40.9231 -136.853
      vertex 37.2 39.1148 -135.39
    endloop
  endfacet
  facet normal 0 -0.923715 0.383081
    outer loop
      vertex 34 40.7174 -137.349
      vertex 37.2 40.9231 -136.853
      vertex 34 40.9231 -136.853
    endloop
  endfacet
  facet normal 0 -0.923715 0.383081
    outer loop
      vertex 34 40.7174 -137.349
      vertex 37.2 40.7174 -137.349
      vertex 37.2 40.9231 -136.853
    endloop
  endfacet
  facet normal 0 -0.953743 0.300624
    outer loop
      vertex 34 40.5557 -137.862
      vertex 37.2 40.7174 -137.349
      vertex 34 40.7174 -137.349
    endloop
  endfacet
  facet normal 0 -0.953743 0.300624
    outer loop
      vertex 34 40.5557 -137.862
      vertex 37.2 40.5557 -137.862
      vertex 37.2 40.7174 -137.349
    endloop
  endfacet
  facet normal 0 0.0180569 0.999837
    outer loop
      vertex 34 38.2301 -137.82
      vertex 37.2 40.5557 -137.862
      vertex 34 40.5557 -137.862
    endloop
  endfacet
  facet normal -0 0.0180569 0.999837
    outer loop
      vertex 34 38.2301 -137.82
      vertex 37.2 38.2301 -137.82
      vertex 37.2 40.5557 -137.862
    endloop
  endfacet
  facet normal 0 -0.984827 0.173538
    outer loop
      vertex 34 38.0738 -138.707
      vertex 37.2 38.2301 -137.82
      vertex 34 38.2301 -137.82
    endloop
  endfacet
  facet normal 0 -0.984827 0.173538
    outer loop
      vertex 34 38.0738 -138.707
      vertex 37.2 38.0738 -138.707
      vertex 37.2 38.2301 -137.82
    endloop
  endfacet
  facet normal 0 -0.325023 -0.945706
    outer loop
      vertex 34 40.2735 -139.463
      vertex 37.2 38.0738 -138.707
      vertex 34 38.0738 -138.707
    endloop
  endfacet
  facet normal 0 -0.325023 -0.945706
    outer loop
      vertex 34 40.2735 -139.463
      vertex 37.2 40.2735 -139.463
      vertex 37.2 38.0738 -138.707
    endloop
  endfacet
  facet normal 0 -0.999044 0.0437198
    outer loop
      vertex 34 40.25 -140
      vertex 37.2 40.2735 -139.463
      vertex 34 40.2735 -139.463
    endloop
  endfacet
  facet normal 0 -0.999044 0.0437198
    outer loop
      vertex 34 40.25 -140
      vertex 37.2 40.25 -140
      vertex 37.2 40.2735 -139.463
    endloop
  endfacet
  facet normal 0 -0.999044 -0.0437198
    outer loop
      vertex 34 40.2735 -140.537
      vertex 37.2 40.25 -140
      vertex 34 40.25 -140
    endloop
  endfacet
  facet normal 0 -0.999044 -0.0437198
    outer loop
      vertex 34 40.2735 -140.537
      vertex 37.2 40.2735 -140.537
      vertex 37.2 40.25 -140
    endloop
  endfacet
  facet normal 0 -0.325023 0.945706
    outer loop
      vertex 34 38.0738 -141.293
      vertex 37.2 40.2735 -140.537
      vertex 34 40.2735 -140.537
    endloop
  endfacet
  facet normal 0 -0.325023 0.945706
    outer loop
      vertex 34 38.0738 -141.293
      vertex 37.2 38.0738 -141.293
      vertex 37.2 40.2735 -140.537
    endloop
  endfacet
  facet normal 0 -0.984827 -0.173538
    outer loop
      vertex 34 38.2301 -142.18
      vertex 37.2 38.0738 -141.293
      vertex 34 38.0738 -141.293
    endloop
  endfacet
  facet normal 0 -0.984827 -0.173538
    outer loop
      vertex 34 38.2301 -142.18
      vertex 37.2 38.2301 -142.18
      vertex 37.2 38.0738 -141.293
    endloop
  endfacet
  facet normal 0 0.890992 -0.45402
    outer loop
      vertex 34 46.0584 -138.589
      vertex 37.2 46.0584 -138.589
      vertex 34 45.7175 -139.258
    endloop
  endfacet
  facet normal 0 0.890992 -0.45402
    outer loop
      vertex 37.2 45.7175 -139.258
      vertex 34 45.7175 -139.258
      vertex 37.2 46.0584 -138.589
    endloop
  endfacet
  facet normal 0 0.707173 -0.70704
    outer loop
      vertex 34 46.5893 -138.058
      vertex 37.2 46.5893 -138.058
      vertex 34 46.0584 -138.589
    endloop
  endfacet
  facet normal 0 0.707173 -0.70704
    outer loop
      vertex 37.2 46.0584 -138.589
      vertex 34 46.0584 -138.589
      vertex 37.2 46.5893 -138.058
    endloop
  endfacet
  facet normal 0 0.454071 -0.890965
    outer loop
      vertex 34 47.2584 -137.717
      vertex 37.2 47.2584 -137.717
      vertex 34 46.5893 -138.058
    endloop
  endfacet
  facet normal 0 0.454071 -0.890965
    outer loop
      vertex 37.2 46.5893 -138.058
      vertex 34 46.5893 -138.058
      vertex 37.2 47.2584 -137.717
    endloop
  endfacet
  facet normal 0 0.155839 -0.987782
    outer loop
      vertex 34 48 -137.6
      vertex 37.2 48 -137.6
      vertex 34 47.2584 -137.717
    endloop
  endfacet
  facet normal 0 0.155839 -0.987782
    outer loop
      vertex 37.2 47.2584 -137.717
      vertex 34 47.2584 -137.717
      vertex 37.2 48 -137.6
    endloop
  endfacet
  facet normal 0 -0.155839 -0.987782
    outer loop
      vertex 34 48.7416 -137.717
      vertex 37.2 48.7416 -137.717
      vertex 34 48 -137.6
    endloop
  endfacet
  facet normal -0 -0.155839 -0.987782
    outer loop
      vertex 37.2 48 -137.6
      vertex 34 48 -137.6
      vertex 37.2 48.7416 -137.717
    endloop
  endfacet
  facet normal 0 -0.454071 -0.890965
    outer loop
      vertex 34 49.4107 -138.058
      vertex 37.2 49.4107 -138.058
      vertex 34 48.7416 -137.717
    endloop
  endfacet
  facet normal -0 -0.454071 -0.890965
    outer loop
      vertex 37.2 48.7416 -137.717
      vertex 34 48.7416 -137.717
      vertex 37.2 49.4107 -138.058
    endloop
  endfacet
  facet normal 0 -0.707173 -0.70704
    outer loop
      vertex 34 49.9416 -138.589
      vertex 37.2 49.9416 -138.589
      vertex 34 49.4107 -138.058
    endloop
  endfacet
  facet normal -0 -0.707173 -0.70704
    outer loop
      vertex 37.2 49.4107 -138.058
      vertex 34 49.4107 -138.058
      vertex 37.2 49.9416 -138.589
    endloop
  endfacet
  facet normal 0 -0.890992 -0.45402
    outer loop
      vertex 34 50.2825 -139.258
      vertex 37.2 50.2825 -139.258
      vertex 34 49.9416 -138.589
    endloop
  endfacet
  facet normal -0 -0.890992 -0.45402
    outer loop
      vertex 37.2 49.9416 -138.589
      vertex 34 49.9416 -138.589
      vertex 37.2 50.2825 -139.258
    endloop
  endfacet
  facet normal 0 -0.987693 -0.156407
    outer loop
      vertex 34 50.4 -140
      vertex 37.2 50.4 -140
      vertex 34 50.2825 -139.258
    endloop
  endfacet
  facet normal -0 -0.987693 -0.156407
    outer loop
      vertex 37.2 50.2825 -139.258
      vertex 34 50.2825 -139.258
      vertex 37.2 50.4 -140
    endloop
  endfacet
  facet normal 0 -0.987693 0.156407
    outer loop
      vertex 34 50.2825 -140.742
      vertex 37.2 50.2825 -140.742
      vertex 34 50.4 -140
    endloop
  endfacet
  facet normal 0 -0.987693 0.156407
    outer loop
      vertex 37.2 50.4 -140
      vertex 34 50.4 -140
      vertex 37.2 50.2825 -140.742
    endloop
  endfacet
  facet normal 0 -0.890992 0.45402
    outer loop
      vertex 34 49.9416 -141.411
      vertex 37.2 49.9416 -141.411
      vertex 34 50.2825 -140.742
    endloop
  endfacet
  facet normal 0 -0.890992 0.45402
    outer loop
      vertex 37.2 50.2825 -140.742
      vertex 34 50.2825 -140.742
      vertex 37.2 49.9416 -141.411
    endloop
  endfacet
  facet normal 0 -0.707173 0.70704
    outer loop
      vertex 34 49.4107 -141.942
      vertex 37.2 49.4107 -141.942
      vertex 34 49.9416 -141.411
    endloop
  endfacet
  facet normal 0 -0.707173 0.70704
    outer loop
      vertex 37.2 49.9416 -141.411
      vertex 34 49.9416 -141.411
      vertex 37.2 49.4107 -141.942
    endloop
  endfacet
  facet normal 0 -0.454071 0.890965
    outer loop
      vertex 34 48.7416 -142.283
      vertex 37.2 48.7416 -142.283
      vertex 34 49.4107 -141.942
    endloop
  endfacet
  facet normal 0 -0.454071 0.890965
    outer loop
      vertex 37.2 49.4107 -141.942
      vertex 34 49.4107 -141.942
      vertex 37.2 48.7416 -142.283
    endloop
  endfacet
  facet normal 0 -0.155839 0.987782
    outer loop
      vertex 34 48 -142.4
      vertex 37.2 48 -142.4
      vertex 34 48.7416 -142.283
    endloop
  endfacet
  facet normal 0 -0.155839 0.987782
    outer loop
      vertex 37.2 48.7416 -142.283
      vertex 34 48.7416 -142.283
      vertex 37.2 48 -142.4
    endloop
  endfacet
  facet normal -0 0.155839 0.987782
    outer loop
      vertex 34 47.2584 -142.283
      vertex 37.2 47.2584 -142.283
      vertex 34 48 -142.4
    endloop
  endfacet
  facet normal 0 0.155839 0.987782
    outer loop
      vertex 37.2 48 -142.4
      vertex 34 48 -142.4
      vertex 37.2 47.2584 -142.283
    endloop
  endfacet
  facet normal -0 0.454071 0.890965
    outer loop
      vertex 34 46.5893 -141.942
      vertex 37.2 46.5893 -141.942
      vertex 34 47.2584 -142.283
    endloop
  endfacet
  facet normal 0 0.454071 0.890965
    outer loop
      vertex 37.2 47.2584 -142.283
      vertex 34 47.2584 -142.283
      vertex 37.2 46.5893 -141.942
    endloop
  endfacet
  facet normal -0 0.707173 0.70704
    outer loop
      vertex 34 46.0584 -141.411
      vertex 37.2 46.0584 -141.411
      vertex 34 46.5893 -141.942
    endloop
  endfacet
  facet normal 0 0.707173 0.70704
    outer loop
      vertex 37.2 46.5893 -141.942
      vertex 34 46.5893 -141.942
      vertex 37.2 46.0584 -141.411
    endloop
  endfacet
  facet normal -0 0.890992 0.45402
    outer loop
      vertex 34 45.7175 -140.742
      vertex 37.2 45.7175 -140.742
      vertex 34 46.0584 -141.411
    endloop
  endfacet
  facet normal 0 0.890992 0.45402
    outer loop
      vertex 37.2 46.0584 -141.411
      vertex 34 46.0584 -141.411
      vertex 37.2 45.7175 -140.742
    endloop
  endfacet
  facet normal -0 0.987693 0.156407
    outer loop
      vertex 34 45.6 -140
      vertex 37.2 45.6 -140
      vertex 34 45.7175 -140.742
    endloop
  endfacet
  facet normal 0 0.987693 0.156407
    outer loop
      vertex 37.2 45.7175 -140.742
      vertex 34 45.7175 -140.742
      vertex 37.2 45.6 -140
    endloop
  endfacet
  facet normal 0 0.987693 -0.156407
    outer loop
      vertex 34 45.7175 -139.258
      vertex 37.2 45.7175 -139.258
      vertex 34 45.6 -140
    endloop
  endfacet
  facet normal 0 0.987693 -0.156407
    outer loop
      vertex 37.2 45.6 -140
      vertex 34 45.6 -140
      vertex 37.2 45.7175 -139.258
    endloop
  endfacet
endsolid OpenSCAD_Model
