solid OpenSCAD_Model
  facet normal 0 1 -0
    outer loop
      vertex 9.85 118 -8
      vertex -9.85 118 0
      vertex 9.85 118 0
    endloop
  endfacet
  facet normal 0 1 0
    outer loop
      vertex -9.85 118 0
      vertex 9.85 118 -8
      vertex -9.85 118 -8
    endloop
  endfacet
  facet normal 0 1 -0
    outer loop
      vertex 9.85 118 -37
      vertex -9.85 118 -10.5
      vertex 9.85 118 -10.5
    endloop
  endfacet
  facet normal 0 1 0
    outer loop
      vertex -9.85 118 -10.5
      vertex 9.85 118 -37
      vertex -9.85 118 -37
    endloop
  endfacet
  facet normal -0 0 1
    outer loop
      vertex -9.85 118 0
      vertex 9.85 77.3 0
      vertex 9.85 118 0
    endloop
  endfacet
  facet normal 0 0 1
    outer loop
      vertex 9.85 77.3 0
      vertex -9.85 118 0
      vertex -9.85 77.3 0
    endloop
  endfacet
  facet normal 0 0 -1
    outer loop
      vertex -9.85 77.3 -37
      vertex 9.85 118 -37
      vertex 9.85 77.3 -37
    endloop
  endfacet
  facet normal -0 0 -1
    outer loop
      vertex 9.85 118 -37
      vertex -9.85 77.3 -37
      vertex -9.85 118 -37
    endloop
  endfacet
  facet normal 0 -1 0
    outer loop
      vertex -9.85 77.3 -8
      vertex 9.85 77.3 0
      vertex -9.85 77.3 0
    endloop
  endfacet
  facet normal 0 -1 -0
    outer loop
      vertex 9.85 77.3 0
      vertex -9.85 77.3 -8
      vertex 9.85 77.3 -8
    endloop
  endfacet
  facet normal 0 -1 0
    outer loop
      vertex -9.85 77.3 -37
      vertex 9.85 77.3 -10.5
      vertex -9.85 77.3 -10.5
    endloop
  endfacet
  facet normal 0 -1 -0
    outer loop
      vertex 9.85 77.3 -10.5
      vertex -9.85 77.3 -37
      vertex 9.85 77.3 -37
    endloop
  endfacet
  facet normal -1 0 0
    outer loop
      vertex -9.85 70.4 -10.5
      vertex -9.85 77.3 -8
      vertex -9.85 77.3 -10.5
    endloop
  endfacet
  facet normal -1 -0 0
    outer loop
      vertex -9.85 77.3 -8
      vertex -9.85 70.4 -10.5
      vertex -9.85 70.4 -8
    endloop
  endfacet
  facet normal -1 0 0
    outer loop
      vertex -9.85 77.3 -10.5
      vertex -9.85 118 -10.5
      vertex -9.85 118 -37
    endloop
  endfacet
  facet normal -1 0 0
    outer loop
      vertex -9.85 118 -10.5
      vertex -9.85 77.3 -10.5
      vertex -9.85 118 -8
    endloop
  endfacet
  facet normal -1 0 0
    outer loop
      vertex -9.85 77.3 -10.5
      vertex -9.85 118 -37
      vertex -9.85 77.3 -37
    endloop
  endfacet
  facet normal -1 0 0
    outer loop
      vertex -9.85 77.3 -8
      vertex -9.85 118 -8
      vertex -9.85 77.3 -10.5
    endloop
  endfacet
  facet normal -1 0 0
    outer loop
      vertex -9.85 118 -8
      vertex -9.85 77.3 -8
      vertex -9.85 118 0
    endloop
  endfacet
  facet normal -1 -0 0
    outer loop
      vertex -9.85 118 0
      vertex -9.85 77.3 -8
      vertex -9.85 77.3 0
    endloop
  endfacet
  facet normal -1 0 0
    outer loop
      vertex -9.85 118 -10.5
      vertex -9.85 124.9 -8
      vertex -9.85 124.9 -10.5
    endloop
  endfacet
  facet normal -1 -0 0
    outer loop
      vertex -9.85 124.9 -8
      vertex -9.85 118 -10.5
      vertex -9.85 118 -8
    endloop
  endfacet
  facet normal 1 -0 0
    outer loop
      vertex 9.85 70.4 -8
      vertex 9.85 77.3 -10.5
      vertex 9.85 77.3 -8
    endloop
  endfacet
  facet normal 1 0 0
    outer loop
      vertex 9.85 77.3 -10.5
      vertex 9.85 70.4 -8
      vertex 9.85 70.4 -10.5
    endloop
  endfacet
  facet normal 1 0 0
    outer loop
      vertex 9.85 77.3 -8
      vertex 9.85 118 -8
      vertex 9.85 118 0
    endloop
  endfacet
  facet normal 1 0 0
    outer loop
      vertex 9.85 118 -8
      vertex 9.85 77.3 -8
      vertex 9.85 118 -10.5
    endloop
  endfacet
  facet normal 1 0 0
    outer loop
      vertex 9.85 77.3 -8
      vertex 9.85 118 0
      vertex 9.85 77.3 0
    endloop
  endfacet
  facet normal 1 0 0
    outer loop
      vertex 9.85 118 -10.5
      vertex 9.85 77.3 -8
      vertex 9.85 77.3 -10.5
    endloop
  endfacet
  facet normal 1 0 0
    outer loop
      vertex 9.85 118 -10.5
      vertex 9.85 77.3 -10.5
      vertex 9.85 118 -37
    endloop
  endfacet
  facet normal 1 0 0
    outer loop
      vertex 9.85 118 -37
      vertex 9.85 77.3 -10.5
      vertex 9.85 77.3 -37
    endloop
  endfacet
  facet normal 1 -0 0
    outer loop
      vertex 9.85 118 -8
      vertex 9.85 124.9 -10.5
      vertex 9.85 124.9 -8
    endloop
  endfacet
  facet normal 1 0 0
    outer loop
      vertex 9.85 124.9 -10.5
      vertex 9.85 118 -8
      vertex 9.85 118 -10.5
    endloop
  endfacet
  facet normal 0 1 -0
    outer loop
      vertex 9.85 124.9 -10.5
      vertex -9.85 124.9 -8
      vertex 9.85 124.9 -8
    endloop
  endfacet
  facet normal 0 1 0
    outer loop
      vertex -9.85 124.9 -8
      vertex 9.85 124.9 -10.5
      vertex -9.85 124.9 -10.5
    endloop
  endfacet
  facet normal 0 0 1
    outer loop
      vertex 9.85 77.3 -8
      vertex 7.1 72.9 -8
      vertex 9.85 70.4 -8
    endloop
  endfacet
  facet normal 0 0 1
    outer loop
      vertex 9.85 77.3 -8
      vertex 6.94015 73.7036 -8
      vertex 7.1 72.9 -8
    endloop
  endfacet
  facet normal 0 0 1
    outer loop
      vertex 9.85 77.3 -8
      vertex 6.48492 74.3849 -8
      vertex 6.94015 73.7036 -8
    endloop
  endfacet
  facet normal 0 0 1
    outer loop
      vertex 9.85 77.3 -8
      vertex 5.80363 74.8401 -8
      vertex 6.48492 74.3849 -8
    endloop
  endfacet
  facet normal 0 0 1
    outer loop
      vertex 9.85 77.3 -8
      vertex 5 75 -8
      vertex 5.80363 74.8401 -8
    endloop
  endfacet
  facet normal 0 0 1
    outer loop
      vertex 9.85 77.3 -8
      vertex 4.19636 74.8401 -8
      vertex 5 75 -8
    endloop
  endfacet
  facet normal 0 0 1
    outer loop
      vertex 3.05985 73.7036 -8
      vertex -2.9 72.9 -8
      vertex 2.9 72.9 -8
    endloop
  endfacet
  facet normal 0 0 1
    outer loop
      vertex -3.05985 73.7036 -8
      vertex 3.05985 73.7036 -8
      vertex 3.51508 74.3849 -8
    endloop
  endfacet
  facet normal 0 0 1
    outer loop
      vertex -3.51508 74.3849 -8
      vertex 3.51508 74.3849 -8
      vertex 4.19636 74.8401 -8
    endloop
  endfacet
  facet normal 0 0 1
    outer loop
      vertex -4.19636 74.8401 -8
      vertex 4.19636 74.8401 -8
      vertex 9.85 77.3 -8
    endloop
  endfacet
  facet normal 0 0 1
    outer loop
      vertex 3.05985 73.7036 -8
      vertex -3.05985 73.7036 -8
      vertex -2.9 72.9 -8
    endloop
  endfacet
  facet normal 0 0 1
    outer loop
      vertex 3.51508 74.3849 -8
      vertex -3.51508 74.3849 -8
      vertex -3.05985 73.7036 -8
    endloop
  endfacet
  facet normal 0 0 1
    outer loop
      vertex 4.19636 74.8401 -8
      vertex -4.19636 74.8401 -8
      vertex -3.51508 74.3849 -8
    endloop
  endfacet
  facet normal -0 0 1
    outer loop
      vertex -9.85 77.3 -8
      vertex -4.19636 74.8401 -8
      vertex 9.85 77.3 -8
    endloop
  endfacet
  facet normal 0 0 1
    outer loop
      vertex -6.94015 73.7036 -8
      vertex -9.85 77.3 -8
      vertex -7.1 72.9 -8
    endloop
  endfacet
  facet normal 0 0 1
    outer loop
      vertex -6.48492 74.3849 -8
      vertex -9.85 77.3 -8
      vertex -6.94015 73.7036 -8
    endloop
  endfacet
  facet normal 0 0 1
    outer loop
      vertex -5.80363 74.8401 -8
      vertex -9.85 77.3 -8
      vertex -6.48492 74.3849 -8
    endloop
  endfacet
  facet normal 0 0 1
    outer loop
      vertex -5 75 -8
      vertex -9.85 77.3 -8
      vertex -5.80363 74.8401 -8
    endloop
  endfacet
  facet normal 0 0 1
    outer loop
      vertex -4.19636 74.8401 -8
      vertex -9.85 77.3 -8
      vertex -5 75 -8
    endloop
  endfacet
  facet normal -0 0 1
    outer loop
      vertex 6.94015 72.0964 -8
      vertex 9.85 70.4 -8
      vertex 7.1 72.9 -8
    endloop
  endfacet
  facet normal -0 0 1
    outer loop
      vertex 6.48492 71.4151 -8
      vertex 9.85 70.4 -8
      vertex 6.94015 72.0964 -8
    endloop
  endfacet
  facet normal -0 0 1
    outer loop
      vertex 5.80363 70.9599 -8
      vertex 9.85 70.4 -8
      vertex 6.48492 71.4151 -8
    endloop
  endfacet
  facet normal -0 0 1
    outer loop
      vertex 5 70.8 -8
      vertex 9.85 70.4 -8
      vertex 5.80363 70.9599 -8
    endloop
  endfacet
  facet normal -0 0 1
    outer loop
      vertex -2.9 72.9 -8
      vertex 3.05985 72.0964 -8
      vertex 2.9 72.9 -8
    endloop
  endfacet
  facet normal 0 0 1
    outer loop
      vertex -3.05985 72.0964 -8
      vertex 3.05985 72.0964 -8
      vertex -2.9 72.9 -8
    endloop
  endfacet
  facet normal 0 0 1
    outer loop
      vertex 3.05985 72.0964 -8
      vertex -3.05985 72.0964 -8
      vertex 3.51508 71.4151 -8
    endloop
  endfacet
  facet normal 0 0 1
    outer loop
      vertex -3.51508 71.4151 -8
      vertex 3.51508 71.4151 -8
      vertex -3.05985 72.0964 -8
    endloop
  endfacet
  facet normal 0 0 1
    outer loop
      vertex 3.51508 71.4151 -8
      vertex -3.51508 71.4151 -8
      vertex 4.19636 70.9599 -8
    endloop
  endfacet
  facet normal 0 0 1
    outer loop
      vertex -4.19636 70.9599 -8
      vertex 4.19636 70.9599 -8
      vertex -3.51508 71.4151 -8
    endloop
  endfacet
  facet normal 0 0 1
    outer loop
      vertex 4.19636 70.9599 -8
      vertex -4.19636 70.9599 -8
      vertex 5 70.8 -8
    endloop
  endfacet
  facet normal 0 0 1
    outer loop
      vertex -5 70.8 -8
      vertex 5 70.8 -8
      vertex -4.19636 70.9599 -8
    endloop
  endfacet
  facet normal 0 0 1
    outer loop
      vertex 5 70.8 -8
      vertex -5 70.8 -8
      vertex 9.85 70.4 -8
    endloop
  endfacet
  facet normal 0 0 1
    outer loop
      vertex -9.85 70.4 -8
      vertex -7.1 72.9 -8
      vertex -9.85 77.3 -8
    endloop
  endfacet
  facet normal 0 0 1
    outer loop
      vertex -5 70.8 -8
      vertex -9.85 70.4 -8
      vertex 9.85 70.4 -8
    endloop
  endfacet
  facet normal 0 0 1
    outer loop
      vertex -5.80363 70.9599 -8
      vertex -9.85 70.4 -8
      vertex -5 70.8 -8
    endloop
  endfacet
  facet normal 0 0 1
    outer loop
      vertex -6.48492 71.4151 -8
      vertex -9.85 70.4 -8
      vertex -5.80363 70.9599 -8
    endloop
  endfacet
  facet normal 0 0 1
    outer loop
      vertex -6.94015 72.0964 -8
      vertex -9.85 70.4 -8
      vertex -6.48492 71.4151 -8
    endloop
  endfacet
  facet normal 0 0 1
    outer loop
      vertex -7.1 72.9 -8
      vertex -9.85 70.4 -8
      vertex -6.94015 72.0964 -8
    endloop
  endfacet
  facet normal 0 0 1
    outer loop
      vertex 9.85 124.9 -8
      vertex 7.1 122.4 -8
      vertex 9.85 118 -8
    endloop
  endfacet
  facet normal 0 0 1
    outer loop
      vertex 9.85 124.9 -8
      vertex 6.94015 123.204 -8
      vertex 7.1 122.4 -8
    endloop
  endfacet
  facet normal 0 0 1
    outer loop
      vertex 9.85 124.9 -8
      vertex 6.48492 123.885 -8
      vertex 6.94015 123.204 -8
    endloop
  endfacet
  facet normal 0 0 1
    outer loop
      vertex 9.85 124.9 -8
      vertex 5.80363 124.34 -8
      vertex 6.48492 123.885 -8
    endloop
  endfacet
  facet normal 0 0 1
    outer loop
      vertex 9.85 124.9 -8
      vertex 5 124.5 -8
      vertex 5.80363 124.34 -8
    endloop
  endfacet
  facet normal 0 0 1
    outer loop
      vertex 3.05985 123.204 -8
      vertex -2.9 122.4 -8
      vertex 2.9 122.4 -8
    endloop
  endfacet
  facet normal 0 0 1
    outer loop
      vertex -3.05985 123.204 -8
      vertex 3.05985 123.204 -8
      vertex 3.51508 123.885 -8
    endloop
  endfacet
  facet normal 0 0 1
    outer loop
      vertex -3.51508 123.885 -8
      vertex 3.51508 123.885 -8
      vertex 4.19636 124.34 -8
    endloop
  endfacet
  facet normal 0 0 1
    outer loop
      vertex 3.05985 123.204 -8
      vertex -3.05985 123.204 -8
      vertex -2.9 122.4 -8
    endloop
  endfacet
  facet normal 0 0 1
    outer loop
      vertex -4.19636 124.34 -8
      vertex 4.19636 124.34 -8
      vertex 5 124.5 -8
    endloop
  endfacet
  facet normal 0 0 1
    outer loop
      vertex 3.51508 123.885 -8
      vertex -3.51508 123.885 -8
      vertex -3.05985 123.204 -8
    endloop
  endfacet
  facet normal 0 0 1
    outer loop
      vertex -5 124.5 -8
      vertex 5 124.5 -8
      vertex 9.85 124.9 -8
    endloop
  endfacet
  facet normal 0 0 1
    outer loop
      vertex 4.19636 124.34 -8
      vertex -4.19636 124.34 -8
      vertex -3.51508 123.885 -8
    endloop
  endfacet
  facet normal 0 0 1
    outer loop
      vertex 5 124.5 -8
      vertex -5 124.5 -8
      vertex -4.19636 124.34 -8
    endloop
  endfacet
  facet normal 0 0 1
    outer loop
      vertex -6.94015 123.204 -8
      vertex -9.85 124.9 -8
      vertex -7.1 122.4 -8
    endloop
  endfacet
  facet normal 0 0 1
    outer loop
      vertex -6.48492 123.885 -8
      vertex -9.85 124.9 -8
      vertex -6.94015 123.204 -8
    endloop
  endfacet
  facet normal 0 0 1
    outer loop
      vertex -5.80363 124.34 -8
      vertex -9.85 124.9 -8
      vertex -6.48492 123.885 -8
    endloop
  endfacet
  facet normal 0 0 1
    outer loop
      vertex -5 124.5 -8
      vertex -9.85 124.9 -8
      vertex -5.80363 124.34 -8
    endloop
  endfacet
  facet normal -0 0 1
    outer loop
      vertex -9.85 124.9 -8
      vertex -5 124.5 -8
      vertex 9.85 124.9 -8
    endloop
  endfacet
  facet normal -0 0 1
    outer loop
      vertex 6.94015 121.596 -8
      vertex 9.85 118 -8
      vertex 7.1 122.4 -8
    endloop
  endfacet
  facet normal -0 0 1
    outer loop
      vertex 6.48492 120.915 -8
      vertex 9.85 118 -8
      vertex 6.94015 121.596 -8
    endloop
  endfacet
  facet normal -0 0 1
    outer loop
      vertex 5.80363 120.46 -8
      vertex 9.85 118 -8
      vertex 6.48492 120.915 -8
    endloop
  endfacet
  facet normal -0 0 1
    outer loop
      vertex 5 120.3 -8
      vertex 9.85 118 -8
      vertex 5.80363 120.46 -8
    endloop
  endfacet
  facet normal 0 0 1
    outer loop
      vertex 4.19636 120.46 -8
      vertex 9.85 118 -8
      vertex 5 120.3 -8
    endloop
  endfacet
  facet normal -0 0 1
    outer loop
      vertex -2.9 122.4 -8
      vertex 3.05985 121.596 -8
      vertex 2.9 122.4 -8
    endloop
  endfacet
  facet normal 0 0 1
    outer loop
      vertex -3.05985 121.596 -8
      vertex 3.05985 121.596 -8
      vertex -2.9 122.4 -8
    endloop
  endfacet
  facet normal 0 0 1
    outer loop
      vertex 3.05985 121.596 -8
      vertex -3.05985 121.596 -8
      vertex 3.51508 120.915 -8
    endloop
  endfacet
  facet normal 0 0 1
    outer loop
      vertex -3.51508 120.915 -8
      vertex 3.51508 120.915 -8
      vertex -3.05985 121.596 -8
    endloop
  endfacet
  facet normal 0 0 1
    outer loop
      vertex 3.51508 120.915 -8
      vertex -3.51508 120.915 -8
      vertex 4.19636 120.46 -8
    endloop
  endfacet
  facet normal 0 0 1
    outer loop
      vertex -4.19636 120.46 -8
      vertex 4.19636 120.46 -8
      vertex -3.51508 120.915 -8
    endloop
  endfacet
  facet normal 0 0 1
    outer loop
      vertex 4.19636 120.46 -8
      vertex -4.19636 120.46 -8
      vertex 9.85 118 -8
    endloop
  endfacet
  facet normal 0 0 1
    outer loop
      vertex -9.85 118 -8
      vertex -4.19636 120.46 -8
      vertex -5 120.3 -8
    endloop
  endfacet
  facet normal 0 0 1
    outer loop
      vertex -9.85 118 -8
      vertex -7.1 122.4 -8
      vertex -9.85 124.9 -8
    endloop
  endfacet
  facet normal 0 0 1
    outer loop
      vertex -7.1 122.4 -8
      vertex -9.85 118 -8
      vertex -6.94015 121.596 -8
    endloop
  endfacet
  facet normal 0 0 1
    outer loop
      vertex -4.19636 120.46 -8
      vertex -9.85 118 -8
      vertex 9.85 118 -8
    endloop
  endfacet
  facet normal 0 0 1
    outer loop
      vertex -5.80363 120.46 -8
      vertex -9.85 118 -8
      vertex -5 120.3 -8
    endloop
  endfacet
  facet normal 0 0 1
    outer loop
      vertex -6.48492 120.915 -8
      vertex -9.85 118 -8
      vertex -5.80363 120.46 -8
    endloop
  endfacet
  facet normal 0 0 1
    outer loop
      vertex -6.94015 121.596 -8
      vertex -9.85 118 -8
      vertex -6.48492 120.915 -8
    endloop
  endfacet
  facet normal 0 0 -1
    outer loop
      vertex 9.85 118 -10.5
      vertex 7.1 122.4 -10.5
      vertex 9.85 124.9 -10.5
    endloop
  endfacet
  facet normal 0 0 -1
    outer loop
      vertex 9.85 118 -10.5
      vertex 6.94015 121.596 -10.5
      vertex 7.1 122.4 -10.5
    endloop
  endfacet
  facet normal 0 0 -1
    outer loop
      vertex 9.85 118 -10.5
      vertex 6.48492 120.915 -10.5
      vertex 6.94015 121.596 -10.5
    endloop
  endfacet
  facet normal 0 0 -1
    outer loop
      vertex 9.85 118 -10.5
      vertex 5.80363 120.46 -10.5
      vertex 6.48492 120.915 -10.5
    endloop
  endfacet
  facet normal 0 0 -1
    outer loop
      vertex 9.85 118 -10.5
      vertex 5 120.3 -10.5
      vertex 5.80363 120.46 -10.5
    endloop
  endfacet
  facet normal 0 0 -1
    outer loop
      vertex 9.85 118 -10.5
      vertex 4.19636 120.46 -10.5
      vertex 5 120.3 -10.5
    endloop
  endfacet
  facet normal 0 0 -1
    outer loop
      vertex 3.05985 121.596 -10.5
      vertex -2.9 122.4 -10.5
      vertex 2.9 122.4 -10.5
    endloop
  endfacet
  facet normal 0 0 -1
    outer loop
      vertex -3.05985 121.596 -10.5
      vertex 3.05985 121.596 -10.5
      vertex 3.51508 120.915 -10.5
    endloop
  endfacet
  facet normal 0 0 -1
    outer loop
      vertex -3.51508 120.915 -10.5
      vertex 3.51508 120.915 -10.5
      vertex 4.19636 120.46 -10.5
    endloop
  endfacet
  facet normal 0 0 -1
    outer loop
      vertex -4.19636 120.46 -10.5
      vertex 4.19636 120.46 -10.5
      vertex 9.85 118 -10.5
    endloop
  endfacet
  facet normal 0 0 -1
    outer loop
      vertex 3.05985 121.596 -10.5
      vertex -3.05985 121.596 -10.5
      vertex -2.9 122.4 -10.5
    endloop
  endfacet
  facet normal 0 0 -1
    outer loop
      vertex 3.51508 120.915 -10.5
      vertex -3.51508 120.915 -10.5
      vertex -3.05985 121.596 -10.5
    endloop
  endfacet
  facet normal 0 0 -1
    outer loop
      vertex 4.19636 120.46 -10.5
      vertex -4.19636 120.46 -10.5
      vertex -3.51508 120.915 -10.5
    endloop
  endfacet
  facet normal 0 0 -1
    outer loop
      vertex -9.85 118 -10.5
      vertex -4.19636 120.46 -10.5
      vertex 9.85 118 -10.5
    endloop
  endfacet
  facet normal -0 0 -1
    outer loop
      vertex -6.94015 121.596 -10.5
      vertex -9.85 118 -10.5
      vertex -7.1 122.4 -10.5
    endloop
  endfacet
  facet normal -0 0 -1
    outer loop
      vertex -6.48492 120.915 -10.5
      vertex -9.85 118 -10.5
      vertex -6.94015 121.596 -10.5
    endloop
  endfacet
  facet normal -0 0 -1
    outer loop
      vertex -5.80363 120.46 -10.5
      vertex -9.85 118 -10.5
      vertex -6.48492 120.915 -10.5
    endloop
  endfacet
  facet normal -0 0 -1
    outer loop
      vertex -5 120.3 -10.5
      vertex -9.85 118 -10.5
      vertex -5.80363 120.46 -10.5
    endloop
  endfacet
  facet normal 0 0 -1
    outer loop
      vertex -4.19636 120.46 -10.5
      vertex -9.85 118 -10.5
      vertex -5 120.3 -10.5
    endloop
  endfacet
  facet normal 0 0 -1
    outer loop
      vertex 6.94015 123.204 -10.5
      vertex 9.85 124.9 -10.5
      vertex 7.1 122.4 -10.5
    endloop
  endfacet
  facet normal 0 0 -1
    outer loop
      vertex 6.48492 123.885 -10.5
      vertex 9.85 124.9 -10.5
      vertex 6.94015 123.204 -10.5
    endloop
  endfacet
  facet normal 0 0 -1
    outer loop
      vertex 5.80363 124.34 -10.5
      vertex 9.85 124.9 -10.5
      vertex 6.48492 123.885 -10.5
    endloop
  endfacet
  facet normal 0 0 -1
    outer loop
      vertex 5 124.5 -10.5
      vertex 9.85 124.9 -10.5
      vertex 5.80363 124.34 -10.5
    endloop
  endfacet
  facet normal 0 0 -1
    outer loop
      vertex -2.9 122.4 -10.5
      vertex 3.05985 123.204 -10.5
      vertex 2.9 122.4 -10.5
    endloop
  endfacet
  facet normal 0 0 -1
    outer loop
      vertex -3.05985 123.204 -10.5
      vertex 3.05985 123.204 -10.5
      vertex -2.9 122.4 -10.5
    endloop
  endfacet
  facet normal 0 0 -1
    outer loop
      vertex 3.05985 123.204 -10.5
      vertex -3.05985 123.204 -10.5
      vertex 3.51508 123.885 -10.5
    endloop
  endfacet
  facet normal 0 0 -1
    outer loop
      vertex -3.51508 123.885 -10.5
      vertex 3.51508 123.885 -10.5
      vertex -3.05985 123.204 -10.5
    endloop
  endfacet
  facet normal 0 0 -1
    outer loop
      vertex 3.51508 123.885 -10.5
      vertex -3.51508 123.885 -10.5
      vertex 4.19636 124.34 -10.5
    endloop
  endfacet
  facet normal 0 0 -1
    outer loop
      vertex -4.19636 124.34 -10.5
      vertex 4.19636 124.34 -10.5
      vertex -3.51508 123.885 -10.5
    endloop
  endfacet
  facet normal 0 0 -1
    outer loop
      vertex 4.19636 124.34 -10.5
      vertex -4.19636 124.34 -10.5
      vertex 5 124.5 -10.5
    endloop
  endfacet
  facet normal 0 0 -1
    outer loop
      vertex -5 124.5 -10.5
      vertex 5 124.5 -10.5
      vertex -4.19636 124.34 -10.5
    endloop
  endfacet
  facet normal 0 0 -1
    outer loop
      vertex 5 124.5 -10.5
      vertex -5 124.5 -10.5
      vertex 9.85 124.9 -10.5
    endloop
  endfacet
  facet normal 0 0 -1
    outer loop
      vertex -9.85 124.9 -10.5
      vertex -7.1 122.4 -10.5
      vertex -9.85 118 -10.5
    endloop
  endfacet
  facet normal 0 0 -1
    outer loop
      vertex -5 124.5 -10.5
      vertex -9.85 124.9 -10.5
      vertex 9.85 124.9 -10.5
    endloop
  endfacet
  facet normal 0 0 -1
    outer loop
      vertex -5.80363 124.34 -10.5
      vertex -9.85 124.9 -10.5
      vertex -5 124.5 -10.5
    endloop
  endfacet
  facet normal 0 0 -1
    outer loop
      vertex -6.48492 123.885 -10.5
      vertex -9.85 124.9 -10.5
      vertex -5.80363 124.34 -10.5
    endloop
  endfacet
  facet normal 0 0 -1
    outer loop
      vertex -6.94015 123.204 -10.5
      vertex -9.85 124.9 -10.5
      vertex -6.48492 123.885 -10.5
    endloop
  endfacet
  facet normal 0 0 -1
    outer loop
      vertex -7.1 122.4 -10.5
      vertex -9.85 124.9 -10.5
      vertex -6.94015 123.204 -10.5
    endloop
  endfacet
  facet normal 0 0 -1
    outer loop
      vertex 9.85 70.4 -10.5
      vertex 7.1 72.9 -10.5
      vertex 9.85 77.3 -10.5
    endloop
  endfacet
  facet normal 0 0 -1
    outer loop
      vertex 9.85 70.4 -10.5
      vertex 6.94015 72.0964 -10.5
      vertex 7.1 72.9 -10.5
    endloop
  endfacet
  facet normal 0 0 -1
    outer loop
      vertex 9.85 70.4 -10.5
      vertex 6.48492 71.4151 -10.5
      vertex 6.94015 72.0964 -10.5
    endloop
  endfacet
  facet normal 0 0 -1
    outer loop
      vertex 9.85 70.4 -10.5
      vertex 5.80363 70.9599 -10.5
      vertex 6.48492 71.4151 -10.5
    endloop
  endfacet
  facet normal 0 0 -1
    outer loop
      vertex 9.85 70.4 -10.5
      vertex 5 70.8 -10.5
      vertex 5.80363 70.9599 -10.5
    endloop
  endfacet
  facet normal 0 0 -1
    outer loop
      vertex 3.05985 72.0964 -10.5
      vertex -2.9 72.9 -10.5
      vertex 2.9 72.9 -10.5
    endloop
  endfacet
  facet normal 0 0 -1
    outer loop
      vertex -3.05985 72.0964 -10.5
      vertex 3.05985 72.0964 -10.5
      vertex 3.51508 71.4151 -10.5
    endloop
  endfacet
  facet normal 0 0 -1
    outer loop
      vertex -3.51508 71.4151 -10.5
      vertex 3.51508 71.4151 -10.5
      vertex 4.19636 70.9599 -10.5
    endloop
  endfacet
  facet normal 0 0 -1
    outer loop
      vertex 3.05985 72.0964 -10.5
      vertex -3.05985 72.0964 -10.5
      vertex -2.9 72.9 -10.5
    endloop
  endfacet
  facet normal 0 0 -1
    outer loop
      vertex -4.19636 70.9599 -10.5
      vertex 4.19636 70.9599 -10.5
      vertex 5 70.8 -10.5
    endloop
  endfacet
  facet normal 0 0 -1
    outer loop
      vertex 3.51508 71.4151 -10.5
      vertex -3.51508 71.4151 -10.5
      vertex -3.05985 72.0964 -10.5
    endloop
  endfacet
  facet normal 0 0 -1
    outer loop
      vertex -5 70.8 -10.5
      vertex 5 70.8 -10.5
      vertex 9.85 70.4 -10.5
    endloop
  endfacet
  facet normal 0 0 -1
    outer loop
      vertex 4.19636 70.9599 -10.5
      vertex -4.19636 70.9599 -10.5
      vertex -3.51508 71.4151 -10.5
    endloop
  endfacet
  facet normal 0 0 -1
    outer loop
      vertex 5 70.8 -10.5
      vertex -5 70.8 -10.5
      vertex -4.19636 70.9599 -10.5
    endloop
  endfacet
  facet normal -0 0 -1
    outer loop
      vertex -6.94015 72.0964 -10.5
      vertex -9.85 70.4 -10.5
      vertex -7.1 72.9 -10.5
    endloop
  endfacet
  facet normal -0 0 -1
    outer loop
      vertex -6.48492 71.4151 -10.5
      vertex -9.85 70.4 -10.5
      vertex -6.94015 72.0964 -10.5
    endloop
  endfacet
  facet normal -0 0 -1
    outer loop
      vertex -5.80363 70.9599 -10.5
      vertex -9.85 70.4 -10.5
      vertex -6.48492 71.4151 -10.5
    endloop
  endfacet
  facet normal -0 0 -1
    outer loop
      vertex -5 70.8 -10.5
      vertex -9.85 70.4 -10.5
      vertex -5.80363 70.9599 -10.5
    endloop
  endfacet
  facet normal 0 0 -1
    outer loop
      vertex -9.85 70.4 -10.5
      vertex -5 70.8 -10.5
      vertex 9.85 70.4 -10.5
    endloop
  endfacet
  facet normal 0 0 -1
    outer loop
      vertex 6.94015 73.7036 -10.5
      vertex 9.85 77.3 -10.5
      vertex 7.1 72.9 -10.5
    endloop
  endfacet
  facet normal 0 0 -1
    outer loop
      vertex 6.48492 74.3849 -10.5
      vertex 9.85 77.3 -10.5
      vertex 6.94015 73.7036 -10.5
    endloop
  endfacet
  facet normal 0 0 -1
    outer loop
      vertex 5.80363 74.8401 -10.5
      vertex 9.85 77.3 -10.5
      vertex 6.48492 74.3849 -10.5
    endloop
  endfacet
  facet normal 0 0 -1
    outer loop
      vertex 5 75 -10.5
      vertex 9.85 77.3 -10.5
      vertex 5.80363 74.8401 -10.5
    endloop
  endfacet
  facet normal 0 0 -1
    outer loop
      vertex 4.19636 74.8401 -10.5
      vertex 9.85 77.3 -10.5
      vertex 5 75 -10.5
    endloop
  endfacet
  facet normal 0 0 -1
    outer loop
      vertex -2.9 72.9 -10.5
      vertex 3.05985 73.7036 -10.5
      vertex 2.9 72.9 -10.5
    endloop
  endfacet
  facet normal 0 0 -1
    outer loop
      vertex -3.05985 73.7036 -10.5
      vertex 3.05985 73.7036 -10.5
      vertex -2.9 72.9 -10.5
    endloop
  endfacet
  facet normal 0 0 -1
    outer loop
      vertex 3.05985 73.7036 -10.5
      vertex -3.05985 73.7036 -10.5
      vertex 3.51508 74.3849 -10.5
    endloop
  endfacet
  facet normal 0 0 -1
    outer loop
      vertex -3.51508 74.3849 -10.5
      vertex 3.51508 74.3849 -10.5
      vertex -3.05985 73.7036 -10.5
    endloop
  endfacet
  facet normal 0 0 -1
    outer loop
      vertex 3.51508 74.3849 -10.5
      vertex -3.51508 74.3849 -10.5
      vertex 4.19636 74.8401 -10.5
    endloop
  endfacet
  facet normal 0 0 -1
    outer loop
      vertex -4.19636 74.8401 -10.5
      vertex 4.19636 74.8401 -10.5
      vertex -3.51508 74.3849 -10.5
    endloop
  endfacet
  facet normal 0 0 -1
    outer loop
      vertex 4.19636 74.8401 -10.5
      vertex -4.19636 74.8401 -10.5
      vertex 9.85 77.3 -10.5
    endloop
  endfacet
  facet normal 0 0 -1
    outer loop
      vertex -9.85 77.3 -10.5
      vertex -4.19636 74.8401 -10.5
      vertex -5 75 -10.5
    endloop
  endfacet
  facet normal 0 0 -1
    outer loop
      vertex -9.85 77.3 -10.5
      vertex -7.1 72.9 -10.5
      vertex -9.85 70.4 -10.5
    endloop
  endfacet
  facet normal 0 0 -1
    outer loop
      vertex -7.1 72.9 -10.5
      vertex -9.85 77.3 -10.5
      vertex -6.94015 73.7036 -10.5
    endloop
  endfacet
  facet normal 0 0 -1
    outer loop
      vertex -4.19636 74.8401 -10.5
      vertex -9.85 77.3 -10.5
      vertex 9.85 77.3 -10.5
    endloop
  endfacet
  facet normal 0 0 -1
    outer loop
      vertex -5.80363 74.8401 -10.5
      vertex -9.85 77.3 -10.5
      vertex -5 75 -10.5
    endloop
  endfacet
  facet normal 0 0 -1
    outer loop
      vertex -6.48492 74.3849 -10.5
      vertex -9.85 77.3 -10.5
      vertex -5.80363 74.8401 -10.5
    endloop
  endfacet
  facet normal 0 0 -1
    outer loop
      vertex -6.94015 73.7036 -10.5
      vertex -9.85 77.3 -10.5
      vertex -6.48492 74.3849 -10.5
    endloop
  endfacet
  facet normal 0 -1 0
    outer loop
      vertex -9.85 70.4 -10.5
      vertex 9.85 70.4 -8
      vertex -9.85 70.4 -8
    endloop
  endfacet
  facet normal 0 -1 -0
    outer loop
      vertex 9.85 70.4 -8
      vertex -9.85 70.4 -10.5
      vertex 9.85 70.4 -10.5
    endloop
  endfacet
  facet normal 0.555556 -0.831479 0
    outer loop
      vertex 3.51508 74.3849 -10.5
      vertex 4.19636 74.8401 -8
      vertex 3.51508 74.3849 -8
    endloop
  endfacet
  facet normal 0.555556 -0.831479 0
    outer loop
      vertex 4.19636 74.8401 -8
      vertex 3.51508 74.3849 -10.5
      vertex 4.19636 74.8401 -10.5
    endloop
  endfacet
  facet normal 0.195144 -0.980775 0
    outer loop
      vertex 4.19636 74.8401 -10.5
      vertex 5 75 -8
      vertex 4.19636 74.8401 -8
    endloop
  endfacet
  facet normal 0.195144 -0.980775 0
    outer loop
      vertex 5 75 -8
      vertex 4.19636 74.8401 -10.5
      vertex 5 75 -10.5
    endloop
  endfacet
  facet normal 0.83147 -0.55557 0
    outer loop
      vertex 3.05985 73.7036 -8
      vertex 3.51508 74.3849 -10.5
      vertex 3.51508 74.3849 -8
    endloop
  endfacet
  facet normal 0.83147 -0.55557 0
    outer loop
      vertex 3.51508 74.3849 -10.5
      vertex 3.05985 73.7036 -8
      vertex 3.05985 73.7036 -10.5
    endloop
  endfacet
  facet normal -0.980784 -0.195095 0
    outer loop
      vertex 7.1 72.9 -10.5
      vertex 6.94015 73.7036 -8
      vertex 6.94015 73.7036 -10.5
    endloop
  endfacet
  facet normal -0.980784 -0.195095 0
    outer loop
      vertex 6.94015 73.7036 -8
      vertex 7.1 72.9 -10.5
      vertex 7.1 72.9 -8
    endloop
  endfacet
  facet normal 0.195144 0.980775 -0
    outer loop
      vertex 5 70.8 -10.5
      vertex 4.19636 70.9599 -8
      vertex 5 70.8 -8
    endloop
  endfacet
  facet normal 0.195144 0.980775 0
    outer loop
      vertex 4.19636 70.9599 -8
      vertex 5 70.8 -10.5
      vertex 4.19636 70.9599 -10.5
    endloop
  endfacet
  facet normal 0.83147 0.55557 0
    outer loop
      vertex 3.51508 71.4151 -8
      vertex 3.05985 72.0964 -10.5
      vertex 3.05985 72.0964 -8
    endloop
  endfacet
  facet normal 0.83147 0.55557 0
    outer loop
      vertex 3.05985 72.0964 -10.5
      vertex 3.51508 71.4151 -8
      vertex 3.51508 71.4151 -10.5
    endloop
  endfacet
  facet normal -0.980784 0.195095 0
    outer loop
      vertex 6.94015 72.0964 -10.5
      vertex 7.1 72.9 -8
      vertex 7.1 72.9 -10.5
    endloop
  endfacet
  facet normal -0.980784 0.195095 0
    outer loop
      vertex 7.1 72.9 -8
      vertex 6.94015 72.0964 -10.5
      vertex 6.94015 72.0964 -8
    endloop
  endfacet
  facet normal -0.195147 -0.980774 0
    outer loop
      vertex 5 75 -10.5
      vertex 5.80363 74.8401 -8
      vertex 5 75 -8
    endloop
  endfacet
  facet normal -0.195147 -0.980774 -0
    outer loop
      vertex 5.80363 74.8401 -8
      vertex 5 75 -10.5
      vertex 5.80363 74.8401 -10.5
    endloop
  endfacet
  facet normal -0.55555 -0.831483 0
    outer loop
      vertex 5.80363 74.8401 -10.5
      vertex 6.48492 74.3849 -8
      vertex 5.80363 74.8401 -8
    endloop
  endfacet
  facet normal -0.55555 -0.831483 -0
    outer loop
      vertex 6.48492 74.3849 -8
      vertex 5.80363 74.8401 -10.5
      vertex 6.48492 74.3849 -10.5
    endloop
  endfacet
  facet normal -0.83147 -0.55557 0
    outer loop
      vertex 6.94015 73.7036 -10.5
      vertex 6.48492 74.3849 -8
      vertex 6.48492 74.3849 -10.5
    endloop
  endfacet
  facet normal -0.83147 -0.55557 0
    outer loop
      vertex 6.48492 74.3849 -8
      vertex 6.94015 73.7036 -10.5
      vertex 6.94015 73.7036 -8
    endloop
  endfacet
  facet normal 0.555556 0.831479 -0
    outer loop
      vertex 4.19636 70.9599 -10.5
      vertex 3.51508 71.4151 -8
      vertex 4.19636 70.9599 -8
    endloop
  endfacet
  facet normal 0.555556 0.831479 0
    outer loop
      vertex 3.51508 71.4151 -8
      vertex 4.19636 70.9599 -10.5
      vertex 3.51508 71.4151 -10.5
    endloop
  endfacet
  facet normal -0.83147 0.55557 0
    outer loop
      vertex 6.48492 71.4151 -10.5
      vertex 6.94015 72.0964 -8
      vertex 6.94015 72.0964 -10.5
    endloop
  endfacet
  facet normal -0.83147 0.55557 0
    outer loop
      vertex 6.94015 72.0964 -8
      vertex 6.48492 71.4151 -10.5
      vertex 6.48492 71.4151 -8
    endloop
  endfacet
  facet normal 0.980784 0.195095 0
    outer loop
      vertex 3.05985 72.0964 -8
      vertex 2.9 72.9 -10.5
      vertex 2.9 72.9 -8
    endloop
  endfacet
  facet normal 0.980784 0.195095 0
    outer loop
      vertex 2.9 72.9 -10.5
      vertex 3.05985 72.0964 -8
      vertex 3.05985 72.0964 -10.5
    endloop
  endfacet
  facet normal 0.980784 -0.195095 0
    outer loop
      vertex 2.9 72.9 -8
      vertex 3.05985 73.7036 -10.5
      vertex 3.05985 73.7036 -8
    endloop
  endfacet
  facet normal 0.980784 -0.195095 0
    outer loop
      vertex 3.05985 73.7036 -10.5
      vertex 2.9 72.9 -8
      vertex 2.9 72.9 -10.5
    endloop
  endfacet
  facet normal -0.55555 0.831483 0
    outer loop
      vertex 6.48492 71.4151 -10.5
      vertex 5.80363 70.9599 -8
      vertex 6.48492 71.4151 -8
    endloop
  endfacet
  facet normal -0.55555 0.831483 0
    outer loop
      vertex 5.80363 70.9599 -8
      vertex 6.48492 71.4151 -10.5
      vertex 5.80363 70.9599 -10.5
    endloop
  endfacet
  facet normal -0.195147 0.980774 0
    outer loop
      vertex 5.80363 70.9599 -10.5
      vertex 5 70.8 -8
      vertex 5.80363 70.9599 -8
    endloop
  endfacet
  facet normal -0.195147 0.980774 0
    outer loop
      vertex 5 70.8 -8
      vertex 5.80363 70.9599 -10.5
      vertex 5 70.8 -10.5
    endloop
  endfacet
  facet normal 0.55555 -0.831483 0
    outer loop
      vertex -6.48492 74.3849 -10.5
      vertex -5.80363 74.8401 -8
      vertex -6.48492 74.3849 -8
    endloop
  endfacet
  facet normal 0.55555 -0.831483 0
    outer loop
      vertex -5.80363 74.8401 -8
      vertex -6.48492 74.3849 -10.5
      vertex -5.80363 74.8401 -10.5
    endloop
  endfacet
  facet normal 0.195147 -0.980774 0
    outer loop
      vertex -5.80363 74.8401 -10.5
      vertex -5 75 -8
      vertex -5.80363 74.8401 -8
    endloop
  endfacet
  facet normal 0.195147 -0.980774 0
    outer loop
      vertex -5 75 -8
      vertex -5.80363 74.8401 -10.5
      vertex -5 75 -10.5
    endloop
  endfacet
  facet normal 0.83147 -0.55557 0
    outer loop
      vertex -6.94015 73.7036 -8
      vertex -6.48492 74.3849 -10.5
      vertex -6.48492 74.3849 -8
    endloop
  endfacet
  facet normal 0.83147 -0.55557 0
    outer loop
      vertex -6.48492 74.3849 -10.5
      vertex -6.94015 73.7036 -8
      vertex -6.94015 73.7036 -10.5
    endloop
  endfacet
  facet normal -0.83147 -0.55557 0
    outer loop
      vertex -3.05985 73.7036 -10.5
      vertex -3.51508 74.3849 -8
      vertex -3.51508 74.3849 -10.5
    endloop
  endfacet
  facet normal -0.83147 -0.55557 0
    outer loop
      vertex -3.51508 74.3849 -8
      vertex -3.05985 73.7036 -10.5
      vertex -3.05985 73.7036 -8
    endloop
  endfacet
  facet normal 0.55555 0.831483 -0
    outer loop
      vertex -5.80363 70.9599 -10.5
      vertex -6.48492 71.4151 -8
      vertex -5.80363 70.9599 -8
    endloop
  endfacet
  facet normal 0.55555 0.831483 0
    outer loop
      vertex -6.48492 71.4151 -8
      vertex -5.80363 70.9599 -10.5
      vertex -6.48492 71.4151 -10.5
    endloop
  endfacet
  facet normal -0.980784 -0.195095 0
    outer loop
      vertex -2.9 72.9 -10.5
      vertex -3.05985 73.7036 -8
      vertex -3.05985 73.7036 -10.5
    endloop
  endfacet
  facet normal -0.980784 -0.195095 0
    outer loop
      vertex -3.05985 73.7036 -8
      vertex -2.9 72.9 -10.5
      vertex -2.9 72.9 -8
    endloop
  endfacet
  facet normal -0.195144 -0.980775 0
    outer loop
      vertex -5 75 -10.5
      vertex -4.19636 74.8401 -8
      vertex -5 75 -8
    endloop
  endfacet
  facet normal -0.195144 -0.980775 -0
    outer loop
      vertex -4.19636 74.8401 -8
      vertex -5 75 -10.5
      vertex -4.19636 74.8401 -10.5
    endloop
  endfacet
  facet normal 0.980784 0.195095 0
    outer loop
      vertex -6.94015 72.0964 -8
      vertex -7.1 72.9 -10.5
      vertex -7.1 72.9 -8
    endloop
  endfacet
  facet normal 0.980784 0.195095 0
    outer loop
      vertex -7.1 72.9 -10.5
      vertex -6.94015 72.0964 -8
      vertex -6.94015 72.0964 -10.5
    endloop
  endfacet
  facet normal -0.980784 0.195095 0
    outer loop
      vertex -3.05985 72.0964 -10.5
      vertex -2.9 72.9 -8
      vertex -2.9 72.9 -10.5
    endloop
  endfacet
  facet normal -0.980784 0.195095 0
    outer loop
      vertex -2.9 72.9 -8
      vertex -3.05985 72.0964 -10.5
      vertex -3.05985 72.0964 -8
    endloop
  endfacet
  facet normal -0.555556 -0.831479 0
    outer loop
      vertex -4.19636 74.8401 -10.5
      vertex -3.51508 74.3849 -8
      vertex -4.19636 74.8401 -8
    endloop
  endfacet
  facet normal -0.555556 -0.831479 -0
    outer loop
      vertex -3.51508 74.3849 -8
      vertex -4.19636 74.8401 -10.5
      vertex -3.51508 74.3849 -10.5
    endloop
  endfacet
  facet normal -0.555556 0.831479 0
    outer loop
      vertex -3.51508 71.4151 -10.5
      vertex -4.19636 70.9599 -8
      vertex -3.51508 71.4151 -8
    endloop
  endfacet
  facet normal -0.555556 0.831479 0
    outer loop
      vertex -4.19636 70.9599 -8
      vertex -3.51508 71.4151 -10.5
      vertex -4.19636 70.9599 -10.5
    endloop
  endfacet
  facet normal -0.195144 0.980775 0
    outer loop
      vertex -4.19636 70.9599 -10.5
      vertex -5 70.8 -8
      vertex -4.19636 70.9599 -8
    endloop
  endfacet
  facet normal -0.195144 0.980775 0
    outer loop
      vertex -5 70.8 -8
      vertex -4.19636 70.9599 -10.5
      vertex -5 70.8 -10.5
    endloop
  endfacet
  facet normal 0.980784 -0.195095 0
    outer loop
      vertex -7.1 72.9 -8
      vertex -6.94015 73.7036 -10.5
      vertex -6.94015 73.7036 -8
    endloop
  endfacet
  facet normal 0.980784 -0.195095 0
    outer loop
      vertex -6.94015 73.7036 -10.5
      vertex -7.1 72.9 -8
      vertex -7.1 72.9 -10.5
    endloop
  endfacet
  facet normal 0.195147 0.980774 -0
    outer loop
      vertex -5 70.8 -10.5
      vertex -5.80363 70.9599 -8
      vertex -5 70.8 -8
    endloop
  endfacet
  facet normal 0.195147 0.980774 0
    outer loop
      vertex -5.80363 70.9599 -8
      vertex -5 70.8 -10.5
      vertex -5.80363 70.9599 -10.5
    endloop
  endfacet
  facet normal 0.83147 0.55557 0
    outer loop
      vertex -6.48492 71.4151 -8
      vertex -6.94015 72.0964 -10.5
      vertex -6.94015 72.0964 -8
    endloop
  endfacet
  facet normal 0.83147 0.55557 0
    outer loop
      vertex -6.94015 72.0964 -10.5
      vertex -6.48492 71.4151 -8
      vertex -6.48492 71.4151 -10.5
    endloop
  endfacet
  facet normal -0.83147 0.55557 0
    outer loop
      vertex -3.51508 71.4151 -10.5
      vertex -3.05985 72.0964 -8
      vertex -3.05985 72.0964 -10.5
    endloop
  endfacet
  facet normal -0.83147 0.55557 0
    outer loop
      vertex -3.05985 72.0964 -8
      vertex -3.51508 71.4151 -10.5
      vertex -3.51508 71.4151 -8
    endloop
  endfacet
  facet normal 0.555387 -0.831592 0
    outer loop
      vertex 3.51508 123.885 -10.5
      vertex 4.19636 124.34 -8
      vertex 3.51508 123.885 -8
    endloop
  endfacet
  facet normal 0.555387 -0.831592 0
    outer loop
      vertex 4.19636 124.34 -8
      vertex 3.51508 123.885 -10.5
      vertex 4.19636 124.34 -10.5
    endloop
  endfacet
  facet normal 0.195262 -0.980751 0
    outer loop
      vertex 4.19636 124.34 -10.5
      vertex 5 124.5 -8
      vertex 4.19636 124.34 -8
    endloop
  endfacet
  facet normal 0.195262 -0.980751 0
    outer loop
      vertex 5 124.5 -8
      vertex 4.19636 124.34 -10.5
      vertex 5 124.5 -10.5
    endloop
  endfacet
  facet normal 0.831357 -0.555739 0
    outer loop
      vertex 3.05985 123.204 -8
      vertex 3.51508 123.885 -10.5
      vertex 3.51508 123.885 -8
    endloop
  endfacet
  facet normal 0.831357 -0.555739 0
    outer loop
      vertex 3.51508 123.885 -10.5
      vertex 3.05985 123.204 -8
      vertex 3.05985 123.204 -10.5
    endloop
  endfacet
  facet normal 0.980803 -0.195002 0
    outer loop
      vertex 2.9 122.4 -8
      vertex 3.05985 123.204 -10.5
      vertex 3.05985 123.204 -8
    endloop
  endfacet
  facet normal 0.980803 -0.195002 0
    outer loop
      vertex 3.05985 123.204 -10.5
      vertex 2.9 122.4 -8
      vertex 2.9 122.4 -10.5
    endloop
  endfacet
  facet normal -0.195264 -0.980751 0
    outer loop
      vertex 5 124.5 -10.5
      vertex 5.80363 124.34 -8
      vertex 5 124.5 -8
    endloop
  endfacet
  facet normal -0.195264 -0.980751 -0
    outer loop
      vertex 5.80363 124.34 -8
      vertex 5 124.5 -10.5
      vertex 5.80363 124.34 -10.5
    endloop
  endfacet
  facet normal -0.831357 -0.555739 0
    outer loop
      vertex 6.94015 123.204 -10.5
      vertex 6.48492 123.885 -8
      vertex 6.48492 123.885 -10.5
    endloop
  endfacet
  facet normal -0.831357 -0.555739 0
    outer loop
      vertex 6.48492 123.885 -8
      vertex 6.94015 123.204 -10.5
      vertex 6.94015 123.204 -8
    endloop
  endfacet
  facet normal -0.555382 0.831596 0
    outer loop
      vertex 6.48492 120.915 -10.5
      vertex 5.80363 120.46 -8
      vertex 6.48492 120.915 -8
    endloop
  endfacet
  facet normal -0.555382 0.831596 0
    outer loop
      vertex 5.80363 120.46 -8
      vertex 6.48492 120.915 -10.5
      vertex 5.80363 120.46 -10.5
    endloop
  endfacet
  facet normal -0.555382 -0.831596 0
    outer loop
      vertex 5.80363 124.34 -10.5
      vertex 6.48492 123.885 -8
      vertex 5.80363 124.34 -8
    endloop
  endfacet
  facet normal -0.555382 -0.831596 -0
    outer loop
      vertex 6.48492 123.885 -8
      vertex 5.80363 124.34 -10.5
      vertex 6.48492 123.885 -10.5
    endloop
  endfacet
  facet normal -0.195264 0.980751 0
    outer loop
      vertex 5.80363 120.46 -10.5
      vertex 5 120.3 -8
      vertex 5.80363 120.46 -8
    endloop
  endfacet
  facet normal -0.195264 0.980751 0
    outer loop
      vertex 5 120.3 -8
      vertex 5.80363 120.46 -10.5
      vertex 5 120.3 -10.5
    endloop
  endfacet
  facet normal 0.831357 0.555739 0
    outer loop
      vertex 3.51508 120.915 -8
      vertex 3.05985 121.596 -10.5
      vertex 3.05985 121.596 -8
    endloop
  endfacet
  facet normal 0.831357 0.555739 0
    outer loop
      vertex 3.05985 121.596 -10.5
      vertex 3.51508 120.915 -8
      vertex 3.51508 120.915 -10.5
    endloop
  endfacet
  facet normal 0.980803 0.195002 0
    outer loop
      vertex 3.05985 121.596 -8
      vertex 2.9 122.4 -10.5
      vertex 2.9 122.4 -8
    endloop
  endfacet
  facet normal 0.980803 0.195002 0
    outer loop
      vertex 2.9 122.4 -10.5
      vertex 3.05985 121.596 -8
      vertex 3.05985 121.596 -10.5
    endloop
  endfacet
  facet normal 0.195262 0.980751 -0
    outer loop
      vertex 5 120.3 -10.5
      vertex 4.19636 120.46 -8
      vertex 5 120.3 -8
    endloop
  endfacet
  facet normal 0.195262 0.980751 0
    outer loop
      vertex 4.19636 120.46 -8
      vertex 5 120.3 -10.5
      vertex 4.19636 120.46 -10.5
    endloop
  endfacet
  facet normal -0.980803 -0.195002 0
    outer loop
      vertex 7.1 122.4 -10.5
      vertex 6.94015 123.204 -8
      vertex 6.94015 123.204 -10.5
    endloop
  endfacet
  facet normal -0.980803 -0.195002 0
    outer loop
      vertex 6.94015 123.204 -8
      vertex 7.1 122.4 -10.5
      vertex 7.1 122.4 -8
    endloop
  endfacet
  facet normal -0.980803 0.195002 0
    outer loop
      vertex 6.94015 121.596 -10.5
      vertex 7.1 122.4 -8
      vertex 7.1 122.4 -10.5
    endloop
  endfacet
  facet normal -0.980803 0.195002 0
    outer loop
      vertex 7.1 122.4 -8
      vertex 6.94015 121.596 -10.5
      vertex 6.94015 121.596 -8
    endloop
  endfacet
  facet normal 0.555387 0.831592 -0
    outer loop
      vertex 4.19636 120.46 -10.5
      vertex 3.51508 120.915 -8
      vertex 4.19636 120.46 -8
    endloop
  endfacet
  facet normal 0.555387 0.831592 0
    outer loop
      vertex 3.51508 120.915 -8
      vertex 4.19636 120.46 -10.5
      vertex 3.51508 120.915 -10.5
    endloop
  endfacet
  facet normal -0.831357 0.555739 0
    outer loop
      vertex 6.48492 120.915 -10.5
      vertex 6.94015 121.596 -8
      vertex 6.94015 121.596 -10.5
    endloop
  endfacet
  facet normal -0.831357 0.555739 0
    outer loop
      vertex 6.94015 121.596 -8
      vertex 6.48492 120.915 -10.5
      vertex 6.48492 120.915 -8
    endloop
  endfacet
  facet normal 0.555382 -0.831596 0
    outer loop
      vertex -6.48492 123.885 -10.5
      vertex -5.80363 124.34 -8
      vertex -6.48492 123.885 -8
    endloop
  endfacet
  facet normal 0.555382 -0.831596 0
    outer loop
      vertex -5.80363 124.34 -8
      vertex -6.48492 123.885 -10.5
      vertex -5.80363 124.34 -10.5
    endloop
  endfacet
  facet normal 0.195264 -0.980751 0
    outer loop
      vertex -5.80363 124.34 -10.5
      vertex -5 124.5 -8
      vertex -5.80363 124.34 -8
    endloop
  endfacet
  facet normal 0.195264 -0.980751 0
    outer loop
      vertex -5 124.5 -8
      vertex -5.80363 124.34 -10.5
      vertex -5 124.5 -10.5
    endloop
  endfacet
  facet normal 0.831357 -0.555739 0
    outer loop
      vertex -6.94015 123.204 -8
      vertex -6.48492 123.885 -10.5
      vertex -6.48492 123.885 -8
    endloop
  endfacet
  facet normal 0.831357 -0.555739 0
    outer loop
      vertex -6.48492 123.885 -10.5
      vertex -6.94015 123.204 -8
      vertex -6.94015 123.204 -10.5
    endloop
  endfacet
  facet normal -0.831357 -0.555739 0
    outer loop
      vertex -3.05985 123.204 -10.5
      vertex -3.51508 123.885 -8
      vertex -3.51508 123.885 -10.5
    endloop
  endfacet
  facet normal -0.831357 -0.555739 0
    outer loop
      vertex -3.51508 123.885 -8
      vertex -3.05985 123.204 -10.5
      vertex -3.05985 123.204 -8
    endloop
  endfacet
  facet normal 0.555382 0.831596 -0
    outer loop
      vertex -5.80363 120.46 -10.5
      vertex -6.48492 120.915 -8
      vertex -5.80363 120.46 -8
    endloop
  endfacet
  facet normal 0.555382 0.831596 0
    outer loop
      vertex -6.48492 120.915 -8
      vertex -5.80363 120.46 -10.5
      vertex -6.48492 120.915 -10.5
    endloop
  endfacet
  facet normal -0.980803 -0.195002 0
    outer loop
      vertex -2.9 122.4 -10.5
      vertex -3.05985 123.204 -8
      vertex -3.05985 123.204 -10.5
    endloop
  endfacet
  facet normal -0.980803 -0.195002 0
    outer loop
      vertex -3.05985 123.204 -8
      vertex -2.9 122.4 -10.5
      vertex -2.9 122.4 -8
    endloop
  endfacet
  facet normal -0.195262 -0.980751 0
    outer loop
      vertex -5 124.5 -10.5
      vertex -4.19636 124.34 -8
      vertex -5 124.5 -8
    endloop
  endfacet
  facet normal -0.195262 -0.980751 -0
    outer loop
      vertex -4.19636 124.34 -8
      vertex -5 124.5 -10.5
      vertex -4.19636 124.34 -10.5
    endloop
  endfacet
  facet normal 0.980803 0.195002 0
    outer loop
      vertex -6.94015 121.596 -8
      vertex -7.1 122.4 -10.5
      vertex -7.1 122.4 -8
    endloop
  endfacet
  facet normal 0.980803 0.195002 0
    outer loop
      vertex -7.1 122.4 -10.5
      vertex -6.94015 121.596 -8
      vertex -6.94015 121.596 -10.5
    endloop
  endfacet
  facet normal -0.980803 0.195002 0
    outer loop
      vertex -3.05985 121.596 -10.5
      vertex -2.9 122.4 -8
      vertex -2.9 122.4 -10.5
    endloop
  endfacet
  facet normal -0.980803 0.195002 0
    outer loop
      vertex -2.9 122.4 -8
      vertex -3.05985 121.596 -10.5
      vertex -3.05985 121.596 -8
    endloop
  endfacet
  facet normal -0.555387 -0.831592 0
    outer loop
      vertex -4.19636 124.34 -10.5
      vertex -3.51508 123.885 -8
      vertex -4.19636 124.34 -8
    endloop
  endfacet
  facet normal -0.555387 -0.831592 -0
    outer loop
      vertex -3.51508 123.885 -8
      vertex -4.19636 124.34 -10.5
      vertex -3.51508 123.885 -10.5
    endloop
  endfacet
  facet normal -0.555387 0.831592 0
    outer loop
      vertex -3.51508 120.915 -10.5
      vertex -4.19636 120.46 -8
      vertex -3.51508 120.915 -8
    endloop
  endfacet
  facet normal -0.555387 0.831592 0
    outer loop
      vertex -4.19636 120.46 -8
      vertex -3.51508 120.915 -10.5
      vertex -4.19636 120.46 -10.5
    endloop
  endfacet
  facet normal -0.195262 0.980751 0
    outer loop
      vertex -4.19636 120.46 -10.5
      vertex -5 120.3 -8
      vertex -4.19636 120.46 -8
    endloop
  endfacet
  facet normal -0.195262 0.980751 0
    outer loop
      vertex -5 120.3 -8
      vertex -4.19636 120.46 -10.5
      vertex -5 120.3 -10.5
    endloop
  endfacet
  facet normal 0.980803 -0.195002 0
    outer loop
      vertex -7.1 122.4 -8
      vertex -6.94015 123.204 -10.5
      vertex -6.94015 123.204 -8
    endloop
  endfacet
  facet normal 0.980803 -0.195002 0
    outer loop
      vertex -6.94015 123.204 -10.5
      vertex -7.1 122.4 -8
      vertex -7.1 122.4 -10.5
    endloop
  endfacet
  facet normal 0.195264 0.980751 -0
    outer loop
      vertex -5 120.3 -10.5
      vertex -5.80363 120.46 -8
      vertex -5 120.3 -8
    endloop
  endfacet
  facet normal 0.195264 0.980751 0
    outer loop
      vertex -5.80363 120.46 -8
      vertex -5 120.3 -10.5
      vertex -5.80363 120.46 -10.5
    endloop
  endfacet
  facet normal 0.831357 0.555739 0
    outer loop
      vertex -6.48492 120.915 -8
      vertex -6.94015 121.596 -10.5
      vertex -6.94015 121.596 -8
    endloop
  endfacet
  facet normal 0.831357 0.555739 0
    outer loop
      vertex -6.94015 121.596 -10.5
      vertex -6.48492 120.915 -8
      vertex -6.48492 120.915 -10.5
    endloop
  endfacet
  facet normal -0.831357 0.555739 0
    outer loop
      vertex -3.51508 120.915 -10.5
      vertex -3.05985 121.596 -8
      vertex -3.05985 121.596 -10.5
    endloop
  endfacet
  facet normal -0.831357 0.555739 0
    outer loop
      vertex -3.05985 121.596 -8
      vertex -3.51508 120.915 -10.5
      vertex -3.51508 120.915 -8
    endloop
  endfacet
endsolid OpenSCAD_Model
