solid OpenSCAD_Model
  facet normal 0.997857 0.0654276 0
    outer loop
      vertex 12 0 7
      vertex 11.8973 1.56631 4
      vertex 11.8973 1.56631 7
    endloop
  endfacet
  facet normal 0.997857 0.0654276 0
    outer loop
      vertex 11.8973 1.56631 4
      vertex 12 0 7
      vertex 12 0 4
    endloop
  endfacet
  facet normal 0.980789 0.195072 0
    outer loop
      vertex 11.8973 1.56631 7
      vertex 11.5911 3.10583 4
      vertex 11.5911 3.10583 7
    endloop
  endfacet
  facet normal 0.980789 0.195072 0
    outer loop
      vertex 11.5911 3.10583 4
      vertex 11.8973 1.56631 7
      vertex 11.8973 1.56631 4
    endloop
  endfacet
  facet normal 0.946941 0.321408 0
    outer loop
      vertex 11.5911 3.10583 7
      vertex 11.0866 4.5922 4
      vertex 11.0866 4.5922 7
    endloop
  endfacet
  facet normal 0.946941 0.321408 0
    outer loop
      vertex 11.0866 4.5922 4
      vertex 11.5911 3.10583 7
      vertex 11.5911 3.10583 4
    endloop
  endfacet
  facet normal 0.89686 0.442314 0
    outer loop
      vertex 11.0866 4.5922 7
      vertex 10.3923 6 4
      vertex 10.3923 6 7
    endloop
  endfacet
  facet normal 0.89686 0.442314 0
    outer loop
      vertex 10.3923 6 4
      vertex 11.0866 4.5922 7
      vertex 11.0866 4.5922 4
    endloop
  endfacet
  facet normal 0.831472 0.555567 0
    outer loop
      vertex 10.3923 6 7
      vertex 9.52024 7.30514 4
      vertex 9.52024 7.30514 7
    endloop
  endfacet
  facet normal 0.831472 0.555567 0
    outer loop
      vertex 9.52024 7.30514 4
      vertex 10.3923 6 7
      vertex 10.3923 6 4
    endloop
  endfacet
  facet normal 0.751838 0.659348 0
    outer loop
      vertex 9.52024 7.30514 7
      vertex 8.48528 8.48528 4
      vertex 8.48528 8.48528 7
    endloop
  endfacet
  facet normal 0.751838 0.659348 0
    outer loop
      vertex 8.48528 8.48528 4
      vertex 9.52024 7.30514 7
      vertex 9.52024 7.30514 4
    endloop
  endfacet
  facet normal 0.659348 0.751838 -0
    outer loop
      vertex 8.48528 8.48528 4
      vertex 7.30514 9.52024 7
      vertex 8.48528 8.48528 7
    endloop
  endfacet
  facet normal 0.659348 0.751838 0
    outer loop
      vertex 7.30514 9.52024 7
      vertex 8.48528 8.48528 4
      vertex 7.30514 9.52024 4
    endloop
  endfacet
  facet normal 0.555567 0.831472 -0
    outer loop
      vertex 7.30514 9.52024 4
      vertex 6 10.3923 7
      vertex 7.30514 9.52024 7
    endloop
  endfacet
  facet normal 0.555567 0.831472 0
    outer loop
      vertex 6 10.3923 7
      vertex 7.30514 9.52024 4
      vertex 6 10.3923 4
    endloop
  endfacet
  facet normal 0.442314 0.89686 -0
    outer loop
      vertex 6 10.3923 4
      vertex 4.5922 11.0866 7
      vertex 6 10.3923 7
    endloop
  endfacet
  facet normal 0.442314 0.89686 0
    outer loop
      vertex 4.5922 11.0866 7
      vertex 6 10.3923 4
      vertex 4.5922 11.0866 4
    endloop
  endfacet
  facet normal 0.321408 0.946941 -0
    outer loop
      vertex 4.5922 11.0866 4
      vertex 3.10583 11.5911 7
      vertex 4.5922 11.0866 7
    endloop
  endfacet
  facet normal 0.321408 0.946941 0
    outer loop
      vertex 3.10583 11.5911 7
      vertex 4.5922 11.0866 4
      vertex 3.10583 11.5911 4
    endloop
  endfacet
  facet normal 0.195072 0.980789 -0
    outer loop
      vertex 3.10583 11.5911 4
      vertex 1.56631 11.8973 7
      vertex 3.10583 11.5911 7
    endloop
  endfacet
  facet normal 0.195072 0.980789 0
    outer loop
      vertex 1.56631 11.8973 7
      vertex 3.10583 11.5911 4
      vertex 1.56631 11.8973 4
    endloop
  endfacet
  facet normal 0.0654276 0.997857 -0
    outer loop
      vertex 1.56631 11.8973 4
      vertex 0 12 7
      vertex 1.56631 11.8973 7
    endloop
  endfacet
  facet normal 0.0654276 0.997857 0
    outer loop
      vertex 0 12 7
      vertex 1.56631 11.8973 4
      vertex 0 12 4
    endloop
  endfacet
  facet normal -0.0654276 0.997857 0
    outer loop
      vertex 0 12 4
      vertex -1.56631 11.8973 7
      vertex 0 12 7
    endloop
  endfacet
  facet normal -0.0654276 0.997857 0
    outer loop
      vertex -1.56631 11.8973 7
      vertex 0 12 4
      vertex -1.56631 11.8973 4
    endloop
  endfacet
  facet normal -0.195072 0.980789 0
    outer loop
      vertex -1.56631 11.8973 4
      vertex -3.10583 11.5911 7
      vertex -1.56631 11.8973 7
    endloop
  endfacet
  facet normal -0.195072 0.980789 0
    outer loop
      vertex -3.10583 11.5911 7
      vertex -1.56631 11.8973 4
      vertex -3.10583 11.5911 4
    endloop
  endfacet
  facet normal -0.321408 0.946941 0
    outer loop
      vertex -3.10583 11.5911 4
      vertex -4.5922 11.0866 7
      vertex -3.10583 11.5911 7
    endloop
  endfacet
  facet normal -0.321408 0.946941 0
    outer loop
      vertex -4.5922 11.0866 7
      vertex -3.10583 11.5911 4
      vertex -4.5922 11.0866 4
    endloop
  endfacet
  facet normal -0.442314 0.89686 0
    outer loop
      vertex -4.5922 11.0866 4
      vertex -6 10.3923 7
      vertex -4.5922 11.0866 7
    endloop
  endfacet
  facet normal -0.442314 0.89686 0
    outer loop
      vertex -6 10.3923 7
      vertex -4.5922 11.0866 4
      vertex -6 10.3923 4
    endloop
  endfacet
  facet normal -0.555567 0.831472 0
    outer loop
      vertex -6 10.3923 4
      vertex -7.30514 9.52024 7
      vertex -6 10.3923 7
    endloop
  endfacet
  facet normal -0.555567 0.831472 0
    outer loop
      vertex -7.30514 9.52024 7
      vertex -6 10.3923 4
      vertex -7.30514 9.52024 4
    endloop
  endfacet
  facet normal -0.659348 0.751838 0
    outer loop
      vertex -7.30514 9.52024 4
      vertex -8.48528 8.48528 7
      vertex -7.30514 9.52024 7
    endloop
  endfacet
  facet normal -0.659348 0.751838 0
    outer loop
      vertex -8.48528 8.48528 7
      vertex -7.30514 9.52024 4
      vertex -8.48528 8.48528 4
    endloop
  endfacet
  facet normal -0.751838 0.659348 0
    outer loop
      vertex -9.52024 7.30514 4
      vertex -8.48528 8.48528 7
      vertex -8.48528 8.48528 4
    endloop
  endfacet
  facet normal -0.751838 0.659348 0
    outer loop
      vertex -8.48528 8.48528 7
      vertex -9.52024 7.30514 4
      vertex -9.52024 7.30514 7
    endloop
  endfacet
  facet normal -0.831472 0.555567 0
    outer loop
      vertex -10.3923 6 4
      vertex -9.52024 7.30514 7
      vertex -9.52024 7.30514 4
    endloop
  endfacet
  facet normal -0.831472 0.555567 0
    outer loop
      vertex -9.52024 7.30514 7
      vertex -10.3923 6 4
      vertex -10.3923 6 7
    endloop
  endfacet
  facet normal -0.89686 0.442314 0
    outer loop
      vertex -11.0866 4.5922 4
      vertex -10.3923 6 7
      vertex -10.3923 6 4
    endloop
  endfacet
  facet normal -0.89686 0.442314 0
    outer loop
      vertex -10.3923 6 7
      vertex -11.0866 4.5922 4
      vertex -11.0866 4.5922 7
    endloop
  endfacet
  facet normal -0.946941 0.321408 0
    outer loop
      vertex -11.5911 3.10583 4
      vertex -11.0866 4.5922 7
      vertex -11.0866 4.5922 4
    endloop
  endfacet
  facet normal -0.946941 0.321408 0
    outer loop
      vertex -11.0866 4.5922 7
      vertex -11.5911 3.10583 4
      vertex -11.5911 3.10583 7
    endloop
  endfacet
  facet normal -0.980789 0.195072 0
    outer loop
      vertex -11.8973 1.56631 4
      vertex -11.5911 3.10583 7
      vertex -11.5911 3.10583 4
    endloop
  endfacet
  facet normal -0.980789 0.195072 0
    outer loop
      vertex -11.5911 3.10583 7
      vertex -11.8973 1.56631 4
      vertex -11.8973 1.56631 7
    endloop
  endfacet
  facet normal -0.997857 0.0654276 0
    outer loop
      vertex -12 0 4
      vertex -11.8973 1.56631 7
      vertex -11.8973 1.56631 4
    endloop
  endfacet
  facet normal -0.997857 0.0654276 0
    outer loop
      vertex -11.8973 1.56631 7
      vertex -12 0 4
      vertex -12 0 7
    endloop
  endfacet
  facet normal -0.997857 -0.0654276 0
    outer loop
      vertex -11.8973 -1.56631 4
      vertex -12 0 7
      vertex -12 0 4
    endloop
  endfacet
  facet normal -0.997857 -0.0654276 0
    outer loop
      vertex -12 0 7
      vertex -11.8973 -1.56631 4
      vertex -11.8973 -1.56631 7
    endloop
  endfacet
  facet normal -0.980789 -0.195072 0
    outer loop
      vertex -11.5911 -3.10583 4
      vertex -11.8973 -1.56631 7
      vertex -11.8973 -1.56631 4
    endloop
  endfacet
  facet normal -0.980789 -0.195072 0
    outer loop
      vertex -11.8973 -1.56631 7
      vertex -11.5911 -3.10583 4
      vertex -11.5911 -3.10583 7
    endloop
  endfacet
  facet normal -0.946941 -0.321408 0
    outer loop
      vertex -11.0866 -4.5922 4
      vertex -11.5911 -3.10583 7
      vertex -11.5911 -3.10583 4
    endloop
  endfacet
  facet normal -0.946941 -0.321408 0
    outer loop
      vertex -11.5911 -3.10583 7
      vertex -11.0866 -4.5922 4
      vertex -11.0866 -4.5922 7
    endloop
  endfacet
  facet normal -0.89686 -0.442314 0
    outer loop
      vertex -10.3923 -6 4
      vertex -11.0866 -4.5922 7
      vertex -11.0866 -4.5922 4
    endloop
  endfacet
  facet normal -0.89686 -0.442314 0
    outer loop
      vertex -11.0866 -4.5922 7
      vertex -10.3923 -6 4
      vertex -10.3923 -6 7
    endloop
  endfacet
  facet normal -0.831472 -0.555567 0
    outer loop
      vertex -9.52024 -7.30514 4
      vertex -10.3923 -6 7
      vertex -10.3923 -6 4
    endloop
  endfacet
  facet normal -0.831472 -0.555567 0
    outer loop
      vertex -10.3923 -6 7
      vertex -9.52024 -7.30514 4
      vertex -9.52024 -7.30514 7
    endloop
  endfacet
  facet normal -0.751838 -0.659348 0
    outer loop
      vertex -8.48528 -8.48528 4
      vertex -9.52024 -7.30514 7
      vertex -9.52024 -7.30514 4
    endloop
  endfacet
  facet normal -0.751838 -0.659348 0
    outer loop
      vertex -9.52024 -7.30514 7
      vertex -8.48528 -8.48528 4
      vertex -8.48528 -8.48528 7
    endloop
  endfacet
  facet normal -0.659348 -0.751838 0
    outer loop
      vertex -8.48528 -8.48528 4
      vertex -7.30514 -9.52024 7
      vertex -8.48528 -8.48528 7
    endloop
  endfacet
  facet normal -0.659348 -0.751838 -0
    outer loop
      vertex -7.30514 -9.52024 7
      vertex -8.48528 -8.48528 4
      vertex -7.30514 -9.52024 4
    endloop
  endfacet
  facet normal -0.555567 -0.831472 0
    outer loop
      vertex -7.30514 -9.52024 4
      vertex -6 -10.3923 7
      vertex -7.30514 -9.52024 7
    endloop
  endfacet
  facet normal -0.555567 -0.831472 -0
    outer loop
      vertex -6 -10.3923 7
      vertex -7.30514 -9.52024 4
      vertex -6 -10.3923 4
    endloop
  endfacet
  facet normal -0.442314 -0.89686 0
    outer loop
      vertex -6 -10.3923 4
      vertex -4.5922 -11.0866 7
      vertex -6 -10.3923 7
    endloop
  endfacet
  facet normal -0.442314 -0.89686 -0
    outer loop
      vertex -4.5922 -11.0866 7
      vertex -6 -10.3923 4
      vertex -4.5922 -11.0866 4
    endloop
  endfacet
  facet normal -0.321408 -0.946941 0
    outer loop
      vertex -4.5922 -11.0866 4
      vertex -3.10583 -11.5911 7
      vertex -4.5922 -11.0866 7
    endloop
  endfacet
  facet normal -0.321408 -0.946941 -0
    outer loop
      vertex -3.10583 -11.5911 7
      vertex -4.5922 -11.0866 4
      vertex -3.10583 -11.5911 4
    endloop
  endfacet
  facet normal -0.195072 -0.980789 0
    outer loop
      vertex -3.10583 -11.5911 4
      vertex -1.56631 -11.8973 7
      vertex -3.10583 -11.5911 7
    endloop
  endfacet
  facet normal -0.195072 -0.980789 -0
    outer loop
      vertex -1.56631 -11.8973 7
      vertex -3.10583 -11.5911 4
      vertex -1.56631 -11.8973 4
    endloop
  endfacet
  facet normal -0.0654276 -0.997857 0
    outer loop
      vertex -1.56631 -11.8973 4
      vertex 0 -12 7
      vertex -1.56631 -11.8973 7
    endloop
  endfacet
  facet normal -0.0654276 -0.997857 -0
    outer loop
      vertex 0 -12 7
      vertex -1.56631 -11.8973 4
      vertex 0 -12 4
    endloop
  endfacet
  facet normal 0.0654276 -0.997857 0
    outer loop
      vertex 0 -12 4
      vertex 1.56631 -11.8973 7
      vertex 0 -12 7
    endloop
  endfacet
  facet normal 0.0654276 -0.997857 0
    outer loop
      vertex 1.56631 -11.8973 7
      vertex 0 -12 4
      vertex 1.56631 -11.8973 4
    endloop
  endfacet
  facet normal 0.195072 -0.980789 0
    outer loop
      vertex 1.56631 -11.8973 4
      vertex 3.10583 -11.5911 7
      vertex 1.56631 -11.8973 7
    endloop
  endfacet
  facet normal 0.195072 -0.980789 0
    outer loop
      vertex 3.10583 -11.5911 7
      vertex 1.56631 -11.8973 4
      vertex 3.10583 -11.5911 4
    endloop
  endfacet
  facet normal 0.321408 -0.946941 0
    outer loop
      vertex 3.10583 -11.5911 4
      vertex 4.5922 -11.0866 7
      vertex 3.10583 -11.5911 7
    endloop
  endfacet
  facet normal 0.321408 -0.946941 0
    outer loop
      vertex 4.5922 -11.0866 7
      vertex 3.10583 -11.5911 4
      vertex 4.5922 -11.0866 4
    endloop
  endfacet
  facet normal 0.442314 -0.89686 0
    outer loop
      vertex 4.5922 -11.0866 4
      vertex 6 -10.3923 7
      vertex 4.5922 -11.0866 7
    endloop
  endfacet
  facet normal 0.442314 -0.89686 0
    outer loop
      vertex 6 -10.3923 7
      vertex 4.5922 -11.0866 4
      vertex 6 -10.3923 4
    endloop
  endfacet
  facet normal 0.555567 -0.831472 0
    outer loop
      vertex 6 -10.3923 4
      vertex 7.30514 -9.52024 7
      vertex 6 -10.3923 7
    endloop
  endfacet
  facet normal 0.555567 -0.831472 0
    outer loop
      vertex 7.30514 -9.52024 7
      vertex 6 -10.3923 4
      vertex 7.30514 -9.52024 4
    endloop
  endfacet
  facet normal 0.659348 -0.751838 0
    outer loop
      vertex 7.30514 -9.52024 4
      vertex 8.48528 -8.48528 7
      vertex 7.30514 -9.52024 7
    endloop
  endfacet
  facet normal 0.659348 -0.751838 0
    outer loop
      vertex 8.48528 -8.48528 7
      vertex 7.30514 -9.52024 4
      vertex 8.48528 -8.48528 4
    endloop
  endfacet
  facet normal 0.751838 -0.659348 0
    outer loop
      vertex 8.48528 -8.48528 7
      vertex 9.52024 -7.30514 4
      vertex 9.52024 -7.30514 7
    endloop
  endfacet
  facet normal 0.751838 -0.659348 0
    outer loop
      vertex 9.52024 -7.30514 4
      vertex 8.48528 -8.48528 7
      vertex 8.48528 -8.48528 4
    endloop
  endfacet
  facet normal 0.831472 -0.555567 0
    outer loop
      vertex 9.52024 -7.30514 7
      vertex 10.3923 -6 4
      vertex 10.3923 -6 7
    endloop
  endfacet
  facet normal 0.831472 -0.555567 0
    outer loop
      vertex 10.3923 -6 4
      vertex 9.52024 -7.30514 7
      vertex 9.52024 -7.30514 4
    endloop
  endfacet
  facet normal 0.89686 -0.442314 0
    outer loop
      vertex 10.3923 -6 7
      vertex 11.0866 -4.5922 4
      vertex 11.0866 -4.5922 7
    endloop
  endfacet
  facet normal 0.89686 -0.442314 0
    outer loop
      vertex 11.0866 -4.5922 4
      vertex 10.3923 -6 7
      vertex 10.3923 -6 4
    endloop
  endfacet
  facet normal 0.946941 -0.321408 0
    outer loop
      vertex 11.0866 -4.5922 7
      vertex 11.5911 -3.10583 4
      vertex 11.5911 -3.10583 7
    endloop
  endfacet
  facet normal 0.946941 -0.321408 0
    outer loop
      vertex 11.5911 -3.10583 4
      vertex 11.0866 -4.5922 7
      vertex 11.0866 -4.5922 4
    endloop
  endfacet
  facet normal 0.980789 -0.195072 0
    outer loop
      vertex 11.5911 -3.10583 7
      vertex 11.8973 -1.56631 4
      vertex 11.8973 -1.56631 7
    endloop
  endfacet
  facet normal 0.980789 -0.195072 0
    outer loop
      vertex 11.8973 -1.56631 4
      vertex 11.5911 -3.10583 7
      vertex 11.5911 -3.10583 4
    endloop
  endfacet
  facet normal 0.997857 -0.0654276 0
    outer loop
      vertex 11.8973 -1.56631 7
      vertex 12 0 4
      vertex 12 0 7
    endloop
  endfacet
  facet normal 0.997857 -0.0654276 0
    outer loop
      vertex 12 0 4
      vertex 11.8973 -1.56631 7
      vertex 11.8973 -1.56631 4
    endloop
  endfacet
  facet normal 0 0 -1
    outer loop
      vertex 11.8973 -1.56631 4
      vertex 11.8973 1.56631 4
      vertex 12 0 4
    endloop
  endfacet
  facet normal 0 0 -1
    outer loop
      vertex 11.5911 -3.10583 4
      vertex 11.8973 1.56631 4
      vertex 11.8973 -1.56631 4
    endloop
  endfacet
  facet normal 0 0 -1
    outer loop
      vertex 11.5911 -3.10583 4
      vertex 11.5911 3.10583 4
      vertex 11.8973 1.56631 4
    endloop
  endfacet
  facet normal 0 0 -1
    outer loop
      vertex 11.0866 -4.5922 4
      vertex 11.5911 3.10583 4
      vertex 11.5911 -3.10583 4
    endloop
  endfacet
  facet normal 0 0 -1
    outer loop
      vertex 11.0866 -4.5922 4
      vertex 11.0866 4.5922 4
      vertex 11.5911 3.10583 4
    endloop
  endfacet
  facet normal 0 0 -1
    outer loop
      vertex 10.3923 -6 4
      vertex 11.0866 4.5922 4
      vertex 11.0866 -4.5922 4
    endloop
  endfacet
  facet normal 0 0 -1
    outer loop
      vertex 10.3923 -6 4
      vertex 10.3923 6 4
      vertex 11.0866 4.5922 4
    endloop
  endfacet
  facet normal 0 0 -1
    outer loop
      vertex 9.52024 -7.30514 4
      vertex 10.3923 6 4
      vertex 10.3923 -6 4
    endloop
  endfacet
  facet normal 0 0 -1
    outer loop
      vertex 9.52024 -7.30514 4
      vertex 9.52024 7.30514 4
      vertex 10.3923 6 4
    endloop
  endfacet
  facet normal 0 0 -1
    outer loop
      vertex 8.48528 -8.48528 4
      vertex 9.52024 7.30514 4
      vertex 9.52024 -7.30514 4
    endloop
  endfacet
  facet normal 0 0 -1
    outer loop
      vertex 8.48528 -8.48528 4
      vertex 8.48528 8.48528 4
      vertex 9.52024 7.30514 4
    endloop
  endfacet
  facet normal 0 0 -1
    outer loop
      vertex 7.30514 -9.52024 4
      vertex 8.48528 8.48528 4
      vertex 8.48528 -8.48528 4
    endloop
  endfacet
  facet normal 0 0 -1
    outer loop
      vertex 7.30514 -9.52024 4
      vertex 7.30514 9.52024 4
      vertex 8.48528 8.48528 4
    endloop
  endfacet
  facet normal 0 0 -1
    outer loop
      vertex 6 -10.3923 4
      vertex 7.30514 9.52024 4
      vertex 7.30514 -9.52024 4
    endloop
  endfacet
  facet normal 0 0 -1
    outer loop
      vertex 6 -10.3923 4
      vertex 6 10.3923 4
      vertex 7.30514 9.52024 4
    endloop
  endfacet
  facet normal 0 0 -1
    outer loop
      vertex 4.5922 -11.0866 4
      vertex 6 10.3923 4
      vertex 6 -10.3923 4
    endloop
  endfacet
  facet normal 0 0 -1
    outer loop
      vertex 4.5922 -11.0866 4
      vertex 4.5922 11.0866 4
      vertex 6 10.3923 4
    endloop
  endfacet
  facet normal 0 0 -1
    outer loop
      vertex 3.10583 -11.5911 4
      vertex 4.5922 11.0866 4
      vertex 4.5922 -11.0866 4
    endloop
  endfacet
  facet normal 0 0 -1
    outer loop
      vertex 3.10583 -11.5911 4
      vertex 3.10583 11.5911 4
      vertex 4.5922 11.0866 4
    endloop
  endfacet
  facet normal 0 0 -1
    outer loop
      vertex 1.56631 -11.8973 4
      vertex 3.10583 11.5911 4
      vertex 3.10583 -11.5911 4
    endloop
  endfacet
  facet normal 0 0 -1
    outer loop
      vertex 1.56631 -11.8973 4
      vertex 1.56631 11.8973 4
      vertex 3.10583 11.5911 4
    endloop
  endfacet
  facet normal 0 0 -1
    outer loop
      vertex 0 -12 4
      vertex 1.56631 11.8973 4
      vertex 1.56631 -11.8973 4
    endloop
  endfacet
  facet normal 0 0 -1
    outer loop
      vertex 0 -12 4
      vertex 0 12 4
      vertex 1.56631 11.8973 4
    endloop
  endfacet
  facet normal 0 0 -1
    outer loop
      vertex -1.56631 -11.8973 4
      vertex 0 12 4
      vertex 0 -12 4
    endloop
  endfacet
  facet normal 0 0 -1
    outer loop
      vertex -1.56631 -11.8973 4
      vertex -1.56631 11.8973 4
      vertex 0 12 4
    endloop
  endfacet
  facet normal 0 0 -1
    outer loop
      vertex -3.10583 -11.5911 4
      vertex -1.56631 11.8973 4
      vertex -1.56631 -11.8973 4
    endloop
  endfacet
  facet normal 0 0 -1
    outer loop
      vertex -3.10583 -11.5911 4
      vertex -3.10583 11.5911 4
      vertex -1.56631 11.8973 4
    endloop
  endfacet
  facet normal 0 0 -1
    outer loop
      vertex -4.5922 -11.0866 4
      vertex -3.10583 11.5911 4
      vertex -3.10583 -11.5911 4
    endloop
  endfacet
  facet normal 0 0 -1
    outer loop
      vertex -4.5922 -11.0866 4
      vertex -4.5922 11.0866 4
      vertex -3.10583 11.5911 4
    endloop
  endfacet
  facet normal 0 0 -1
    outer loop
      vertex -6 -10.3923 4
      vertex -4.5922 11.0866 4
      vertex -4.5922 -11.0866 4
    endloop
  endfacet
  facet normal 0 0 -1
    outer loop
      vertex -6 -10.3923 4
      vertex -6 10.3923 4
      vertex -4.5922 11.0866 4
    endloop
  endfacet
  facet normal 0 0 -1
    outer loop
      vertex -7.30514 -9.52024 4
      vertex -6 10.3923 4
      vertex -6 -10.3923 4
    endloop
  endfacet
  facet normal 0 0 -1
    outer loop
      vertex -7.30514 -9.52024 4
      vertex -7.30514 9.52024 4
      vertex -6 10.3923 4
    endloop
  endfacet
  facet normal 0 0 -1
    outer loop
      vertex -8.48528 -8.48528 4
      vertex -7.30514 9.52024 4
      vertex -7.30514 -9.52024 4
    endloop
  endfacet
  facet normal 0 0 -1
    outer loop
      vertex -8.48528 -8.48528 4
      vertex -8.48528 8.48528 4
      vertex -7.30514 9.52024 4
    endloop
  endfacet
  facet normal 0 0 -1
    outer loop
      vertex -9.52024 -7.30514 4
      vertex -8.48528 8.48528 4
      vertex -8.48528 -8.48528 4
    endloop
  endfacet
  facet normal 0 0 -1
    outer loop
      vertex -9.52024 -7.30514 4
      vertex -9.52024 7.30514 4
      vertex -8.48528 8.48528 4
    endloop
  endfacet
  facet normal 0 0 -1
    outer loop
      vertex -10.3923 -6 4
      vertex -9.52024 7.30514 4
      vertex -9.52024 -7.30514 4
    endloop
  endfacet
  facet normal 0 0 -1
    outer loop
      vertex -10.3923 -6 4
      vertex -10.3923 6 4
      vertex -9.52024 7.30514 4
    endloop
  endfacet
  facet normal 0 0 -1
    outer loop
      vertex -11.0866 -4.5922 4
      vertex -10.3923 6 4
      vertex -10.3923 -6 4
    endloop
  endfacet
  facet normal 0 0 -1
    outer loop
      vertex -11.0866 -4.5922 4
      vertex -11.0866 4.5922 4
      vertex -10.3923 6 4
    endloop
  endfacet
  facet normal 0 0 -1
    outer loop
      vertex -11.5911 -3.10583 4
      vertex -11.0866 4.5922 4
      vertex -11.0866 -4.5922 4
    endloop
  endfacet
  facet normal 0 0 -1
    outer loop
      vertex -11.5911 -3.10583 4
      vertex -11.5911 3.10583 4
      vertex -11.0866 4.5922 4
    endloop
  endfacet
  facet normal 0 0 -1
    outer loop
      vertex -11.8973 -1.56631 4
      vertex -11.5911 3.10583 4
      vertex -11.5911 -3.10583 4
    endloop
  endfacet
  facet normal 0 0 -1
    outer loop
      vertex -11.8973 -1.56631 4
      vertex -11.8973 1.56631 4
      vertex -11.5911 3.10583 4
    endloop
  endfacet
  facet normal 0 -0 -1
    outer loop
      vertex -11.8973 1.56631 4
      vertex -11.8973 -1.56631 4
      vertex -12 0 4
    endloop
  endfacet
  facet normal 0 0 1
    outer loop
      vertex 11.8973 1.56631 7
      vertex 11.8973 -1.56631 7
      vertex 12 0 7
    endloop
  endfacet
  facet normal 0 0 1
    outer loop
      vertex 11.5911 3.10583 7
      vertex 11.8973 -1.56631 7
      vertex 11.8973 1.56631 7
    endloop
  endfacet
  facet normal 0 0 1
    outer loop
      vertex 11.5911 3.10583 7
      vertex 11.5911 -3.10583 7
      vertex 11.8973 -1.56631 7
    endloop
  endfacet
  facet normal 0 0 1
    outer loop
      vertex 11.0866 4.5922 7
      vertex 11.5911 -3.10583 7
      vertex 11.5911 3.10583 7
    endloop
  endfacet
  facet normal 0 0 1
    outer loop
      vertex 11.0866 4.5922 7
      vertex 11.0866 -4.5922 7
      vertex 11.5911 -3.10583 7
    endloop
  endfacet
  facet normal 0 0 1
    outer loop
      vertex 10.3923 6 7
      vertex 11.0866 -4.5922 7
      vertex 11.0866 4.5922 7
    endloop
  endfacet
  facet normal 0 0 1
    outer loop
      vertex 10.3923 6 7
      vertex 10.3923 -6 7
      vertex 11.0866 -4.5922 7
    endloop
  endfacet
  facet normal 0 0 1
    outer loop
      vertex 9.52024 7.30514 7
      vertex 10.3923 -6 7
      vertex 10.3923 6 7
    endloop
  endfacet
  facet normal 0 0 1
    outer loop
      vertex 9.52024 7.30514 7
      vertex 9.52024 -7.30514 7
      vertex 10.3923 -6 7
    endloop
  endfacet
  facet normal 0 0 1
    outer loop
      vertex 8.48528 8.48528 7
      vertex 9.52024 -7.30514 7
      vertex 9.52024 7.30514 7
    endloop
  endfacet
  facet normal 0 0 1
    outer loop
      vertex 8.48528 8.48528 7
      vertex 8.48528 -8.48528 7
      vertex 9.52024 -7.30514 7
    endloop
  endfacet
  facet normal 0 0 1
    outer loop
      vertex 7.30514 9.52024 7
      vertex 8.48528 -8.48528 7
      vertex 8.48528 8.48528 7
    endloop
  endfacet
  facet normal 0 0 1
    outer loop
      vertex 7.30514 9.52024 7
      vertex 7.30514 -9.52024 7
      vertex 8.48528 -8.48528 7
    endloop
  endfacet
  facet normal 0 0 1
    outer loop
      vertex 6 10.3923 7
      vertex 7.30514 -9.52024 7
      vertex 7.30514 9.52024 7
    endloop
  endfacet
  facet normal 0 0 1
    outer loop
      vertex 6 10.3923 7
      vertex 6 -10.3923 7
      vertex 7.30514 -9.52024 7
    endloop
  endfacet
  facet normal 0 0 1
    outer loop
      vertex 4.5922 11.0866 7
      vertex 6 -10.3923 7
      vertex 6 10.3923 7
    endloop
  endfacet
  facet normal 0 0 1
    outer loop
      vertex 4.5922 11.0866 7
      vertex 4.5922 -11.0866 7
      vertex 6 -10.3923 7
    endloop
  endfacet
  facet normal 0 0 1
    outer loop
      vertex 3.10583 11.5911 7
      vertex 4.5922 -11.0866 7
      vertex 4.5922 11.0866 7
    endloop
  endfacet
  facet normal 0 0 1
    outer loop
      vertex 3.10583 11.5911 7
      vertex 3.10583 -11.5911 7
      vertex 4.5922 -11.0866 7
    endloop
  endfacet
  facet normal 0 0 1
    outer loop
      vertex 1.56631 11.8973 7
      vertex 3.10583 -11.5911 7
      vertex 3.10583 11.5911 7
    endloop
  endfacet
  facet normal 0 0 1
    outer loop
      vertex 1.56631 11.8973 7
      vertex 1.56631 -11.8973 7
      vertex 3.10583 -11.5911 7
    endloop
  endfacet
  facet normal 0 0 1
    outer loop
      vertex 0 12 7
      vertex 1.56631 -11.8973 7
      vertex 1.56631 11.8973 7
    endloop
  endfacet
  facet normal 0 0 1
    outer loop
      vertex 0 12 7
      vertex 0 -12 7
      vertex 1.56631 -11.8973 7
    endloop
  endfacet
  facet normal -0 0 1
    outer loop
      vertex -1.56631 11.8973 7
      vertex 0 -12 7
      vertex 0 12 7
    endloop
  endfacet
  facet normal 0 0 1
    outer loop
      vertex -1.56631 11.8973 7
      vertex -1.56631 -11.8973 7
      vertex 0 -12 7
    endloop
  endfacet
  facet normal -0 0 1
    outer loop
      vertex -3.10583 11.5911 7
      vertex -1.56631 -11.8973 7
      vertex -1.56631 11.8973 7
    endloop
  endfacet
  facet normal 0 0 1
    outer loop
      vertex -3.10583 11.5911 7
      vertex -3.10583 -11.5911 7
      vertex -1.56631 -11.8973 7
    endloop
  endfacet
  facet normal -0 0 1
    outer loop
      vertex -4.5922 11.0866 7
      vertex -3.10583 -11.5911 7
      vertex -3.10583 11.5911 7
    endloop
  endfacet
  facet normal 0 0 1
    outer loop
      vertex -4.5922 11.0866 7
      vertex -4.5922 -11.0866 7
      vertex -3.10583 -11.5911 7
    endloop
  endfacet
  facet normal -0 0 1
    outer loop
      vertex -6 10.3923 7
      vertex -4.5922 -11.0866 7
      vertex -4.5922 11.0866 7
    endloop
  endfacet
  facet normal 0 0 1
    outer loop
      vertex -6 10.3923 7
      vertex -6 -10.3923 7
      vertex -4.5922 -11.0866 7
    endloop
  endfacet
  facet normal -0 0 1
    outer loop
      vertex -7.30514 9.52024 7
      vertex -6 -10.3923 7
      vertex -6 10.3923 7
    endloop
  endfacet
  facet normal 0 0 1
    outer loop
      vertex -7.30514 9.52024 7
      vertex -7.30514 -9.52024 7
      vertex -6 -10.3923 7
    endloop
  endfacet
  facet normal -0 0 1
    outer loop
      vertex -8.48528 8.48528 7
      vertex -7.30514 -9.52024 7
      vertex -7.30514 9.52024 7
    endloop
  endfacet
  facet normal 0 0 1
    outer loop
      vertex -8.48528 8.48528 7
      vertex -8.48528 -8.48528 7
      vertex -7.30514 -9.52024 7
    endloop
  endfacet
  facet normal -0 0 1
    outer loop
      vertex -9.52024 7.30514 7
      vertex -8.48528 -8.48528 7
      vertex -8.48528 8.48528 7
    endloop
  endfacet
  facet normal 0 0 1
    outer loop
      vertex -9.52024 7.30514 7
      vertex -9.52024 -7.30514 7
      vertex -8.48528 -8.48528 7
    endloop
  endfacet
  facet normal -0 0 1
    outer loop
      vertex -10.3923 6 7
      vertex -9.52024 -7.30514 7
      vertex -9.52024 7.30514 7
    endloop
  endfacet
  facet normal 0 0 1
    outer loop
      vertex -10.3923 6 7
      vertex -10.3923 -6 7
      vertex -9.52024 -7.30514 7
    endloop
  endfacet
  facet normal -0 0 1
    outer loop
      vertex -11.0866 4.5922 7
      vertex -10.3923 -6 7
      vertex -10.3923 6 7
    endloop
  endfacet
  facet normal 0 0 1
    outer loop
      vertex -11.0866 4.5922 7
      vertex -11.0866 -4.5922 7
      vertex -10.3923 -6 7
    endloop
  endfacet
  facet normal -0 0 1
    outer loop
      vertex -11.5911 3.10583 7
      vertex -11.0866 -4.5922 7
      vertex -11.0866 4.5922 7
    endloop
  endfacet
  facet normal 0 0 1
    outer loop
      vertex -11.5911 3.10583 7
      vertex -11.5911 -3.10583 7
      vertex -11.0866 -4.5922 7
    endloop
  endfacet
  facet normal -0 0 1
    outer loop
      vertex -11.8973 1.56631 7
      vertex -11.5911 -3.10583 7
      vertex -11.5911 3.10583 7
    endloop
  endfacet
  facet normal 0 0 1
    outer loop
      vertex -11.8973 1.56631 7
      vertex -11.8973 -1.56631 7
      vertex -11.5911 -3.10583 7
    endloop
  endfacet
  facet normal 0 -0 1
    outer loop
      vertex -11.8973 -1.56631 7
      vertex -11.8973 1.56631 7
      vertex -12 0 7
    endloop
  endfacet
endsolid OpenSCAD_Model
