solid OpenSCAD_Model
  facet normal -0 0 1
    outer loop
      vertex 11.5 54.1 -110.1
      vertex 15.8 41.9 -110.1
      vertex 15.8 54.1 -110.1
    endloop
  endfacet
  facet normal 0 0 1
    outer loop
      vertex 15.8 41.9 -110.1
      vertex 11.5 54.1 -110.1
      vertex 11.5 41.9 -110.1
    endloop
  endfacet
  facet normal -0 0 1
    outer loop
      vertex -6.9 54.1 -110.1
      vertex 9 41.9 -110.1
      vertex 9 54.1 -110.1
    endloop
  endfacet
  facet normal 0 0 1
    outer loop
      vertex 9 41.9 -110.1
      vertex -6.9 54.1 -110.1
      vertex -6.9 41.9 -110.1
    endloop
  endfacet
  facet normal 1 0 0
    outer loop
      vertex 15.8 50.2825 -116.742
      vertex 15.8 54.1 -110.1
      vertex 15.8 50.4 -116
    endloop
  endfacet
  facet normal 1 0 0
    outer loop
      vertex 15.8 54.1 -110.1
      vertex 15.8 50.2825 -115.258
      vertex 15.8 50.4 -116
    endloop
  endfacet
  facet normal 1 0 0
    outer loop
      vertex 15.8 54.1 -110.1
      vertex 15.8 49.9416 -114.589
      vertex 15.8 50.2825 -115.258
    endloop
  endfacet
  facet normal 1 0 0
    outer loop
      vertex 15.8 54.1 -110.1
      vertex 15.8 49.4107 -114.058
      vertex 15.8 49.9416 -114.589
    endloop
  endfacet
  facet normal 1 0 0
    outer loop
      vertex 15.8 54.1 -110.1
      vertex 15.8 48.7416 -113.717
      vertex 15.8 49.4107 -114.058
    endloop
  endfacet
  facet normal 1 0 0
    outer loop
      vertex 15.8 54.1 -110.1
      vertex 15.8 48 -113.6
      vertex 15.8 48.7416 -113.717
    endloop
  endfacet
  facet normal 1 -0 0
    outer loop
      vertex 15.8 41.9 -110.1
      vertex 15.8 48 -113.6
      vertex 15.8 54.1 -110.1
    endloop
  endfacet
  facet normal 1 0 0
    outer loop
      vertex 15.8 48 -113.6
      vertex 15.8 41.9 -110.1
      vertex 15.8 47.2584 -113.717
    endloop
  endfacet
  facet normal 1 0 0
    outer loop
      vertex 15.8 45.7175 -115.258
      vertex 15.8 41.9 -110.1
      vertex 15.8 45.6 -116
    endloop
  endfacet
  facet normal 1 0 0
    outer loop
      vertex 15.8 46.0584 -114.589
      vertex 15.8 41.9 -110.1
      vertex 15.8 45.7175 -115.258
    endloop
  endfacet
  facet normal 1 0 0
    outer loop
      vertex 15.8 46.5893 -114.058
      vertex 15.8 41.9 -110.1
      vertex 15.8 46.0584 -114.589
    endloop
  endfacet
  facet normal 1 0 0
    outer loop
      vertex 15.8 47.2584 -113.717
      vertex 15.8 41.9 -110.1
      vertex 15.8 46.5893 -114.058
    endloop
  endfacet
  facet normal 1 0 0
    outer loop
      vertex 15.8 54.1 -110.1
      vertex 15.8 50.2825 -116.742
      vertex 15.8 54.1 -132.6
    endloop
  endfacet
  facet normal 1 -0 0
    outer loop
      vertex 15.8 49.9416 -117.411
      vertex 15.8 54.1 -132.6
      vertex 15.8 50.2825 -116.742
    endloop
  endfacet
  facet normal 1 -0 0
    outer loop
      vertex 15.8 49.4107 -117.942
      vertex 15.8 54.1 -132.6
      vertex 15.8 49.9416 -117.411
    endloop
  endfacet
  facet normal 1 -0 0
    outer loop
      vertex 15.8 48.7416 -118.283
      vertex 15.8 54.1 -132.6
      vertex 15.8 49.4107 -117.942
    endloop
  endfacet
  facet normal 1 -0 0
    outer loop
      vertex 15.8 48 -118.4
      vertex 15.8 54.1 -132.6
      vertex 15.8 48.7416 -118.283
    endloop
  endfacet
  facet normal 1 0 0
    outer loop
      vertex 15.8 41.9 -132.6
      vertex 15.8 48 -118.4
      vertex 15.8 47.2584 -118.283
    endloop
  endfacet
  facet normal 1 0 0
    outer loop
      vertex 15.8 41.9 -132.6
      vertex 15.8 47.2584 -118.283
      vertex 15.8 46.5893 -117.942
    endloop
  endfacet
  facet normal 1 0 0
    outer loop
      vertex 15.8 41.9 -132.6
      vertex 15.8 46.5893 -117.942
      vertex 15.8 46.0584 -117.411
    endloop
  endfacet
  facet normal 1 0 0
    outer loop
      vertex 15.8 41.9 -110.1
      vertex 15.8 45.7175 -116.742
      vertex 15.8 45.6 -116
    endloop
  endfacet
  facet normal 1 0 0
    outer loop
      vertex 15.8 41.9 -132.6
      vertex 15.8 45.7175 -116.742
      vertex 15.8 41.9 -110.1
    endloop
  endfacet
  facet normal 1 0 0
    outer loop
      vertex 15.8 45.7175 -116.742
      vertex 15.8 41.9 -132.6
      vertex 15.8 46.0584 -117.411
    endloop
  endfacet
  facet normal 1 0 0
    outer loop
      vertex 15.8 48 -118.4
      vertex 15.8 41.9 -132.6
      vertex 15.8 54.1 -132.6
    endloop
  endfacet
  facet normal -1 0 0
    outer loop
      vertex -6.9 41.9 -132.6
      vertex -6.9 54.1 -110.1
      vertex -6.9 54.1 -132.6
    endloop
  endfacet
  facet normal -1 -0 0
    outer loop
      vertex -6.9 54.1 -110.1
      vertex -6.9 41.9 -132.6
      vertex -6.9 41.9 -110.1
    endloop
  endfacet
  facet normal 0 0 -1
    outer loop
      vertex 11.5 41.9 -132.6
      vertex 15.8 54.1 -132.6
      vertex 15.8 41.9 -132.6
    endloop
  endfacet
  facet normal -0 0 -1
    outer loop
      vertex 15.8 54.1 -132.6
      vertex 11.5 41.9 -132.6
      vertex 11.5 54.1 -132.6
    endloop
  endfacet
  facet normal 0 0 -1
    outer loop
      vertex -6.9 41.9 -132.6
      vertex 9 54.1 -132.6
      vertex 9 41.9 -132.6
    endloop
  endfacet
  facet normal -0 0 -1
    outer loop
      vertex 9 54.1 -132.6
      vertex -6.9 41.9 -132.6
      vertex -6.9 54.1 -132.6
    endloop
  endfacet
  facet normal 0 -1 0
    outer loop
      vertex 9 41.9 -137.45
      vertex 11.5 41.9 -132.6
      vertex 9 41.9 -132.6
    endloop
  endfacet
  facet normal 0 -1 -0
    outer loop
      vertex 11.5 41.9 -132.6
      vertex 9 41.9 -137.45
      vertex 11.5 41.9 -137.45
    endloop
  endfacet
  facet normal 0 -1 0
    outer loop
      vertex 9 41.9 -132.6
      vertex 9 41.9 -110.1
      vertex -6.9 41.9 -110.1
    endloop
  endfacet
  facet normal 0 -1 0
    outer loop
      vertex 9 41.9 -110.1
      vertex 9 41.9 -132.6
      vertex 11.5 41.9 -110.1
    endloop
  endfacet
  facet normal 0 -1 0
    outer loop
      vertex 9 41.9 -132.6
      vertex -6.9 41.9 -110.1
      vertex -6.9 41.9 -132.6
    endloop
  endfacet
  facet normal 0 -1 0
    outer loop
      vertex 11.5 41.9 -132.6
      vertex 11.5 41.9 -110.1
      vertex 9 41.9 -132.6
    endloop
  endfacet
  facet normal 0 -1 0
    outer loop
      vertex 11.5 41.9 -110.1
      vertex 11.5 41.9 -132.6
      vertex 15.8 41.9 -110.1
    endloop
  endfacet
  facet normal 0 -1 -0
    outer loop
      vertex 15.8 41.9 -110.1
      vertex 11.5 41.9 -132.6
      vertex 15.8 41.9 -132.6
    endloop
  endfacet
  facet normal 0 -1 0
    outer loop
      vertex 9 41.9 -110.1
      vertex 11.5 41.9 -105.25
      vertex 9 41.9 -105.25
    endloop
  endfacet
  facet normal 0 -1 -0
    outer loop
      vertex 11.5 41.9 -105.25
      vertex 9 41.9 -110.1
      vertex 11.5 41.9 -110.1
    endloop
  endfacet
  facet normal 0 1 -0
    outer loop
      vertex 11.5 54.1 -137.45
      vertex 9 54.1 -132.6
      vertex 11.5 54.1 -132.6
    endloop
  endfacet
  facet normal 0 1 0
    outer loop
      vertex 9 54.1 -132.6
      vertex 11.5 54.1 -137.45
      vertex 9 54.1 -137.45
    endloop
  endfacet
  facet normal 0 1 0
    outer loop
      vertex 11.5 54.1 -132.6
      vertex 11.5 54.1 -110.1
      vertex 15.8 54.1 -110.1
    endloop
  endfacet
  facet normal 0 1 0
    outer loop
      vertex 11.5 54.1 -110.1
      vertex 11.5 54.1 -132.6
      vertex 9 54.1 -110.1
    endloop
  endfacet
  facet normal 0 1 0
    outer loop
      vertex 11.5 54.1 -132.6
      vertex 15.8 54.1 -110.1
      vertex 15.8 54.1 -132.6
    endloop
  endfacet
  facet normal 0 1 0
    outer loop
      vertex 9 54.1 -110.1
      vertex 11.5 54.1 -132.6
      vertex 9 54.1 -132.6
    endloop
  endfacet
  facet normal 0 1 0
    outer loop
      vertex 9 54.1 -110.1
      vertex 9 54.1 -132.6
      vertex -6.9 54.1 -110.1
    endloop
  endfacet
  facet normal 0 1 0
    outer loop
      vertex -6.9 54.1 -110.1
      vertex 9 54.1 -132.6
      vertex -6.9 54.1 -132.6
    endloop
  endfacet
  facet normal 0 1 -0
    outer loop
      vertex 11.5 54.1 -110.1
      vertex 9 54.1 -105.25
      vertex 11.5 54.1 -105.25
    endloop
  endfacet
  facet normal 0 1 0
    outer loop
      vertex 9 54.1 -105.25
      vertex 11.5 54.1 -110.1
      vertex 9 54.1 -110.1
    endloop
  endfacet
  facet normal -0 0 1
    outer loop
      vertex 9 54.1 -105.25
      vertex 11.5 41.9 -105.25
      vertex 11.5 54.1 -105.25
    endloop
  endfacet
  facet normal 0 0 1
    outer loop
      vertex 11.5 41.9 -105.25
      vertex 9 54.1 -105.25
      vertex 9 41.9 -105.25
    endloop
  endfacet
  facet normal 1 0 0
    outer loop
      vertex 11.5 54.1 -132.6
      vertex 11.5 50.1 -135.25
      vertex 11.5 54.1 -137.45
    endloop
  endfacet
  facet normal 1 0 0
    outer loop
      vertex 11.5 54.1 -132.6
      vertex 11.5 49.9401 -134.446
      vertex 11.5 50.1 -135.25
    endloop
  endfacet
  facet normal 1 0 0
    outer loop
      vertex 11.5 54.1 -132.6
      vertex 11.5 49.4849 -133.765
      vertex 11.5 49.9401 -134.446
    endloop
  endfacet
  facet normal 1 0 0
    outer loop
      vertex 11.5 54.1 -132.6
      vertex 11.5 48.8036 -133.31
      vertex 11.5 49.4849 -133.765
    endloop
  endfacet
  facet normal 1 0 0
    outer loop
      vertex 11.5 54.1 -132.6
      vertex 11.5 48 -133.15
      vertex 11.5 48.8036 -133.31
    endloop
  endfacet
  facet normal 1 0 0
    outer loop
      vertex 11.5 46.0599 -134.446
      vertex 11.5 41.9 -132.6
      vertex 11.5 45.9 -135.25
    endloop
  endfacet
  facet normal 1 0 0
    outer loop
      vertex 11.5 46.5151 -133.765
      vertex 11.5 41.9 -132.6
      vertex 11.5 46.0599 -134.446
    endloop
  endfacet
  facet normal 1 0 0
    outer loop
      vertex 11.5 47.1964 -133.31
      vertex 11.5 41.9 -132.6
      vertex 11.5 46.5151 -133.765
    endloop
  endfacet
  facet normal 1 0 0
    outer loop
      vertex 11.5 48 -133.15
      vertex 11.5 41.9 -132.6
      vertex 11.5 47.1964 -133.31
    endloop
  endfacet
  facet normal 1 -0 0
    outer loop
      vertex 11.5 41.9 -132.6
      vertex 11.5 48 -133.15
      vertex 11.5 54.1 -132.6
    endloop
  endfacet
  facet normal 1 -0 0
    outer loop
      vertex 11.5 49.9401 -136.054
      vertex 11.5 54.1 -137.45
      vertex 11.5 50.1 -135.25
    endloop
  endfacet
  facet normal 1 -0 0
    outer loop
      vertex 11.5 49.4849 -136.735
      vertex 11.5 54.1 -137.45
      vertex 11.5 49.9401 -136.054
    endloop
  endfacet
  facet normal 1 -0 0
    outer loop
      vertex 11.5 48.8036 -137.19
      vertex 11.5 54.1 -137.45
      vertex 11.5 49.4849 -136.735
    endloop
  endfacet
  facet normal 1 -0 0
    outer loop
      vertex 11.5 48 -137.35
      vertex 11.5 54.1 -137.45
      vertex 11.5 48.8036 -137.19
    endloop
  endfacet
  facet normal 1 0 0
    outer loop
      vertex 11.5 41.9 -137.45
      vertex 11.5 45.9 -135.25
      vertex 11.5 41.9 -132.6
    endloop
  endfacet
  facet normal 1 0 0
    outer loop
      vertex 11.5 45.9 -135.25
      vertex 11.5 41.9 -137.45
      vertex 11.5 46.0599 -136.054
    endloop
  endfacet
  facet normal 1 0 0
    outer loop
      vertex 11.5 48 -137.35
      vertex 11.5 41.9 -137.45
      vertex 11.5 54.1 -137.45
    endloop
  endfacet
  facet normal 1 0 0
    outer loop
      vertex 11.5 47.1964 -137.19
      vertex 11.5 41.9 -137.45
      vertex 11.5 48 -137.35
    endloop
  endfacet
  facet normal 1 0 0
    outer loop
      vertex 11.5 46.5151 -136.735
      vertex 11.5 41.9 -137.45
      vertex 11.5 47.1964 -137.19
    endloop
  endfacet
  facet normal 1 0 0
    outer loop
      vertex 11.5 46.0599 -136.054
      vertex 11.5 41.9 -137.45
      vertex 11.5 46.5151 -136.735
    endloop
  endfacet
  facet normal 1 0 0
    outer loop
      vertex 11.5 54.1 -105.25
      vertex 11.5 50.1 -107.45
      vertex 11.5 54.1 -110.1
    endloop
  endfacet
  facet normal 1 0 0
    outer loop
      vertex 11.5 54.1 -105.25
      vertex 11.5 49.9401 -106.646
      vertex 11.5 50.1 -107.45
    endloop
  endfacet
  facet normal 1 0 0
    outer loop
      vertex 11.5 54.1 -105.25
      vertex 11.5 49.4849 -105.965
      vertex 11.5 49.9401 -106.646
    endloop
  endfacet
  facet normal 1 0 0
    outer loop
      vertex 11.5 54.1 -105.25
      vertex 11.5 48.8036 -105.51
      vertex 11.5 49.4849 -105.965
    endloop
  endfacet
  facet normal 1 0 0
    outer loop
      vertex 11.5 54.1 -105.25
      vertex 11.5 48 -105.35
      vertex 11.5 48.8036 -105.51
    endloop
  endfacet
  facet normal 1 0 0
    outer loop
      vertex 11.5 46.0599 -106.646
      vertex 11.5 41.9 -105.25
      vertex 11.5 45.9 -107.45
    endloop
  endfacet
  facet normal 1 0 0
    outer loop
      vertex 11.5 46.5151 -105.965
      vertex 11.5 41.9 -105.25
      vertex 11.5 46.0599 -106.646
    endloop
  endfacet
  facet normal 1 0 0
    outer loop
      vertex 11.5 47.1964 -105.51
      vertex 11.5 41.9 -105.25
      vertex 11.5 46.5151 -105.965
    endloop
  endfacet
  facet normal 1 0 0
    outer loop
      vertex 11.5 48 -105.35
      vertex 11.5 41.9 -105.25
      vertex 11.5 47.1964 -105.51
    endloop
  endfacet
  facet normal 1 -0 0
    outer loop
      vertex 11.5 41.9 -105.25
      vertex 11.5 48 -105.35
      vertex 11.5 54.1 -105.25
    endloop
  endfacet
  facet normal 1 -0 0
    outer loop
      vertex 11.5 49.9401 -108.254
      vertex 11.5 54.1 -110.1
      vertex 11.5 50.1 -107.45
    endloop
  endfacet
  facet normal 1 -0 0
    outer loop
      vertex 11.5 49.4849 -108.935
      vertex 11.5 54.1 -110.1
      vertex 11.5 49.9401 -108.254
    endloop
  endfacet
  facet normal 1 -0 0
    outer loop
      vertex 11.5 48.8036 -109.39
      vertex 11.5 54.1 -110.1
      vertex 11.5 49.4849 -108.935
    endloop
  endfacet
  facet normal 1 -0 0
    outer loop
      vertex 11.5 48 -109.55
      vertex 11.5 54.1 -110.1
      vertex 11.5 48.8036 -109.39
    endloop
  endfacet
  facet normal 1 0 0
    outer loop
      vertex 11.5 41.9 -110.1
      vertex 11.5 45.9 -107.45
      vertex 11.5 41.9 -105.25
    endloop
  endfacet
  facet normal 1 0 0
    outer loop
      vertex 11.5 45.9 -107.45
      vertex 11.5 41.9 -110.1
      vertex 11.5 46.0599 -108.254
    endloop
  endfacet
  facet normal 1 0 0
    outer loop
      vertex 11.5 48 -109.55
      vertex 11.5 41.9 -110.1
      vertex 11.5 54.1 -110.1
    endloop
  endfacet
  facet normal 1 0 0
    outer loop
      vertex 11.5 47.1964 -109.39
      vertex 11.5 41.9 -110.1
      vertex 11.5 48 -109.55
    endloop
  endfacet
  facet normal 1 0 0
    outer loop
      vertex 11.5 46.5151 -108.935
      vertex 11.5 41.9 -110.1
      vertex 11.5 47.1964 -109.39
    endloop
  endfacet
  facet normal 1 0 0
    outer loop
      vertex 11.5 46.0599 -108.254
      vertex 11.5 41.9 -110.1
      vertex 11.5 46.5151 -108.935
    endloop
  endfacet
  facet normal -1 0 0
    outer loop
      vertex 9 54.1 -110.1
      vertex 9 50.1 -107.45
      vertex 9 54.1 -105.25
    endloop
  endfacet
  facet normal -1 0 0
    outer loop
      vertex 9 54.1 -110.1
      vertex 9 49.9401 -108.254
      vertex 9 50.1 -107.45
    endloop
  endfacet
  facet normal -1 0 0
    outer loop
      vertex 9 54.1 -110.1
      vertex 9 49.4849 -108.935
      vertex 9 49.9401 -108.254
    endloop
  endfacet
  facet normal -1 0 0
    outer loop
      vertex 9 54.1 -110.1
      vertex 9 48.8036 -109.39
      vertex 9 49.4849 -108.935
    endloop
  endfacet
  facet normal -1 0 0
    outer loop
      vertex 9 54.1 -110.1
      vertex 9 48 -109.55
      vertex 9 48.8036 -109.39
    endloop
  endfacet
  facet normal -1 -0 0
    outer loop
      vertex 9 46.0599 -108.254
      vertex 9 41.9 -110.1
      vertex 9 45.9 -107.45
    endloop
  endfacet
  facet normal -1 -0 0
    outer loop
      vertex 9 46.5151 -108.935
      vertex 9 41.9 -110.1
      vertex 9 46.0599 -108.254
    endloop
  endfacet
  facet normal -1 -0 0
    outer loop
      vertex 9 47.1964 -109.39
      vertex 9 41.9 -110.1
      vertex 9 46.5151 -108.935
    endloop
  endfacet
  facet normal -1 -0 0
    outer loop
      vertex 9 48 -109.55
      vertex 9 41.9 -110.1
      vertex 9 47.1964 -109.39
    endloop
  endfacet
  facet normal -1 0 0
    outer loop
      vertex 9 41.9 -110.1
      vertex 9 48 -109.55
      vertex 9 54.1 -110.1
    endloop
  endfacet
  facet normal -1 0 0
    outer loop
      vertex 9 49.9401 -106.646
      vertex 9 54.1 -105.25
      vertex 9 50.1 -107.45
    endloop
  endfacet
  facet normal -1 0 0
    outer loop
      vertex 9 49.4849 -105.965
      vertex 9 54.1 -105.25
      vertex 9 49.9401 -106.646
    endloop
  endfacet
  facet normal -1 0 0
    outer loop
      vertex 9 48.8036 -105.51
      vertex 9 54.1 -105.25
      vertex 9 49.4849 -105.965
    endloop
  endfacet
  facet normal -1 0 0
    outer loop
      vertex 9 48 -105.35
      vertex 9 54.1 -105.25
      vertex 9 48.8036 -105.51
    endloop
  endfacet
  facet normal -1 0 0
    outer loop
      vertex 9 41.9 -105.25
      vertex 9 45.9 -107.45
      vertex 9 41.9 -110.1
    endloop
  endfacet
  facet normal -1 0 0
    outer loop
      vertex 9 45.9 -107.45
      vertex 9 41.9 -105.25
      vertex 9 46.0599 -106.646
    endloop
  endfacet
  facet normal -1 0 0
    outer loop
      vertex 9 48 -105.35
      vertex 9 41.9 -105.25
      vertex 9 54.1 -105.25
    endloop
  endfacet
  facet normal -1 0 0
    outer loop
      vertex 9 47.1964 -105.51
      vertex 9 41.9 -105.25
      vertex 9 48 -105.35
    endloop
  endfacet
  facet normal -1 0 0
    outer loop
      vertex 9 46.5151 -105.965
      vertex 9 41.9 -105.25
      vertex 9 47.1964 -105.51
    endloop
  endfacet
  facet normal -1 0 0
    outer loop
      vertex 9 46.0599 -106.646
      vertex 9 41.9 -105.25
      vertex 9 46.5151 -105.965
    endloop
  endfacet
  facet normal -1 0 0
    outer loop
      vertex 9 54.1 -137.45
      vertex 9 50.1 -135.25
      vertex 9 54.1 -132.6
    endloop
  endfacet
  facet normal -1 0 0
    outer loop
      vertex 9 54.1 -137.45
      vertex 9 49.9401 -136.054
      vertex 9 50.1 -135.25
    endloop
  endfacet
  facet normal -1 0 0
    outer loop
      vertex 9 54.1 -137.45
      vertex 9 49.4849 -136.735
      vertex 9 49.9401 -136.054
    endloop
  endfacet
  facet normal -1 0 0
    outer loop
      vertex 9 54.1 -137.45
      vertex 9 48.8036 -137.19
      vertex 9 49.4849 -136.735
    endloop
  endfacet
  facet normal -1 0 0
    outer loop
      vertex 9 54.1 -137.45
      vertex 9 48 -137.35
      vertex 9 48.8036 -137.19
    endloop
  endfacet
  facet normal -1 -0 0
    outer loop
      vertex 9 46.0599 -136.054
      vertex 9 41.9 -137.45
      vertex 9 45.9 -135.25
    endloop
  endfacet
  facet normal -1 -0 0
    outer loop
      vertex 9 46.5151 -136.735
      vertex 9 41.9 -137.45
      vertex 9 46.0599 -136.054
    endloop
  endfacet
  facet normal -1 -0 0
    outer loop
      vertex 9 47.1964 -137.19
      vertex 9 41.9 -137.45
      vertex 9 46.5151 -136.735
    endloop
  endfacet
  facet normal -1 -0 0
    outer loop
      vertex 9 48 -137.35
      vertex 9 41.9 -137.45
      vertex 9 47.1964 -137.19
    endloop
  endfacet
  facet normal -1 0 0
    outer loop
      vertex 9 41.9 -137.45
      vertex 9 48 -137.35
      vertex 9 54.1 -137.45
    endloop
  endfacet
  facet normal -1 0 0
    outer loop
      vertex 9 49.9401 -134.446
      vertex 9 54.1 -132.6
      vertex 9 50.1 -135.25
    endloop
  endfacet
  facet normal -1 0 0
    outer loop
      vertex 9 49.4849 -133.765
      vertex 9 54.1 -132.6
      vertex 9 49.9401 -134.446
    endloop
  endfacet
  facet normal -1 0 0
    outer loop
      vertex 9 48.8036 -133.31
      vertex 9 54.1 -132.6
      vertex 9 49.4849 -133.765
    endloop
  endfacet
  facet normal -1 0 0
    outer loop
      vertex 9 48 -133.15
      vertex 9 54.1 -132.6
      vertex 9 48.8036 -133.31
    endloop
  endfacet
  facet normal -1 0 0
    outer loop
      vertex 9 41.9 -132.6
      vertex 9 45.9 -135.25
      vertex 9 41.9 -137.45
    endloop
  endfacet
  facet normal -1 0 0
    outer loop
      vertex 9 45.9 -135.25
      vertex 9 41.9 -132.6
      vertex 9 46.0599 -134.446
    endloop
  endfacet
  facet normal -1 0 0
    outer loop
      vertex 9 48 -133.15
      vertex 9 41.9 -132.6
      vertex 9 54.1 -132.6
    endloop
  endfacet
  facet normal -1 0 0
    outer loop
      vertex 9 47.1964 -133.31
      vertex 9 41.9 -132.6
      vertex 9 48 -133.15
    endloop
  endfacet
  facet normal -1 0 0
    outer loop
      vertex 9 46.5151 -133.765
      vertex 9 41.9 -132.6
      vertex 9 47.1964 -133.31
    endloop
  endfacet
  facet normal -1 0 0
    outer loop
      vertex 9 46.0599 -134.446
      vertex 9 41.9 -132.6
      vertex 9 46.5151 -133.765
    endloop
  endfacet
  facet normal 0 0 -1
    outer loop
      vertex 9 41.9 -137.45
      vertex 11.5 54.1 -137.45
      vertex 11.5 41.9 -137.45
    endloop
  endfacet
  facet normal -0 0 -1
    outer loop
      vertex 11.5 54.1 -137.45
      vertex 9 41.9 -137.45
      vertex 9 54.1 -137.45
    endloop
  endfacet
  facet normal 0 0.195271 -0.980749
    outer loop
      vertex 9 47.1964 -133.31
      vertex 11.5 48 -133.15
      vertex 11.5 47.1964 -133.31
    endloop
  endfacet
  facet normal 0 0.195271 -0.980749
    outer loop
      vertex 11.5 48 -133.15
      vertex 9 47.1964 -133.31
      vertex 9 48 -133.15
    endloop
  endfacet
  facet normal 0 0.980791 -0.19506
    outer loop
      vertex 11.5 45.9 -135.25
      vertex 9 46.0599 -134.446
      vertex 11.5 46.0599 -134.446
    endloop
  endfacet
  facet normal 0 0.980791 -0.19506
    outer loop
      vertex 9 46.0599 -134.446
      vertex 11.5 45.9 -135.25
      vertex 9 45.9 -135.25
    endloop
  endfacet
  facet normal 0 0.980791 0.19506
    outer loop
      vertex 11.5 46.0599 -136.054
      vertex 9 45.9 -135.25
      vertex 11.5 45.9 -135.25
    endloop
  endfacet
  facet normal 0 0.980791 0.19506
    outer loop
      vertex 9 45.9 -135.25
      vertex 11.5 46.0599 -136.054
      vertex 9 46.0599 -136.054
    endloop
  endfacet
  facet normal 0 -0.980791 0.19506
    outer loop
      vertex 9 49.9401 -136.054
      vertex 11.5 50.1 -135.25
      vertex 9 50.1 -135.25
    endloop
  endfacet
  facet normal 0 -0.980791 0.19506
    outer loop
      vertex 11.5 50.1 -135.25
      vertex 9 49.9401 -136.054
      vertex 11.5 49.9401 -136.054
    endloop
  endfacet
  facet normal 0 0.555376 -0.831599
    outer loop
      vertex 9 46.5151 -133.765
      vertex 11.5 47.1964 -133.31
      vertex 11.5 46.5151 -133.765
    endloop
  endfacet
  facet normal 0 0.555376 -0.831599
    outer loop
      vertex 11.5 47.1964 -133.31
      vertex 9 46.5151 -133.765
      vertex 9 47.1964 -133.31
    endloop
  endfacet
  facet normal 0 -0.195271 0.980749
    outer loop
      vertex 9 48.8036 -137.19
      vertex 11.5 48 -137.35
      vertex 11.5 48.8036 -137.19
    endloop
  endfacet
  facet normal 0 -0.195271 0.980749
    outer loop
      vertex 11.5 48 -137.35
      vertex 9 48.8036 -137.19
      vertex 9 48 -137.35
    endloop
  endfacet
  facet normal 0 -0.555376 -0.831599
    outer loop
      vertex 9 48.8036 -133.31
      vertex 11.5 49.4849 -133.765
      vertex 11.5 48.8036 -133.31
    endloop
  endfacet
  facet normal -0 -0.555376 -0.831599
    outer loop
      vertex 11.5 49.4849 -133.765
      vertex 9 48.8036 -133.31
      vertex 9 49.4849 -133.765
    endloop
  endfacet
  facet normal 0 -0.980791 -0.19506
    outer loop
      vertex 9 50.1 -135.25
      vertex 11.5 49.9401 -134.446
      vertex 9 49.9401 -134.446
    endloop
  endfacet
  facet normal 0 -0.980791 -0.19506
    outer loop
      vertex 11.5 49.9401 -134.446
      vertex 9 50.1 -135.25
      vertex 11.5 50.1 -135.25
    endloop
  endfacet
  facet normal 0 -0.831374 -0.555714
    outer loop
      vertex 9 49.9401 -134.446
      vertex 11.5 49.4849 -133.765
      vertex 9 49.4849 -133.765
    endloop
  endfacet
  facet normal 0 -0.831374 -0.555714
    outer loop
      vertex 11.5 49.4849 -133.765
      vertex 9 49.9401 -134.446
      vertex 11.5 49.9401 -134.446
    endloop
  endfacet
  facet normal 0 0.831374 -0.555714
    outer loop
      vertex 11.5 46.0599 -134.446
      vertex 9 46.5151 -133.765
      vertex 11.5 46.5151 -133.765
    endloop
  endfacet
  facet normal 0 0.831374 -0.555714
    outer loop
      vertex 9 46.5151 -133.765
      vertex 11.5 46.0599 -134.446
      vertex 9 46.0599 -134.446
    endloop
  endfacet
  facet normal 0 -0.831374 0.555714
    outer loop
      vertex 9 49.4849 -136.735
      vertex 11.5 49.9401 -136.054
      vertex 9 49.9401 -136.054
    endloop
  endfacet
  facet normal 0 -0.831374 0.555714
    outer loop
      vertex 11.5 49.9401 -136.054
      vertex 9 49.4849 -136.735
      vertex 11.5 49.4849 -136.735
    endloop
  endfacet
  facet normal -0 0.195271 0.980749
    outer loop
      vertex 9 48 -137.35
      vertex 11.5 47.1964 -137.19
      vertex 11.5 48 -137.35
    endloop
  endfacet
  facet normal 0 0.195271 0.980749
    outer loop
      vertex 11.5 47.1964 -137.19
      vertex 9 48 -137.35
      vertex 9 47.1964 -137.19
    endloop
  endfacet
  facet normal 0 0.831374 0.555714
    outer loop
      vertex 11.5 46.5151 -136.735
      vertex 9 46.0599 -136.054
      vertex 11.5 46.0599 -136.054
    endloop
  endfacet
  facet normal 0 0.831374 0.555714
    outer loop
      vertex 9 46.0599 -136.054
      vertex 11.5 46.5151 -136.735
      vertex 9 46.5151 -136.735
    endloop
  endfacet
  facet normal 0 -0.555376 0.831599
    outer loop
      vertex 9 49.4849 -136.735
      vertex 11.5 48.8036 -137.19
      vertex 11.5 49.4849 -136.735
    endloop
  endfacet
  facet normal 0 -0.555376 0.831599
    outer loop
      vertex 11.5 48.8036 -137.19
      vertex 9 49.4849 -136.735
      vertex 9 48.8036 -137.19
    endloop
  endfacet
  facet normal -0 0.555376 0.831599
    outer loop
      vertex 9 47.1964 -137.19
      vertex 11.5 46.5151 -136.735
      vertex 11.5 47.1964 -137.19
    endloop
  endfacet
  facet normal 0 0.555376 0.831599
    outer loop
      vertex 11.5 46.5151 -136.735
      vertex 9 47.1964 -137.19
      vertex 9 46.5151 -136.735
    endloop
  endfacet
  facet normal 0 -0.195271 -0.980749
    outer loop
      vertex 9 48 -133.15
      vertex 11.5 48.8036 -133.31
      vertex 11.5 48 -133.15
    endloop
  endfacet
  facet normal -0 -0.195271 -0.980749
    outer loop
      vertex 11.5 48.8036 -133.31
      vertex 9 48 -133.15
      vertex 9 48.8036 -133.31
    endloop
  endfacet
  facet normal -0 0.195271 0.980749
    outer loop
      vertex 9 48 -109.55
      vertex 11.5 47.1964 -109.39
      vertex 11.5 48 -109.55
    endloop
  endfacet
  facet normal 0 0.195271 0.980749
    outer loop
      vertex 11.5 47.1964 -109.39
      vertex 9 48 -109.55
      vertex 9 47.1964 -109.39
    endloop
  endfacet
  facet normal 0 0.555376 -0.831599
    outer loop
      vertex 9 46.5151 -105.965
      vertex 11.5 47.1964 -105.51
      vertex 11.5 46.5151 -105.965
    endloop
  endfacet
  facet normal 0 0.555376 -0.831599
    outer loop
      vertex 11.5 47.1964 -105.51
      vertex 9 46.5151 -105.965
      vertex 9 47.1964 -105.51
    endloop
  endfacet
  facet normal 0 0.195271 -0.980749
    outer loop
      vertex 9 47.1964 -105.51
      vertex 11.5 48 -105.35
      vertex 11.5 47.1964 -105.51
    endloop
  endfacet
  facet normal 0 0.195271 -0.980749
    outer loop
      vertex 11.5 48 -105.35
      vertex 9 47.1964 -105.51
      vertex 9 48 -105.35
    endloop
  endfacet
  facet normal 0 0.831374 -0.555714
    outer loop
      vertex 11.5 46.0599 -106.646
      vertex 9 46.5151 -105.965
      vertex 11.5 46.5151 -105.965
    endloop
  endfacet
  facet normal 0 0.831374 -0.555714
    outer loop
      vertex 9 46.5151 -105.965
      vertex 11.5 46.0599 -106.646
      vertex 9 46.0599 -106.646
    endloop
  endfacet
  facet normal 0 0.980791 -0.19506
    outer loop
      vertex 11.5 45.9 -107.45
      vertex 9 46.0599 -106.646
      vertex 11.5 46.0599 -106.646
    endloop
  endfacet
  facet normal 0 0.980791 -0.19506
    outer loop
      vertex 9 46.0599 -106.646
      vertex 11.5 45.9 -107.45
      vertex 9 45.9 -107.45
    endloop
  endfacet
  facet normal 0 -0.980791 0.19506
    outer loop
      vertex 9 49.9401 -108.254
      vertex 11.5 50.1 -107.45
      vertex 9 50.1 -107.45
    endloop
  endfacet
  facet normal 0 -0.980791 0.19506
    outer loop
      vertex 11.5 50.1 -107.45
      vertex 9 49.9401 -108.254
      vertex 11.5 49.9401 -108.254
    endloop
  endfacet
  facet normal -0 0.555376 0.831599
    outer loop
      vertex 9 47.1964 -109.39
      vertex 11.5 46.5151 -108.935
      vertex 11.5 47.1964 -109.39
    endloop
  endfacet
  facet normal 0 0.555376 0.831599
    outer loop
      vertex 11.5 46.5151 -108.935
      vertex 9 47.1964 -109.39
      vertex 9 46.5151 -108.935
    endloop
  endfacet
  facet normal 0 -0.831374 -0.555714
    outer loop
      vertex 9 49.9401 -106.646
      vertex 11.5 49.4849 -105.965
      vertex 9 49.4849 -105.965
    endloop
  endfacet
  facet normal 0 -0.831374 -0.555714
    outer loop
      vertex 11.5 49.4849 -105.965
      vertex 9 49.9401 -106.646
      vertex 11.5 49.9401 -106.646
    endloop
  endfacet
  facet normal 0 -0.980791 -0.19506
    outer loop
      vertex 9 50.1 -107.45
      vertex 11.5 49.9401 -106.646
      vertex 9 49.9401 -106.646
    endloop
  endfacet
  facet normal 0 -0.980791 -0.19506
    outer loop
      vertex 11.5 49.9401 -106.646
      vertex 9 50.1 -107.45
      vertex 11.5 50.1 -107.45
    endloop
  endfacet
  facet normal 0 0.980791 0.19506
    outer loop
      vertex 11.5 46.0599 -108.254
      vertex 9 45.9 -107.45
      vertex 11.5 45.9 -107.45
    endloop
  endfacet
  facet normal 0 0.980791 0.19506
    outer loop
      vertex 9 45.9 -107.45
      vertex 11.5 46.0599 -108.254
      vertex 9 46.0599 -108.254
    endloop
  endfacet
  facet normal 0 -0.555376 -0.831599
    outer loop
      vertex 9 48.8036 -105.51
      vertex 11.5 49.4849 -105.965
      vertex 11.5 48.8036 -105.51
    endloop
  endfacet
  facet normal -0 -0.555376 -0.831599
    outer loop
      vertex 11.5 49.4849 -105.965
      vertex 9 48.8036 -105.51
      vertex 9 49.4849 -105.965
    endloop
  endfacet
  facet normal 0 0.831374 0.555714
    outer loop
      vertex 11.5 46.5151 -108.935
      vertex 9 46.0599 -108.254
      vertex 11.5 46.0599 -108.254
    endloop
  endfacet
  facet normal 0 0.831374 0.555714
    outer loop
      vertex 9 46.0599 -108.254
      vertex 11.5 46.5151 -108.935
      vertex 9 46.5151 -108.935
    endloop
  endfacet
  facet normal 0 -0.195271 -0.980749
    outer loop
      vertex 9 48 -105.35
      vertex 11.5 48.8036 -105.51
      vertex 11.5 48 -105.35
    endloop
  endfacet
  facet normal -0 -0.195271 -0.980749
    outer loop
      vertex 11.5 48.8036 -105.51
      vertex 9 48 -105.35
      vertex 9 48.8036 -105.51
    endloop
  endfacet
  facet normal 0 -0.555376 0.831599
    outer loop
      vertex 9 49.4849 -108.935
      vertex 11.5 48.8036 -109.39
      vertex 11.5 49.4849 -108.935
    endloop
  endfacet
  facet normal 0 -0.555376 0.831599
    outer loop
      vertex 11.5 48.8036 -109.39
      vertex 9 49.4849 -108.935
      vertex 9 48.8036 -109.39
    endloop
  endfacet
  facet normal 0 -0.195271 0.980749
    outer loop
      vertex 9 48.8036 -109.39
      vertex 11.5 48 -109.55
      vertex 11.5 48.8036 -109.39
    endloop
  endfacet
  facet normal 0 -0.195271 0.980749
    outer loop
      vertex 11.5 48 -109.55
      vertex 9 48.8036 -109.39
      vertex 9 48 -109.55
    endloop
  endfacet
  facet normal 0 -0.831374 0.555714
    outer loop
      vertex 9 49.4849 -108.935
      vertex 11.5 49.9401 -108.254
      vertex 9 49.9401 -108.254
    endloop
  endfacet
  facet normal 0 -0.831374 0.555714
    outer loop
      vertex 11.5 49.9401 -108.254
      vertex 9 49.4849 -108.935
      vertex 11.5 49.4849 -108.935
    endloop
  endfacet
  facet normal 0 -0.454071 0.890965
    outer loop
      vertex 15.8 47.2584 -113.717
      vertex 20.8 46.5893 -114.058
      vertex 20.8 47.2584 -113.717
    endloop
  endfacet
  facet normal 0 -0.454071 0.890965
    outer loop
      vertex 20.8 46.5893 -114.058
      vertex 15.8 47.2584 -113.717
      vertex 15.8 46.5893 -114.058
    endloop
  endfacet
  facet normal 0 -0.155839 0.987782
    outer loop
      vertex 15.8 48 -113.6
      vertex 20.8 47.2584 -113.717
      vertex 20.8 48 -113.6
    endloop
  endfacet
  facet normal 0 -0.155839 0.987782
    outer loop
      vertex 20.8 47.2584 -113.717
      vertex 15.8 48 -113.6
      vertex 15.8 47.2584 -113.717
    endloop
  endfacet
  facet normal 0 -0.454071 -0.890965
    outer loop
      vertex 15.8 46.5893 -117.942
      vertex 20.8 47.2584 -118.283
      vertex 20.8 46.5893 -117.942
    endloop
  endfacet
  facet normal -0 -0.454071 -0.890965
    outer loop
      vertex 20.8 47.2584 -118.283
      vertex 15.8 46.5893 -117.942
      vertex 15.8 47.2584 -118.283
    endloop
  endfacet
  facet normal 0 0.890992 0.45402
    outer loop
      vertex 20.8 50.2825 -115.258
      vertex 15.8 49.9416 -114.589
      vertex 20.8 49.9416 -114.589
    endloop
  endfacet
  facet normal 0 0.890992 0.45402
    outer loop
      vertex 15.8 49.9416 -114.589
      vertex 20.8 50.2825 -115.258
      vertex 15.8 50.2825 -115.258
    endloop
  endfacet
  facet normal 0 -0.707173 -0.70704
    outer loop
      vertex 15.8 46.5893 -117.942
      vertex 20.8 46.0584 -117.411
      vertex 15.8 46.0584 -117.411
    endloop
  endfacet
  facet normal 0 -0.707173 -0.70704
    outer loop
      vertex 20.8 46.0584 -117.411
      vertex 15.8 46.5893 -117.942
      vertex 20.8 46.5893 -117.942
    endloop
  endfacet
  facet normal 0 0.707173 -0.70704
    outer loop
      vertex 20.8 49.4107 -117.942
      vertex 15.8 49.9416 -117.411
      vertex 20.8 49.9416 -117.411
    endloop
  endfacet
  facet normal 0 0.707173 -0.70704
    outer loop
      vertex 15.8 49.9416 -117.411
      vertex 20.8 49.4107 -117.942
      vertex 15.8 49.4107 -117.942
    endloop
  endfacet
  facet normal 0 -0.890992 0.45402
    outer loop
      vertex 15.8 45.7175 -115.258
      vertex 20.8 46.0584 -114.589
      vertex 15.8 46.0584 -114.589
    endloop
  endfacet
  facet normal 0 -0.890992 0.45402
    outer loop
      vertex 20.8 46.0584 -114.589
      vertex 15.8 45.7175 -115.258
      vertex 20.8 45.7175 -115.258
    endloop
  endfacet
  facet normal 0 0.155839 -0.987782
    outer loop
      vertex 15.8 48 -118.4
      vertex 20.8 48.7416 -118.283
      vertex 20.8 48 -118.4
    endloop
  endfacet
  facet normal 0 0.155839 -0.987782
    outer loop
      vertex 20.8 48.7416 -118.283
      vertex 15.8 48 -118.4
      vertex 15.8 48.7416 -118.283
    endloop
  endfacet
  facet normal 0 0.707173 0.70704
    outer loop
      vertex 20.8 49.9416 -114.589
      vertex 15.8 49.4107 -114.058
      vertex 20.8 49.4107 -114.058
    endloop
  endfacet
  facet normal 0 0.707173 0.70704
    outer loop
      vertex 15.8 49.4107 -114.058
      vertex 20.8 49.9416 -114.589
      vertex 15.8 49.9416 -114.589
    endloop
  endfacet
  facet normal -0 0.155839 0.987782
    outer loop
      vertex 15.8 48.7416 -113.717
      vertex 20.8 48 -113.6
      vertex 20.8 48.7416 -113.717
    endloop
  endfacet
  facet normal 0 0.155839 0.987782
    outer loop
      vertex 20.8 48 -113.6
      vertex 15.8 48.7416 -113.717
      vertex 15.8 48 -113.6
    endloop
  endfacet
  facet normal 0 0.987693 0.156407
    outer loop
      vertex 20.8 50.4 -116
      vertex 15.8 50.2825 -115.258
      vertex 20.8 50.2825 -115.258
    endloop
  endfacet
  facet normal 0 0.987693 0.156407
    outer loop
      vertex 15.8 50.2825 -115.258
      vertex 20.8 50.4 -116
      vertex 15.8 50.4 -116
    endloop
  endfacet
  facet normal 0 -0.987693 -0.156407
    outer loop
      vertex 15.8 45.7175 -116.742
      vertex 20.8 45.6 -116
      vertex 15.8 45.6 -116
    endloop
  endfacet
  facet normal 0 -0.987693 -0.156407
    outer loop
      vertex 20.8 45.6 -116
      vertex 15.8 45.7175 -116.742
      vertex 20.8 45.7175 -116.742
    endloop
  endfacet
  facet normal 0 -0.155839 -0.987782
    outer loop
      vertex 15.8 47.2584 -118.283
      vertex 20.8 48 -118.4
      vertex 20.8 47.2584 -118.283
    endloop
  endfacet
  facet normal -0 -0.155839 -0.987782
    outer loop
      vertex 20.8 48 -118.4
      vertex 15.8 47.2584 -118.283
      vertex 15.8 48 -118.4
    endloop
  endfacet
  facet normal 0 -0.890992 -0.45402
    outer loop
      vertex 15.8 46.0584 -117.411
      vertex 20.8 45.7175 -116.742
      vertex 15.8 45.7175 -116.742
    endloop
  endfacet
  facet normal 0 -0.890992 -0.45402
    outer loop
      vertex 20.8 45.7175 -116.742
      vertex 15.8 46.0584 -117.411
      vertex 20.8 46.0584 -117.411
    endloop
  endfacet
  facet normal 0 0.987693 -0.156407
    outer loop
      vertex 20.8 50.2825 -116.742
      vertex 15.8 50.4 -116
      vertex 20.8 50.4 -116
    endloop
  endfacet
  facet normal 0 0.987693 -0.156407
    outer loop
      vertex 15.8 50.4 -116
      vertex 20.8 50.2825 -116.742
      vertex 15.8 50.2825 -116.742
    endloop
  endfacet
  facet normal 0 -0.987693 0.156407
    outer loop
      vertex 15.8 45.6 -116
      vertex 20.8 45.7175 -115.258
      vertex 15.8 45.7175 -115.258
    endloop
  endfacet
  facet normal 0 -0.987693 0.156407
    outer loop
      vertex 20.8 45.7175 -115.258
      vertex 15.8 45.6 -116
      vertex 20.8 45.6 -116
    endloop
  endfacet
  facet normal 1 0 0
    outer loop
      vertex 20.8 50.2825 -115.258
      vertex 20.8 50.2825 -116.742
      vertex 20.8 50.4 -116
    endloop
  endfacet
  facet normal 1 0 0
    outer loop
      vertex 20.8 49.9416 -114.589
      vertex 20.8 50.2825 -116.742
      vertex 20.8 50.2825 -115.258
    endloop
  endfacet
  facet normal 1 0 0
    outer loop
      vertex 20.8 49.9416 -114.589
      vertex 20.8 49.9416 -117.411
      vertex 20.8 50.2825 -116.742
    endloop
  endfacet
  facet normal 1 0 0
    outer loop
      vertex 20.8 49.4107 -114.058
      vertex 20.8 49.9416 -117.411
      vertex 20.8 49.9416 -114.589
    endloop
  endfacet
  facet normal 1 0 0
    outer loop
      vertex 20.8 49.4107 -114.058
      vertex 20.8 49.4107 -117.942
      vertex 20.8 49.9416 -117.411
    endloop
  endfacet
  facet normal 1 0 0
    outer loop
      vertex 20.8 48.7416 -113.717
      vertex 20.8 49.4107 -117.942
      vertex 20.8 49.4107 -114.058
    endloop
  endfacet
  facet normal 1 0 0
    outer loop
      vertex 20.8 48.7416 -113.717
      vertex 20.8 48.7416 -118.283
      vertex 20.8 49.4107 -117.942
    endloop
  endfacet
  facet normal 1 0 0
    outer loop
      vertex 20.8 48 -113.6
      vertex 20.8 48.7416 -118.283
      vertex 20.8 48.7416 -113.717
    endloop
  endfacet
  facet normal 1 0 0
    outer loop
      vertex 20.8 48 -113.6
      vertex 20.8 48 -118.4
      vertex 20.8 48.7416 -118.283
    endloop
  endfacet
  facet normal 1 -0 0
    outer loop
      vertex 20.8 47.2584 -113.717
      vertex 20.8 48 -118.4
      vertex 20.8 48 -113.6
    endloop
  endfacet
  facet normal 1 0 0
    outer loop
      vertex 20.8 47.2584 -113.717
      vertex 20.8 47.2584 -118.283
      vertex 20.8 48 -118.4
    endloop
  endfacet
  facet normal 1 -0 0
    outer loop
      vertex 20.8 46.5893 -114.058
      vertex 20.8 47.2584 -118.283
      vertex 20.8 47.2584 -113.717
    endloop
  endfacet
  facet normal 1 0 0
    outer loop
      vertex 20.8 46.5893 -114.058
      vertex 20.8 46.5893 -117.942
      vertex 20.8 47.2584 -118.283
    endloop
  endfacet
  facet normal 1 -0 0
    outer loop
      vertex 20.8 46.0584 -114.589
      vertex 20.8 46.5893 -117.942
      vertex 20.8 46.5893 -114.058
    endloop
  endfacet
  facet normal 1 0 0
    outer loop
      vertex 20.8 46.0584 -114.589
      vertex 20.8 46.0584 -117.411
      vertex 20.8 46.5893 -117.942
    endloop
  endfacet
  facet normal 1 -0 0
    outer loop
      vertex 20.8 45.7175 -115.258
      vertex 20.8 46.0584 -117.411
      vertex 20.8 46.0584 -114.589
    endloop
  endfacet
  facet normal 1 0 0
    outer loop
      vertex 20.8 45.7175 -115.258
      vertex 20.8 45.7175 -116.742
      vertex 20.8 46.0584 -117.411
    endloop
  endfacet
  facet normal 1 0 -0
    outer loop
      vertex 20.8 45.7175 -116.742
      vertex 20.8 45.7175 -115.258
      vertex 20.8 45.6 -116
    endloop
  endfacet
  facet normal -0 0.454071 0.890965
    outer loop
      vertex 15.8 49.4107 -114.058
      vertex 20.8 48.7416 -113.717
      vertex 20.8 49.4107 -114.058
    endloop
  endfacet
  facet normal 0 0.454071 0.890965
    outer loop
      vertex 20.8 48.7416 -113.717
      vertex 15.8 49.4107 -114.058
      vertex 15.8 48.7416 -113.717
    endloop
  endfacet
  facet normal 0 0.890992 -0.45402
    outer loop
      vertex 20.8 49.9416 -117.411
      vertex 15.8 50.2825 -116.742
      vertex 20.8 50.2825 -116.742
    endloop
  endfacet
  facet normal 0 0.890992 -0.45402
    outer loop
      vertex 15.8 50.2825 -116.742
      vertex 20.8 49.9416 -117.411
      vertex 15.8 49.9416 -117.411
    endloop
  endfacet
  facet normal 0 0.454071 -0.890965
    outer loop
      vertex 15.8 48.7416 -118.283
      vertex 20.8 49.4107 -117.942
      vertex 20.8 48.7416 -118.283
    endloop
  endfacet
  facet normal 0 0.454071 -0.890965
    outer loop
      vertex 20.8 49.4107 -117.942
      vertex 15.8 48.7416 -118.283
      vertex 15.8 49.4107 -117.942
    endloop
  endfacet
  facet normal 0 -0.707173 0.70704
    outer loop
      vertex 15.8 46.0584 -114.589
      vertex 20.8 46.5893 -114.058
      vertex 15.8 46.5893 -114.058
    endloop
  endfacet
  facet normal 0 -0.707173 0.70704
    outer loop
      vertex 20.8 46.5893 -114.058
      vertex 15.8 46.0584 -114.589
      vertex 20.8 46.0584 -114.589
    endloop
  endfacet
endsolid OpenSCAD_Model
