solid OpenSCAD_Model
  facet normal 1 -0 0
    outer loop
      vertex 37.4 34 -96.5
      vertex 37.4 37.75 -96.6015
      vertex 37.4 37.75 -96.5
    endloop
  endfacet
  facet normal 1 0 0
    outer loop
      vertex 37.4 37.75 -96.6015
      vertex 37.4 34 -96.5
      vertex 37.4 37.75 -98.9743
    endloop
  endfacet
  facet normal 1 0 0
    outer loop
      vertex 37.4 37.75 -98.9743
      vertex 37.4 34 -96.5
      vertex 37.4 37.75 -99.7431
    endloop
  endfacet
  facet normal 1 0 0
    outer loop
      vertex 37.4 37.75 -99.7431
      vertex 37.4 34 -96.5
      vertex 37.4 37.75 -102.116
    endloop
  endfacet
  facet normal 1 0 0
    outer loop
      vertex 37.4 37.75 -102.116
      vertex 37.4 34 -96.5
      vertex 37.4 37.75 -102.885
    endloop
  endfacet
  facet normal 1 0 0
    outer loop
      vertex 37.4 37.75 -102.885
      vertex 37.4 34 -96.5
      vertex 37.4 37.75 -105.257
    endloop
  endfacet
  facet normal 1 0 0
    outer loop
      vertex 37.4 37.75 -105.257
      vertex 37.4 34 -96.5
      vertex 37.4 37.75 -106.026
    endloop
  endfacet
  facet normal 1 0 0
    outer loop
      vertex 37.4 37.75 -106.026
      vertex 37.4 34 -96.5
      vertex 37.4 37.75 -108.399
    endloop
  endfacet
  facet normal 1 0 0
    outer loop
      vertex 37.4 37.75 -108.399
      vertex 37.4 34 -96.5
      vertex 37.4 37.75 -109.168
    endloop
  endfacet
  facet normal 1 0 0
    outer loop
      vertex 37.4 37.75 -109.168
      vertex 37.4 34 -96.5
      vertex 37.4 37.75 -111.541
    endloop
  endfacet
  facet normal 1 0 0
    outer loop
      vertex 37.4 37.75 -111.541
      vertex 37.4 34 -96.5
      vertex 37.4 37.75 -112.309
    endloop
  endfacet
  facet normal 1 0 0
    outer loop
      vertex 37.4 37.75 -112.309
      vertex 37.4 34 -96.5
      vertex 37.4 37.75 -114.682
    endloop
  endfacet
  facet normal 1 0 0
    outer loop
      vertex 37.4 37.75 -114.682
      vertex 37.4 34 -96.5
      vertex 37.4 37.75 -115.451
    endloop
  endfacet
  facet normal 1 0 0
    outer loop
      vertex 37.4 37.75 -115.451
      vertex 37.4 34 -96.5
      vertex 37.4 37.75 -117.824
    endloop
  endfacet
  facet normal 1 0 0
    outer loop
      vertex 37.4 34 -136.5
      vertex 37.4 37.75 -117.824
      vertex 37.4 34 -96.5
    endloop
  endfacet
  facet normal 1 0 0
    outer loop
      vertex 37.4 37.75 -117.824
      vertex 37.4 34 -136.5
      vertex 37.4 37.75 -118.593
    endloop
  endfacet
  facet normal 1 0 0
    outer loop
      vertex 37.4 37.75 -118.593
      vertex 37.4 34 -136.5
      vertex 37.4 37.75 -120.965
    endloop
  endfacet
  facet normal 1 0 0
    outer loop
      vertex 37.4 37.75 -120.965
      vertex 37.4 34 -136.5
      vertex 37.4 37.75 -121.734
    endloop
  endfacet
  facet normal 1 0 0
    outer loop
      vertex 37.4 37.75 -121.734
      vertex 37.4 34 -136.5
      vertex 37.4 37.75 -124.107
    endloop
  endfacet
  facet normal 1 0 0
    outer loop
      vertex 37.4 37.75 -124.107
      vertex 37.4 34 -136.5
      vertex 37.4 37.75 -124.876
    endloop
  endfacet
  facet normal 1 0 0
    outer loop
      vertex 37.4 37.75 -124.876
      vertex 37.4 34 -136.5
      vertex 37.4 37.75 -127.249
    endloop
  endfacet
  facet normal 1 0 0
    outer loop
      vertex 37.4 37.75 -127.249
      vertex 37.4 34 -136.5
      vertex 37.4 37.75 -128.017
    endloop
  endfacet
  facet normal 1 0 0
    outer loop
      vertex 37.4 37.75 -128.017
      vertex 37.4 34 -136.5
      vertex 37.4 37.75 -130.39
    endloop
  endfacet
  facet normal 1 0 0
    outer loop
      vertex 37.4 37.75 -130.39
      vertex 37.4 34 -136.5
      vertex 37.4 37.75 -131.159
    endloop
  endfacet
  facet normal 1 0 0
    outer loop
      vertex 37.4 37.75 -131.159
      vertex 37.4 34 -136.5
      vertex 37.4 37.75 -133.532
    endloop
  endfacet
  facet normal 1 0 0
    outer loop
      vertex 37.4 37.75 -133.532
      vertex 37.4 34 -136.5
      vertex 37.4 37.75 -136.5
    endloop
  endfacet
  facet normal 1 0 0
    outer loop
      vertex 37.4 37.75 -96.6015
      vertex 37.4 40 -98.1589
      vertex 37.4 40 -97.4169
    endloop
  endfacet
  facet normal 1 0 0
    outer loop
      vertex 37.4 40 -98.1589
      vertex 37.4 37.75 -96.6015
      vertex 37.4 37.75 -98.9743
    endloop
  endfacet
  facet normal 1 0 0
    outer loop
      vertex 37.4 37.75 -99.7431
      vertex 37.4 40 -101.3
      vertex 37.4 40 -100.558
    endloop
  endfacet
  facet normal 1 0 0
    outer loop
      vertex 37.4 40 -101.3
      vertex 37.4 37.75 -99.7431
      vertex 37.4 37.75 -102.116
    endloop
  endfacet
  facet normal 1 0 0
    outer loop
      vertex 37.4 37.75 -102.885
      vertex 37.4 40 -104.442
      vertex 37.4 40 -103.7
    endloop
  endfacet
  facet normal 1 0 0
    outer loop
      vertex 37.4 40 -104.442
      vertex 37.4 37.75 -102.885
      vertex 37.4 37.75 -105.257
    endloop
  endfacet
  facet normal 1 0 0
    outer loop
      vertex 37.4 37.75 -106.026
      vertex 37.4 40 -107.584
      vertex 37.4 40 -106.842
    endloop
  endfacet
  facet normal 1 0 0
    outer loop
      vertex 37.4 40 -107.584
      vertex 37.4 37.75 -106.026
      vertex 37.4 37.75 -108.399
    endloop
  endfacet
  facet normal 1 0 0
    outer loop
      vertex 37.4 37.75 -109.168
      vertex 37.4 40 -110.725
      vertex 37.4 40 -109.983
    endloop
  endfacet
  facet normal 1 0 0
    outer loop
      vertex 37.4 40 -110.725
      vertex 37.4 37.75 -109.168
      vertex 37.4 37.75 -111.541
    endloop
  endfacet
  facet normal 1 0 0
    outer loop
      vertex 37.4 37.75 -112.309
      vertex 37.4 40 -113.867
      vertex 37.4 40 -113.125
    endloop
  endfacet
  facet normal 1 0 0
    outer loop
      vertex 37.4 40 -113.867
      vertex 37.4 37.75 -112.309
      vertex 37.4 37.75 -114.682
    endloop
  endfacet
  facet normal 1 0 0
    outer loop
      vertex 37.4 37.75 -115.451
      vertex 37.4 40 -117.008
      vertex 37.4 40 -116.266
    endloop
  endfacet
  facet normal 1 0 0
    outer loop
      vertex 37.4 40 -117.008
      vertex 37.4 37.75 -115.451
      vertex 37.4 37.75 -117.824
    endloop
  endfacet
  facet normal 1 0 0
    outer loop
      vertex 37.4 37.75 -118.593
      vertex 37.4 40 -120.15
      vertex 37.4 40 -119.408
    endloop
  endfacet
  facet normal 1 0 0
    outer loop
      vertex 37.4 40 -120.15
      vertex 37.4 37.75 -118.593
      vertex 37.4 37.75 -120.965
    endloop
  endfacet
  facet normal 1 0 0
    outer loop
      vertex 37.4 37.75 -121.734
      vertex 37.4 40 -123.292
      vertex 37.4 40 -122.55
    endloop
  endfacet
  facet normal 1 0 0
    outer loop
      vertex 37.4 40 -123.292
      vertex 37.4 37.75 -121.734
      vertex 37.4 37.75 -124.107
    endloop
  endfacet
  facet normal 1 0 0
    outer loop
      vertex 37.4 37.75 -124.876
      vertex 37.4 40 -126.433
      vertex 37.4 40 -125.691
    endloop
  endfacet
  facet normal 1 0 0
    outer loop
      vertex 37.4 40 -126.433
      vertex 37.4 37.75 -124.876
      vertex 37.4 37.75 -127.249
    endloop
  endfacet
  facet normal 1 0 0
    outer loop
      vertex 37.4 37.75 -128.017
      vertex 37.4 40 -129.575
      vertex 37.4 40 -128.833
    endloop
  endfacet
  facet normal 1 0 0
    outer loop
      vertex 37.4 40 -129.575
      vertex 37.4 37.75 -128.017
      vertex 37.4 37.75 -130.39
    endloop
  endfacet
  facet normal 1 0 0
    outer loop
      vertex 37.4 37.75 -131.159
      vertex 37.4 40 -132.716
      vertex 37.4 40 -131.974
    endloop
  endfacet
  facet normal 1 0 0
    outer loop
      vertex 37.4 40 -132.716
      vertex 37.4 37.75 -131.159
      vertex 37.4 37.75 -133.532
    endloop
  endfacet
  facet normal 1 0 0
    outer loop
      vertex 37.4 37.75 -87.1767
      vertex 37.4 40 -88.7341
      vertex 37.4 40 -87.9921
    endloop
  endfacet
  facet normal 1 0 0
    outer loop
      vertex 37.4 40 -88.7341
      vertex 37.4 37.75 -87.1767
      vertex 37.4 37.75 -89.5495
    endloop
  endfacet
  facet normal 1 0 0
    outer loop
      vertex 37.4 37.75 -90.3183
      vertex 37.4 40 -91.8757
      vertex 37.4 40 -91.1337
    endloop
  endfacet
  facet normal 1 0 0
    outer loop
      vertex 37.4 40 -91.8757
      vertex 37.4 37.75 -90.3183
      vertex 37.4 37.75 -92.6911
    endloop
  endfacet
  facet normal 1 0 0
    outer loop
      vertex 37.4 37.75 -93.4599
      vertex 37.4 40 -95.0173
      vertex 37.4 40 -94.2753
    endloop
  endfacet
  facet normal 1 0 0
    outer loop
      vertex 37.4 40 -95.0173
      vertex 37.4 37.75 -93.4599
      vertex 37.4 37.75 -95.8327
    endloop
  endfacet
  facet normal -0 0 1
    outer loop
      vertex 33.8 37.75 -86.5
      vertex 37.6 34 -86.5
      vertex 37.6 37.75 -86.5
    endloop
  endfacet
  facet normal 0 0 1
    outer loop
      vertex 37.6 34 -86.5
      vertex 33.8 37.75 -86.5
      vertex 33.8 34 -86.5
    endloop
  endfacet
  facet normal 0 0 -1
    outer loop
      vertex 33.8 34 -136.5
      vertex 37.4 37.75 -136.5
      vertex 37.4 34 -136.5
    endloop
  endfacet
  facet normal -0 0 -1
    outer loop
      vertex 37.4 37.75 -136.5
      vertex 33.8 34 -136.5
      vertex 33.8 37.75 -136.5
    endloop
  endfacet
  facet normal -1 0 0
    outer loop
      vertex 33.8 34 -136.5
      vertex 33.8 37.75 -133.532
      vertex 33.8 37.75 -136.5
    endloop
  endfacet
  facet normal -1 -0 0
    outer loop
      vertex 33.8 37.75 -133.532
      vertex 33.8 34 -136.5
      vertex 33.8 37.75 -131.159
    endloop
  endfacet
  facet normal -1 -0 0
    outer loop
      vertex 33.8 37.75 -131.159
      vertex 33.8 34 -136.5
      vertex 33.8 37.75 -130.39
    endloop
  endfacet
  facet normal -1 -0 0
    outer loop
      vertex 33.8 37.75 -130.39
      vertex 33.8 34 -136.5
      vertex 33.8 37.75 -128.017
    endloop
  endfacet
  facet normal -1 -0 0
    outer loop
      vertex 33.8 37.75 -128.017
      vertex 33.8 34 -136.5
      vertex 33.8 37.75 -127.249
    endloop
  endfacet
  facet normal -1 -0 0
    outer loop
      vertex 33.8 37.75 -127.249
      vertex 33.8 34 -136.5
      vertex 33.8 37.75 -124.876
    endloop
  endfacet
  facet normal -1 -0 0
    outer loop
      vertex 33.8 37.75 -124.876
      vertex 33.8 34 -136.5
      vertex 33.8 37.75 -124.107
    endloop
  endfacet
  facet normal -1 -0 0
    outer loop
      vertex 33.8 37.75 -124.107
      vertex 33.8 34 -136.5
      vertex 33.8 37.75 -121.734
    endloop
  endfacet
  facet normal -1 -0 0
    outer loop
      vertex 33.8 37.75 -121.734
      vertex 33.8 34 -136.5
      vertex 33.8 37.75 -120.965
    endloop
  endfacet
  facet normal -1 -0 0
    outer loop
      vertex 33.8 37.75 -120.965
      vertex 33.8 34 -136.5
      vertex 33.8 37.75 -118.593
    endloop
  endfacet
  facet normal -1 -0 0
    outer loop
      vertex 33.8 37.75 -118.593
      vertex 33.8 34 -136.5
      vertex 33.8 37.75 -117.824
    endloop
  endfacet
  facet normal -1 -0 0
    outer loop
      vertex 33.8 37.75 -117.824
      vertex 33.8 34 -136.5
      vertex 33.8 37.75 -115.451
    endloop
  endfacet
  facet normal -1 -0 0
    outer loop
      vertex 33.8 37.75 -115.451
      vertex 33.8 34 -136.5
      vertex 33.8 37.75 -114.682
    endloop
  endfacet
  facet normal -1 -0 0
    outer loop
      vertex 33.8 37.75 -114.682
      vertex 33.8 34 -136.5
      vertex 33.8 37.75 -112.309
    endloop
  endfacet
  facet normal -1 -0 0
    outer loop
      vertex 33.8 37.75 -112.309
      vertex 33.8 34 -136.5
      vertex 33.8 37.75 -111.541
    endloop
  endfacet
  facet normal -1 0 0
    outer loop
      vertex 33.8 34 -86.5
      vertex 33.8 37.75 -111.541
      vertex 33.8 34 -136.5
    endloop
  endfacet
  facet normal -1 0 0
    outer loop
      vertex 33.8 37.75 -111.541
      vertex 33.8 34 -86.5
      vertex 33.8 37.75 -109.168
    endloop
  endfacet
  facet normal -1 0 0
    outer loop
      vertex 33.8 37.75 -109.168
      vertex 33.8 34 -86.5
      vertex 33.8 37.75 -108.399
    endloop
  endfacet
  facet normal -1 0 0
    outer loop
      vertex 33.8 37.75 -108.399
      vertex 33.8 34 -86.5
      vertex 33.8 37.75 -106.026
    endloop
  endfacet
  facet normal -1 0 0
    outer loop
      vertex 33.8 37.75 -106.026
      vertex 33.8 34 -86.5
      vertex 33.8 37.75 -105.257
    endloop
  endfacet
  facet normal -1 0 0
    outer loop
      vertex 33.8 37.75 -105.257
      vertex 33.8 34 -86.5
      vertex 33.8 37.75 -102.885
    endloop
  endfacet
  facet normal -1 0 0
    outer loop
      vertex 33.8 37.75 -102.885
      vertex 33.8 34 -86.5
      vertex 33.8 37.75 -102.116
    endloop
  endfacet
  facet normal -1 0 0
    outer loop
      vertex 33.8 37.75 -102.116
      vertex 33.8 34 -86.5
      vertex 33.8 37.75 -99.7431
    endloop
  endfacet
  facet normal -1 0 0
    outer loop
      vertex 33.8 37.75 -99.7431
      vertex 33.8 34 -86.5
      vertex 33.8 37.75 -98.9743
    endloop
  endfacet
  facet normal -1 0 0
    outer loop
      vertex 33.8 37.75 -98.9743
      vertex 33.8 34 -86.5
      vertex 33.8 37.75 -96.6015
    endloop
  endfacet
  facet normal -1 0 0
    outer loop
      vertex 33.8 37.75 -96.6015
      vertex 33.8 34 -86.5
      vertex 33.8 37.75 -95.8327
    endloop
  endfacet
  facet normal -1 0 0
    outer loop
      vertex 33.8 37.75 -95.8327
      vertex 33.8 34 -86.5
      vertex 33.8 37.75 -93.4599
    endloop
  endfacet
  facet normal -1 0 0
    outer loop
      vertex 33.8 37.75 -93.4599
      vertex 33.8 34 -86.5
      vertex 33.8 37.75 -92.6911
    endloop
  endfacet
  facet normal -1 0 0
    outer loop
      vertex 33.8 37.75 -92.6911
      vertex 33.8 34 -86.5
      vertex 33.8 37.75 -90.3183
    endloop
  endfacet
  facet normal -1 0 0
    outer loop
      vertex 33.8 37.75 -90.3183
      vertex 33.8 34 -86.5
      vertex 33.8 37.75 -89.5495
    endloop
  endfacet
  facet normal -1 0 0
    outer loop
      vertex 33.8 37.75 -89.5495
      vertex 33.8 34 -86.5
      vertex 33.8 37.75 -87.1767
    endloop
  endfacet
  facet normal -1 0 0
    outer loop
      vertex 33.8 37.75 -87.1767
      vertex 33.8 34 -86.5
      vertex 33.8 37.75 -86.5
    endloop
  endfacet
  facet normal -1 0 0
    outer loop
      vertex 33.8 37.75 -133.532
      vertex 33.8 40 -131.974
      vertex 33.8 40 -132.716
    endloop
  endfacet
  facet normal -1 -0 0
    outer loop
      vertex 33.8 40 -131.974
      vertex 33.8 37.75 -133.532
      vertex 33.8 37.75 -131.159
    endloop
  endfacet
  facet normal -1 0 0
    outer loop
      vertex 33.8 37.75 -130.39
      vertex 33.8 40 -128.833
      vertex 33.8 40 -129.575
    endloop
  endfacet
  facet normal -1 -0 0
    outer loop
      vertex 33.8 40 -128.833
      vertex 33.8 37.75 -130.39
      vertex 33.8 37.75 -128.017
    endloop
  endfacet
  facet normal -1 0 0
    outer loop
      vertex 33.8 37.75 -127.249
      vertex 33.8 40 -125.691
      vertex 33.8 40 -126.433
    endloop
  endfacet
  facet normal -1 -0 0
    outer loop
      vertex 33.8 40 -125.691
      vertex 33.8 37.75 -127.249
      vertex 33.8 37.75 -124.876
    endloop
  endfacet
  facet normal -1 0 0
    outer loop
      vertex 33.8 37.75 -124.107
      vertex 33.8 40 -122.55
      vertex 33.8 40 -123.292
    endloop
  endfacet
  facet normal -1 -0 0
    outer loop
      vertex 33.8 40 -122.55
      vertex 33.8 37.75 -124.107
      vertex 33.8 37.75 -121.734
    endloop
  endfacet
  facet normal -1 0 0
    outer loop
      vertex 33.8 37.75 -120.965
      vertex 33.8 40 -119.408
      vertex 33.8 40 -120.15
    endloop
  endfacet
  facet normal -1 -0 0
    outer loop
      vertex 33.8 40 -119.408
      vertex 33.8 37.75 -120.965
      vertex 33.8 37.75 -118.593
    endloop
  endfacet
  facet normal -1 0 0
    outer loop
      vertex 33.8 37.75 -117.824
      vertex 33.8 40 -116.266
      vertex 33.8 40 -117.008
    endloop
  endfacet
  facet normal -1 -0 0
    outer loop
      vertex 33.8 40 -116.266
      vertex 33.8 37.75 -117.824
      vertex 33.8 37.75 -115.451
    endloop
  endfacet
  facet normal -1 0 0
    outer loop
      vertex 33.8 37.75 -114.682
      vertex 33.8 40 -113.125
      vertex 33.8 40 -113.867
    endloop
  endfacet
  facet normal -1 -0 0
    outer loop
      vertex 33.8 40 -113.125
      vertex 33.8 37.75 -114.682
      vertex 33.8 37.75 -112.309
    endloop
  endfacet
  facet normal -1 0 0
    outer loop
      vertex 33.8 37.75 -111.541
      vertex 33.8 40 -109.983
      vertex 33.8 40 -110.725
    endloop
  endfacet
  facet normal -1 -0 0
    outer loop
      vertex 33.8 40 -109.983
      vertex 33.8 37.75 -111.541
      vertex 33.8 37.75 -109.168
    endloop
  endfacet
  facet normal -1 0 0
    outer loop
      vertex 33.8 37.75 -108.399
      vertex 33.8 40 -106.842
      vertex 33.8 40 -107.584
    endloop
  endfacet
  facet normal -1 -0 0
    outer loop
      vertex 33.8 40 -106.842
      vertex 33.8 37.75 -108.399
      vertex 33.8 37.75 -106.026
    endloop
  endfacet
  facet normal -1 0 0
    outer loop
      vertex 33.8 37.75 -105.257
      vertex 33.8 40 -103.7
      vertex 33.8 40 -104.442
    endloop
  endfacet
  facet normal -1 -0 0
    outer loop
      vertex 33.8 40 -103.7
      vertex 33.8 37.75 -105.257
      vertex 33.8 37.75 -102.885
    endloop
  endfacet
  facet normal -1 0 0
    outer loop
      vertex 33.8 37.75 -102.116
      vertex 33.8 40 -100.558
      vertex 33.8 40 -101.3
    endloop
  endfacet
  facet normal -1 -0 0
    outer loop
      vertex 33.8 40 -100.558
      vertex 33.8 37.75 -102.116
      vertex 33.8 37.75 -99.7431
    endloop
  endfacet
  facet normal -1 0 0
    outer loop
      vertex 33.8 37.75 -98.9743
      vertex 33.8 40 -97.4169
      vertex 33.8 40 -98.1589
    endloop
  endfacet
  facet normal -1 -0 0
    outer loop
      vertex 33.8 40 -97.4169
      vertex 33.8 37.75 -98.9743
      vertex 33.8 37.75 -96.6015
    endloop
  endfacet
  facet normal -1 0 0
    outer loop
      vertex 33.8 37.75 -95.8327
      vertex 33.8 40 -94.2753
      vertex 33.8 40 -95.0173
    endloop
  endfacet
  facet normal -1 -0 0
    outer loop
      vertex 33.8 40 -94.2753
      vertex 33.8 37.75 -95.8327
      vertex 33.8 37.75 -93.4599
    endloop
  endfacet
  facet normal -1 0 0
    outer loop
      vertex 33.8 37.75 -92.6911
      vertex 33.8 40 -91.1337
      vertex 33.8 40 -91.8757
    endloop
  endfacet
  facet normal -1 -0 0
    outer loop
      vertex 33.8 40 -91.1337
      vertex 33.8 37.75 -92.6911
      vertex 33.8 37.75 -90.3183
    endloop
  endfacet
  facet normal -1 0 0
    outer loop
      vertex 33.8 37.75 -89.5495
      vertex 33.8 40 -87.9921
      vertex 33.8 40 -88.7341
    endloop
  endfacet
  facet normal -1 -0 0
    outer loop
      vertex 33.8 40 -87.9921
      vertex 33.8 37.75 -89.5495
      vertex 33.8 37.75 -87.1767
    endloop
  endfacet
  facet normal 0 1 0
    outer loop
      vertex 37.6 37.75 -86.5
      vertex 37.4 37.75 -87.1767
      vertex 33.8 37.75 -86.5
    endloop
  endfacet
  facet normal 0 1 0
    outer loop
      vertex 37.6 37.75 -86.5
      vertex 37.4 37.75 -89.5495
      vertex 37.4 37.75 -87.1767
    endloop
  endfacet
  facet normal 0 1 0
    outer loop
      vertex 37.4 37.75 -89.5495
      vertex 37.4 37.75 -90.3183
      vertex 33.8 37.75 -89.5495
    endloop
  endfacet
  facet normal 0 1 0
    outer loop
      vertex 37.6 37.75 -86.5
      vertex 37.4 37.75 -90.3183
      vertex 37.4 37.75 -89.5495
    endloop
  endfacet
  facet normal 0 1 0
    outer loop
      vertex 37.6 37.75 -86.5
      vertex 37.4 37.75 -92.6911
      vertex 37.4 37.75 -90.3183
    endloop
  endfacet
  facet normal 0 1 0
    outer loop
      vertex 37.4 37.75 -92.6911
      vertex 37.4 37.75 -93.4599
      vertex 33.8 37.75 -92.6911
    endloop
  endfacet
  facet normal 0 1 -0
    outer loop
      vertex 37.6 37.75 -96.5
      vertex 37.4 37.75 -92.6911
      vertex 37.6 37.75 -86.5
    endloop
  endfacet
  facet normal 0 1 0
    outer loop
      vertex 37.4 37.75 -92.6911
      vertex 37.6 37.75 -96.5
      vertex 37.4 37.75 -93.4599
    endloop
  endfacet
  facet normal 0 1 0
    outer loop
      vertex 37.4 37.75 -93.4599
      vertex 37.6 37.75 -96.5
      vertex 37.4 37.75 -95.8327
    endloop
  endfacet
  facet normal 0 1 0
    outer loop
      vertex 37.4 37.75 -96.5
      vertex 37.4 37.75 -95.8327
      vertex 37.6 37.75 -96.5
    endloop
  endfacet
  facet normal 0 1 0
    outer loop
      vertex 37.4 37.75 -95.8327
      vertex 37.4 37.75 -96.5
      vertex 33.8 37.75 -95.8327
    endloop
  endfacet
  facet normal 0 1 0
    outer loop
      vertex 33.8 37.75 -96.6015
      vertex 37.4 37.75 -96.5
      vertex 37.4 37.75 -96.6015
    endloop
  endfacet
  facet normal 0 1 0
    outer loop
      vertex 37.4 37.75 -96.5
      vertex 33.8 37.75 -96.6015
      vertex 33.8 37.75 -95.8327
    endloop
  endfacet
  facet normal 0 1 0
    outer loop
      vertex 33.8 37.75 -86.5
      vertex 37.4 37.75 -87.1767
      vertex 33.8 37.75 -87.1767
    endloop
  endfacet
  facet normal 0 1 0
    outer loop
      vertex 33.8 37.75 -89.5495
      vertex 37.4 37.75 -90.3183
      vertex 33.8 37.75 -90.3183
    endloop
  endfacet
  facet normal 0 1 0
    outer loop
      vertex 33.8 37.75 -92.6911
      vertex 37.4 37.75 -93.4599
      vertex 33.8 37.75 -93.4599
    endloop
  endfacet
  facet normal 0 1 -0
    outer loop
      vertex 37.4 37.75 -136.5
      vertex 33.8 37.75 -133.532
      vertex 37.4 37.75 -133.532
    endloop
  endfacet
  facet normal 0 1 0
    outer loop
      vertex 33.8 37.75 -133.532
      vertex 37.4 37.75 -136.5
      vertex 33.8 37.75 -136.5
    endloop
  endfacet
  facet normal 0 1 -0
    outer loop
      vertex 37.4 37.75 -112.309
      vertex 33.8 37.75 -111.541
      vertex 37.4 37.75 -111.541
    endloop
  endfacet
  facet normal 0 1 0
    outer loop
      vertex 33.8 37.75 -111.541
      vertex 37.4 37.75 -112.309
      vertex 33.8 37.75 -112.309
    endloop
  endfacet
  facet normal 0 1 -0
    outer loop
      vertex 37.4 37.75 -115.451
      vertex 33.8 37.75 -114.682
      vertex 37.4 37.75 -114.682
    endloop
  endfacet
  facet normal 0 1 0
    outer loop
      vertex 33.8 37.75 -114.682
      vertex 37.4 37.75 -115.451
      vertex 33.8 37.75 -115.451
    endloop
  endfacet
  facet normal 0 1 -0
    outer loop
      vertex 37.4 37.75 -118.593
      vertex 33.8 37.75 -117.824
      vertex 37.4 37.75 -117.824
    endloop
  endfacet
  facet normal 0 1 0
    outer loop
      vertex 33.8 37.75 -117.824
      vertex 37.4 37.75 -118.593
      vertex 33.8 37.75 -118.593
    endloop
  endfacet
  facet normal 0 1 -0
    outer loop
      vertex 37.4 37.75 -121.734
      vertex 33.8 37.75 -120.965
      vertex 37.4 37.75 -120.965
    endloop
  endfacet
  facet normal 0 1 0
    outer loop
      vertex 33.8 37.75 -120.965
      vertex 37.4 37.75 -121.734
      vertex 33.8 37.75 -121.734
    endloop
  endfacet
  facet normal 0 1 -0
    outer loop
      vertex 37.4 37.75 -124.876
      vertex 33.8 37.75 -124.107
      vertex 37.4 37.75 -124.107
    endloop
  endfacet
  facet normal 0 1 0
    outer loop
      vertex 33.8 37.75 -124.107
      vertex 37.4 37.75 -124.876
      vertex 33.8 37.75 -124.876
    endloop
  endfacet
  facet normal 0 1 -0
    outer loop
      vertex 37.4 37.75 -128.017
      vertex 33.8 37.75 -127.249
      vertex 37.4 37.75 -127.249
    endloop
  endfacet
  facet normal 0 1 0
    outer loop
      vertex 33.8 37.75 -127.249
      vertex 37.4 37.75 -128.017
      vertex 33.8 37.75 -128.017
    endloop
  endfacet
  facet normal 0 1 -0
    outer loop
      vertex 37.4 37.75 -131.159
      vertex 33.8 37.75 -130.39
      vertex 37.4 37.75 -130.39
    endloop
  endfacet
  facet normal 0 1 0
    outer loop
      vertex 33.8 37.75 -130.39
      vertex 37.4 37.75 -131.159
      vertex 33.8 37.75 -131.159
    endloop
  endfacet
  facet normal 0 1 -0
    outer loop
      vertex 37.4 37.75 -99.7431
      vertex 33.8 37.75 -98.9743
      vertex 37.4 37.75 -98.9743
    endloop
  endfacet
  facet normal 0 1 0
    outer loop
      vertex 33.8 37.75 -98.9743
      vertex 37.4 37.75 -99.7431
      vertex 33.8 37.75 -99.7431
    endloop
  endfacet
  facet normal 0 1 -0
    outer loop
      vertex 37.4 37.75 -102.885
      vertex 33.8 37.75 -102.116
      vertex 37.4 37.75 -102.116
    endloop
  endfacet
  facet normal 0 1 0
    outer loop
      vertex 33.8 37.75 -102.116
      vertex 37.4 37.75 -102.885
      vertex 33.8 37.75 -102.885
    endloop
  endfacet
  facet normal 0 1 -0
    outer loop
      vertex 37.4 37.75 -106.026
      vertex 33.8 37.75 -105.257
      vertex 37.4 37.75 -105.257
    endloop
  endfacet
  facet normal 0 1 0
    outer loop
      vertex 33.8 37.75 -105.257
      vertex 37.4 37.75 -106.026
      vertex 33.8 37.75 -106.026
    endloop
  endfacet
  facet normal 0 1 -0
    outer loop
      vertex 37.4 37.75 -109.168
      vertex 33.8 37.75 -108.399
      vertex 37.4 37.75 -108.399
    endloop
  endfacet
  facet normal 0 1 0
    outer loop
      vertex 33.8 37.75 -108.399
      vertex 37.4 37.75 -109.168
      vertex 33.8 37.75 -109.168
    endloop
  endfacet
  facet normal 0 -1 0
    outer loop
      vertex 33.8 34 -86.5
      vertex 37.4 34 -96.5
      vertex 37.6 34 -86.5
    endloop
  endfacet
  facet normal 0 -1 0
    outer loop
      vertex 33.8 34 -136.5
      vertex 37.4 34 -96.5
      vertex 33.8 34 -86.5
    endloop
  endfacet
  facet normal 0 -1 -0
    outer loop
      vertex 37.4 34 -96.5
      vertex 33.8 34 -136.5
      vertex 37.4 34 -136.5
    endloop
  endfacet
  facet normal 0 -1 -0
    outer loop
      vertex 37.6 34 -86.5
      vertex 37.4 34 -96.5
      vertex 37.6 34 -96.5
    endloop
  endfacet
  facet normal 0 1 -0
    outer loop
      vertex 37.4 40 -88.7341
      vertex 33.8 40 -87.9921
      vertex 37.4 40 -87.9921
    endloop
  endfacet
  facet normal 0 1 0
    outer loop
      vertex 33.8 40 -87.9921
      vertex 37.4 40 -88.7341
      vertex 33.8 40 -88.7341
    endloop
  endfacet
  facet normal -0 0.340716 0.940166
    outer loop
      vertex 33.8 40 -87.9921
      vertex 37.4 37.75 -87.1767
      vertex 37.4 40 -87.9921
    endloop
  endfacet
  facet normal 0 0.340716 0.940166
    outer loop
      vertex 37.4 37.75 -87.1767
      vertex 33.8 40 -87.9921
      vertex 33.8 37.75 -87.1767
    endloop
  endfacet
  facet normal 0 0.340716 -0.940166
    outer loop
      vertex 33.8 37.75 -89.5495
      vertex 37.4 40 -88.7341
      vertex 37.4 37.75 -89.5495
    endloop
  endfacet
  facet normal 0 0.340716 -0.940166
    outer loop
      vertex 37.4 40 -88.7341
      vertex 33.8 37.75 -89.5495
      vertex 33.8 40 -88.7341
    endloop
  endfacet
  facet normal 0 1 -0
    outer loop
      vertex 37.4 40 -91.8757
      vertex 33.8 40 -91.1337
      vertex 37.4 40 -91.1337
    endloop
  endfacet
  facet normal 0 1 0
    outer loop
      vertex 33.8 40 -91.1337
      vertex 37.4 40 -91.8757
      vertex 33.8 40 -91.8757
    endloop
  endfacet
  facet normal -0 0.340716 0.940166
    outer loop
      vertex 33.8 40 -91.1337
      vertex 37.4 37.75 -90.3183
      vertex 37.4 40 -91.1337
    endloop
  endfacet
  facet normal 0 0.340716 0.940166
    outer loop
      vertex 37.4 37.75 -90.3183
      vertex 33.8 40 -91.1337
      vertex 33.8 37.75 -90.3183
    endloop
  endfacet
  facet normal 0 0.340716 -0.940166
    outer loop
      vertex 33.8 37.75 -92.6911
      vertex 37.4 40 -91.8757
      vertex 37.4 37.75 -92.6911
    endloop
  endfacet
  facet normal 0 0.340716 -0.940166
    outer loop
      vertex 37.4 40 -91.8757
      vertex 33.8 37.75 -92.6911
      vertex 33.8 40 -91.8757
    endloop
  endfacet
  facet normal 0 1 -0
    outer loop
      vertex 37.4 40 -95.0173
      vertex 33.8 40 -94.2753
      vertex 37.4 40 -94.2753
    endloop
  endfacet
  facet normal 0 1 0
    outer loop
      vertex 33.8 40 -94.2753
      vertex 37.4 40 -95.0173
      vertex 33.8 40 -95.0173
    endloop
  endfacet
  facet normal -0 0.340716 0.940166
    outer loop
      vertex 33.8 40 -94.2753
      vertex 37.4 37.75 -93.4599
      vertex 37.4 40 -94.2753
    endloop
  endfacet
  facet normal 0 0.340716 0.940166
    outer loop
      vertex 37.4 37.75 -93.4599
      vertex 33.8 40 -94.2753
      vertex 33.8 37.75 -93.4599
    endloop
  endfacet
  facet normal 0 0.340716 -0.940166
    outer loop
      vertex 33.8 37.75 -95.8327
      vertex 37.4 40 -95.0173
      vertex 37.4 37.75 -95.8327
    endloop
  endfacet
  facet normal 0 0.340716 -0.940166
    outer loop
      vertex 37.4 40 -95.0173
      vertex 33.8 37.75 -95.8327
      vertex 33.8 40 -95.0173
    endloop
  endfacet
  facet normal 0 1 -0
    outer loop
      vertex 37.4 40 -98.1589
      vertex 33.8 40 -97.4169
      vertex 37.4 40 -97.4169
    endloop
  endfacet
  facet normal 0 1 0
    outer loop
      vertex 33.8 40 -97.4169
      vertex 37.4 40 -98.1589
      vertex 33.8 40 -98.1589
    endloop
  endfacet
  facet normal -0 0.340716 0.940166
    outer loop
      vertex 33.8 40 -97.4169
      vertex 37.4 37.75 -96.6015
      vertex 37.4 40 -97.4169
    endloop
  endfacet
  facet normal 0 0.340716 0.940166
    outer loop
      vertex 37.4 37.75 -96.6015
      vertex 33.8 40 -97.4169
      vertex 33.8 37.75 -96.6015
    endloop
  endfacet
  facet normal 0 0.340716 -0.940166
    outer loop
      vertex 33.8 37.75 -98.9743
      vertex 37.4 40 -98.1589
      vertex 37.4 37.75 -98.9743
    endloop
  endfacet
  facet normal 0 0.340716 -0.940166
    outer loop
      vertex 37.4 40 -98.1589
      vertex 33.8 37.75 -98.9743
      vertex 33.8 40 -98.1589
    endloop
  endfacet
  facet normal 0 1 -0
    outer loop
      vertex 37.4 40 -101.3
      vertex 33.8 40 -100.558
      vertex 37.4 40 -100.558
    endloop
  endfacet
  facet normal 0 1 0
    outer loop
      vertex 33.8 40 -100.558
      vertex 37.4 40 -101.3
      vertex 33.8 40 -101.3
    endloop
  endfacet
  facet normal -0 0.340532 0.940233
    outer loop
      vertex 33.8 40 -100.558
      vertex 37.4 37.75 -99.7431
      vertex 37.4 40 -100.558
    endloop
  endfacet
  facet normal 0 0.340532 0.940233
    outer loop
      vertex 37.4 37.75 -99.7431
      vertex 33.8 40 -100.558
      vertex 33.8 37.75 -99.7431
    endloop
  endfacet
  facet normal 0 0.340938 -0.940086
    outer loop
      vertex 33.8 37.75 -102.116
      vertex 37.4 40 -101.3
      vertex 37.4 37.75 -102.116
    endloop
  endfacet
  facet normal 0 0.340938 -0.940086
    outer loop
      vertex 37.4 40 -101.3
      vertex 33.8 37.75 -102.116
      vertex 33.8 40 -101.3
    endloop
  endfacet
  facet normal 0 1 -0
    outer loop
      vertex 37.4 40 -104.442
      vertex 33.8 40 -103.7
      vertex 37.4 40 -103.7
    endloop
  endfacet
  facet normal 0 1 0
    outer loop
      vertex 33.8 40 -103.7
      vertex 37.4 40 -104.442
      vertex 33.8 40 -104.442
    endloop
  endfacet
  facet normal -0 0.340568 0.94022
    outer loop
      vertex 33.8 40 -103.7
      vertex 37.4 37.75 -102.885
      vertex 37.4 40 -103.7
    endloop
  endfacet
  facet normal 0 0.340568 0.94022
    outer loop
      vertex 37.4 37.75 -102.885
      vertex 33.8 40 -103.7
      vertex 33.8 37.75 -102.885
    endloop
  endfacet
  facet normal 0 0.340568 -0.94022
    outer loop
      vertex 33.8 37.75 -105.257
      vertex 37.4 40 -104.442
      vertex 37.4 37.75 -105.257
    endloop
  endfacet
  facet normal 0 0.340568 -0.94022
    outer loop
      vertex 37.4 40 -104.442
      vertex 33.8 37.75 -105.257
      vertex 33.8 40 -104.442
    endloop
  endfacet
  facet normal 0 1 -0
    outer loop
      vertex 37.4 40 -107.584
      vertex 33.8 40 -106.842
      vertex 37.4 40 -106.842
    endloop
  endfacet
  facet normal 0 1 0
    outer loop
      vertex 33.8 40 -106.842
      vertex 37.4 40 -107.584
      vertex 33.8 40 -107.584
    endloop
  endfacet
  facet normal -0 0.340938 0.940086
    outer loop
      vertex 33.8 40 -106.842
      vertex 37.4 37.75 -106.026
      vertex 37.4 40 -106.842
    endloop
  endfacet
  facet normal 0 0.340938 0.940086
    outer loop
      vertex 37.4 37.75 -106.026
      vertex 33.8 40 -106.842
      vertex 33.8 37.75 -106.026
    endloop
  endfacet
  facet normal 0 0.340568 -0.94022
    outer loop
      vertex 33.8 37.75 -108.399
      vertex 37.4 40 -107.584
      vertex 37.4 37.75 -108.399
    endloop
  endfacet
  facet normal 0 0.340568 -0.94022
    outer loop
      vertex 37.4 40 -107.584
      vertex 33.8 37.75 -108.399
      vertex 33.8 40 -107.584
    endloop
  endfacet
  facet normal 0 1 -0
    outer loop
      vertex 37.4 40 -110.725
      vertex 33.8 40 -109.983
      vertex 37.4 40 -109.983
    endloop
  endfacet
  facet normal 0 1 0
    outer loop
      vertex 33.8 40 -109.983
      vertex 37.4 40 -110.725
      vertex 33.8 40 -110.725
    endloop
  endfacet
  facet normal -0 0.340568 0.94022
    outer loop
      vertex 33.8 40 -109.983
      vertex 37.4 37.75 -109.168
      vertex 37.4 40 -109.983
    endloop
  endfacet
  facet normal 0 0.340568 0.94022
    outer loop
      vertex 37.4 37.75 -109.168
      vertex 33.8 40 -109.983
      vertex 33.8 37.75 -109.168
    endloop
  endfacet
  facet normal 0 0.340938 -0.940086
    outer loop
      vertex 33.8 37.75 -111.541
      vertex 37.4 40 -110.725
      vertex 37.4 37.75 -111.541
    endloop
  endfacet
  facet normal 0 0.340938 -0.940086
    outer loop
      vertex 37.4 40 -110.725
      vertex 33.8 37.75 -111.541
      vertex 33.8 40 -110.725
    endloop
  endfacet
  facet normal 0 1 -0
    outer loop
      vertex 37.4 40 -113.867
      vertex 33.8 40 -113.125
      vertex 37.4 40 -113.125
    endloop
  endfacet
  facet normal 0 1 0
    outer loop
      vertex 33.8 40 -113.125
      vertex 37.4 40 -113.867
      vertex 33.8 40 -113.867
    endloop
  endfacet
  facet normal -0 0.340938 0.940086
    outer loop
      vertex 33.8 40 -113.125
      vertex 37.4 37.75 -112.309
      vertex 37.4 40 -113.125
    endloop
  endfacet
  facet normal 0 0.340938 0.940086
    outer loop
      vertex 37.4 37.75 -112.309
      vertex 33.8 40 -113.125
      vertex 33.8 37.75 -112.309
    endloop
  endfacet
  facet normal 0 0.340568 -0.94022
    outer loop
      vertex 33.8 37.75 -114.682
      vertex 37.4 40 -113.867
      vertex 37.4 37.75 -114.682
    endloop
  endfacet
  facet normal 0 0.340568 -0.94022
    outer loop
      vertex 37.4 40 -113.867
      vertex 33.8 37.75 -114.682
      vertex 33.8 40 -113.867
    endloop
  endfacet
  facet normal 0 1 -0
    outer loop
      vertex 37.4 40 -117.008
      vertex 33.8 40 -116.266
      vertex 37.4 40 -116.266
    endloop
  endfacet
  facet normal 0 1 0
    outer loop
      vertex 33.8 40 -116.266
      vertex 37.4 40 -117.008
      vertex 33.8 40 -117.008
    endloop
  endfacet
  facet normal -0 0.340568 0.94022
    outer loop
      vertex 33.8 40 -116.266
      vertex 37.4 37.75 -115.451
      vertex 37.4 40 -116.266
    endloop
  endfacet
  facet normal 0 0.340568 0.94022
    outer loop
      vertex 37.4 37.75 -115.451
      vertex 33.8 40 -116.266
      vertex 33.8 37.75 -115.451
    endloop
  endfacet
  facet normal 0 0.340938 -0.940086
    outer loop
      vertex 33.8 37.75 -117.824
      vertex 37.4 40 -117.008
      vertex 37.4 37.75 -117.824
    endloop
  endfacet
  facet normal 0 0.340938 -0.940086
    outer loop
      vertex 37.4 40 -117.008
      vertex 33.8 37.75 -117.824
      vertex 33.8 40 -117.008
    endloop
  endfacet
  facet normal 0 1 -0
    outer loop
      vertex 37.4 40 -120.15
      vertex 33.8 40 -119.408
      vertex 37.4 40 -119.408
    endloop
  endfacet
  facet normal 0 1 0
    outer loop
      vertex 33.8 40 -119.408
      vertex 37.4 40 -120.15
      vertex 33.8 40 -120.15
    endloop
  endfacet
  facet normal -0 0.340568 0.94022
    outer loop
      vertex 33.8 40 -119.408
      vertex 37.4 37.75 -118.593
      vertex 37.4 40 -119.408
    endloop
  endfacet
  facet normal 0 0.340568 0.94022
    outer loop
      vertex 37.4 37.75 -118.593
      vertex 33.8 40 -119.408
      vertex 33.8 37.75 -118.593
    endloop
  endfacet
  facet normal 0 0.340568 -0.94022
    outer loop
      vertex 33.8 37.75 -120.965
      vertex 37.4 40 -120.15
      vertex 37.4 37.75 -120.965
    endloop
  endfacet
  facet normal 0 0.340568 -0.94022
    outer loop
      vertex 37.4 40 -120.15
      vertex 33.8 37.75 -120.965
      vertex 33.8 40 -120.15
    endloop
  endfacet
  facet normal 0 1 -0
    outer loop
      vertex 37.4 40 -123.292
      vertex 33.8 40 -122.55
      vertex 37.4 40 -122.55
    endloop
  endfacet
  facet normal 0 1 0
    outer loop
      vertex 33.8 40 -122.55
      vertex 37.4 40 -123.292
      vertex 33.8 40 -123.292
    endloop
  endfacet
  facet normal -0 0.340938 0.940086
    outer loop
      vertex 33.8 40 -122.55
      vertex 37.4 37.75 -121.734
      vertex 37.4 40 -122.55
    endloop
  endfacet
  facet normal 0 0.340938 0.940086
    outer loop
      vertex 37.4 37.75 -121.734
      vertex 33.8 40 -122.55
      vertex 33.8 37.75 -121.734
    endloop
  endfacet
  facet normal 0 0.340568 -0.94022
    outer loop
      vertex 33.8 37.75 -124.107
      vertex 37.4 40 -123.292
      vertex 37.4 37.75 -124.107
    endloop
  endfacet
  facet normal 0 0.340568 -0.94022
    outer loop
      vertex 37.4 40 -123.292
      vertex 33.8 37.75 -124.107
      vertex 33.8 40 -123.292
    endloop
  endfacet
  facet normal 0 1 -0
    outer loop
      vertex 37.4 40 -126.433
      vertex 33.8 40 -125.691
      vertex 37.4 40 -125.691
    endloop
  endfacet
  facet normal 0 1 0
    outer loop
      vertex 33.8 40 -125.691
      vertex 37.4 40 -126.433
      vertex 33.8 40 -126.433
    endloop
  endfacet
  facet normal -0 0.340568 0.94022
    outer loop
      vertex 33.8 40 -125.691
      vertex 37.4 37.75 -124.876
      vertex 37.4 40 -125.691
    endloop
  endfacet
  facet normal 0 0.340568 0.94022
    outer loop
      vertex 37.4 37.75 -124.876
      vertex 33.8 40 -125.691
      vertex 33.8 37.75 -124.876
    endloop
  endfacet
  facet normal 0 0.340938 -0.940086
    outer loop
      vertex 33.8 37.75 -127.249
      vertex 37.4 40 -126.433
      vertex 37.4 37.75 -127.249
    endloop
  endfacet
  facet normal 0 0.340938 -0.940086
    outer loop
      vertex 37.4 40 -126.433
      vertex 33.8 37.75 -127.249
      vertex 33.8 40 -126.433
    endloop
  endfacet
  facet normal 0 1 -0
    outer loop
      vertex 37.4 40 -129.575
      vertex 33.8 40 -128.833
      vertex 37.4 40 -128.833
    endloop
  endfacet
  facet normal 0 1 0
    outer loop
      vertex 33.8 40 -128.833
      vertex 37.4 40 -129.575
      vertex 33.8 40 -129.575
    endloop
  endfacet
  facet normal -0 0.340938 0.940086
    outer loop
      vertex 33.8 40 -128.833
      vertex 37.4 37.75 -128.017
      vertex 37.4 40 -128.833
    endloop
  endfacet
  facet normal 0 0.340938 0.940086
    outer loop
      vertex 37.4 37.75 -128.017
      vertex 33.8 40 -128.833
      vertex 33.8 37.75 -128.017
    endloop
  endfacet
  facet normal 0 0.340568 -0.94022
    outer loop
      vertex 33.8 37.75 -130.39
      vertex 37.4 40 -129.575
      vertex 37.4 37.75 -130.39
    endloop
  endfacet
  facet normal 0 0.340568 -0.94022
    outer loop
      vertex 37.4 40 -129.575
      vertex 33.8 37.75 -130.39
      vertex 33.8 40 -129.575
    endloop
  endfacet
  facet normal 0 1 -0
    outer loop
      vertex 37.4 40 -132.716
      vertex 33.8 40 -131.974
      vertex 37.4 40 -131.974
    endloop
  endfacet
  facet normal 0 1 0
    outer loop
      vertex 33.8 40 -131.974
      vertex 37.4 40 -132.716
      vertex 33.8 40 -132.716
    endloop
  endfacet
  facet normal -0 0.340568 0.94022
    outer loop
      vertex 33.8 40 -131.974
      vertex 37.4 37.75 -131.159
      vertex 37.4 40 -131.974
    endloop
  endfacet
  facet normal 0 0.340568 0.94022
    outer loop
      vertex 37.4 37.75 -131.159
      vertex 33.8 40 -131.974
      vertex 33.8 37.75 -131.159
    endloop
  endfacet
  facet normal 0 0.340938 -0.940086
    outer loop
      vertex 33.8 37.75 -133.532
      vertex 37.4 40 -132.716
      vertex 37.4 37.75 -133.532
    endloop
  endfacet
  facet normal 0 0.340938 -0.940086
    outer loop
      vertex 37.4 40 -132.716
      vertex 33.8 37.75 -133.532
      vertex 33.8 40 -132.716
    endloop
  endfacet
  facet normal 1 -0 0
    outer loop
      vertex 39.6 -44.6 -56.5
      vertex 39.6 42 -96.5
      vertex 39.6 42 -56.5
    endloop
  endfacet
  facet normal 1 0 0
    outer loop
      vertex 39.6 42 -96.5
      vertex 39.6 -44.6 -56.5
      vertex 39.6 -44.6 -96.5
    endloop
  endfacet
  facet normal -0 0 1
    outer loop
      vertex 37.6 42 -56.5
      vertex 39.6 -44.6 -56.5
      vertex 39.6 42 -56.5
    endloop
  endfacet
  facet normal 0 0 1
    outer loop
      vertex 39.6 -44.6 -56.5
      vertex 37.6 42 -56.5
      vertex 37.6 -44.6 -56.5
    endloop
  endfacet
  facet normal 0 0 -1
    outer loop
      vertex 37.4 34 -96.5
      vertex 37.6 37.75 -96.5
      vertex 37.6 34 -96.5
    endloop
  endfacet
  facet normal -0 0 -1
    outer loop
      vertex 37.6 37.75 -96.5
      vertex 37.4 34 -96.5
      vertex 37.4 37.75 -96.5
    endloop
  endfacet
  facet normal 0 0 -1
    outer loop
      vertex 37.6 34 -96.5
      vertex 39.6 -44.6 -96.5
      vertex 37.6 -44.6 -96.5
    endloop
  endfacet
  facet normal 0 0 -1
    outer loop
      vertex 39.6 -44.6 -96.5
      vertex 37.6 34 -96.5
      vertex 39.6 42 -96.5
    endloop
  endfacet
  facet normal 0 0 -1
    outer loop
      vertex 37.6 37.75 -96.5
      vertex 39.6 42 -96.5
      vertex 37.6 34 -96.5
    endloop
  endfacet
  facet normal -0 0 -1
    outer loop
      vertex 39.6 42 -96.5
      vertex 37.6 37.75 -96.5
      vertex 37.6 42 -96.5
    endloop
  endfacet
  facet normal -1 0 0
    outer loop
      vertex 37.6 34 -96.5
      vertex 37.6 -44.6 -96.5
      vertex 37.6 34 -86.5
    endloop
  endfacet
  facet normal -1 0 0
    outer loop
      vertex 37.6 37.75 -86.5
      vertex 37.6 42 -96.5
      vertex 37.6 37.75 -96.5
    endloop
  endfacet
  facet normal -1 0 0
    outer loop
      vertex 37.6 42 -96.5
      vertex 37.6 37.75 -86.5
      vertex 37.6 42 -56.5
    endloop
  endfacet
  facet normal -1 0 0
    outer loop
      vertex 37.6 34 -86.5
      vertex 37.6 42 -56.5
      vertex 37.6 37.75 -86.5
    endloop
  endfacet
  facet normal -1 0 0
    outer loop
      vertex 37.6 -44.6 -56.5
      vertex 37.6 34 -86.5
      vertex 37.6 -44.6 -96.5
    endloop
  endfacet
  facet normal -1 0 0
    outer loop
      vertex 37.6 34 -86.5
      vertex 37.6 -44.6 -56.5
      vertex 37.6 42 -56.5
    endloop
  endfacet
  facet normal 0 1 -0
    outer loop
      vertex 39.6 42 -96.5
      vertex 37.6 42 -56.5
      vertex 39.6 42 -56.5
    endloop
  endfacet
  facet normal 0 1 0
    outer loop
      vertex 37.6 42 -56.5
      vertex 39.6 42 -96.5
      vertex 37.6 42 -96.5
    endloop
  endfacet
  facet normal 0 -1 0
    outer loop
      vertex 37.6 -44.6 -96.5
      vertex 39.6 -44.6 -56.5
      vertex 37.6 -44.6 -56.5
    endloop
  endfacet
  facet normal 0 -1 -0
    outer loop
      vertex 39.6 -44.6 -56.5
      vertex 37.6 -44.6 -96.5
      vertex 39.6 -44.6 -96.5
    endloop
  endfacet
endsolid OpenSCAD_Model
