solid OpenSCAD_Model
  facet normal 1 -0 0
    outer loop
      vertex 37.4 56 -147.484
      vertex 37.4 58.25 -149.042
      vertex 37.4 58.25 -146.669
    endloop
  endfacet
  facet normal 1 0 0
    outer loop
      vertex 37.4 58.25 -149.042
      vertex 37.4 56 -147.484
      vertex 37.4 56 -148.226
    endloop
  endfacet
  facet normal 1 -0 0
    outer loop
      vertex 37.4 56 -144.343
      vertex 37.4 58.25 -145.9
      vertex 37.4 58.25 -143.527
    endloop
  endfacet
  facet normal 1 0 0
    outer loop
      vertex 37.4 58.25 -145.9
      vertex 37.4 56 -144.343
      vertex 37.4 56 -145.085
    endloop
  endfacet
  facet normal 1 -0 0
    outer loop
      vertex 37.4 56 -141.201
      vertex 37.4 58.25 -142.758
      vertex 37.4 58.25 -140.386
    endloop
  endfacet
  facet normal 1 0 0
    outer loop
      vertex 37.4 58.25 -142.758
      vertex 37.4 56 -141.201
      vertex 37.4 56 -141.943
    endloop
  endfacet
  facet normal 1 -0 0
    outer loop
      vertex 37.4 56 -138.059
      vertex 37.4 58.25 -139.617
      vertex 37.4 58.25 -137.244
    endloop
  endfacet
  facet normal 1 0 0
    outer loop
      vertex 37.4 58.25 -139.617
      vertex 37.4 56 -138.059
      vertex 37.4 56 -138.801
    endloop
  endfacet
  facet normal 1 -0 0
    outer loop
      vertex 37.4 56 -134.918
      vertex 37.4 58.25 -136.475
      vertex 37.4 58.25 -134.102
    endloop
  endfacet
  facet normal 1 0 0
    outer loop
      vertex 37.4 58.25 -136.475
      vertex 37.4 56 -134.918
      vertex 37.4 56 -135.66
    endloop
  endfacet
  facet normal 1 -0 0
    outer loop
      vertex 37.4 56 -131.776
      vertex 37.4 58.25 -133.334
      vertex 37.4 58.25 -130.961
    endloop
  endfacet
  facet normal 1 0 0
    outer loop
      vertex 37.4 58.25 -133.334
      vertex 37.4 56 -131.776
      vertex 37.4 56 -132.518
    endloop
  endfacet
  facet normal 1 -0 0
    outer loop
      vertex 37.4 56 -128.635
      vertex 37.4 58.25 -130.192
      vertex 37.4 58.25 -127.819
    endloop
  endfacet
  facet normal 1 0 0
    outer loop
      vertex 37.4 58.25 -130.192
      vertex 37.4 56 -128.635
      vertex 37.4 56 -129.377
    endloop
  endfacet
  facet normal 1 -0 0
    outer loop
      vertex 37.4 56 -125.493
      vertex 37.4 58.25 -127.05
      vertex 37.4 58.25 -124.678
    endloop
  endfacet
  facet normal 1 0 0
    outer loop
      vertex 37.4 58.25 -127.05
      vertex 37.4 56 -125.493
      vertex 37.4 56 -126.235
    endloop
  endfacet
  facet normal 1 -0 0
    outer loop
      vertex 37.4 56 -122.351
      vertex 37.4 58.25 -123.909
      vertex 37.4 58.25 -121.536
    endloop
  endfacet
  facet normal 1 0 0
    outer loop
      vertex 37.4 58.25 -123.909
      vertex 37.4 56 -122.351
      vertex 37.4 56 -123.093
    endloop
  endfacet
  facet normal 1 -0 0
    outer loop
      vertex 37.4 56 -119.21
      vertex 37.4 58.25 -120.767
      vertex 37.4 58.25 -118.395
    endloop
  endfacet
  facet normal 1 0 0
    outer loop
      vertex 37.4 58.25 -120.767
      vertex 37.4 56 -119.21
      vertex 37.4 56 -119.952
    endloop
  endfacet
  facet normal 1 -0 0
    outer loop
      vertex 37.4 56 -116.068
      vertex 37.4 58.25 -117.626
      vertex 37.4 58.25 -115.253
    endloop
  endfacet
  facet normal 1 0 0
    outer loop
      vertex 37.4 58.25 -117.626
      vertex 37.4 56 -116.068
      vertex 37.4 56 -116.81
    endloop
  endfacet
  facet normal 1 -0 0
    outer loop
      vertex 37.4 56 -112.927
      vertex 37.4 58.25 -114.484
      vertex 37.4 58.25 -112.111
    endloop
  endfacet
  facet normal 1 0 0
    outer loop
      vertex 37.4 58.25 -114.484
      vertex 37.4 56 -112.927
      vertex 37.4 56 -113.669
    endloop
  endfacet
  facet normal 1 -0 0
    outer loop
      vertex 37.4 56 -109.785
      vertex 37.4 58.25 -111.342
      vertex 37.4 58.25 -108.97
    endloop
  endfacet
  facet normal 1 0 0
    outer loop
      vertex 37.4 58.25 -111.342
      vertex 37.4 56 -109.785
      vertex 37.4 56 -110.527
    endloop
  endfacet
  facet normal 1 -0 0
    outer loop
      vertex 37.4 56 -106.644
      vertex 37.4 58.25 -108.201
      vertex 37.4 58.25 -105.828
    endloop
  endfacet
  facet normal 1 0 0
    outer loop
      vertex 37.4 58.25 -108.201
      vertex 37.4 56 -106.644
      vertex 37.4 56 -107.386
    endloop
  endfacet
  facet normal 1 -0 0
    outer loop
      vertex 37.4 56 -103.502
      vertex 37.4 58.25 -105.059
      vertex 37.4 58.25 -102.687
    endloop
  endfacet
  facet normal 1 0 0
    outer loop
      vertex 37.4 58.25 -105.059
      vertex 37.4 56 -103.502
      vertex 37.4 56 -104.244
    endloop
  endfacet
  facet normal 1 0 0
    outer loop
      vertex 37.4 61.5 -100
      vertex 37.4 60 -152
      vertex 37.4 61.5 -160
    endloop
  endfacet
  facet normal 1 0 0
    outer loop
      vertex 37.4 58.25 -102.687
      vertex 37.4 61.5 -100
      vertex 37.4 58.25 -100
    endloop
  endfacet
  facet normal 1 0 0
    outer loop
      vertex 37.4 58.25 -105.059
      vertex 37.4 61.5 -100
      vertex 37.4 58.25 -102.687
    endloop
  endfacet
  facet normal 1 0 0
    outer loop
      vertex 37.4 58.25 -105.828
      vertex 37.4 61.5 -100
      vertex 37.4 58.25 -105.059
    endloop
  endfacet
  facet normal 1 0 0
    outer loop
      vertex 37.4 58.25 -108.201
      vertex 37.4 61.5 -100
      vertex 37.4 58.25 -105.828
    endloop
  endfacet
  facet normal 1 0 0
    outer loop
      vertex 37.4 58.25 -108.97
      vertex 37.4 61.5 -100
      vertex 37.4 58.25 -108.201
    endloop
  endfacet
  facet normal 1 0 0
    outer loop
      vertex 37.4 58.25 -111.342
      vertex 37.4 61.5 -100
      vertex 37.4 58.25 -108.97
    endloop
  endfacet
  facet normal 1 0 0
    outer loop
      vertex 37.4 58.25 -112.111
      vertex 37.4 61.5 -100
      vertex 37.4 58.25 -111.342
    endloop
  endfacet
  facet normal 1 0 0
    outer loop
      vertex 37.4 58.25 -114.484
      vertex 37.4 61.5 -100
      vertex 37.4 58.25 -112.111
    endloop
  endfacet
  facet normal 1 0 0
    outer loop
      vertex 37.4 58.25 -115.253
      vertex 37.4 61.5 -100
      vertex 37.4 58.25 -114.484
    endloop
  endfacet
  facet normal 1 0 0
    outer loop
      vertex 37.4 58.25 -117.626
      vertex 37.4 61.5 -100
      vertex 37.4 58.25 -115.253
    endloop
  endfacet
  facet normal 1 0 0
    outer loop
      vertex 37.4 58.25 -118.395
      vertex 37.4 61.5 -100
      vertex 37.4 58.25 -117.626
    endloop
  endfacet
  facet normal 1 0 0
    outer loop
      vertex 37.4 58.25 -120.767
      vertex 37.4 61.5 -100
      vertex 37.4 58.25 -118.395
    endloop
  endfacet
  facet normal 1 0 0
    outer loop
      vertex 37.4 58.25 -121.536
      vertex 37.4 61.5 -100
      vertex 37.4 58.25 -120.767
    endloop
  endfacet
  facet normal 1 0 0
    outer loop
      vertex 37.4 58.25 -123.909
      vertex 37.4 61.5 -100
      vertex 37.4 58.25 -121.536
    endloop
  endfacet
  facet normal 1 0 0
    outer loop
      vertex 37.4 58.25 -124.678
      vertex 37.4 61.5 -100
      vertex 37.4 58.25 -123.909
    endloop
  endfacet
  facet normal 1 0 0
    outer loop
      vertex 37.4 58.25 -127.05
      vertex 37.4 61.5 -100
      vertex 37.4 58.25 -124.678
    endloop
  endfacet
  facet normal 1 0 0
    outer loop
      vertex 37.4 58.25 -127.819
      vertex 37.4 61.5 -100
      vertex 37.4 58.25 -127.05
    endloop
  endfacet
  facet normal 1 0 0
    outer loop
      vertex 37.4 61.5 -100
      vertex 37.4 58.25 -127.819
      vertex 37.4 60 -152
    endloop
  endfacet
  facet normal 1 -0 0
    outer loop
      vertex 37.4 58.25 -130.192
      vertex 37.4 60 -152
      vertex 37.4 58.25 -127.819
    endloop
  endfacet
  facet normal 1 -0 0
    outer loop
      vertex 37.4 58.25 -130.961
      vertex 37.4 60 -152
      vertex 37.4 58.25 -130.192
    endloop
  endfacet
  facet normal 1 -0 0
    outer loop
      vertex 37.4 58.25 -133.334
      vertex 37.4 60 -152
      vertex 37.4 58.25 -130.961
    endloop
  endfacet
  facet normal 1 -0 0
    outer loop
      vertex 37.4 58.25 -134.102
      vertex 37.4 60 -152
      vertex 37.4 58.25 -133.334
    endloop
  endfacet
  facet normal 1 -0 0
    outer loop
      vertex 37.4 58.25 -136.475
      vertex 37.4 60 -152
      vertex 37.4 58.25 -134.102
    endloop
  endfacet
  facet normal 1 -0 0
    outer loop
      vertex 37.4 58.25 -137.244
      vertex 37.4 60 -152
      vertex 37.4 58.25 -136.475
    endloop
  endfacet
  facet normal 1 -0 0
    outer loop
      vertex 37.4 58.25 -139.617
      vertex 37.4 60 -152
      vertex 37.4 58.25 -137.244
    endloop
  endfacet
  facet normal 1 -0 0
    outer loop
      vertex 37.4 58.25 -140.386
      vertex 37.4 60 -152
      vertex 37.4 58.25 -139.617
    endloop
  endfacet
  facet normal 1 -0 0
    outer loop
      vertex 37.4 58.25 -142.758
      vertex 37.4 60 -152
      vertex 37.4 58.25 -140.386
    endloop
  endfacet
  facet normal 1 -0 0
    outer loop
      vertex 37.4 58.25 -143.527
      vertex 37.4 60 -152
      vertex 37.4 58.25 -142.758
    endloop
  endfacet
  facet normal 1 -0 0
    outer loop
      vertex 37.4 58.25 -145.9
      vertex 37.4 60 -152
      vertex 37.4 58.25 -143.527
    endloop
  endfacet
  facet normal 1 -0 0
    outer loop
      vertex 37.4 58.25 -146.669
      vertex 37.4 60 -152
      vertex 37.4 58.25 -145.9
    endloop
  endfacet
  facet normal 1 -0 0
    outer loop
      vertex 37.4 58.25 -149.042
      vertex 37.4 60 -152
      vertex 37.4 58.25 -146.669
    endloop
  endfacet
  facet normal 1 -0 0
    outer loop
      vertex 37.4 58.25 -149.81
      vertex 37.4 60 -152
      vertex 37.4 58.25 -149.042
    endloop
  endfacet
  facet normal 1 0 0
    outer loop
      vertex 37.4 58.25 -149.81
      vertex 37.4 57.7444 -152
      vertex 37.4 60 -152
    endloop
  endfacet
  facet normal 1 -0 0
    outer loop
      vertex 37.4 56 -150.626
      vertex 37.4 57.7444 -152
      vertex 37.4 58.25 -149.81
    endloop
  endfacet
  facet normal 1 0 0
    outer loop
      vertex 37.4 57.7444 -152
      vertex 37.4 56 -150.626
      vertex 37.4 56 -151.368
    endloop
  endfacet
  facet normal 1 0 0
    outer loop
      vertex 37.4 61.5 -160
      vertex 37.4 60 -152
      vertex 37.4 60 -160
    endloop
  endfacet
  facet normal -0 0 1
    outer loop
      vertex 33.8 61.5 -100
      vertex 37.4 58.25 -100
      vertex 37.4 61.5 -100
    endloop
  endfacet
  facet normal 0 0 1
    outer loop
      vertex 37.4 58.25 -100
      vertex 33.8 61.5 -100
      vertex 33.8 58.25 -100
    endloop
  endfacet
  facet normal 0 0 -1
    outer loop
      vertex 37.6 42.5 -160
      vertex 39.6 42 -160
      vertex 37.6 42 -160
    endloop
  endfacet
  facet normal 0 0 -1
    outer loop
      vertex 39.6 42 -160
      vertex 37.6 42.5 -160
      vertex 39.6 60 -160
    endloop
  endfacet
  facet normal 0 0 -1
    outer loop
      vertex 37.6 42.5 -160
      vertex 37.4 60 -160
      vertex 39.6 60 -160
    endloop
  endfacet
  facet normal 0 0 -1
    outer loop
      vertex 33.8 42.5 -160
      vertex 37.4 60 -160
      vertex 37.6 42.5 -160
    endloop
  endfacet
  facet normal 0 0 -1
    outer loop
      vertex 33.8 61.5 -160
      vertex 37.4 60 -160
      vertex 33.8 42.5 -160
    endloop
  endfacet
  facet normal 0 0 -1
    outer loop
      vertex 37.4 60 -160
      vertex 33.8 61.5 -160
      vertex 37.4 61.5 -160
    endloop
  endfacet
  facet normal -1 0 0
    outer loop
      vertex 33.8 56 -104.244
      vertex 33.8 58.25 -102.687
      vertex 33.8 58.25 -105.059
    endloop
  endfacet
  facet normal -1 0 0
    outer loop
      vertex 33.8 58.25 -102.687
      vertex 33.8 56 -104.244
      vertex 33.8 56 -103.502
    endloop
  endfacet
  facet normal -1 0 0
    outer loop
      vertex 33.8 56 -107.386
      vertex 33.8 58.25 -105.828
      vertex 33.8 58.25 -108.201
    endloop
  endfacet
  facet normal -1 0 0
    outer loop
      vertex 33.8 58.25 -105.828
      vertex 33.8 56 -107.386
      vertex 33.8 56 -106.644
    endloop
  endfacet
  facet normal -1 0 0
    outer loop
      vertex 33.8 56 -110.527
      vertex 33.8 58.25 -108.97
      vertex 33.8 58.25 -111.342
    endloop
  endfacet
  facet normal -1 0 0
    outer loop
      vertex 33.8 58.25 -108.97
      vertex 33.8 56 -110.527
      vertex 33.8 56 -109.785
    endloop
  endfacet
  facet normal -1 0 0
    outer loop
      vertex 33.8 56 -113.669
      vertex 33.8 58.25 -112.111
      vertex 33.8 58.25 -114.484
    endloop
  endfacet
  facet normal -1 0 0
    outer loop
      vertex 33.8 58.25 -112.111
      vertex 33.8 56 -113.669
      vertex 33.8 56 -112.927
    endloop
  endfacet
  facet normal -1 0 0
    outer loop
      vertex 33.8 56 -116.81
      vertex 33.8 58.25 -115.253
      vertex 33.8 58.25 -117.626
    endloop
  endfacet
  facet normal -1 0 0
    outer loop
      vertex 33.8 58.25 -115.253
      vertex 33.8 56 -116.81
      vertex 33.8 56 -116.068
    endloop
  endfacet
  facet normal -1 0 0
    outer loop
      vertex 33.8 56 -119.952
      vertex 33.8 58.25 -118.395
      vertex 33.8 58.25 -120.767
    endloop
  endfacet
  facet normal -1 0 0
    outer loop
      vertex 33.8 58.25 -118.395
      vertex 33.8 56 -119.952
      vertex 33.8 56 -119.21
    endloop
  endfacet
  facet normal -1 0 0
    outer loop
      vertex 33.8 56 -123.093
      vertex 33.8 58.25 -121.536
      vertex 33.8 58.25 -123.909
    endloop
  endfacet
  facet normal -1 0 0
    outer loop
      vertex 33.8 58.25 -121.536
      vertex 33.8 56 -123.093
      vertex 33.8 56 -122.351
    endloop
  endfacet
  facet normal -1 0 0
    outer loop
      vertex 33.8 56 -126.235
      vertex 33.8 58.25 -124.678
      vertex 33.8 58.25 -127.05
    endloop
  endfacet
  facet normal -1 0 0
    outer loop
      vertex 33.8 58.25 -124.678
      vertex 33.8 56 -126.235
      vertex 33.8 56 -125.493
    endloop
  endfacet
  facet normal -1 0 0
    outer loop
      vertex 33.8 56 -129.377
      vertex 33.8 58.25 -127.819
      vertex 33.8 58.25 -130.192
    endloop
  endfacet
  facet normal -1 0 0
    outer loop
      vertex 33.8 58.25 -127.819
      vertex 33.8 56 -129.377
      vertex 33.8 56 -128.635
    endloop
  endfacet
  facet normal -1 0 0
    outer loop
      vertex 33.8 56 -132.518
      vertex 33.8 58.25 -130.961
      vertex 33.8 58.25 -133.334
    endloop
  endfacet
  facet normal -1 0 0
    outer loop
      vertex 33.8 58.25 -130.961
      vertex 33.8 56 -132.518
      vertex 33.8 56 -131.776
    endloop
  endfacet
  facet normal -1 0 0
    outer loop
      vertex 33.8 56 -135.66
      vertex 33.8 58.25 -134.102
      vertex 33.8 58.25 -136.475
    endloop
  endfacet
  facet normal -1 0 0
    outer loop
      vertex 33.8 58.25 -134.102
      vertex 33.8 56 -135.66
      vertex 33.8 56 -134.918
    endloop
  endfacet
  facet normal -1 0 0
    outer loop
      vertex 33.8 56 -138.801
      vertex 33.8 58.25 -137.244
      vertex 33.8 58.25 -139.617
    endloop
  endfacet
  facet normal -1 0 0
    outer loop
      vertex 33.8 58.25 -137.244
      vertex 33.8 56 -138.801
      vertex 33.8 56 -138.059
    endloop
  endfacet
  facet normal -1 0 0
    outer loop
      vertex 33.8 56 -141.943
      vertex 33.8 58.25 -140.386
      vertex 33.8 58.25 -142.758
    endloop
  endfacet
  facet normal -1 0 0
    outer loop
      vertex 33.8 58.25 -140.386
      vertex 33.8 56 -141.943
      vertex 33.8 56 -141.201
    endloop
  endfacet
  facet normal -1 0 0
    outer loop
      vertex 33.8 56 -145.085
      vertex 33.8 58.25 -143.527
      vertex 33.8 58.25 -145.9
    endloop
  endfacet
  facet normal -1 0 0
    outer loop
      vertex 33.8 58.25 -143.527
      vertex 33.8 56 -145.085
      vertex 33.8 56 -144.343
    endloop
  endfacet
  facet normal -1 0 0
    outer loop
      vertex 33.8 56 -148.226
      vertex 33.8 58.25 -146.669
      vertex 33.8 58.25 -149.042
    endloop
  endfacet
  facet normal -1 0 0
    outer loop
      vertex 33.8 58.25 -146.669
      vertex 33.8 56 -148.226
      vertex 33.8 56 -147.484
    endloop
  endfacet
  facet normal -1 0 0
    outer loop
      vertex 33.8 58.25 -149.042
      vertex 33.8 61.5 -160
      vertex 33.8 58.25 -149.81
    endloop
  endfacet
  facet normal -1 0 0
    outer loop
      vertex 33.8 61.5 -160
      vertex 33.8 57.7444 -152
      vertex 33.8 58.25 -149.81
    endloop
  endfacet
  facet normal -1 0 0
    outer loop
      vertex 33.8 42.5 -160
      vertex 33.8 57.7444 -152
      vertex 33.8 61.5 -160
    endloop
  endfacet
  facet normal -1 -0 0
    outer loop
      vertex 33.8 57.7444 -152
      vertex 33.8 42.5 -160
      vertex 33.8 42.5 -152
    endloop
  endfacet
  facet normal -1 0 0
    outer loop
      vertex 33.8 58.25 -146.669
      vertex 33.8 61.5 -160
      vertex 33.8 58.25 -149.042
    endloop
  endfacet
  facet normal -1 0 0
    outer loop
      vertex 33.8 58.25 -145.9
      vertex 33.8 61.5 -160
      vertex 33.8 58.25 -146.669
    endloop
  endfacet
  facet normal -1 0 0
    outer loop
      vertex 33.8 58.25 -143.527
      vertex 33.8 61.5 -160
      vertex 33.8 58.25 -145.9
    endloop
  endfacet
  facet normal -1 0 0
    outer loop
      vertex 33.8 58.25 -142.758
      vertex 33.8 61.5 -160
      vertex 33.8 58.25 -143.527
    endloop
  endfacet
  facet normal -1 0 0
    outer loop
      vertex 33.8 58.25 -140.386
      vertex 33.8 61.5 -160
      vertex 33.8 58.25 -142.758
    endloop
  endfacet
  facet normal -1 0 0
    outer loop
      vertex 33.8 58.25 -139.617
      vertex 33.8 61.5 -160
      vertex 33.8 58.25 -140.386
    endloop
  endfacet
  facet normal -1 0 0
    outer loop
      vertex 33.8 58.25 -137.244
      vertex 33.8 61.5 -160
      vertex 33.8 58.25 -139.617
    endloop
  endfacet
  facet normal -1 0 0
    outer loop
      vertex 33.8 58.25 -136.475
      vertex 33.8 61.5 -160
      vertex 33.8 58.25 -137.244
    endloop
  endfacet
  facet normal -1 0 0
    outer loop
      vertex 33.8 58.25 -134.102
      vertex 33.8 61.5 -160
      vertex 33.8 58.25 -136.475
    endloop
  endfacet
  facet normal -1 0 0
    outer loop
      vertex 33.8 58.25 -133.334
      vertex 33.8 61.5 -160
      vertex 33.8 58.25 -134.102
    endloop
  endfacet
  facet normal -1 0 0
    outer loop
      vertex 33.8 58.25 -130.961
      vertex 33.8 61.5 -160
      vertex 33.8 58.25 -133.334
    endloop
  endfacet
  facet normal -1 0 0
    outer loop
      vertex 33.8 61.5 -160
      vertex 33.8 58.25 -130.961
      vertex 33.8 61.5 -100
    endloop
  endfacet
  facet normal -1 0 0
    outer loop
      vertex 33.8 58.25 -130.192
      vertex 33.8 61.5 -100
      vertex 33.8 58.25 -130.961
    endloop
  endfacet
  facet normal -1 0 0
    outer loop
      vertex 33.8 58.25 -127.819
      vertex 33.8 61.5 -100
      vertex 33.8 58.25 -130.192
    endloop
  endfacet
  facet normal -1 0 0
    outer loop
      vertex 33.8 58.25 -127.05
      vertex 33.8 61.5 -100
      vertex 33.8 58.25 -127.819
    endloop
  endfacet
  facet normal -1 0 0
    outer loop
      vertex 33.8 58.25 -124.678
      vertex 33.8 61.5 -100
      vertex 33.8 58.25 -127.05
    endloop
  endfacet
  facet normal -1 0 0
    outer loop
      vertex 33.8 58.25 -123.909
      vertex 33.8 61.5 -100
      vertex 33.8 58.25 -124.678
    endloop
  endfacet
  facet normal -1 0 0
    outer loop
      vertex 33.8 58.25 -121.536
      vertex 33.8 61.5 -100
      vertex 33.8 58.25 -123.909
    endloop
  endfacet
  facet normal -1 0 0
    outer loop
      vertex 33.8 58.25 -120.767
      vertex 33.8 61.5 -100
      vertex 33.8 58.25 -121.536
    endloop
  endfacet
  facet normal -1 0 0
    outer loop
      vertex 33.8 58.25 -118.395
      vertex 33.8 61.5 -100
      vertex 33.8 58.25 -120.767
    endloop
  endfacet
  facet normal -1 0 0
    outer loop
      vertex 33.8 58.25 -117.626
      vertex 33.8 61.5 -100
      vertex 33.8 58.25 -118.395
    endloop
  endfacet
  facet normal -1 0 0
    outer loop
      vertex 33.8 58.25 -115.253
      vertex 33.8 61.5 -100
      vertex 33.8 58.25 -117.626
    endloop
  endfacet
  facet normal -1 0 0
    outer loop
      vertex 33.8 58.25 -114.484
      vertex 33.8 61.5 -100
      vertex 33.8 58.25 -115.253
    endloop
  endfacet
  facet normal -1 0 0
    outer loop
      vertex 33.8 58.25 -112.111
      vertex 33.8 61.5 -100
      vertex 33.8 58.25 -114.484
    endloop
  endfacet
  facet normal -1 0 0
    outer loop
      vertex 33.8 58.25 -111.342
      vertex 33.8 61.5 -100
      vertex 33.8 58.25 -112.111
    endloop
  endfacet
  facet normal -1 0 0
    outer loop
      vertex 33.8 58.25 -108.97
      vertex 33.8 61.5 -100
      vertex 33.8 58.25 -111.342
    endloop
  endfacet
  facet normal -1 0 0
    outer loop
      vertex 33.8 58.25 -108.201
      vertex 33.8 61.5 -100
      vertex 33.8 58.25 -108.97
    endloop
  endfacet
  facet normal -1 0 0
    outer loop
      vertex 33.8 58.25 -105.828
      vertex 33.8 61.5 -100
      vertex 33.8 58.25 -108.201
    endloop
  endfacet
  facet normal -1 0 0
    outer loop
      vertex 33.8 58.25 -105.059
      vertex 33.8 61.5 -100
      vertex 33.8 58.25 -105.828
    endloop
  endfacet
  facet normal -1 0 0
    outer loop
      vertex 33.8 58.25 -102.687
      vertex 33.8 61.5 -100
      vertex 33.8 58.25 -105.059
    endloop
  endfacet
  facet normal -1 -0 0
    outer loop
      vertex 33.8 61.5 -100
      vertex 33.8 58.25 -102.687
      vertex 33.8 58.25 -100
    endloop
  endfacet
  facet normal -1 0 0
    outer loop
      vertex 33.8 56 -150.626
      vertex 33.8 57.7444 -152
      vertex 33.8 56 -151.368
    endloop
  endfacet
  facet normal -1 0 0
    outer loop
      vertex 33.8 57.7444 -152
      vertex 33.8 56 -150.626
      vertex 33.8 58.25 -149.81
    endloop
  endfacet
  facet normal 0 1 -0
    outer loop
      vertex 37.4 61.5 -160
      vertex 33.8 61.5 -100
      vertex 37.4 61.5 -100
    endloop
  endfacet
  facet normal 0 1 0
    outer loop
      vertex 33.8 61.5 -100
      vertex 37.4 61.5 -160
      vertex 33.8 61.5 -160
    endloop
  endfacet
  facet normal 0 -1 0
    outer loop
      vertex 33.8 58.25 -102.687
      vertex 37.4 58.25 -100
      vertex 33.8 58.25 -100
    endloop
  endfacet
  facet normal 0 -1 -0
    outer loop
      vertex 37.4 58.25 -100
      vertex 33.8 58.25 -102.687
      vertex 37.4 58.25 -102.687
    endloop
  endfacet
  facet normal 0 -1 0
    outer loop
      vertex 33.8 58.25 -134.102
      vertex 37.4 58.25 -133.334
      vertex 33.8 58.25 -133.334
    endloop
  endfacet
  facet normal 0 -1 -0
    outer loop
      vertex 37.4 58.25 -133.334
      vertex 33.8 58.25 -134.102
      vertex 37.4 58.25 -134.102
    endloop
  endfacet
  facet normal 0 -1 0
    outer loop
      vertex 33.8 58.25 -137.244
      vertex 37.4 58.25 -136.475
      vertex 33.8 58.25 -136.475
    endloop
  endfacet
  facet normal 0 -1 -0
    outer loop
      vertex 37.4 58.25 -136.475
      vertex 33.8 58.25 -137.244
      vertex 37.4 58.25 -137.244
    endloop
  endfacet
  facet normal 0 -1 0
    outer loop
      vertex 33.8 58.25 -140.386
      vertex 37.4 58.25 -139.617
      vertex 33.8 58.25 -139.617
    endloop
  endfacet
  facet normal 0 -1 -0
    outer loop
      vertex 37.4 58.25 -139.617
      vertex 33.8 58.25 -140.386
      vertex 37.4 58.25 -140.386
    endloop
  endfacet
  facet normal 0 -1 0
    outer loop
      vertex 33.8 58.25 -143.527
      vertex 37.4 58.25 -142.758
      vertex 33.8 58.25 -142.758
    endloop
  endfacet
  facet normal 0 -1 -0
    outer loop
      vertex 37.4 58.25 -142.758
      vertex 33.8 58.25 -143.527
      vertex 37.4 58.25 -143.527
    endloop
  endfacet
  facet normal 0 -1 0
    outer loop
      vertex 33.8 58.25 -146.669
      vertex 37.4 58.25 -145.9
      vertex 33.8 58.25 -145.9
    endloop
  endfacet
  facet normal 0 -1 -0
    outer loop
      vertex 37.4 58.25 -145.9
      vertex 33.8 58.25 -146.669
      vertex 37.4 58.25 -146.669
    endloop
  endfacet
  facet normal 0 -1 0
    outer loop
      vertex 33.8 58.25 -149.81
      vertex 37.4 58.25 -149.042
      vertex 33.8 58.25 -149.042
    endloop
  endfacet
  facet normal 0 -1 -0
    outer loop
      vertex 37.4 58.25 -149.042
      vertex 33.8 58.25 -149.81
      vertex 37.4 58.25 -149.81
    endloop
  endfacet
  facet normal 0 -1 0
    outer loop
      vertex 33.8 58.25 -105.828
      vertex 37.4 58.25 -105.059
      vertex 33.8 58.25 -105.059
    endloop
  endfacet
  facet normal 0 -1 -0
    outer loop
      vertex 37.4 58.25 -105.059
      vertex 33.8 58.25 -105.828
      vertex 37.4 58.25 -105.828
    endloop
  endfacet
  facet normal 0 -1 0
    outer loop
      vertex 33.8 58.25 -108.97
      vertex 37.4 58.25 -108.201
      vertex 33.8 58.25 -108.201
    endloop
  endfacet
  facet normal 0 -1 -0
    outer loop
      vertex 37.4 58.25 -108.201
      vertex 33.8 58.25 -108.97
      vertex 37.4 58.25 -108.97
    endloop
  endfacet
  facet normal 0 -1 0
    outer loop
      vertex 33.8 58.25 -112.111
      vertex 37.4 58.25 -111.342
      vertex 33.8 58.25 -111.342
    endloop
  endfacet
  facet normal 0 -1 -0
    outer loop
      vertex 37.4 58.25 -111.342
      vertex 33.8 58.25 -112.111
      vertex 37.4 58.25 -112.111
    endloop
  endfacet
  facet normal 0 -1 0
    outer loop
      vertex 33.8 58.25 -115.253
      vertex 37.4 58.25 -114.484
      vertex 33.8 58.25 -114.484
    endloop
  endfacet
  facet normal 0 -1 -0
    outer loop
      vertex 37.4 58.25 -114.484
      vertex 33.8 58.25 -115.253
      vertex 37.4 58.25 -115.253
    endloop
  endfacet
  facet normal 0 -1 0
    outer loop
      vertex 33.8 58.25 -118.395
      vertex 37.4 58.25 -117.626
      vertex 33.8 58.25 -117.626
    endloop
  endfacet
  facet normal 0 -1 -0
    outer loop
      vertex 37.4 58.25 -117.626
      vertex 33.8 58.25 -118.395
      vertex 37.4 58.25 -118.395
    endloop
  endfacet
  facet normal 0 -1 0
    outer loop
      vertex 33.8 58.25 -121.536
      vertex 37.4 58.25 -120.767
      vertex 33.8 58.25 -120.767
    endloop
  endfacet
  facet normal 0 -1 -0
    outer loop
      vertex 37.4 58.25 -120.767
      vertex 33.8 58.25 -121.536
      vertex 37.4 58.25 -121.536
    endloop
  endfacet
  facet normal 0 -1 0
    outer loop
      vertex 33.8 58.25 -124.678
      vertex 37.4 58.25 -123.909
      vertex 33.8 58.25 -123.909
    endloop
  endfacet
  facet normal 0 -1 -0
    outer loop
      vertex 37.4 58.25 -123.909
      vertex 33.8 58.25 -124.678
      vertex 37.4 58.25 -124.678
    endloop
  endfacet
  facet normal 0 -1 0
    outer loop
      vertex 33.8 58.25 -127.819
      vertex 37.4 58.25 -127.05
      vertex 33.8 58.25 -127.05
    endloop
  endfacet
  facet normal 0 -1 -0
    outer loop
      vertex 37.4 58.25 -127.05
      vertex 33.8 58.25 -127.819
      vertex 37.4 58.25 -127.819
    endloop
  endfacet
  facet normal 0 -1 0
    outer loop
      vertex 33.8 58.25 -130.961
      vertex 37.4 58.25 -130.192
      vertex 33.8 58.25 -130.192
    endloop
  endfacet
  facet normal 0 -1 -0
    outer loop
      vertex 37.4 58.25 -130.192
      vertex 33.8 58.25 -130.961
      vertex 37.4 58.25 -130.961
    endloop
  endfacet
  facet normal 0 -0.340568 0.94022
    outer loop
      vertex 33.8 58.25 -102.687
      vertex 37.4 56 -103.502
      vertex 37.4 58.25 -102.687
    endloop
  endfacet
  facet normal 0 -0.340568 0.94022
    outer loop
      vertex 37.4 56 -103.502
      vertex 33.8 58.25 -102.687
      vertex 33.8 56 -103.502
    endloop
  endfacet
  facet normal 0 -1 0
    outer loop
      vertex 33.8 56 -104.244
      vertex 37.4 56 -103.502
      vertex 33.8 56 -103.502
    endloop
  endfacet
  facet normal 0 -1 -0
    outer loop
      vertex 37.4 56 -103.502
      vertex 33.8 56 -104.244
      vertex 37.4 56 -104.244
    endloop
  endfacet
  facet normal 0 -0.340568 -0.94022
    outer loop
      vertex 33.8 56 -104.244
      vertex 37.4 58.25 -105.059
      vertex 37.4 56 -104.244
    endloop
  endfacet
  facet normal -0 -0.340568 -0.94022
    outer loop
      vertex 37.4 58.25 -105.059
      vertex 33.8 56 -104.244
      vertex 33.8 58.25 -105.059
    endloop
  endfacet
  facet normal 0 -0.340938 0.940086
    outer loop
      vertex 33.8 58.25 -105.828
      vertex 37.4 56 -106.644
      vertex 37.4 58.25 -105.828
    endloop
  endfacet
  facet normal 0 -0.340938 0.940086
    outer loop
      vertex 37.4 56 -106.644
      vertex 33.8 58.25 -105.828
      vertex 33.8 56 -106.644
    endloop
  endfacet
  facet normal 0 -1 0
    outer loop
      vertex 33.8 56 -107.386
      vertex 37.4 56 -106.644
      vertex 33.8 56 -106.644
    endloop
  endfacet
  facet normal 0 -1 -0
    outer loop
      vertex 37.4 56 -106.644
      vertex 33.8 56 -107.386
      vertex 37.4 56 -107.386
    endloop
  endfacet
  facet normal 0 -0.340568 -0.94022
    outer loop
      vertex 33.8 56 -107.386
      vertex 37.4 58.25 -108.201
      vertex 37.4 56 -107.386
    endloop
  endfacet
  facet normal -0 -0.340568 -0.94022
    outer loop
      vertex 37.4 58.25 -108.201
      vertex 33.8 56 -107.386
      vertex 33.8 58.25 -108.201
    endloop
  endfacet
  facet normal 0 -0.340568 0.94022
    outer loop
      vertex 33.8 58.25 -108.97
      vertex 37.4 56 -109.785
      vertex 37.4 58.25 -108.97
    endloop
  endfacet
  facet normal 0 -0.340568 0.94022
    outer loop
      vertex 37.4 56 -109.785
      vertex 33.8 58.25 -108.97
      vertex 33.8 56 -109.785
    endloop
  endfacet
  facet normal 0 -1 0
    outer loop
      vertex 33.8 56 -110.527
      vertex 37.4 56 -109.785
      vertex 33.8 56 -109.785
    endloop
  endfacet
  facet normal 0 -1 -0
    outer loop
      vertex 37.4 56 -109.785
      vertex 33.8 56 -110.527
      vertex 37.4 56 -110.527
    endloop
  endfacet
  facet normal 0 -0.340568 -0.94022
    outer loop
      vertex 33.8 56 -110.527
      vertex 37.4 58.25 -111.342
      vertex 37.4 56 -110.527
    endloop
  endfacet
  facet normal -0 -0.340568 -0.94022
    outer loop
      vertex 37.4 58.25 -111.342
      vertex 33.8 56 -110.527
      vertex 33.8 58.25 -111.342
    endloop
  endfacet
  facet normal 0 -0.340938 0.940086
    outer loop
      vertex 33.8 58.25 -112.111
      vertex 37.4 56 -112.927
      vertex 37.4 58.25 -112.111
    endloop
  endfacet
  facet normal 0 -0.340938 0.940086
    outer loop
      vertex 37.4 56 -112.927
      vertex 33.8 58.25 -112.111
      vertex 33.8 56 -112.927
    endloop
  endfacet
  facet normal 0 -1 0
    outer loop
      vertex 33.8 56 -113.669
      vertex 37.4 56 -112.927
      vertex 33.8 56 -112.927
    endloop
  endfacet
  facet normal 0 -1 -0
    outer loop
      vertex 37.4 56 -112.927
      vertex 33.8 56 -113.669
      vertex 37.4 56 -113.669
    endloop
  endfacet
  facet normal 0 -0.340568 -0.94022
    outer loop
      vertex 33.8 56 -113.669
      vertex 37.4 58.25 -114.484
      vertex 37.4 56 -113.669
    endloop
  endfacet
  facet normal -0 -0.340568 -0.94022
    outer loop
      vertex 37.4 58.25 -114.484
      vertex 33.8 56 -113.669
      vertex 33.8 58.25 -114.484
    endloop
  endfacet
  facet normal 0 -0.340568 0.94022
    outer loop
      vertex 33.8 58.25 -115.253
      vertex 37.4 56 -116.068
      vertex 37.4 58.25 -115.253
    endloop
  endfacet
  facet normal 0 -0.340568 0.94022
    outer loop
      vertex 37.4 56 -116.068
      vertex 33.8 58.25 -115.253
      vertex 33.8 56 -116.068
    endloop
  endfacet
  facet normal 0 -1 0
    outer loop
      vertex 33.8 56 -116.81
      vertex 37.4 56 -116.068
      vertex 33.8 56 -116.068
    endloop
  endfacet
  facet normal 0 -1 -0
    outer loop
      vertex 37.4 56 -116.068
      vertex 33.8 56 -116.81
      vertex 37.4 56 -116.81
    endloop
  endfacet
  facet normal 0 -0.340938 -0.940086
    outer loop
      vertex 33.8 56 -116.81
      vertex 37.4 58.25 -117.626
      vertex 37.4 56 -116.81
    endloop
  endfacet
  facet normal -0 -0.340938 -0.940086
    outer loop
      vertex 37.4 58.25 -117.626
      vertex 33.8 56 -116.81
      vertex 33.8 58.25 -117.626
    endloop
  endfacet
  facet normal 0 -0.340568 0.94022
    outer loop
      vertex 33.8 58.25 -118.395
      vertex 37.4 56 -119.21
      vertex 37.4 58.25 -118.395
    endloop
  endfacet
  facet normal 0 -0.340568 0.94022
    outer loop
      vertex 37.4 56 -119.21
      vertex 33.8 58.25 -118.395
      vertex 33.8 56 -119.21
    endloop
  endfacet
  facet normal 0 -1 0
    outer loop
      vertex 33.8 56 -119.952
      vertex 37.4 56 -119.21
      vertex 33.8 56 -119.21
    endloop
  endfacet
  facet normal 0 -1 -0
    outer loop
      vertex 37.4 56 -119.21
      vertex 33.8 56 -119.952
      vertex 37.4 56 -119.952
    endloop
  endfacet
  facet normal 0 -0.340568 -0.94022
    outer loop
      vertex 33.8 56 -119.952
      vertex 37.4 58.25 -120.767
      vertex 37.4 56 -119.952
    endloop
  endfacet
  facet normal -0 -0.340568 -0.94022
    outer loop
      vertex 37.4 58.25 -120.767
      vertex 33.8 56 -119.952
      vertex 33.8 58.25 -120.767
    endloop
  endfacet
  facet normal 0 -0.340568 0.94022
    outer loop
      vertex 33.8 58.25 -121.536
      vertex 37.4 56 -122.351
      vertex 37.4 58.25 -121.536
    endloop
  endfacet
  facet normal 0 -0.340568 0.94022
    outer loop
      vertex 37.4 56 -122.351
      vertex 33.8 58.25 -121.536
      vertex 33.8 56 -122.351
    endloop
  endfacet
  facet normal 0 -1 0
    outer loop
      vertex 33.8 56 -123.093
      vertex 37.4 56 -122.351
      vertex 33.8 56 -122.351
    endloop
  endfacet
  facet normal 0 -1 -0
    outer loop
      vertex 37.4 56 -122.351
      vertex 33.8 56 -123.093
      vertex 37.4 56 -123.093
    endloop
  endfacet
  facet normal 0 -0.340938 -0.940086
    outer loop
      vertex 33.8 56 -123.093
      vertex 37.4 58.25 -123.909
      vertex 37.4 56 -123.093
    endloop
  endfacet
  facet normal -0 -0.340938 -0.940086
    outer loop
      vertex 37.4 58.25 -123.909
      vertex 33.8 56 -123.093
      vertex 33.8 58.25 -123.909
    endloop
  endfacet
  facet normal 0 -0.340568 0.94022
    outer loop
      vertex 33.8 58.25 -124.678
      vertex 37.4 56 -125.493
      vertex 37.4 58.25 -124.678
    endloop
  endfacet
  facet normal 0 -0.340568 0.94022
    outer loop
      vertex 37.4 56 -125.493
      vertex 33.8 58.25 -124.678
      vertex 33.8 56 -125.493
    endloop
  endfacet
  facet normal 0 -1 0
    outer loop
      vertex 33.8 56 -126.235
      vertex 37.4 56 -125.493
      vertex 33.8 56 -125.493
    endloop
  endfacet
  facet normal 0 -1 -0
    outer loop
      vertex 37.4 56 -125.493
      vertex 33.8 56 -126.235
      vertex 37.4 56 -126.235
    endloop
  endfacet
  facet normal 0 -0.340568 -0.94022
    outer loop
      vertex 33.8 56 -126.235
      vertex 37.4 58.25 -127.05
      vertex 37.4 56 -126.235
    endloop
  endfacet
  facet normal -0 -0.340568 -0.94022
    outer loop
      vertex 37.4 58.25 -127.05
      vertex 33.8 56 -126.235
      vertex 33.8 58.25 -127.05
    endloop
  endfacet
  facet normal 0 -0.340938 0.940086
    outer loop
      vertex 33.8 58.25 -127.819
      vertex 37.4 56 -128.635
      vertex 37.4 58.25 -127.819
    endloop
  endfacet
  facet normal 0 -0.340938 0.940086
    outer loop
      vertex 37.4 56 -128.635
      vertex 33.8 58.25 -127.819
      vertex 33.8 56 -128.635
    endloop
  endfacet
  facet normal 0 -1 0
    outer loop
      vertex 33.8 56 -129.377
      vertex 37.4 56 -128.635
      vertex 33.8 56 -128.635
    endloop
  endfacet
  facet normal 0 -1 -0
    outer loop
      vertex 37.4 56 -128.635
      vertex 33.8 56 -129.377
      vertex 37.4 56 -129.377
    endloop
  endfacet
  facet normal 0 -0.340568 -0.94022
    outer loop
      vertex 33.8 56 -129.377
      vertex 37.4 58.25 -130.192
      vertex 37.4 56 -129.377
    endloop
  endfacet
  facet normal -0 -0.340568 -0.94022
    outer loop
      vertex 37.4 58.25 -130.192
      vertex 33.8 56 -129.377
      vertex 33.8 58.25 -130.192
    endloop
  endfacet
  facet normal 0 -0.340568 0.94022
    outer loop
      vertex 33.8 58.25 -130.961
      vertex 37.4 56 -131.776
      vertex 37.4 58.25 -130.961
    endloop
  endfacet
  facet normal 0 -0.340568 0.94022
    outer loop
      vertex 37.4 56 -131.776
      vertex 33.8 58.25 -130.961
      vertex 33.8 56 -131.776
    endloop
  endfacet
  facet normal 0 -1 0
    outer loop
      vertex 33.8 56 -132.518
      vertex 37.4 56 -131.776
      vertex 33.8 56 -131.776
    endloop
  endfacet
  facet normal 0 -1 -0
    outer loop
      vertex 37.4 56 -131.776
      vertex 33.8 56 -132.518
      vertex 37.4 56 -132.518
    endloop
  endfacet
  facet normal 0 -0.340938 -0.940086
    outer loop
      vertex 33.8 56 -132.518
      vertex 37.4 58.25 -133.334
      vertex 37.4 56 -132.518
    endloop
  endfacet
  facet normal -0 -0.340938 -0.940086
    outer loop
      vertex 37.4 58.25 -133.334
      vertex 33.8 56 -132.518
      vertex 33.8 58.25 -133.334
    endloop
  endfacet
  facet normal 0 -0.340938 0.940086
    outer loop
      vertex 33.8 58.25 -134.102
      vertex 37.4 56 -134.918
      vertex 37.4 58.25 -134.102
    endloop
  endfacet
  facet normal 0 -0.340938 0.940086
    outer loop
      vertex 37.4 56 -134.918
      vertex 33.8 58.25 -134.102
      vertex 33.8 56 -134.918
    endloop
  endfacet
  facet normal 0 -1 0
    outer loop
      vertex 33.8 56 -135.66
      vertex 37.4 56 -134.918
      vertex 33.8 56 -134.918
    endloop
  endfacet
  facet normal 0 -1 -0
    outer loop
      vertex 37.4 56 -134.918
      vertex 33.8 56 -135.66
      vertex 37.4 56 -135.66
    endloop
  endfacet
  facet normal 0 -0.340568 -0.94022
    outer loop
      vertex 33.8 56 -135.66
      vertex 37.4 58.25 -136.475
      vertex 37.4 56 -135.66
    endloop
  endfacet
  facet normal -0 -0.340568 -0.94022
    outer loop
      vertex 37.4 58.25 -136.475
      vertex 33.8 56 -135.66
      vertex 33.8 58.25 -136.475
    endloop
  endfacet
  facet normal 0 -0.340568 0.94022
    outer loop
      vertex 33.8 58.25 -137.244
      vertex 37.4 56 -138.059
      vertex 37.4 58.25 -137.244
    endloop
  endfacet
  facet normal 0 -0.340568 0.94022
    outer loop
      vertex 37.4 56 -138.059
      vertex 33.8 58.25 -137.244
      vertex 33.8 56 -138.059
    endloop
  endfacet
  facet normal 0 -1 0
    outer loop
      vertex 33.8 56 -138.801
      vertex 37.4 56 -138.059
      vertex 33.8 56 -138.059
    endloop
  endfacet
  facet normal 0 -1 -0
    outer loop
      vertex 37.4 56 -138.059
      vertex 33.8 56 -138.801
      vertex 37.4 56 -138.801
    endloop
  endfacet
  facet normal 0 -0.340938 -0.940086
    outer loop
      vertex 33.8 56 -138.801
      vertex 37.4 58.25 -139.617
      vertex 37.4 56 -138.801
    endloop
  endfacet
  facet normal -0 -0.340938 -0.940086
    outer loop
      vertex 37.4 58.25 -139.617
      vertex 33.8 56 -138.801
      vertex 33.8 58.25 -139.617
    endloop
  endfacet
  facet normal 0 -0.340568 0.94022
    outer loop
      vertex 33.8 58.25 -140.386
      vertex 37.4 56 -141.201
      vertex 37.4 58.25 -140.386
    endloop
  endfacet
  facet normal 0 -0.340568 0.94022
    outer loop
      vertex 37.4 56 -141.201
      vertex 33.8 58.25 -140.386
      vertex 33.8 56 -141.201
    endloop
  endfacet
  facet normal 0 -1 0
    outer loop
      vertex 33.8 56 -141.943
      vertex 37.4 56 -141.201
      vertex 33.8 56 -141.201
    endloop
  endfacet
  facet normal 0 -1 -0
    outer loop
      vertex 37.4 56 -141.201
      vertex 33.8 56 -141.943
      vertex 37.4 56 -141.943
    endloop
  endfacet
  facet normal 0 -0.340568 -0.94022
    outer loop
      vertex 33.8 56 -141.943
      vertex 37.4 58.25 -142.758
      vertex 37.4 56 -141.943
    endloop
  endfacet
  facet normal -0 -0.340568 -0.94022
    outer loop
      vertex 37.4 58.25 -142.758
      vertex 33.8 56 -141.943
      vertex 33.8 58.25 -142.758
    endloop
  endfacet
  facet normal 0 -0.340938 0.940086
    outer loop
      vertex 33.8 58.25 -143.527
      vertex 37.4 56 -144.343
      vertex 37.4 58.25 -143.527
    endloop
  endfacet
  facet normal 0 -0.340938 0.940086
    outer loop
      vertex 37.4 56 -144.343
      vertex 33.8 58.25 -143.527
      vertex 33.8 56 -144.343
    endloop
  endfacet
  facet normal 0 -1 0
    outer loop
      vertex 33.8 56 -145.085
      vertex 37.4 56 -144.343
      vertex 33.8 56 -144.343
    endloop
  endfacet
  facet normal 0 -1 -0
    outer loop
      vertex 37.4 56 -144.343
      vertex 33.8 56 -145.085
      vertex 37.4 56 -145.085
    endloop
  endfacet
  facet normal 0 -0.340568 -0.94022
    outer loop
      vertex 33.8 56 -145.085
      vertex 37.4 58.25 -145.9
      vertex 37.4 56 -145.085
    endloop
  endfacet
  facet normal -0 -0.340568 -0.94022
    outer loop
      vertex 37.4 58.25 -145.9
      vertex 33.8 56 -145.085
      vertex 33.8 58.25 -145.9
    endloop
  endfacet
  facet normal 0 -0.340568 0.94022
    outer loop
      vertex 33.8 58.25 -146.669
      vertex 37.4 56 -147.484
      vertex 37.4 58.25 -146.669
    endloop
  endfacet
  facet normal 0 -0.340568 0.94022
    outer loop
      vertex 37.4 56 -147.484
      vertex 33.8 58.25 -146.669
      vertex 33.8 56 -147.484
    endloop
  endfacet
  facet normal 0 -1 0
    outer loop
      vertex 33.8 56 -148.226
      vertex 37.4 56 -147.484
      vertex 33.8 56 -147.484
    endloop
  endfacet
  facet normal 0 -1 -0
    outer loop
      vertex 37.4 56 -147.484
      vertex 33.8 56 -148.226
      vertex 37.4 56 -148.226
    endloop
  endfacet
  facet normal 0 -0.340938 -0.940086
    outer loop
      vertex 33.8 56 -148.226
      vertex 37.4 58.25 -149.042
      vertex 37.4 56 -148.226
    endloop
  endfacet
  facet normal -0 -0.340938 -0.940086
    outer loop
      vertex 37.4 58.25 -149.042
      vertex 33.8 56 -148.226
      vertex 33.8 58.25 -149.042
    endloop
  endfacet
  facet normal 0 -0.340938 0.940086
    outer loop
      vertex 33.8 58.25 -149.81
      vertex 37.4 56 -150.626
      vertex 37.4 58.25 -149.81
    endloop
  endfacet
  facet normal 0 -0.340938 0.940086
    outer loop
      vertex 37.4 56 -150.626
      vertex 33.8 58.25 -149.81
      vertex 33.8 56 -150.626
    endloop
  endfacet
  facet normal 0 -1 0
    outer loop
      vertex 33.8 56 -151.368
      vertex 37.4 56 -150.626
      vertex 33.8 56 -150.626
    endloop
  endfacet
  facet normal 0 -1 -0
    outer loop
      vertex 37.4 56 -150.626
      vertex 33.8 56 -151.368
      vertex 37.4 56 -151.368
    endloop
  endfacet
  facet normal 0 -0.340635 -0.940196
    outer loop
      vertex 33.8 56 -151.368
      vertex 37.4 57.7444 -152
      vertex 37.4 56 -151.368
    endloop
  endfacet
  facet normal -0 -0.340635 -0.940196
    outer loop
      vertex 37.4 57.7444 -152
      vertex 33.8 56 -151.368
      vertex 33.8 57.7444 -152
    endloop
  endfacet
  facet normal 1 -0 0
    outer loop
      vertex 39.6 -44.6 -146
      vertex 39.6 42.6 -152
      vertex 39.6 42.6 -146
    endloop
  endfacet
  facet normal 1 0 0
    outer loop
      vertex 39.6 42.6 -152
      vertex 39.6 -44.6 -146
      vertex 39.6 42 -160
    endloop
  endfacet
  facet normal 1 0 0
    outer loop
      vertex 39.6 -44.6 -186
      vertex 39.6 42 -160
      vertex 39.6 -44.6 -146
    endloop
  endfacet
  facet normal 1 0 0
    outer loop
      vertex 39.6 42 -160
      vertex 39.6 -44.6 -186
      vertex 39.6 42 -186
    endloop
  endfacet
  facet normal 1 -0 0
    outer loop
      vertex 39.6 42.6 -152
      vertex 39.6 60 -160
      vertex 39.6 60 -152
    endloop
  endfacet
  facet normal 1 0 0
    outer loop
      vertex 39.6 60 -160
      vertex 39.6 42.6 -152
      vertex 39.6 42 -160
    endloop
  endfacet
  facet normal -0 0 1
    outer loop
      vertex 37.6 42.6 -146
      vertex 39.6 -44.6 -146
      vertex 39.6 42.6 -146
    endloop
  endfacet
  facet normal 0 0 1
    outer loop
      vertex 39.6 -44.6 -146
      vertex 37.6 42.6 -146
      vertex 37.6 -44.6 -146
    endloop
  endfacet
  facet normal 0 0 -1
    outer loop
      vertex 37.6 -44.6 -186
      vertex 39.6 42 -186
      vertex 39.6 -44.6 -186
    endloop
  endfacet
  facet normal -0 0 -1
    outer loop
      vertex 39.6 42 -186
      vertex 37.6 -44.6 -186
      vertex 37.6 42 -186
    endloop
  endfacet
  facet normal -1 0 0
    outer loop
      vertex 37.6 42 -186
      vertex 37.6 -44.6 -186
      vertex 37.6 42 -160
    endloop
  endfacet
  facet normal -1 0 0
    outer loop
      vertex 37.6 42.5 -160
      vertex 37.6 42 -160
      vertex 37.6 42.5 -152
    endloop
  endfacet
  facet normal -1 0 0
    outer loop
      vertex 37.6 42.5 -152
      vertex 37.6 42.6 -146
      vertex 37.6 42.6 -152
    endloop
  endfacet
  facet normal -1 0 0
    outer loop
      vertex 37.6 -44.6 -146
      vertex 37.6 42.5 -152
      vertex 37.6 42 -160
    endloop
  endfacet
  facet normal -1 0 0
    outer loop
      vertex 37.6 -44.6 -146
      vertex 37.6 42 -160
      vertex 37.6 -44.6 -186
    endloop
  endfacet
  facet normal -1 0 0
    outer loop
      vertex 37.6 42.5 -152
      vertex 37.6 -44.6 -146
      vertex 37.6 42.6 -146
    endloop
  endfacet
  facet normal 0 1 -0
    outer loop
      vertex 39.6 42 -186
      vertex 37.6 42 -160
      vertex 39.6 42 -160
    endloop
  endfacet
  facet normal 0 1 0
    outer loop
      vertex 37.6 42 -160
      vertex 39.6 42 -186
      vertex 37.6 42 -186
    endloop
  endfacet
  facet normal 0 -1 0
    outer loop
      vertex 37.6 -44.6 -186
      vertex 39.6 -44.6 -146
      vertex 37.6 -44.6 -146
    endloop
  endfacet
  facet normal 0 -1 -0
    outer loop
      vertex 39.6 -44.6 -146
      vertex 37.6 -44.6 -186
      vertex 39.6 -44.6 -186
    endloop
  endfacet
  facet normal -0 0 1
    outer loop
      vertex 37.4 57.7444 -152
      vertex 39.6 42.6 -152
      vertex 39.6 60 -152
    endloop
  endfacet
  facet normal 0 0 1
    outer loop
      vertex 37.4 57.7444 -152
      vertex 39.6 60 -152
      vertex 37.4 60 -152
    endloop
  endfacet
  facet normal 0 0 1
    outer loop
      vertex 39.6 42.6 -152
      vertex 37.4 57.7444 -152
      vertex 37.6 42.6 -152
    endloop
  endfacet
  facet normal -0 0 1
    outer loop
      vertex 33.8 57.7444 -152
      vertex 37.6 42.6 -152
      vertex 37.4 57.7444 -152
    endloop
  endfacet
  facet normal 0 0 1
    outer loop
      vertex 37.6 42.6 -152
      vertex 33.8 57.7444 -152
      vertex 33.8 42.5 -152
    endloop
  endfacet
  facet normal 0 0 1
    outer loop
      vertex 37.6 42.6 -152
      vertex 33.8 42.5 -152
      vertex 37.6 42.5 -152
    endloop
  endfacet
  facet normal 0 1 -0
    outer loop
      vertex 39.6 60 -160
      vertex 37.4 60 -152
      vertex 39.6 60 -152
    endloop
  endfacet
  facet normal 0 1 0
    outer loop
      vertex 37.4 60 -152
      vertex 39.6 60 -160
      vertex 37.4 60 -160
    endloop
  endfacet
  facet normal 0 -1 0
    outer loop
      vertex 33.8 42.5 -160
      vertex 37.6 42.5 -152
      vertex 33.8 42.5 -152
    endloop
  endfacet
  facet normal 0 -1 -0
    outer loop
      vertex 37.6 42.5 -152
      vertex 33.8 42.5 -160
      vertex 37.6 42.5 -160
    endloop
  endfacet
  facet normal 0 1 -0
    outer loop
      vertex 39.6 42.6 -152
      vertex 37.6 42.6 -146
      vertex 39.6 42.6 -146
    endloop
  endfacet
  facet normal 0 1 0
    outer loop
      vertex 37.6 42.6 -146
      vertex 39.6 42.6 -152
      vertex 37.6 42.6 -152
    endloop
  endfacet
endsolid OpenSCAD_Model
