solid OpenSCAD_Model
  facet normal 1 -0 0
    outer loop
      vertex 37.4 56 -136.984
      vertex 37.4 58.25 -138.542
      vertex 37.4 58.25 -136.169
    endloop
  endfacet
  facet normal 1 0 0
    outer loop
      vertex 37.4 58.25 -138.542
      vertex 37.4 56 -136.984
      vertex 37.4 56 -137.726
    endloop
  endfacet
  facet normal 1 -0 0
    outer loop
      vertex 37.4 56 -133.843
      vertex 37.4 58.25 -135.4
      vertex 37.4 58.25 -133.027
    endloop
  endfacet
  facet normal 1 0 0
    outer loop
      vertex 37.4 58.25 -135.4
      vertex 37.4 56 -133.843
      vertex 37.4 56 -134.585
    endloop
  endfacet
  facet normal 1 -0 0
    outer loop
      vertex 37.4 56 -130.701
      vertex 37.4 58.25 -132.258
      vertex 37.4 58.25 -129.886
    endloop
  endfacet
  facet normal 1 0 0
    outer loop
      vertex 37.4 58.25 -132.258
      vertex 37.4 56 -130.701
      vertex 37.4 56 -131.443
    endloop
  endfacet
  facet normal 1 -0 0
    outer loop
      vertex 37.4 56 -127.559
      vertex 37.4 58.25 -129.117
      vertex 37.4 58.25 -126.744
    endloop
  endfacet
  facet normal 1 0 0
    outer loop
      vertex 37.4 58.25 -129.117
      vertex 37.4 56 -127.559
      vertex 37.4 56 -128.301
    endloop
  endfacet
  facet normal 1 -0 0
    outer loop
      vertex 37.4 56 -124.418
      vertex 37.4 58.25 -125.975
      vertex 37.4 58.25 -123.602
    endloop
  endfacet
  facet normal 1 0 0
    outer loop
      vertex 37.4 58.25 -125.975
      vertex 37.4 56 -124.418
      vertex 37.4 56 -125.16
    endloop
  endfacet
  facet normal 1 -0 0
    outer loop
      vertex 37.4 56 -121.276
      vertex 37.4 58.25 -122.834
      vertex 37.4 58.25 -120.461
    endloop
  endfacet
  facet normal 1 0 0
    outer loop
      vertex 37.4 58.25 -122.834
      vertex 37.4 56 -121.276
      vertex 37.4 56 -122.018
    endloop
  endfacet
  facet normal 1 -0 0
    outer loop
      vertex 37.4 56 -118.135
      vertex 37.4 58.25 -119.692
      vertex 37.4 58.25 -117.319
    endloop
  endfacet
  facet normal 1 0 0
    outer loop
      vertex 37.4 58.25 -119.692
      vertex 37.4 56 -118.135
      vertex 37.4 56 -118.877
    endloop
  endfacet
  facet normal 1 -0 0
    outer loop
      vertex 37.4 56 -114.993
      vertex 37.4 58.25 -116.55
      vertex 37.4 58.25 -114.178
    endloop
  endfacet
  facet normal 1 0 0
    outer loop
      vertex 37.4 58.25 -116.55
      vertex 37.4 56 -114.993
      vertex 37.4 56 -115.735
    endloop
  endfacet
  facet normal 1 -0 0
    outer loop
      vertex 37.4 56 -111.851
      vertex 37.4 58.25 -113.409
      vertex 37.4 58.25 -111.036
    endloop
  endfacet
  facet normal 1 0 0
    outer loop
      vertex 37.4 58.25 -113.409
      vertex 37.4 56 -111.851
      vertex 37.4 56 -112.593
    endloop
  endfacet
  facet normal 1 -0 0
    outer loop
      vertex 37.4 56 -108.71
      vertex 37.4 58.25 -110.267
      vertex 37.4 58.25 -107.895
    endloop
  endfacet
  facet normal 1 0 0
    outer loop
      vertex 37.4 58.25 -110.267
      vertex 37.4 56 -108.71
      vertex 37.4 56 -109.452
    endloop
  endfacet
  facet normal 1 -0 0
    outer loop
      vertex 37.4 56 -105.568
      vertex 37.4 58.25 -107.126
      vertex 37.4 58.25 -104.753
    endloop
  endfacet
  facet normal 1 0 0
    outer loop
      vertex 37.4 58.25 -107.126
      vertex 37.4 56 -105.568
      vertex 37.4 56 -106.31
    endloop
  endfacet
  facet normal 1 -0 0
    outer loop
      vertex 37.4 56 -102.427
      vertex 37.4 58.25 -103.984
      vertex 37.4 58.25 -101.611
    endloop
  endfacet
  facet normal 1 0 0
    outer loop
      vertex 37.4 58.25 -103.984
      vertex 37.4 56 -102.427
      vertex 37.4 56 -103.169
    endloop
  endfacet
  facet normal 1 -0 0
    outer loop
      vertex 37.4 56 -99.2851
      vertex 37.4 58.25 -100.842
      vertex 37.4 58.25 -98.4697
    endloop
  endfacet
  facet normal 1 0 0
    outer loop
      vertex 37.4 58.25 -100.842
      vertex 37.4 56 -99.2851
      vertex 37.4 56 -100.027
    endloop
  endfacet
  facet normal 1 -0 0
    outer loop
      vertex 37.4 56 -96.1435
      vertex 37.4 58.25 -97.7009
      vertex 37.4 58.25 -95.3281
    endloop
  endfacet
  facet normal 1 0 0
    outer loop
      vertex 37.4 58.25 -97.7009
      vertex 37.4 56 -96.1435
      vertex 37.4 56 -96.8855
    endloop
  endfacet
  facet normal 1 -0 0
    outer loop
      vertex 37.4 56 -93.0019
      vertex 37.4 58.25 -94.5593
      vertex 37.4 58.25 -92.1866
    endloop
  endfacet
  facet normal 1 0 0
    outer loop
      vertex 37.4 58.25 -94.5593
      vertex 37.4 56 -93.0019
      vertex 37.4 56 -93.7439
    endloop
  endfacet
  facet normal 1 0 0
    outer loop
      vertex 37.4 61.5 -89.5
      vertex 37.4 60 -141.5
      vertex 37.4 61.5 -149.5
    endloop
  endfacet
  facet normal 1 0 0
    outer loop
      vertex 37.4 58.25 -92.1866
      vertex 37.4 61.5 -89.5
      vertex 37.4 58.25 -89.5
    endloop
  endfacet
  facet normal 1 0 0
    outer loop
      vertex 37.4 58.25 -94.5593
      vertex 37.4 61.5 -89.5
      vertex 37.4 58.25 -92.1866
    endloop
  endfacet
  facet normal 1 0 0
    outer loop
      vertex 37.4 58.25 -95.3281
      vertex 37.4 61.5 -89.5
      vertex 37.4 58.25 -94.5593
    endloop
  endfacet
  facet normal 1 0 0
    outer loop
      vertex 37.4 58.25 -97.7009
      vertex 37.4 61.5 -89.5
      vertex 37.4 58.25 -95.3281
    endloop
  endfacet
  facet normal 1 0 0
    outer loop
      vertex 37.4 58.25 -98.4697
      vertex 37.4 61.5 -89.5
      vertex 37.4 58.25 -97.7009
    endloop
  endfacet
  facet normal 1 0 0
    outer loop
      vertex 37.4 58.25 -100.842
      vertex 37.4 61.5 -89.5
      vertex 37.4 58.25 -98.4697
    endloop
  endfacet
  facet normal 1 0 0
    outer loop
      vertex 37.4 58.25 -101.611
      vertex 37.4 61.5 -89.5
      vertex 37.4 58.25 -100.842
    endloop
  endfacet
  facet normal 1 0 0
    outer loop
      vertex 37.4 58.25 -103.984
      vertex 37.4 61.5 -89.5
      vertex 37.4 58.25 -101.611
    endloop
  endfacet
  facet normal 1 0 0
    outer loop
      vertex 37.4 58.25 -104.753
      vertex 37.4 61.5 -89.5
      vertex 37.4 58.25 -103.984
    endloop
  endfacet
  facet normal 1 0 0
    outer loop
      vertex 37.4 58.25 -107.126
      vertex 37.4 61.5 -89.5
      vertex 37.4 58.25 -104.753
    endloop
  endfacet
  facet normal 1 0 0
    outer loop
      vertex 37.4 58.25 -107.895
      vertex 37.4 61.5 -89.5
      vertex 37.4 58.25 -107.126
    endloop
  endfacet
  facet normal 1 0 0
    outer loop
      vertex 37.4 58.25 -110.267
      vertex 37.4 61.5 -89.5
      vertex 37.4 58.25 -107.895
    endloop
  endfacet
  facet normal 1 0 0
    outer loop
      vertex 37.4 58.25 -111.036
      vertex 37.4 61.5 -89.5
      vertex 37.4 58.25 -110.267
    endloop
  endfacet
  facet normal 1 0 0
    outer loop
      vertex 37.4 58.25 -113.409
      vertex 37.4 61.5 -89.5
      vertex 37.4 58.25 -111.036
    endloop
  endfacet
  facet normal 1 0 0
    outer loop
      vertex 37.4 58.25 -114.178
      vertex 37.4 61.5 -89.5
      vertex 37.4 58.25 -113.409
    endloop
  endfacet
  facet normal 1 0 0
    outer loop
      vertex 37.4 58.25 -116.55
      vertex 37.4 61.5 -89.5
      vertex 37.4 58.25 -114.178
    endloop
  endfacet
  facet normal 1 0 0
    outer loop
      vertex 37.4 58.25 -117.319
      vertex 37.4 61.5 -89.5
      vertex 37.4 58.25 -116.55
    endloop
  endfacet
  facet normal 1 0 0
    outer loop
      vertex 37.4 61.5 -89.5
      vertex 37.4 58.25 -117.319
      vertex 37.4 60 -141.5
    endloop
  endfacet
  facet normal 1 -0 0
    outer loop
      vertex 37.4 58.25 -119.692
      vertex 37.4 60 -141.5
      vertex 37.4 58.25 -117.319
    endloop
  endfacet
  facet normal 1 -0 0
    outer loop
      vertex 37.4 58.25 -120.461
      vertex 37.4 60 -141.5
      vertex 37.4 58.25 -119.692
    endloop
  endfacet
  facet normal 1 -0 0
    outer loop
      vertex 37.4 58.25 -122.834
      vertex 37.4 60 -141.5
      vertex 37.4 58.25 -120.461
    endloop
  endfacet
  facet normal 1 -0 0
    outer loop
      vertex 37.4 58.25 -123.602
      vertex 37.4 60 -141.5
      vertex 37.4 58.25 -122.834
    endloop
  endfacet
  facet normal 1 -0 0
    outer loop
      vertex 37.4 58.25 -125.975
      vertex 37.4 60 -141.5
      vertex 37.4 58.25 -123.602
    endloop
  endfacet
  facet normal 1 -0 0
    outer loop
      vertex 37.4 58.25 -126.744
      vertex 37.4 60 -141.5
      vertex 37.4 58.25 -125.975
    endloop
  endfacet
  facet normal 1 -0 0
    outer loop
      vertex 37.4 58.25 -129.117
      vertex 37.4 60 -141.5
      vertex 37.4 58.25 -126.744
    endloop
  endfacet
  facet normal 1 -0 0
    outer loop
      vertex 37.4 58.25 -129.886
      vertex 37.4 60 -141.5
      vertex 37.4 58.25 -129.117
    endloop
  endfacet
  facet normal 1 -0 0
    outer loop
      vertex 37.4 58.25 -132.258
      vertex 37.4 60 -141.5
      vertex 37.4 58.25 -129.886
    endloop
  endfacet
  facet normal 1 -0 0
    outer loop
      vertex 37.4 58.25 -133.027
      vertex 37.4 60 -141.5
      vertex 37.4 58.25 -132.258
    endloop
  endfacet
  facet normal 1 -0 0
    outer loop
      vertex 37.4 58.25 -135.4
      vertex 37.4 60 -141.5
      vertex 37.4 58.25 -133.027
    endloop
  endfacet
  facet normal 1 -0 0
    outer loop
      vertex 37.4 58.25 -136.169
      vertex 37.4 60 -141.5
      vertex 37.4 58.25 -135.4
    endloop
  endfacet
  facet normal 1 -0 0
    outer loop
      vertex 37.4 58.25 -138.542
      vertex 37.4 60 -141.5
      vertex 37.4 58.25 -136.169
    endloop
  endfacet
  facet normal 1 -0 0
    outer loop
      vertex 37.4 58.25 -139.31
      vertex 37.4 60 -141.5
      vertex 37.4 58.25 -138.542
    endloop
  endfacet
  facet normal 1 0 0
    outer loop
      vertex 37.4 58.25 -139.31
      vertex 37.4 57.7444 -141.5
      vertex 37.4 60 -141.5
    endloop
  endfacet
  facet normal 1 -0 0
    outer loop
      vertex 37.4 56 -140.126
      vertex 37.4 57.7444 -141.5
      vertex 37.4 58.25 -139.31
    endloop
  endfacet
  facet normal 1 0 0
    outer loop
      vertex 37.4 57.7444 -141.5
      vertex 37.4 56 -140.126
      vertex 37.4 56 -140.868
    endloop
  endfacet
  facet normal 1 0 0
    outer loop
      vertex 37.4 61.5 -149.5
      vertex 37.4 60 -141.5
      vertex 37.4 60 -149.5
    endloop
  endfacet
  facet normal -0 0 1
    outer loop
      vertex 33.8 61.5 -89.5
      vertex 37.4 58.25 -89.5
      vertex 37.4 61.5 -89.5
    endloop
  endfacet
  facet normal 0 0 1
    outer loop
      vertex 37.4 58.25 -89.5
      vertex 33.8 61.5 -89.5
      vertex 33.8 58.25 -89.5
    endloop
  endfacet
  facet normal 0 0 -1
    outer loop
      vertex 37.6 42.5 -149.5
      vertex 39.6 42 -149.5
      vertex 37.6 42 -149.5
    endloop
  endfacet
  facet normal 0 0 -1
    outer loop
      vertex 39.6 42 -149.5
      vertex 37.6 42.5 -149.5
      vertex 39.6 60 -149.5
    endloop
  endfacet
  facet normal 0 0 -1
    outer loop
      vertex 37.6 42.5 -149.5
      vertex 37.4 60 -149.5
      vertex 39.6 60 -149.5
    endloop
  endfacet
  facet normal 0 0 -1
    outer loop
      vertex 33.8 42.5 -149.5
      vertex 37.4 60 -149.5
      vertex 37.6 42.5 -149.5
    endloop
  endfacet
  facet normal 0 0 -1
    outer loop
      vertex 33.8 61.5 -149.5
      vertex 37.4 60 -149.5
      vertex 33.8 42.5 -149.5
    endloop
  endfacet
  facet normal 0 0 -1
    outer loop
      vertex 37.4 60 -149.5
      vertex 33.8 61.5 -149.5
      vertex 37.4 61.5 -149.5
    endloop
  endfacet
  facet normal -1 0 0
    outer loop
      vertex 33.8 56 -93.7439
      vertex 33.8 58.25 -92.1866
      vertex 33.8 58.25 -94.5593
    endloop
  endfacet
  facet normal -1 0 0
    outer loop
      vertex 33.8 58.25 -92.1866
      vertex 33.8 56 -93.7439
      vertex 33.8 56 -93.0019
    endloop
  endfacet
  facet normal -1 0 0
    outer loop
      vertex 33.8 56 -96.8855
      vertex 33.8 58.25 -95.3281
      vertex 33.8 58.25 -97.7009
    endloop
  endfacet
  facet normal -1 0 0
    outer loop
      vertex 33.8 58.25 -95.3281
      vertex 33.8 56 -96.8855
      vertex 33.8 56 -96.1435
    endloop
  endfacet
  facet normal -1 0 0
    outer loop
      vertex 33.8 56 -100.027
      vertex 33.8 58.25 -98.4697
      vertex 33.8 58.25 -100.842
    endloop
  endfacet
  facet normal -1 0 0
    outer loop
      vertex 33.8 58.25 -98.4697
      vertex 33.8 56 -100.027
      vertex 33.8 56 -99.2851
    endloop
  endfacet
  facet normal -1 0 0
    outer loop
      vertex 33.8 56 -103.169
      vertex 33.8 58.25 -101.611
      vertex 33.8 58.25 -103.984
    endloop
  endfacet
  facet normal -1 0 0
    outer loop
      vertex 33.8 58.25 -101.611
      vertex 33.8 56 -103.169
      vertex 33.8 56 -102.427
    endloop
  endfacet
  facet normal -1 0 0
    outer loop
      vertex 33.8 56 -106.31
      vertex 33.8 58.25 -104.753
      vertex 33.8 58.25 -107.126
    endloop
  endfacet
  facet normal -1 0 0
    outer loop
      vertex 33.8 58.25 -104.753
      vertex 33.8 56 -106.31
      vertex 33.8 56 -105.568
    endloop
  endfacet
  facet normal -1 0 0
    outer loop
      vertex 33.8 56 -109.452
      vertex 33.8 58.25 -107.895
      vertex 33.8 58.25 -110.267
    endloop
  endfacet
  facet normal -1 0 0
    outer loop
      vertex 33.8 58.25 -107.895
      vertex 33.8 56 -109.452
      vertex 33.8 56 -108.71
    endloop
  endfacet
  facet normal -1 0 0
    outer loop
      vertex 33.8 56 -112.593
      vertex 33.8 58.25 -111.036
      vertex 33.8 58.25 -113.409
    endloop
  endfacet
  facet normal -1 0 0
    outer loop
      vertex 33.8 58.25 -111.036
      vertex 33.8 56 -112.593
      vertex 33.8 56 -111.851
    endloop
  endfacet
  facet normal -1 0 0
    outer loop
      vertex 33.8 56 -115.735
      vertex 33.8 58.25 -114.178
      vertex 33.8 58.25 -116.55
    endloop
  endfacet
  facet normal -1 0 0
    outer loop
      vertex 33.8 58.25 -114.178
      vertex 33.8 56 -115.735
      vertex 33.8 56 -114.993
    endloop
  endfacet
  facet normal -1 0 0
    outer loop
      vertex 33.8 56 -118.877
      vertex 33.8 58.25 -117.319
      vertex 33.8 58.25 -119.692
    endloop
  endfacet
  facet normal -1 0 0
    outer loop
      vertex 33.8 58.25 -117.319
      vertex 33.8 56 -118.877
      vertex 33.8 56 -118.135
    endloop
  endfacet
  facet normal -1 0 0
    outer loop
      vertex 33.8 56 -122.018
      vertex 33.8 58.25 -120.461
      vertex 33.8 58.25 -122.834
    endloop
  endfacet
  facet normal -1 0 0
    outer loop
      vertex 33.8 58.25 -120.461
      vertex 33.8 56 -122.018
      vertex 33.8 56 -121.276
    endloop
  endfacet
  facet normal -1 0 0
    outer loop
      vertex 33.8 56 -125.16
      vertex 33.8 58.25 -123.602
      vertex 33.8 58.25 -125.975
    endloop
  endfacet
  facet normal -1 0 0
    outer loop
      vertex 33.8 58.25 -123.602
      vertex 33.8 56 -125.16
      vertex 33.8 56 -124.418
    endloop
  endfacet
  facet normal -1 0 0
    outer loop
      vertex 33.8 56 -128.301
      vertex 33.8 58.25 -126.744
      vertex 33.8 58.25 -129.117
    endloop
  endfacet
  facet normal -1 0 0
    outer loop
      vertex 33.8 58.25 -126.744
      vertex 33.8 56 -128.301
      vertex 33.8 56 -127.559
    endloop
  endfacet
  facet normal -1 0 0
    outer loop
      vertex 33.8 56 -131.443
      vertex 33.8 58.25 -129.886
      vertex 33.8 58.25 -132.258
    endloop
  endfacet
  facet normal -1 0 0
    outer loop
      vertex 33.8 58.25 -129.886
      vertex 33.8 56 -131.443
      vertex 33.8 56 -130.701
    endloop
  endfacet
  facet normal -1 0 0
    outer loop
      vertex 33.8 56 -134.585
      vertex 33.8 58.25 -133.027
      vertex 33.8 58.25 -135.4
    endloop
  endfacet
  facet normal -1 0 0
    outer loop
      vertex 33.8 58.25 -133.027
      vertex 33.8 56 -134.585
      vertex 33.8 56 -133.843
    endloop
  endfacet
  facet normal -1 0 0
    outer loop
      vertex 33.8 56 -137.726
      vertex 33.8 58.25 -136.169
      vertex 33.8 58.25 -138.542
    endloop
  endfacet
  facet normal -1 0 0
    outer loop
      vertex 33.8 58.25 -136.169
      vertex 33.8 56 -137.726
      vertex 33.8 56 -136.984
    endloop
  endfacet
  facet normal -1 0 0
    outer loop
      vertex 33.8 58.25 -138.542
      vertex 33.8 61.5 -149.5
      vertex 33.8 58.25 -139.31
    endloop
  endfacet
  facet normal -1 0 0
    outer loop
      vertex 33.8 61.5 -149.5
      vertex 33.8 57.7444 -141.5
      vertex 33.8 58.25 -139.31
    endloop
  endfacet
  facet normal -1 0 0
    outer loop
      vertex 33.8 42.5 -149.5
      vertex 33.8 57.7444 -141.5
      vertex 33.8 61.5 -149.5
    endloop
  endfacet
  facet normal -1 -0 0
    outer loop
      vertex 33.8 57.7444 -141.5
      vertex 33.8 42.5 -149.5
      vertex 33.8 42.5 -141.5
    endloop
  endfacet
  facet normal -1 0 0
    outer loop
      vertex 33.8 58.25 -136.169
      vertex 33.8 61.5 -149.5
      vertex 33.8 58.25 -138.542
    endloop
  endfacet
  facet normal -1 0 0
    outer loop
      vertex 33.8 58.25 -135.4
      vertex 33.8 61.5 -149.5
      vertex 33.8 58.25 -136.169
    endloop
  endfacet
  facet normal -1 0 0
    outer loop
      vertex 33.8 58.25 -133.027
      vertex 33.8 61.5 -149.5
      vertex 33.8 58.25 -135.4
    endloop
  endfacet
  facet normal -1 0 0
    outer loop
      vertex 33.8 58.25 -132.258
      vertex 33.8 61.5 -149.5
      vertex 33.8 58.25 -133.027
    endloop
  endfacet
  facet normal -1 0 0
    outer loop
      vertex 33.8 58.25 -129.886
      vertex 33.8 61.5 -149.5
      vertex 33.8 58.25 -132.258
    endloop
  endfacet
  facet normal -1 0 0
    outer loop
      vertex 33.8 58.25 -129.117
      vertex 33.8 61.5 -149.5
      vertex 33.8 58.25 -129.886
    endloop
  endfacet
  facet normal -1 0 0
    outer loop
      vertex 33.8 58.25 -126.744
      vertex 33.8 61.5 -149.5
      vertex 33.8 58.25 -129.117
    endloop
  endfacet
  facet normal -1 0 0
    outer loop
      vertex 33.8 58.25 -125.975
      vertex 33.8 61.5 -149.5
      vertex 33.8 58.25 -126.744
    endloop
  endfacet
  facet normal -1 0 0
    outer loop
      vertex 33.8 58.25 -123.602
      vertex 33.8 61.5 -149.5
      vertex 33.8 58.25 -125.975
    endloop
  endfacet
  facet normal -1 0 0
    outer loop
      vertex 33.8 58.25 -122.834
      vertex 33.8 61.5 -149.5
      vertex 33.8 58.25 -123.602
    endloop
  endfacet
  facet normal -1 0 0
    outer loop
      vertex 33.8 58.25 -120.461
      vertex 33.8 61.5 -149.5
      vertex 33.8 58.25 -122.834
    endloop
  endfacet
  facet normal -1 0 0
    outer loop
      vertex 33.8 61.5 -149.5
      vertex 33.8 58.25 -120.461
      vertex 33.8 61.5 -89.5
    endloop
  endfacet
  facet normal -1 0 0
    outer loop
      vertex 33.8 58.25 -119.692
      vertex 33.8 61.5 -89.5
      vertex 33.8 58.25 -120.461
    endloop
  endfacet
  facet normal -1 0 0
    outer loop
      vertex 33.8 58.25 -117.319
      vertex 33.8 61.5 -89.5
      vertex 33.8 58.25 -119.692
    endloop
  endfacet
  facet normal -1 0 0
    outer loop
      vertex 33.8 58.25 -116.55
      vertex 33.8 61.5 -89.5
      vertex 33.8 58.25 -117.319
    endloop
  endfacet
  facet normal -1 0 0
    outer loop
      vertex 33.8 58.25 -114.178
      vertex 33.8 61.5 -89.5
      vertex 33.8 58.25 -116.55
    endloop
  endfacet
  facet normal -1 0 0
    outer loop
      vertex 33.8 58.25 -113.409
      vertex 33.8 61.5 -89.5
      vertex 33.8 58.25 -114.178
    endloop
  endfacet
  facet normal -1 0 0
    outer loop
      vertex 33.8 58.25 -111.036
      vertex 33.8 61.5 -89.5
      vertex 33.8 58.25 -113.409
    endloop
  endfacet
  facet normal -1 0 0
    outer loop
      vertex 33.8 58.25 -110.267
      vertex 33.8 61.5 -89.5
      vertex 33.8 58.25 -111.036
    endloop
  endfacet
  facet normal -1 0 0
    outer loop
      vertex 33.8 58.25 -107.895
      vertex 33.8 61.5 -89.5
      vertex 33.8 58.25 -110.267
    endloop
  endfacet
  facet normal -1 0 0
    outer loop
      vertex 33.8 58.25 -107.126
      vertex 33.8 61.5 -89.5
      vertex 33.8 58.25 -107.895
    endloop
  endfacet
  facet normal -1 0 0
    outer loop
      vertex 33.8 58.25 -104.753
      vertex 33.8 61.5 -89.5
      vertex 33.8 58.25 -107.126
    endloop
  endfacet
  facet normal -1 0 0
    outer loop
      vertex 33.8 58.25 -103.984
      vertex 33.8 61.5 -89.5
      vertex 33.8 58.25 -104.753
    endloop
  endfacet
  facet normal -1 0 0
    outer loop
      vertex 33.8 58.25 -101.611
      vertex 33.8 61.5 -89.5
      vertex 33.8 58.25 -103.984
    endloop
  endfacet
  facet normal -1 0 0
    outer loop
      vertex 33.8 58.25 -100.842
      vertex 33.8 61.5 -89.5
      vertex 33.8 58.25 -101.611
    endloop
  endfacet
  facet normal -1 0 0
    outer loop
      vertex 33.8 58.25 -98.4697
      vertex 33.8 61.5 -89.5
      vertex 33.8 58.25 -100.842
    endloop
  endfacet
  facet normal -1 0 0
    outer loop
      vertex 33.8 58.25 -97.7009
      vertex 33.8 61.5 -89.5
      vertex 33.8 58.25 -98.4697
    endloop
  endfacet
  facet normal -1 0 0
    outer loop
      vertex 33.8 58.25 -95.3281
      vertex 33.8 61.5 -89.5
      vertex 33.8 58.25 -97.7009
    endloop
  endfacet
  facet normal -1 0 0
    outer loop
      vertex 33.8 58.25 -94.5593
      vertex 33.8 61.5 -89.5
      vertex 33.8 58.25 -95.3281
    endloop
  endfacet
  facet normal -1 0 0
    outer loop
      vertex 33.8 58.25 -92.1866
      vertex 33.8 61.5 -89.5
      vertex 33.8 58.25 -94.5593
    endloop
  endfacet
  facet normal -1 -0 0
    outer loop
      vertex 33.8 61.5 -89.5
      vertex 33.8 58.25 -92.1866
      vertex 33.8 58.25 -89.5
    endloop
  endfacet
  facet normal -1 0 0
    outer loop
      vertex 33.8 56 -140.126
      vertex 33.8 57.7444 -141.5
      vertex 33.8 56 -140.868
    endloop
  endfacet
  facet normal -1 0 0
    outer loop
      vertex 33.8 57.7444 -141.5
      vertex 33.8 56 -140.126
      vertex 33.8 58.25 -139.31
    endloop
  endfacet
  facet normal 0 1 -0
    outer loop
      vertex 37.4 61.5 -149.5
      vertex 33.8 61.5 -89.5
      vertex 37.4 61.5 -89.5
    endloop
  endfacet
  facet normal 0 1 0
    outer loop
      vertex 33.8 61.5 -89.5
      vertex 37.4 61.5 -149.5
      vertex 33.8 61.5 -149.5
    endloop
  endfacet
  facet normal 0 -1 0
    outer loop
      vertex 33.8 58.25 -92.1866
      vertex 37.4 58.25 -89.5
      vertex 33.8 58.25 -89.5
    endloop
  endfacet
  facet normal 0 -1 -0
    outer loop
      vertex 37.4 58.25 -89.5
      vertex 33.8 58.25 -92.1866
      vertex 37.4 58.25 -92.1866
    endloop
  endfacet
  facet normal 0 -1 0
    outer loop
      vertex 33.8 58.25 -123.602
      vertex 37.4 58.25 -122.834
      vertex 33.8 58.25 -122.834
    endloop
  endfacet
  facet normal 0 -1 -0
    outer loop
      vertex 37.4 58.25 -122.834
      vertex 33.8 58.25 -123.602
      vertex 37.4 58.25 -123.602
    endloop
  endfacet
  facet normal 0 -1 0
    outer loop
      vertex 33.8 58.25 -126.744
      vertex 37.4 58.25 -125.975
      vertex 33.8 58.25 -125.975
    endloop
  endfacet
  facet normal 0 -1 -0
    outer loop
      vertex 37.4 58.25 -125.975
      vertex 33.8 58.25 -126.744
      vertex 37.4 58.25 -126.744
    endloop
  endfacet
  facet normal 0 -1 0
    outer loop
      vertex 33.8 58.25 -129.886
      vertex 37.4 58.25 -129.117
      vertex 33.8 58.25 -129.117
    endloop
  endfacet
  facet normal 0 -1 -0
    outer loop
      vertex 37.4 58.25 -129.117
      vertex 33.8 58.25 -129.886
      vertex 37.4 58.25 -129.886
    endloop
  endfacet
  facet normal 0 -1 0
    outer loop
      vertex 33.8 58.25 -133.027
      vertex 37.4 58.25 -132.258
      vertex 33.8 58.25 -132.258
    endloop
  endfacet
  facet normal 0 -1 -0
    outer loop
      vertex 37.4 58.25 -132.258
      vertex 33.8 58.25 -133.027
      vertex 37.4 58.25 -133.027
    endloop
  endfacet
  facet normal 0 -1 0
    outer loop
      vertex 33.8 58.25 -136.169
      vertex 37.4 58.25 -135.4
      vertex 33.8 58.25 -135.4
    endloop
  endfacet
  facet normal 0 -1 -0
    outer loop
      vertex 37.4 58.25 -135.4
      vertex 33.8 58.25 -136.169
      vertex 37.4 58.25 -136.169
    endloop
  endfacet
  facet normal 0 -1 0
    outer loop
      vertex 33.8 58.25 -139.31
      vertex 37.4 58.25 -138.542
      vertex 33.8 58.25 -138.542
    endloop
  endfacet
  facet normal 0 -1 -0
    outer loop
      vertex 37.4 58.25 -138.542
      vertex 33.8 58.25 -139.31
      vertex 37.4 58.25 -139.31
    endloop
  endfacet
  facet normal 0 -1 0
    outer loop
      vertex 33.8 58.25 -95.3281
      vertex 37.4 58.25 -94.5593
      vertex 33.8 58.25 -94.5593
    endloop
  endfacet
  facet normal 0 -1 -0
    outer loop
      vertex 37.4 58.25 -94.5593
      vertex 33.8 58.25 -95.3281
      vertex 37.4 58.25 -95.3281
    endloop
  endfacet
  facet normal 0 -1 0
    outer loop
      vertex 33.8 58.25 -98.4697
      vertex 37.4 58.25 -97.7009
      vertex 33.8 58.25 -97.7009
    endloop
  endfacet
  facet normal 0 -1 -0
    outer loop
      vertex 37.4 58.25 -97.7009
      vertex 33.8 58.25 -98.4697
      vertex 37.4 58.25 -98.4697
    endloop
  endfacet
  facet normal 0 -1 0
    outer loop
      vertex 33.8 58.25 -101.611
      vertex 37.4 58.25 -100.842
      vertex 33.8 58.25 -100.842
    endloop
  endfacet
  facet normal 0 -1 -0
    outer loop
      vertex 37.4 58.25 -100.842
      vertex 33.8 58.25 -101.611
      vertex 37.4 58.25 -101.611
    endloop
  endfacet
  facet normal 0 -1 0
    outer loop
      vertex 33.8 58.25 -104.753
      vertex 37.4 58.25 -103.984
      vertex 33.8 58.25 -103.984
    endloop
  endfacet
  facet normal 0 -1 -0
    outer loop
      vertex 37.4 58.25 -103.984
      vertex 33.8 58.25 -104.753
      vertex 37.4 58.25 -104.753
    endloop
  endfacet
  facet normal 0 -1 0
    outer loop
      vertex 33.8 58.25 -107.895
      vertex 37.4 58.25 -107.126
      vertex 33.8 58.25 -107.126
    endloop
  endfacet
  facet normal 0 -1 -0
    outer loop
      vertex 37.4 58.25 -107.126
      vertex 33.8 58.25 -107.895
      vertex 37.4 58.25 -107.895
    endloop
  endfacet
  facet normal 0 -1 0
    outer loop
      vertex 33.8 58.25 -111.036
      vertex 37.4 58.25 -110.267
      vertex 33.8 58.25 -110.267
    endloop
  endfacet
  facet normal 0 -1 -0
    outer loop
      vertex 37.4 58.25 -110.267
      vertex 33.8 58.25 -111.036
      vertex 37.4 58.25 -111.036
    endloop
  endfacet
  facet normal 0 -1 0
    outer loop
      vertex 33.8 58.25 -114.178
      vertex 37.4 58.25 -113.409
      vertex 33.8 58.25 -113.409
    endloop
  endfacet
  facet normal 0 -1 -0
    outer loop
      vertex 37.4 58.25 -113.409
      vertex 33.8 58.25 -114.178
      vertex 37.4 58.25 -114.178
    endloop
  endfacet
  facet normal 0 -1 0
    outer loop
      vertex 33.8 58.25 -117.319
      vertex 37.4 58.25 -116.55
      vertex 33.8 58.25 -116.55
    endloop
  endfacet
  facet normal 0 -1 -0
    outer loop
      vertex 37.4 58.25 -116.55
      vertex 33.8 58.25 -117.319
      vertex 37.4 58.25 -117.319
    endloop
  endfacet
  facet normal 0 -1 0
    outer loop
      vertex 33.8 58.25 -120.461
      vertex 37.4 58.25 -119.692
      vertex 33.8 58.25 -119.692
    endloop
  endfacet
  facet normal 0 -1 -0
    outer loop
      vertex 37.4 58.25 -119.692
      vertex 33.8 58.25 -120.461
      vertex 37.4 58.25 -120.461
    endloop
  endfacet
  facet normal 0 -0.340679 0.94018
    outer loop
      vertex 33.8 58.25 -92.1866
      vertex 37.4 56 -93.0019
      vertex 37.4 58.25 -92.1866
    endloop
  endfacet
  facet normal 0 -0.340679 0.94018
    outer loop
      vertex 37.4 56 -93.0019
      vertex 33.8 58.25 -92.1866
      vertex 33.8 56 -93.0019
    endloop
  endfacet
  facet normal 0 -1 0
    outer loop
      vertex 33.8 56 -93.7439
      vertex 37.4 56 -93.0019
      vertex 33.8 56 -93.0019
    endloop
  endfacet
  facet normal 0 -1 -0
    outer loop
      vertex 37.4 56 -93.0019
      vertex 33.8 56 -93.7439
      vertex 37.4 56 -93.7439
    endloop
  endfacet
  facet normal 0 -0.340716 -0.940166
    outer loop
      vertex 33.8 56 -93.7439
      vertex 37.4 58.25 -94.5593
      vertex 37.4 56 -93.7439
    endloop
  endfacet
  facet normal -0 -0.340716 -0.940166
    outer loop
      vertex 37.4 58.25 -94.5593
      vertex 33.8 56 -93.7439
      vertex 33.8 58.25 -94.5593
    endloop
  endfacet
  facet normal 0 -0.340716 0.940166
    outer loop
      vertex 33.8 58.25 -95.3281
      vertex 37.4 56 -96.1435
      vertex 37.4 58.25 -95.3281
    endloop
  endfacet
  facet normal 0 -0.340716 0.940166
    outer loop
      vertex 37.4 56 -96.1435
      vertex 33.8 58.25 -95.3281
      vertex 33.8 56 -96.1435
    endloop
  endfacet
  facet normal 0 -1 0
    outer loop
      vertex 33.8 56 -96.8855
      vertex 37.4 56 -96.1435
      vertex 33.8 56 -96.1435
    endloop
  endfacet
  facet normal 0 -1 -0
    outer loop
      vertex 37.4 56 -96.1435
      vertex 33.8 56 -96.8855
      vertex 37.4 56 -96.8855
    endloop
  endfacet
  facet normal 0 -0.340716 -0.940166
    outer loop
      vertex 33.8 56 -96.8855
      vertex 37.4 58.25 -97.7009
      vertex 37.4 56 -96.8855
    endloop
  endfacet
  facet normal -0 -0.340716 -0.940166
    outer loop
      vertex 37.4 58.25 -97.7009
      vertex 33.8 56 -96.8855
      vertex 33.8 58.25 -97.7009
    endloop
  endfacet
  facet normal 0 -0.340716 0.940166
    outer loop
      vertex 33.8 58.25 -98.4697
      vertex 37.4 56 -99.2851
      vertex 37.4 58.25 -98.4697
    endloop
  endfacet
  facet normal 0 -0.340716 0.940166
    outer loop
      vertex 37.4 56 -99.2851
      vertex 33.8 58.25 -98.4697
      vertex 33.8 56 -99.2851
    endloop
  endfacet
  facet normal 0 -1 0
    outer loop
      vertex 33.8 56 -100.027
      vertex 37.4 56 -99.2851
      vertex 33.8 56 -99.2851
    endloop
  endfacet
  facet normal 0 -1 -0
    outer loop
      vertex 37.4 56 -99.2851
      vertex 33.8 56 -100.027
      vertex 37.4 56 -100.027
    endloop
  endfacet
  facet normal 0 -0.340568 -0.94022
    outer loop
      vertex 33.8 56 -100.027
      vertex 37.4 58.25 -100.842
      vertex 37.4 56 -100.027
    endloop
  endfacet
  facet normal -0 -0.340568 -0.94022
    outer loop
      vertex 37.4 58.25 -100.842
      vertex 33.8 56 -100.027
      vertex 33.8 58.25 -100.842
    endloop
  endfacet
  facet normal 0 -0.340938 0.940086
    outer loop
      vertex 33.8 58.25 -101.611
      vertex 37.4 56 -102.427
      vertex 37.4 58.25 -101.611
    endloop
  endfacet
  facet normal 0 -0.340938 0.940086
    outer loop
      vertex 37.4 56 -102.427
      vertex 33.8 58.25 -101.611
      vertex 33.8 56 -102.427
    endloop
  endfacet
  facet normal 0 -1 0
    outer loop
      vertex 33.8 56 -103.169
      vertex 37.4 56 -102.427
      vertex 33.8 56 -102.427
    endloop
  endfacet
  facet normal 0 -1 -0
    outer loop
      vertex 37.4 56 -102.427
      vertex 33.8 56 -103.169
      vertex 37.4 56 -103.169
    endloop
  endfacet
  facet normal 0 -0.340568 -0.94022
    outer loop
      vertex 33.8 56 -103.169
      vertex 37.4 58.25 -103.984
      vertex 37.4 56 -103.169
    endloop
  endfacet
  facet normal -0 -0.340568 -0.94022
    outer loop
      vertex 37.4 58.25 -103.984
      vertex 33.8 56 -103.169
      vertex 33.8 58.25 -103.984
    endloop
  endfacet
  facet normal 0 -0.340568 0.94022
    outer loop
      vertex 33.8 58.25 -104.753
      vertex 37.4 56 -105.568
      vertex 37.4 58.25 -104.753
    endloop
  endfacet
  facet normal 0 -0.340568 0.94022
    outer loop
      vertex 37.4 56 -105.568
      vertex 33.8 58.25 -104.753
      vertex 33.8 56 -105.568
    endloop
  endfacet
  facet normal 0 -1 0
    outer loop
      vertex 33.8 56 -106.31
      vertex 37.4 56 -105.568
      vertex 33.8 56 -105.568
    endloop
  endfacet
  facet normal 0 -1 -0
    outer loop
      vertex 37.4 56 -105.568
      vertex 33.8 56 -106.31
      vertex 37.4 56 -106.31
    endloop
  endfacet
  facet normal 0 -0.340938 -0.940086
    outer loop
      vertex 33.8 56 -106.31
      vertex 37.4 58.25 -107.126
      vertex 37.4 56 -106.31
    endloop
  endfacet
  facet normal -0 -0.340938 -0.940086
    outer loop
      vertex 37.4 58.25 -107.126
      vertex 33.8 56 -106.31
      vertex 33.8 58.25 -107.126
    endloop
  endfacet
  facet normal 0 -0.340568 0.94022
    outer loop
      vertex 33.8 58.25 -107.895
      vertex 37.4 56 -108.71
      vertex 37.4 58.25 -107.895
    endloop
  endfacet
  facet normal 0 -0.340568 0.94022
    outer loop
      vertex 37.4 56 -108.71
      vertex 33.8 58.25 -107.895
      vertex 33.8 56 -108.71
    endloop
  endfacet
  facet normal 0 -1 0
    outer loop
      vertex 33.8 56 -109.452
      vertex 37.4 56 -108.71
      vertex 33.8 56 -108.71
    endloop
  endfacet
  facet normal 0 -1 -0
    outer loop
      vertex 37.4 56 -108.71
      vertex 33.8 56 -109.452
      vertex 37.4 56 -109.452
    endloop
  endfacet
  facet normal 0 -0.340568 -0.94022
    outer loop
      vertex 33.8 56 -109.452
      vertex 37.4 58.25 -110.267
      vertex 37.4 56 -109.452
    endloop
  endfacet
  facet normal -0 -0.340568 -0.94022
    outer loop
      vertex 37.4 58.25 -110.267
      vertex 33.8 56 -109.452
      vertex 33.8 58.25 -110.267
    endloop
  endfacet
  facet normal 0 -0.340568 0.94022
    outer loop
      vertex 33.8 58.25 -111.036
      vertex 37.4 56 -111.851
      vertex 37.4 58.25 -111.036
    endloop
  endfacet
  facet normal 0 -0.340568 0.94022
    outer loop
      vertex 37.4 56 -111.851
      vertex 33.8 58.25 -111.036
      vertex 33.8 56 -111.851
    endloop
  endfacet
  facet normal 0 -1 0
    outer loop
      vertex 33.8 56 -112.593
      vertex 37.4 56 -111.851
      vertex 33.8 56 -111.851
    endloop
  endfacet
  facet normal 0 -1 -0
    outer loop
      vertex 37.4 56 -111.851
      vertex 33.8 56 -112.593
      vertex 37.4 56 -112.593
    endloop
  endfacet
  facet normal 0 -0.340938 -0.940086
    outer loop
      vertex 33.8 56 -112.593
      vertex 37.4 58.25 -113.409
      vertex 37.4 56 -112.593
    endloop
  endfacet
  facet normal -0 -0.340938 -0.940086
    outer loop
      vertex 37.4 58.25 -113.409
      vertex 33.8 56 -112.593
      vertex 33.8 58.25 -113.409
    endloop
  endfacet
  facet normal 0 -0.340568 0.94022
    outer loop
      vertex 33.8 58.25 -114.178
      vertex 37.4 56 -114.993
      vertex 37.4 58.25 -114.178
    endloop
  endfacet
  facet normal 0 -0.340568 0.94022
    outer loop
      vertex 37.4 56 -114.993
      vertex 33.8 58.25 -114.178
      vertex 33.8 56 -114.993
    endloop
  endfacet
  facet normal 0 -1 0
    outer loop
      vertex 33.8 56 -115.735
      vertex 37.4 56 -114.993
      vertex 33.8 56 -114.993
    endloop
  endfacet
  facet normal 0 -1 -0
    outer loop
      vertex 37.4 56 -114.993
      vertex 33.8 56 -115.735
      vertex 37.4 56 -115.735
    endloop
  endfacet
  facet normal 0 -0.340568 -0.94022
    outer loop
      vertex 33.8 56 -115.735
      vertex 37.4 58.25 -116.55
      vertex 37.4 56 -115.735
    endloop
  endfacet
  facet normal -0 -0.340568 -0.94022
    outer loop
      vertex 37.4 58.25 -116.55
      vertex 33.8 56 -115.735
      vertex 33.8 58.25 -116.55
    endloop
  endfacet
  facet normal 0 -0.340938 0.940086
    outer loop
      vertex 33.8 58.25 -117.319
      vertex 37.4 56 -118.135
      vertex 37.4 58.25 -117.319
    endloop
  endfacet
  facet normal 0 -0.340938 0.940086
    outer loop
      vertex 37.4 56 -118.135
      vertex 33.8 58.25 -117.319
      vertex 33.8 56 -118.135
    endloop
  endfacet
  facet normal 0 -1 0
    outer loop
      vertex 33.8 56 -118.877
      vertex 37.4 56 -118.135
      vertex 33.8 56 -118.135
    endloop
  endfacet
  facet normal 0 -1 -0
    outer loop
      vertex 37.4 56 -118.135
      vertex 33.8 56 -118.877
      vertex 37.4 56 -118.877
    endloop
  endfacet
  facet normal 0 -0.340568 -0.94022
    outer loop
      vertex 33.8 56 -118.877
      vertex 37.4 58.25 -119.692
      vertex 37.4 56 -118.877
    endloop
  endfacet
  facet normal -0 -0.340568 -0.94022
    outer loop
      vertex 37.4 58.25 -119.692
      vertex 33.8 56 -118.877
      vertex 33.8 58.25 -119.692
    endloop
  endfacet
  facet normal 0 -0.340568 0.94022
    outer loop
      vertex 33.8 58.25 -120.461
      vertex 37.4 56 -121.276
      vertex 37.4 58.25 -120.461
    endloop
  endfacet
  facet normal 0 -0.340568 0.94022
    outer loop
      vertex 37.4 56 -121.276
      vertex 33.8 58.25 -120.461
      vertex 33.8 56 -121.276
    endloop
  endfacet
  facet normal 0 -1 0
    outer loop
      vertex 33.8 56 -122.018
      vertex 37.4 56 -121.276
      vertex 33.8 56 -121.276
    endloop
  endfacet
  facet normal 0 -1 -0
    outer loop
      vertex 37.4 56 -121.276
      vertex 33.8 56 -122.018
      vertex 37.4 56 -122.018
    endloop
  endfacet
  facet normal 0 -0.340938 -0.940086
    outer loop
      vertex 33.8 56 -122.018
      vertex 37.4 58.25 -122.834
      vertex 37.4 56 -122.018
    endloop
  endfacet
  facet normal -0 -0.340938 -0.940086
    outer loop
      vertex 37.4 58.25 -122.834
      vertex 33.8 56 -122.018
      vertex 33.8 58.25 -122.834
    endloop
  endfacet
  facet normal 0 -0.340938 0.940086
    outer loop
      vertex 33.8 58.25 -123.602
      vertex 37.4 56 -124.418
      vertex 37.4 58.25 -123.602
    endloop
  endfacet
  facet normal 0 -0.340938 0.940086
    outer loop
      vertex 37.4 56 -124.418
      vertex 33.8 58.25 -123.602
      vertex 33.8 56 -124.418
    endloop
  endfacet
  facet normal 0 -1 0
    outer loop
      vertex 33.8 56 -125.16
      vertex 37.4 56 -124.418
      vertex 33.8 56 -124.418
    endloop
  endfacet
  facet normal 0 -1 -0
    outer loop
      vertex 37.4 56 -124.418
      vertex 33.8 56 -125.16
      vertex 37.4 56 -125.16
    endloop
  endfacet
  facet normal 0 -0.340568 -0.94022
    outer loop
      vertex 33.8 56 -125.16
      vertex 37.4 58.25 -125.975
      vertex 37.4 56 -125.16
    endloop
  endfacet
  facet normal -0 -0.340568 -0.94022
    outer loop
      vertex 37.4 58.25 -125.975
      vertex 33.8 56 -125.16
      vertex 33.8 58.25 -125.975
    endloop
  endfacet
  facet normal 0 -0.340568 0.94022
    outer loop
      vertex 33.8 58.25 -126.744
      vertex 37.4 56 -127.559
      vertex 37.4 58.25 -126.744
    endloop
  endfacet
  facet normal 0 -0.340568 0.94022
    outer loop
      vertex 37.4 56 -127.559
      vertex 33.8 58.25 -126.744
      vertex 33.8 56 -127.559
    endloop
  endfacet
  facet normal 0 -1 0
    outer loop
      vertex 33.8 56 -128.301
      vertex 37.4 56 -127.559
      vertex 33.8 56 -127.559
    endloop
  endfacet
  facet normal 0 -1 -0
    outer loop
      vertex 37.4 56 -127.559
      vertex 33.8 56 -128.301
      vertex 37.4 56 -128.301
    endloop
  endfacet
  facet normal 0 -0.340938 -0.940086
    outer loop
      vertex 33.8 56 -128.301
      vertex 37.4 58.25 -129.117
      vertex 37.4 56 -128.301
    endloop
  endfacet
  facet normal -0 -0.340938 -0.940086
    outer loop
      vertex 37.4 58.25 -129.117
      vertex 33.8 56 -128.301
      vertex 33.8 58.25 -129.117
    endloop
  endfacet
  facet normal 0 -0.340568 0.94022
    outer loop
      vertex 33.8 58.25 -129.886
      vertex 37.4 56 -130.701
      vertex 37.4 58.25 -129.886
    endloop
  endfacet
  facet normal 0 -0.340568 0.94022
    outer loop
      vertex 37.4 56 -130.701
      vertex 33.8 58.25 -129.886
      vertex 33.8 56 -130.701
    endloop
  endfacet
  facet normal 0 -1 0
    outer loop
      vertex 33.8 56 -131.443
      vertex 37.4 56 -130.701
      vertex 33.8 56 -130.701
    endloop
  endfacet
  facet normal 0 -1 -0
    outer loop
      vertex 37.4 56 -130.701
      vertex 33.8 56 -131.443
      vertex 37.4 56 -131.443
    endloop
  endfacet
  facet normal 0 -0.340568 -0.94022
    outer loop
      vertex 33.8 56 -131.443
      vertex 37.4 58.25 -132.258
      vertex 37.4 56 -131.443
    endloop
  endfacet
  facet normal -0 -0.340568 -0.94022
    outer loop
      vertex 37.4 58.25 -132.258
      vertex 33.8 56 -131.443
      vertex 33.8 58.25 -132.258
    endloop
  endfacet
  facet normal 0 -0.340938 0.940086
    outer loop
      vertex 33.8 58.25 -133.027
      vertex 37.4 56 -133.843
      vertex 37.4 58.25 -133.027
    endloop
  endfacet
  facet normal 0 -0.340938 0.940086
    outer loop
      vertex 37.4 56 -133.843
      vertex 33.8 58.25 -133.027
      vertex 33.8 56 -133.843
    endloop
  endfacet
  facet normal 0 -1 0
    outer loop
      vertex 33.8 56 -134.585
      vertex 37.4 56 -133.843
      vertex 33.8 56 -133.843
    endloop
  endfacet
  facet normal 0 -1 -0
    outer loop
      vertex 37.4 56 -133.843
      vertex 33.8 56 -134.585
      vertex 37.4 56 -134.585
    endloop
  endfacet
  facet normal 0 -0.340568 -0.94022
    outer loop
      vertex 33.8 56 -134.585
      vertex 37.4 58.25 -135.4
      vertex 37.4 56 -134.585
    endloop
  endfacet
  facet normal -0 -0.340568 -0.94022
    outer loop
      vertex 37.4 58.25 -135.4
      vertex 33.8 56 -134.585
      vertex 33.8 58.25 -135.4
    endloop
  endfacet
  facet normal 0 -0.340568 0.94022
    outer loop
      vertex 33.8 58.25 -136.169
      vertex 37.4 56 -136.984
      vertex 37.4 58.25 -136.169
    endloop
  endfacet
  facet normal 0 -0.340568 0.94022
    outer loop
      vertex 37.4 56 -136.984
      vertex 33.8 58.25 -136.169
      vertex 33.8 56 -136.984
    endloop
  endfacet
  facet normal 0 -1 0
    outer loop
      vertex 33.8 56 -137.726
      vertex 37.4 56 -136.984
      vertex 33.8 56 -136.984
    endloop
  endfacet
  facet normal 0 -1 -0
    outer loop
      vertex 37.4 56 -136.984
      vertex 33.8 56 -137.726
      vertex 37.4 56 -137.726
    endloop
  endfacet
  facet normal 0 -0.340938 -0.940086
    outer loop
      vertex 33.8 56 -137.726
      vertex 37.4 58.25 -138.542
      vertex 37.4 56 -137.726
    endloop
  endfacet
  facet normal -0 -0.340938 -0.940086
    outer loop
      vertex 37.4 58.25 -138.542
      vertex 33.8 56 -137.726
      vertex 33.8 58.25 -138.542
    endloop
  endfacet
  facet normal 0 -0.340938 0.940086
    outer loop
      vertex 33.8 58.25 -139.31
      vertex 37.4 56 -140.126
      vertex 37.4 58.25 -139.31
    endloop
  endfacet
  facet normal 0 -0.340938 0.940086
    outer loop
      vertex 37.4 56 -140.126
      vertex 33.8 58.25 -139.31
      vertex 33.8 56 -140.126
    endloop
  endfacet
  facet normal 0 -1 0
    outer loop
      vertex 33.8 56 -140.868
      vertex 37.4 56 -140.126
      vertex 33.8 56 -140.126
    endloop
  endfacet
  facet normal 0 -1 -0
    outer loop
      vertex 37.4 56 -140.126
      vertex 33.8 56 -140.868
      vertex 37.4 56 -140.868
    endloop
  endfacet
  facet normal 0 -0.340635 -0.940196
    outer loop
      vertex 33.8 56 -140.868
      vertex 37.4 57.7444 -141.5
      vertex 37.4 56 -140.868
    endloop
  endfacet
  facet normal -0 -0.340635 -0.940196
    outer loop
      vertex 37.4 57.7444 -141.5
      vertex 33.8 56 -140.868
      vertex 33.8 57.7444 -141.5
    endloop
  endfacet
  facet normal 1 -0 0
    outer loop
      vertex 39.6 -44.6 -135.5
      vertex 39.6 42.6 -141.5
      vertex 39.6 42.6 -135.5
    endloop
  endfacet
  facet normal 1 0 0
    outer loop
      vertex 39.6 42.6 -141.5
      vertex 39.6 -44.6 -135.5
      vertex 39.6 42 -149.5
    endloop
  endfacet
  facet normal 1 0 0
    outer loop
      vertex 39.6 -44.6 -175.5
      vertex 39.6 42 -149.5
      vertex 39.6 -44.6 -135.5
    endloop
  endfacet
  facet normal 1 0 0
    outer loop
      vertex 39.6 42 -149.5
      vertex 39.6 -44.6 -175.5
      vertex 39.6 42 -175.5
    endloop
  endfacet
  facet normal 1 -0 0
    outer loop
      vertex 39.6 42.6 -141.5
      vertex 39.6 60 -149.5
      vertex 39.6 60 -141.5
    endloop
  endfacet
  facet normal 1 0 0
    outer loop
      vertex 39.6 60 -149.5
      vertex 39.6 42.6 -141.5
      vertex 39.6 42 -149.5
    endloop
  endfacet
  facet normal -0 0 1
    outer loop
      vertex 37.6 42.6 -135.5
      vertex 39.6 -44.6 -135.5
      vertex 39.6 42.6 -135.5
    endloop
  endfacet
  facet normal 0 0 1
    outer loop
      vertex 39.6 -44.6 -135.5
      vertex 37.6 42.6 -135.5
      vertex 37.6 -44.6 -135.5
    endloop
  endfacet
  facet normal 0 0 -1
    outer loop
      vertex 37.6 -44.6 -175.5
      vertex 39.6 42 -175.5
      vertex 39.6 -44.6 -175.5
    endloop
  endfacet
  facet normal -0 0 -1
    outer loop
      vertex 39.6 42 -175.5
      vertex 37.6 -44.6 -175.5
      vertex 37.6 42 -175.5
    endloop
  endfacet
  facet normal -1 0 0
    outer loop
      vertex 37.6 42 -175.5
      vertex 37.6 -44.6 -175.5
      vertex 37.6 42 -149.5
    endloop
  endfacet
  facet normal -1 0 0
    outer loop
      vertex 37.6 42.5 -149.5
      vertex 37.6 42 -149.5
      vertex 37.6 42.5 -141.5
    endloop
  endfacet
  facet normal -1 0 0
    outer loop
      vertex 37.6 42.5 -141.5
      vertex 37.6 42.6 -135.5
      vertex 37.6 42.6 -141.5
    endloop
  endfacet
  facet normal -1 0 0
    outer loop
      vertex 37.6 -44.6 -135.5
      vertex 37.6 42.5 -141.5
      vertex 37.6 42 -149.5
    endloop
  endfacet
  facet normal -1 0 0
    outer loop
      vertex 37.6 -44.6 -135.5
      vertex 37.6 42 -149.5
      vertex 37.6 -44.6 -175.5
    endloop
  endfacet
  facet normal -1 0 0
    outer loop
      vertex 37.6 42.5 -141.5
      vertex 37.6 -44.6 -135.5
      vertex 37.6 42.6 -135.5
    endloop
  endfacet
  facet normal 0 1 -0
    outer loop
      vertex 39.6 42 -175.5
      vertex 37.6 42 -149.5
      vertex 39.6 42 -149.5
    endloop
  endfacet
  facet normal 0 1 0
    outer loop
      vertex 37.6 42 -149.5
      vertex 39.6 42 -175.5
      vertex 37.6 42 -175.5
    endloop
  endfacet
  facet normal 0 -1 0
    outer loop
      vertex 37.6 -44.6 -175.5
      vertex 39.6 -44.6 -135.5
      vertex 37.6 -44.6 -135.5
    endloop
  endfacet
  facet normal 0 -1 -0
    outer loop
      vertex 39.6 -44.6 -135.5
      vertex 37.6 -44.6 -175.5
      vertex 39.6 -44.6 -175.5
    endloop
  endfacet
  facet normal -0 0 1
    outer loop
      vertex 37.4 57.7444 -141.5
      vertex 39.6 42.6 -141.5
      vertex 39.6 60 -141.5
    endloop
  endfacet
  facet normal 0 0 1
    outer loop
      vertex 37.4 57.7444 -141.5
      vertex 39.6 60 -141.5
      vertex 37.4 60 -141.5
    endloop
  endfacet
  facet normal 0 0 1
    outer loop
      vertex 39.6 42.6 -141.5
      vertex 37.4 57.7444 -141.5
      vertex 37.6 42.6 -141.5
    endloop
  endfacet
  facet normal -0 0 1
    outer loop
      vertex 33.8 57.7444 -141.5
      vertex 37.6 42.6 -141.5
      vertex 37.4 57.7444 -141.5
    endloop
  endfacet
  facet normal 0 0 1
    outer loop
      vertex 37.6 42.6 -141.5
      vertex 33.8 57.7444 -141.5
      vertex 33.8 42.5 -141.5
    endloop
  endfacet
  facet normal 0 0 1
    outer loop
      vertex 37.6 42.6 -141.5
      vertex 33.8 42.5 -141.5
      vertex 37.6 42.5 -141.5
    endloop
  endfacet
  facet normal 0 1 -0
    outer loop
      vertex 39.6 60 -149.5
      vertex 37.4 60 -141.5
      vertex 39.6 60 -141.5
    endloop
  endfacet
  facet normal 0 1 0
    outer loop
      vertex 37.4 60 -141.5
      vertex 39.6 60 -149.5
      vertex 37.4 60 -149.5
    endloop
  endfacet
  facet normal 0 -1 0
    outer loop
      vertex 33.8 42.5 -149.5
      vertex 37.6 42.5 -141.5
      vertex 33.8 42.5 -141.5
    endloop
  endfacet
  facet normal 0 -1 -0
    outer loop
      vertex 37.6 42.5 -141.5
      vertex 33.8 42.5 -149.5
      vertex 37.6 42.5 -149.5
    endloop
  endfacet
  facet normal 0 1 -0
    outer loop
      vertex 39.6 42.6 -141.5
      vertex 37.6 42.6 -135.5
      vertex 39.6 42.6 -135.5
    endloop
  endfacet
  facet normal 0 1 0
    outer loop
      vertex 37.6 42.6 -135.5
      vertex 39.6 42.6 -141.5
      vertex 37.6 42.6 -141.5
    endloop
  endfacet
endsolid OpenSCAD_Model
