solid OpenSCAD_Model
  facet normal 1 -0 0
    outer loop
      vertex 37.4 56 -126.484
      vertex 37.4 58.25 -128.042
      vertex 37.4 58.25 -125.669
    endloop
  endfacet
  facet normal 1 0 0
    outer loop
      vertex 37.4 58.25 -128.042
      vertex 37.4 56 -126.484
      vertex 37.4 56 -127.226
    endloop
  endfacet
  facet normal 1 -0 0
    outer loop
      vertex 37.4 56 -123.343
      vertex 37.4 58.25 -124.9
      vertex 37.4 58.25 -122.527
    endloop
  endfacet
  facet normal 1 0 0
    outer loop
      vertex 37.4 58.25 -124.9
      vertex 37.4 56 -123.343
      vertex 37.4 56 -124.085
    endloop
  endfacet
  facet normal 1 -0 0
    outer loop
      vertex 37.4 56 -120.201
      vertex 37.4 58.25 -121.758
      vertex 37.4 58.25 -119.386
    endloop
  endfacet
  facet normal 1 0 0
    outer loop
      vertex 37.4 58.25 -121.758
      vertex 37.4 56 -120.201
      vertex 37.4 56 -120.943
    endloop
  endfacet
  facet normal 1 -0 0
    outer loop
      vertex 37.4 56 -117.059
      vertex 37.4 58.25 -118.617
      vertex 37.4 58.25 -116.244
    endloop
  endfacet
  facet normal 1 0 0
    outer loop
      vertex 37.4 58.25 -118.617
      vertex 37.4 56 -117.059
      vertex 37.4 56 -117.801
    endloop
  endfacet
  facet normal 1 -0 0
    outer loop
      vertex 37.4 56 -113.918
      vertex 37.4 58.25 -115.475
      vertex 37.4 58.25 -113.102
    endloop
  endfacet
  facet normal 1 0 0
    outer loop
      vertex 37.4 58.25 -115.475
      vertex 37.4 56 -113.918
      vertex 37.4 56 -114.66
    endloop
  endfacet
  facet normal 1 -0 0
    outer loop
      vertex 37.4 56 -110.776
      vertex 37.4 58.25 -112.334
      vertex 37.4 58.25 -109.961
    endloop
  endfacet
  facet normal 1 0 0
    outer loop
      vertex 37.4 58.25 -112.334
      vertex 37.4 56 -110.776
      vertex 37.4 56 -111.518
    endloop
  endfacet
  facet normal 1 -0 0
    outer loop
      vertex 37.4 56 -107.635
      vertex 37.4 58.25 -109.192
      vertex 37.4 58.25 -106.819
    endloop
  endfacet
  facet normal 1 0 0
    outer loop
      vertex 37.4 58.25 -109.192
      vertex 37.4 56 -107.635
      vertex 37.4 56 -108.377
    endloop
  endfacet
  facet normal 1 -0 0
    outer loop
      vertex 37.4 56 -104.493
      vertex 37.4 58.25 -106.05
      vertex 37.4 58.25 -103.678
    endloop
  endfacet
  facet normal 1 0 0
    outer loop
      vertex 37.4 58.25 -106.05
      vertex 37.4 56 -104.493
      vertex 37.4 56 -105.235
    endloop
  endfacet
  facet normal 1 -0 0
    outer loop
      vertex 37.4 56 -101.351
      vertex 37.4 58.25 -102.909
      vertex 37.4 58.25 -100.536
    endloop
  endfacet
  facet normal 1 0 0
    outer loop
      vertex 37.4 58.25 -102.909
      vertex 37.4 56 -101.351
      vertex 37.4 56 -102.093
    endloop
  endfacet
  facet normal 1 -0 0
    outer loop
      vertex 37.4 56 -98.2099
      vertex 37.4 58.25 -99.7673
      vertex 37.4 58.25 -97.3945
    endloop
  endfacet
  facet normal 1 0 0
    outer loop
      vertex 37.4 58.25 -99.7673
      vertex 37.4 56 -98.2099
      vertex 37.4 56 -98.9519
    endloop
  endfacet
  facet normal 1 -0 0
    outer loop
      vertex 37.4 56 -95.0683
      vertex 37.4 58.25 -96.6257
      vertex 37.4 58.25 -94.2529
    endloop
  endfacet
  facet normal 1 0 0
    outer loop
      vertex 37.4 58.25 -96.6257
      vertex 37.4 56 -95.0683
      vertex 37.4 56 -95.8103
    endloop
  endfacet
  facet normal 1 -0 0
    outer loop
      vertex 37.4 56 -91.9267
      vertex 37.4 58.25 -93.4841
      vertex 37.4 58.25 -91.1113
    endloop
  endfacet
  facet normal 1 0 0
    outer loop
      vertex 37.4 58.25 -93.4841
      vertex 37.4 56 -91.9267
      vertex 37.4 56 -92.6687
    endloop
  endfacet
  facet normal 1 -0 0
    outer loop
      vertex 37.4 56 -88.7851
      vertex 37.4 58.25 -90.3425
      vertex 37.4 58.25 -87.9697
    endloop
  endfacet
  facet normal 1 0 0
    outer loop
      vertex 37.4 58.25 -90.3425
      vertex 37.4 56 -88.7851
      vertex 37.4 56 -89.5271
    endloop
  endfacet
  facet normal 1 -0 0
    outer loop
      vertex 37.4 56 -85.6435
      vertex 37.4 58.25 -87.2009
      vertex 37.4 58.25 -84.8281
    endloop
  endfacet
  facet normal 1 0 0
    outer loop
      vertex 37.4 58.25 -87.2009
      vertex 37.4 56 -85.6435
      vertex 37.4 56 -86.3855
    endloop
  endfacet
  facet normal 1 -0 0
    outer loop
      vertex 37.4 56 -82.5019
      vertex 37.4 58.25 -84.0593
      vertex 37.4 58.25 -81.6866
    endloop
  endfacet
  facet normal 1 0 0
    outer loop
      vertex 37.4 58.25 -84.0593
      vertex 37.4 56 -82.5019
      vertex 37.4 56 -83.2439
    endloop
  endfacet
  facet normal 1 0 0
    outer loop
      vertex 37.4 61.5 -79
      vertex 37.4 60 -131
      vertex 37.4 61.5 -139
    endloop
  endfacet
  facet normal 1 0 0
    outer loop
      vertex 37.4 58.25 -81.6866
      vertex 37.4 61.5 -79
      vertex 37.4 58.25 -79
    endloop
  endfacet
  facet normal 1 0 0
    outer loop
      vertex 37.4 58.25 -84.0593
      vertex 37.4 61.5 -79
      vertex 37.4 58.25 -81.6866
    endloop
  endfacet
  facet normal 1 0 0
    outer loop
      vertex 37.4 58.25 -84.8281
      vertex 37.4 61.5 -79
      vertex 37.4 58.25 -84.0593
    endloop
  endfacet
  facet normal 1 0 0
    outer loop
      vertex 37.4 58.25 -87.2009
      vertex 37.4 61.5 -79
      vertex 37.4 58.25 -84.8281
    endloop
  endfacet
  facet normal 1 0 0
    outer loop
      vertex 37.4 58.25 -87.9697
      vertex 37.4 61.5 -79
      vertex 37.4 58.25 -87.2009
    endloop
  endfacet
  facet normal 1 0 0
    outer loop
      vertex 37.4 58.25 -90.3425
      vertex 37.4 61.5 -79
      vertex 37.4 58.25 -87.9697
    endloop
  endfacet
  facet normal 1 0 0
    outer loop
      vertex 37.4 58.25 -91.1113
      vertex 37.4 61.5 -79
      vertex 37.4 58.25 -90.3425
    endloop
  endfacet
  facet normal 1 0 0
    outer loop
      vertex 37.4 58.25 -93.4841
      vertex 37.4 61.5 -79
      vertex 37.4 58.25 -91.1113
    endloop
  endfacet
  facet normal 1 0 0
    outer loop
      vertex 37.4 58.25 -94.2529
      vertex 37.4 61.5 -79
      vertex 37.4 58.25 -93.4841
    endloop
  endfacet
  facet normal 1 0 0
    outer loop
      vertex 37.4 58.25 -96.6257
      vertex 37.4 61.5 -79
      vertex 37.4 58.25 -94.2529
    endloop
  endfacet
  facet normal 1 0 0
    outer loop
      vertex 37.4 58.25 -97.3945
      vertex 37.4 61.5 -79
      vertex 37.4 58.25 -96.6257
    endloop
  endfacet
  facet normal 1 0 0
    outer loop
      vertex 37.4 58.25 -99.7673
      vertex 37.4 61.5 -79
      vertex 37.4 58.25 -97.3945
    endloop
  endfacet
  facet normal 1 0 0
    outer loop
      vertex 37.4 58.25 -100.536
      vertex 37.4 61.5 -79
      vertex 37.4 58.25 -99.7673
    endloop
  endfacet
  facet normal 1 0 0
    outer loop
      vertex 37.4 58.25 -102.909
      vertex 37.4 61.5 -79
      vertex 37.4 58.25 -100.536
    endloop
  endfacet
  facet normal 1 0 0
    outer loop
      vertex 37.4 58.25 -103.678
      vertex 37.4 61.5 -79
      vertex 37.4 58.25 -102.909
    endloop
  endfacet
  facet normal 1 0 0
    outer loop
      vertex 37.4 58.25 -106.05
      vertex 37.4 61.5 -79
      vertex 37.4 58.25 -103.678
    endloop
  endfacet
  facet normal 1 0 0
    outer loop
      vertex 37.4 58.25 -106.819
      vertex 37.4 61.5 -79
      vertex 37.4 58.25 -106.05
    endloop
  endfacet
  facet normal 1 0 0
    outer loop
      vertex 37.4 61.5 -79
      vertex 37.4 58.25 -106.819
      vertex 37.4 60 -131
    endloop
  endfacet
  facet normal 1 -0 0
    outer loop
      vertex 37.4 58.25 -109.192
      vertex 37.4 60 -131
      vertex 37.4 58.25 -106.819
    endloop
  endfacet
  facet normal 1 -0 0
    outer loop
      vertex 37.4 58.25 -109.961
      vertex 37.4 60 -131
      vertex 37.4 58.25 -109.192
    endloop
  endfacet
  facet normal 1 -0 0
    outer loop
      vertex 37.4 58.25 -112.334
      vertex 37.4 60 -131
      vertex 37.4 58.25 -109.961
    endloop
  endfacet
  facet normal 1 -0 0
    outer loop
      vertex 37.4 58.25 -113.102
      vertex 37.4 60 -131
      vertex 37.4 58.25 -112.334
    endloop
  endfacet
  facet normal 1 -0 0
    outer loop
      vertex 37.4 58.25 -115.475
      vertex 37.4 60 -131
      vertex 37.4 58.25 -113.102
    endloop
  endfacet
  facet normal 1 -0 0
    outer loop
      vertex 37.4 58.25 -116.244
      vertex 37.4 60 -131
      vertex 37.4 58.25 -115.475
    endloop
  endfacet
  facet normal 1 -0 0
    outer loop
      vertex 37.4 58.25 -118.617
      vertex 37.4 60 -131
      vertex 37.4 58.25 -116.244
    endloop
  endfacet
  facet normal 1 -0 0
    outer loop
      vertex 37.4 58.25 -119.386
      vertex 37.4 60 -131
      vertex 37.4 58.25 -118.617
    endloop
  endfacet
  facet normal 1 -0 0
    outer loop
      vertex 37.4 58.25 -121.758
      vertex 37.4 60 -131
      vertex 37.4 58.25 -119.386
    endloop
  endfacet
  facet normal 1 -0 0
    outer loop
      vertex 37.4 58.25 -122.527
      vertex 37.4 60 -131
      vertex 37.4 58.25 -121.758
    endloop
  endfacet
  facet normal 1 -0 0
    outer loop
      vertex 37.4 58.25 -124.9
      vertex 37.4 60 -131
      vertex 37.4 58.25 -122.527
    endloop
  endfacet
  facet normal 1 -0 0
    outer loop
      vertex 37.4 58.25 -125.669
      vertex 37.4 60 -131
      vertex 37.4 58.25 -124.9
    endloop
  endfacet
  facet normal 1 -0 0
    outer loop
      vertex 37.4 58.25 -128.042
      vertex 37.4 60 -131
      vertex 37.4 58.25 -125.669
    endloop
  endfacet
  facet normal 1 -0 0
    outer loop
      vertex 37.4 58.25 -128.81
      vertex 37.4 60 -131
      vertex 37.4 58.25 -128.042
    endloop
  endfacet
  facet normal 1 0 0
    outer loop
      vertex 37.4 58.25 -128.81
      vertex 37.4 57.7444 -131
      vertex 37.4 60 -131
    endloop
  endfacet
  facet normal 1 -0 0
    outer loop
      vertex 37.4 56 -129.626
      vertex 37.4 57.7444 -131
      vertex 37.4 58.25 -128.81
    endloop
  endfacet
  facet normal 1 0 0
    outer loop
      vertex 37.4 57.7444 -131
      vertex 37.4 56 -129.626
      vertex 37.4 56 -130.368
    endloop
  endfacet
  facet normal 1 0 0
    outer loop
      vertex 37.4 61.5 -139
      vertex 37.4 60 -131
      vertex 37.4 60 -139
    endloop
  endfacet
  facet normal -0 0 1
    outer loop
      vertex 33.8 61.5 -79
      vertex 37.4 58.25 -79
      vertex 37.4 61.5 -79
    endloop
  endfacet
  facet normal 0 0 1
    outer loop
      vertex 37.4 58.25 -79
      vertex 33.8 61.5 -79
      vertex 33.8 58.25 -79
    endloop
  endfacet
  facet normal 0 0 -1
    outer loop
      vertex 37.6 42.5 -139
      vertex 39.6 42 -139
      vertex 37.6 42 -139
    endloop
  endfacet
  facet normal 0 0 -1
    outer loop
      vertex 39.6 42 -139
      vertex 37.6 42.5 -139
      vertex 39.6 60 -139
    endloop
  endfacet
  facet normal 0 0 -1
    outer loop
      vertex 37.6 42.5 -139
      vertex 37.4 60 -139
      vertex 39.6 60 -139
    endloop
  endfacet
  facet normal 0 0 -1
    outer loop
      vertex 33.8 42.5 -139
      vertex 37.4 60 -139
      vertex 37.6 42.5 -139
    endloop
  endfacet
  facet normal 0 0 -1
    outer loop
      vertex 33.8 61.5 -139
      vertex 37.4 60 -139
      vertex 33.8 42.5 -139
    endloop
  endfacet
  facet normal 0 0 -1
    outer loop
      vertex 37.4 60 -139
      vertex 33.8 61.5 -139
      vertex 37.4 61.5 -139
    endloop
  endfacet
  facet normal -1 0 0
    outer loop
      vertex 33.8 56 -83.2439
      vertex 33.8 58.25 -81.6866
      vertex 33.8 58.25 -84.0593
    endloop
  endfacet
  facet normal -1 0 0
    outer loop
      vertex 33.8 58.25 -81.6866
      vertex 33.8 56 -83.2439
      vertex 33.8 56 -82.5019
    endloop
  endfacet
  facet normal -1 0 0
    outer loop
      vertex 33.8 56 -86.3855
      vertex 33.8 58.25 -84.8281
      vertex 33.8 58.25 -87.2009
    endloop
  endfacet
  facet normal -1 0 0
    outer loop
      vertex 33.8 58.25 -84.8281
      vertex 33.8 56 -86.3855
      vertex 33.8 56 -85.6435
    endloop
  endfacet
  facet normal -1 0 0
    outer loop
      vertex 33.8 56 -89.5271
      vertex 33.8 58.25 -87.9697
      vertex 33.8 58.25 -90.3425
    endloop
  endfacet
  facet normal -1 0 0
    outer loop
      vertex 33.8 58.25 -87.9697
      vertex 33.8 56 -89.5271
      vertex 33.8 56 -88.7851
    endloop
  endfacet
  facet normal -1 0 0
    outer loop
      vertex 33.8 56 -92.6687
      vertex 33.8 58.25 -91.1113
      vertex 33.8 58.25 -93.4841
    endloop
  endfacet
  facet normal -1 0 0
    outer loop
      vertex 33.8 58.25 -91.1113
      vertex 33.8 56 -92.6687
      vertex 33.8 56 -91.9267
    endloop
  endfacet
  facet normal -1 0 0
    outer loop
      vertex 33.8 56 -95.8103
      vertex 33.8 58.25 -94.2529
      vertex 33.8 58.25 -96.6257
    endloop
  endfacet
  facet normal -1 0 0
    outer loop
      vertex 33.8 58.25 -94.2529
      vertex 33.8 56 -95.8103
      vertex 33.8 56 -95.0683
    endloop
  endfacet
  facet normal -1 0 0
    outer loop
      vertex 33.8 56 -98.9519
      vertex 33.8 58.25 -97.3945
      vertex 33.8 58.25 -99.7673
    endloop
  endfacet
  facet normal -1 0 0
    outer loop
      vertex 33.8 58.25 -97.3945
      vertex 33.8 56 -98.9519
      vertex 33.8 56 -98.2099
    endloop
  endfacet
  facet normal -1 0 0
    outer loop
      vertex 33.8 56 -102.093
      vertex 33.8 58.25 -100.536
      vertex 33.8 58.25 -102.909
    endloop
  endfacet
  facet normal -1 0 0
    outer loop
      vertex 33.8 58.25 -100.536
      vertex 33.8 56 -102.093
      vertex 33.8 56 -101.351
    endloop
  endfacet
  facet normal -1 0 0
    outer loop
      vertex 33.8 56 -105.235
      vertex 33.8 58.25 -103.678
      vertex 33.8 58.25 -106.05
    endloop
  endfacet
  facet normal -1 0 0
    outer loop
      vertex 33.8 58.25 -103.678
      vertex 33.8 56 -105.235
      vertex 33.8 56 -104.493
    endloop
  endfacet
  facet normal -1 0 0
    outer loop
      vertex 33.8 56 -108.377
      vertex 33.8 58.25 -106.819
      vertex 33.8 58.25 -109.192
    endloop
  endfacet
  facet normal -1 0 0
    outer loop
      vertex 33.8 58.25 -106.819
      vertex 33.8 56 -108.377
      vertex 33.8 56 -107.635
    endloop
  endfacet
  facet normal -1 0 0
    outer loop
      vertex 33.8 56 -111.518
      vertex 33.8 58.25 -109.961
      vertex 33.8 58.25 -112.334
    endloop
  endfacet
  facet normal -1 0 0
    outer loop
      vertex 33.8 58.25 -109.961
      vertex 33.8 56 -111.518
      vertex 33.8 56 -110.776
    endloop
  endfacet
  facet normal -1 0 0
    outer loop
      vertex 33.8 56 -114.66
      vertex 33.8 58.25 -113.102
      vertex 33.8 58.25 -115.475
    endloop
  endfacet
  facet normal -1 0 0
    outer loop
      vertex 33.8 58.25 -113.102
      vertex 33.8 56 -114.66
      vertex 33.8 56 -113.918
    endloop
  endfacet
  facet normal -1 0 0
    outer loop
      vertex 33.8 56 -117.801
      vertex 33.8 58.25 -116.244
      vertex 33.8 58.25 -118.617
    endloop
  endfacet
  facet normal -1 0 0
    outer loop
      vertex 33.8 58.25 -116.244
      vertex 33.8 56 -117.801
      vertex 33.8 56 -117.059
    endloop
  endfacet
  facet normal -1 0 0
    outer loop
      vertex 33.8 56 -120.943
      vertex 33.8 58.25 -119.386
      vertex 33.8 58.25 -121.758
    endloop
  endfacet
  facet normal -1 0 0
    outer loop
      vertex 33.8 58.25 -119.386
      vertex 33.8 56 -120.943
      vertex 33.8 56 -120.201
    endloop
  endfacet
  facet normal -1 0 0
    outer loop
      vertex 33.8 56 -124.085
      vertex 33.8 58.25 -122.527
      vertex 33.8 58.25 -124.9
    endloop
  endfacet
  facet normal -1 0 0
    outer loop
      vertex 33.8 58.25 -122.527
      vertex 33.8 56 -124.085
      vertex 33.8 56 -123.343
    endloop
  endfacet
  facet normal -1 0 0
    outer loop
      vertex 33.8 56 -127.226
      vertex 33.8 58.25 -125.669
      vertex 33.8 58.25 -128.042
    endloop
  endfacet
  facet normal -1 0 0
    outer loop
      vertex 33.8 58.25 -125.669
      vertex 33.8 56 -127.226
      vertex 33.8 56 -126.484
    endloop
  endfacet
  facet normal -1 0 0
    outer loop
      vertex 33.8 58.25 -128.042
      vertex 33.8 61.5 -139
      vertex 33.8 58.25 -128.81
    endloop
  endfacet
  facet normal -1 0 0
    outer loop
      vertex 33.8 61.5 -139
      vertex 33.8 57.7444 -131
      vertex 33.8 58.25 -128.81
    endloop
  endfacet
  facet normal -1 0 0
    outer loop
      vertex 33.8 42.5 -139
      vertex 33.8 57.7444 -131
      vertex 33.8 61.5 -139
    endloop
  endfacet
  facet normal -1 -0 0
    outer loop
      vertex 33.8 57.7444 -131
      vertex 33.8 42.5 -139
      vertex 33.8 42.5 -131
    endloop
  endfacet
  facet normal -1 0 0
    outer loop
      vertex 33.8 58.25 -125.669
      vertex 33.8 61.5 -139
      vertex 33.8 58.25 -128.042
    endloop
  endfacet
  facet normal -1 0 0
    outer loop
      vertex 33.8 58.25 -124.9
      vertex 33.8 61.5 -139
      vertex 33.8 58.25 -125.669
    endloop
  endfacet
  facet normal -1 0 0
    outer loop
      vertex 33.8 58.25 -122.527
      vertex 33.8 61.5 -139
      vertex 33.8 58.25 -124.9
    endloop
  endfacet
  facet normal -1 0 0
    outer loop
      vertex 33.8 58.25 -121.758
      vertex 33.8 61.5 -139
      vertex 33.8 58.25 -122.527
    endloop
  endfacet
  facet normal -1 0 0
    outer loop
      vertex 33.8 58.25 -119.386
      vertex 33.8 61.5 -139
      vertex 33.8 58.25 -121.758
    endloop
  endfacet
  facet normal -1 0 0
    outer loop
      vertex 33.8 58.25 -118.617
      vertex 33.8 61.5 -139
      vertex 33.8 58.25 -119.386
    endloop
  endfacet
  facet normal -1 0 0
    outer loop
      vertex 33.8 58.25 -116.244
      vertex 33.8 61.5 -139
      vertex 33.8 58.25 -118.617
    endloop
  endfacet
  facet normal -1 0 0
    outer loop
      vertex 33.8 58.25 -115.475
      vertex 33.8 61.5 -139
      vertex 33.8 58.25 -116.244
    endloop
  endfacet
  facet normal -1 0 0
    outer loop
      vertex 33.8 58.25 -113.102
      vertex 33.8 61.5 -139
      vertex 33.8 58.25 -115.475
    endloop
  endfacet
  facet normal -1 0 0
    outer loop
      vertex 33.8 58.25 -112.334
      vertex 33.8 61.5 -139
      vertex 33.8 58.25 -113.102
    endloop
  endfacet
  facet normal -1 0 0
    outer loop
      vertex 33.8 58.25 -109.961
      vertex 33.8 61.5 -139
      vertex 33.8 58.25 -112.334
    endloop
  endfacet
  facet normal -1 0 0
    outer loop
      vertex 33.8 61.5 -139
      vertex 33.8 58.25 -109.961
      vertex 33.8 61.5 -79
    endloop
  endfacet
  facet normal -1 0 0
    outer loop
      vertex 33.8 58.25 -109.192
      vertex 33.8 61.5 -79
      vertex 33.8 58.25 -109.961
    endloop
  endfacet
  facet normal -1 0 0
    outer loop
      vertex 33.8 58.25 -106.819
      vertex 33.8 61.5 -79
      vertex 33.8 58.25 -109.192
    endloop
  endfacet
  facet normal -1 0 0
    outer loop
      vertex 33.8 58.25 -106.05
      vertex 33.8 61.5 -79
      vertex 33.8 58.25 -106.819
    endloop
  endfacet
  facet normal -1 0 0
    outer loop
      vertex 33.8 58.25 -103.678
      vertex 33.8 61.5 -79
      vertex 33.8 58.25 -106.05
    endloop
  endfacet
  facet normal -1 0 0
    outer loop
      vertex 33.8 58.25 -102.909
      vertex 33.8 61.5 -79
      vertex 33.8 58.25 -103.678
    endloop
  endfacet
  facet normal -1 0 0
    outer loop
      vertex 33.8 58.25 -100.536
      vertex 33.8 61.5 -79
      vertex 33.8 58.25 -102.909
    endloop
  endfacet
  facet normal -1 0 0
    outer loop
      vertex 33.8 58.25 -99.7673
      vertex 33.8 61.5 -79
      vertex 33.8 58.25 -100.536
    endloop
  endfacet
  facet normal -1 0 0
    outer loop
      vertex 33.8 58.25 -97.3945
      vertex 33.8 61.5 -79
      vertex 33.8 58.25 -99.7673
    endloop
  endfacet
  facet normal -1 0 0
    outer loop
      vertex 33.8 58.25 -96.6257
      vertex 33.8 61.5 -79
      vertex 33.8 58.25 -97.3945
    endloop
  endfacet
  facet normal -1 0 0
    outer loop
      vertex 33.8 58.25 -94.2529
      vertex 33.8 61.5 -79
      vertex 33.8 58.25 -96.6257
    endloop
  endfacet
  facet normal -1 0 0
    outer loop
      vertex 33.8 58.25 -93.4841
      vertex 33.8 61.5 -79
      vertex 33.8 58.25 -94.2529
    endloop
  endfacet
  facet normal -1 0 0
    outer loop
      vertex 33.8 58.25 -91.1113
      vertex 33.8 61.5 -79
      vertex 33.8 58.25 -93.4841
    endloop
  endfacet
  facet normal -1 0 0
    outer loop
      vertex 33.8 58.25 -90.3425
      vertex 33.8 61.5 -79
      vertex 33.8 58.25 -91.1113
    endloop
  endfacet
  facet normal -1 0 0
    outer loop
      vertex 33.8 58.25 -87.9697
      vertex 33.8 61.5 -79
      vertex 33.8 58.25 -90.3425
    endloop
  endfacet
  facet normal -1 0 0
    outer loop
      vertex 33.8 58.25 -87.2009
      vertex 33.8 61.5 -79
      vertex 33.8 58.25 -87.9697
    endloop
  endfacet
  facet normal -1 0 0
    outer loop
      vertex 33.8 58.25 -84.8281
      vertex 33.8 61.5 -79
      vertex 33.8 58.25 -87.2009
    endloop
  endfacet
  facet normal -1 0 0
    outer loop
      vertex 33.8 58.25 -84.0593
      vertex 33.8 61.5 -79
      vertex 33.8 58.25 -84.8281
    endloop
  endfacet
  facet normal -1 0 0
    outer loop
      vertex 33.8 58.25 -81.6866
      vertex 33.8 61.5 -79
      vertex 33.8 58.25 -84.0593
    endloop
  endfacet
  facet normal -1 -0 0
    outer loop
      vertex 33.8 61.5 -79
      vertex 33.8 58.25 -81.6866
      vertex 33.8 58.25 -79
    endloop
  endfacet
  facet normal -1 0 0
    outer loop
      vertex 33.8 56 -129.626
      vertex 33.8 57.7444 -131
      vertex 33.8 56 -130.368
    endloop
  endfacet
  facet normal -1 0 0
    outer loop
      vertex 33.8 57.7444 -131
      vertex 33.8 56 -129.626
      vertex 33.8 58.25 -128.81
    endloop
  endfacet
  facet normal 0 1 -0
    outer loop
      vertex 37.4 61.5 -139
      vertex 33.8 61.5 -79
      vertex 37.4 61.5 -79
    endloop
  endfacet
  facet normal 0 1 0
    outer loop
      vertex 33.8 61.5 -79
      vertex 37.4 61.5 -139
      vertex 33.8 61.5 -139
    endloop
  endfacet
  facet normal 0 -1 0
    outer loop
      vertex 33.8 58.25 -81.6866
      vertex 37.4 58.25 -79
      vertex 33.8 58.25 -79
    endloop
  endfacet
  facet normal 0 -1 -0
    outer loop
      vertex 37.4 58.25 -79
      vertex 33.8 58.25 -81.6866
      vertex 37.4 58.25 -81.6866
    endloop
  endfacet
  facet normal 0 -1 0
    outer loop
      vertex 33.8 58.25 -113.102
      vertex 37.4 58.25 -112.334
      vertex 33.8 58.25 -112.334
    endloop
  endfacet
  facet normal 0 -1 -0
    outer loop
      vertex 37.4 58.25 -112.334
      vertex 33.8 58.25 -113.102
      vertex 37.4 58.25 -113.102
    endloop
  endfacet
  facet normal 0 -1 0
    outer loop
      vertex 33.8 58.25 -116.244
      vertex 37.4 58.25 -115.475
      vertex 33.8 58.25 -115.475
    endloop
  endfacet
  facet normal 0 -1 -0
    outer loop
      vertex 37.4 58.25 -115.475
      vertex 33.8 58.25 -116.244
      vertex 37.4 58.25 -116.244
    endloop
  endfacet
  facet normal 0 -1 0
    outer loop
      vertex 33.8 58.25 -119.386
      vertex 37.4 58.25 -118.617
      vertex 33.8 58.25 -118.617
    endloop
  endfacet
  facet normal 0 -1 -0
    outer loop
      vertex 37.4 58.25 -118.617
      vertex 33.8 58.25 -119.386
      vertex 37.4 58.25 -119.386
    endloop
  endfacet
  facet normal 0 -1 0
    outer loop
      vertex 33.8 58.25 -122.527
      vertex 37.4 58.25 -121.758
      vertex 33.8 58.25 -121.758
    endloop
  endfacet
  facet normal 0 -1 -0
    outer loop
      vertex 37.4 58.25 -121.758
      vertex 33.8 58.25 -122.527
      vertex 37.4 58.25 -122.527
    endloop
  endfacet
  facet normal 0 -1 0
    outer loop
      vertex 33.8 58.25 -125.669
      vertex 37.4 58.25 -124.9
      vertex 33.8 58.25 -124.9
    endloop
  endfacet
  facet normal 0 -1 -0
    outer loop
      vertex 37.4 58.25 -124.9
      vertex 33.8 58.25 -125.669
      vertex 37.4 58.25 -125.669
    endloop
  endfacet
  facet normal 0 -1 0
    outer loop
      vertex 33.8 58.25 -128.81
      vertex 37.4 58.25 -128.042
      vertex 33.8 58.25 -128.042
    endloop
  endfacet
  facet normal 0 -1 -0
    outer loop
      vertex 37.4 58.25 -128.042
      vertex 33.8 58.25 -128.81
      vertex 37.4 58.25 -128.81
    endloop
  endfacet
  facet normal 0 -1 0
    outer loop
      vertex 33.8 58.25 -84.8281
      vertex 37.4 58.25 -84.0593
      vertex 33.8 58.25 -84.0593
    endloop
  endfacet
  facet normal 0 -1 -0
    outer loop
      vertex 37.4 58.25 -84.0593
      vertex 33.8 58.25 -84.8281
      vertex 37.4 58.25 -84.8281
    endloop
  endfacet
  facet normal 0 -1 0
    outer loop
      vertex 33.8 58.25 -87.9697
      vertex 37.4 58.25 -87.2009
      vertex 33.8 58.25 -87.2009
    endloop
  endfacet
  facet normal 0 -1 -0
    outer loop
      vertex 37.4 58.25 -87.2009
      vertex 33.8 58.25 -87.9697
      vertex 37.4 58.25 -87.9697
    endloop
  endfacet
  facet normal 0 -1 0
    outer loop
      vertex 33.8 58.25 -91.1113
      vertex 37.4 58.25 -90.3425
      vertex 33.8 58.25 -90.3425
    endloop
  endfacet
  facet normal 0 -1 -0
    outer loop
      vertex 37.4 58.25 -90.3425
      vertex 33.8 58.25 -91.1113
      vertex 37.4 58.25 -91.1113
    endloop
  endfacet
  facet normal 0 -1 0
    outer loop
      vertex 33.8 58.25 -94.2529
      vertex 37.4 58.25 -93.4841
      vertex 33.8 58.25 -93.4841
    endloop
  endfacet
  facet normal 0 -1 -0
    outer loop
      vertex 37.4 58.25 -93.4841
      vertex 33.8 58.25 -94.2529
      vertex 37.4 58.25 -94.2529
    endloop
  endfacet
  facet normal 0 -1 0
    outer loop
      vertex 33.8 58.25 -97.3945
      vertex 37.4 58.25 -96.6257
      vertex 33.8 58.25 -96.6257
    endloop
  endfacet
  facet normal 0 -1 -0
    outer loop
      vertex 37.4 58.25 -96.6257
      vertex 33.8 58.25 -97.3945
      vertex 37.4 58.25 -97.3945
    endloop
  endfacet
  facet normal 0 -1 0
    outer loop
      vertex 33.8 58.25 -100.536
      vertex 37.4 58.25 -99.7673
      vertex 33.8 58.25 -99.7673
    endloop
  endfacet
  facet normal 0 -1 -0
    outer loop
      vertex 37.4 58.25 -99.7673
      vertex 33.8 58.25 -100.536
      vertex 37.4 58.25 -100.536
    endloop
  endfacet
  facet normal 0 -1 0
    outer loop
      vertex 33.8 58.25 -103.678
      vertex 37.4 58.25 -102.909
      vertex 33.8 58.25 -102.909
    endloop
  endfacet
  facet normal 0 -1 -0
    outer loop
      vertex 37.4 58.25 -102.909
      vertex 33.8 58.25 -103.678
      vertex 37.4 58.25 -103.678
    endloop
  endfacet
  facet normal 0 -1 0
    outer loop
      vertex 33.8 58.25 -106.819
      vertex 37.4 58.25 -106.05
      vertex 33.8 58.25 -106.05
    endloop
  endfacet
  facet normal 0 -1 -0
    outer loop
      vertex 37.4 58.25 -106.05
      vertex 33.8 58.25 -106.819
      vertex 37.4 58.25 -106.819
    endloop
  endfacet
  facet normal 0 -1 0
    outer loop
      vertex 33.8 58.25 -109.961
      vertex 37.4 58.25 -109.192
      vertex 33.8 58.25 -109.192
    endloop
  endfacet
  facet normal 0 -1 -0
    outer loop
      vertex 37.4 58.25 -109.192
      vertex 33.8 58.25 -109.961
      vertex 37.4 58.25 -109.961
    endloop
  endfacet
  facet normal 0 -0.340679 0.94018
    outer loop
      vertex 33.8 58.25 -81.6866
      vertex 37.4 56 -82.5019
      vertex 37.4 58.25 -81.6866
    endloop
  endfacet
  facet normal 0 -0.340679 0.94018
    outer loop
      vertex 37.4 56 -82.5019
      vertex 33.8 58.25 -81.6866
      vertex 33.8 56 -82.5019
    endloop
  endfacet
  facet normal 0 -1 0
    outer loop
      vertex 33.8 56 -83.2439
      vertex 37.4 56 -82.5019
      vertex 33.8 56 -82.5019
    endloop
  endfacet
  facet normal 0 -1 -0
    outer loop
      vertex 37.4 56 -82.5019
      vertex 33.8 56 -83.2439
      vertex 37.4 56 -83.2439
    endloop
  endfacet
  facet normal 0 -0.340716 -0.940166
    outer loop
      vertex 33.8 56 -83.2439
      vertex 37.4 58.25 -84.0593
      vertex 37.4 56 -83.2439
    endloop
  endfacet
  facet normal -0 -0.340716 -0.940166
    outer loop
      vertex 37.4 58.25 -84.0593
      vertex 33.8 56 -83.2439
      vertex 33.8 58.25 -84.0593
    endloop
  endfacet
  facet normal 0 -0.340716 0.940166
    outer loop
      vertex 33.8 58.25 -84.8281
      vertex 37.4 56 -85.6435
      vertex 37.4 58.25 -84.8281
    endloop
  endfacet
  facet normal 0 -0.340716 0.940166
    outer loop
      vertex 37.4 56 -85.6435
      vertex 33.8 58.25 -84.8281
      vertex 33.8 56 -85.6435
    endloop
  endfacet
  facet normal 0 -1 0
    outer loop
      vertex 33.8 56 -86.3855
      vertex 37.4 56 -85.6435
      vertex 33.8 56 -85.6435
    endloop
  endfacet
  facet normal 0 -1 -0
    outer loop
      vertex 37.4 56 -85.6435
      vertex 33.8 56 -86.3855
      vertex 37.4 56 -86.3855
    endloop
  endfacet
  facet normal 0 -0.340716 -0.940166
    outer loop
      vertex 33.8 56 -86.3855
      vertex 37.4 58.25 -87.2009
      vertex 37.4 56 -86.3855
    endloop
  endfacet
  facet normal -0 -0.340716 -0.940166
    outer loop
      vertex 37.4 58.25 -87.2009
      vertex 33.8 56 -86.3855
      vertex 33.8 58.25 -87.2009
    endloop
  endfacet
  facet normal 0 -0.340716 0.940166
    outer loop
      vertex 33.8 58.25 -87.9697
      vertex 37.4 56 -88.7851
      vertex 37.4 58.25 -87.9697
    endloop
  endfacet
  facet normal 0 -0.340716 0.940166
    outer loop
      vertex 37.4 56 -88.7851
      vertex 33.8 58.25 -87.9697
      vertex 33.8 56 -88.7851
    endloop
  endfacet
  facet normal 0 -1 0
    outer loop
      vertex 33.8 56 -89.5271
      vertex 37.4 56 -88.7851
      vertex 33.8 56 -88.7851
    endloop
  endfacet
  facet normal 0 -1 -0
    outer loop
      vertex 37.4 56 -88.7851
      vertex 33.8 56 -89.5271
      vertex 37.4 56 -89.5271
    endloop
  endfacet
  facet normal 0 -0.340716 -0.940166
    outer loop
      vertex 33.8 56 -89.5271
      vertex 37.4 58.25 -90.3425
      vertex 37.4 56 -89.5271
    endloop
  endfacet
  facet normal -0 -0.340716 -0.940166
    outer loop
      vertex 37.4 58.25 -90.3425
      vertex 33.8 56 -89.5271
      vertex 33.8 58.25 -90.3425
    endloop
  endfacet
  facet normal 0 -0.340716 0.940166
    outer loop
      vertex 33.8 58.25 -91.1113
      vertex 37.4 56 -91.9267
      vertex 37.4 58.25 -91.1113
    endloop
  endfacet
  facet normal 0 -0.340716 0.940166
    outer loop
      vertex 37.4 56 -91.9267
      vertex 33.8 58.25 -91.1113
      vertex 33.8 56 -91.9267
    endloop
  endfacet
  facet normal 0 -1 0
    outer loop
      vertex 33.8 56 -92.6687
      vertex 37.4 56 -91.9267
      vertex 33.8 56 -91.9267
    endloop
  endfacet
  facet normal 0 -1 -0
    outer loop
      vertex 37.4 56 -91.9267
      vertex 33.8 56 -92.6687
      vertex 37.4 56 -92.6687
    endloop
  endfacet
  facet normal 0 -0.340716 -0.940166
    outer loop
      vertex 33.8 56 -92.6687
      vertex 37.4 58.25 -93.4841
      vertex 37.4 56 -92.6687
    endloop
  endfacet
  facet normal -0 -0.340716 -0.940166
    outer loop
      vertex 37.4 58.25 -93.4841
      vertex 33.8 56 -92.6687
      vertex 33.8 58.25 -93.4841
    endloop
  endfacet
  facet normal 0 -0.340716 0.940166
    outer loop
      vertex 33.8 58.25 -94.2529
      vertex 37.4 56 -95.0683
      vertex 37.4 58.25 -94.2529
    endloop
  endfacet
  facet normal 0 -0.340716 0.940166
    outer loop
      vertex 37.4 56 -95.0683
      vertex 33.8 58.25 -94.2529
      vertex 33.8 56 -95.0683
    endloop
  endfacet
  facet normal 0 -1 0
    outer loop
      vertex 33.8 56 -95.8103
      vertex 37.4 56 -95.0683
      vertex 33.8 56 -95.0683
    endloop
  endfacet
  facet normal 0 -1 -0
    outer loop
      vertex 37.4 56 -95.0683
      vertex 33.8 56 -95.8103
      vertex 37.4 56 -95.8103
    endloop
  endfacet
  facet normal 0 -0.340716 -0.940166
    outer loop
      vertex 33.8 56 -95.8103
      vertex 37.4 58.25 -96.6257
      vertex 37.4 56 -95.8103
    endloop
  endfacet
  facet normal -0 -0.340716 -0.940166
    outer loop
      vertex 37.4 58.25 -96.6257
      vertex 33.8 56 -95.8103
      vertex 33.8 58.25 -96.6257
    endloop
  endfacet
  facet normal 0 -0.340716 0.940166
    outer loop
      vertex 33.8 58.25 -97.3945
      vertex 37.4 56 -98.2099
      vertex 37.4 58.25 -97.3945
    endloop
  endfacet
  facet normal 0 -0.340716 0.940166
    outer loop
      vertex 37.4 56 -98.2099
      vertex 33.8 58.25 -97.3945
      vertex 33.8 56 -98.2099
    endloop
  endfacet
  facet normal 0 -1 0
    outer loop
      vertex 33.8 56 -98.9519
      vertex 37.4 56 -98.2099
      vertex 33.8 56 -98.2099
    endloop
  endfacet
  facet normal 0 -1 -0
    outer loop
      vertex 37.4 56 -98.2099
      vertex 33.8 56 -98.9519
      vertex 37.4 56 -98.9519
    endloop
  endfacet
  facet normal 0 -0.340716 -0.940166
    outer loop
      vertex 33.8 56 -98.9519
      vertex 37.4 58.25 -99.7673
      vertex 37.4 56 -98.9519
    endloop
  endfacet
  facet normal -0 -0.340716 -0.940166
    outer loop
      vertex 37.4 58.25 -99.7673
      vertex 33.8 56 -98.9519
      vertex 33.8 58.25 -99.7673
    endloop
  endfacet
  facet normal 0 -0.340568 0.94022
    outer loop
      vertex 33.8 58.25 -100.536
      vertex 37.4 56 -101.351
      vertex 37.4 58.25 -100.536
    endloop
  endfacet
  facet normal 0 -0.340568 0.94022
    outer loop
      vertex 37.4 56 -101.351
      vertex 33.8 58.25 -100.536
      vertex 33.8 56 -101.351
    endloop
  endfacet
  facet normal 0 -1 0
    outer loop
      vertex 33.8 56 -102.093
      vertex 37.4 56 -101.351
      vertex 33.8 56 -101.351
    endloop
  endfacet
  facet normal 0 -1 -0
    outer loop
      vertex 37.4 56 -101.351
      vertex 33.8 56 -102.093
      vertex 37.4 56 -102.093
    endloop
  endfacet
  facet normal 0 -0.340938 -0.940086
    outer loop
      vertex 33.8 56 -102.093
      vertex 37.4 58.25 -102.909
      vertex 37.4 56 -102.093
    endloop
  endfacet
  facet normal -0 -0.340938 -0.940086
    outer loop
      vertex 37.4 58.25 -102.909
      vertex 33.8 56 -102.093
      vertex 33.8 58.25 -102.909
    endloop
  endfacet
  facet normal 0 -0.340568 0.94022
    outer loop
      vertex 33.8 58.25 -103.678
      vertex 37.4 56 -104.493
      vertex 37.4 58.25 -103.678
    endloop
  endfacet
  facet normal 0 -0.340568 0.94022
    outer loop
      vertex 37.4 56 -104.493
      vertex 33.8 58.25 -103.678
      vertex 33.8 56 -104.493
    endloop
  endfacet
  facet normal 0 -1 0
    outer loop
      vertex 33.8 56 -105.235
      vertex 37.4 56 -104.493
      vertex 33.8 56 -104.493
    endloop
  endfacet
  facet normal 0 -1 -0
    outer loop
      vertex 37.4 56 -104.493
      vertex 33.8 56 -105.235
      vertex 37.4 56 -105.235
    endloop
  endfacet
  facet normal 0 -0.340568 -0.94022
    outer loop
      vertex 33.8 56 -105.235
      vertex 37.4 58.25 -106.05
      vertex 37.4 56 -105.235
    endloop
  endfacet
  facet normal -0 -0.340568 -0.94022
    outer loop
      vertex 37.4 58.25 -106.05
      vertex 33.8 56 -105.235
      vertex 33.8 58.25 -106.05
    endloop
  endfacet
  facet normal 0 -0.340938 0.940086
    outer loop
      vertex 33.8 58.25 -106.819
      vertex 37.4 56 -107.635
      vertex 37.4 58.25 -106.819
    endloop
  endfacet
  facet normal 0 -0.340938 0.940086
    outer loop
      vertex 37.4 56 -107.635
      vertex 33.8 58.25 -106.819
      vertex 33.8 56 -107.635
    endloop
  endfacet
  facet normal 0 -1 0
    outer loop
      vertex 33.8 56 -108.377
      vertex 37.4 56 -107.635
      vertex 33.8 56 -107.635
    endloop
  endfacet
  facet normal 0 -1 -0
    outer loop
      vertex 37.4 56 -107.635
      vertex 33.8 56 -108.377
      vertex 37.4 56 -108.377
    endloop
  endfacet
  facet normal 0 -0.340568 -0.94022
    outer loop
      vertex 33.8 56 -108.377
      vertex 37.4 58.25 -109.192
      vertex 37.4 56 -108.377
    endloop
  endfacet
  facet normal -0 -0.340568 -0.94022
    outer loop
      vertex 37.4 58.25 -109.192
      vertex 33.8 56 -108.377
      vertex 33.8 58.25 -109.192
    endloop
  endfacet
  facet normal 0 -0.340568 0.94022
    outer loop
      vertex 33.8 58.25 -109.961
      vertex 37.4 56 -110.776
      vertex 37.4 58.25 -109.961
    endloop
  endfacet
  facet normal 0 -0.340568 0.94022
    outer loop
      vertex 37.4 56 -110.776
      vertex 33.8 58.25 -109.961
      vertex 33.8 56 -110.776
    endloop
  endfacet
  facet normal 0 -1 0
    outer loop
      vertex 33.8 56 -111.518
      vertex 37.4 56 -110.776
      vertex 33.8 56 -110.776
    endloop
  endfacet
  facet normal 0 -1 -0
    outer loop
      vertex 37.4 56 -110.776
      vertex 33.8 56 -111.518
      vertex 37.4 56 -111.518
    endloop
  endfacet
  facet normal 0 -0.340938 -0.940086
    outer loop
      vertex 33.8 56 -111.518
      vertex 37.4 58.25 -112.334
      vertex 37.4 56 -111.518
    endloop
  endfacet
  facet normal -0 -0.340938 -0.940086
    outer loop
      vertex 37.4 58.25 -112.334
      vertex 33.8 56 -111.518
      vertex 33.8 58.25 -112.334
    endloop
  endfacet
  facet normal 0 -0.340938 0.940086
    outer loop
      vertex 33.8 58.25 -113.102
      vertex 37.4 56 -113.918
      vertex 37.4 58.25 -113.102
    endloop
  endfacet
  facet normal 0 -0.340938 0.940086
    outer loop
      vertex 37.4 56 -113.918
      vertex 33.8 58.25 -113.102
      vertex 33.8 56 -113.918
    endloop
  endfacet
  facet normal 0 -1 0
    outer loop
      vertex 33.8 56 -114.66
      vertex 37.4 56 -113.918
      vertex 33.8 56 -113.918
    endloop
  endfacet
  facet normal 0 -1 -0
    outer loop
      vertex 37.4 56 -113.918
      vertex 33.8 56 -114.66
      vertex 37.4 56 -114.66
    endloop
  endfacet
  facet normal 0 -0.340568 -0.94022
    outer loop
      vertex 33.8 56 -114.66
      vertex 37.4 58.25 -115.475
      vertex 37.4 56 -114.66
    endloop
  endfacet
  facet normal -0 -0.340568 -0.94022
    outer loop
      vertex 37.4 58.25 -115.475
      vertex 33.8 56 -114.66
      vertex 33.8 58.25 -115.475
    endloop
  endfacet
  facet normal 0 -0.340568 0.94022
    outer loop
      vertex 33.8 58.25 -116.244
      vertex 37.4 56 -117.059
      vertex 37.4 58.25 -116.244
    endloop
  endfacet
  facet normal 0 -0.340568 0.94022
    outer loop
      vertex 37.4 56 -117.059
      vertex 33.8 58.25 -116.244
      vertex 33.8 56 -117.059
    endloop
  endfacet
  facet normal 0 -1 0
    outer loop
      vertex 33.8 56 -117.801
      vertex 37.4 56 -117.059
      vertex 33.8 56 -117.059
    endloop
  endfacet
  facet normal 0 -1 -0
    outer loop
      vertex 37.4 56 -117.059
      vertex 33.8 56 -117.801
      vertex 37.4 56 -117.801
    endloop
  endfacet
  facet normal 0 -0.340938 -0.940086
    outer loop
      vertex 33.8 56 -117.801
      vertex 37.4 58.25 -118.617
      vertex 37.4 56 -117.801
    endloop
  endfacet
  facet normal -0 -0.340938 -0.940086
    outer loop
      vertex 37.4 58.25 -118.617
      vertex 33.8 56 -117.801
      vertex 33.8 58.25 -118.617
    endloop
  endfacet
  facet normal 0 -0.340568 0.94022
    outer loop
      vertex 33.8 58.25 -119.386
      vertex 37.4 56 -120.201
      vertex 37.4 58.25 -119.386
    endloop
  endfacet
  facet normal 0 -0.340568 0.94022
    outer loop
      vertex 37.4 56 -120.201
      vertex 33.8 58.25 -119.386
      vertex 33.8 56 -120.201
    endloop
  endfacet
  facet normal 0 -1 0
    outer loop
      vertex 33.8 56 -120.943
      vertex 37.4 56 -120.201
      vertex 33.8 56 -120.201
    endloop
  endfacet
  facet normal 0 -1 -0
    outer loop
      vertex 37.4 56 -120.201
      vertex 33.8 56 -120.943
      vertex 37.4 56 -120.943
    endloop
  endfacet
  facet normal 0 -0.340568 -0.94022
    outer loop
      vertex 33.8 56 -120.943
      vertex 37.4 58.25 -121.758
      vertex 37.4 56 -120.943
    endloop
  endfacet
  facet normal -0 -0.340568 -0.94022
    outer loop
      vertex 37.4 58.25 -121.758
      vertex 33.8 56 -120.943
      vertex 33.8 58.25 -121.758
    endloop
  endfacet
  facet normal 0 -0.340938 0.940086
    outer loop
      vertex 33.8 58.25 -122.527
      vertex 37.4 56 -123.343
      vertex 37.4 58.25 -122.527
    endloop
  endfacet
  facet normal 0 -0.340938 0.940086
    outer loop
      vertex 37.4 56 -123.343
      vertex 33.8 58.25 -122.527
      vertex 33.8 56 -123.343
    endloop
  endfacet
  facet normal 0 -1 0
    outer loop
      vertex 33.8 56 -124.085
      vertex 37.4 56 -123.343
      vertex 33.8 56 -123.343
    endloop
  endfacet
  facet normal 0 -1 -0
    outer loop
      vertex 37.4 56 -123.343
      vertex 33.8 56 -124.085
      vertex 37.4 56 -124.085
    endloop
  endfacet
  facet normal 0 -0.340568 -0.94022
    outer loop
      vertex 33.8 56 -124.085
      vertex 37.4 58.25 -124.9
      vertex 37.4 56 -124.085
    endloop
  endfacet
  facet normal -0 -0.340568 -0.94022
    outer loop
      vertex 37.4 58.25 -124.9
      vertex 33.8 56 -124.085
      vertex 33.8 58.25 -124.9
    endloop
  endfacet
  facet normal 0 -0.340568 0.94022
    outer loop
      vertex 33.8 58.25 -125.669
      vertex 37.4 56 -126.484
      vertex 37.4 58.25 -125.669
    endloop
  endfacet
  facet normal 0 -0.340568 0.94022
    outer loop
      vertex 37.4 56 -126.484
      vertex 33.8 58.25 -125.669
      vertex 33.8 56 -126.484
    endloop
  endfacet
  facet normal 0 -1 0
    outer loop
      vertex 33.8 56 -127.226
      vertex 37.4 56 -126.484
      vertex 33.8 56 -126.484
    endloop
  endfacet
  facet normal 0 -1 -0
    outer loop
      vertex 37.4 56 -126.484
      vertex 33.8 56 -127.226
      vertex 37.4 56 -127.226
    endloop
  endfacet
  facet normal 0 -0.340938 -0.940086
    outer loop
      vertex 33.8 56 -127.226
      vertex 37.4 58.25 -128.042
      vertex 37.4 56 -127.226
    endloop
  endfacet
  facet normal -0 -0.340938 -0.940086
    outer loop
      vertex 37.4 58.25 -128.042
      vertex 33.8 56 -127.226
      vertex 33.8 58.25 -128.042
    endloop
  endfacet
  facet normal 0 -0.340938 0.940086
    outer loop
      vertex 33.8 58.25 -128.81
      vertex 37.4 56 -129.626
      vertex 37.4 58.25 -128.81
    endloop
  endfacet
  facet normal 0 -0.340938 0.940086
    outer loop
      vertex 37.4 56 -129.626
      vertex 33.8 58.25 -128.81
      vertex 33.8 56 -129.626
    endloop
  endfacet
  facet normal 0 -1 0
    outer loop
      vertex 33.8 56 -130.368
      vertex 37.4 56 -129.626
      vertex 33.8 56 -129.626
    endloop
  endfacet
  facet normal 0 -1 -0
    outer loop
      vertex 37.4 56 -129.626
      vertex 33.8 56 -130.368
      vertex 37.4 56 -130.368
    endloop
  endfacet
  facet normal 0 -0.340635 -0.940196
    outer loop
      vertex 33.8 56 -130.368
      vertex 37.4 57.7444 -131
      vertex 37.4 56 -130.368
    endloop
  endfacet
  facet normal -0 -0.340635 -0.940196
    outer loop
      vertex 37.4 57.7444 -131
      vertex 33.8 56 -130.368
      vertex 33.8 57.7444 -131
    endloop
  endfacet
  facet normal 1 -0 0
    outer loop
      vertex 39.6 -44.6 -125
      vertex 39.6 42.6 -131
      vertex 39.6 42.6 -125
    endloop
  endfacet
  facet normal 1 0 0
    outer loop
      vertex 39.6 42.6 -131
      vertex 39.6 -44.6 -125
      vertex 39.6 42 -139
    endloop
  endfacet
  facet normal 1 0 0
    outer loop
      vertex 39.6 -44.6 -165
      vertex 39.6 42 -139
      vertex 39.6 -44.6 -125
    endloop
  endfacet
  facet normal 1 0 0
    outer loop
      vertex 39.6 42 -139
      vertex 39.6 -44.6 -165
      vertex 39.6 42 -165
    endloop
  endfacet
  facet normal 1 -0 0
    outer loop
      vertex 39.6 42.6 -131
      vertex 39.6 60 -139
      vertex 39.6 60 -131
    endloop
  endfacet
  facet normal 1 0 0
    outer loop
      vertex 39.6 60 -139
      vertex 39.6 42.6 -131
      vertex 39.6 42 -139
    endloop
  endfacet
  facet normal -0 0 1
    outer loop
      vertex 37.6 42.6 -125
      vertex 39.6 -44.6 -125
      vertex 39.6 42.6 -125
    endloop
  endfacet
  facet normal 0 0 1
    outer loop
      vertex 39.6 -44.6 -125
      vertex 37.6 42.6 -125
      vertex 37.6 -44.6 -125
    endloop
  endfacet
  facet normal 0 0 -1
    outer loop
      vertex 37.6 -44.6 -165
      vertex 39.6 42 -165
      vertex 39.6 -44.6 -165
    endloop
  endfacet
  facet normal -0 0 -1
    outer loop
      vertex 39.6 42 -165
      vertex 37.6 -44.6 -165
      vertex 37.6 42 -165
    endloop
  endfacet
  facet normal -1 0 0
    outer loop
      vertex 37.6 42 -165
      vertex 37.6 -44.6 -165
      vertex 37.6 42 -139
    endloop
  endfacet
  facet normal -1 0 0
    outer loop
      vertex 37.6 42.5 -139
      vertex 37.6 42 -139
      vertex 37.6 42.5 -131
    endloop
  endfacet
  facet normal -1 0 0
    outer loop
      vertex 37.6 42.5 -131
      vertex 37.6 42.6 -125
      vertex 37.6 42.6 -131
    endloop
  endfacet
  facet normal -1 0 0
    outer loop
      vertex 37.6 -44.6 -125
      vertex 37.6 42.5 -131
      vertex 37.6 42 -139
    endloop
  endfacet
  facet normal -1 0 0
    outer loop
      vertex 37.6 -44.6 -125
      vertex 37.6 42 -139
      vertex 37.6 -44.6 -165
    endloop
  endfacet
  facet normal -1 0 0
    outer loop
      vertex 37.6 42.5 -131
      vertex 37.6 -44.6 -125
      vertex 37.6 42.6 -125
    endloop
  endfacet
  facet normal 0 1 -0
    outer loop
      vertex 39.6 42 -165
      vertex 37.6 42 -139
      vertex 39.6 42 -139
    endloop
  endfacet
  facet normal 0 1 0
    outer loop
      vertex 37.6 42 -139
      vertex 39.6 42 -165
      vertex 37.6 42 -165
    endloop
  endfacet
  facet normal 0 -1 0
    outer loop
      vertex 37.6 -44.6 -165
      vertex 39.6 -44.6 -125
      vertex 37.6 -44.6 -125
    endloop
  endfacet
  facet normal 0 -1 -0
    outer loop
      vertex 39.6 -44.6 -125
      vertex 37.6 -44.6 -165
      vertex 39.6 -44.6 -165
    endloop
  endfacet
  facet normal -0 0 1
    outer loop
      vertex 37.4 57.7444 -131
      vertex 39.6 42.6 -131
      vertex 39.6 60 -131
    endloop
  endfacet
  facet normal 0 0 1
    outer loop
      vertex 37.4 57.7444 -131
      vertex 39.6 60 -131
      vertex 37.4 60 -131
    endloop
  endfacet
  facet normal 0 0 1
    outer loop
      vertex 39.6 42.6 -131
      vertex 37.4 57.7444 -131
      vertex 37.6 42.6 -131
    endloop
  endfacet
  facet normal -0 0 1
    outer loop
      vertex 33.8 57.7444 -131
      vertex 37.6 42.6 -131
      vertex 37.4 57.7444 -131
    endloop
  endfacet
  facet normal 0 0 1
    outer loop
      vertex 37.6 42.6 -131
      vertex 33.8 57.7444 -131
      vertex 33.8 42.5 -131
    endloop
  endfacet
  facet normal 0 0 1
    outer loop
      vertex 37.6 42.6 -131
      vertex 33.8 42.5 -131
      vertex 37.6 42.5 -131
    endloop
  endfacet
  facet normal 0 1 -0
    outer loop
      vertex 39.6 60 -139
      vertex 37.4 60 -131
      vertex 39.6 60 -131
    endloop
  endfacet
  facet normal 0 1 0
    outer loop
      vertex 37.4 60 -131
      vertex 39.6 60 -139
      vertex 37.4 60 -139
    endloop
  endfacet
  facet normal 0 -1 0
    outer loop
      vertex 33.8 42.5 -139
      vertex 37.6 42.5 -131
      vertex 33.8 42.5 -131
    endloop
  endfacet
  facet normal 0 -1 -0
    outer loop
      vertex 37.6 42.5 -131
      vertex 33.8 42.5 -139
      vertex 37.6 42.5 -139
    endloop
  endfacet
  facet normal 0 1 -0
    outer loop
      vertex 39.6 42.6 -131
      vertex 37.6 42.6 -125
      vertex 39.6 42.6 -125
    endloop
  endfacet
  facet normal 0 1 0
    outer loop
      vertex 37.6 42.6 -125
      vertex 39.6 42.6 -131
      vertex 37.6 42.6 -131
    endloop
  endfacet
endsolid OpenSCAD_Model
