solid OpenSCAD_Model
  facet normal 1 -0 0
    outer loop
      vertex 37.4 56 -160.984
      vertex 37.4 58.25 -162.542
      vertex 37.4 58.25 -160.169
    endloop
  endfacet
  facet normal 1 0 0
    outer loop
      vertex 37.4 58.25 -162.542
      vertex 37.4 56 -160.984
      vertex 37.4 56 -161.726
    endloop
  endfacet
  facet normal 1 -0 0
    outer loop
      vertex 37.4 56 -157.843
      vertex 37.4 58.25 -159.4
      vertex 37.4 58.25 -157.027
    endloop
  endfacet
  facet normal 1 0 0
    outer loop
      vertex 37.4 58.25 -159.4
      vertex 37.4 56 -157.843
      vertex 37.4 56 -158.585
    endloop
  endfacet
  facet normal 1 -0 0
    outer loop
      vertex 37.4 56 -154.701
      vertex 37.4 58.25 -156.258
      vertex 37.4 58.25 -153.886
    endloop
  endfacet
  facet normal 1 0 0
    outer loop
      vertex 37.4 58.25 -156.258
      vertex 37.4 56 -154.701
      vertex 37.4 56 -155.443
    endloop
  endfacet
  facet normal 1 -0 0
    outer loop
      vertex 37.4 56 -151.559
      vertex 37.4 58.25 -153.117
      vertex 37.4 58.25 -150.744
    endloop
  endfacet
  facet normal 1 0 0
    outer loop
      vertex 37.4 58.25 -153.117
      vertex 37.4 56 -151.559
      vertex 37.4 56 -152.301
    endloop
  endfacet
  facet normal 1 -0 0
    outer loop
      vertex 37.4 56 -148.418
      vertex 37.4 58.25 -149.975
      vertex 37.4 58.25 -147.602
    endloop
  endfacet
  facet normal 1 0 0
    outer loop
      vertex 37.4 58.25 -149.975
      vertex 37.4 56 -148.418
      vertex 37.4 56 -149.16
    endloop
  endfacet
  facet normal 1 -0 0
    outer loop
      vertex 37.4 56 -145.276
      vertex 37.4 58.25 -146.834
      vertex 37.4 58.25 -144.461
    endloop
  endfacet
  facet normal 1 0 0
    outer loop
      vertex 37.4 58.25 -146.834
      vertex 37.4 56 -145.276
      vertex 37.4 56 -146.018
    endloop
  endfacet
  facet normal 1 -0 0
    outer loop
      vertex 37.4 56 -142.135
      vertex 37.4 58.25 -143.692
      vertex 37.4 58.25 -141.319
    endloop
  endfacet
  facet normal 1 0 0
    outer loop
      vertex 37.4 58.25 -143.692
      vertex 37.4 56 -142.135
      vertex 37.4 56 -142.877
    endloop
  endfacet
  facet normal 1 -0 0
    outer loop
      vertex 37.4 56 -138.993
      vertex 37.4 58.25 -140.55
      vertex 37.4 58.25 -138.178
    endloop
  endfacet
  facet normal 1 0 0
    outer loop
      vertex 37.4 58.25 -140.55
      vertex 37.4 56 -138.993
      vertex 37.4 56 -139.735
    endloop
  endfacet
  facet normal 1 -0 0
    outer loop
      vertex 37.4 56 -135.851
      vertex 37.4 58.25 -137.409
      vertex 37.4 58.25 -135.036
    endloop
  endfacet
  facet normal 1 0 0
    outer loop
      vertex 37.4 58.25 -137.409
      vertex 37.4 56 -135.851
      vertex 37.4 56 -136.593
    endloop
  endfacet
  facet normal 1 -0 0
    outer loop
      vertex 37.4 56 -132.71
      vertex 37.4 58.25 -134.267
      vertex 37.4 58.25 -131.895
    endloop
  endfacet
  facet normal 1 0 0
    outer loop
      vertex 37.4 58.25 -134.267
      vertex 37.4 56 -132.71
      vertex 37.4 56 -133.452
    endloop
  endfacet
  facet normal 1 -0 0
    outer loop
      vertex 37.4 56 -129.568
      vertex 37.4 58.25 -131.126
      vertex 37.4 58.25 -128.753
    endloop
  endfacet
  facet normal 1 0 0
    outer loop
      vertex 37.4 58.25 -131.126
      vertex 37.4 56 -129.568
      vertex 37.4 56 -130.31
    endloop
  endfacet
  facet normal 1 -0 0
    outer loop
      vertex 37.4 56 -126.427
      vertex 37.4 58.25 -127.984
      vertex 37.4 58.25 -125.611
    endloop
  endfacet
  facet normal 1 0 0
    outer loop
      vertex 37.4 58.25 -127.984
      vertex 37.4 56 -126.427
      vertex 37.4 56 -127.169
    endloop
  endfacet
  facet normal 1 -0 0
    outer loop
      vertex 37.4 56 -123.285
      vertex 37.4 58.25 -124.842
      vertex 37.4 58.25 -122.47
    endloop
  endfacet
  facet normal 1 0 0
    outer loop
      vertex 37.4 58.25 -124.842
      vertex 37.4 56 -123.285
      vertex 37.4 56 -124.027
    endloop
  endfacet
  facet normal 1 -0 0
    outer loop
      vertex 37.4 56 -120.144
      vertex 37.4 58.25 -121.701
      vertex 37.4 58.25 -119.328
    endloop
  endfacet
  facet normal 1 0 0
    outer loop
      vertex 37.4 58.25 -121.701
      vertex 37.4 56 -120.144
      vertex 37.4 56 -120.886
    endloop
  endfacet
  facet normal 1 -0 0
    outer loop
      vertex 37.4 56 -117.002
      vertex 37.4 58.25 -118.559
      vertex 37.4 58.25 -116.187
    endloop
  endfacet
  facet normal 1 0 0
    outer loop
      vertex 37.4 58.25 -118.559
      vertex 37.4 56 -117.002
      vertex 37.4 56 -117.744
    endloop
  endfacet
  facet normal 1 0 0
    outer loop
      vertex 37.4 61.5 -113.5
      vertex 37.4 60 -165.5
      vertex 37.4 61.5 -173.5
    endloop
  endfacet
  facet normal 1 0 0
    outer loop
      vertex 37.4 58.25 -116.187
      vertex 37.4 61.5 -113.5
      vertex 37.4 58.25 -113.5
    endloop
  endfacet
  facet normal 1 0 0
    outer loop
      vertex 37.4 58.25 -118.559
      vertex 37.4 61.5 -113.5
      vertex 37.4 58.25 -116.187
    endloop
  endfacet
  facet normal 1 0 0
    outer loop
      vertex 37.4 58.25 -119.328
      vertex 37.4 61.5 -113.5
      vertex 37.4 58.25 -118.559
    endloop
  endfacet
  facet normal 1 0 0
    outer loop
      vertex 37.4 58.25 -121.701
      vertex 37.4 61.5 -113.5
      vertex 37.4 58.25 -119.328
    endloop
  endfacet
  facet normal 1 0 0
    outer loop
      vertex 37.4 58.25 -122.47
      vertex 37.4 61.5 -113.5
      vertex 37.4 58.25 -121.701
    endloop
  endfacet
  facet normal 1 0 0
    outer loop
      vertex 37.4 58.25 -124.842
      vertex 37.4 61.5 -113.5
      vertex 37.4 58.25 -122.47
    endloop
  endfacet
  facet normal 1 0 0
    outer loop
      vertex 37.4 58.25 -125.611
      vertex 37.4 61.5 -113.5
      vertex 37.4 58.25 -124.842
    endloop
  endfacet
  facet normal 1 0 0
    outer loop
      vertex 37.4 58.25 -127.984
      vertex 37.4 61.5 -113.5
      vertex 37.4 58.25 -125.611
    endloop
  endfacet
  facet normal 1 0 0
    outer loop
      vertex 37.4 58.25 -128.753
      vertex 37.4 61.5 -113.5
      vertex 37.4 58.25 -127.984
    endloop
  endfacet
  facet normal 1 0 0
    outer loop
      vertex 37.4 58.25 -131.126
      vertex 37.4 61.5 -113.5
      vertex 37.4 58.25 -128.753
    endloop
  endfacet
  facet normal 1 0 0
    outer loop
      vertex 37.4 58.25 -131.895
      vertex 37.4 61.5 -113.5
      vertex 37.4 58.25 -131.126
    endloop
  endfacet
  facet normal 1 0 0
    outer loop
      vertex 37.4 58.25 -134.267
      vertex 37.4 61.5 -113.5
      vertex 37.4 58.25 -131.895
    endloop
  endfacet
  facet normal 1 0 0
    outer loop
      vertex 37.4 58.25 -135.036
      vertex 37.4 61.5 -113.5
      vertex 37.4 58.25 -134.267
    endloop
  endfacet
  facet normal 1 0 0
    outer loop
      vertex 37.4 58.25 -137.409
      vertex 37.4 61.5 -113.5
      vertex 37.4 58.25 -135.036
    endloop
  endfacet
  facet normal 1 0 0
    outer loop
      vertex 37.4 58.25 -138.178
      vertex 37.4 61.5 -113.5
      vertex 37.4 58.25 -137.409
    endloop
  endfacet
  facet normal 1 0 0
    outer loop
      vertex 37.4 58.25 -140.55
      vertex 37.4 61.5 -113.5
      vertex 37.4 58.25 -138.178
    endloop
  endfacet
  facet normal 1 0 0
    outer loop
      vertex 37.4 58.25 -141.319
      vertex 37.4 61.5 -113.5
      vertex 37.4 58.25 -140.55
    endloop
  endfacet
  facet normal 1 0 0
    outer loop
      vertex 37.4 61.5 -113.5
      vertex 37.4 58.25 -141.319
      vertex 37.4 60 -165.5
    endloop
  endfacet
  facet normal 1 -0 0
    outer loop
      vertex 37.4 58.25 -143.692
      vertex 37.4 60 -165.5
      vertex 37.4 58.25 -141.319
    endloop
  endfacet
  facet normal 1 -0 0
    outer loop
      vertex 37.4 58.25 -144.461
      vertex 37.4 60 -165.5
      vertex 37.4 58.25 -143.692
    endloop
  endfacet
  facet normal 1 -0 0
    outer loop
      vertex 37.4 58.25 -146.834
      vertex 37.4 60 -165.5
      vertex 37.4 58.25 -144.461
    endloop
  endfacet
  facet normal 1 -0 0
    outer loop
      vertex 37.4 58.25 -147.602
      vertex 37.4 60 -165.5
      vertex 37.4 58.25 -146.834
    endloop
  endfacet
  facet normal 1 -0 0
    outer loop
      vertex 37.4 58.25 -149.975
      vertex 37.4 60 -165.5
      vertex 37.4 58.25 -147.602
    endloop
  endfacet
  facet normal 1 -0 0
    outer loop
      vertex 37.4 58.25 -150.744
      vertex 37.4 60 -165.5
      vertex 37.4 58.25 -149.975
    endloop
  endfacet
  facet normal 1 -0 0
    outer loop
      vertex 37.4 58.25 -153.117
      vertex 37.4 60 -165.5
      vertex 37.4 58.25 -150.744
    endloop
  endfacet
  facet normal 1 -0 0
    outer loop
      vertex 37.4 58.25 -153.886
      vertex 37.4 60 -165.5
      vertex 37.4 58.25 -153.117
    endloop
  endfacet
  facet normal 1 -0 0
    outer loop
      vertex 37.4 58.25 -156.258
      vertex 37.4 60 -165.5
      vertex 37.4 58.25 -153.886
    endloop
  endfacet
  facet normal 1 -0 0
    outer loop
      vertex 37.4 58.25 -157.027
      vertex 37.4 60 -165.5
      vertex 37.4 58.25 -156.258
    endloop
  endfacet
  facet normal 1 -0 0
    outer loop
      vertex 37.4 58.25 -159.4
      vertex 37.4 60 -165.5
      vertex 37.4 58.25 -157.027
    endloop
  endfacet
  facet normal 1 -0 0
    outer loop
      vertex 37.4 58.25 -160.169
      vertex 37.4 60 -165.5
      vertex 37.4 58.25 -159.4
    endloop
  endfacet
  facet normal 1 -0 0
    outer loop
      vertex 37.4 58.25 -162.542
      vertex 37.4 60 -165.5
      vertex 37.4 58.25 -160.169
    endloop
  endfacet
  facet normal 1 -0 0
    outer loop
      vertex 37.4 58.25 -163.31
      vertex 37.4 60 -165.5
      vertex 37.4 58.25 -162.542
    endloop
  endfacet
  facet normal 1 0 0
    outer loop
      vertex 37.4 58.25 -163.31
      vertex 37.4 57.7444 -165.5
      vertex 37.4 60 -165.5
    endloop
  endfacet
  facet normal 1 -0 0
    outer loop
      vertex 37.4 56 -164.126
      vertex 37.4 57.7444 -165.5
      vertex 37.4 58.25 -163.31
    endloop
  endfacet
  facet normal 1 0 0
    outer loop
      vertex 37.4 57.7444 -165.5
      vertex 37.4 56 -164.126
      vertex 37.4 56 -164.868
    endloop
  endfacet
  facet normal 1 0 0
    outer loop
      vertex 37.4 61.5 -173.5
      vertex 37.4 60 -165.5
      vertex 37.4 60 -173.5
    endloop
  endfacet
  facet normal -0 0 1
    outer loop
      vertex 33.8 61.5 -113.5
      vertex 37.4 58.25 -113.5
      vertex 37.4 61.5 -113.5
    endloop
  endfacet
  facet normal 0 0 1
    outer loop
      vertex 37.4 58.25 -113.5
      vertex 33.8 61.5 -113.5
      vertex 33.8 58.25 -113.5
    endloop
  endfacet
  facet normal 0 0 -1
    outer loop
      vertex 37.6 42.5 -173.5
      vertex 39.6 42 -173.5
      vertex 37.6 42 -173.5
    endloop
  endfacet
  facet normal 0 0 -1
    outer loop
      vertex 39.6 42 -173.5
      vertex 37.6 42.5 -173.5
      vertex 39.6 60 -173.5
    endloop
  endfacet
  facet normal 0 0 -1
    outer loop
      vertex 37.6 42.5 -173.5
      vertex 37.4 60 -173.5
      vertex 39.6 60 -173.5
    endloop
  endfacet
  facet normal 0 0 -1
    outer loop
      vertex 33.8 42.5 -173.5
      vertex 37.4 60 -173.5
      vertex 37.6 42.5 -173.5
    endloop
  endfacet
  facet normal 0 0 -1
    outer loop
      vertex 33.8 61.5 -173.5
      vertex 37.4 60 -173.5
      vertex 33.8 42.5 -173.5
    endloop
  endfacet
  facet normal 0 0 -1
    outer loop
      vertex 37.4 60 -173.5
      vertex 33.8 61.5 -173.5
      vertex 37.4 61.5 -173.5
    endloop
  endfacet
  facet normal -1 0 0
    outer loop
      vertex 33.8 56 -117.744
      vertex 33.8 58.25 -116.187
      vertex 33.8 58.25 -118.559
    endloop
  endfacet
  facet normal -1 0 0
    outer loop
      vertex 33.8 58.25 -116.187
      vertex 33.8 56 -117.744
      vertex 33.8 56 -117.002
    endloop
  endfacet
  facet normal -1 0 0
    outer loop
      vertex 33.8 56 -120.886
      vertex 33.8 58.25 -119.328
      vertex 33.8 58.25 -121.701
    endloop
  endfacet
  facet normal -1 0 0
    outer loop
      vertex 33.8 58.25 -119.328
      vertex 33.8 56 -120.886
      vertex 33.8 56 -120.144
    endloop
  endfacet
  facet normal -1 0 0
    outer loop
      vertex 33.8 56 -124.027
      vertex 33.8 58.25 -122.47
      vertex 33.8 58.25 -124.842
    endloop
  endfacet
  facet normal -1 0 0
    outer loop
      vertex 33.8 58.25 -122.47
      vertex 33.8 56 -124.027
      vertex 33.8 56 -123.285
    endloop
  endfacet
  facet normal -1 0 0
    outer loop
      vertex 33.8 56 -127.169
      vertex 33.8 58.25 -125.611
      vertex 33.8 58.25 -127.984
    endloop
  endfacet
  facet normal -1 0 0
    outer loop
      vertex 33.8 58.25 -125.611
      vertex 33.8 56 -127.169
      vertex 33.8 56 -126.427
    endloop
  endfacet
  facet normal -1 0 0
    outer loop
      vertex 33.8 56 -130.31
      vertex 33.8 58.25 -128.753
      vertex 33.8 58.25 -131.126
    endloop
  endfacet
  facet normal -1 0 0
    outer loop
      vertex 33.8 58.25 -128.753
      vertex 33.8 56 -130.31
      vertex 33.8 56 -129.568
    endloop
  endfacet
  facet normal -1 0 0
    outer loop
      vertex 33.8 56 -133.452
      vertex 33.8 58.25 -131.895
      vertex 33.8 58.25 -134.267
    endloop
  endfacet
  facet normal -1 0 0
    outer loop
      vertex 33.8 58.25 -131.895
      vertex 33.8 56 -133.452
      vertex 33.8 56 -132.71
    endloop
  endfacet
  facet normal -1 0 0
    outer loop
      vertex 33.8 56 -136.593
      vertex 33.8 58.25 -135.036
      vertex 33.8 58.25 -137.409
    endloop
  endfacet
  facet normal -1 0 0
    outer loop
      vertex 33.8 58.25 -135.036
      vertex 33.8 56 -136.593
      vertex 33.8 56 -135.851
    endloop
  endfacet
  facet normal -1 0 0
    outer loop
      vertex 33.8 56 -139.735
      vertex 33.8 58.25 -138.178
      vertex 33.8 58.25 -140.55
    endloop
  endfacet
  facet normal -1 0 0
    outer loop
      vertex 33.8 58.25 -138.178
      vertex 33.8 56 -139.735
      vertex 33.8 56 -138.993
    endloop
  endfacet
  facet normal -1 0 0
    outer loop
      vertex 33.8 56 -142.877
      vertex 33.8 58.25 -141.319
      vertex 33.8 58.25 -143.692
    endloop
  endfacet
  facet normal -1 0 0
    outer loop
      vertex 33.8 58.25 -141.319
      vertex 33.8 56 -142.877
      vertex 33.8 56 -142.135
    endloop
  endfacet
  facet normal -1 0 0
    outer loop
      vertex 33.8 56 -146.018
      vertex 33.8 58.25 -144.461
      vertex 33.8 58.25 -146.834
    endloop
  endfacet
  facet normal -1 0 0
    outer loop
      vertex 33.8 58.25 -144.461
      vertex 33.8 56 -146.018
      vertex 33.8 56 -145.276
    endloop
  endfacet
  facet normal -1 0 0
    outer loop
      vertex 33.8 56 -149.16
      vertex 33.8 58.25 -147.602
      vertex 33.8 58.25 -149.975
    endloop
  endfacet
  facet normal -1 0 0
    outer loop
      vertex 33.8 58.25 -147.602
      vertex 33.8 56 -149.16
      vertex 33.8 56 -148.418
    endloop
  endfacet
  facet normal -1 0 0
    outer loop
      vertex 33.8 56 -152.301
      vertex 33.8 58.25 -150.744
      vertex 33.8 58.25 -153.117
    endloop
  endfacet
  facet normal -1 0 0
    outer loop
      vertex 33.8 58.25 -150.744
      vertex 33.8 56 -152.301
      vertex 33.8 56 -151.559
    endloop
  endfacet
  facet normal -1 0 0
    outer loop
      vertex 33.8 56 -155.443
      vertex 33.8 58.25 -153.886
      vertex 33.8 58.25 -156.258
    endloop
  endfacet
  facet normal -1 0 0
    outer loop
      vertex 33.8 58.25 -153.886
      vertex 33.8 56 -155.443
      vertex 33.8 56 -154.701
    endloop
  endfacet
  facet normal -1 0 0
    outer loop
      vertex 33.8 56 -158.585
      vertex 33.8 58.25 -157.027
      vertex 33.8 58.25 -159.4
    endloop
  endfacet
  facet normal -1 0 0
    outer loop
      vertex 33.8 58.25 -157.027
      vertex 33.8 56 -158.585
      vertex 33.8 56 -157.843
    endloop
  endfacet
  facet normal -1 0 0
    outer loop
      vertex 33.8 56 -161.726
      vertex 33.8 58.25 -160.169
      vertex 33.8 58.25 -162.542
    endloop
  endfacet
  facet normal -1 0 0
    outer loop
      vertex 33.8 58.25 -160.169
      vertex 33.8 56 -161.726
      vertex 33.8 56 -160.984
    endloop
  endfacet
  facet normal -1 0 0
    outer loop
      vertex 33.8 58.25 -162.542
      vertex 33.8 61.5 -173.5
      vertex 33.8 58.25 -163.31
    endloop
  endfacet
  facet normal -1 0 0
    outer loop
      vertex 33.8 61.5 -173.5
      vertex 33.8 57.7444 -165.5
      vertex 33.8 58.25 -163.31
    endloop
  endfacet
  facet normal -1 0 0
    outer loop
      vertex 33.8 42.5 -173.5
      vertex 33.8 57.7444 -165.5
      vertex 33.8 61.5 -173.5
    endloop
  endfacet
  facet normal -1 -0 0
    outer loop
      vertex 33.8 57.7444 -165.5
      vertex 33.8 42.5 -173.5
      vertex 33.8 42.5 -165.5
    endloop
  endfacet
  facet normal -1 0 0
    outer loop
      vertex 33.8 58.25 -160.169
      vertex 33.8 61.5 -173.5
      vertex 33.8 58.25 -162.542
    endloop
  endfacet
  facet normal -1 0 0
    outer loop
      vertex 33.8 58.25 -159.4
      vertex 33.8 61.5 -173.5
      vertex 33.8 58.25 -160.169
    endloop
  endfacet
  facet normal -1 0 0
    outer loop
      vertex 33.8 58.25 -157.027
      vertex 33.8 61.5 -173.5
      vertex 33.8 58.25 -159.4
    endloop
  endfacet
  facet normal -1 0 0
    outer loop
      vertex 33.8 58.25 -156.258
      vertex 33.8 61.5 -173.5
      vertex 33.8 58.25 -157.027
    endloop
  endfacet
  facet normal -1 0 0
    outer loop
      vertex 33.8 58.25 -153.886
      vertex 33.8 61.5 -173.5
      vertex 33.8 58.25 -156.258
    endloop
  endfacet
  facet normal -1 0 0
    outer loop
      vertex 33.8 58.25 -153.117
      vertex 33.8 61.5 -173.5
      vertex 33.8 58.25 -153.886
    endloop
  endfacet
  facet normal -1 0 0
    outer loop
      vertex 33.8 58.25 -150.744
      vertex 33.8 61.5 -173.5
      vertex 33.8 58.25 -153.117
    endloop
  endfacet
  facet normal -1 0 0
    outer loop
      vertex 33.8 58.25 -149.975
      vertex 33.8 61.5 -173.5
      vertex 33.8 58.25 -150.744
    endloop
  endfacet
  facet normal -1 0 0
    outer loop
      vertex 33.8 58.25 -147.602
      vertex 33.8 61.5 -173.5
      vertex 33.8 58.25 -149.975
    endloop
  endfacet
  facet normal -1 0 0
    outer loop
      vertex 33.8 58.25 -146.834
      vertex 33.8 61.5 -173.5
      vertex 33.8 58.25 -147.602
    endloop
  endfacet
  facet normal -1 0 0
    outer loop
      vertex 33.8 58.25 -144.461
      vertex 33.8 61.5 -173.5
      vertex 33.8 58.25 -146.834
    endloop
  endfacet
  facet normal -1 0 0
    outer loop
      vertex 33.8 61.5 -173.5
      vertex 33.8 58.25 -144.461
      vertex 33.8 61.5 -113.5
    endloop
  endfacet
  facet normal -1 0 0
    outer loop
      vertex 33.8 58.25 -143.692
      vertex 33.8 61.5 -113.5
      vertex 33.8 58.25 -144.461
    endloop
  endfacet
  facet normal -1 0 0
    outer loop
      vertex 33.8 58.25 -141.319
      vertex 33.8 61.5 -113.5
      vertex 33.8 58.25 -143.692
    endloop
  endfacet
  facet normal -1 0 0
    outer loop
      vertex 33.8 58.25 -140.55
      vertex 33.8 61.5 -113.5
      vertex 33.8 58.25 -141.319
    endloop
  endfacet
  facet normal -1 0 0
    outer loop
      vertex 33.8 58.25 -138.178
      vertex 33.8 61.5 -113.5
      vertex 33.8 58.25 -140.55
    endloop
  endfacet
  facet normal -1 0 0
    outer loop
      vertex 33.8 58.25 -137.409
      vertex 33.8 61.5 -113.5
      vertex 33.8 58.25 -138.178
    endloop
  endfacet
  facet normal -1 0 0
    outer loop
      vertex 33.8 58.25 -135.036
      vertex 33.8 61.5 -113.5
      vertex 33.8 58.25 -137.409
    endloop
  endfacet
  facet normal -1 0 0
    outer loop
      vertex 33.8 58.25 -134.267
      vertex 33.8 61.5 -113.5
      vertex 33.8 58.25 -135.036
    endloop
  endfacet
  facet normal -1 0 0
    outer loop
      vertex 33.8 58.25 -131.895
      vertex 33.8 61.5 -113.5
      vertex 33.8 58.25 -134.267
    endloop
  endfacet
  facet normal -1 0 0
    outer loop
      vertex 33.8 58.25 -131.126
      vertex 33.8 61.5 -113.5
      vertex 33.8 58.25 -131.895
    endloop
  endfacet
  facet normal -1 0 0
    outer loop
      vertex 33.8 58.25 -128.753
      vertex 33.8 61.5 -113.5
      vertex 33.8 58.25 -131.126
    endloop
  endfacet
  facet normal -1 0 0
    outer loop
      vertex 33.8 58.25 -127.984
      vertex 33.8 61.5 -113.5
      vertex 33.8 58.25 -128.753
    endloop
  endfacet
  facet normal -1 0 0
    outer loop
      vertex 33.8 58.25 -125.611
      vertex 33.8 61.5 -113.5
      vertex 33.8 58.25 -127.984
    endloop
  endfacet
  facet normal -1 0 0
    outer loop
      vertex 33.8 58.25 -124.842
      vertex 33.8 61.5 -113.5
      vertex 33.8 58.25 -125.611
    endloop
  endfacet
  facet normal -1 0 0
    outer loop
      vertex 33.8 58.25 -122.47
      vertex 33.8 61.5 -113.5
      vertex 33.8 58.25 -124.842
    endloop
  endfacet
  facet normal -1 0 0
    outer loop
      vertex 33.8 58.25 -121.701
      vertex 33.8 61.5 -113.5
      vertex 33.8 58.25 -122.47
    endloop
  endfacet
  facet normal -1 0 0
    outer loop
      vertex 33.8 58.25 -119.328
      vertex 33.8 61.5 -113.5
      vertex 33.8 58.25 -121.701
    endloop
  endfacet
  facet normal -1 0 0
    outer loop
      vertex 33.8 58.25 -118.559
      vertex 33.8 61.5 -113.5
      vertex 33.8 58.25 -119.328
    endloop
  endfacet
  facet normal -1 0 0
    outer loop
      vertex 33.8 58.25 -116.187
      vertex 33.8 61.5 -113.5
      vertex 33.8 58.25 -118.559
    endloop
  endfacet
  facet normal -1 -0 0
    outer loop
      vertex 33.8 61.5 -113.5
      vertex 33.8 58.25 -116.187
      vertex 33.8 58.25 -113.5
    endloop
  endfacet
  facet normal -1 0 0
    outer loop
      vertex 33.8 56 -164.126
      vertex 33.8 57.7444 -165.5
      vertex 33.8 56 -164.868
    endloop
  endfacet
  facet normal -1 0 0
    outer loop
      vertex 33.8 57.7444 -165.5
      vertex 33.8 56 -164.126
      vertex 33.8 58.25 -163.31
    endloop
  endfacet
  facet normal 0 1 -0
    outer loop
      vertex 37.4 61.5 -173.5
      vertex 33.8 61.5 -113.5
      vertex 37.4 61.5 -113.5
    endloop
  endfacet
  facet normal 0 1 0
    outer loop
      vertex 33.8 61.5 -113.5
      vertex 37.4 61.5 -173.5
      vertex 33.8 61.5 -173.5
    endloop
  endfacet
  facet normal 0 -1 0
    outer loop
      vertex 33.8 58.25 -116.187
      vertex 37.4 58.25 -113.5
      vertex 33.8 58.25 -113.5
    endloop
  endfacet
  facet normal 0 -1 -0
    outer loop
      vertex 37.4 58.25 -113.5
      vertex 33.8 58.25 -116.187
      vertex 37.4 58.25 -116.187
    endloop
  endfacet
  facet normal 0 -1 0
    outer loop
      vertex 33.8 58.25 -147.602
      vertex 37.4 58.25 -146.834
      vertex 33.8 58.25 -146.834
    endloop
  endfacet
  facet normal 0 -1 -0
    outer loop
      vertex 37.4 58.25 -146.834
      vertex 33.8 58.25 -147.602
      vertex 37.4 58.25 -147.602
    endloop
  endfacet
  facet normal 0 -1 0
    outer loop
      vertex 33.8 58.25 -150.744
      vertex 37.4 58.25 -149.975
      vertex 33.8 58.25 -149.975
    endloop
  endfacet
  facet normal 0 -1 -0
    outer loop
      vertex 37.4 58.25 -149.975
      vertex 33.8 58.25 -150.744
      vertex 37.4 58.25 -150.744
    endloop
  endfacet
  facet normal 0 -1 0
    outer loop
      vertex 33.8 58.25 -153.886
      vertex 37.4 58.25 -153.117
      vertex 33.8 58.25 -153.117
    endloop
  endfacet
  facet normal 0 -1 -0
    outer loop
      vertex 37.4 58.25 -153.117
      vertex 33.8 58.25 -153.886
      vertex 37.4 58.25 -153.886
    endloop
  endfacet
  facet normal 0 -1 0
    outer loop
      vertex 33.8 58.25 -157.027
      vertex 37.4 58.25 -156.258
      vertex 33.8 58.25 -156.258
    endloop
  endfacet
  facet normal 0 -1 -0
    outer loop
      vertex 37.4 58.25 -156.258
      vertex 33.8 58.25 -157.027
      vertex 37.4 58.25 -157.027
    endloop
  endfacet
  facet normal 0 -1 0
    outer loop
      vertex 33.8 58.25 -160.169
      vertex 37.4 58.25 -159.4
      vertex 33.8 58.25 -159.4
    endloop
  endfacet
  facet normal 0 -1 -0
    outer loop
      vertex 37.4 58.25 -159.4
      vertex 33.8 58.25 -160.169
      vertex 37.4 58.25 -160.169
    endloop
  endfacet
  facet normal 0 -1 0
    outer loop
      vertex 33.8 58.25 -163.31
      vertex 37.4 58.25 -162.542
      vertex 33.8 58.25 -162.542
    endloop
  endfacet
  facet normal 0 -1 -0
    outer loop
      vertex 37.4 58.25 -162.542
      vertex 33.8 58.25 -163.31
      vertex 37.4 58.25 -163.31
    endloop
  endfacet
  facet normal 0 -1 0
    outer loop
      vertex 33.8 58.25 -119.328
      vertex 37.4 58.25 -118.559
      vertex 33.8 58.25 -118.559
    endloop
  endfacet
  facet normal 0 -1 -0
    outer loop
      vertex 37.4 58.25 -118.559
      vertex 33.8 58.25 -119.328
      vertex 37.4 58.25 -119.328
    endloop
  endfacet
  facet normal 0 -1 0
    outer loop
      vertex 33.8 58.25 -122.47
      vertex 37.4 58.25 -121.701
      vertex 33.8 58.25 -121.701
    endloop
  endfacet
  facet normal 0 -1 -0
    outer loop
      vertex 37.4 58.25 -121.701
      vertex 33.8 58.25 -122.47
      vertex 37.4 58.25 -122.47
    endloop
  endfacet
  facet normal 0 -1 0
    outer loop
      vertex 33.8 58.25 -125.611
      vertex 37.4 58.25 -124.842
      vertex 33.8 58.25 -124.842
    endloop
  endfacet
  facet normal 0 -1 -0
    outer loop
      vertex 37.4 58.25 -124.842
      vertex 33.8 58.25 -125.611
      vertex 37.4 58.25 -125.611
    endloop
  endfacet
  facet normal 0 -1 0
    outer loop
      vertex 33.8 58.25 -128.753
      vertex 37.4 58.25 -127.984
      vertex 33.8 58.25 -127.984
    endloop
  endfacet
  facet normal 0 -1 -0
    outer loop
      vertex 37.4 58.25 -127.984
      vertex 33.8 58.25 -128.753
      vertex 37.4 58.25 -128.753
    endloop
  endfacet
  facet normal 0 -1 0
    outer loop
      vertex 33.8 58.25 -131.895
      vertex 37.4 58.25 -131.126
      vertex 33.8 58.25 -131.126
    endloop
  endfacet
  facet normal 0 -1 -0
    outer loop
      vertex 37.4 58.25 -131.126
      vertex 33.8 58.25 -131.895
      vertex 37.4 58.25 -131.895
    endloop
  endfacet
  facet normal 0 -1 0
    outer loop
      vertex 33.8 58.25 -135.036
      vertex 37.4 58.25 -134.267
      vertex 33.8 58.25 -134.267
    endloop
  endfacet
  facet normal 0 -1 -0
    outer loop
      vertex 37.4 58.25 -134.267
      vertex 33.8 58.25 -135.036
      vertex 37.4 58.25 -135.036
    endloop
  endfacet
  facet normal 0 -1 0
    outer loop
      vertex 33.8 58.25 -138.178
      vertex 37.4 58.25 -137.409
      vertex 33.8 58.25 -137.409
    endloop
  endfacet
  facet normal 0 -1 -0
    outer loop
      vertex 37.4 58.25 -137.409
      vertex 33.8 58.25 -138.178
      vertex 37.4 58.25 -138.178
    endloop
  endfacet
  facet normal 0 -1 0
    outer loop
      vertex 33.8 58.25 -141.319
      vertex 37.4 58.25 -140.55
      vertex 33.8 58.25 -140.55
    endloop
  endfacet
  facet normal 0 -1 -0
    outer loop
      vertex 37.4 58.25 -140.55
      vertex 33.8 58.25 -141.319
      vertex 37.4 58.25 -141.319
    endloop
  endfacet
  facet normal 0 -1 0
    outer loop
      vertex 33.8 58.25 -144.461
      vertex 37.4 58.25 -143.692
      vertex 33.8 58.25 -143.692
    endloop
  endfacet
  facet normal 0 -1 -0
    outer loop
      vertex 37.4 58.25 -143.692
      vertex 33.8 58.25 -144.461
      vertex 37.4 58.25 -144.461
    endloop
  endfacet
  facet normal 0 -0.340568 0.94022
    outer loop
      vertex 33.8 58.25 -116.187
      vertex 37.4 56 -117.002
      vertex 37.4 58.25 -116.187
    endloop
  endfacet
  facet normal 0 -0.340568 0.94022
    outer loop
      vertex 37.4 56 -117.002
      vertex 33.8 58.25 -116.187
      vertex 33.8 56 -117.002
    endloop
  endfacet
  facet normal 0 -1 0
    outer loop
      vertex 33.8 56 -117.744
      vertex 37.4 56 -117.002
      vertex 33.8 56 -117.002
    endloop
  endfacet
  facet normal 0 -1 -0
    outer loop
      vertex 37.4 56 -117.002
      vertex 33.8 56 -117.744
      vertex 37.4 56 -117.744
    endloop
  endfacet
  facet normal 0 -0.340568 -0.94022
    outer loop
      vertex 33.8 56 -117.744
      vertex 37.4 58.25 -118.559
      vertex 37.4 56 -117.744
    endloop
  endfacet
  facet normal -0 -0.340568 -0.94022
    outer loop
      vertex 37.4 58.25 -118.559
      vertex 33.8 56 -117.744
      vertex 33.8 58.25 -118.559
    endloop
  endfacet
  facet normal 0 -0.340938 0.940086
    outer loop
      vertex 33.8 58.25 -119.328
      vertex 37.4 56 -120.144
      vertex 37.4 58.25 -119.328
    endloop
  endfacet
  facet normal 0 -0.340938 0.940086
    outer loop
      vertex 37.4 56 -120.144
      vertex 33.8 58.25 -119.328
      vertex 33.8 56 -120.144
    endloop
  endfacet
  facet normal 0 -1 0
    outer loop
      vertex 33.8 56 -120.886
      vertex 37.4 56 -120.144
      vertex 33.8 56 -120.144
    endloop
  endfacet
  facet normal 0 -1 -0
    outer loop
      vertex 37.4 56 -120.144
      vertex 33.8 56 -120.886
      vertex 37.4 56 -120.886
    endloop
  endfacet
  facet normal 0 -0.340568 -0.94022
    outer loop
      vertex 33.8 56 -120.886
      vertex 37.4 58.25 -121.701
      vertex 37.4 56 -120.886
    endloop
  endfacet
  facet normal -0 -0.340568 -0.94022
    outer loop
      vertex 37.4 58.25 -121.701
      vertex 33.8 56 -120.886
      vertex 33.8 58.25 -121.701
    endloop
  endfacet
  facet normal 0 -0.340568 0.94022
    outer loop
      vertex 33.8 58.25 -122.47
      vertex 37.4 56 -123.285
      vertex 37.4 58.25 -122.47
    endloop
  endfacet
  facet normal 0 -0.340568 0.94022
    outer loop
      vertex 37.4 56 -123.285
      vertex 33.8 58.25 -122.47
      vertex 33.8 56 -123.285
    endloop
  endfacet
  facet normal 0 -1 0
    outer loop
      vertex 33.8 56 -124.027
      vertex 37.4 56 -123.285
      vertex 33.8 56 -123.285
    endloop
  endfacet
  facet normal 0 -1 -0
    outer loop
      vertex 37.4 56 -123.285
      vertex 33.8 56 -124.027
      vertex 37.4 56 -124.027
    endloop
  endfacet
  facet normal 0 -0.340568 -0.94022
    outer loop
      vertex 33.8 56 -124.027
      vertex 37.4 58.25 -124.842
      vertex 37.4 56 -124.027
    endloop
  endfacet
  facet normal -0 -0.340568 -0.94022
    outer loop
      vertex 37.4 58.25 -124.842
      vertex 33.8 56 -124.027
      vertex 33.8 58.25 -124.842
    endloop
  endfacet
  facet normal 0 -0.340938 0.940086
    outer loop
      vertex 33.8 58.25 -125.611
      vertex 37.4 56 -126.427
      vertex 37.4 58.25 -125.611
    endloop
  endfacet
  facet normal 0 -0.340938 0.940086
    outer loop
      vertex 37.4 56 -126.427
      vertex 33.8 58.25 -125.611
      vertex 33.8 56 -126.427
    endloop
  endfacet
  facet normal 0 -1 0
    outer loop
      vertex 33.8 56 -127.169
      vertex 37.4 56 -126.427
      vertex 33.8 56 -126.427
    endloop
  endfacet
  facet normal 0 -1 -0
    outer loop
      vertex 37.4 56 -126.427
      vertex 33.8 56 -127.169
      vertex 37.4 56 -127.169
    endloop
  endfacet
  facet normal 0 -0.340568 -0.94022
    outer loop
      vertex 33.8 56 -127.169
      vertex 37.4 58.25 -127.984
      vertex 37.4 56 -127.169
    endloop
  endfacet
  facet normal -0 -0.340568 -0.94022
    outer loop
      vertex 37.4 58.25 -127.984
      vertex 33.8 56 -127.169
      vertex 33.8 58.25 -127.984
    endloop
  endfacet
  facet normal 0 -0.340568 0.94022
    outer loop
      vertex 33.8 58.25 -128.753
      vertex 37.4 56 -129.568
      vertex 37.4 58.25 -128.753
    endloop
  endfacet
  facet normal 0 -0.340568 0.94022
    outer loop
      vertex 37.4 56 -129.568
      vertex 33.8 58.25 -128.753
      vertex 33.8 56 -129.568
    endloop
  endfacet
  facet normal 0 -1 0
    outer loop
      vertex 33.8 56 -130.31
      vertex 37.4 56 -129.568
      vertex 33.8 56 -129.568
    endloop
  endfacet
  facet normal 0 -1 -0
    outer loop
      vertex 37.4 56 -129.568
      vertex 33.8 56 -130.31
      vertex 37.4 56 -130.31
    endloop
  endfacet
  facet normal 0 -0.340938 -0.940086
    outer loop
      vertex 33.8 56 -130.31
      vertex 37.4 58.25 -131.126
      vertex 37.4 56 -130.31
    endloop
  endfacet
  facet normal -0 -0.340938 -0.940086
    outer loop
      vertex 37.4 58.25 -131.126
      vertex 33.8 56 -130.31
      vertex 33.8 58.25 -131.126
    endloop
  endfacet
  facet normal 0 -0.340568 0.94022
    outer loop
      vertex 33.8 58.25 -131.895
      vertex 37.4 56 -132.71
      vertex 37.4 58.25 -131.895
    endloop
  endfacet
  facet normal 0 -0.340568 0.94022
    outer loop
      vertex 37.4 56 -132.71
      vertex 33.8 58.25 -131.895
      vertex 33.8 56 -132.71
    endloop
  endfacet
  facet normal 0 -1 0
    outer loop
      vertex 33.8 56 -133.452
      vertex 37.4 56 -132.71
      vertex 33.8 56 -132.71
    endloop
  endfacet
  facet normal 0 -1 -0
    outer loop
      vertex 37.4 56 -132.71
      vertex 33.8 56 -133.452
      vertex 37.4 56 -133.452
    endloop
  endfacet
  facet normal 0 -0.340568 -0.94022
    outer loop
      vertex 33.8 56 -133.452
      vertex 37.4 58.25 -134.267
      vertex 37.4 56 -133.452
    endloop
  endfacet
  facet normal -0 -0.340568 -0.94022
    outer loop
      vertex 37.4 58.25 -134.267
      vertex 33.8 56 -133.452
      vertex 33.8 58.25 -134.267
    endloop
  endfacet
  facet normal 0 -0.340568 0.94022
    outer loop
      vertex 33.8 58.25 -135.036
      vertex 37.4 56 -135.851
      vertex 37.4 58.25 -135.036
    endloop
  endfacet
  facet normal 0 -0.340568 0.94022
    outer loop
      vertex 37.4 56 -135.851
      vertex 33.8 58.25 -135.036
      vertex 33.8 56 -135.851
    endloop
  endfacet
  facet normal 0 -1 0
    outer loop
      vertex 33.8 56 -136.593
      vertex 37.4 56 -135.851
      vertex 33.8 56 -135.851
    endloop
  endfacet
  facet normal 0 -1 -0
    outer loop
      vertex 37.4 56 -135.851
      vertex 33.8 56 -136.593
      vertex 37.4 56 -136.593
    endloop
  endfacet
  facet normal 0 -0.340938 -0.940086
    outer loop
      vertex 33.8 56 -136.593
      vertex 37.4 58.25 -137.409
      vertex 37.4 56 -136.593
    endloop
  endfacet
  facet normal -0 -0.340938 -0.940086
    outer loop
      vertex 37.4 58.25 -137.409
      vertex 33.8 56 -136.593
      vertex 33.8 58.25 -137.409
    endloop
  endfacet
  facet normal 0 -0.340568 0.94022
    outer loop
      vertex 33.8 58.25 -138.178
      vertex 37.4 56 -138.993
      vertex 37.4 58.25 -138.178
    endloop
  endfacet
  facet normal 0 -0.340568 0.94022
    outer loop
      vertex 37.4 56 -138.993
      vertex 33.8 58.25 -138.178
      vertex 33.8 56 -138.993
    endloop
  endfacet
  facet normal 0 -1 0
    outer loop
      vertex 33.8 56 -139.735
      vertex 37.4 56 -138.993
      vertex 33.8 56 -138.993
    endloop
  endfacet
  facet normal 0 -1 -0
    outer loop
      vertex 37.4 56 -138.993
      vertex 33.8 56 -139.735
      vertex 37.4 56 -139.735
    endloop
  endfacet
  facet normal 0 -0.340568 -0.94022
    outer loop
      vertex 33.8 56 -139.735
      vertex 37.4 58.25 -140.55
      vertex 37.4 56 -139.735
    endloop
  endfacet
  facet normal -0 -0.340568 -0.94022
    outer loop
      vertex 37.4 58.25 -140.55
      vertex 33.8 56 -139.735
      vertex 33.8 58.25 -140.55
    endloop
  endfacet
  facet normal 0 -0.340938 0.940086
    outer loop
      vertex 33.8 58.25 -141.319
      vertex 37.4 56 -142.135
      vertex 37.4 58.25 -141.319
    endloop
  endfacet
  facet normal 0 -0.340938 0.940086
    outer loop
      vertex 37.4 56 -142.135
      vertex 33.8 58.25 -141.319
      vertex 33.8 56 -142.135
    endloop
  endfacet
  facet normal 0 -1 0
    outer loop
      vertex 33.8 56 -142.877
      vertex 37.4 56 -142.135
      vertex 33.8 56 -142.135
    endloop
  endfacet
  facet normal 0 -1 -0
    outer loop
      vertex 37.4 56 -142.135
      vertex 33.8 56 -142.877
      vertex 37.4 56 -142.877
    endloop
  endfacet
  facet normal 0 -0.340568 -0.94022
    outer loop
      vertex 33.8 56 -142.877
      vertex 37.4 58.25 -143.692
      vertex 37.4 56 -142.877
    endloop
  endfacet
  facet normal -0 -0.340568 -0.94022
    outer loop
      vertex 37.4 58.25 -143.692
      vertex 33.8 56 -142.877
      vertex 33.8 58.25 -143.692
    endloop
  endfacet
  facet normal 0 -0.340568 0.94022
    outer loop
      vertex 33.8 58.25 -144.461
      vertex 37.4 56 -145.276
      vertex 37.4 58.25 -144.461
    endloop
  endfacet
  facet normal 0 -0.340568 0.94022
    outer loop
      vertex 37.4 56 -145.276
      vertex 33.8 58.25 -144.461
      vertex 33.8 56 -145.276
    endloop
  endfacet
  facet normal 0 -1 0
    outer loop
      vertex 33.8 56 -146.018
      vertex 37.4 56 -145.276
      vertex 33.8 56 -145.276
    endloop
  endfacet
  facet normal 0 -1 -0
    outer loop
      vertex 37.4 56 -145.276
      vertex 33.8 56 -146.018
      vertex 37.4 56 -146.018
    endloop
  endfacet
  facet normal 0 -0.340938 -0.940086
    outer loop
      vertex 33.8 56 -146.018
      vertex 37.4 58.25 -146.834
      vertex 37.4 56 -146.018
    endloop
  endfacet
  facet normal -0 -0.340938 -0.940086
    outer loop
      vertex 37.4 58.25 -146.834
      vertex 33.8 56 -146.018
      vertex 33.8 58.25 -146.834
    endloop
  endfacet
  facet normal 0 -0.340938 0.940086
    outer loop
      vertex 33.8 58.25 -147.602
      vertex 37.4 56 -148.418
      vertex 37.4 58.25 -147.602
    endloop
  endfacet
  facet normal 0 -0.340938 0.940086
    outer loop
      vertex 37.4 56 -148.418
      vertex 33.8 58.25 -147.602
      vertex 33.8 56 -148.418
    endloop
  endfacet
  facet normal 0 -1 0
    outer loop
      vertex 33.8 56 -149.16
      vertex 37.4 56 -148.418
      vertex 33.8 56 -148.418
    endloop
  endfacet
  facet normal 0 -1 -0
    outer loop
      vertex 37.4 56 -148.418
      vertex 33.8 56 -149.16
      vertex 37.4 56 -149.16
    endloop
  endfacet
  facet normal 0 -0.340568 -0.94022
    outer loop
      vertex 33.8 56 -149.16
      vertex 37.4 58.25 -149.975
      vertex 37.4 56 -149.16
    endloop
  endfacet
  facet normal -0 -0.340568 -0.94022
    outer loop
      vertex 37.4 58.25 -149.975
      vertex 33.8 56 -149.16
      vertex 33.8 58.25 -149.975
    endloop
  endfacet
  facet normal 0 -0.340568 0.94022
    outer loop
      vertex 33.8 58.25 -150.744
      vertex 37.4 56 -151.559
      vertex 37.4 58.25 -150.744
    endloop
  endfacet
  facet normal 0 -0.340568 0.94022
    outer loop
      vertex 37.4 56 -151.559
      vertex 33.8 58.25 -150.744
      vertex 33.8 56 -151.559
    endloop
  endfacet
  facet normal 0 -1 0
    outer loop
      vertex 33.8 56 -152.301
      vertex 37.4 56 -151.559
      vertex 33.8 56 -151.559
    endloop
  endfacet
  facet normal 0 -1 -0
    outer loop
      vertex 37.4 56 -151.559
      vertex 33.8 56 -152.301
      vertex 37.4 56 -152.301
    endloop
  endfacet
  facet normal 0 -0.340938 -0.940086
    outer loop
      vertex 33.8 56 -152.301
      vertex 37.4 58.25 -153.117
      vertex 37.4 56 -152.301
    endloop
  endfacet
  facet normal -0 -0.340938 -0.940086
    outer loop
      vertex 37.4 58.25 -153.117
      vertex 33.8 56 -152.301
      vertex 33.8 58.25 -153.117
    endloop
  endfacet
  facet normal 0 -0.340568 0.94022
    outer loop
      vertex 33.8 58.25 -153.886
      vertex 37.4 56 -154.701
      vertex 37.4 58.25 -153.886
    endloop
  endfacet
  facet normal 0 -0.340568 0.94022
    outer loop
      vertex 37.4 56 -154.701
      vertex 33.8 58.25 -153.886
      vertex 33.8 56 -154.701
    endloop
  endfacet
  facet normal 0 -1 0
    outer loop
      vertex 33.8 56 -155.443
      vertex 37.4 56 -154.701
      vertex 33.8 56 -154.701
    endloop
  endfacet
  facet normal 0 -1 -0
    outer loop
      vertex 37.4 56 -154.701
      vertex 33.8 56 -155.443
      vertex 37.4 56 -155.443
    endloop
  endfacet
  facet normal 0 -0.340568 -0.94022
    outer loop
      vertex 33.8 56 -155.443
      vertex 37.4 58.25 -156.258
      vertex 37.4 56 -155.443
    endloop
  endfacet
  facet normal -0 -0.340568 -0.94022
    outer loop
      vertex 37.4 58.25 -156.258
      vertex 33.8 56 -155.443
      vertex 33.8 58.25 -156.258
    endloop
  endfacet
  facet normal 0 -0.340938 0.940086
    outer loop
      vertex 33.8 58.25 -157.027
      vertex 37.4 56 -157.843
      vertex 37.4 58.25 -157.027
    endloop
  endfacet
  facet normal 0 -0.340938 0.940086
    outer loop
      vertex 37.4 56 -157.843
      vertex 33.8 58.25 -157.027
      vertex 33.8 56 -157.843
    endloop
  endfacet
  facet normal 0 -1 0
    outer loop
      vertex 33.8 56 -158.585
      vertex 37.4 56 -157.843
      vertex 33.8 56 -157.843
    endloop
  endfacet
  facet normal 0 -1 -0
    outer loop
      vertex 37.4 56 -157.843
      vertex 33.8 56 -158.585
      vertex 37.4 56 -158.585
    endloop
  endfacet
  facet normal 0 -0.340568 -0.94022
    outer loop
      vertex 33.8 56 -158.585
      vertex 37.4 58.25 -159.4
      vertex 37.4 56 -158.585
    endloop
  endfacet
  facet normal -0 -0.340568 -0.94022
    outer loop
      vertex 37.4 58.25 -159.4
      vertex 33.8 56 -158.585
      vertex 33.8 58.25 -159.4
    endloop
  endfacet
  facet normal 0 -0.340568 0.94022
    outer loop
      vertex 33.8 58.25 -160.169
      vertex 37.4 56 -160.984
      vertex 37.4 58.25 -160.169
    endloop
  endfacet
  facet normal 0 -0.340568 0.94022
    outer loop
      vertex 37.4 56 -160.984
      vertex 33.8 58.25 -160.169
      vertex 33.8 56 -160.984
    endloop
  endfacet
  facet normal 0 -1 0
    outer loop
      vertex 33.8 56 -161.726
      vertex 37.4 56 -160.984
      vertex 33.8 56 -160.984
    endloop
  endfacet
  facet normal 0 -1 -0
    outer loop
      vertex 37.4 56 -160.984
      vertex 33.8 56 -161.726
      vertex 37.4 56 -161.726
    endloop
  endfacet
  facet normal 0 -0.340938 -0.940086
    outer loop
      vertex 33.8 56 -161.726
      vertex 37.4 58.25 -162.542
      vertex 37.4 56 -161.726
    endloop
  endfacet
  facet normal -0 -0.340938 -0.940086
    outer loop
      vertex 37.4 58.25 -162.542
      vertex 33.8 56 -161.726
      vertex 33.8 58.25 -162.542
    endloop
  endfacet
  facet normal 0 -0.340938 0.940086
    outer loop
      vertex 33.8 58.25 -163.31
      vertex 37.4 56 -164.126
      vertex 37.4 58.25 -163.31
    endloop
  endfacet
  facet normal 0 -0.340938 0.940086
    outer loop
      vertex 37.4 56 -164.126
      vertex 33.8 58.25 -163.31
      vertex 33.8 56 -164.126
    endloop
  endfacet
  facet normal 0 -1 0
    outer loop
      vertex 33.8 56 -164.868
      vertex 37.4 56 -164.126
      vertex 33.8 56 -164.126
    endloop
  endfacet
  facet normal 0 -1 -0
    outer loop
      vertex 37.4 56 -164.126
      vertex 33.8 56 -164.868
      vertex 37.4 56 -164.868
    endloop
  endfacet
  facet normal 0 -0.340635 -0.940196
    outer loop
      vertex 33.8 56 -164.868
      vertex 37.4 57.7444 -165.5
      vertex 37.4 56 -164.868
    endloop
  endfacet
  facet normal -0 -0.340635 -0.940196
    outer loop
      vertex 37.4 57.7444 -165.5
      vertex 33.8 56 -164.868
      vertex 33.8 57.7444 -165.5
    endloop
  endfacet
  facet normal 1 -0 0
    outer loop
      vertex 39.6 -44.6 -159.5
      vertex 39.6 42.6 -165.5
      vertex 39.6 42.6 -159.5
    endloop
  endfacet
  facet normal 1 0 0
    outer loop
      vertex 39.6 42.6 -165.5
      vertex 39.6 -44.6 -159.5
      vertex 39.6 42 -173.5
    endloop
  endfacet
  facet normal 1 0 0
    outer loop
      vertex 39.6 -44.6 -199.5
      vertex 39.6 42 -173.5
      vertex 39.6 -44.6 -159.5
    endloop
  endfacet
  facet normal 1 0 0
    outer loop
      vertex 39.6 42 -173.5
      vertex 39.6 -44.6 -199.5
      vertex 39.6 42 -199.5
    endloop
  endfacet
  facet normal 1 -0 0
    outer loop
      vertex 39.6 42.6 -165.5
      vertex 39.6 60 -173.5
      vertex 39.6 60 -165.5
    endloop
  endfacet
  facet normal 1 0 0
    outer loop
      vertex 39.6 60 -173.5
      vertex 39.6 42.6 -165.5
      vertex 39.6 42 -173.5
    endloop
  endfacet
  facet normal -0 0 1
    outer loop
      vertex 37.6 42.6 -159.5
      vertex 39.6 -44.6 -159.5
      vertex 39.6 42.6 -159.5
    endloop
  endfacet
  facet normal 0 0 1
    outer loop
      vertex 39.6 -44.6 -159.5
      vertex 37.6 42.6 -159.5
      vertex 37.6 -44.6 -159.5
    endloop
  endfacet
  facet normal 0 0 -1
    outer loop
      vertex 37.6 -44.6 -199.5
      vertex 39.6 42 -199.5
      vertex 39.6 -44.6 -199.5
    endloop
  endfacet
  facet normal -0 0 -1
    outer loop
      vertex 39.6 42 -199.5
      vertex 37.6 -44.6 -199.5
      vertex 37.6 42 -199.5
    endloop
  endfacet
  facet normal -1 0 0
    outer loop
      vertex 37.6 42 -199.5
      vertex 37.6 -44.6 -199.5
      vertex 37.6 42 -173.5
    endloop
  endfacet
  facet normal -1 0 0
    outer loop
      vertex 37.6 42.5 -173.5
      vertex 37.6 42 -173.5
      vertex 37.6 42.5 -165.5
    endloop
  endfacet
  facet normal -1 0 0
    outer loop
      vertex 37.6 42.5 -165.5
      vertex 37.6 42.6 -159.5
      vertex 37.6 42.6 -165.5
    endloop
  endfacet
  facet normal -1 0 0
    outer loop
      vertex 37.6 -44.6 -159.5
      vertex 37.6 42.5 -165.5
      vertex 37.6 42 -173.5
    endloop
  endfacet
  facet normal -1 0 0
    outer loop
      vertex 37.6 -44.6 -159.5
      vertex 37.6 42 -173.5
      vertex 37.6 -44.6 -199.5
    endloop
  endfacet
  facet normal -1 0 0
    outer loop
      vertex 37.6 42.5 -165.5
      vertex 37.6 -44.6 -159.5
      vertex 37.6 42.6 -159.5
    endloop
  endfacet
  facet normal 0 1 -0
    outer loop
      vertex 39.6 42 -199.5
      vertex 37.6 42 -173.5
      vertex 39.6 42 -173.5
    endloop
  endfacet
  facet normal 0 1 0
    outer loop
      vertex 37.6 42 -173.5
      vertex 39.6 42 -199.5
      vertex 37.6 42 -199.5
    endloop
  endfacet
  facet normal 0 -1 0
    outer loop
      vertex 37.6 -44.6 -199.5
      vertex 39.6 -44.6 -159.5
      vertex 37.6 -44.6 -159.5
    endloop
  endfacet
  facet normal 0 -1 -0
    outer loop
      vertex 39.6 -44.6 -159.5
      vertex 37.6 -44.6 -199.5
      vertex 39.6 -44.6 -199.5
    endloop
  endfacet
  facet normal -0 0 1
    outer loop
      vertex 37.4 57.7444 -165.5
      vertex 39.6 42.6 -165.5
      vertex 39.6 60 -165.5
    endloop
  endfacet
  facet normal 0 0 1
    outer loop
      vertex 37.4 57.7444 -165.5
      vertex 39.6 60 -165.5
      vertex 37.4 60 -165.5
    endloop
  endfacet
  facet normal 0 0 1
    outer loop
      vertex 39.6 42.6 -165.5
      vertex 37.4 57.7444 -165.5
      vertex 37.6 42.6 -165.5
    endloop
  endfacet
  facet normal -0 0 1
    outer loop
      vertex 33.8 57.7444 -165.5
      vertex 37.6 42.6 -165.5
      vertex 37.4 57.7444 -165.5
    endloop
  endfacet
  facet normal 0 0 1
    outer loop
      vertex 37.6 42.6 -165.5
      vertex 33.8 57.7444 -165.5
      vertex 33.8 42.5 -165.5
    endloop
  endfacet
  facet normal 0 0 1
    outer loop
      vertex 37.6 42.6 -165.5
      vertex 33.8 42.5 -165.5
      vertex 37.6 42.5 -165.5
    endloop
  endfacet
  facet normal 0 1 -0
    outer loop
      vertex 39.6 60 -173.5
      vertex 37.4 60 -165.5
      vertex 39.6 60 -165.5
    endloop
  endfacet
  facet normal 0 1 0
    outer loop
      vertex 37.4 60 -165.5
      vertex 39.6 60 -173.5
      vertex 37.4 60 -173.5
    endloop
  endfacet
  facet normal 0 -1 0
    outer loop
      vertex 33.8 42.5 -173.5
      vertex 37.6 42.5 -165.5
      vertex 33.8 42.5 -165.5
    endloop
  endfacet
  facet normal 0 -1 -0
    outer loop
      vertex 37.6 42.5 -165.5
      vertex 33.8 42.5 -173.5
      vertex 37.6 42.5 -173.5
    endloop
  endfacet
  facet normal 0 1 -0
    outer loop
      vertex 39.6 42.6 -165.5
      vertex 37.6 42.6 -159.5
      vertex 39.6 42.6 -159.5
    endloop
  endfacet
  facet normal 0 1 0
    outer loop
      vertex 37.6 42.6 -159.5
      vertex 39.6 42.6 -165.5
      vertex 37.6 42.6 -165.5
    endloop
  endfacet
endsolid OpenSCAD_Model
