solid OpenSCAD_Model
  facet normal 1 -0 0
    outer loop
      vertex 37.4 34 -134
      vertex 37.4 37.75 -134.102
      vertex 37.4 37.75 -134
    endloop
  endfacet
  facet normal 1 0 0
    outer loop
      vertex 37.4 37.75 -134.102
      vertex 37.4 34 -134
      vertex 37.4 37.75 -136.474
    endloop
  endfacet
  facet normal 1 0 0
    outer loop
      vertex 37.4 37.75 -136.474
      vertex 37.4 34 -134
      vertex 37.4 37.75 -137.243
    endloop
  endfacet
  facet normal 1 0 0
    outer loop
      vertex 37.4 37.75 -137.243
      vertex 37.4 34 -134
      vertex 37.4 37.75 -139.616
    endloop
  endfacet
  facet normal 1 0 0
    outer loop
      vertex 37.4 37.75 -139.616
      vertex 37.4 34 -134
      vertex 37.4 37.75 -140.385
    endloop
  endfacet
  facet normal 1 0 0
    outer loop
      vertex 37.4 37.75 -140.385
      vertex 37.4 34 -134
      vertex 37.4 37.75 -142.757
    endloop
  endfacet
  facet normal 1 0 0
    outer loop
      vertex 37.4 37.75 -142.757
      vertex 37.4 34 -134
      vertex 37.4 37.75 -143.526
    endloop
  endfacet
  facet normal 1 0 0
    outer loop
      vertex 37.4 37.75 -143.526
      vertex 37.4 34 -134
      vertex 37.4 37.75 -145.899
    endloop
  endfacet
  facet normal 1 0 0
    outer loop
      vertex 37.4 37.75 -145.899
      vertex 37.4 34 -134
      vertex 37.4 37.75 -146.668
    endloop
  endfacet
  facet normal 1 0 0
    outer loop
      vertex 37.4 37.75 -146.668
      vertex 37.4 34 -134
      vertex 37.4 37.75 -149.041
    endloop
  endfacet
  facet normal 1 0 0
    outer loop
      vertex 37.4 37.75 -149.041
      vertex 37.4 34 -134
      vertex 37.4 37.75 -149.809
    endloop
  endfacet
  facet normal 1 0 0
    outer loop
      vertex 37.4 37.75 -149.809
      vertex 37.4 34 -134
      vertex 37.4 37.75 -152.182
    endloop
  endfacet
  facet normal 1 0 0
    outer loop
      vertex 37.4 37.75 -152.182
      vertex 37.4 34 -134
      vertex 37.4 37.75 -152.951
    endloop
  endfacet
  facet normal 1 0 0
    outer loop
      vertex 37.4 37.75 -152.951
      vertex 37.4 34 -134
      vertex 37.4 37.75 -155.324
    endloop
  endfacet
  facet normal 1 0 0
    outer loop
      vertex 37.4 34 -174
      vertex 37.4 37.75 -155.324
      vertex 37.4 34 -134
    endloop
  endfacet
  facet normal 1 0 0
    outer loop
      vertex 37.4 37.75 -155.324
      vertex 37.4 34 -174
      vertex 37.4 37.75 -156.093
    endloop
  endfacet
  facet normal 1 0 0
    outer loop
      vertex 37.4 37.75 -156.093
      vertex 37.4 34 -174
      vertex 37.4 37.75 -158.465
    endloop
  endfacet
  facet normal 1 0 0
    outer loop
      vertex 37.4 37.75 -158.465
      vertex 37.4 34 -174
      vertex 37.4 37.75 -159.234
    endloop
  endfacet
  facet normal 1 0 0
    outer loop
      vertex 37.4 37.75 -159.234
      vertex 37.4 34 -174
      vertex 37.4 37.75 -161.607
    endloop
  endfacet
  facet normal 1 0 0
    outer loop
      vertex 37.4 37.75 -161.607
      vertex 37.4 34 -174
      vertex 37.4 37.75 -162.376
    endloop
  endfacet
  facet normal 1 0 0
    outer loop
      vertex 37.4 37.75 -162.376
      vertex 37.4 34 -174
      vertex 37.4 37.75 -164.749
    endloop
  endfacet
  facet normal 1 0 0
    outer loop
      vertex 37.4 37.75 -164.749
      vertex 37.4 34 -174
      vertex 37.4 37.75 -165.517
    endloop
  endfacet
  facet normal 1 0 0
    outer loop
      vertex 37.4 37.75 -165.517
      vertex 37.4 34 -174
      vertex 37.4 37.75 -167.89
    endloop
  endfacet
  facet normal 1 0 0
    outer loop
      vertex 37.4 37.75 -167.89
      vertex 37.4 34 -174
      vertex 37.4 37.75 -168.659
    endloop
  endfacet
  facet normal 1 0 0
    outer loop
      vertex 37.4 37.75 -168.659
      vertex 37.4 34 -174
      vertex 37.4 37.75 -171.032
    endloop
  endfacet
  facet normal 1 0 0
    outer loop
      vertex 37.4 37.75 -171.032
      vertex 37.4 34 -174
      vertex 37.4 37.75 -174
    endloop
  endfacet
  facet normal 1 0 0
    outer loop
      vertex 37.4 37.75 -134.102
      vertex 37.4 40 -135.659
      vertex 37.4 40 -134.917
    endloop
  endfacet
  facet normal 1 0 0
    outer loop
      vertex 37.4 40 -135.659
      vertex 37.4 37.75 -134.102
      vertex 37.4 37.75 -136.474
    endloop
  endfacet
  facet normal 1 0 0
    outer loop
      vertex 37.4 37.75 -137.243
      vertex 37.4 40 -138.8
      vertex 37.4 40 -138.058
    endloop
  endfacet
  facet normal 1 0 0
    outer loop
      vertex 37.4 40 -138.8
      vertex 37.4 37.75 -137.243
      vertex 37.4 37.75 -139.616
    endloop
  endfacet
  facet normal 1 0 0
    outer loop
      vertex 37.4 37.75 -140.385
      vertex 37.4 40 -141.942
      vertex 37.4 40 -141.2
    endloop
  endfacet
  facet normal 1 0 0
    outer loop
      vertex 37.4 40 -141.942
      vertex 37.4 37.75 -140.385
      vertex 37.4 37.75 -142.757
    endloop
  endfacet
  facet normal 1 0 0
    outer loop
      vertex 37.4 37.75 -143.526
      vertex 37.4 40 -145.084
      vertex 37.4 40 -144.342
    endloop
  endfacet
  facet normal 1 0 0
    outer loop
      vertex 37.4 40 -145.084
      vertex 37.4 37.75 -143.526
      vertex 37.4 37.75 -145.899
    endloop
  endfacet
  facet normal 1 0 0
    outer loop
      vertex 37.4 37.75 -146.668
      vertex 37.4 40 -148.225
      vertex 37.4 40 -147.483
    endloop
  endfacet
  facet normal 1 0 0
    outer loop
      vertex 37.4 40 -148.225
      vertex 37.4 37.75 -146.668
      vertex 37.4 37.75 -149.041
    endloop
  endfacet
  facet normal 1 0 0
    outer loop
      vertex 37.4 37.75 -149.809
      vertex 37.4 40 -151.367
      vertex 37.4 40 -150.625
    endloop
  endfacet
  facet normal 1 0 0
    outer loop
      vertex 37.4 40 -151.367
      vertex 37.4 37.75 -149.809
      vertex 37.4 37.75 -152.182
    endloop
  endfacet
  facet normal 1 0 0
    outer loop
      vertex 37.4 37.75 -152.951
      vertex 37.4 40 -154.508
      vertex 37.4 40 -153.766
    endloop
  endfacet
  facet normal 1 0 0
    outer loop
      vertex 37.4 40 -154.508
      vertex 37.4 37.75 -152.951
      vertex 37.4 37.75 -155.324
    endloop
  endfacet
  facet normal 1 0 0
    outer loop
      vertex 37.4 37.75 -156.093
      vertex 37.4 40 -157.65
      vertex 37.4 40 -156.908
    endloop
  endfacet
  facet normal 1 0 0
    outer loop
      vertex 37.4 40 -157.65
      vertex 37.4 37.75 -156.093
      vertex 37.4 37.75 -158.465
    endloop
  endfacet
  facet normal 1 0 0
    outer loop
      vertex 37.4 37.75 -159.234
      vertex 37.4 40 -160.792
      vertex 37.4 40 -160.05
    endloop
  endfacet
  facet normal 1 0 0
    outer loop
      vertex 37.4 40 -160.792
      vertex 37.4 37.75 -159.234
      vertex 37.4 37.75 -161.607
    endloop
  endfacet
  facet normal 1 0 0
    outer loop
      vertex 37.4 37.75 -162.376
      vertex 37.4 40 -163.933
      vertex 37.4 40 -163.191
    endloop
  endfacet
  facet normal 1 0 0
    outer loop
      vertex 37.4 40 -163.933
      vertex 37.4 37.75 -162.376
      vertex 37.4 37.75 -164.749
    endloop
  endfacet
  facet normal 1 0 0
    outer loop
      vertex 37.4 37.75 -165.517
      vertex 37.4 40 -167.075
      vertex 37.4 40 -166.333
    endloop
  endfacet
  facet normal 1 0 0
    outer loop
      vertex 37.4 40 -167.075
      vertex 37.4 37.75 -165.517
      vertex 37.4 37.75 -167.89
    endloop
  endfacet
  facet normal 1 0 0
    outer loop
      vertex 37.4 37.75 -168.659
      vertex 37.4 40 -170.216
      vertex 37.4 40 -169.474
    endloop
  endfacet
  facet normal 1 0 0
    outer loop
      vertex 37.4 40 -170.216
      vertex 37.4 37.75 -168.659
      vertex 37.4 37.75 -171.032
    endloop
  endfacet
  facet normal 1 0 0
    outer loop
      vertex 37.4 37.75 -124.677
      vertex 37.4 40 -126.234
      vertex 37.4 40 -125.492
    endloop
  endfacet
  facet normal 1 0 0
    outer loop
      vertex 37.4 40 -126.234
      vertex 37.4 37.75 -124.677
      vertex 37.4 37.75 -127.049
    endloop
  endfacet
  facet normal 1 0 0
    outer loop
      vertex 37.4 37.75 -127.818
      vertex 37.4 40 -129.376
      vertex 37.4 40 -128.634
    endloop
  endfacet
  facet normal 1 0 0
    outer loop
      vertex 37.4 40 -129.376
      vertex 37.4 37.75 -127.818
      vertex 37.4 37.75 -130.191
    endloop
  endfacet
  facet normal 1 0 0
    outer loop
      vertex 37.4 37.75 -130.96
      vertex 37.4 40 -132.517
      vertex 37.4 40 -131.775
    endloop
  endfacet
  facet normal 1 0 0
    outer loop
      vertex 37.4 40 -132.517
      vertex 37.4 37.75 -130.96
      vertex 37.4 37.75 -133.333
    endloop
  endfacet
  facet normal -0 0 1
    outer loop
      vertex 33.8 37.75 -124
      vertex 37.6 34 -124
      vertex 37.6 37.75 -124
    endloop
  endfacet
  facet normal 0 0 1
    outer loop
      vertex 37.6 34 -124
      vertex 33.8 37.75 -124
      vertex 33.8 34 -124
    endloop
  endfacet
  facet normal 0 0 -1
    outer loop
      vertex 33.8 34 -174
      vertex 37.4 37.75 -174
      vertex 37.4 34 -174
    endloop
  endfacet
  facet normal -0 0 -1
    outer loop
      vertex 37.4 37.75 -174
      vertex 33.8 34 -174
      vertex 33.8 37.75 -174
    endloop
  endfacet
  facet normal -1 0 0
    outer loop
      vertex 33.8 34 -174
      vertex 33.8 37.75 -171.032
      vertex 33.8 37.75 -174
    endloop
  endfacet
  facet normal -1 -0 0
    outer loop
      vertex 33.8 37.75 -171.032
      vertex 33.8 34 -174
      vertex 33.8 37.75 -168.659
    endloop
  endfacet
  facet normal -1 -0 0
    outer loop
      vertex 33.8 37.75 -168.659
      vertex 33.8 34 -174
      vertex 33.8 37.75 -167.89
    endloop
  endfacet
  facet normal -1 -0 0
    outer loop
      vertex 33.8 37.75 -167.89
      vertex 33.8 34 -174
      vertex 33.8 37.75 -165.517
    endloop
  endfacet
  facet normal -1 -0 0
    outer loop
      vertex 33.8 37.75 -165.517
      vertex 33.8 34 -174
      vertex 33.8 37.75 -164.749
    endloop
  endfacet
  facet normal -1 -0 0
    outer loop
      vertex 33.8 37.75 -164.749
      vertex 33.8 34 -174
      vertex 33.8 37.75 -162.376
    endloop
  endfacet
  facet normal -1 -0 0
    outer loop
      vertex 33.8 37.75 -162.376
      vertex 33.8 34 -174
      vertex 33.8 37.75 -161.607
    endloop
  endfacet
  facet normal -1 -0 0
    outer loop
      vertex 33.8 37.75 -161.607
      vertex 33.8 34 -174
      vertex 33.8 37.75 -159.234
    endloop
  endfacet
  facet normal -1 -0 0
    outer loop
      vertex 33.8 37.75 -159.234
      vertex 33.8 34 -174
      vertex 33.8 37.75 -158.465
    endloop
  endfacet
  facet normal -1 -0 0
    outer loop
      vertex 33.8 37.75 -158.465
      vertex 33.8 34 -174
      vertex 33.8 37.75 -156.093
    endloop
  endfacet
  facet normal -1 -0 0
    outer loop
      vertex 33.8 37.75 -156.093
      vertex 33.8 34 -174
      vertex 33.8 37.75 -155.324
    endloop
  endfacet
  facet normal -1 -0 0
    outer loop
      vertex 33.8 37.75 -155.324
      vertex 33.8 34 -174
      vertex 33.8 37.75 -152.951
    endloop
  endfacet
  facet normal -1 -0 0
    outer loop
      vertex 33.8 37.75 -152.951
      vertex 33.8 34 -174
      vertex 33.8 37.75 -152.182
    endloop
  endfacet
  facet normal -1 -0 0
    outer loop
      vertex 33.8 37.75 -152.182
      vertex 33.8 34 -174
      vertex 33.8 37.75 -149.809
    endloop
  endfacet
  facet normal -1 -0 0
    outer loop
      vertex 33.8 37.75 -149.809
      vertex 33.8 34 -174
      vertex 33.8 37.75 -149.041
    endloop
  endfacet
  facet normal -1 0 0
    outer loop
      vertex 33.8 34 -124
      vertex 33.8 37.75 -149.041
      vertex 33.8 34 -174
    endloop
  endfacet
  facet normal -1 0 0
    outer loop
      vertex 33.8 37.75 -149.041
      vertex 33.8 34 -124
      vertex 33.8 37.75 -146.668
    endloop
  endfacet
  facet normal -1 0 0
    outer loop
      vertex 33.8 37.75 -146.668
      vertex 33.8 34 -124
      vertex 33.8 37.75 -145.899
    endloop
  endfacet
  facet normal -1 0 0
    outer loop
      vertex 33.8 37.75 -145.899
      vertex 33.8 34 -124
      vertex 33.8 37.75 -143.526
    endloop
  endfacet
  facet normal -1 0 0
    outer loop
      vertex 33.8 37.75 -143.526
      vertex 33.8 34 -124
      vertex 33.8 37.75 -142.757
    endloop
  endfacet
  facet normal -1 0 0
    outer loop
      vertex 33.8 37.75 -142.757
      vertex 33.8 34 -124
      vertex 33.8 37.75 -140.385
    endloop
  endfacet
  facet normal -1 0 0
    outer loop
      vertex 33.8 37.75 -140.385
      vertex 33.8 34 -124
      vertex 33.8 37.75 -139.616
    endloop
  endfacet
  facet normal -1 0 0
    outer loop
      vertex 33.8 37.75 -139.616
      vertex 33.8 34 -124
      vertex 33.8 37.75 -137.243
    endloop
  endfacet
  facet normal -1 0 0
    outer loop
      vertex 33.8 37.75 -137.243
      vertex 33.8 34 -124
      vertex 33.8 37.75 -136.474
    endloop
  endfacet
  facet normal -1 0 0
    outer loop
      vertex 33.8 37.75 -136.474
      vertex 33.8 34 -124
      vertex 33.8 37.75 -134.102
    endloop
  endfacet
  facet normal -1 0 0
    outer loop
      vertex 33.8 37.75 -134.102
      vertex 33.8 34 -124
      vertex 33.8 37.75 -133.333
    endloop
  endfacet
  facet normal -1 0 0
    outer loop
      vertex 33.8 37.75 -133.333
      vertex 33.8 34 -124
      vertex 33.8 37.75 -130.96
    endloop
  endfacet
  facet normal -1 0 0
    outer loop
      vertex 33.8 37.75 -130.96
      vertex 33.8 34 -124
      vertex 33.8 37.75 -130.191
    endloop
  endfacet
  facet normal -1 0 0
    outer loop
      vertex 33.8 37.75 -130.191
      vertex 33.8 34 -124
      vertex 33.8 37.75 -127.818
    endloop
  endfacet
  facet normal -1 0 0
    outer loop
      vertex 33.8 37.75 -127.818
      vertex 33.8 34 -124
      vertex 33.8 37.75 -127.049
    endloop
  endfacet
  facet normal -1 0 0
    outer loop
      vertex 33.8 37.75 -127.049
      vertex 33.8 34 -124
      vertex 33.8 37.75 -124.677
    endloop
  endfacet
  facet normal -1 0 0
    outer loop
      vertex 33.8 37.75 -124.677
      vertex 33.8 34 -124
      vertex 33.8 37.75 -124
    endloop
  endfacet
  facet normal -1 0 0
    outer loop
      vertex 33.8 37.75 -171.032
      vertex 33.8 40 -169.474
      vertex 33.8 40 -170.216
    endloop
  endfacet
  facet normal -1 -0 0
    outer loop
      vertex 33.8 40 -169.474
      vertex 33.8 37.75 -171.032
      vertex 33.8 37.75 -168.659
    endloop
  endfacet
  facet normal -1 0 0
    outer loop
      vertex 33.8 37.75 -167.89
      vertex 33.8 40 -166.333
      vertex 33.8 40 -167.075
    endloop
  endfacet
  facet normal -1 -0 0
    outer loop
      vertex 33.8 40 -166.333
      vertex 33.8 37.75 -167.89
      vertex 33.8 37.75 -165.517
    endloop
  endfacet
  facet normal -1 0 0
    outer loop
      vertex 33.8 37.75 -164.749
      vertex 33.8 40 -163.191
      vertex 33.8 40 -163.933
    endloop
  endfacet
  facet normal -1 -0 0
    outer loop
      vertex 33.8 40 -163.191
      vertex 33.8 37.75 -164.749
      vertex 33.8 37.75 -162.376
    endloop
  endfacet
  facet normal -1 0 0
    outer loop
      vertex 33.8 37.75 -161.607
      vertex 33.8 40 -160.05
      vertex 33.8 40 -160.792
    endloop
  endfacet
  facet normal -1 -0 0
    outer loop
      vertex 33.8 40 -160.05
      vertex 33.8 37.75 -161.607
      vertex 33.8 37.75 -159.234
    endloop
  endfacet
  facet normal -1 0 0
    outer loop
      vertex 33.8 37.75 -158.465
      vertex 33.8 40 -156.908
      vertex 33.8 40 -157.65
    endloop
  endfacet
  facet normal -1 -0 0
    outer loop
      vertex 33.8 40 -156.908
      vertex 33.8 37.75 -158.465
      vertex 33.8 37.75 -156.093
    endloop
  endfacet
  facet normal -1 0 0
    outer loop
      vertex 33.8 37.75 -155.324
      vertex 33.8 40 -153.766
      vertex 33.8 40 -154.508
    endloop
  endfacet
  facet normal -1 -0 0
    outer loop
      vertex 33.8 40 -153.766
      vertex 33.8 37.75 -155.324
      vertex 33.8 37.75 -152.951
    endloop
  endfacet
  facet normal -1 0 0
    outer loop
      vertex 33.8 37.75 -152.182
      vertex 33.8 40 -150.625
      vertex 33.8 40 -151.367
    endloop
  endfacet
  facet normal -1 -0 0
    outer loop
      vertex 33.8 40 -150.625
      vertex 33.8 37.75 -152.182
      vertex 33.8 37.75 -149.809
    endloop
  endfacet
  facet normal -1 0 0
    outer loop
      vertex 33.8 37.75 -149.041
      vertex 33.8 40 -147.483
      vertex 33.8 40 -148.225
    endloop
  endfacet
  facet normal -1 -0 0
    outer loop
      vertex 33.8 40 -147.483
      vertex 33.8 37.75 -149.041
      vertex 33.8 37.75 -146.668
    endloop
  endfacet
  facet normal -1 0 0
    outer loop
      vertex 33.8 37.75 -145.899
      vertex 33.8 40 -144.342
      vertex 33.8 40 -145.084
    endloop
  endfacet
  facet normal -1 -0 0
    outer loop
      vertex 33.8 40 -144.342
      vertex 33.8 37.75 -145.899
      vertex 33.8 37.75 -143.526
    endloop
  endfacet
  facet normal -1 0 0
    outer loop
      vertex 33.8 37.75 -142.757
      vertex 33.8 40 -141.2
      vertex 33.8 40 -141.942
    endloop
  endfacet
  facet normal -1 -0 0
    outer loop
      vertex 33.8 40 -141.2
      vertex 33.8 37.75 -142.757
      vertex 33.8 37.75 -140.385
    endloop
  endfacet
  facet normal -1 0 0
    outer loop
      vertex 33.8 37.75 -139.616
      vertex 33.8 40 -138.058
      vertex 33.8 40 -138.8
    endloop
  endfacet
  facet normal -1 -0 0
    outer loop
      vertex 33.8 40 -138.058
      vertex 33.8 37.75 -139.616
      vertex 33.8 37.75 -137.243
    endloop
  endfacet
  facet normal -1 0 0
    outer loop
      vertex 33.8 37.75 -136.474
      vertex 33.8 40 -134.917
      vertex 33.8 40 -135.659
    endloop
  endfacet
  facet normal -1 -0 0
    outer loop
      vertex 33.8 40 -134.917
      vertex 33.8 37.75 -136.474
      vertex 33.8 37.75 -134.102
    endloop
  endfacet
  facet normal -1 0 0
    outer loop
      vertex 33.8 37.75 -133.333
      vertex 33.8 40 -131.775
      vertex 33.8 40 -132.517
    endloop
  endfacet
  facet normal -1 -0 0
    outer loop
      vertex 33.8 40 -131.775
      vertex 33.8 37.75 -133.333
      vertex 33.8 37.75 -130.96
    endloop
  endfacet
  facet normal -1 0 0
    outer loop
      vertex 33.8 37.75 -130.191
      vertex 33.8 40 -128.634
      vertex 33.8 40 -129.376
    endloop
  endfacet
  facet normal -1 -0 0
    outer loop
      vertex 33.8 40 -128.634
      vertex 33.8 37.75 -130.191
      vertex 33.8 37.75 -127.818
    endloop
  endfacet
  facet normal -1 0 0
    outer loop
      vertex 33.8 37.75 -127.049
      vertex 33.8 40 -125.492
      vertex 33.8 40 -126.234
    endloop
  endfacet
  facet normal -1 -0 0
    outer loop
      vertex 33.8 40 -125.492
      vertex 33.8 37.75 -127.049
      vertex 33.8 37.75 -124.677
    endloop
  endfacet
  facet normal 0 1 0
    outer loop
      vertex 37.6 37.75 -124
      vertex 37.4 37.75 -124.677
      vertex 33.8 37.75 -124
    endloop
  endfacet
  facet normal 0 1 0
    outer loop
      vertex 37.6 37.75 -124
      vertex 37.4 37.75 -127.049
      vertex 37.4 37.75 -124.677
    endloop
  endfacet
  facet normal 0 1 0
    outer loop
      vertex 37.4 37.75 -127.049
      vertex 37.4 37.75 -127.818
      vertex 33.8 37.75 -127.049
    endloop
  endfacet
  facet normal 0 1 0
    outer loop
      vertex 37.6 37.75 -124
      vertex 37.4 37.75 -127.818
      vertex 37.4 37.75 -127.049
    endloop
  endfacet
  facet normal 0 1 0
    outer loop
      vertex 37.6 37.75 -124
      vertex 37.4 37.75 -130.191
      vertex 37.4 37.75 -127.818
    endloop
  endfacet
  facet normal 0 1 0
    outer loop
      vertex 37.4 37.75 -130.191
      vertex 37.4 37.75 -130.96
      vertex 33.8 37.75 -130.191
    endloop
  endfacet
  facet normal 0 1 -0
    outer loop
      vertex 37.6 37.75 -134
      vertex 37.4 37.75 -130.191
      vertex 37.6 37.75 -124
    endloop
  endfacet
  facet normal 0 1 0
    outer loop
      vertex 37.4 37.75 -130.191
      vertex 37.6 37.75 -134
      vertex 37.4 37.75 -130.96
    endloop
  endfacet
  facet normal 0 1 0
    outer loop
      vertex 37.4 37.75 -130.96
      vertex 37.6 37.75 -134
      vertex 37.4 37.75 -133.333
    endloop
  endfacet
  facet normal 0 1 0
    outer loop
      vertex 37.4 37.75 -134
      vertex 37.4 37.75 -133.333
      vertex 37.6 37.75 -134
    endloop
  endfacet
  facet normal 0 1 0
    outer loop
      vertex 37.4 37.75 -133.333
      vertex 37.4 37.75 -134
      vertex 33.8 37.75 -133.333
    endloop
  endfacet
  facet normal 0 1 0
    outer loop
      vertex 33.8 37.75 -134.102
      vertex 37.4 37.75 -134
      vertex 37.4 37.75 -134.102
    endloop
  endfacet
  facet normal 0 1 0
    outer loop
      vertex 37.4 37.75 -134
      vertex 33.8 37.75 -134.102
      vertex 33.8 37.75 -133.333
    endloop
  endfacet
  facet normal 0 1 0
    outer loop
      vertex 33.8 37.75 -124
      vertex 37.4 37.75 -124.677
      vertex 33.8 37.75 -124.677
    endloop
  endfacet
  facet normal 0 1 0
    outer loop
      vertex 33.8 37.75 -127.049
      vertex 37.4 37.75 -127.818
      vertex 33.8 37.75 -127.818
    endloop
  endfacet
  facet normal 0 1 0
    outer loop
      vertex 33.8 37.75 -130.191
      vertex 37.4 37.75 -130.96
      vertex 33.8 37.75 -130.96
    endloop
  endfacet
  facet normal 0 1 -0
    outer loop
      vertex 37.4 37.75 -174
      vertex 33.8 37.75 -171.032
      vertex 37.4 37.75 -171.032
    endloop
  endfacet
  facet normal 0 1 0
    outer loop
      vertex 33.8 37.75 -171.032
      vertex 37.4 37.75 -174
      vertex 33.8 37.75 -174
    endloop
  endfacet
  facet normal 0 1 -0
    outer loop
      vertex 37.4 37.75 -149.809
      vertex 33.8 37.75 -149.041
      vertex 37.4 37.75 -149.041
    endloop
  endfacet
  facet normal 0 1 0
    outer loop
      vertex 33.8 37.75 -149.041
      vertex 37.4 37.75 -149.809
      vertex 33.8 37.75 -149.809
    endloop
  endfacet
  facet normal 0 1 -0
    outer loop
      vertex 37.4 37.75 -152.951
      vertex 33.8 37.75 -152.182
      vertex 37.4 37.75 -152.182
    endloop
  endfacet
  facet normal 0 1 0
    outer loop
      vertex 33.8 37.75 -152.182
      vertex 37.4 37.75 -152.951
      vertex 33.8 37.75 -152.951
    endloop
  endfacet
  facet normal 0 1 -0
    outer loop
      vertex 37.4 37.75 -156.093
      vertex 33.8 37.75 -155.324
      vertex 37.4 37.75 -155.324
    endloop
  endfacet
  facet normal 0 1 0
    outer loop
      vertex 33.8 37.75 -155.324
      vertex 37.4 37.75 -156.093
      vertex 33.8 37.75 -156.093
    endloop
  endfacet
  facet normal 0 1 -0
    outer loop
      vertex 37.4 37.75 -159.234
      vertex 33.8 37.75 -158.465
      vertex 37.4 37.75 -158.465
    endloop
  endfacet
  facet normal 0 1 0
    outer loop
      vertex 33.8 37.75 -158.465
      vertex 37.4 37.75 -159.234
      vertex 33.8 37.75 -159.234
    endloop
  endfacet
  facet normal 0 1 -0
    outer loop
      vertex 37.4 37.75 -162.376
      vertex 33.8 37.75 -161.607
      vertex 37.4 37.75 -161.607
    endloop
  endfacet
  facet normal 0 1 0
    outer loop
      vertex 33.8 37.75 -161.607
      vertex 37.4 37.75 -162.376
      vertex 33.8 37.75 -162.376
    endloop
  endfacet
  facet normal 0 1 -0
    outer loop
      vertex 37.4 37.75 -165.517
      vertex 33.8 37.75 -164.749
      vertex 37.4 37.75 -164.749
    endloop
  endfacet
  facet normal 0 1 0
    outer loop
      vertex 33.8 37.75 -164.749
      vertex 37.4 37.75 -165.517
      vertex 33.8 37.75 -165.517
    endloop
  endfacet
  facet normal 0 1 -0
    outer loop
      vertex 37.4 37.75 -168.659
      vertex 33.8 37.75 -167.89
      vertex 37.4 37.75 -167.89
    endloop
  endfacet
  facet normal 0 1 0
    outer loop
      vertex 33.8 37.75 -167.89
      vertex 37.4 37.75 -168.659
      vertex 33.8 37.75 -168.659
    endloop
  endfacet
  facet normal 0 1 -0
    outer loop
      vertex 37.4 37.75 -137.243
      vertex 33.8 37.75 -136.474
      vertex 37.4 37.75 -136.474
    endloop
  endfacet
  facet normal 0 1 0
    outer loop
      vertex 33.8 37.75 -136.474
      vertex 37.4 37.75 -137.243
      vertex 33.8 37.75 -137.243
    endloop
  endfacet
  facet normal 0 1 -0
    outer loop
      vertex 37.4 37.75 -140.385
      vertex 33.8 37.75 -139.616
      vertex 37.4 37.75 -139.616
    endloop
  endfacet
  facet normal 0 1 0
    outer loop
      vertex 33.8 37.75 -139.616
      vertex 37.4 37.75 -140.385
      vertex 33.8 37.75 -140.385
    endloop
  endfacet
  facet normal 0 1 -0
    outer loop
      vertex 37.4 37.75 -143.526
      vertex 33.8 37.75 -142.757
      vertex 37.4 37.75 -142.757
    endloop
  endfacet
  facet normal 0 1 0
    outer loop
      vertex 33.8 37.75 -142.757
      vertex 37.4 37.75 -143.526
      vertex 33.8 37.75 -143.526
    endloop
  endfacet
  facet normal 0 1 -0
    outer loop
      vertex 37.4 37.75 -146.668
      vertex 33.8 37.75 -145.899
      vertex 37.4 37.75 -145.899
    endloop
  endfacet
  facet normal 0 1 0
    outer loop
      vertex 33.8 37.75 -145.899
      vertex 37.4 37.75 -146.668
      vertex 33.8 37.75 -146.668
    endloop
  endfacet
  facet normal 0 -1 0
    outer loop
      vertex 33.8 34 -124
      vertex 37.4 34 -134
      vertex 37.6 34 -124
    endloop
  endfacet
  facet normal 0 -1 0
    outer loop
      vertex 33.8 34 -174
      vertex 37.4 34 -134
      vertex 33.8 34 -124
    endloop
  endfacet
  facet normal 0 -1 -0
    outer loop
      vertex 37.4 34 -134
      vertex 33.8 34 -174
      vertex 37.4 34 -174
    endloop
  endfacet
  facet normal 0 -1 -0
    outer loop
      vertex 37.6 34 -124
      vertex 37.4 34 -134
      vertex 37.6 34 -134
    endloop
  endfacet
  facet normal 0 1 -0
    outer loop
      vertex 37.4 40 -126.234
      vertex 33.8 40 -125.492
      vertex 37.4 40 -125.492
    endloop
  endfacet
  facet normal 0 1 0
    outer loop
      vertex 33.8 40 -125.492
      vertex 37.4 40 -126.234
      vertex 33.8 40 -126.234
    endloop
  endfacet
  facet normal -0 0.340568 0.94022
    outer loop
      vertex 33.8 40 -125.492
      vertex 37.4 37.75 -124.677
      vertex 37.4 40 -125.492
    endloop
  endfacet
  facet normal 0 0.340568 0.94022
    outer loop
      vertex 37.4 37.75 -124.677
      vertex 33.8 40 -125.492
      vertex 33.8 37.75 -124.677
    endloop
  endfacet
  facet normal 0 0.340568 -0.94022
    outer loop
      vertex 33.8 37.75 -127.049
      vertex 37.4 40 -126.234
      vertex 37.4 37.75 -127.049
    endloop
  endfacet
  facet normal 0 0.340568 -0.94022
    outer loop
      vertex 37.4 40 -126.234
      vertex 33.8 37.75 -127.049
      vertex 33.8 40 -126.234
    endloop
  endfacet
  facet normal 0 1 -0
    outer loop
      vertex 37.4 40 -129.376
      vertex 33.8 40 -128.634
      vertex 37.4 40 -128.634
    endloop
  endfacet
  facet normal 0 1 0
    outer loop
      vertex 33.8 40 -128.634
      vertex 37.4 40 -129.376
      vertex 33.8 40 -129.376
    endloop
  endfacet
  facet normal -0 0.340938 0.940086
    outer loop
      vertex 33.8 40 -128.634
      vertex 37.4 37.75 -127.818
      vertex 37.4 40 -128.634
    endloop
  endfacet
  facet normal 0 0.340938 0.940086
    outer loop
      vertex 37.4 37.75 -127.818
      vertex 33.8 40 -128.634
      vertex 33.8 37.75 -127.818
    endloop
  endfacet
  facet normal 0 0.340568 -0.94022
    outer loop
      vertex 33.8 37.75 -130.191
      vertex 37.4 40 -129.376
      vertex 37.4 37.75 -130.191
    endloop
  endfacet
  facet normal 0 0.340568 -0.94022
    outer loop
      vertex 37.4 40 -129.376
      vertex 33.8 37.75 -130.191
      vertex 33.8 40 -129.376
    endloop
  endfacet
  facet normal 0 1 -0
    outer loop
      vertex 37.4 40 -132.517
      vertex 33.8 40 -131.775
      vertex 37.4 40 -131.775
    endloop
  endfacet
  facet normal 0 1 0
    outer loop
      vertex 33.8 40 -131.775
      vertex 37.4 40 -132.517
      vertex 33.8 40 -132.517
    endloop
  endfacet
  facet normal -0 0.340568 0.94022
    outer loop
      vertex 33.8 40 -131.775
      vertex 37.4 37.75 -130.96
      vertex 37.4 40 -131.775
    endloop
  endfacet
  facet normal 0 0.340568 0.94022
    outer loop
      vertex 37.4 37.75 -130.96
      vertex 33.8 40 -131.775
      vertex 33.8 37.75 -130.96
    endloop
  endfacet
  facet normal 0 0.340938 -0.940086
    outer loop
      vertex 33.8 37.75 -133.333
      vertex 37.4 40 -132.517
      vertex 37.4 37.75 -133.333
    endloop
  endfacet
  facet normal 0 0.340938 -0.940086
    outer loop
      vertex 37.4 40 -132.517
      vertex 33.8 37.75 -133.333
      vertex 33.8 40 -132.517
    endloop
  endfacet
  facet normal 0 1 -0
    outer loop
      vertex 37.4 40 -135.659
      vertex 33.8 40 -134.917
      vertex 37.4 40 -134.917
    endloop
  endfacet
  facet normal 0 1 0
    outer loop
      vertex 33.8 40 -134.917
      vertex 37.4 40 -135.659
      vertex 33.8 40 -135.659
    endloop
  endfacet
  facet normal -0 0.340568 0.94022
    outer loop
      vertex 33.8 40 -134.917
      vertex 37.4 37.75 -134.102
      vertex 37.4 40 -134.917
    endloop
  endfacet
  facet normal 0 0.340568 0.94022
    outer loop
      vertex 37.4 37.75 -134.102
      vertex 33.8 40 -134.917
      vertex 33.8 37.75 -134.102
    endloop
  endfacet
  facet normal 0 0.340568 -0.94022
    outer loop
      vertex 33.8 37.75 -136.474
      vertex 37.4 40 -135.659
      vertex 37.4 37.75 -136.474
    endloop
  endfacet
  facet normal 0 0.340568 -0.94022
    outer loop
      vertex 37.4 40 -135.659
      vertex 33.8 37.75 -136.474
      vertex 33.8 40 -135.659
    endloop
  endfacet
  facet normal 0 1 -0
    outer loop
      vertex 37.4 40 -138.8
      vertex 33.8 40 -138.058
      vertex 37.4 40 -138.058
    endloop
  endfacet
  facet normal 0 1 0
    outer loop
      vertex 33.8 40 -138.058
      vertex 37.4 40 -138.8
      vertex 33.8 40 -138.8
    endloop
  endfacet
  facet normal -0 0.340568 0.94022
    outer loop
      vertex 33.8 40 -138.058
      vertex 37.4 37.75 -137.243
      vertex 37.4 40 -138.058
    endloop
  endfacet
  facet normal 0 0.340568 0.94022
    outer loop
      vertex 37.4 37.75 -137.243
      vertex 33.8 40 -138.058
      vertex 33.8 37.75 -137.243
    endloop
  endfacet
  facet normal 0 0.340938 -0.940086
    outer loop
      vertex 33.8 37.75 -139.616
      vertex 37.4 40 -138.8
      vertex 37.4 37.75 -139.616
    endloop
  endfacet
  facet normal 0 0.340938 -0.940086
    outer loop
      vertex 37.4 40 -138.8
      vertex 33.8 37.75 -139.616
      vertex 33.8 40 -138.8
    endloop
  endfacet
  facet normal 0 1 -0
    outer loop
      vertex 37.4 40 -141.942
      vertex 33.8 40 -141.2
      vertex 37.4 40 -141.2
    endloop
  endfacet
  facet normal 0 1 0
    outer loop
      vertex 33.8 40 -141.2
      vertex 37.4 40 -141.942
      vertex 33.8 40 -141.942
    endloop
  endfacet
  facet normal -0 0.340568 0.94022
    outer loop
      vertex 33.8 40 -141.2
      vertex 37.4 37.75 -140.385
      vertex 37.4 40 -141.2
    endloop
  endfacet
  facet normal 0 0.340568 0.94022
    outer loop
      vertex 37.4 37.75 -140.385
      vertex 33.8 40 -141.2
      vertex 33.8 37.75 -140.385
    endloop
  endfacet
  facet normal 0 0.340568 -0.94022
    outer loop
      vertex 33.8 37.75 -142.757
      vertex 37.4 40 -141.942
      vertex 37.4 37.75 -142.757
    endloop
  endfacet
  facet normal 0 0.340568 -0.94022
    outer loop
      vertex 37.4 40 -141.942
      vertex 33.8 37.75 -142.757
      vertex 33.8 40 -141.942
    endloop
  endfacet
  facet normal 0 1 -0
    outer loop
      vertex 37.4 40 -145.084
      vertex 33.8 40 -144.342
      vertex 37.4 40 -144.342
    endloop
  endfacet
  facet normal 0 1 0
    outer loop
      vertex 33.8 40 -144.342
      vertex 37.4 40 -145.084
      vertex 33.8 40 -145.084
    endloop
  endfacet
  facet normal -0 0.340938 0.940086
    outer loop
      vertex 33.8 40 -144.342
      vertex 37.4 37.75 -143.526
      vertex 37.4 40 -144.342
    endloop
  endfacet
  facet normal 0 0.340938 0.940086
    outer loop
      vertex 37.4 37.75 -143.526
      vertex 33.8 40 -144.342
      vertex 33.8 37.75 -143.526
    endloop
  endfacet
  facet normal 0 0.340568 -0.94022
    outer loop
      vertex 33.8 37.75 -145.899
      vertex 37.4 40 -145.084
      vertex 37.4 37.75 -145.899
    endloop
  endfacet
  facet normal 0 0.340568 -0.94022
    outer loop
      vertex 37.4 40 -145.084
      vertex 33.8 37.75 -145.899
      vertex 33.8 40 -145.084
    endloop
  endfacet
  facet normal 0 1 -0
    outer loop
      vertex 37.4 40 -148.225
      vertex 33.8 40 -147.483
      vertex 37.4 40 -147.483
    endloop
  endfacet
  facet normal 0 1 0
    outer loop
      vertex 33.8 40 -147.483
      vertex 37.4 40 -148.225
      vertex 33.8 40 -148.225
    endloop
  endfacet
  facet normal -0 0.340568 0.94022
    outer loop
      vertex 33.8 40 -147.483
      vertex 37.4 37.75 -146.668
      vertex 37.4 40 -147.483
    endloop
  endfacet
  facet normal 0 0.340568 0.94022
    outer loop
      vertex 37.4 37.75 -146.668
      vertex 33.8 40 -147.483
      vertex 33.8 37.75 -146.668
    endloop
  endfacet
  facet normal 0 0.340938 -0.940086
    outer loop
      vertex 33.8 37.75 -149.041
      vertex 37.4 40 -148.225
      vertex 37.4 37.75 -149.041
    endloop
  endfacet
  facet normal 0 0.340938 -0.940086
    outer loop
      vertex 37.4 40 -148.225
      vertex 33.8 37.75 -149.041
      vertex 33.8 40 -148.225
    endloop
  endfacet
  facet normal 0 1 -0
    outer loop
      vertex 37.4 40 -151.367
      vertex 33.8 40 -150.625
      vertex 37.4 40 -150.625
    endloop
  endfacet
  facet normal 0 1 0
    outer loop
      vertex 33.8 40 -150.625
      vertex 37.4 40 -151.367
      vertex 33.8 40 -151.367
    endloop
  endfacet
  facet normal -0 0.340938 0.940086
    outer loop
      vertex 33.8 40 -150.625
      vertex 37.4 37.75 -149.809
      vertex 37.4 40 -150.625
    endloop
  endfacet
  facet normal 0 0.340938 0.940086
    outer loop
      vertex 37.4 37.75 -149.809
      vertex 33.8 40 -150.625
      vertex 33.8 37.75 -149.809
    endloop
  endfacet
  facet normal 0 0.340568 -0.94022
    outer loop
      vertex 33.8 37.75 -152.182
      vertex 37.4 40 -151.367
      vertex 37.4 37.75 -152.182
    endloop
  endfacet
  facet normal 0 0.340568 -0.94022
    outer loop
      vertex 37.4 40 -151.367
      vertex 33.8 37.75 -152.182
      vertex 33.8 40 -151.367
    endloop
  endfacet
  facet normal 0 1 -0
    outer loop
      vertex 37.4 40 -154.508
      vertex 33.8 40 -153.766
      vertex 37.4 40 -153.766
    endloop
  endfacet
  facet normal 0 1 0
    outer loop
      vertex 33.8 40 -153.766
      vertex 37.4 40 -154.508
      vertex 33.8 40 -154.508
    endloop
  endfacet
  facet normal -0 0.340568 0.94022
    outer loop
      vertex 33.8 40 -153.766
      vertex 37.4 37.75 -152.951
      vertex 37.4 40 -153.766
    endloop
  endfacet
  facet normal 0 0.340568 0.94022
    outer loop
      vertex 37.4 37.75 -152.951
      vertex 33.8 40 -153.766
      vertex 33.8 37.75 -152.951
    endloop
  endfacet
  facet normal 0 0.340938 -0.940086
    outer loop
      vertex 33.8 37.75 -155.324
      vertex 37.4 40 -154.508
      vertex 37.4 37.75 -155.324
    endloop
  endfacet
  facet normal 0 0.340938 -0.940086
    outer loop
      vertex 37.4 40 -154.508
      vertex 33.8 37.75 -155.324
      vertex 33.8 40 -154.508
    endloop
  endfacet
  facet normal 0 1 -0
    outer loop
      vertex 37.4 40 -157.65
      vertex 33.8 40 -156.908
      vertex 37.4 40 -156.908
    endloop
  endfacet
  facet normal 0 1 0
    outer loop
      vertex 33.8 40 -156.908
      vertex 37.4 40 -157.65
      vertex 33.8 40 -157.65
    endloop
  endfacet
  facet normal -0 0.340568 0.94022
    outer loop
      vertex 33.8 40 -156.908
      vertex 37.4 37.75 -156.093
      vertex 37.4 40 -156.908
    endloop
  endfacet
  facet normal 0 0.340568 0.94022
    outer loop
      vertex 37.4 37.75 -156.093
      vertex 33.8 40 -156.908
      vertex 33.8 37.75 -156.093
    endloop
  endfacet
  facet normal 0 0.340568 -0.94022
    outer loop
      vertex 33.8 37.75 -158.465
      vertex 37.4 40 -157.65
      vertex 37.4 37.75 -158.465
    endloop
  endfacet
  facet normal 0 0.340568 -0.94022
    outer loop
      vertex 37.4 40 -157.65
      vertex 33.8 37.75 -158.465
      vertex 33.8 40 -157.65
    endloop
  endfacet
  facet normal 0 1 -0
    outer loop
      vertex 37.4 40 -160.792
      vertex 33.8 40 -160.05
      vertex 37.4 40 -160.05
    endloop
  endfacet
  facet normal 0 1 0
    outer loop
      vertex 33.8 40 -160.05
      vertex 37.4 40 -160.792
      vertex 33.8 40 -160.792
    endloop
  endfacet
  facet normal -0 0.340938 0.940086
    outer loop
      vertex 33.8 40 -160.05
      vertex 37.4 37.75 -159.234
      vertex 37.4 40 -160.05
    endloop
  endfacet
  facet normal 0 0.340938 0.940086
    outer loop
      vertex 37.4 37.75 -159.234
      vertex 33.8 40 -160.05
      vertex 33.8 37.75 -159.234
    endloop
  endfacet
  facet normal 0 0.340568 -0.94022
    outer loop
      vertex 33.8 37.75 -161.607
      vertex 37.4 40 -160.792
      vertex 37.4 37.75 -161.607
    endloop
  endfacet
  facet normal 0 0.340568 -0.94022
    outer loop
      vertex 37.4 40 -160.792
      vertex 33.8 37.75 -161.607
      vertex 33.8 40 -160.792
    endloop
  endfacet
  facet normal 0 1 -0
    outer loop
      vertex 37.4 40 -163.933
      vertex 33.8 40 -163.191
      vertex 37.4 40 -163.191
    endloop
  endfacet
  facet normal 0 1 0
    outer loop
      vertex 33.8 40 -163.191
      vertex 37.4 40 -163.933
      vertex 33.8 40 -163.933
    endloop
  endfacet
  facet normal -0 0.340568 0.94022
    outer loop
      vertex 33.8 40 -163.191
      vertex 37.4 37.75 -162.376
      vertex 37.4 40 -163.191
    endloop
  endfacet
  facet normal 0 0.340568 0.94022
    outer loop
      vertex 37.4 37.75 -162.376
      vertex 33.8 40 -163.191
      vertex 33.8 37.75 -162.376
    endloop
  endfacet
  facet normal 0 0.340938 -0.940086
    outer loop
      vertex 33.8 37.75 -164.749
      vertex 37.4 40 -163.933
      vertex 37.4 37.75 -164.749
    endloop
  endfacet
  facet normal 0 0.340938 -0.940086
    outer loop
      vertex 37.4 40 -163.933
      vertex 33.8 37.75 -164.749
      vertex 33.8 40 -163.933
    endloop
  endfacet
  facet normal 0 1 -0
    outer loop
      vertex 37.4 40 -167.075
      vertex 33.8 40 -166.333
      vertex 37.4 40 -166.333
    endloop
  endfacet
  facet normal 0 1 0
    outer loop
      vertex 33.8 40 -166.333
      vertex 37.4 40 -167.075
      vertex 33.8 40 -167.075
    endloop
  endfacet
  facet normal -0 0.340938 0.940086
    outer loop
      vertex 33.8 40 -166.333
      vertex 37.4 37.75 -165.517
      vertex 37.4 40 -166.333
    endloop
  endfacet
  facet normal 0 0.340938 0.940086
    outer loop
      vertex 37.4 37.75 -165.517
      vertex 33.8 40 -166.333
      vertex 33.8 37.75 -165.517
    endloop
  endfacet
  facet normal 0 0.340568 -0.94022
    outer loop
      vertex 33.8 37.75 -167.89
      vertex 37.4 40 -167.075
      vertex 37.4 37.75 -167.89
    endloop
  endfacet
  facet normal 0 0.340568 -0.94022
    outer loop
      vertex 37.4 40 -167.075
      vertex 33.8 37.75 -167.89
      vertex 33.8 40 -167.075
    endloop
  endfacet
  facet normal 0 1 -0
    outer loop
      vertex 37.4 40 -170.216
      vertex 33.8 40 -169.474
      vertex 37.4 40 -169.474
    endloop
  endfacet
  facet normal 0 1 0
    outer loop
      vertex 33.8 40 -169.474
      vertex 37.4 40 -170.216
      vertex 33.8 40 -170.216
    endloop
  endfacet
  facet normal -0 0.340568 0.94022
    outer loop
      vertex 33.8 40 -169.474
      vertex 37.4 37.75 -168.659
      vertex 37.4 40 -169.474
    endloop
  endfacet
  facet normal 0 0.340568 0.94022
    outer loop
      vertex 37.4 37.75 -168.659
      vertex 33.8 40 -169.474
      vertex 33.8 37.75 -168.659
    endloop
  endfacet
  facet normal 0 0.340938 -0.940086
    outer loop
      vertex 33.8 37.75 -171.032
      vertex 37.4 40 -170.216
      vertex 37.4 37.75 -171.032
    endloop
  endfacet
  facet normal 0 0.340938 -0.940086
    outer loop
      vertex 37.4 40 -170.216
      vertex 33.8 37.75 -171.032
      vertex 33.8 40 -170.216
    endloop
  endfacet
  facet normal 1 -0 0
    outer loop
      vertex 39.6 -44.6 -94
      vertex 39.6 42 -134
      vertex 39.6 42 -94
    endloop
  endfacet
  facet normal 1 0 0
    outer loop
      vertex 39.6 42 -134
      vertex 39.6 -44.6 -94
      vertex 39.6 -44.6 -134
    endloop
  endfacet
  facet normal -0 0 1
    outer loop
      vertex 37.6 42 -94
      vertex 39.6 -44.6 -94
      vertex 39.6 42 -94
    endloop
  endfacet
  facet normal 0 0 1
    outer loop
      vertex 39.6 -44.6 -94
      vertex 37.6 42 -94
      vertex 37.6 -44.6 -94
    endloop
  endfacet
  facet normal 0 0 -1
    outer loop
      vertex 37.4 34 -134
      vertex 37.6 37.75 -134
      vertex 37.6 34 -134
    endloop
  endfacet
  facet normal -0 0 -1
    outer loop
      vertex 37.6 37.75 -134
      vertex 37.4 34 -134
      vertex 37.4 37.75 -134
    endloop
  endfacet
  facet normal 0 0 -1
    outer loop
      vertex 37.6 34 -134
      vertex 39.6 -44.6 -134
      vertex 37.6 -44.6 -134
    endloop
  endfacet
  facet normal 0 0 -1
    outer loop
      vertex 39.6 -44.6 -134
      vertex 37.6 34 -134
      vertex 39.6 42 -134
    endloop
  endfacet
  facet normal 0 0 -1
    outer loop
      vertex 37.6 37.75 -134
      vertex 39.6 42 -134
      vertex 37.6 34 -134
    endloop
  endfacet
  facet normal -0 0 -1
    outer loop
      vertex 39.6 42 -134
      vertex 37.6 37.75 -134
      vertex 37.6 42 -134
    endloop
  endfacet
  facet normal -1 0 0
    outer loop
      vertex 37.6 34 -134
      vertex 37.6 -44.6 -134
      vertex 37.6 34 -124
    endloop
  endfacet
  facet normal -1 0 0
    outer loop
      vertex 37.6 37.75 -124
      vertex 37.6 42 -134
      vertex 37.6 37.75 -134
    endloop
  endfacet
  facet normal -1 0 0
    outer loop
      vertex 37.6 42 -134
      vertex 37.6 37.75 -124
      vertex 37.6 42 -94
    endloop
  endfacet
  facet normal -1 0 0
    outer loop
      vertex 37.6 34 -124
      vertex 37.6 42 -94
      vertex 37.6 37.75 -124
    endloop
  endfacet
  facet normal -1 0 0
    outer loop
      vertex 37.6 -44.6 -94
      vertex 37.6 34 -124
      vertex 37.6 -44.6 -134
    endloop
  endfacet
  facet normal -1 0 0
    outer loop
      vertex 37.6 34 -124
      vertex 37.6 -44.6 -94
      vertex 37.6 42 -94
    endloop
  endfacet
  facet normal 0 1 -0
    outer loop
      vertex 39.6 42 -134
      vertex 37.6 42 -94
      vertex 39.6 42 -94
    endloop
  endfacet
  facet normal 0 1 0
    outer loop
      vertex 37.6 42 -94
      vertex 39.6 42 -134
      vertex 37.6 42 -134
    endloop
  endfacet
  facet normal 0 -1 0
    outer loop
      vertex 37.6 -44.6 -134
      vertex 39.6 -44.6 -94
      vertex 37.6 -44.6 -94
    endloop
  endfacet
  facet normal 0 -1 -0
    outer loop
      vertex 39.6 -44.6 -94
      vertex 37.6 -44.6 -134
      vertex 39.6 -44.6 -134
    endloop
  endfacet
endsolid OpenSCAD_Model
