solid OpenSCAD_Model
  facet normal 1 -0 0
    outer loop
      vertex 37.4 56 -112.984
      vertex 37.4 58.25 -114.542
      vertex 37.4 58.25 -112.169
    endloop
  endfacet
  facet normal 1 0 0
    outer loop
      vertex 37.4 58.25 -114.542
      vertex 37.4 56 -112.984
      vertex 37.4 56 -113.726
    endloop
  endfacet
  facet normal 1 -0 0
    outer loop
      vertex 37.4 56 -109.843
      vertex 37.4 58.25 -111.4
      vertex 37.4 58.25 -109.027
    endloop
  endfacet
  facet normal 1 0 0
    outer loop
      vertex 37.4 58.25 -111.4
      vertex 37.4 56 -109.843
      vertex 37.4 56 -110.585
    endloop
  endfacet
  facet normal 1 -0 0
    outer loop
      vertex 37.4 56 -106.701
      vertex 37.4 58.25 -108.258
      vertex 37.4 58.25 -105.886
    endloop
  endfacet
  facet normal 1 0 0
    outer loop
      vertex 37.4 58.25 -108.258
      vertex 37.4 56 -106.701
      vertex 37.4 56 -107.443
    endloop
  endfacet
  facet normal 1 -0 0
    outer loop
      vertex 37.4 56 -103.559
      vertex 37.4 58.25 -105.117
      vertex 37.4 58.25 -102.744
    endloop
  endfacet
  facet normal 1 0 0
    outer loop
      vertex 37.4 58.25 -105.117
      vertex 37.4 56 -103.559
      vertex 37.4 56 -104.301
    endloop
  endfacet
  facet normal 1 -0 0
    outer loop
      vertex 37.4 56 -100.418
      vertex 37.4 58.25 -101.975
      vertex 37.4 58.25 -99.6025
    endloop
  endfacet
  facet normal 1 0 0
    outer loop
      vertex 37.4 58.25 -101.975
      vertex 37.4 56 -100.418
      vertex 37.4 56 -101.16
    endloop
  endfacet
  facet normal 1 -0 0
    outer loop
      vertex 37.4 56 -97.2763
      vertex 37.4 58.25 -98.8336
      vertex 37.4 58.25 -96.4609
    endloop
  endfacet
  facet normal 1 0 0
    outer loop
      vertex 37.4 58.25 -98.8336
      vertex 37.4 56 -97.2763
      vertex 37.4 56 -98.0183
    endloop
  endfacet
  facet normal 1 -0 0
    outer loop
      vertex 37.4 56 -94.1347
      vertex 37.4 58.25 -95.6921
      vertex 37.4 58.25 -93.3193
    endloop
  endfacet
  facet normal 1 0 0
    outer loop
      vertex 37.4 58.25 -95.6921
      vertex 37.4 56 -94.1347
      vertex 37.4 56 -94.8767
    endloop
  endfacet
  facet normal 1 -0 0
    outer loop
      vertex 37.4 56 -90.9931
      vertex 37.4 58.25 -92.5505
      vertex 37.4 58.25 -90.1777
    endloop
  endfacet
  facet normal 1 0 0
    outer loop
      vertex 37.4 58.25 -92.5505
      vertex 37.4 56 -90.9931
      vertex 37.4 56 -91.7351
    endloop
  endfacet
  facet normal 1 -0 0
    outer loop
      vertex 37.4 56 -87.8515
      vertex 37.4 58.25 -89.4089
      vertex 37.4 58.25 -87.0361
    endloop
  endfacet
  facet normal 1 0 0
    outer loop
      vertex 37.4 58.25 -89.4089
      vertex 37.4 56 -87.8515
      vertex 37.4 56 -88.5935
    endloop
  endfacet
  facet normal 1 -0 0
    outer loop
      vertex 37.4 56 -84.7099
      vertex 37.4 58.25 -86.2673
      vertex 37.4 58.25 -83.8945
    endloop
  endfacet
  facet normal 1 0 0
    outer loop
      vertex 37.4 58.25 -86.2673
      vertex 37.4 56 -84.7099
      vertex 37.4 56 -85.4519
    endloop
  endfacet
  facet normal 1 -0 0
    outer loop
      vertex 37.4 56 -81.5683
      vertex 37.4 58.25 -83.1257
      vertex 37.4 58.25 -80.7529
    endloop
  endfacet
  facet normal 1 0 0
    outer loop
      vertex 37.4 58.25 -83.1257
      vertex 37.4 56 -81.5683
      vertex 37.4 56 -82.3103
    endloop
  endfacet
  facet normal 1 -0 0
    outer loop
      vertex 37.4 56 -78.4267
      vertex 37.4 58.25 -79.9841
      vertex 37.4 58.25 -77.6113
    endloop
  endfacet
  facet normal 1 0 0
    outer loop
      vertex 37.4 58.25 -79.9841
      vertex 37.4 56 -78.4267
      vertex 37.4 56 -79.1687
    endloop
  endfacet
  facet normal 1 -0 0
    outer loop
      vertex 37.4 56 -75.2851
      vertex 37.4 58.25 -76.8425
      vertex 37.4 58.25 -74.4697
    endloop
  endfacet
  facet normal 1 0 0
    outer loop
      vertex 37.4 58.25 -76.8425
      vertex 37.4 56 -75.2851
      vertex 37.4 56 -76.0271
    endloop
  endfacet
  facet normal 1 -0 0
    outer loop
      vertex 37.4 56 -72.1435
      vertex 37.4 58.25 -73.7009
      vertex 37.4 58.25 -71.3281
    endloop
  endfacet
  facet normal 1 0 0
    outer loop
      vertex 37.4 58.25 -73.7009
      vertex 37.4 56 -72.1435
      vertex 37.4 56 -72.8855
    endloop
  endfacet
  facet normal 1 -0 0
    outer loop
      vertex 37.4 56 -69.0019
      vertex 37.4 58.25 -70.5593
      vertex 37.4 58.25 -68.1866
    endloop
  endfacet
  facet normal 1 0 0
    outer loop
      vertex 37.4 58.25 -70.5593
      vertex 37.4 56 -69.0019
      vertex 37.4 56 -69.7439
    endloop
  endfacet
  facet normal 1 0 0
    outer loop
      vertex 37.4 61.5 -65.5
      vertex 37.4 60 -117.5
      vertex 37.4 61.5 -125.5
    endloop
  endfacet
  facet normal 1 0 0
    outer loop
      vertex 37.4 58.25 -68.1866
      vertex 37.4 61.5 -65.5
      vertex 37.4 58.25 -65.5
    endloop
  endfacet
  facet normal 1 0 0
    outer loop
      vertex 37.4 58.25 -70.5593
      vertex 37.4 61.5 -65.5
      vertex 37.4 58.25 -68.1866
    endloop
  endfacet
  facet normal 1 0 0
    outer loop
      vertex 37.4 58.25 -71.3281
      vertex 37.4 61.5 -65.5
      vertex 37.4 58.25 -70.5593
    endloop
  endfacet
  facet normal 1 0 0
    outer loop
      vertex 37.4 58.25 -73.7009
      vertex 37.4 61.5 -65.5
      vertex 37.4 58.25 -71.3281
    endloop
  endfacet
  facet normal 1 0 0
    outer loop
      vertex 37.4 58.25 -74.4697
      vertex 37.4 61.5 -65.5
      vertex 37.4 58.25 -73.7009
    endloop
  endfacet
  facet normal 1 0 0
    outer loop
      vertex 37.4 58.25 -76.8425
      vertex 37.4 61.5 -65.5
      vertex 37.4 58.25 -74.4697
    endloop
  endfacet
  facet normal 1 0 0
    outer loop
      vertex 37.4 58.25 -77.6113
      vertex 37.4 61.5 -65.5
      vertex 37.4 58.25 -76.8425
    endloop
  endfacet
  facet normal 1 0 0
    outer loop
      vertex 37.4 58.25 -79.9841
      vertex 37.4 61.5 -65.5
      vertex 37.4 58.25 -77.6113
    endloop
  endfacet
  facet normal 1 0 0
    outer loop
      vertex 37.4 58.25 -80.7529
      vertex 37.4 61.5 -65.5
      vertex 37.4 58.25 -79.9841
    endloop
  endfacet
  facet normal 1 0 0
    outer loop
      vertex 37.4 58.25 -83.1257
      vertex 37.4 61.5 -65.5
      vertex 37.4 58.25 -80.7529
    endloop
  endfacet
  facet normal 1 0 0
    outer loop
      vertex 37.4 58.25 -83.8945
      vertex 37.4 61.5 -65.5
      vertex 37.4 58.25 -83.1257
    endloop
  endfacet
  facet normal 1 0 0
    outer loop
      vertex 37.4 58.25 -86.2673
      vertex 37.4 61.5 -65.5
      vertex 37.4 58.25 -83.8945
    endloop
  endfacet
  facet normal 1 0 0
    outer loop
      vertex 37.4 58.25 -87.0361
      vertex 37.4 61.5 -65.5
      vertex 37.4 58.25 -86.2673
    endloop
  endfacet
  facet normal 1 0 0
    outer loop
      vertex 37.4 58.25 -89.4089
      vertex 37.4 61.5 -65.5
      vertex 37.4 58.25 -87.0361
    endloop
  endfacet
  facet normal 1 0 0
    outer loop
      vertex 37.4 58.25 -90.1777
      vertex 37.4 61.5 -65.5
      vertex 37.4 58.25 -89.4089
    endloop
  endfacet
  facet normal 1 0 0
    outer loop
      vertex 37.4 58.25 -92.5505
      vertex 37.4 61.5 -65.5
      vertex 37.4 58.25 -90.1777
    endloop
  endfacet
  facet normal 1 0 0
    outer loop
      vertex 37.4 58.25 -93.3193
      vertex 37.4 61.5 -65.5
      vertex 37.4 58.25 -92.5505
    endloop
  endfacet
  facet normal 1 0 0
    outer loop
      vertex 37.4 61.5 -65.5
      vertex 37.4 58.25 -93.3193
      vertex 37.4 60 -117.5
    endloop
  endfacet
  facet normal 1 -0 0
    outer loop
      vertex 37.4 58.25 -95.6921
      vertex 37.4 60 -117.5
      vertex 37.4 58.25 -93.3193
    endloop
  endfacet
  facet normal 1 -0 0
    outer loop
      vertex 37.4 58.25 -96.4609
      vertex 37.4 60 -117.5
      vertex 37.4 58.25 -95.6921
    endloop
  endfacet
  facet normal 1 -0 0
    outer loop
      vertex 37.4 58.25 -98.8336
      vertex 37.4 60 -117.5
      vertex 37.4 58.25 -96.4609
    endloop
  endfacet
  facet normal 1 -0 0
    outer loop
      vertex 37.4 58.25 -99.6025
      vertex 37.4 60 -117.5
      vertex 37.4 58.25 -98.8336
    endloop
  endfacet
  facet normal 1 -0 0
    outer loop
      vertex 37.4 58.25 -101.975
      vertex 37.4 60 -117.5
      vertex 37.4 58.25 -99.6025
    endloop
  endfacet
  facet normal 1 -0 0
    outer loop
      vertex 37.4 58.25 -102.744
      vertex 37.4 60 -117.5
      vertex 37.4 58.25 -101.975
    endloop
  endfacet
  facet normal 1 -0 0
    outer loop
      vertex 37.4 58.25 -105.117
      vertex 37.4 60 -117.5
      vertex 37.4 58.25 -102.744
    endloop
  endfacet
  facet normal 1 -0 0
    outer loop
      vertex 37.4 58.25 -105.886
      vertex 37.4 60 -117.5
      vertex 37.4 58.25 -105.117
    endloop
  endfacet
  facet normal 1 -0 0
    outer loop
      vertex 37.4 58.25 -108.258
      vertex 37.4 60 -117.5
      vertex 37.4 58.25 -105.886
    endloop
  endfacet
  facet normal 1 -0 0
    outer loop
      vertex 37.4 58.25 -109.027
      vertex 37.4 60 -117.5
      vertex 37.4 58.25 -108.258
    endloop
  endfacet
  facet normal 1 -0 0
    outer loop
      vertex 37.4 58.25 -111.4
      vertex 37.4 60 -117.5
      vertex 37.4 58.25 -109.027
    endloop
  endfacet
  facet normal 1 -0 0
    outer loop
      vertex 37.4 58.25 -112.169
      vertex 37.4 60 -117.5
      vertex 37.4 58.25 -111.4
    endloop
  endfacet
  facet normal 1 -0 0
    outer loop
      vertex 37.4 58.25 -114.542
      vertex 37.4 60 -117.5
      vertex 37.4 58.25 -112.169
    endloop
  endfacet
  facet normal 1 -0 0
    outer loop
      vertex 37.4 58.25 -115.31
      vertex 37.4 60 -117.5
      vertex 37.4 58.25 -114.542
    endloop
  endfacet
  facet normal 1 0 0
    outer loop
      vertex 37.4 58.25 -115.31
      vertex 37.4 57.7444 -117.5
      vertex 37.4 60 -117.5
    endloop
  endfacet
  facet normal 1 -0 0
    outer loop
      vertex 37.4 56 -116.126
      vertex 37.4 57.7444 -117.5
      vertex 37.4 58.25 -115.31
    endloop
  endfacet
  facet normal 1 0 0
    outer loop
      vertex 37.4 57.7444 -117.5
      vertex 37.4 56 -116.126
      vertex 37.4 56 -116.868
    endloop
  endfacet
  facet normal 1 0 0
    outer loop
      vertex 37.4 61.5 -125.5
      vertex 37.4 60 -117.5
      vertex 37.4 60 -125.5
    endloop
  endfacet
  facet normal -0 0 1
    outer loop
      vertex 33.8 61.5 -65.5
      vertex 37.4 58.25 -65.5
      vertex 37.4 61.5 -65.5
    endloop
  endfacet
  facet normal 0 0 1
    outer loop
      vertex 37.4 58.25 -65.5
      vertex 33.8 61.5 -65.5
      vertex 33.8 58.25 -65.5
    endloop
  endfacet
  facet normal 0 0 -1
    outer loop
      vertex 37.6 42.5 -125.5
      vertex 39.6 42 -125.5
      vertex 37.6 42 -125.5
    endloop
  endfacet
  facet normal 0 0 -1
    outer loop
      vertex 39.6 42 -125.5
      vertex 37.6 42.5 -125.5
      vertex 39.6 60 -125.5
    endloop
  endfacet
  facet normal 0 0 -1
    outer loop
      vertex 37.6 42.5 -125.5
      vertex 37.4 60 -125.5
      vertex 39.6 60 -125.5
    endloop
  endfacet
  facet normal 0 0 -1
    outer loop
      vertex 33.8 42.5 -125.5
      vertex 37.4 60 -125.5
      vertex 37.6 42.5 -125.5
    endloop
  endfacet
  facet normal 0 0 -1
    outer loop
      vertex 33.8 61.5 -125.5
      vertex 37.4 60 -125.5
      vertex 33.8 42.5 -125.5
    endloop
  endfacet
  facet normal 0 0 -1
    outer loop
      vertex 37.4 60 -125.5
      vertex 33.8 61.5 -125.5
      vertex 37.4 61.5 -125.5
    endloop
  endfacet
  facet normal -1 0 0
    outer loop
      vertex 33.8 56 -69.7439
      vertex 33.8 58.25 -68.1866
      vertex 33.8 58.25 -70.5593
    endloop
  endfacet
  facet normal -1 0 0
    outer loop
      vertex 33.8 58.25 -68.1866
      vertex 33.8 56 -69.7439
      vertex 33.8 56 -69.0019
    endloop
  endfacet
  facet normal -1 0 0
    outer loop
      vertex 33.8 56 -72.8855
      vertex 33.8 58.25 -71.3281
      vertex 33.8 58.25 -73.7009
    endloop
  endfacet
  facet normal -1 0 0
    outer loop
      vertex 33.8 58.25 -71.3281
      vertex 33.8 56 -72.8855
      vertex 33.8 56 -72.1435
    endloop
  endfacet
  facet normal -1 0 0
    outer loop
      vertex 33.8 56 -76.0271
      vertex 33.8 58.25 -74.4697
      vertex 33.8 58.25 -76.8425
    endloop
  endfacet
  facet normal -1 0 0
    outer loop
      vertex 33.8 58.25 -74.4697
      vertex 33.8 56 -76.0271
      vertex 33.8 56 -75.2851
    endloop
  endfacet
  facet normal -1 0 0
    outer loop
      vertex 33.8 56 -79.1687
      vertex 33.8 58.25 -77.6113
      vertex 33.8 58.25 -79.9841
    endloop
  endfacet
  facet normal -1 0 0
    outer loop
      vertex 33.8 58.25 -77.6113
      vertex 33.8 56 -79.1687
      vertex 33.8 56 -78.4267
    endloop
  endfacet
  facet normal -1 0 0
    outer loop
      vertex 33.8 56 -82.3103
      vertex 33.8 58.25 -80.7529
      vertex 33.8 58.25 -83.1257
    endloop
  endfacet
  facet normal -1 0 0
    outer loop
      vertex 33.8 58.25 -80.7529
      vertex 33.8 56 -82.3103
      vertex 33.8 56 -81.5683
    endloop
  endfacet
  facet normal -1 0 0
    outer loop
      vertex 33.8 56 -85.4519
      vertex 33.8 58.25 -83.8945
      vertex 33.8 58.25 -86.2673
    endloop
  endfacet
  facet normal -1 0 0
    outer loop
      vertex 33.8 58.25 -83.8945
      vertex 33.8 56 -85.4519
      vertex 33.8 56 -84.7099
    endloop
  endfacet
  facet normal -1 0 0
    outer loop
      vertex 33.8 56 -88.5935
      vertex 33.8 58.25 -87.0361
      vertex 33.8 58.25 -89.4089
    endloop
  endfacet
  facet normal -1 0 0
    outer loop
      vertex 33.8 58.25 -87.0361
      vertex 33.8 56 -88.5935
      vertex 33.8 56 -87.8515
    endloop
  endfacet
  facet normal -1 0 0
    outer loop
      vertex 33.8 56 -91.7351
      vertex 33.8 58.25 -90.1777
      vertex 33.8 58.25 -92.5505
    endloop
  endfacet
  facet normal -1 0 0
    outer loop
      vertex 33.8 58.25 -90.1777
      vertex 33.8 56 -91.7351
      vertex 33.8 56 -90.9931
    endloop
  endfacet
  facet normal -1 0 0
    outer loop
      vertex 33.8 56 -94.8767
      vertex 33.8 58.25 -93.3193
      vertex 33.8 58.25 -95.6921
    endloop
  endfacet
  facet normal -1 0 0
    outer loop
      vertex 33.8 58.25 -93.3193
      vertex 33.8 56 -94.8767
      vertex 33.8 56 -94.1347
    endloop
  endfacet
  facet normal -1 0 0
    outer loop
      vertex 33.8 56 -98.0183
      vertex 33.8 58.25 -96.4609
      vertex 33.8 58.25 -98.8336
    endloop
  endfacet
  facet normal -1 0 0
    outer loop
      vertex 33.8 58.25 -96.4609
      vertex 33.8 56 -98.0183
      vertex 33.8 56 -97.2763
    endloop
  endfacet
  facet normal -1 0 0
    outer loop
      vertex 33.8 56 -101.16
      vertex 33.8 58.25 -99.6025
      vertex 33.8 58.25 -101.975
    endloop
  endfacet
  facet normal -1 0 0
    outer loop
      vertex 33.8 58.25 -99.6025
      vertex 33.8 56 -101.16
      vertex 33.8 56 -100.418
    endloop
  endfacet
  facet normal -1 0 0
    outer loop
      vertex 33.8 56 -104.301
      vertex 33.8 58.25 -102.744
      vertex 33.8 58.25 -105.117
    endloop
  endfacet
  facet normal -1 0 0
    outer loop
      vertex 33.8 58.25 -102.744
      vertex 33.8 56 -104.301
      vertex 33.8 56 -103.559
    endloop
  endfacet
  facet normal -1 0 0
    outer loop
      vertex 33.8 56 -107.443
      vertex 33.8 58.25 -105.886
      vertex 33.8 58.25 -108.258
    endloop
  endfacet
  facet normal -1 0 0
    outer loop
      vertex 33.8 58.25 -105.886
      vertex 33.8 56 -107.443
      vertex 33.8 56 -106.701
    endloop
  endfacet
  facet normal -1 0 0
    outer loop
      vertex 33.8 56 -110.585
      vertex 33.8 58.25 -109.027
      vertex 33.8 58.25 -111.4
    endloop
  endfacet
  facet normal -1 0 0
    outer loop
      vertex 33.8 58.25 -109.027
      vertex 33.8 56 -110.585
      vertex 33.8 56 -109.843
    endloop
  endfacet
  facet normal -1 0 0
    outer loop
      vertex 33.8 56 -113.726
      vertex 33.8 58.25 -112.169
      vertex 33.8 58.25 -114.542
    endloop
  endfacet
  facet normal -1 0 0
    outer loop
      vertex 33.8 58.25 -112.169
      vertex 33.8 56 -113.726
      vertex 33.8 56 -112.984
    endloop
  endfacet
  facet normal -1 0 0
    outer loop
      vertex 33.8 58.25 -114.542
      vertex 33.8 61.5 -125.5
      vertex 33.8 58.25 -115.31
    endloop
  endfacet
  facet normal -1 0 0
    outer loop
      vertex 33.8 61.5 -125.5
      vertex 33.8 57.7444 -117.5
      vertex 33.8 58.25 -115.31
    endloop
  endfacet
  facet normal -1 0 0
    outer loop
      vertex 33.8 42.5 -125.5
      vertex 33.8 57.7444 -117.5
      vertex 33.8 61.5 -125.5
    endloop
  endfacet
  facet normal -1 -0 0
    outer loop
      vertex 33.8 57.7444 -117.5
      vertex 33.8 42.5 -125.5
      vertex 33.8 42.5 -117.5
    endloop
  endfacet
  facet normal -1 0 0
    outer loop
      vertex 33.8 58.25 -112.169
      vertex 33.8 61.5 -125.5
      vertex 33.8 58.25 -114.542
    endloop
  endfacet
  facet normal -1 0 0
    outer loop
      vertex 33.8 58.25 -111.4
      vertex 33.8 61.5 -125.5
      vertex 33.8 58.25 -112.169
    endloop
  endfacet
  facet normal -1 0 0
    outer loop
      vertex 33.8 58.25 -109.027
      vertex 33.8 61.5 -125.5
      vertex 33.8 58.25 -111.4
    endloop
  endfacet
  facet normal -1 0 0
    outer loop
      vertex 33.8 58.25 -108.258
      vertex 33.8 61.5 -125.5
      vertex 33.8 58.25 -109.027
    endloop
  endfacet
  facet normal -1 0 0
    outer loop
      vertex 33.8 58.25 -105.886
      vertex 33.8 61.5 -125.5
      vertex 33.8 58.25 -108.258
    endloop
  endfacet
  facet normal -1 0 0
    outer loop
      vertex 33.8 58.25 -105.117
      vertex 33.8 61.5 -125.5
      vertex 33.8 58.25 -105.886
    endloop
  endfacet
  facet normal -1 0 0
    outer loop
      vertex 33.8 58.25 -102.744
      vertex 33.8 61.5 -125.5
      vertex 33.8 58.25 -105.117
    endloop
  endfacet
  facet normal -1 0 0
    outer loop
      vertex 33.8 58.25 -101.975
      vertex 33.8 61.5 -125.5
      vertex 33.8 58.25 -102.744
    endloop
  endfacet
  facet normal -1 0 0
    outer loop
      vertex 33.8 58.25 -99.6025
      vertex 33.8 61.5 -125.5
      vertex 33.8 58.25 -101.975
    endloop
  endfacet
  facet normal -1 0 0
    outer loop
      vertex 33.8 58.25 -98.8336
      vertex 33.8 61.5 -125.5
      vertex 33.8 58.25 -99.6025
    endloop
  endfacet
  facet normal -1 0 0
    outer loop
      vertex 33.8 58.25 -96.4609
      vertex 33.8 61.5 -125.5
      vertex 33.8 58.25 -98.8336
    endloop
  endfacet
  facet normal -1 0 0
    outer loop
      vertex 33.8 61.5 -125.5
      vertex 33.8 58.25 -96.4609
      vertex 33.8 61.5 -65.5
    endloop
  endfacet
  facet normal -1 0 0
    outer loop
      vertex 33.8 58.25 -95.6921
      vertex 33.8 61.5 -65.5
      vertex 33.8 58.25 -96.4609
    endloop
  endfacet
  facet normal -1 0 0
    outer loop
      vertex 33.8 58.25 -93.3193
      vertex 33.8 61.5 -65.5
      vertex 33.8 58.25 -95.6921
    endloop
  endfacet
  facet normal -1 0 0
    outer loop
      vertex 33.8 58.25 -92.5505
      vertex 33.8 61.5 -65.5
      vertex 33.8 58.25 -93.3193
    endloop
  endfacet
  facet normal -1 0 0
    outer loop
      vertex 33.8 58.25 -90.1777
      vertex 33.8 61.5 -65.5
      vertex 33.8 58.25 -92.5505
    endloop
  endfacet
  facet normal -1 0 0
    outer loop
      vertex 33.8 58.25 -89.4089
      vertex 33.8 61.5 -65.5
      vertex 33.8 58.25 -90.1777
    endloop
  endfacet
  facet normal -1 0 0
    outer loop
      vertex 33.8 58.25 -87.0361
      vertex 33.8 61.5 -65.5
      vertex 33.8 58.25 -89.4089
    endloop
  endfacet
  facet normal -1 0 0
    outer loop
      vertex 33.8 58.25 -86.2673
      vertex 33.8 61.5 -65.5
      vertex 33.8 58.25 -87.0361
    endloop
  endfacet
  facet normal -1 0 0
    outer loop
      vertex 33.8 58.25 -83.8945
      vertex 33.8 61.5 -65.5
      vertex 33.8 58.25 -86.2673
    endloop
  endfacet
  facet normal -1 0 0
    outer loop
      vertex 33.8 58.25 -83.1257
      vertex 33.8 61.5 -65.5
      vertex 33.8 58.25 -83.8945
    endloop
  endfacet
  facet normal -1 0 0
    outer loop
      vertex 33.8 58.25 -80.7529
      vertex 33.8 61.5 -65.5
      vertex 33.8 58.25 -83.1257
    endloop
  endfacet
  facet normal -1 0 0
    outer loop
      vertex 33.8 58.25 -79.9841
      vertex 33.8 61.5 -65.5
      vertex 33.8 58.25 -80.7529
    endloop
  endfacet
  facet normal -1 0 0
    outer loop
      vertex 33.8 58.25 -77.6113
      vertex 33.8 61.5 -65.5
      vertex 33.8 58.25 -79.9841
    endloop
  endfacet
  facet normal -1 0 0
    outer loop
      vertex 33.8 58.25 -76.8425
      vertex 33.8 61.5 -65.5
      vertex 33.8 58.25 -77.6113
    endloop
  endfacet
  facet normal -1 0 0
    outer loop
      vertex 33.8 58.25 -74.4697
      vertex 33.8 61.5 -65.5
      vertex 33.8 58.25 -76.8425
    endloop
  endfacet
  facet normal -1 0 0
    outer loop
      vertex 33.8 58.25 -73.7009
      vertex 33.8 61.5 -65.5
      vertex 33.8 58.25 -74.4697
    endloop
  endfacet
  facet normal -1 0 0
    outer loop
      vertex 33.8 58.25 -71.3281
      vertex 33.8 61.5 -65.5
      vertex 33.8 58.25 -73.7009
    endloop
  endfacet
  facet normal -1 0 0
    outer loop
      vertex 33.8 58.25 -70.5593
      vertex 33.8 61.5 -65.5
      vertex 33.8 58.25 -71.3281
    endloop
  endfacet
  facet normal -1 0 0
    outer loop
      vertex 33.8 58.25 -68.1866
      vertex 33.8 61.5 -65.5
      vertex 33.8 58.25 -70.5593
    endloop
  endfacet
  facet normal -1 -0 0
    outer loop
      vertex 33.8 61.5 -65.5
      vertex 33.8 58.25 -68.1866
      vertex 33.8 58.25 -65.5
    endloop
  endfacet
  facet normal -1 0 0
    outer loop
      vertex 33.8 56 -116.126
      vertex 33.8 57.7444 -117.5
      vertex 33.8 56 -116.868
    endloop
  endfacet
  facet normal -1 0 0
    outer loop
      vertex 33.8 57.7444 -117.5
      vertex 33.8 56 -116.126
      vertex 33.8 58.25 -115.31
    endloop
  endfacet
  facet normal 0 1 -0
    outer loop
      vertex 37.4 61.5 -125.5
      vertex 33.8 61.5 -65.5
      vertex 37.4 61.5 -65.5
    endloop
  endfacet
  facet normal 0 1 0
    outer loop
      vertex 33.8 61.5 -65.5
      vertex 37.4 61.5 -125.5
      vertex 33.8 61.5 -125.5
    endloop
  endfacet
  facet normal 0 -1 0
    outer loop
      vertex 33.8 58.25 -68.1866
      vertex 37.4 58.25 -65.5
      vertex 33.8 58.25 -65.5
    endloop
  endfacet
  facet normal 0 -1 -0
    outer loop
      vertex 37.4 58.25 -65.5
      vertex 33.8 58.25 -68.1866
      vertex 37.4 58.25 -68.1866
    endloop
  endfacet
  facet normal 0 -1 0
    outer loop
      vertex 33.8 58.25 -99.6025
      vertex 37.4 58.25 -98.8336
      vertex 33.8 58.25 -98.8336
    endloop
  endfacet
  facet normal 0 -1 -0
    outer loop
      vertex 37.4 58.25 -98.8336
      vertex 33.8 58.25 -99.6025
      vertex 37.4 58.25 -99.6025
    endloop
  endfacet
  facet normal 0 -1 0
    outer loop
      vertex 33.8 58.25 -102.744
      vertex 37.4 58.25 -101.975
      vertex 33.8 58.25 -101.975
    endloop
  endfacet
  facet normal 0 -1 -0
    outer loop
      vertex 37.4 58.25 -101.975
      vertex 33.8 58.25 -102.744
      vertex 37.4 58.25 -102.744
    endloop
  endfacet
  facet normal 0 -1 0
    outer loop
      vertex 33.8 58.25 -105.886
      vertex 37.4 58.25 -105.117
      vertex 33.8 58.25 -105.117
    endloop
  endfacet
  facet normal 0 -1 -0
    outer loop
      vertex 37.4 58.25 -105.117
      vertex 33.8 58.25 -105.886
      vertex 37.4 58.25 -105.886
    endloop
  endfacet
  facet normal 0 -1 0
    outer loop
      vertex 33.8 58.25 -109.027
      vertex 37.4 58.25 -108.258
      vertex 33.8 58.25 -108.258
    endloop
  endfacet
  facet normal 0 -1 -0
    outer loop
      vertex 37.4 58.25 -108.258
      vertex 33.8 58.25 -109.027
      vertex 37.4 58.25 -109.027
    endloop
  endfacet
  facet normal 0 -1 0
    outer loop
      vertex 33.8 58.25 -112.169
      vertex 37.4 58.25 -111.4
      vertex 33.8 58.25 -111.4
    endloop
  endfacet
  facet normal 0 -1 -0
    outer loop
      vertex 37.4 58.25 -111.4
      vertex 33.8 58.25 -112.169
      vertex 37.4 58.25 -112.169
    endloop
  endfacet
  facet normal 0 -1 0
    outer loop
      vertex 33.8 58.25 -115.31
      vertex 37.4 58.25 -114.542
      vertex 33.8 58.25 -114.542
    endloop
  endfacet
  facet normal 0 -1 -0
    outer loop
      vertex 37.4 58.25 -114.542
      vertex 33.8 58.25 -115.31
      vertex 37.4 58.25 -115.31
    endloop
  endfacet
  facet normal 0 -1 0
    outer loop
      vertex 33.8 58.25 -71.3281
      vertex 37.4 58.25 -70.5593
      vertex 33.8 58.25 -70.5593
    endloop
  endfacet
  facet normal 0 -1 -0
    outer loop
      vertex 37.4 58.25 -70.5593
      vertex 33.8 58.25 -71.3281
      vertex 37.4 58.25 -71.3281
    endloop
  endfacet
  facet normal 0 -1 0
    outer loop
      vertex 33.8 58.25 -74.4697
      vertex 37.4 58.25 -73.7009
      vertex 33.8 58.25 -73.7009
    endloop
  endfacet
  facet normal 0 -1 -0
    outer loop
      vertex 37.4 58.25 -73.7009
      vertex 33.8 58.25 -74.4697
      vertex 37.4 58.25 -74.4697
    endloop
  endfacet
  facet normal 0 -1 0
    outer loop
      vertex 33.8 58.25 -77.6113
      vertex 37.4 58.25 -76.8425
      vertex 33.8 58.25 -76.8425
    endloop
  endfacet
  facet normal 0 -1 -0
    outer loop
      vertex 37.4 58.25 -76.8425
      vertex 33.8 58.25 -77.6113
      vertex 37.4 58.25 -77.6113
    endloop
  endfacet
  facet normal 0 -1 0
    outer loop
      vertex 33.8 58.25 -80.7529
      vertex 37.4 58.25 -79.9841
      vertex 33.8 58.25 -79.9841
    endloop
  endfacet
  facet normal 0 -1 -0
    outer loop
      vertex 37.4 58.25 -79.9841
      vertex 33.8 58.25 -80.7529
      vertex 37.4 58.25 -80.7529
    endloop
  endfacet
  facet normal 0 -1 0
    outer loop
      vertex 33.8 58.25 -83.8945
      vertex 37.4 58.25 -83.1257
      vertex 33.8 58.25 -83.1257
    endloop
  endfacet
  facet normal 0 -1 -0
    outer loop
      vertex 37.4 58.25 -83.1257
      vertex 33.8 58.25 -83.8945
      vertex 37.4 58.25 -83.8945
    endloop
  endfacet
  facet normal 0 -1 0
    outer loop
      vertex 33.8 58.25 -87.0361
      vertex 37.4 58.25 -86.2673
      vertex 33.8 58.25 -86.2673
    endloop
  endfacet
  facet normal 0 -1 -0
    outer loop
      vertex 37.4 58.25 -86.2673
      vertex 33.8 58.25 -87.0361
      vertex 37.4 58.25 -87.0361
    endloop
  endfacet
  facet normal 0 -1 0
    outer loop
      vertex 33.8 58.25 -90.1777
      vertex 37.4 58.25 -89.4089
      vertex 33.8 58.25 -89.4089
    endloop
  endfacet
  facet normal 0 -1 -0
    outer loop
      vertex 37.4 58.25 -89.4089
      vertex 33.8 58.25 -90.1777
      vertex 37.4 58.25 -90.1777
    endloop
  endfacet
  facet normal 0 -1 0
    outer loop
      vertex 33.8 58.25 -93.3193
      vertex 37.4 58.25 -92.5505
      vertex 33.8 58.25 -92.5505
    endloop
  endfacet
  facet normal 0 -1 -0
    outer loop
      vertex 37.4 58.25 -92.5505
      vertex 33.8 58.25 -93.3193
      vertex 37.4 58.25 -93.3193
    endloop
  endfacet
  facet normal 0 -1 0
    outer loop
      vertex 33.8 58.25 -96.4609
      vertex 37.4 58.25 -95.6921
      vertex 33.8 58.25 -95.6921
    endloop
  endfacet
  facet normal 0 -1 -0
    outer loop
      vertex 37.4 58.25 -95.6921
      vertex 33.8 58.25 -96.4609
      vertex 37.4 58.25 -96.4609
    endloop
  endfacet
  facet normal 0 -0.340679 0.94018
    outer loop
      vertex 33.8 58.25 -68.1866
      vertex 37.4 56 -69.0019
      vertex 37.4 58.25 -68.1866
    endloop
  endfacet
  facet normal 0 -0.340679 0.94018
    outer loop
      vertex 37.4 56 -69.0019
      vertex 33.8 58.25 -68.1866
      vertex 33.8 56 -69.0019
    endloop
  endfacet
  facet normal 0 -1 0
    outer loop
      vertex 33.8 56 -69.7439
      vertex 37.4 56 -69.0019
      vertex 33.8 56 -69.0019
    endloop
  endfacet
  facet normal 0 -1 -0
    outer loop
      vertex 37.4 56 -69.0019
      vertex 33.8 56 -69.7439
      vertex 37.4 56 -69.7439
    endloop
  endfacet
  facet normal 0 -0.340716 -0.940166
    outer loop
      vertex 33.8 56 -69.7439
      vertex 37.4 58.25 -70.5593
      vertex 37.4 56 -69.7439
    endloop
  endfacet
  facet normal -0 -0.340716 -0.940166
    outer loop
      vertex 37.4 58.25 -70.5593
      vertex 33.8 56 -69.7439
      vertex 33.8 58.25 -70.5593
    endloop
  endfacet
  facet normal 0 -0.340716 0.940166
    outer loop
      vertex 33.8 58.25 -71.3281
      vertex 37.4 56 -72.1435
      vertex 37.4 58.25 -71.3281
    endloop
  endfacet
  facet normal 0 -0.340716 0.940166
    outer loop
      vertex 37.4 56 -72.1435
      vertex 33.8 58.25 -71.3281
      vertex 33.8 56 -72.1435
    endloop
  endfacet
  facet normal 0 -1 0
    outer loop
      vertex 33.8 56 -72.8855
      vertex 37.4 56 -72.1435
      vertex 33.8 56 -72.1435
    endloop
  endfacet
  facet normal 0 -1 -0
    outer loop
      vertex 37.4 56 -72.1435
      vertex 33.8 56 -72.8855
      vertex 37.4 56 -72.8855
    endloop
  endfacet
  facet normal 0 -0.340716 -0.940166
    outer loop
      vertex 33.8 56 -72.8855
      vertex 37.4 58.25 -73.7009
      vertex 37.4 56 -72.8855
    endloop
  endfacet
  facet normal -0 -0.340716 -0.940166
    outer loop
      vertex 37.4 58.25 -73.7009
      vertex 33.8 56 -72.8855
      vertex 33.8 58.25 -73.7009
    endloop
  endfacet
  facet normal 0 -0.340716 0.940166
    outer loop
      vertex 33.8 58.25 -74.4697
      vertex 37.4 56 -75.2851
      vertex 37.4 58.25 -74.4697
    endloop
  endfacet
  facet normal 0 -0.340716 0.940166
    outer loop
      vertex 37.4 56 -75.2851
      vertex 33.8 58.25 -74.4697
      vertex 33.8 56 -75.2851
    endloop
  endfacet
  facet normal 0 -1 0
    outer loop
      vertex 33.8 56 -76.0271
      vertex 37.4 56 -75.2851
      vertex 33.8 56 -75.2851
    endloop
  endfacet
  facet normal 0 -1 -0
    outer loop
      vertex 37.4 56 -75.2851
      vertex 33.8 56 -76.0271
      vertex 37.4 56 -76.0271
    endloop
  endfacet
  facet normal 0 -0.340716 -0.940166
    outer loop
      vertex 33.8 56 -76.0271
      vertex 37.4 58.25 -76.8425
      vertex 37.4 56 -76.0271
    endloop
  endfacet
  facet normal -0 -0.340716 -0.940166
    outer loop
      vertex 37.4 58.25 -76.8425
      vertex 33.8 56 -76.0271
      vertex 33.8 58.25 -76.8425
    endloop
  endfacet
  facet normal 0 -0.340716 0.940166
    outer loop
      vertex 33.8 58.25 -77.6113
      vertex 37.4 56 -78.4267
      vertex 37.4 58.25 -77.6113
    endloop
  endfacet
  facet normal 0 -0.340716 0.940166
    outer loop
      vertex 37.4 56 -78.4267
      vertex 33.8 58.25 -77.6113
      vertex 33.8 56 -78.4267
    endloop
  endfacet
  facet normal 0 -1 0
    outer loop
      vertex 33.8 56 -79.1687
      vertex 37.4 56 -78.4267
      vertex 33.8 56 -78.4267
    endloop
  endfacet
  facet normal 0 -1 -0
    outer loop
      vertex 37.4 56 -78.4267
      vertex 33.8 56 -79.1687
      vertex 37.4 56 -79.1687
    endloop
  endfacet
  facet normal 0 -0.340716 -0.940166
    outer loop
      vertex 33.8 56 -79.1687
      vertex 37.4 58.25 -79.9841
      vertex 37.4 56 -79.1687
    endloop
  endfacet
  facet normal -0 -0.340716 -0.940166
    outer loop
      vertex 37.4 58.25 -79.9841
      vertex 33.8 56 -79.1687
      vertex 33.8 58.25 -79.9841
    endloop
  endfacet
  facet normal 0 -0.340716 0.940166
    outer loop
      vertex 33.8 58.25 -80.7529
      vertex 37.4 56 -81.5683
      vertex 37.4 58.25 -80.7529
    endloop
  endfacet
  facet normal 0 -0.340716 0.940166
    outer loop
      vertex 37.4 56 -81.5683
      vertex 33.8 58.25 -80.7529
      vertex 33.8 56 -81.5683
    endloop
  endfacet
  facet normal 0 -1 0
    outer loop
      vertex 33.8 56 -82.3103
      vertex 37.4 56 -81.5683
      vertex 33.8 56 -81.5683
    endloop
  endfacet
  facet normal 0 -1 -0
    outer loop
      vertex 37.4 56 -81.5683
      vertex 33.8 56 -82.3103
      vertex 37.4 56 -82.3103
    endloop
  endfacet
  facet normal 0 -0.340716 -0.940166
    outer loop
      vertex 33.8 56 -82.3103
      vertex 37.4 58.25 -83.1257
      vertex 37.4 56 -82.3103
    endloop
  endfacet
  facet normal -0 -0.340716 -0.940166
    outer loop
      vertex 37.4 58.25 -83.1257
      vertex 33.8 56 -82.3103
      vertex 33.8 58.25 -83.1257
    endloop
  endfacet
  facet normal 0 -0.340716 0.940166
    outer loop
      vertex 33.8 58.25 -83.8945
      vertex 37.4 56 -84.7099
      vertex 37.4 58.25 -83.8945
    endloop
  endfacet
  facet normal 0 -0.340716 0.940166
    outer loop
      vertex 37.4 56 -84.7099
      vertex 33.8 58.25 -83.8945
      vertex 33.8 56 -84.7099
    endloop
  endfacet
  facet normal 0 -1 0
    outer loop
      vertex 33.8 56 -85.4519
      vertex 37.4 56 -84.7099
      vertex 33.8 56 -84.7099
    endloop
  endfacet
  facet normal 0 -1 -0
    outer loop
      vertex 37.4 56 -84.7099
      vertex 33.8 56 -85.4519
      vertex 37.4 56 -85.4519
    endloop
  endfacet
  facet normal 0 -0.340716 -0.940166
    outer loop
      vertex 33.8 56 -85.4519
      vertex 37.4 58.25 -86.2673
      vertex 37.4 56 -85.4519
    endloop
  endfacet
  facet normal -0 -0.340716 -0.940166
    outer loop
      vertex 37.4 58.25 -86.2673
      vertex 33.8 56 -85.4519
      vertex 33.8 58.25 -86.2673
    endloop
  endfacet
  facet normal 0 -0.340716 0.940166
    outer loop
      vertex 33.8 58.25 -87.0361
      vertex 37.4 56 -87.8515
      vertex 37.4 58.25 -87.0361
    endloop
  endfacet
  facet normal 0 -0.340716 0.940166
    outer loop
      vertex 37.4 56 -87.8515
      vertex 33.8 58.25 -87.0361
      vertex 33.8 56 -87.8515
    endloop
  endfacet
  facet normal 0 -1 0
    outer loop
      vertex 33.8 56 -88.5935
      vertex 37.4 56 -87.8515
      vertex 33.8 56 -87.8515
    endloop
  endfacet
  facet normal 0 -1 -0
    outer loop
      vertex 37.4 56 -87.8515
      vertex 33.8 56 -88.5935
      vertex 37.4 56 -88.5935
    endloop
  endfacet
  facet normal 0 -0.340716 -0.940166
    outer loop
      vertex 33.8 56 -88.5935
      vertex 37.4 58.25 -89.4089
      vertex 37.4 56 -88.5935
    endloop
  endfacet
  facet normal -0 -0.340716 -0.940166
    outer loop
      vertex 37.4 58.25 -89.4089
      vertex 33.8 56 -88.5935
      vertex 33.8 58.25 -89.4089
    endloop
  endfacet
  facet normal 0 -0.340716 0.940166
    outer loop
      vertex 33.8 58.25 -90.1777
      vertex 37.4 56 -90.9931
      vertex 37.4 58.25 -90.1777
    endloop
  endfacet
  facet normal 0 -0.340716 0.940166
    outer loop
      vertex 37.4 56 -90.9931
      vertex 33.8 58.25 -90.1777
      vertex 33.8 56 -90.9931
    endloop
  endfacet
  facet normal 0 -1 0
    outer loop
      vertex 33.8 56 -91.7351
      vertex 37.4 56 -90.9931
      vertex 33.8 56 -90.9931
    endloop
  endfacet
  facet normal 0 -1 -0
    outer loop
      vertex 37.4 56 -90.9931
      vertex 33.8 56 -91.7351
      vertex 37.4 56 -91.7351
    endloop
  endfacet
  facet normal 0 -0.340716 -0.940166
    outer loop
      vertex 33.8 56 -91.7351
      vertex 37.4 58.25 -92.5505
      vertex 37.4 56 -91.7351
    endloop
  endfacet
  facet normal -0 -0.340716 -0.940166
    outer loop
      vertex 37.4 58.25 -92.5505
      vertex 33.8 56 -91.7351
      vertex 33.8 58.25 -92.5505
    endloop
  endfacet
  facet normal 0 -0.340716 0.940166
    outer loop
      vertex 33.8 58.25 -93.3193
      vertex 37.4 56 -94.1347
      vertex 37.4 58.25 -93.3193
    endloop
  endfacet
  facet normal 0 -0.340716 0.940166
    outer loop
      vertex 37.4 56 -94.1347
      vertex 33.8 58.25 -93.3193
      vertex 33.8 56 -94.1347
    endloop
  endfacet
  facet normal 0 -1 0
    outer loop
      vertex 33.8 56 -94.8767
      vertex 37.4 56 -94.1347
      vertex 33.8 56 -94.1347
    endloop
  endfacet
  facet normal 0 -1 -0
    outer loop
      vertex 37.4 56 -94.1347
      vertex 33.8 56 -94.8767
      vertex 37.4 56 -94.8767
    endloop
  endfacet
  facet normal 0 -0.340716 -0.940166
    outer loop
      vertex 33.8 56 -94.8767
      vertex 37.4 58.25 -95.6921
      vertex 37.4 56 -94.8767
    endloop
  endfacet
  facet normal -0 -0.340716 -0.940166
    outer loop
      vertex 37.4 58.25 -95.6921
      vertex 33.8 56 -94.8767
      vertex 33.8 58.25 -95.6921
    endloop
  endfacet
  facet normal 0 -0.340716 0.940166
    outer loop
      vertex 33.8 58.25 -96.4609
      vertex 37.4 56 -97.2763
      vertex 37.4 58.25 -96.4609
    endloop
  endfacet
  facet normal 0 -0.340716 0.940166
    outer loop
      vertex 37.4 56 -97.2763
      vertex 33.8 58.25 -96.4609
      vertex 33.8 56 -97.2763
    endloop
  endfacet
  facet normal 0 -1 0
    outer loop
      vertex 33.8 56 -98.0183
      vertex 37.4 56 -97.2763
      vertex 33.8 56 -97.2763
    endloop
  endfacet
  facet normal 0 -1 -0
    outer loop
      vertex 37.4 56 -97.2763
      vertex 33.8 56 -98.0183
      vertex 37.4 56 -98.0183
    endloop
  endfacet
  facet normal 0 -0.340679 -0.94018
    outer loop
      vertex 33.8 56 -98.0183
      vertex 37.4 58.25 -98.8336
      vertex 37.4 56 -98.0183
    endloop
  endfacet
  facet normal -0 -0.340679 -0.94018
    outer loop
      vertex 37.4 58.25 -98.8336
      vertex 33.8 56 -98.0183
      vertex 33.8 58.25 -98.8336
    endloop
  endfacet
  facet normal 0 -0.340753 0.940153
    outer loop
      vertex 33.8 58.25 -99.6025
      vertex 37.4 56 -100.418
      vertex 37.4 58.25 -99.6025
    endloop
  endfacet
  facet normal 0 -0.340753 0.940153
    outer loop
      vertex 37.4 56 -100.418
      vertex 33.8 58.25 -99.6025
      vertex 33.8 56 -100.418
    endloop
  endfacet
  facet normal 0 -1 0
    outer loop
      vertex 33.8 56 -101.16
      vertex 37.4 56 -100.418
      vertex 33.8 56 -100.418
    endloop
  endfacet
  facet normal 0 -1 -0
    outer loop
      vertex 37.4 56 -100.418
      vertex 33.8 56 -101.16
      vertex 37.4 56 -101.16
    endloop
  endfacet
  facet normal 0 -0.340568 -0.94022
    outer loop
      vertex 33.8 56 -101.16
      vertex 37.4 58.25 -101.975
      vertex 37.4 56 -101.16
    endloop
  endfacet
  facet normal -0 -0.340568 -0.94022
    outer loop
      vertex 37.4 58.25 -101.975
      vertex 33.8 56 -101.16
      vertex 33.8 58.25 -101.975
    endloop
  endfacet
  facet normal 0 -0.340568 0.94022
    outer loop
      vertex 33.8 58.25 -102.744
      vertex 37.4 56 -103.559
      vertex 37.4 58.25 -102.744
    endloop
  endfacet
  facet normal 0 -0.340568 0.94022
    outer loop
      vertex 37.4 56 -103.559
      vertex 33.8 58.25 -102.744
      vertex 33.8 56 -103.559
    endloop
  endfacet
  facet normal 0 -1 0
    outer loop
      vertex 33.8 56 -104.301
      vertex 37.4 56 -103.559
      vertex 33.8 56 -103.559
    endloop
  endfacet
  facet normal 0 -1 -0
    outer loop
      vertex 37.4 56 -103.559
      vertex 33.8 56 -104.301
      vertex 37.4 56 -104.301
    endloop
  endfacet
  facet normal 0 -0.340938 -0.940086
    outer loop
      vertex 33.8 56 -104.301
      vertex 37.4 58.25 -105.117
      vertex 37.4 56 -104.301
    endloop
  endfacet
  facet normal -0 -0.340938 -0.940086
    outer loop
      vertex 37.4 58.25 -105.117
      vertex 33.8 56 -104.301
      vertex 33.8 58.25 -105.117
    endloop
  endfacet
  facet normal 0 -0.340568 0.94022
    outer loop
      vertex 33.8 58.25 -105.886
      vertex 37.4 56 -106.701
      vertex 37.4 58.25 -105.886
    endloop
  endfacet
  facet normal 0 -0.340568 0.94022
    outer loop
      vertex 37.4 56 -106.701
      vertex 33.8 58.25 -105.886
      vertex 33.8 56 -106.701
    endloop
  endfacet
  facet normal 0 -1 0
    outer loop
      vertex 33.8 56 -107.443
      vertex 37.4 56 -106.701
      vertex 33.8 56 -106.701
    endloop
  endfacet
  facet normal 0 -1 -0
    outer loop
      vertex 37.4 56 -106.701
      vertex 33.8 56 -107.443
      vertex 37.4 56 -107.443
    endloop
  endfacet
  facet normal 0 -0.340568 -0.94022
    outer loop
      vertex 33.8 56 -107.443
      vertex 37.4 58.25 -108.258
      vertex 37.4 56 -107.443
    endloop
  endfacet
  facet normal -0 -0.340568 -0.94022
    outer loop
      vertex 37.4 58.25 -108.258
      vertex 33.8 56 -107.443
      vertex 33.8 58.25 -108.258
    endloop
  endfacet
  facet normal 0 -0.340938 0.940086
    outer loop
      vertex 33.8 58.25 -109.027
      vertex 37.4 56 -109.843
      vertex 37.4 58.25 -109.027
    endloop
  endfacet
  facet normal 0 -0.340938 0.940086
    outer loop
      vertex 37.4 56 -109.843
      vertex 33.8 58.25 -109.027
      vertex 33.8 56 -109.843
    endloop
  endfacet
  facet normal 0 -1 0
    outer loop
      vertex 33.8 56 -110.585
      vertex 37.4 56 -109.843
      vertex 33.8 56 -109.843
    endloop
  endfacet
  facet normal 0 -1 -0
    outer loop
      vertex 37.4 56 -109.843
      vertex 33.8 56 -110.585
      vertex 37.4 56 -110.585
    endloop
  endfacet
  facet normal 0 -0.340568 -0.94022
    outer loop
      vertex 33.8 56 -110.585
      vertex 37.4 58.25 -111.4
      vertex 37.4 56 -110.585
    endloop
  endfacet
  facet normal -0 -0.340568 -0.94022
    outer loop
      vertex 37.4 58.25 -111.4
      vertex 33.8 56 -110.585
      vertex 33.8 58.25 -111.4
    endloop
  endfacet
  facet normal 0 -0.340568 0.94022
    outer loop
      vertex 33.8 58.25 -112.169
      vertex 37.4 56 -112.984
      vertex 37.4 58.25 -112.169
    endloop
  endfacet
  facet normal 0 -0.340568 0.94022
    outer loop
      vertex 37.4 56 -112.984
      vertex 33.8 58.25 -112.169
      vertex 33.8 56 -112.984
    endloop
  endfacet
  facet normal 0 -1 0
    outer loop
      vertex 33.8 56 -113.726
      vertex 37.4 56 -112.984
      vertex 33.8 56 -112.984
    endloop
  endfacet
  facet normal 0 -1 -0
    outer loop
      vertex 37.4 56 -112.984
      vertex 33.8 56 -113.726
      vertex 37.4 56 -113.726
    endloop
  endfacet
  facet normal 0 -0.340938 -0.940086
    outer loop
      vertex 33.8 56 -113.726
      vertex 37.4 58.25 -114.542
      vertex 37.4 56 -113.726
    endloop
  endfacet
  facet normal -0 -0.340938 -0.940086
    outer loop
      vertex 37.4 58.25 -114.542
      vertex 33.8 56 -113.726
      vertex 33.8 58.25 -114.542
    endloop
  endfacet
  facet normal 0 -0.340938 0.940086
    outer loop
      vertex 33.8 58.25 -115.31
      vertex 37.4 56 -116.126
      vertex 37.4 58.25 -115.31
    endloop
  endfacet
  facet normal 0 -0.340938 0.940086
    outer loop
      vertex 37.4 56 -116.126
      vertex 33.8 58.25 -115.31
      vertex 33.8 56 -116.126
    endloop
  endfacet
  facet normal 0 -1 0
    outer loop
      vertex 33.8 56 -116.868
      vertex 37.4 56 -116.126
      vertex 33.8 56 -116.126
    endloop
  endfacet
  facet normal 0 -1 -0
    outer loop
      vertex 37.4 56 -116.126
      vertex 33.8 56 -116.868
      vertex 37.4 56 -116.868
    endloop
  endfacet
  facet normal 0 -0.340635 -0.940196
    outer loop
      vertex 33.8 56 -116.868
      vertex 37.4 57.7444 -117.5
      vertex 37.4 56 -116.868
    endloop
  endfacet
  facet normal -0 -0.340635 -0.940196
    outer loop
      vertex 37.4 57.7444 -117.5
      vertex 33.8 56 -116.868
      vertex 33.8 57.7444 -117.5
    endloop
  endfacet
  facet normal 1 -0 0
    outer loop
      vertex 39.6 -44.6 -111.5
      vertex 39.6 42.6 -117.5
      vertex 39.6 42.6 -111.5
    endloop
  endfacet
  facet normal 1 0 0
    outer loop
      vertex 39.6 42.6 -117.5
      vertex 39.6 -44.6 -111.5
      vertex 39.6 42 -125.5
    endloop
  endfacet
  facet normal 1 0 0
    outer loop
      vertex 39.6 -44.6 -151.5
      vertex 39.6 42 -125.5
      vertex 39.6 -44.6 -111.5
    endloop
  endfacet
  facet normal 1 0 0
    outer loop
      vertex 39.6 42 -125.5
      vertex 39.6 -44.6 -151.5
      vertex 39.6 42 -151.5
    endloop
  endfacet
  facet normal 1 -0 0
    outer loop
      vertex 39.6 42.6 -117.5
      vertex 39.6 60 -125.5
      vertex 39.6 60 -117.5
    endloop
  endfacet
  facet normal 1 0 0
    outer loop
      vertex 39.6 60 -125.5
      vertex 39.6 42.6 -117.5
      vertex 39.6 42 -125.5
    endloop
  endfacet
  facet normal -0 0 1
    outer loop
      vertex 37.6 42.6 -111.5
      vertex 39.6 -44.6 -111.5
      vertex 39.6 42.6 -111.5
    endloop
  endfacet
  facet normal 0 0 1
    outer loop
      vertex 39.6 -44.6 -111.5
      vertex 37.6 42.6 -111.5
      vertex 37.6 -44.6 -111.5
    endloop
  endfacet
  facet normal 0 0 -1
    outer loop
      vertex 37.6 -44.6 -151.5
      vertex 39.6 42 -151.5
      vertex 39.6 -44.6 -151.5
    endloop
  endfacet
  facet normal -0 0 -1
    outer loop
      vertex 39.6 42 -151.5
      vertex 37.6 -44.6 -151.5
      vertex 37.6 42 -151.5
    endloop
  endfacet
  facet normal -1 0 0
    outer loop
      vertex 37.6 42 -151.5
      vertex 37.6 -44.6 -151.5
      vertex 37.6 42 -125.5
    endloop
  endfacet
  facet normal -1 0 0
    outer loop
      vertex 37.6 42.5 -125.5
      vertex 37.6 42 -125.5
      vertex 37.6 42.5 -117.5
    endloop
  endfacet
  facet normal -1 0 0
    outer loop
      vertex 37.6 42.5 -117.5
      vertex 37.6 42.6 -111.5
      vertex 37.6 42.6 -117.5
    endloop
  endfacet
  facet normal -1 0 0
    outer loop
      vertex 37.6 -44.6 -111.5
      vertex 37.6 42.5 -117.5
      vertex 37.6 42 -125.5
    endloop
  endfacet
  facet normal -1 0 0
    outer loop
      vertex 37.6 -44.6 -111.5
      vertex 37.6 42 -125.5
      vertex 37.6 -44.6 -151.5
    endloop
  endfacet
  facet normal -1 0 0
    outer loop
      vertex 37.6 42.5 -117.5
      vertex 37.6 -44.6 -111.5
      vertex 37.6 42.6 -111.5
    endloop
  endfacet
  facet normal 0 1 -0
    outer loop
      vertex 39.6 42 -151.5
      vertex 37.6 42 -125.5
      vertex 39.6 42 -125.5
    endloop
  endfacet
  facet normal 0 1 0
    outer loop
      vertex 37.6 42 -125.5
      vertex 39.6 42 -151.5
      vertex 37.6 42 -151.5
    endloop
  endfacet
  facet normal 0 -1 0
    outer loop
      vertex 37.6 -44.6 -151.5
      vertex 39.6 -44.6 -111.5
      vertex 37.6 -44.6 -111.5
    endloop
  endfacet
  facet normal 0 -1 -0
    outer loop
      vertex 39.6 -44.6 -111.5
      vertex 37.6 -44.6 -151.5
      vertex 39.6 -44.6 -151.5
    endloop
  endfacet
  facet normal -0 0 1
    outer loop
      vertex 37.4 57.7444 -117.5
      vertex 39.6 42.6 -117.5
      vertex 39.6 60 -117.5
    endloop
  endfacet
  facet normal 0 0 1
    outer loop
      vertex 37.4 57.7444 -117.5
      vertex 39.6 60 -117.5
      vertex 37.4 60 -117.5
    endloop
  endfacet
  facet normal 0 0 1
    outer loop
      vertex 39.6 42.6 -117.5
      vertex 37.4 57.7444 -117.5
      vertex 37.6 42.6 -117.5
    endloop
  endfacet
  facet normal -0 0 1
    outer loop
      vertex 33.8 57.7444 -117.5
      vertex 37.6 42.6 -117.5
      vertex 37.4 57.7444 -117.5
    endloop
  endfacet
  facet normal 0 0 1
    outer loop
      vertex 37.6 42.6 -117.5
      vertex 33.8 57.7444 -117.5
      vertex 33.8 42.5 -117.5
    endloop
  endfacet
  facet normal 0 0 1
    outer loop
      vertex 37.6 42.6 -117.5
      vertex 33.8 42.5 -117.5
      vertex 37.6 42.5 -117.5
    endloop
  endfacet
  facet normal 0 1 -0
    outer loop
      vertex 39.6 60 -125.5
      vertex 37.4 60 -117.5
      vertex 39.6 60 -117.5
    endloop
  endfacet
  facet normal 0 1 0
    outer loop
      vertex 37.4 60 -117.5
      vertex 39.6 60 -125.5
      vertex 37.4 60 -125.5
    endloop
  endfacet
  facet normal 0 -1 0
    outer loop
      vertex 33.8 42.5 -125.5
      vertex 37.6 42.5 -117.5
      vertex 33.8 42.5 -117.5
    endloop
  endfacet
  facet normal 0 -1 -0
    outer loop
      vertex 37.6 42.5 -117.5
      vertex 33.8 42.5 -125.5
      vertex 37.6 42.5 -125.5
    endloop
  endfacet
  facet normal 0 1 -0
    outer loop
      vertex 39.6 42.6 -117.5
      vertex 37.6 42.6 -111.5
      vertex 39.6 42.6 -111.5
    endloop
  endfacet
  facet normal 0 1 0
    outer loop
      vertex 37.6 42.6 -111.5
      vertex 39.6 42.6 -117.5
      vertex 37.6 42.6 -117.5
    endloop
  endfacet
endsolid OpenSCAD_Model
