solid OpenSCAD_Model
  facet normal 1 -0 0
    outer loop
      vertex 37.4 34 -107
      vertex 37.4 37.75 -107.102
      vertex 37.4 37.75 -107
    endloop
  endfacet
  facet normal 1 0 0
    outer loop
      vertex 37.4 37.75 -107.102
      vertex 37.4 34 -107
      vertex 37.4 37.75 -109.474
    endloop
  endfacet
  facet normal 1 0 0
    outer loop
      vertex 37.4 37.75 -109.474
      vertex 37.4 34 -107
      vertex 37.4 37.75 -110.243
    endloop
  endfacet
  facet normal 1 0 0
    outer loop
      vertex 37.4 37.75 -110.243
      vertex 37.4 34 -107
      vertex 37.4 37.75 -112.616
    endloop
  endfacet
  facet normal 1 0 0
    outer loop
      vertex 37.4 37.75 -112.616
      vertex 37.4 34 -107
      vertex 37.4 37.75 -113.385
    endloop
  endfacet
  facet normal 1 0 0
    outer loop
      vertex 37.4 37.75 -113.385
      vertex 37.4 34 -107
      vertex 37.4 37.75 -115.757
    endloop
  endfacet
  facet normal 1 0 0
    outer loop
      vertex 37.4 37.75 -115.757
      vertex 37.4 34 -107
      vertex 37.4 37.75 -116.526
    endloop
  endfacet
  facet normal 1 0 0
    outer loop
      vertex 37.4 37.75 -116.526
      vertex 37.4 34 -107
      vertex 37.4 37.75 -118.899
    endloop
  endfacet
  facet normal 1 0 0
    outer loop
      vertex 37.4 37.75 -118.899
      vertex 37.4 34 -107
      vertex 37.4 37.75 -119.668
    endloop
  endfacet
  facet normal 1 0 0
    outer loop
      vertex 37.4 37.75 -119.668
      vertex 37.4 34 -107
      vertex 37.4 37.75 -122.041
    endloop
  endfacet
  facet normal 1 0 0
    outer loop
      vertex 37.4 37.75 -122.041
      vertex 37.4 34 -107
      vertex 37.4 37.75 -122.809
    endloop
  endfacet
  facet normal 1 0 0
    outer loop
      vertex 37.4 37.75 -122.809
      vertex 37.4 34 -107
      vertex 37.4 37.75 -125.182
    endloop
  endfacet
  facet normal 1 0 0
    outer loop
      vertex 37.4 37.75 -125.182
      vertex 37.4 34 -107
      vertex 37.4 37.75 -125.951
    endloop
  endfacet
  facet normal 1 0 0
    outer loop
      vertex 37.4 37.75 -125.951
      vertex 37.4 34 -107
      vertex 37.4 37.75 -128.324
    endloop
  endfacet
  facet normal 1 0 0
    outer loop
      vertex 37.4 34 -147
      vertex 37.4 37.75 -128.324
      vertex 37.4 34 -107
    endloop
  endfacet
  facet normal 1 0 0
    outer loop
      vertex 37.4 37.75 -128.324
      vertex 37.4 34 -147
      vertex 37.4 37.75 -129.093
    endloop
  endfacet
  facet normal 1 0 0
    outer loop
      vertex 37.4 37.75 -129.093
      vertex 37.4 34 -147
      vertex 37.4 37.75 -131.465
    endloop
  endfacet
  facet normal 1 0 0
    outer loop
      vertex 37.4 37.75 -131.465
      vertex 37.4 34 -147
      vertex 37.4 37.75 -132.234
    endloop
  endfacet
  facet normal 1 0 0
    outer loop
      vertex 37.4 37.75 -132.234
      vertex 37.4 34 -147
      vertex 37.4 37.75 -134.607
    endloop
  endfacet
  facet normal 1 0 0
    outer loop
      vertex 37.4 37.75 -134.607
      vertex 37.4 34 -147
      vertex 37.4 37.75 -135.376
    endloop
  endfacet
  facet normal 1 0 0
    outer loop
      vertex 37.4 37.75 -135.376
      vertex 37.4 34 -147
      vertex 37.4 37.75 -137.749
    endloop
  endfacet
  facet normal 1 0 0
    outer loop
      vertex 37.4 37.75 -137.749
      vertex 37.4 34 -147
      vertex 37.4 37.75 -138.517
    endloop
  endfacet
  facet normal 1 0 0
    outer loop
      vertex 37.4 37.75 -138.517
      vertex 37.4 34 -147
      vertex 37.4 37.75 -140.89
    endloop
  endfacet
  facet normal 1 0 0
    outer loop
      vertex 37.4 37.75 -140.89
      vertex 37.4 34 -147
      vertex 37.4 37.75 -141.659
    endloop
  endfacet
  facet normal 1 0 0
    outer loop
      vertex 37.4 37.75 -141.659
      vertex 37.4 34 -147
      vertex 37.4 37.75 -144.032
    endloop
  endfacet
  facet normal 1 0 0
    outer loop
      vertex 37.4 37.75 -144.032
      vertex 37.4 34 -147
      vertex 37.4 37.75 -147
    endloop
  endfacet
  facet normal 1 0 0
    outer loop
      vertex 37.4 37.75 -107.102
      vertex 37.4 40 -108.659
      vertex 37.4 40 -107.917
    endloop
  endfacet
  facet normal 1 0 0
    outer loop
      vertex 37.4 40 -108.659
      vertex 37.4 37.75 -107.102
      vertex 37.4 37.75 -109.474
    endloop
  endfacet
  facet normal 1 0 0
    outer loop
      vertex 37.4 37.75 -110.243
      vertex 37.4 40 -111.8
      vertex 37.4 40 -111.058
    endloop
  endfacet
  facet normal 1 0 0
    outer loop
      vertex 37.4 40 -111.8
      vertex 37.4 37.75 -110.243
      vertex 37.4 37.75 -112.616
    endloop
  endfacet
  facet normal 1 0 0
    outer loop
      vertex 37.4 37.75 -113.385
      vertex 37.4 40 -114.942
      vertex 37.4 40 -114.2
    endloop
  endfacet
  facet normal 1 0 0
    outer loop
      vertex 37.4 40 -114.942
      vertex 37.4 37.75 -113.385
      vertex 37.4 37.75 -115.757
    endloop
  endfacet
  facet normal 1 0 0
    outer loop
      vertex 37.4 37.75 -116.526
      vertex 37.4 40 -118.084
      vertex 37.4 40 -117.342
    endloop
  endfacet
  facet normal 1 0 0
    outer loop
      vertex 37.4 40 -118.084
      vertex 37.4 37.75 -116.526
      vertex 37.4 37.75 -118.899
    endloop
  endfacet
  facet normal 1 0 0
    outer loop
      vertex 37.4 37.75 -119.668
      vertex 37.4 40 -121.225
      vertex 37.4 40 -120.483
    endloop
  endfacet
  facet normal 1 0 0
    outer loop
      vertex 37.4 40 -121.225
      vertex 37.4 37.75 -119.668
      vertex 37.4 37.75 -122.041
    endloop
  endfacet
  facet normal 1 0 0
    outer loop
      vertex 37.4 37.75 -122.809
      vertex 37.4 40 -124.367
      vertex 37.4 40 -123.625
    endloop
  endfacet
  facet normal 1 0 0
    outer loop
      vertex 37.4 40 -124.367
      vertex 37.4 37.75 -122.809
      vertex 37.4 37.75 -125.182
    endloop
  endfacet
  facet normal 1 0 0
    outer loop
      vertex 37.4 37.75 -125.951
      vertex 37.4 40 -127.508
      vertex 37.4 40 -126.766
    endloop
  endfacet
  facet normal 1 0 0
    outer loop
      vertex 37.4 40 -127.508
      vertex 37.4 37.75 -125.951
      vertex 37.4 37.75 -128.324
    endloop
  endfacet
  facet normal 1 0 0
    outer loop
      vertex 37.4 37.75 -129.093
      vertex 37.4 40 -130.65
      vertex 37.4 40 -129.908
    endloop
  endfacet
  facet normal 1 0 0
    outer loop
      vertex 37.4 40 -130.65
      vertex 37.4 37.75 -129.093
      vertex 37.4 37.75 -131.465
    endloop
  endfacet
  facet normal 1 0 0
    outer loop
      vertex 37.4 37.75 -132.234
      vertex 37.4 40 -133.792
      vertex 37.4 40 -133.05
    endloop
  endfacet
  facet normal 1 0 0
    outer loop
      vertex 37.4 40 -133.792
      vertex 37.4 37.75 -132.234
      vertex 37.4 37.75 -134.607
    endloop
  endfacet
  facet normal 1 0 0
    outer loop
      vertex 37.4 37.75 -135.376
      vertex 37.4 40 -136.933
      vertex 37.4 40 -136.191
    endloop
  endfacet
  facet normal 1 0 0
    outer loop
      vertex 37.4 40 -136.933
      vertex 37.4 37.75 -135.376
      vertex 37.4 37.75 -137.749
    endloop
  endfacet
  facet normal 1 0 0
    outer loop
      vertex 37.4 37.75 -138.517
      vertex 37.4 40 -140.075
      vertex 37.4 40 -139.333
    endloop
  endfacet
  facet normal 1 0 0
    outer loop
      vertex 37.4 40 -140.075
      vertex 37.4 37.75 -138.517
      vertex 37.4 37.75 -140.89
    endloop
  endfacet
  facet normal 1 0 0
    outer loop
      vertex 37.4 37.75 -141.659
      vertex 37.4 40 -143.216
      vertex 37.4 40 -142.474
    endloop
  endfacet
  facet normal 1 0 0
    outer loop
      vertex 37.4 40 -143.216
      vertex 37.4 37.75 -141.659
      vertex 37.4 37.75 -144.032
    endloop
  endfacet
  facet normal 1 0 0
    outer loop
      vertex 37.4 37.75 -97.6767
      vertex 37.4 40 -99.2341
      vertex 37.4 40 -98.4921
    endloop
  endfacet
  facet normal 1 0 0
    outer loop
      vertex 37.4 40 -99.2341
      vertex 37.4 37.75 -97.6767
      vertex 37.4 37.75 -100.049
    endloop
  endfacet
  facet normal 1 0 0
    outer loop
      vertex 37.4 37.75 -100.818
      vertex 37.4 40 -102.376
      vertex 37.4 40 -101.634
    endloop
  endfacet
  facet normal 1 0 0
    outer loop
      vertex 37.4 40 -102.376
      vertex 37.4 37.75 -100.818
      vertex 37.4 37.75 -103.191
    endloop
  endfacet
  facet normal 1 0 0
    outer loop
      vertex 37.4 37.75 -103.96
      vertex 37.4 40 -105.517
      vertex 37.4 40 -104.775
    endloop
  endfacet
  facet normal 1 0 0
    outer loop
      vertex 37.4 40 -105.517
      vertex 37.4 37.75 -103.96
      vertex 37.4 37.75 -106.333
    endloop
  endfacet
  facet normal -0 0 1
    outer loop
      vertex 33.8 37.75 -97
      vertex 37.6 34 -97
      vertex 37.6 37.75 -97
    endloop
  endfacet
  facet normal 0 0 1
    outer loop
      vertex 37.6 34 -97
      vertex 33.8 37.75 -97
      vertex 33.8 34 -97
    endloop
  endfacet
  facet normal 0 0 -1
    outer loop
      vertex 33.8 34 -147
      vertex 37.4 37.75 -147
      vertex 37.4 34 -147
    endloop
  endfacet
  facet normal -0 0 -1
    outer loop
      vertex 37.4 37.75 -147
      vertex 33.8 34 -147
      vertex 33.8 37.75 -147
    endloop
  endfacet
  facet normal -1 0 0
    outer loop
      vertex 33.8 34 -147
      vertex 33.8 37.75 -144.032
      vertex 33.8 37.75 -147
    endloop
  endfacet
  facet normal -1 -0 0
    outer loop
      vertex 33.8 37.75 -144.032
      vertex 33.8 34 -147
      vertex 33.8 37.75 -141.659
    endloop
  endfacet
  facet normal -1 -0 0
    outer loop
      vertex 33.8 37.75 -141.659
      vertex 33.8 34 -147
      vertex 33.8 37.75 -140.89
    endloop
  endfacet
  facet normal -1 -0 0
    outer loop
      vertex 33.8 37.75 -140.89
      vertex 33.8 34 -147
      vertex 33.8 37.75 -138.517
    endloop
  endfacet
  facet normal -1 -0 0
    outer loop
      vertex 33.8 37.75 -138.517
      vertex 33.8 34 -147
      vertex 33.8 37.75 -137.749
    endloop
  endfacet
  facet normal -1 -0 0
    outer loop
      vertex 33.8 37.75 -137.749
      vertex 33.8 34 -147
      vertex 33.8 37.75 -135.376
    endloop
  endfacet
  facet normal -1 -0 0
    outer loop
      vertex 33.8 37.75 -135.376
      vertex 33.8 34 -147
      vertex 33.8 37.75 -134.607
    endloop
  endfacet
  facet normal -1 -0 0
    outer loop
      vertex 33.8 37.75 -134.607
      vertex 33.8 34 -147
      vertex 33.8 37.75 -132.234
    endloop
  endfacet
  facet normal -1 -0 0
    outer loop
      vertex 33.8 37.75 -132.234
      vertex 33.8 34 -147
      vertex 33.8 37.75 -131.465
    endloop
  endfacet
  facet normal -1 -0 0
    outer loop
      vertex 33.8 37.75 -131.465
      vertex 33.8 34 -147
      vertex 33.8 37.75 -129.093
    endloop
  endfacet
  facet normal -1 -0 0
    outer loop
      vertex 33.8 37.75 -129.093
      vertex 33.8 34 -147
      vertex 33.8 37.75 -128.324
    endloop
  endfacet
  facet normal -1 -0 0
    outer loop
      vertex 33.8 37.75 -128.324
      vertex 33.8 34 -147
      vertex 33.8 37.75 -125.951
    endloop
  endfacet
  facet normal -1 -0 0
    outer loop
      vertex 33.8 37.75 -125.951
      vertex 33.8 34 -147
      vertex 33.8 37.75 -125.182
    endloop
  endfacet
  facet normal -1 -0 0
    outer loop
      vertex 33.8 37.75 -125.182
      vertex 33.8 34 -147
      vertex 33.8 37.75 -122.809
    endloop
  endfacet
  facet normal -1 -0 0
    outer loop
      vertex 33.8 37.75 -122.809
      vertex 33.8 34 -147
      vertex 33.8 37.75 -122.041
    endloop
  endfacet
  facet normal -1 0 0
    outer loop
      vertex 33.8 34 -97
      vertex 33.8 37.75 -122.041
      vertex 33.8 34 -147
    endloop
  endfacet
  facet normal -1 0 0
    outer loop
      vertex 33.8 37.75 -122.041
      vertex 33.8 34 -97
      vertex 33.8 37.75 -119.668
    endloop
  endfacet
  facet normal -1 0 0
    outer loop
      vertex 33.8 37.75 -119.668
      vertex 33.8 34 -97
      vertex 33.8 37.75 -118.899
    endloop
  endfacet
  facet normal -1 0 0
    outer loop
      vertex 33.8 37.75 -118.899
      vertex 33.8 34 -97
      vertex 33.8 37.75 -116.526
    endloop
  endfacet
  facet normal -1 0 0
    outer loop
      vertex 33.8 37.75 -116.526
      vertex 33.8 34 -97
      vertex 33.8 37.75 -115.757
    endloop
  endfacet
  facet normal -1 0 0
    outer loop
      vertex 33.8 37.75 -115.757
      vertex 33.8 34 -97
      vertex 33.8 37.75 -113.385
    endloop
  endfacet
  facet normal -1 0 0
    outer loop
      vertex 33.8 37.75 -113.385
      vertex 33.8 34 -97
      vertex 33.8 37.75 -112.616
    endloop
  endfacet
  facet normal -1 0 0
    outer loop
      vertex 33.8 37.75 -112.616
      vertex 33.8 34 -97
      vertex 33.8 37.75 -110.243
    endloop
  endfacet
  facet normal -1 0 0
    outer loop
      vertex 33.8 37.75 -110.243
      vertex 33.8 34 -97
      vertex 33.8 37.75 -109.474
    endloop
  endfacet
  facet normal -1 0 0
    outer loop
      vertex 33.8 37.75 -109.474
      vertex 33.8 34 -97
      vertex 33.8 37.75 -107.102
    endloop
  endfacet
  facet normal -1 0 0
    outer loop
      vertex 33.8 37.75 -107.102
      vertex 33.8 34 -97
      vertex 33.8 37.75 -106.333
    endloop
  endfacet
  facet normal -1 0 0
    outer loop
      vertex 33.8 37.75 -106.333
      vertex 33.8 34 -97
      vertex 33.8 37.75 -103.96
    endloop
  endfacet
  facet normal -1 0 0
    outer loop
      vertex 33.8 37.75 -103.96
      vertex 33.8 34 -97
      vertex 33.8 37.75 -103.191
    endloop
  endfacet
  facet normal -1 0 0
    outer loop
      vertex 33.8 37.75 -103.191
      vertex 33.8 34 -97
      vertex 33.8 37.75 -100.818
    endloop
  endfacet
  facet normal -1 0 0
    outer loop
      vertex 33.8 37.75 -100.818
      vertex 33.8 34 -97
      vertex 33.8 37.75 -100.049
    endloop
  endfacet
  facet normal -1 0 0
    outer loop
      vertex 33.8 37.75 -100.049
      vertex 33.8 34 -97
      vertex 33.8 37.75 -97.6767
    endloop
  endfacet
  facet normal -1 0 0
    outer loop
      vertex 33.8 37.75 -97.6767
      vertex 33.8 34 -97
      vertex 33.8 37.75 -97
    endloop
  endfacet
  facet normal -1 0 0
    outer loop
      vertex 33.8 37.75 -144.032
      vertex 33.8 40 -142.474
      vertex 33.8 40 -143.216
    endloop
  endfacet
  facet normal -1 -0 0
    outer loop
      vertex 33.8 40 -142.474
      vertex 33.8 37.75 -144.032
      vertex 33.8 37.75 -141.659
    endloop
  endfacet
  facet normal -1 0 0
    outer loop
      vertex 33.8 37.75 -140.89
      vertex 33.8 40 -139.333
      vertex 33.8 40 -140.075
    endloop
  endfacet
  facet normal -1 -0 0
    outer loop
      vertex 33.8 40 -139.333
      vertex 33.8 37.75 -140.89
      vertex 33.8 37.75 -138.517
    endloop
  endfacet
  facet normal -1 0 0
    outer loop
      vertex 33.8 37.75 -137.749
      vertex 33.8 40 -136.191
      vertex 33.8 40 -136.933
    endloop
  endfacet
  facet normal -1 -0 0
    outer loop
      vertex 33.8 40 -136.191
      vertex 33.8 37.75 -137.749
      vertex 33.8 37.75 -135.376
    endloop
  endfacet
  facet normal -1 0 0
    outer loop
      vertex 33.8 37.75 -134.607
      vertex 33.8 40 -133.05
      vertex 33.8 40 -133.792
    endloop
  endfacet
  facet normal -1 -0 0
    outer loop
      vertex 33.8 40 -133.05
      vertex 33.8 37.75 -134.607
      vertex 33.8 37.75 -132.234
    endloop
  endfacet
  facet normal -1 0 0
    outer loop
      vertex 33.8 37.75 -131.465
      vertex 33.8 40 -129.908
      vertex 33.8 40 -130.65
    endloop
  endfacet
  facet normal -1 -0 0
    outer loop
      vertex 33.8 40 -129.908
      vertex 33.8 37.75 -131.465
      vertex 33.8 37.75 -129.093
    endloop
  endfacet
  facet normal -1 0 0
    outer loop
      vertex 33.8 37.75 -128.324
      vertex 33.8 40 -126.766
      vertex 33.8 40 -127.508
    endloop
  endfacet
  facet normal -1 -0 0
    outer loop
      vertex 33.8 40 -126.766
      vertex 33.8 37.75 -128.324
      vertex 33.8 37.75 -125.951
    endloop
  endfacet
  facet normal -1 0 0
    outer loop
      vertex 33.8 37.75 -125.182
      vertex 33.8 40 -123.625
      vertex 33.8 40 -124.367
    endloop
  endfacet
  facet normal -1 -0 0
    outer loop
      vertex 33.8 40 -123.625
      vertex 33.8 37.75 -125.182
      vertex 33.8 37.75 -122.809
    endloop
  endfacet
  facet normal -1 0 0
    outer loop
      vertex 33.8 37.75 -122.041
      vertex 33.8 40 -120.483
      vertex 33.8 40 -121.225
    endloop
  endfacet
  facet normal -1 -0 0
    outer loop
      vertex 33.8 40 -120.483
      vertex 33.8 37.75 -122.041
      vertex 33.8 37.75 -119.668
    endloop
  endfacet
  facet normal -1 0 0
    outer loop
      vertex 33.8 37.75 -118.899
      vertex 33.8 40 -117.342
      vertex 33.8 40 -118.084
    endloop
  endfacet
  facet normal -1 -0 0
    outer loop
      vertex 33.8 40 -117.342
      vertex 33.8 37.75 -118.899
      vertex 33.8 37.75 -116.526
    endloop
  endfacet
  facet normal -1 0 0
    outer loop
      vertex 33.8 37.75 -115.757
      vertex 33.8 40 -114.2
      vertex 33.8 40 -114.942
    endloop
  endfacet
  facet normal -1 -0 0
    outer loop
      vertex 33.8 40 -114.2
      vertex 33.8 37.75 -115.757
      vertex 33.8 37.75 -113.385
    endloop
  endfacet
  facet normal -1 0 0
    outer loop
      vertex 33.8 37.75 -112.616
      vertex 33.8 40 -111.058
      vertex 33.8 40 -111.8
    endloop
  endfacet
  facet normal -1 -0 0
    outer loop
      vertex 33.8 40 -111.058
      vertex 33.8 37.75 -112.616
      vertex 33.8 37.75 -110.243
    endloop
  endfacet
  facet normal -1 0 0
    outer loop
      vertex 33.8 37.75 -109.474
      vertex 33.8 40 -107.917
      vertex 33.8 40 -108.659
    endloop
  endfacet
  facet normal -1 -0 0
    outer loop
      vertex 33.8 40 -107.917
      vertex 33.8 37.75 -109.474
      vertex 33.8 37.75 -107.102
    endloop
  endfacet
  facet normal -1 0 0
    outer loop
      vertex 33.8 37.75 -106.333
      vertex 33.8 40 -104.775
      vertex 33.8 40 -105.517
    endloop
  endfacet
  facet normal -1 -0 0
    outer loop
      vertex 33.8 40 -104.775
      vertex 33.8 37.75 -106.333
      vertex 33.8 37.75 -103.96
    endloop
  endfacet
  facet normal -1 0 0
    outer loop
      vertex 33.8 37.75 -103.191
      vertex 33.8 40 -101.634
      vertex 33.8 40 -102.376
    endloop
  endfacet
  facet normal -1 -0 0
    outer loop
      vertex 33.8 40 -101.634
      vertex 33.8 37.75 -103.191
      vertex 33.8 37.75 -100.818
    endloop
  endfacet
  facet normal -1 0 0
    outer loop
      vertex 33.8 37.75 -100.049
      vertex 33.8 40 -98.4921
      vertex 33.8 40 -99.2341
    endloop
  endfacet
  facet normal -1 -0 0
    outer loop
      vertex 33.8 40 -98.4921
      vertex 33.8 37.75 -100.049
      vertex 33.8 37.75 -97.6767
    endloop
  endfacet
  facet normal 0 1 0
    outer loop
      vertex 37.6 37.75 -97
      vertex 37.4 37.75 -97.6767
      vertex 33.8 37.75 -97
    endloop
  endfacet
  facet normal 0 1 0
    outer loop
      vertex 37.6 37.75 -97
      vertex 37.4 37.75 -100.049
      vertex 37.4 37.75 -97.6767
    endloop
  endfacet
  facet normal 0 1 0
    outer loop
      vertex 37.4 37.75 -100.049
      vertex 37.4 37.75 -100.818
      vertex 33.8 37.75 -100.049
    endloop
  endfacet
  facet normal 0 1 0
    outer loop
      vertex 37.6 37.75 -97
      vertex 37.4 37.75 -100.818
      vertex 37.4 37.75 -100.049
    endloop
  endfacet
  facet normal 0 1 0
    outer loop
      vertex 37.6 37.75 -97
      vertex 37.4 37.75 -103.191
      vertex 37.4 37.75 -100.818
    endloop
  endfacet
  facet normal 0 1 0
    outer loop
      vertex 37.4 37.75 -103.191
      vertex 37.4 37.75 -103.96
      vertex 33.8 37.75 -103.191
    endloop
  endfacet
  facet normal 0 1 -0
    outer loop
      vertex 37.6 37.75 -107
      vertex 37.4 37.75 -103.191
      vertex 37.6 37.75 -97
    endloop
  endfacet
  facet normal 0 1 0
    outer loop
      vertex 37.4 37.75 -103.191
      vertex 37.6 37.75 -107
      vertex 37.4 37.75 -103.96
    endloop
  endfacet
  facet normal 0 1 0
    outer loop
      vertex 37.4 37.75 -103.96
      vertex 37.6 37.75 -107
      vertex 37.4 37.75 -106.333
    endloop
  endfacet
  facet normal 0 1 0
    outer loop
      vertex 37.4 37.75 -107
      vertex 37.4 37.75 -106.333
      vertex 37.6 37.75 -107
    endloop
  endfacet
  facet normal 0 1 0
    outer loop
      vertex 37.4 37.75 -106.333
      vertex 37.4 37.75 -107
      vertex 33.8 37.75 -106.333
    endloop
  endfacet
  facet normal 0 1 0
    outer loop
      vertex 33.8 37.75 -107.102
      vertex 37.4 37.75 -107
      vertex 37.4 37.75 -107.102
    endloop
  endfacet
  facet normal 0 1 0
    outer loop
      vertex 37.4 37.75 -107
      vertex 33.8 37.75 -107.102
      vertex 33.8 37.75 -106.333
    endloop
  endfacet
  facet normal 0 1 0
    outer loop
      vertex 33.8 37.75 -97
      vertex 37.4 37.75 -97.6767
      vertex 33.8 37.75 -97.6767
    endloop
  endfacet
  facet normal 0 1 0
    outer loop
      vertex 33.8 37.75 -100.049
      vertex 37.4 37.75 -100.818
      vertex 33.8 37.75 -100.818
    endloop
  endfacet
  facet normal 0 1 0
    outer loop
      vertex 33.8 37.75 -103.191
      vertex 37.4 37.75 -103.96
      vertex 33.8 37.75 -103.96
    endloop
  endfacet
  facet normal 0 1 -0
    outer loop
      vertex 37.4 37.75 -147
      vertex 33.8 37.75 -144.032
      vertex 37.4 37.75 -144.032
    endloop
  endfacet
  facet normal 0 1 0
    outer loop
      vertex 33.8 37.75 -144.032
      vertex 37.4 37.75 -147
      vertex 33.8 37.75 -147
    endloop
  endfacet
  facet normal 0 1 -0
    outer loop
      vertex 37.4 37.75 -122.809
      vertex 33.8 37.75 -122.041
      vertex 37.4 37.75 -122.041
    endloop
  endfacet
  facet normal 0 1 0
    outer loop
      vertex 33.8 37.75 -122.041
      vertex 37.4 37.75 -122.809
      vertex 33.8 37.75 -122.809
    endloop
  endfacet
  facet normal 0 1 -0
    outer loop
      vertex 37.4 37.75 -125.951
      vertex 33.8 37.75 -125.182
      vertex 37.4 37.75 -125.182
    endloop
  endfacet
  facet normal 0 1 0
    outer loop
      vertex 33.8 37.75 -125.182
      vertex 37.4 37.75 -125.951
      vertex 33.8 37.75 -125.951
    endloop
  endfacet
  facet normal 0 1 -0
    outer loop
      vertex 37.4 37.75 -129.093
      vertex 33.8 37.75 -128.324
      vertex 37.4 37.75 -128.324
    endloop
  endfacet
  facet normal 0 1 0
    outer loop
      vertex 33.8 37.75 -128.324
      vertex 37.4 37.75 -129.093
      vertex 33.8 37.75 -129.093
    endloop
  endfacet
  facet normal 0 1 -0
    outer loop
      vertex 37.4 37.75 -132.234
      vertex 33.8 37.75 -131.465
      vertex 37.4 37.75 -131.465
    endloop
  endfacet
  facet normal 0 1 0
    outer loop
      vertex 33.8 37.75 -131.465
      vertex 37.4 37.75 -132.234
      vertex 33.8 37.75 -132.234
    endloop
  endfacet
  facet normal 0 1 -0
    outer loop
      vertex 37.4 37.75 -135.376
      vertex 33.8 37.75 -134.607
      vertex 37.4 37.75 -134.607
    endloop
  endfacet
  facet normal 0 1 0
    outer loop
      vertex 33.8 37.75 -134.607
      vertex 37.4 37.75 -135.376
      vertex 33.8 37.75 -135.376
    endloop
  endfacet
  facet normal 0 1 -0
    outer loop
      vertex 37.4 37.75 -138.517
      vertex 33.8 37.75 -137.749
      vertex 37.4 37.75 -137.749
    endloop
  endfacet
  facet normal 0 1 0
    outer loop
      vertex 33.8 37.75 -137.749
      vertex 37.4 37.75 -138.517
      vertex 33.8 37.75 -138.517
    endloop
  endfacet
  facet normal 0 1 -0
    outer loop
      vertex 37.4 37.75 -141.659
      vertex 33.8 37.75 -140.89
      vertex 37.4 37.75 -140.89
    endloop
  endfacet
  facet normal 0 1 0
    outer loop
      vertex 33.8 37.75 -140.89
      vertex 37.4 37.75 -141.659
      vertex 33.8 37.75 -141.659
    endloop
  endfacet
  facet normal 0 1 -0
    outer loop
      vertex 37.4 37.75 -110.243
      vertex 33.8 37.75 -109.474
      vertex 37.4 37.75 -109.474
    endloop
  endfacet
  facet normal 0 1 0
    outer loop
      vertex 33.8 37.75 -109.474
      vertex 37.4 37.75 -110.243
      vertex 33.8 37.75 -110.243
    endloop
  endfacet
  facet normal 0 1 -0
    outer loop
      vertex 37.4 37.75 -113.385
      vertex 33.8 37.75 -112.616
      vertex 37.4 37.75 -112.616
    endloop
  endfacet
  facet normal 0 1 0
    outer loop
      vertex 33.8 37.75 -112.616
      vertex 37.4 37.75 -113.385
      vertex 33.8 37.75 -113.385
    endloop
  endfacet
  facet normal 0 1 -0
    outer loop
      vertex 37.4 37.75 -116.526
      vertex 33.8 37.75 -115.757
      vertex 37.4 37.75 -115.757
    endloop
  endfacet
  facet normal 0 1 0
    outer loop
      vertex 33.8 37.75 -115.757
      vertex 37.4 37.75 -116.526
      vertex 33.8 37.75 -116.526
    endloop
  endfacet
  facet normal 0 1 -0
    outer loop
      vertex 37.4 37.75 -119.668
      vertex 33.8 37.75 -118.899
      vertex 37.4 37.75 -118.899
    endloop
  endfacet
  facet normal 0 1 0
    outer loop
      vertex 33.8 37.75 -118.899
      vertex 37.4 37.75 -119.668
      vertex 33.8 37.75 -119.668
    endloop
  endfacet
  facet normal 0 -1 0
    outer loop
      vertex 33.8 34 -97
      vertex 37.4 34 -107
      vertex 37.6 34 -97
    endloop
  endfacet
  facet normal 0 -1 0
    outer loop
      vertex 33.8 34 -147
      vertex 37.4 34 -107
      vertex 33.8 34 -97
    endloop
  endfacet
  facet normal 0 -1 -0
    outer loop
      vertex 37.4 34 -107
      vertex 33.8 34 -147
      vertex 37.4 34 -147
    endloop
  endfacet
  facet normal 0 -1 -0
    outer loop
      vertex 37.6 34 -97
      vertex 37.4 34 -107
      vertex 37.6 34 -107
    endloop
  endfacet
  facet normal 0 1 -0
    outer loop
      vertex 37.4 40 -99.2341
      vertex 33.8 40 -98.4921
      vertex 37.4 40 -98.4921
    endloop
  endfacet
  facet normal 0 1 0
    outer loop
      vertex 33.8 40 -98.4921
      vertex 37.4 40 -99.2341
      vertex 33.8 40 -99.2341
    endloop
  endfacet
  facet normal -0 0.340716 0.940166
    outer loop
      vertex 33.8 40 -98.4921
      vertex 37.4 37.75 -97.6767
      vertex 37.4 40 -98.4921
    endloop
  endfacet
  facet normal 0 0.340716 0.940166
    outer loop
      vertex 37.4 37.75 -97.6767
      vertex 33.8 40 -98.4921
      vertex 33.8 37.75 -97.6767
    endloop
  endfacet
  facet normal 0 0.340532 -0.940233
    outer loop
      vertex 33.8 37.75 -100.049
      vertex 37.4 40 -99.2341
      vertex 37.4 37.75 -100.049
    endloop
  endfacet
  facet normal 0 0.340532 -0.940233
    outer loop
      vertex 37.4 40 -99.2341
      vertex 33.8 37.75 -100.049
      vertex 33.8 40 -99.2341
    endloop
  endfacet
  facet normal 0 1 -0
    outer loop
      vertex 37.4 40 -102.376
      vertex 33.8 40 -101.634
      vertex 37.4 40 -101.634
    endloop
  endfacet
  facet normal 0 1 0
    outer loop
      vertex 33.8 40 -101.634
      vertex 37.4 40 -102.376
      vertex 33.8 40 -102.376
    endloop
  endfacet
  facet normal -0 0.340938 0.940086
    outer loop
      vertex 33.8 40 -101.634
      vertex 37.4 37.75 -100.818
      vertex 37.4 40 -101.634
    endloop
  endfacet
  facet normal 0 0.340938 0.940086
    outer loop
      vertex 37.4 37.75 -100.818
      vertex 33.8 40 -101.634
      vertex 33.8 37.75 -100.818
    endloop
  endfacet
  facet normal 0 0.340568 -0.94022
    outer loop
      vertex 33.8 37.75 -103.191
      vertex 37.4 40 -102.376
      vertex 37.4 37.75 -103.191
    endloop
  endfacet
  facet normal 0 0.340568 -0.94022
    outer loop
      vertex 37.4 40 -102.376
      vertex 33.8 37.75 -103.191
      vertex 33.8 40 -102.376
    endloop
  endfacet
  facet normal 0 1 -0
    outer loop
      vertex 37.4 40 -105.517
      vertex 33.8 40 -104.775
      vertex 37.4 40 -104.775
    endloop
  endfacet
  facet normal 0 1 0
    outer loop
      vertex 33.8 40 -104.775
      vertex 37.4 40 -105.517
      vertex 33.8 40 -105.517
    endloop
  endfacet
  facet normal -0 0.340568 0.94022
    outer loop
      vertex 33.8 40 -104.775
      vertex 37.4 37.75 -103.96
      vertex 37.4 40 -104.775
    endloop
  endfacet
  facet normal 0 0.340568 0.94022
    outer loop
      vertex 37.4 37.75 -103.96
      vertex 33.8 40 -104.775
      vertex 33.8 37.75 -103.96
    endloop
  endfacet
  facet normal 0 0.340938 -0.940086
    outer loop
      vertex 33.8 37.75 -106.333
      vertex 37.4 40 -105.517
      vertex 37.4 37.75 -106.333
    endloop
  endfacet
  facet normal 0 0.340938 -0.940086
    outer loop
      vertex 37.4 40 -105.517
      vertex 33.8 37.75 -106.333
      vertex 33.8 40 -105.517
    endloop
  endfacet
  facet normal 0 1 -0
    outer loop
      vertex 37.4 40 -108.659
      vertex 33.8 40 -107.917
      vertex 37.4 40 -107.917
    endloop
  endfacet
  facet normal 0 1 0
    outer loop
      vertex 33.8 40 -107.917
      vertex 37.4 40 -108.659
      vertex 33.8 40 -108.659
    endloop
  endfacet
  facet normal -0 0.340568 0.94022
    outer loop
      vertex 33.8 40 -107.917
      vertex 37.4 37.75 -107.102
      vertex 37.4 40 -107.917
    endloop
  endfacet
  facet normal 0 0.340568 0.94022
    outer loop
      vertex 37.4 37.75 -107.102
      vertex 33.8 40 -107.917
      vertex 33.8 37.75 -107.102
    endloop
  endfacet
  facet normal 0 0.340568 -0.94022
    outer loop
      vertex 33.8 37.75 -109.474
      vertex 37.4 40 -108.659
      vertex 37.4 37.75 -109.474
    endloop
  endfacet
  facet normal 0 0.340568 -0.94022
    outer loop
      vertex 37.4 40 -108.659
      vertex 33.8 37.75 -109.474
      vertex 33.8 40 -108.659
    endloop
  endfacet
  facet normal 0 1 -0
    outer loop
      vertex 37.4 40 -111.8
      vertex 33.8 40 -111.058
      vertex 37.4 40 -111.058
    endloop
  endfacet
  facet normal 0 1 0
    outer loop
      vertex 33.8 40 -111.058
      vertex 37.4 40 -111.8
      vertex 33.8 40 -111.8
    endloop
  endfacet
  facet normal -0 0.340568 0.94022
    outer loop
      vertex 33.8 40 -111.058
      vertex 37.4 37.75 -110.243
      vertex 37.4 40 -111.058
    endloop
  endfacet
  facet normal 0 0.340568 0.94022
    outer loop
      vertex 37.4 37.75 -110.243
      vertex 33.8 40 -111.058
      vertex 33.8 37.75 -110.243
    endloop
  endfacet
  facet normal 0 0.340938 -0.940086
    outer loop
      vertex 33.8 37.75 -112.616
      vertex 37.4 40 -111.8
      vertex 37.4 37.75 -112.616
    endloop
  endfacet
  facet normal 0 0.340938 -0.940086
    outer loop
      vertex 37.4 40 -111.8
      vertex 33.8 37.75 -112.616
      vertex 33.8 40 -111.8
    endloop
  endfacet
  facet normal 0 1 -0
    outer loop
      vertex 37.4 40 -114.942
      vertex 33.8 40 -114.2
      vertex 37.4 40 -114.2
    endloop
  endfacet
  facet normal 0 1 0
    outer loop
      vertex 33.8 40 -114.2
      vertex 37.4 40 -114.942
      vertex 33.8 40 -114.942
    endloop
  endfacet
  facet normal -0 0.340568 0.94022
    outer loop
      vertex 33.8 40 -114.2
      vertex 37.4 37.75 -113.385
      vertex 37.4 40 -114.2
    endloop
  endfacet
  facet normal 0 0.340568 0.94022
    outer loop
      vertex 37.4 37.75 -113.385
      vertex 33.8 40 -114.2
      vertex 33.8 37.75 -113.385
    endloop
  endfacet
  facet normal 0 0.340568 -0.94022
    outer loop
      vertex 33.8 37.75 -115.757
      vertex 37.4 40 -114.942
      vertex 37.4 37.75 -115.757
    endloop
  endfacet
  facet normal 0 0.340568 -0.94022
    outer loop
      vertex 37.4 40 -114.942
      vertex 33.8 37.75 -115.757
      vertex 33.8 40 -114.942
    endloop
  endfacet
  facet normal 0 1 -0
    outer loop
      vertex 37.4 40 -118.084
      vertex 33.8 40 -117.342
      vertex 37.4 40 -117.342
    endloop
  endfacet
  facet normal 0 1 0
    outer loop
      vertex 33.8 40 -117.342
      vertex 37.4 40 -118.084
      vertex 33.8 40 -118.084
    endloop
  endfacet
  facet normal -0 0.340938 0.940086
    outer loop
      vertex 33.8 40 -117.342
      vertex 37.4 37.75 -116.526
      vertex 37.4 40 -117.342
    endloop
  endfacet
  facet normal 0 0.340938 0.940086
    outer loop
      vertex 37.4 37.75 -116.526
      vertex 33.8 40 -117.342
      vertex 33.8 37.75 -116.526
    endloop
  endfacet
  facet normal 0 0.340568 -0.94022
    outer loop
      vertex 33.8 37.75 -118.899
      vertex 37.4 40 -118.084
      vertex 37.4 37.75 -118.899
    endloop
  endfacet
  facet normal 0 0.340568 -0.94022
    outer loop
      vertex 37.4 40 -118.084
      vertex 33.8 37.75 -118.899
      vertex 33.8 40 -118.084
    endloop
  endfacet
  facet normal 0 1 -0
    outer loop
      vertex 37.4 40 -121.225
      vertex 33.8 40 -120.483
      vertex 37.4 40 -120.483
    endloop
  endfacet
  facet normal 0 1 0
    outer loop
      vertex 33.8 40 -120.483
      vertex 37.4 40 -121.225
      vertex 33.8 40 -121.225
    endloop
  endfacet
  facet normal -0 0.340568 0.94022
    outer loop
      vertex 33.8 40 -120.483
      vertex 37.4 37.75 -119.668
      vertex 37.4 40 -120.483
    endloop
  endfacet
  facet normal 0 0.340568 0.94022
    outer loop
      vertex 37.4 37.75 -119.668
      vertex 33.8 40 -120.483
      vertex 33.8 37.75 -119.668
    endloop
  endfacet
  facet normal 0 0.340938 -0.940086
    outer loop
      vertex 33.8 37.75 -122.041
      vertex 37.4 40 -121.225
      vertex 37.4 37.75 -122.041
    endloop
  endfacet
  facet normal 0 0.340938 -0.940086
    outer loop
      vertex 37.4 40 -121.225
      vertex 33.8 37.75 -122.041
      vertex 33.8 40 -121.225
    endloop
  endfacet
  facet normal 0 1 -0
    outer loop
      vertex 37.4 40 -124.367
      vertex 33.8 40 -123.625
      vertex 37.4 40 -123.625
    endloop
  endfacet
  facet normal 0 1 0
    outer loop
      vertex 33.8 40 -123.625
      vertex 37.4 40 -124.367
      vertex 33.8 40 -124.367
    endloop
  endfacet
  facet normal -0 0.340938 0.940086
    outer loop
      vertex 33.8 40 -123.625
      vertex 37.4 37.75 -122.809
      vertex 37.4 40 -123.625
    endloop
  endfacet
  facet normal 0 0.340938 0.940086
    outer loop
      vertex 37.4 37.75 -122.809
      vertex 33.8 40 -123.625
      vertex 33.8 37.75 -122.809
    endloop
  endfacet
  facet normal 0 0.340568 -0.94022
    outer loop
      vertex 33.8 37.75 -125.182
      vertex 37.4 40 -124.367
      vertex 37.4 37.75 -125.182
    endloop
  endfacet
  facet normal 0 0.340568 -0.94022
    outer loop
      vertex 37.4 40 -124.367
      vertex 33.8 37.75 -125.182
      vertex 33.8 40 -124.367
    endloop
  endfacet
  facet normal 0 1 -0
    outer loop
      vertex 37.4 40 -127.508
      vertex 33.8 40 -126.766
      vertex 37.4 40 -126.766
    endloop
  endfacet
  facet normal 0 1 0
    outer loop
      vertex 33.8 40 -126.766
      vertex 37.4 40 -127.508
      vertex 33.8 40 -127.508
    endloop
  endfacet
  facet normal -0 0.340568 0.94022
    outer loop
      vertex 33.8 40 -126.766
      vertex 37.4 37.75 -125.951
      vertex 37.4 40 -126.766
    endloop
  endfacet
  facet normal 0 0.340568 0.94022
    outer loop
      vertex 37.4 37.75 -125.951
      vertex 33.8 40 -126.766
      vertex 33.8 37.75 -125.951
    endloop
  endfacet
  facet normal 0 0.340938 -0.940086
    outer loop
      vertex 33.8 37.75 -128.324
      vertex 37.4 40 -127.508
      vertex 37.4 37.75 -128.324
    endloop
  endfacet
  facet normal 0 0.340938 -0.940086
    outer loop
      vertex 37.4 40 -127.508
      vertex 33.8 37.75 -128.324
      vertex 33.8 40 -127.508
    endloop
  endfacet
  facet normal 0 1 -0
    outer loop
      vertex 37.4 40 -130.65
      vertex 33.8 40 -129.908
      vertex 37.4 40 -129.908
    endloop
  endfacet
  facet normal 0 1 0
    outer loop
      vertex 33.8 40 -129.908
      vertex 37.4 40 -130.65
      vertex 33.8 40 -130.65
    endloop
  endfacet
  facet normal -0 0.340568 0.94022
    outer loop
      vertex 33.8 40 -129.908
      vertex 37.4 37.75 -129.093
      vertex 37.4 40 -129.908
    endloop
  endfacet
  facet normal 0 0.340568 0.94022
    outer loop
      vertex 37.4 37.75 -129.093
      vertex 33.8 40 -129.908
      vertex 33.8 37.75 -129.093
    endloop
  endfacet
  facet normal 0 0.340568 -0.94022
    outer loop
      vertex 33.8 37.75 -131.465
      vertex 37.4 40 -130.65
      vertex 37.4 37.75 -131.465
    endloop
  endfacet
  facet normal 0 0.340568 -0.94022
    outer loop
      vertex 37.4 40 -130.65
      vertex 33.8 37.75 -131.465
      vertex 33.8 40 -130.65
    endloop
  endfacet
  facet normal 0 1 -0
    outer loop
      vertex 37.4 40 -133.792
      vertex 33.8 40 -133.05
      vertex 37.4 40 -133.05
    endloop
  endfacet
  facet normal 0 1 0
    outer loop
      vertex 33.8 40 -133.05
      vertex 37.4 40 -133.792
      vertex 33.8 40 -133.792
    endloop
  endfacet
  facet normal -0 0.340938 0.940086
    outer loop
      vertex 33.8 40 -133.05
      vertex 37.4 37.75 -132.234
      vertex 37.4 40 -133.05
    endloop
  endfacet
  facet normal 0 0.340938 0.940086
    outer loop
      vertex 37.4 37.75 -132.234
      vertex 33.8 40 -133.05
      vertex 33.8 37.75 -132.234
    endloop
  endfacet
  facet normal 0 0.340568 -0.94022
    outer loop
      vertex 33.8 37.75 -134.607
      vertex 37.4 40 -133.792
      vertex 37.4 37.75 -134.607
    endloop
  endfacet
  facet normal 0 0.340568 -0.94022
    outer loop
      vertex 37.4 40 -133.792
      vertex 33.8 37.75 -134.607
      vertex 33.8 40 -133.792
    endloop
  endfacet
  facet normal 0 1 -0
    outer loop
      vertex 37.4 40 -136.933
      vertex 33.8 40 -136.191
      vertex 37.4 40 -136.191
    endloop
  endfacet
  facet normal 0 1 0
    outer loop
      vertex 33.8 40 -136.191
      vertex 37.4 40 -136.933
      vertex 33.8 40 -136.933
    endloop
  endfacet
  facet normal -0 0.340568 0.94022
    outer loop
      vertex 33.8 40 -136.191
      vertex 37.4 37.75 -135.376
      vertex 37.4 40 -136.191
    endloop
  endfacet
  facet normal 0 0.340568 0.94022
    outer loop
      vertex 37.4 37.75 -135.376
      vertex 33.8 40 -136.191
      vertex 33.8 37.75 -135.376
    endloop
  endfacet
  facet normal 0 0.340938 -0.940086
    outer loop
      vertex 33.8 37.75 -137.749
      vertex 37.4 40 -136.933
      vertex 37.4 37.75 -137.749
    endloop
  endfacet
  facet normal 0 0.340938 -0.940086
    outer loop
      vertex 37.4 40 -136.933
      vertex 33.8 37.75 -137.749
      vertex 33.8 40 -136.933
    endloop
  endfacet
  facet normal 0 1 -0
    outer loop
      vertex 37.4 40 -140.075
      vertex 33.8 40 -139.333
      vertex 37.4 40 -139.333
    endloop
  endfacet
  facet normal 0 1 0
    outer loop
      vertex 33.8 40 -139.333
      vertex 37.4 40 -140.075
      vertex 33.8 40 -140.075
    endloop
  endfacet
  facet normal -0 0.340938 0.940086
    outer loop
      vertex 33.8 40 -139.333
      vertex 37.4 37.75 -138.517
      vertex 37.4 40 -139.333
    endloop
  endfacet
  facet normal 0 0.340938 0.940086
    outer loop
      vertex 37.4 37.75 -138.517
      vertex 33.8 40 -139.333
      vertex 33.8 37.75 -138.517
    endloop
  endfacet
  facet normal 0 0.340568 -0.94022
    outer loop
      vertex 33.8 37.75 -140.89
      vertex 37.4 40 -140.075
      vertex 37.4 37.75 -140.89
    endloop
  endfacet
  facet normal 0 0.340568 -0.94022
    outer loop
      vertex 37.4 40 -140.075
      vertex 33.8 37.75 -140.89
      vertex 33.8 40 -140.075
    endloop
  endfacet
  facet normal 0 1 -0
    outer loop
      vertex 37.4 40 -143.216
      vertex 33.8 40 -142.474
      vertex 37.4 40 -142.474
    endloop
  endfacet
  facet normal 0 1 0
    outer loop
      vertex 33.8 40 -142.474
      vertex 37.4 40 -143.216
      vertex 33.8 40 -143.216
    endloop
  endfacet
  facet normal -0 0.340568 0.94022
    outer loop
      vertex 33.8 40 -142.474
      vertex 37.4 37.75 -141.659
      vertex 37.4 40 -142.474
    endloop
  endfacet
  facet normal 0 0.340568 0.94022
    outer loop
      vertex 37.4 37.75 -141.659
      vertex 33.8 40 -142.474
      vertex 33.8 37.75 -141.659
    endloop
  endfacet
  facet normal 0 0.340938 -0.940086
    outer loop
      vertex 33.8 37.75 -144.032
      vertex 37.4 40 -143.216
      vertex 37.4 37.75 -144.032
    endloop
  endfacet
  facet normal 0 0.340938 -0.940086
    outer loop
      vertex 37.4 40 -143.216
      vertex 33.8 37.75 -144.032
      vertex 33.8 40 -143.216
    endloop
  endfacet
  facet normal 1 -0 0
    outer loop
      vertex 39.6 -44.6 -67
      vertex 39.6 42 -107
      vertex 39.6 42 -67
    endloop
  endfacet
  facet normal 1 0 0
    outer loop
      vertex 39.6 42 -107
      vertex 39.6 -44.6 -67
      vertex 39.6 -44.6 -107
    endloop
  endfacet
  facet normal -0 0 1
    outer loop
      vertex 37.6 42 -67
      vertex 39.6 -44.6 -67
      vertex 39.6 42 -67
    endloop
  endfacet
  facet normal 0 0 1
    outer loop
      vertex 39.6 -44.6 -67
      vertex 37.6 42 -67
      vertex 37.6 -44.6 -67
    endloop
  endfacet
  facet normal 0 0 -1
    outer loop
      vertex 37.4 34 -107
      vertex 37.6 37.75 -107
      vertex 37.6 34 -107
    endloop
  endfacet
  facet normal -0 0 -1
    outer loop
      vertex 37.6 37.75 -107
      vertex 37.4 34 -107
      vertex 37.4 37.75 -107
    endloop
  endfacet
  facet normal 0 0 -1
    outer loop
      vertex 37.6 34 -107
      vertex 39.6 -44.6 -107
      vertex 37.6 -44.6 -107
    endloop
  endfacet
  facet normal 0 0 -1
    outer loop
      vertex 39.6 -44.6 -107
      vertex 37.6 34 -107
      vertex 39.6 42 -107
    endloop
  endfacet
  facet normal 0 0 -1
    outer loop
      vertex 37.6 37.75 -107
      vertex 39.6 42 -107
      vertex 37.6 34 -107
    endloop
  endfacet
  facet normal -0 0 -1
    outer loop
      vertex 39.6 42 -107
      vertex 37.6 37.75 -107
      vertex 37.6 42 -107
    endloop
  endfacet
  facet normal -1 0 0
    outer loop
      vertex 37.6 34 -107
      vertex 37.6 -44.6 -107
      vertex 37.6 34 -97
    endloop
  endfacet
  facet normal -1 0 0
    outer loop
      vertex 37.6 37.75 -97
      vertex 37.6 42 -107
      vertex 37.6 37.75 -107
    endloop
  endfacet
  facet normal -1 0 0
    outer loop
      vertex 37.6 42 -107
      vertex 37.6 37.75 -97
      vertex 37.6 42 -67
    endloop
  endfacet
  facet normal -1 0 0
    outer loop
      vertex 37.6 34 -97
      vertex 37.6 42 -67
      vertex 37.6 37.75 -97
    endloop
  endfacet
  facet normal -1 0 0
    outer loop
      vertex 37.6 -44.6 -67
      vertex 37.6 34 -97
      vertex 37.6 -44.6 -107
    endloop
  endfacet
  facet normal -1 0 0
    outer loop
      vertex 37.6 34 -97
      vertex 37.6 -44.6 -67
      vertex 37.6 42 -67
    endloop
  endfacet
  facet normal 0 1 -0
    outer loop
      vertex 39.6 42 -107
      vertex 37.6 42 -67
      vertex 39.6 42 -67
    endloop
  endfacet
  facet normal 0 1 0
    outer loop
      vertex 37.6 42 -67
      vertex 39.6 42 -107
      vertex 37.6 42 -107
    endloop
  endfacet
  facet normal 0 -1 0
    outer loop
      vertex 37.6 -44.6 -107
      vertex 39.6 -44.6 -67
      vertex 37.6 -44.6 -67
    endloop
  endfacet
  facet normal 0 -1 -0
    outer loop
      vertex 39.6 -44.6 -67
      vertex 37.6 -44.6 -107
      vertex 39.6 -44.6 -107
    endloop
  endfacet
endsolid OpenSCAD_Model
